<?xml version="1.0" encoding="UTF-8"?>
<svg version="1.1" xmlns="http://www.w3.org/2000/svg" width="512" height="512">
<path d="M0 0 C4.46279226 2.15170341 7.2358803 4.90500786 10 9 C10.92980949 11.90829351 11.12450238 14.54101366 11.12304783 17.58394241 C11.12503888 18.50455625 11.12702993 19.42517008 11.12908131 20.37368131 C11.12616847 21.38145839 11.12325563 22.38923548 11.12025452 23.42755127 C11.12110894 24.50085969 11.12196337 25.57416811 11.12284368 26.68000102 C11.12449512 30.28831175 11.11898255 33.89657634 11.11352539 37.50488281 C11.11324342 40.08672077 11.11340144 42.66855881 11.1139679 45.25039673 C11.11449239 50.81502005 11.11135336 56.37963164 11.10573006 61.94425201 C11.09760498 69.98977024 11.0949988 78.03528279 11.09374207 86.08080468 C11.09155314 99.13395112 11.08489735 112.18709132 11.07543945 125.24023438 C11.06626123 137.9205726 11.0591824 150.60090913 11.05493164 163.28125 C11.05466892 164.06279195 11.05440619 164.84433389 11.05413551 165.64955893 C11.05283048 169.57030305 11.05156677 173.49104718 11.05032361 177.41179132 C11.03995594 209.94119876 11.02234193 242.47059855 11 275 C12.27875 274.95359375 13.5575 274.9071875 14.875 274.859375 C16.58330979 274.82182973 18.29164508 274.78543255 20 274.75 C20.83917969 274.71648437 21.67835938 274.68296875 22.54296875 274.6484375 C28.49618436 274.55613958 33.08461627 275.49990653 38 279 C42.19659702 284.27264754 43.44701486 288.29477715 43 295 C41.17942998 300.86628117 38.87114644 303.54960461 34 307 C30.52363835 308.15878722 27.39505677 308.16291578 23.77807617 308.17700195 C23.04600449 308.18357315 22.3139328 308.19014435 21.55967712 308.19691467 C19.13743993 308.21662208 16.71526465 308.22830432 14.29296875 308.23828125 C13.05061683 308.24439454 13.05061683 308.24439454 11.78316689 308.25063133 C7.39963659 308.27148084 3.0161375 308.28578757 -1.36743164 308.29516602 C-5.89022296 308.30623014 -10.41252225 308.34063298 -14.93513966 308.38033772 C-18.41734215 308.40650655 -21.89942741 308.41485805 -25.38171959 308.41844749 C-27.04865531 308.42331252 -28.71558583 308.4349242 -30.38242531 308.45348549 C-32.71864248 308.47788436 -35.0535865 308.47691122 -37.38989258 308.4699707 C-38.41644958 308.48918579 -38.41644958 308.48918579 -39.46374512 308.50878906 C-44.41360953 308.45536727 -47.17016788 307.05764282 -51 304 C-55.00263619 299.56464639 -56.37763255 296.24216389 -56.27734375 290.19140625 C-55.58421455 284.71470932 -53.2027364 280.95728 -48.9375 277.5625 C-45.10061478 275.52160361 -42.39507156 274.87639351 -38.11328125 274.90234375 C-37.17548828 274.90556641 -36.23769531 274.90878906 -35.27148438 274.91210938 C-34.29501953 274.92048828 -33.31855469 274.92886719 -32.3125 274.9375 C-31.32443359 274.94201172 -30.33636719 274.94652344 -29.31835938 274.95117188 C-26.87884526 274.96295697 -24.43945311 274.97940989 -22 275 C-22.00151888 274.44404205 -22.00303776 273.88808411 -22.00460267 273.31527895 C-22.09411687 240.36398657 -22.16274716 207.41272467 -22.20426132 174.46133795 C-22.20926414 170.50474267 -22.21444143 166.54814764 -22.21972656 162.59155273 C-22.2207758 161.80386661 -22.22182505 161.01618048 -22.22290608 160.20462508 C-22.24031086 147.45085903 -22.27184895 134.69716512 -22.30861118 121.94344186 C-22.34601859 108.85673895 -22.36823542 95.77007381 -22.37635398 82.68331963 C-22.38184218 74.60819717 -22.39917549 66.53327858 -22.43166587 58.45821888 C-22.45531119 52.26601873 -22.45782034 46.07397398 -22.45243073 39.88173485 C-22.45353231 37.34165949 -22.46150399 34.8015765 -22.4768219 32.26154709 C-22.49670123 28.79549398 -22.49194572 25.33031559 -22.48101807 21.86424255 C-22.49266943 20.85742209 -22.5043208 19.85060163 -22.51632524 18.81327146 C-22.46381392 12.65795455 -21.60156565 9.03654725 -18 4 C-12.81900198 -1.05147307 -6.84366817 -0.93066367 0 0 Z " fill="#E50813" transform="translate(384,25)"/>
<path d="M0 0 C4.80573582 2.61707707 7.09652397 6.22707191 8.8125 11.375 C8.90650457 14.18642108 8.94278848 16.97271015 8.93275452 19.78410339 C8.93360894 20.65237977 8.93446337 21.52065614 8.93534368 22.41524392 C8.93699576 25.33568791 8.93148152 28.25607494 8.92602539 31.17651367 C8.92574343 33.26559955 8.92590142 35.35468554 8.9264679 37.44377136 C8.92675554 43.12523934 8.9208641 48.80668632 8.91389394 54.4881494 C8.90765495 60.42189284 8.90705617 66.35563672 8.90586853 72.28938293 C8.90275683 83.5303157 8.8945456 94.77123878 8.88451904 106.01216727 C8.87335292 118.80763902 8.86784619 131.60311123 8.86282361 144.39858663 C8.85236286 170.72406313 8.83476652 197.04953102 8.8125 223.375 C10.09125 223.32859375 11.37 223.2821875 12.6875 223.234375 C14.39580979 223.19682973 16.10414508 223.16043255 17.8125 223.125 C18.65167969 223.09148437 19.49085938 223.05796875 20.35546875 223.0234375 C26.36306669 222.93029645 30.80640447 223.95968225 35.8125 227.375 C40.25176647 232.04192116 41.12465581 235.85248682 41.0234375 242.09765625 C40.57210138 246.97041469 38.3934493 250.06085024 34.8125 253.1875 C30.30599751 256.4734914 27.16291204 256.51076656 21.69824219 256.55200195 C20.97753036 256.55857315 20.25681854 256.56514435 19.51426697 256.57191467 C17.12930188 256.59162316 14.74439972 256.60330553 12.359375 256.61328125 C11.5434211 256.61735678 10.72746719 256.6214323 9.88678741 256.62563133 C5.56694289 256.64648287 1.24713004 256.66078784 -3.07275391 256.67016602 C-7.52594844 256.68122116 -11.97864203 256.71561301 -16.4316597 256.75533772 C-19.86329044 256.78153334 -23.29480242 256.7898605 -26.72652435 256.79344749 C-28.36751433 256.79830682 -30.00849923 256.8099022 -31.64939117 256.82848549 C-33.95188116 256.85293806 -36.25308292 256.85190134 -38.55566406 256.8449707 C-39.86343811 256.85083694 -41.17121216 256.85670319 -42.51861572 256.86274719 C-48.26278249 256.09910871 -51.95276808 253.96715431 -55.5625 249.3125 C-58.07162654 244.77677126 -58.61051169 241.53574256 -58.1875 236.375 C-56.28846173 230.55851706 -53.68117807 227.29716919 -48.1875 224.375 C-45.24618109 223.39456036 -43.36248335 223.25878798 -40.30078125 223.27734375 C-39.36298828 223.28056641 -38.42519531 223.28378906 -37.45898438 223.28710938 C-35.99428711 223.29967773 -35.99428711 223.29967773 -34.5 223.3125 C-33.51193359 223.31701172 -32.52386719 223.32152344 -31.50585938 223.32617188 C-29.06634526 223.33795697 -26.62695311 223.35440989 -24.1875 223.375 C-24.19118717 222.28370757 -24.19487434 221.19241514 -24.19867325 220.06805325 C-24.28745527 193.5195451 -24.35319534 166.97105621 -24.39474869 140.42243099 C-24.41537748 127.58373172 -24.44350431 114.74513049 -24.48925781 101.90649414 C-24.52911566 90.71687507 -24.5549305 79.527327 -24.56385398 68.33763891 C-24.56907046 62.41228386 -24.58133803 56.48713194 -24.61042023 50.56184196 C-24.63757248 44.98457272 -24.64594526 39.40759029 -24.63993073 33.83026123 C-24.64103103 31.78362533 -24.64898589 29.73697982 -24.6643219 27.69040108 C-24.68424662 24.89427749 -24.67942996 22.09923433 -24.66851807 19.30308533 C-24.68016943 18.49470323 -24.6918208 17.68632113 -24.70382524 16.85344261 C-24.64475781 11.247213 -23.41371184 7.98805337 -20.1875 3.375 C-13.79434905 -1.5829538 -7.64145791 -3.43580477 0 0 Z " fill="#E50813" transform="translate(153.1875,33.625)"/>
<path d="M0 0 C5.06474585 5.36267207 5.56141874 10.38412341 5.50595093 17.39709473 C5.51297089 18.76438272 5.51297089 18.76438272 5.52013266 20.1592927 C5.53208268 23.20855741 5.52262527 26.25737271 5.51318359 29.30664062 C5.51724928 31.49480959 5.52259115 33.6829765 5.52911377 35.87113953 C5.5427934 41.81113147 5.53748596 47.75096715 5.52797651 53.69096184 C5.52038333 59.90616147 5.52742458 66.12134769 5.53213501 72.33654785 C5.53794322 83.4426582 5.52861791 94.54870705 5.513357 105.65480524 C5.49995412 115.72026346 5.50228232 125.78561787 5.51611328 135.85107422 C5.53217552 147.54578044 5.53813978 159.24042609 5.52927649 170.93514204 C5.52459844 177.12356019 5.52397881 183.31190687 5.53388596 189.50032043 C5.54254917 195.31815016 5.5365453 201.13578377 5.51920319 206.9535923 C5.51523493 209.08932482 5.51637817 211.22507382 5.52299118 213.36079979 C5.53118316 216.2750581 5.52091317 219.1886871 5.50595093 222.10290527 C5.51264309 222.94901698 5.51933526 223.79512868 5.52623022 224.66688013 C5.47704114 229.60288408 4.83590649 232.96339838 2.125 237.25 C-1.58716651 240.76678933 -4.97499109 243.20620792 -10.203125 243.28515625 C-15.75025543 242.94468866 -19.6791692 242.1461286 -23.875 238.25 C-27.65006053 232.62102439 -28.45301546 227.59575349 -28.37620544 220.93832397 C-28.38173984 220.0332569 -28.38727424 219.12818982 -28.39297634 218.19569647 C-28.40652802 215.18014764 -28.39164343 212.16543435 -28.37670898 209.14990234 C-28.38049409 206.98114166 -28.38599571 204.81238339 -28.39308167 202.64363098 C-28.40702672 196.76568703 -28.39587368 190.8880361 -28.37937045 185.01010847 C-28.36550798 178.85631557 -28.37198127 172.70253946 -28.37550354 166.54873657 C-28.3782043 156.2173389 -28.36474011 145.8860575 -28.34155273 135.5546875 C-28.31492985 123.60989481 -28.31320091 111.66529634 -28.3249411 99.72048414 C-28.33571847 88.22695708 -28.32953301 76.73350027 -28.31538582 65.23997879 C-28.30962711 60.3493547 -28.30970778 55.45878204 -28.31445122 50.5681572 C-28.31922204 44.81102637 -28.30911473 39.05410839 -28.28749657 33.29701805 C-28.28193052 31.18386363 -28.28146172 29.07068875 -28.28644943 26.95753288 C-28.29240215 24.0740217 -28.27989719 21.19116129 -28.26268005 18.30770874 C-28.2686901 17.47074317 -28.27470014 16.63377761 -28.28089231 15.77144945 C-28.21265269 9.49042402 -26.65247847 5.48454437 -22.6875 0.5 C-15.65387108 -5.12690314 -7.53124586 -4.58423661 0 0 Z " fill="#E50813" transform="translate(283.875,238.75)"/>
<path d="M0 0 C4.94583406 4.82218821 6.72018896 8.59938514 6.98101807 15.44236755 C6.99257205 17.86708502 6.98207369 20.29196909 6.95410156 22.71655273 C6.9529719 24.05746934 6.95360926 25.39838842 6.95587158 26.73930359 C6.95701506 30.36295969 6.93356606 33.9860817 6.90557575 37.60961413 C6.88050039 41.40256179 6.87821528 45.19552289 6.87347412 48.98854065 C6.86106228 56.16370006 6.82826518 63.33861448 6.78807616 70.51366621 C6.74330244 78.68534335 6.72135737 86.85703245 6.70129442 95.0288018 C6.65953076 111.83184441 6.58921388 128.63464089 6.5 145.4375 C7.7065625 145.40269531 8.913125 145.36789063 10.15625 145.33203125 C11.77081928 145.30387016 13.38540379 145.27657251 15 145.25 C15.79148437 145.22486328 16.58296875 145.19972656 17.3984375 145.17382812 C23.37925646 145.10029347 29.41146111 145.63915939 34.06420898 149.85473633 C38.2458965 154.67427058 38.86307007 158.71839307 38.7734375 164.8671875 C38.32629857 169.07029344 37.11897692 171.07983729 34.5 174.4375 C29.51624565 177.84140737 25.80449184 179.02681154 19.73217773 178.95507812 C18.61856369 178.96559204 18.61856369 178.96559204 17.48245239 178.97631836 C15.04910948 178.99380237 12.61694672 178.98231205 10.18359375 178.96875 C8.48161091 178.97144741 6.77962957 178.9753319 5.07765198 178.98034668 C1.5194728 178.98622845 -2.03830339 178.97772066 -5.59643555 178.95898438 C-10.14836168 178.93617791 -14.6993452 178.94933656 -19.25123692 178.97327423 C-22.76266029 178.98775333 -26.27386147 178.98311691 -29.78529167 178.97276306 C-31.46335907 178.9701025 -33.14144691 178.97334188 -34.81949043 178.98268127 C-37.16739203 178.99288412 -39.51378272 178.97729665 -41.86157227 178.95507812 C-42.54901016 178.96317505 -43.23644806 178.97127197 -43.94471741 178.97961426 C-48.891745 178.89324101 -51.67591002 177.50512056 -55.5 174.4375 C-59.09683721 170.16018008 -60.7628904 166.04232327 -60.5 160.4375 C-59.33705016 154.86974898 -57.00945474 151.00311537 -52.5 147.4375 C-47.07696239 145.01605065 -41.94049658 145.20465199 -36.125 145.3125 C-35.19816406 145.32152344 -34.27132812 145.33054688 -33.31640625 145.33984375 C-31.04399923 145.36327063 -28.7721382 145.39607252 -26.5 145.4375 C-26.50276538 144.7472769 -26.50553076 144.05705379 -26.50837994 143.34591484 C-26.57465651 126.54493957 -26.6242887 109.74400575 -26.65543652 92.94293022 C-26.67090005 84.81802549 -26.6919797 76.69320807 -26.72631836 68.56835938 C-26.7562365 61.48606562 -26.77557874 54.40383511 -26.78226548 47.32147992 C-26.78617367 43.57201695 -26.79534761 39.82273487 -26.81719017 36.07332993 C-26.84138633 31.88588209 -26.84196844 27.698748 -26.84057617 23.51123047 C-26.851362 22.27045242 -26.86214783 21.02967438 -26.8732605 19.751297 C-26.84578651 12.12892502 -26.20097323 7.47609488 -21 1.625 C-15.42778502 -3.2506881 -6.5102902 -2.90637955 0 0 Z " fill="#E50813" transform="translate(282.5,26.5625)"/>
<path d="M0 0 C4.23592931 3.33466775 7.62228783 7.34875861 8.39872742 12.79875183 C8.415382 14.33925957 8.415382 14.33925957 8.43237305 15.91088867 C8.45214706 17.09578888 8.47192108 18.28068909 8.49229431 19.50149536 C8.49870438 20.79393158 8.50511444 22.0863678 8.51171875 23.41796875 C8.52884974 24.80127454 8.5471972 26.18456571 8.56666565 27.56784058 C8.61540356 31.32395139 8.64509843 35.07998925 8.67036438 38.83632278 C8.69326785 41.97890673 8.7256613 45.12136525 8.75786018 48.26386547 C8.84241713 56.57869894 8.90322881 64.89355364 8.9521656 73.2086668 C8.9882539 79.30812631 9.03352938 85.40746761 9.08251953 91.50683594 C9.1500571 100.05127129 9.19694623 108.59565061 9.22915649 117.14028931 C9.24172958 120.41637256 9.26046376 123.69233292 9.28427124 126.96835327 C9.31157966 130.83405426 9.32373343 134.69951685 9.32426262 138.56531143 C9.32680337 139.98445629 9.33442904 141.40360273 9.3475666 142.82268906 C9.36462239 144.76591607 9.36100865 146.70929138 9.35644531 148.65258789 C9.36191376 150.28327965 9.36191376 150.28327965 9.36749268 151.94691467 C8.86066231 156.15760089 7.37012616 159.53225671 4.46484375 162.64453125 C-1.52838535 167.22758879 -5.50594405 167.72456342 -13 167 C-17.73734103 165.56496604 -20.82002548 162.69305243 -23.17712402 158.33908081 C-25.02617968 153.08301461 -24.60581314 147.38904015 -24.609375 141.87890625 C-24.62463082 140.44800008 -24.64156165 139.01711094 -24.66003418 137.58624268 C-24.70474732 133.71715589 -24.7246307 129.84831165 -24.73902893 125.97900772 C-24.75370779 122.74581599 -24.78159795 119.51279539 -24.80967331 116.27969646 C-24.88332693 107.79678644 -24.92940726 99.31394147 -24.96363449 90.83079052 C-24.9891943 84.75490655 -25.02947817 78.67925617 -25.078125 72.60351562 C-25.1446197 64.26354206 -25.19368394 55.92363198 -25.22814941 47.58346558 C-25.2414568 44.40951658 -25.26062428 41.23568432 -25.2845459 38.0617981 C-25.31184289 34.3248778 -25.32392577 30.58820565 -25.32432556 26.85118866 C-25.32801157 24.83167804 -25.34645 22.81221113 -25.36535645 20.79278564 C-25.36241577 19.58475281 -25.3594751 18.37671997 -25.35644531 17.13208008 C-25.36009094 16.08651443 -25.36373657 15.04094879 -25.36749268 13.96369934 C-24.62611836 7.98477594 -21.59004051 3.75548769 -17 0 C-11.12659348 -2.64879117 -5.94267731 -2.13896026 0 0 Z " fill="#E50813" transform="translate(153,322)"/>
<path d="M0 0 C4.45146251 2.18526342 7.18885145 4.9394521 10 9 C11.01840905 12.05522716 11.15440416 14.2146509 11.20532227 17.41650391 C11.23520233 19.08988579 11.23520233 19.08988579 11.26568604 20.79707336 C11.29079254 22.61842049 11.29079254 22.61842049 11.31640625 24.4765625 C11.33741394 25.73844894 11.35842163 27.00033539 11.38006592 28.30046082 C11.44659055 32.40857735 11.50546805 36.51674421 11.5625 40.625 C11.58249248 42.02525921 11.6025425 43.42551759 11.62265015 44.82577515 C11.71162416 51.06218389 11.79658431 57.29862599 11.87517262 63.53517437 C11.95129968 69.56821304 12.0424594 75.60053198 12.15821838 81.63293457 C12.21371583 84.68859407 12.25319039 87.74425299 12.28610229 90.80023193 C12.31171446 92.75261884 12.35684326 94.70471932 12.40258789 96.65673828 C12.44884558 103.61292035 11.79765624 108.10636955 8 114 C3.91453947 117.79364192 -0.03575317 118.82040909 -5.46875 119.1640625 C-10.97376739 118.80725582 -14.70912013 116.35707884 -18.4375 112.4375 C-22.09476417 106.7321679 -21.37901877 100.1856938 -21.5625 93.625 C-21.58268188 92.92379028 -21.60286377 92.22258057 -21.62365723 91.50012207 C-22.05150379 75.97675134 -22.17041272 60.44671003 -22.23117065 44.91815186 C-22.24228239 42.14141719 -22.26015496 39.36485205 -22.28372192 36.5881958 C-22.31643534 32.63691066 -22.32351193 28.68579754 -22.328125 24.734375 C-22.34042648 23.5387796 -22.35272797 22.3431842 -22.36540222 21.11135864 C-22.34787278 14.5156882 -22.18942967 9.41666639 -17.46484375 4.35546875 C-11.49668828 -0.20841484 -7.47227823 -0.76096751 0 0 Z " fill="#E50813" transform="translate(383,363)"/>
</svg>
