<?xml version="1.0" encoding="UTF-8"?>
<svg version="1.1" xmlns="http://www.w3.org/2000/svg" width="240" height="240">
<path d="M0 0 C2.8125 2.625 2.8125 2.625 5 5 C5.99 5.66 6.98 6.32 8 7 C8.66 6.0925 9.32 5.185 10 4.25 C13.8385995 -0.37600453 19.15262929 -2.85005326 25 -4 C35.51609027 -4.94058872 44.75066223 -2.87444814 53 4 C56.23231612 7.94948626 57.66257029 11.72986305 57.3984375 16.94140625 C56.50127359 21.57675314 54.3228953 25.6771047 51 29 C51.21052076 31.9472907 52.19890504 33.25639204 54.02734375 35.61328125 C56.47874282 39.82192083 56.5679507 42.67815337 56.4375 47.4375 C56.44458984 48.16259766 56.45167969 48.88769531 56.45898438 49.63476562 C56.36405363 57.76229778 53.1249062 64.68568485 47.46875 70.6015625 C42.26154339 75.40639405 37.26846625 77.61867894 30.25 78.4375 C19.80449293 77.92445938 12.10017418 73.3870499 5 66 C2.20122472 67.67639953 -0.59118358 69.36127886 -3.375 71.0625 C-11.28328632 75.46348663 -19.04913903 75.6988043 -28 75 C-30.00580007 74.35099265 -32.00677205 73.68664896 -34 73 C-37.31046376 73.27587198 -40.02035598 73.51017799 -43 75 C-44.39311903 75.09646853 -45.79105319 75.12980705 -47.1875 75.125 C-47.99445313 75.12242187 -48.80140625 75.11984375 -49.6328125 75.1171875 C-52 75 -52 75 -55.5625 74.25 C-59.74365488 73.94591601 -61.52820847 75.09687284 -65.1015625 77.0546875 C-68.02182822 78.50881158 -69.78871971 78.58982699 -73 78 C-76.1187071 76.51514604 -79.06851466 74.82403532 -82 73 C-82.38929687 73.39832031 -82.77859375 73.79664063 -83.1796875 74.20703125 C-87.85393753 78.63356757 -92.57818257 81.08112259 -99 82 C-103.83807435 81.74857251 -105.91334585 79.54280086 -109.1875 76.125 C-110.04730469 75.24070312 -110.90710938 74.35640625 -111.79296875 73.4453125 C-118.45617749 66.06271308 -117.17480254 56.12335394 -117.23828125 46.66796875 C-117.25038887 44.93671501 -117.25038887 44.93671501 -117.26274109 43.17048645 C-117.27649905 40.74591542 -117.28725779 38.32132569 -117.29516602 35.89672852 C-117.30676411 33.41490005 -117.32733675 30.933098 -117.35668945 28.45141602 C-117.39915253 24.85676209 -117.41549718 21.26284155 -117.42578125 17.66796875 C-117.44328934 16.55753708 -117.46079742 15.44710541 -117.47883606 14.30302429 C-117.47591049 13.27127579 -117.47298492 12.23952728 -117.4699707 11.17651367 C-117.47583694 10.27100266 -117.48170319 9.36549164 -117.48774719 8.43254089 C-116.84565654 5.23024309 -115.47761173 4.05461845 -113 2 C-107.5512429 -0.7448626 -102.0208555 -1.69091784 -96 -1 C-93.70822945 0.12878251 -92.01372555 1.38901956 -90 3 C-89.4225 2.21625 -88.845 1.4325 -88.25 0.625 C-86.07098087 -1.91718899 -85.04002748 -2.84006185 -82 -4 C-75.80643879 -4.21786396 -70.48780485 -2.74390242 -65 0 C-64.0409375 -0.9590625 -64.0409375 -0.9590625 -63.0625 -1.9375 C-58.51639831 -4.99916032 -54.10707838 -5.4878007 -48.7109375 -4.640625 C-46.01537783 -3.99369068 -43.48395825 -3.24197913 -41 -2 C-40.01 -2.66 -39.02 -3.32 -38 -4 C-25.19897563 -7.07224585 -11.4038005 -7.45828916 0 0 Z " fill="#FCCE09" transform="translate(151,82)"/>
<path d="M0 0 C1.65 0.33 3.3 0.66 5 1 C5.33 19.81 5.66 38.62 6 58 C15.87848646 61.29282882 25.23075891 60.69436014 35 57 C42.20117798 53.07748765 47.07175836 48.76986091 50.1875 41.0625 C52.75113604 31.39956415 52.53873814 22.58826992 50 13 C53.4739394 15.3159596 53.4428028 15.82415122 54.3125 19.6875 C56.57730926 27.58036026 60.34617558 31.18967664 67.3737793 35.13623047 C68.65195535 35.82932026 69.93993041 36.50467661 71.23754883 37.16064453 C75.78038736 39.52778942 75.78038736 39.52778942 76.98828125 42.125 C77 44 77 44 75.875 45.8125 C74 47 74 47 71.8125 47 C69.13978259 46.04970048 67.33338199 44.94816526 65 43.375 C62.53699956 41.79757275 61.31872628 41.03035488 58.375 40.75 C54.66077708 42.70485417 52.1753681 45.42509438 50 49 C49.50290481 51.68139216 49.50290481 51.68139216 51 54 C57.05380414 60.2014579 63.33677231 62.15735963 71.875 62.5 C79.21777138 62.31879427 85.15376943 60.76610076 90.5 55.53125 C94.05301262 50.49781545 93.89007225 43.88570302 93 38 C92.05423201 36.30197153 91.06183963 34.62796633 90 33 C90 32.34 90 31.68 90 31 C89.45472656 30.731875 88.90945312 30.46375 88.34765625 30.1875 C85.68322944 28.83976997 83.06015975 27.42729782 80.4375 26 C79.01244141 25.2265625 79.01244141 25.2265625 77.55859375 24.4375 C75 23 75 23 72 21 C72.33 19.35 72.66 17.7 73 16 C78.39946901 15.48576486 80.61000755 17.04152683 85 20 C87.17576488 20.24774386 87.17576488 20.24774386 89 19 C91.77427505 16.30498995 92.9171161 14.26815379 94.0625 10.5625 C93.97680194 5.67771048 92.3893129 4.3893129 89 1 C91.21654627 2.02911077 93.10869177 3.08234225 95.0625 4.5625 C97.04181496 6.18688728 97.04181496 6.18688728 100 7 C101.61387961 10.22775923 101.45886256 13.50040823 101 17 C99.58026984 20.84874717 97.90767729 24.09232271 95 27 C95.21052076 29.9472907 96.19890504 31.25639204 98.02734375 33.61328125 C100.47874282 37.82192083 100.5679507 40.67815337 100.4375 45.4375 C100.44458984 46.16259766 100.45167969 46.88769531 100.45898438 47.63476562 C100.36405363 55.76229778 97.1249062 62.68568485 91.46875 68.6015625 C86.26154339 73.40639405 81.26846625 75.61867894 74.25 76.4375 C63.80449293 75.92445938 56.10017418 71.3870499 49 64 C46.20122472 65.67639953 43.40881642 67.36127886 40.625 69.0625 C32.71671368 73.46348663 24.95086097 73.6988043 16 73 C13.99419993 72.35099265 11.99322795 71.68664896 10 71 C6.68953624 71.27587198 3.97964402 71.51017799 1 73 C-0.39311903 73.09646853 -1.79105319 73.12980705 -3.1875 73.125 C-3.99445313 73.12242187 -4.80140625 73.11984375 -5.6328125 73.1171875 C-8 73 -8 73 -11.5625 72.25 C-15.74365488 71.94591601 -17.52820847 73.09687284 -21.1015625 75.0546875 C-24.02182822 76.50881158 -25.78871971 76.58982699 -29 76 C-32.1187071 74.51514604 -35.06851466 72.82403532 -38 71 C-38.38929687 71.39832031 -38.77859375 71.79664063 -39.1796875 72.20703125 C-43.85393753 76.63356757 -48.57818257 79.08112259 -55 80 C-59.33848283 79.48472565 -61.20277098 78.39663524 -64 75 C-64.33 74.01 -64.66 73.02 -65 72 C-65.66547008 70.8000158 -66.35429302 69.61276821 -67.0625 68.4375 C-69 65 -69 65 -69 63 C-68.01 63.33 -67.02 63.66 -66 64 C-64.00258264 64.1192902 -62.00093876 64.17523935 -60 64.1875 C-58.948125 64.20167969 -57.89625 64.21585937 -56.8125 64.23046875 C-53.79241312 64.21180926 -53.79241312 64.21180926 -51 62 C-50.58429992 59.77501085 -50.58429992 59.77501085 -50.70703125 57.2109375 C-50.71669922 56.26992187 -50.72636719 55.32890625 -50.73632812 54.359375 C-50.76146484 53.37453125 -50.78660156 52.3896875 -50.8125 51.375 C-50.82603516 50.38242188 -50.83957031 49.38984375 -50.85351562 48.3671875 C-50.88894257 45.91091928 -50.93833804 43.45572715 -51 41 C-46.99590015 44.49098865 -44.79783704 48.58123283 -42.3125 53.1875 C-40.03453269 57.87930235 -40.03453269 57.87930235 -37 62 C-31.76131014 62.53456019 -28.2402706 61.53935474 -23.6015625 59.36328125 C-21.80042475 58.05190636 -21.80042475 58.05190636 -21.09375 55.61328125 C-20.97434246 52.28479602 -21.73177438 51.38019262 -23.875 48.875 C-24.514375 48.10414063 -25.15375 47.33328125 -25.8125 46.5390625 C-26.534375 45.70117188 -27.25625 44.86328125 -28 44 C-29.63273065 42.08991447 -31.25768382 40.17315482 -32.875 38.25 C-33.63554688 37.36828125 -34.39609375 36.4865625 -35.1796875 35.578125 C-37.09996821 32.85841413 -37.91526961 31.32037216 -38 28 C-36.8828125 25.81640625 -36.8828125 25.81640625 -35.125 23.5625 C-31.90996778 19.26929535 -28.93812315 14.89834259 -26.0625 10.375 C-25.66111816 9.7466626 -25.25973633 9.1183252 -24.84619141 8.47094727 C-23.8955842 6.9818279 -22.94750962 5.49109224 -22 4 C-18.31266875 7.68045618 -17.53060641 10.23411413 -17.41999817 15.23049927 C-17.42190659 16.02326263 -17.423815 16.816026 -17.42578125 17.6328125 C-17.41161667 18.4652951 -17.39745209 19.29777771 -17.38285828 20.15548706 C-17.34106541 22.81212202 -17.32576529 25.46808348 -17.3125 28.125 C-17.27379121 31.606872 -17.22527334 35.08857895 -17.17578125 38.5703125 C-17.16531769 39.40105286 -17.15485413 40.23179321 -17.14407349 41.08770752 C-17.83043682 51.21745272 -17.83043682 51.21745272 -15 60 C-13.37747508 60.09886353 -11.75052727 60.12971167 -10.125 60.125 C-9.24070313 60.12757813 -8.35640625 60.13015625 -7.4453125 60.1328125 C-4.86093709 60.10048585 -4.86093709 60.10048585 -2 59 C-0.70033415 56.4006683 -0.83955838 54.45135797 -0.79467773 51.54052734 C-0.77473251 50.39949554 -0.75478729 49.25846375 -0.73423767 48.08285522 C-0.71752518 46.84637238 -0.70081268 45.60988953 -0.68359375 44.3359375 C-0.6524221 42.4424205 -0.6524221 42.4424205 -0.62062073 40.51065063 C-0.56622074 37.15367955 -0.51599764 33.79669811 -0.46777344 30.43963623 C-0.41754958 27.01438935 -0.36186814 23.58923171 -0.30664062 20.1640625 C-0.19938141 13.44277939 -0.0976256 6.72142956 0 0 Z " fill="#C01B05" transform="translate(107,84)"/>
<path d="M0 0 C3.5625 1.5 3.5625 1.5 6 3 C6.6795514 8.86560157 4.6826986 11.58377539 1.25 16 C-0.07803683 17.76814205 -1.40361601 19.53810009 -2.72851562 21.30859375 C-3.94040637 22.9207249 -5.16519769 24.52313423 -6.390625 26.125 C-8.17351589 28.80689521 -8.17351589 28.80689521 -8.11328125 31.44140625 C-6.47389621 35.20911572 -3.93798909 37.9207298 -1.1875 40.9375 C8.99500607 52.27459662 8.99500607 52.27459662 9.0078125 56.69921875 C7.13217542 60.98119642 3.15509077 62.32314813 -1 64 C-4.6875 64.875 -4.6875 64.875 -8 64 C-10.54608282 61.31646798 -12.21233074 58.22049965 -14 55 C-15.29122365 52.81223847 -16.58289363 50.6247403 -17.875 48.4375 C-18.9194783 46.62661879 -19.96215606 44.81469162 -21 43 C-20.97905273 43.59014893 -20.95810547 44.18029785 -20.93652344 44.78833008 C-20.85336317 47.46287999 -20.80134309 50.13715815 -20.75 52.8125 C-20.71648438 53.74126953 -20.68296875 54.67003906 -20.6484375 55.62695312 C-20.63554688 56.51962891 -20.62265625 57.41230469 -20.609375 58.33203125 C-20.58842773 59.15421143 -20.56748047 59.9763916 -20.54589844 60.82348633 C-21 63 -21 63 -22.84033203 64.7668457 C-25.70811562 66.40432873 -27.84024952 66.39921192 -31.125 66.375 C-32.17945313 66.38273437 -33.23390625 66.39046875 -34.3203125 66.3984375 C-35.20460938 66.26695312 -36.08890625 66.13546875 -37 66 C-39.449583 62.3256255 -39.45778468 59.39710996 -39.625 55.125 C-39.66149658 54.29307129 -39.69799316 53.46114258 -39.7355957 52.60400391 C-40.06575607 43.71364341 -40.13447582 34.81557543 -40.17523193 25.91986084 C-40.18341779 24.2218055 -40.19453132 22.52376177 -40.20855713 20.82574463 C-40.22637472 18.41237211 -40.23045287 15.99936801 -40.23046875 13.5859375 C-40.23760391 12.85030579 -40.24473907 12.11467407 -40.25209045 11.35675049 C-40.22915922 6.22915922 -40.22915922 6.22915922 -38 4 C-33.2490919 2.57472757 -28.99704855 1.52409061 -24 2 C-21.06552643 4.93447357 -21.53841577 8.18259456 -21.375 12.125 C-21.33632813 12.87910156 -21.29765625 13.63320312 -21.2578125 14.41015625 C-21.16348969 16.27303184 -21.08065338 18.13648255 -21 20 C-20.46890625 18.80761719 -19.9378125 17.61523438 -19.390625 16.38671875 C-18.67765169 14.82005372 -17.96407852 13.25366159 -17.25 11.6875 C-16.90195312 10.90181641 -16.55390625 10.11613281 -16.1953125 9.30664062 C-12.48341943 1.22983626 -8.97519793 -1.20909402 0 0 Z " fill="#FCD209" transform="translate(78,83)"/>
<path d="M0 0 C1.75 2.6875 1.75 2.6875 1.9375 6.0625 C0.448184 10.60883305 -1.91933826 13.33646724 -5.25 16.6875 C-8.12791422 16.28778969 -9.89720862 15.97200918 -12.1875 14.125 C-14.94729715 12.20150502 -16.96355915 12.46342449 -20.25 12.6875 C-20.58 14.0075 -20.91 15.3275 -21.25 16.6875 C-20.1671875 17.09548828 -20.1671875 17.09548828 -19.0625 17.51171875 C-11.88249544 20.51335954 -4.32663449 24.70160652 -0.1484375 31.47265625 C1.87186829 36.45314922 1.59404052 42.72801616 0.1328125 47.8515625 C-2.31406087 52.76696298 -6.49601152 55.32514843 -11.25 57.6875 C-19.16553376 60.32601125 -28.59029647 59.5214904 -36.11328125 56.02734375 C-39.50395445 53.9011995 -42.48409026 51.33118707 -44.25 47.6875 C-43.9494101 44.43217532 -42.57303818 42.46306856 -40.5 40 C-40.01015625 39.39800781 -39.5203125 38.79601562 -39.015625 38.17578125 C-36.70583338 36.22881088 -35.26727289 35.80927335 -32.25 35.6875 C-29.71484375 36.9375 -29.71484375 36.9375 -27.1875 38.6875 C-23.88937721 41.10750624 -23.88937721 41.10750624 -20.00390625 41.5625 C-19.42511719 41.27375 -18.84632813 40.985 -18.25 40.6875 C-17.92 39.6975 -17.59 38.7075 -17.25 37.6875 C-19.67418735 34.93200705 -22.21998206 33.5987797 -25.5 32 C-31.44443167 28.85433921 -36.20200249 24.78349502 -39.25 18.6875 C-39.98967644 11.81907591 -39.99461219 6.01248856 -35.80859375 0.30859375 C-25.96000577 -9.93492507 -10.6466417 -7.57549506 0 0 Z " fill="#FCCA05" transform="translate(200.25,88.3125)"/>
<path d="M0 0 C1.65 0.33 3.3 0.66 5 1 C5.33 19.81 5.66 38.62 6 58 C15.87848646 61.29282882 25.23075891 60.69436014 35 57 C42.20117798 53.07748765 47.07175836 48.76986091 50.1875 41.0625 C52.75113604 31.39956415 52.53873814 22.58826992 50 13 C53.4739394 15.3159596 53.4428028 15.82415122 54.3125 19.6875 C56.57730926 27.58036026 60.34617558 31.18967664 67.3737793 35.13623047 C68.65195535 35.82932026 69.93993041 36.50467661 71.23754883 37.16064453 C75.78038736 39.52778942 75.78038736 39.52778942 76.98828125 42.125 C77 44 77 44 75.875 45.8125 C74 47 74 47 71.8125 47 C69.13978259 46.04970048 67.33338199 44.94816526 65 43.375 C62.53699956 41.79757275 61.31872628 41.03035488 58.375 40.75 C54.66077708 42.70485417 52.1753681 45.42509438 50 49 C49.50290481 51.68139216 49.50290481 51.68139216 51 54 C57.05380414 60.2014579 63.33677231 62.15735963 71.875 62.5 C78.52449212 62.33590309 83.69406607 61.11990164 89 57 C92.75891166 52.76865681 93.86302395 47.40063622 95 42 C95.66 42 96.32 42 97 42 C97.58927163 57.73573495 97.58927163 57.73573495 94 63 C90.8125 64.4375 90.8125 64.4375 88 65 C88 65.66 88 66.32 88 67 C79.0928392 69.87590682 69.16812209 71.03890049 60.296875 67.5390625 C56.00511065 65.08218291 52.76369768 63.14554651 50 59 C47.94074861 58.27617533 47.94074861 58.27617533 46 58 C46 58.66 46 59.32 46 60 C45.030625 60.268125 44.06125 60.53625 43.0625 60.8125 C41.5465625 61.4003125 41.5465625 61.4003125 40 62 C39.67 62.99 39.34 63.98 39 65 C31.01219867 68.05194296 21.46511857 69.29962401 13 68 C10.38754544 66.60635789 9.04965818 65.2114733 7 63 C6.01 62.67 5.02 62.34 4 62 C3.67 63.32 3.34 64.64 3 66 C1.35 66 -0.3 66 -2 66 C-2 65.34 -2 64.68 -2 64 C-1.01 63.34 -0.02 62.68 1 62 C1.40092582 59.29140763 1.40092582 59.29140763 1.2487793 56.08154297 C1.21840828 54.21983963 1.21840828 54.21983963 1.18742371 52.32052612 C1.15001116 50.961071 1.11226835 49.60162494 1.07421875 48.2421875 C1.04619048 46.85501669 1.01949955 45.46781826 0.99409485 44.08059692 C0.92358596 40.4272879 0.8348776 36.77463714 0.74243164 33.12182617 C0.65132217 29.39524634 0.57734915 25.66833125 0.50195312 21.94140625 C0.3514487 14.62716661 0.18172501 7.3135376 0 0 Z " fill="#A51400" transform="translate(107,84)"/>
<path d="M0 0 C2.40415955 1.8248291 2.40415955 1.8248291 3.01889038 4.3293457 C3.01128441 5.82467834 3.01128441 5.82467834 3.00352478 7.35021973 C3.00960251 8.48149292 3.01568024 9.61276611 3.02194214 10.77832031 C3.00240982 12.00023071 2.9828775 13.22214111 2.9627533 14.4810791 C2.95925621 16.36180115 2.95925621 16.36180115 2.95568848 18.28051758 C2.94593456 20.93432723 2.92683566 23.58599709 2.89122009 26.23937988 C2.84594662 29.63916369 2.83119427 33.03818264 2.82748318 36.43824005 C2.82198743 39.68177349 2.79860872 42.92513198 2.7752533 46.1685791 C2.76989059 47.3904895 2.76452789 48.6123999 2.75900269 49.87133789 C2.74301529 51.00261108 2.72702789 52.13388428 2.71055603 53.29943848 C2.69459633 54.79477112 2.69459633 54.79477112 2.67831421 56.3203125 C2.40415955 58.8248291 2.40415955 58.8248291 0.40415955 61.8248291 C-2.53813967 62.80559551 -4.58671885 62.98971039 -7.65834045 63.0123291 C-8.53619202 63.02650879 -9.41404358 63.04068848 -10.3184967 63.05529785 C-12.59584045 62.8248291 -12.59584045 62.8248291 -14.59584045 60.8248291 C-15.9402379 53.55847877 -15.75528539 45.94248666 -15.7638092 38.5748291 C-15.7671376 37.55429443 -15.770466 36.53375977 -15.77389526 35.4822998 C-15.77891619 33.34794562 -15.7813051 31.21358372 -15.78114319 29.07922363 C-15.78335351 25.80549561 -15.80162439 22.53209251 -15.82044983 19.25842285 C-15.82337998 17.17639275 -15.8253673 15.09436105 -15.8263092 13.0123291 C-15.83349472 12.03425293 -15.84068024 11.05617676 -15.8480835 10.04846191 C-15.84500687 9.14321777 -15.84193024 8.23797363 -15.83876038 7.30529785 C-15.84018539 6.51018799 -15.84161041 5.71507813 -15.84307861 4.89587402 C-15.59584045 2.8248291 -15.59584045 2.8248291 -13.59584045 -0.1751709 C-8.84046249 -1.76029689 -4.55887188 -2.06386088 0 0 Z " fill="#FDD209" transform="translate(104.59584045410156,82.1751708984375)"/>
<path d="M0 0 C2.21654627 1.02911077 4.10869177 2.08234225 6.0625 3.5625 C8.04181496 5.18688728 8.04181496 5.18688728 11 6 C12.61387961 9.22775923 12.45886256 12.50040823 12 16 C10.58026984 19.84874717 8.90767729 23.09232271 6 26 C6.21052076 28.9472907 7.19890504 30.25639204 9.02734375 32.61328125 C11.47874282 36.82192083 11.5679507 39.67815337 11.4375 44.4375 C11.44458984 45.16259766 11.45167969 45.88769531 11.45898438 46.63476562 C11.36405363 54.76229778 8.1249062 61.68568485 2.46875 67.6015625 C-2.73845661 72.40639405 -7.73153375 74.61867894 -14.75 75.4375 C-24.79323058 74.92549217 -32.00587297 70.88893064 -38.94140625 63.828125 C-40.91500241 61.66799425 -40.91500241 61.66799425 -44 62 C-46.22458084 63.12953523 -48.32027538 64.4176138 -50.453125 65.7109375 C-56.36943394 68.70538834 -62.002778 69.34155734 -68.5 69.3125 C-69.22058594 69.32861328 -69.94117188 69.34472656 -70.68359375 69.36132812 C-74.50933674 69.36478721 -77.3939771 69.00825786 -80.890625 67.3984375 C-81.91671875 66.93695313 -82.9428125 66.47546875 -84 66 C-85.67888441 66.97934924 -87.34338239 67.98343919 -89 69 C-93.78714742 69.46327233 -98.47058823 69.29988466 -103.1875 68.375 C-106.51945742 67.93073901 -108.77556406 68.60391916 -111.96484375 69.51953125 C-115.03148692 70.24351802 -117.86142269 70.13077405 -121 70 C-117.83433427 67.88955618 -115.48802585 67.24447923 -111.8125 66.375 C-110.18248047 65.98441406 -110.18248047 65.98441406 -108.51953125 65.5859375 C-107.68808594 65.39257812 -106.85664062 65.19921875 -106 65 C-106 64.34 -106 63.68 -106 63 C-103.83264747 63.46443268 -102.1100283 63.93550065 -100.1875 65.0625 C-95.6428884 67.01019068 -90.68582396 66.13595732 -86 65 C-85.67 63.68 -85.34 62.36 -85 61 C-82.11458789 61.42746846 -80.95732448 62.0379746 -78.73046875 64.01953125 C-73.18523091 68.04161363 -65.86864084 66.43294362 -59.40234375 65.45703125 C-53.479637 64.24845186 -50.22191378 63.39442209 -46 59 C-45.01 59 -44.02 59 -43 59 C-43 58.34 -43 57.68 -43 57 C-41.35 57.33 -39.7 57.66 -38 58 C-37.67 58.99 -37.34 59.98 -37 61 C-35.35767228 61.72455635 -33.68375165 62.37774395 -32 63 C-30.44152344 64.01320313 -30.44152344 64.01320313 -28.8515625 65.046875 C-24.71044011 67.44308147 -21.19354298 67.5014172 -16.5 67.3125 C-15.77941406 67.30283203 -15.05882812 67.29316406 -14.31640625 67.28320312 C-9.80507046 67.18938692 -5.45261696 66.7206209 -1 66 C-1 65.34 -1 64.68 -1 64 C-0.05125 63.62875 0.8975 63.2575 1.875 62.875 C5.78222171 60.53066697 5.90677039 59.33242846 7 55 C7.27821125 52.54859141 7.48557345 50.08820235 7.625 47.625 C7.69976562 46.37976563 7.77453125 45.13453125 7.8515625 43.8515625 C7.92503906 42.44003906 7.92503906 42.44003906 8 41 C7.34 41 6.68 41 6 41 C6 42.65 6 44.3 6 46 C5.67 46 5.34 46 5 46 C4.94392578 45.11248047 4.94392578 45.11248047 4.88671875 44.20703125 C4.48131892 39.33428431 3.85719103 36.09944801 1 32 C1 31.34 1 30.68 1 30 C0.45472656 29.731875 -0.09054688 29.46375 -0.65234375 29.1875 C-3.31677056 27.83976997 -5.93984025 26.42729782 -8.5625 25 C-9.98755859 24.2265625 -9.98755859 24.2265625 -11.44140625 23.4375 C-14 22 -14 22 -17 20 C-16.67 18.35 -16.34 16.7 -16 15 C-10.60053099 14.48576486 -8.38999245 16.04152683 -4 19 C-1.82423512 19.24774386 -1.82423512 19.24774386 0 18 C2.77427505 15.30498995 3.9171161 13.26815379 5.0625 9.5625 C4.97680194 4.67771048 3.3893129 3.3893129 0 0 Z " fill="#D52108" transform="translate(196,85)"/>
<path d="M0 0 C1.75 2.6875 1.75 2.6875 1.9375 6.0625 C0.448184 10.60883305 -1.91933826 13.33646724 -5.25 16.6875 C-8.12791422 16.28778969 -9.89720862 15.97200918 -12.1875 14.125 C-14.94729715 12.20150502 -16.96355915 12.46342449 -20.25 12.6875 C-20.58 14.0075 -20.91 15.3275 -21.25 16.6875 C-20.53070313 16.955625 -19.81140625 17.22375 -19.0703125 17.5 C-16.23991942 18.69174446 -13.74282165 20.08638584 -11.125 21.6875 C-10.27679688 22.203125 -9.42859375 22.71875 -8.5546875 23.25 C-6.7669104 24.36508809 -5.00315355 25.51873097 -3.25 26.6875 C-3.745 27.6775 -3.745 27.6775 -4.25 28.6875 C-5.301875 28.089375 -6.35375 27.49125 -7.4375 26.875 C-8.08074219 26.51148438 -8.72398437 26.14796875 -9.38671875 25.7734375 C-10.87567286 24.90566131 -12.32158328 23.96418128 -13.75 23 C-17.08075529 21.25135347 -19.47626683 20.6875 -23.25 20.6875 C-25.83780881 22.07220471 -27.19581998 23.48301413 -29.25 25.6875 C-29.25 26.6775 -29.25 27.6675 -29.25 28.6875 C-33.93317784 26.95298969 -37.04620379 23.09509243 -39.25 18.6875 C-39.98967644 11.81907591 -39.99461219 6.01248856 -35.80859375 0.30859375 C-25.96000577 -9.93492507 -10.6466417 -7.57549506 0 0 Z " fill="#FCE31C" transform="translate(200.25,88.3125)"/>
<path d="M0 0 C1.19625 0.515625 2.3925 1.03125 3.625 1.5625 C7.60167519 3.25626906 9.8440817 2.93296125 14 2 C13.34 5.63 12.68 9.26 12 13 C8 10 8 10 7.0625 7.9375 C6.12168386 5.83844457 6.12168386 5.83844457 3.9375 4.75 C-0.00752329 3.74276001 -3.98116948 3.1516601 -8 4 C-12.18626257 7.13766476 -14.05224555 11.64285548 -16.25 16.25 C-16.61351563 16.99507812 -16.97703125 17.74015625 -17.3515625 18.5078125 C-18.24172145 20.33498087 -19.1218739 22.16701834 -20 24 C-20.33 24 -20.66 24 -21 24 C-21.06058594 22.78441406 -21.12117188 21.56882812 -21.18359375 20.31640625 C-21.26798332 18.73175772 -21.3526321 17.14712298 -21.4375 15.5625 C-21.47681641 14.76005859 -21.51613281 13.95761719 -21.55664062 13.13085938 C-21.4054296 9.24760439 -21.4054296 9.24760439 -23 6 C-25.20155768 6.02674081 -25.20155768 6.02674081 -27.75 6.3125 C-28.61109375 6.39113281 -29.4721875 6.46976562 -30.359375 6.55078125 C-33.12916378 7.02197313 -35.41417985 7.92365642 -38 9 C-38.19191741 38.0155323 -38.19191741 38.0155323 -37 67 C-37.66 67 -38.32 67 -39 67 C-38.45859375 67.81404297 -38.45859375 67.81404297 -37.90625 68.64453125 C-37.4421875 69.35996094 -36.978125 70.07539063 -36.5 70.8125 C-36.0359375 71.52019531 -35.571875 72.22789062 -35.09375 72.95703125 C-34 75 -34 75 -34 78 C-41.72126442 71.78941775 -41.72126442 71.78941775 -42.61010742 66.08325195 C-43.14146072 60.28554835 -43.19921838 54.48652553 -43.23828125 48.66796875 C-43.25038887 46.93671501 -43.25038887 46.93671501 -43.26274109 45.17048645 C-43.27649905 42.74591542 -43.28725779 40.32132569 -43.29516602 37.89672852 C-43.30676411 35.41490005 -43.32733675 32.933098 -43.35668945 30.45141602 C-43.39915253 26.85676209 -43.41549718 23.26284155 -43.42578125 19.66796875 C-43.44328934 18.55753708 -43.46079742 17.44710541 -43.47883606 16.30302429 C-43.47591049 15.27127579 -43.47298492 14.23952728 -43.4699707 13.17651367 C-43.47583694 12.27100266 -43.48170319 11.36549164 -43.48774719 10.43254089 C-42.84565654 7.23024309 -41.47761173 6.05461845 -39 4 C-33.5512429 1.2551374 -28.0208555 0.30908216 -22 1 C-19.97048465 2.28796166 -17.96498322 3.61558 -16 5 C-13.70291681 5.11605077 -13.70291681 5.11605077 -12 4 C-11.67 3.01 -11.34 2.02 -11 1 C-7.55122812 -0.72438594 -3.77859242 -0.37972675 0 0 Z " fill="#D94701" transform="translate(77,80)"/>
<path d="M0 0 C2.21654627 1.02911077 4.10869177 2.08234225 6.0625 3.5625 C8.04181496 5.18688728 8.04181496 5.18688728 11 6 C12.61387961 9.22775923 12.45886256 12.50040823 12 16 C10.58026984 19.84874717 8.90767729 23.09232271 6 26 C6.21085534 28.95197469 7.18902225 30.23971787 9.0390625 32.5859375 C11.53540082 36.93215203 11.46564395 39.98154103 11.25 44.875 C11.22292969 46.050625 11.22292969 46.050625 11.1953125 47.25 C11.14855148 49.16720189 11.07682003 51.08376715 11 53 C10.34 53 9.68 53 9 53 C8.67 49.04 8.34 45.08 8 41 C7.34 41 6.68 41 6 41 C6 42.65 6 44.3 6 46 C5.67 46 5.34 46 5 46 C4.96261719 45.40832031 4.92523438 44.81664062 4.88671875 44.20703125 C4.48131892 39.33428431 3.85719103 36.09944801 1 32 C1 31.34 1 30.68 1 30 C0.45472656 29.731875 -0.09054688 29.46375 -0.65234375 29.1875 C-3.31677056 27.83976997 -5.93984025 26.42729782 -8.5625 25 C-9.51253906 24.484375 -10.46257812 23.96875 -11.44140625 23.4375 C-14 22 -14 22 -17 20 C-16.67 18.35 -16.34 16.7 -16 15 C-10.60053099 14.48576486 -8.38999245 16.04152683 -4 19 C-1.82423512 19.24774386 -1.82423512 19.24774386 0 18 C2.77427505 15.30498995 3.9171161 13.26815379 5.0625 9.5625 C4.97680194 4.67771048 3.3893129 3.3893129 0 0 Z " fill="#D23703" transform="translate(196,85)"/>
<path d="M0 0 C8.17134516 0.19206153 8.17134516 0.19206153 11.5 3.4375 C14.54967949 8.64736912 14.46563183 13.01451448 14 19 C12.36860164 23.72246894 10.23286012 26.3421576 6 29 C2.75 29.8125 2.75 29.8125 0 30 C-1 29 -1 29 -1.1328125 26.11328125 C-1.11481793 17.35892249 -0.75307988 8.72765787 0 0 Z " fill="#AA0E02" transform="translate(129,98)"/>
<path d="M0 0 C3.5625 1.5 3.5625 1.5 6 3 C6.375 5.75 6.375 5.75 6 9 C3.0625 11.1875 3.0625 11.1875 0 13 C-0.33 13.99 -0.66 14.98 -1 16 C-1.66 16 -2.32 16 -3 16 C-3.33 16.99 -3.66 17.98 -4 19 C-4 18.34 -4 17.68 -4 17 C-4.66 17 -5.32 17 -6 17 C-6 16.01 -6 15.02 -6 14 C-8.97 13.505 -8.97 13.505 -12 13 C-15.42537917 19.79076237 -15.42537917 19.79076237 -17 27 C-19.31 26.34 -21.62 25.68 -24 25 C-23.46890625 24.01 -22.9378125 23.02 -22.390625 22 C-21.67698751 20.66671795 -20.96345241 19.3333811 -20.25 18 C-19.69856323 16.97193237 -19.69856323 16.97193237 -19.13598633 15.9230957 C-17.24107421 12.37743734 -15.40717552 8.82242197 -13.6875 5.1875 C-10.48318184 -0.86510097 -6.18604681 -0.72591366 0 0 Z M-21 27 C-19 28 -19 28 -19 28 Z " fill="#FBE31C" transform="translate(78,83)"/>
<path d="M0 0 C3.6213949 3.8500816 4.49035543 6.13375109 4.390625 11.39453125 C4.37128906 13.19760742 4.37128906 13.19760742 4.3515625 15.03710938 C4.31804687 16.28298828 4.28453125 17.52886719 4.25 18.8125 C4.23195313 20.07771484 4.21390625 21.34292969 4.1953125 22.64648438 C4.14823916 25.76509335 4.08249094 28.88215973 4 32 C3.67 32 3.34 32 3 32 C2.67 26.72 2.34 21.44 2 16 C-4.62641405 23.27819275 -4.62641405 23.27819275 -8.16015625 32.13671875 C-7.89280061 34.25687103 -7.89280061 34.25687103 -7 37 C-8.66666667 35.33333333 -10.33333333 33.66666667 -12 32 C-12.78375 31.34 -13.5675 30.68 -14.375 30 C-16 28 -16 28 -15.8984375 25.83203125 C-14.66857253 21.95528297 -12.5671067 19.00163698 -10.25 15.6875 C-9.3403215 14.3573342 -8.4314596 13.02660957 -7.5234375 11.6953125 C-7.08741211 11.06012695 -6.65138672 10.42494141 -6.20214844 9.77050781 C-4.03276795 6.57547383 -2.01610639 3.29297378 0 0 Z " fill="#A01B00" transform="translate(85,88)"/>
<path d="M0 0 C3.95847217 3.47728174 6.23545673 7.51256911 8.75 12.0625 C9.16121094 12.78244141 9.57242188 13.50238281 9.99609375 14.24414062 C13 19.61823868 13 19.61823868 13 23 C10 22 10 22 8 19 C7.87882812 19.69867188 7.75765625 20.39734375 7.6328125 21.1171875 C7.46523438 22.02726562 7.29765625 22.93734375 7.125 23.875 C6.96257813 24.77992188 6.80015625 25.68484375 6.6328125 26.6171875 C6 29 6 29 4 31 C-1.19151836 31.75512994 -6.72394627 32.26692958 -11.4140625 29.65625 C-13.09591615 28.18895381 -14.58752755 26.72578452 -16 25 C-15.67 24.34 -15.34 23.68 -15 23 C-13.75283203 23.03480469 -13.75283203 23.03480469 -12.48046875 23.0703125 C-11.39378906 23.08835938 -10.30710937 23.10640625 -9.1875 23.125 C-8.10855469 23.14820313 -7.02960937 23.17140625 -5.91796875 23.1953125 C-2.80597132 23.23023717 -2.80597132 23.23023717 0 21 C0.41570008 18.77501085 0.41570008 18.77501085 0.29296875 16.2109375 C0.28330078 15.26992187 0.27363281 14.32890625 0.26367188 13.359375 C0.23853516 12.37453125 0.21339844 11.3896875 0.1875 10.375 C0.17396484 9.38242188 0.16042969 8.38984375 0.14648438 7.3671875 C0.11105743 4.91091928 0.06166196 2.45572715 0 0 Z " fill="#AB1201" transform="translate(56,125)"/>
<path d="M0 0 C2.73184272 2.19141297 4.70898225 4.63580036 6.796875 7.44140625 C6.466875 8.10140625 6.136875 8.76140625 5.796875 9.44140625 C5.4565625 8.9825 5.11625 8.52359375 4.765625 8.05078125 C-2.05595757 -0.58505201 -9.54798947 -2.20894325 -20.203125 -3.55859375 C-20.533125 -2.56859375 -20.863125 -1.57859375 -21.203125 -0.55859375 C-22.1725 -0.12546875 -23.141875 0.30765625 -24.140625 0.75390625 C-27.99486491 2.8776711 -27.98920516 4.36610394 -29.203125 8.44140625 C-31.2578125 9.625 -31.2578125 9.625 -33.203125 10.44140625 C-33.22294434 11.69800049 -33.24276367 12.95459473 -33.26318359 14.24926758 C-33.33919497 18.90669972 -33.42791923 23.5638176 -33.52050781 28.22094727 C-33.55881604 30.23748577 -33.59366565 32.25409303 -33.625 34.27075195 C-33.67061049 37.16773067 -33.72861139 40.06423521 -33.7890625 42.9609375 C-33.80061371 43.86415237 -33.81216492 44.76736725 -33.82406616 45.69795227 C-33.8538707 46.95891975 -33.8538707 46.95891975 -33.88427734 48.24536133 C-33.89760101 48.98482498 -33.91092468 49.72428864 -33.9246521 50.48616028 C-34.203125 52.44140625 -34.203125 52.44140625 -36.203125 55.44140625 C-36.27912081 47.53945061 -36.33170214 39.63758903 -36.36791992 31.73535156 C-36.38132384 29.04644378 -36.40220856 26.35774773 -36.42944336 23.66894531 C-36.46578666 19.80657875 -36.48284273 15.94453746 -36.49609375 12.08203125 C-36.51157761 10.87774475 -36.52706146 9.67345825 -36.54301453 8.43267822 C-36.54324112 7.31181824 -36.54346771 6.19095825 -36.54370117 5.03613281 C-36.55369392 3.55720551 -36.55369392 3.55720551 -36.56388855 2.04840088 C-36.14370043 -0.98801498 -35.28074474 -2.34088623 -33.203125 -4.55859375 C-23.27828208 -8.69942225 -8.70533714 -5.83257588 0 0 Z " fill="#FCE164" transform="translate(148.203125,85.55859375)"/>
<path d="M0 0 C0.66 0.33 1.32 0.66 2 1 C2.41064453 3.55688477 2.41064453 3.55688477 2.6328125 6.94140625 C2.71660156 8.16537109 2.80039063 9.38933594 2.88671875 10.65039062 C2.96535156 11.94138672 3.04398438 13.23238281 3.125 14.5625 C3.21136719 15.82642578 3.29773438 17.09035156 3.38671875 18.39257812 C3.79600882 24.60664086 4.10994003 30.77268248 4 37 C3.34 36.01 2.68 35.02 2 34 C1.34 34 0.68 34 0 34 C-4.41714167 29.30612175 -8.0997125 24.17593438 -10 18 C-9.68019921 13.21938816 -7.17225702 9.94412641 -4.4375 6.1875 C-4.01275391 5.59001953 -3.58800781 4.99253906 -3.15039062 4.37695312 C-2.10776741 2.91259467 -1.05489548 1.45554265 0 0 Z " fill="#DE2704" transform="translate(86,103)"/>
<path d="M0 0 C1.19625 0.515625 2.3925 1.03125 3.625 1.5625 C7.60167519 3.25626906 9.8440817 2.93296125 14 2 C13.34 5.63 12.68 9.26 12 13 C8 10 8 10 7.0625 7.9375 C6.12168386 5.83844457 6.12168386 5.83844457 3.9375 4.75 C-0.00752329 3.74276001 -3.98116948 3.1516601 -8 4 C-12.18626257 7.13766476 -14.05224555 11.64285548 -16.25 16.25 C-16.61351563 16.99507812 -16.97703125 17.74015625 -17.3515625 18.5078125 C-18.24172145 20.33498087 -19.1218739 22.16701834 -20 24 C-20.33 24 -20.66 24 -21 24 C-21.06058594 22.78441406 -21.12117188 21.56882812 -21.18359375 20.31640625 C-21.26798332 18.73175772 -21.3526321 17.14712298 -21.4375 15.5625 C-21.47681641 14.76005859 -21.51613281 13.95761719 -21.55664062 13.13085938 C-21.4054296 9.24760439 -21.4054296 9.24760439 -23 6 C-28.56768737 6.13630873 -33.80353709 6.94876464 -39 9 C-38.4375 7.125 -38.4375 7.125 -37 5 C-29.6008445 2.0403378 -23.43410822 2.46564493 -16 5 C-13.72476911 4.95502158 -13.72476911 4.95502158 -12 4 C-11.67 3.01 -11.34 2.02 -11 1 C-7.55122812 -0.72438594 -3.77859242 -0.37972675 0 0 Z " fill="#EE6408" transform="translate(77,80)"/>
<path d="M0 0 C0.99 0.495 0.99 0.495 2 1 C2 3 2 3 0.6015625 4.40234375 C-8.75308105 11.66790683 -18.2841474 13.06886333 -30 12 C-32.00437744 11.34661226 -34.00504336 10.68161019 -36 10 C-39.31046376 10.27587198 -42.02035598 10.51017799 -45 12 C-46.39311903 12.09646853 -47.79105319 12.12980705 -49.1875 12.125 C-49.99445313 12.12242187 -50.80140625 12.11984375 -51.6328125 12.1171875 C-54 12 -54 12 -57.5625 11.25 C-61.73375989 10.94663564 -63.52626539 12.06606867 -67.06640625 14.07421875 C-69.75431349 15.36115615 -72.07504778 15.29249522 -75 15 C-75.33 14.01 -75.66 13.02 -76 12 C-74.27255984 11.34956281 -72.5429631 10.70485156 -70.8125 10.0625 C-69.84957031 9.70285156 -68.88664062 9.34320313 -67.89453125 8.97265625 C-61.01612903 6.66129032 -61.01612903 6.66129032 -57 8 C-51.80694954 8.42392249 -47.39086297 8.70855283 -42.6875 6.3125 C-41.800625 5.879375 -40.91375 5.44625 -40 5 C-38.68708984 5.69029297 -38.68708984 5.69029297 -37.34765625 6.39453125 C-33.38698812 8.2939882 -30.04688463 8.4580571 -25.75 8.375 C-24.99928223 8.36557373 -24.24856445 8.35614746 -23.47509766 8.34643555 C-14.10782127 8.09291103 -7.32556279 5.89230051 0 0 Z " fill="#AB0C04" transform="translate(153,145)"/>
<path d="M0 0 C0 4 0 4 -2 7 C-2.33 6.34 -2.66 5.68 -3 5 C-3.45375 5.495 -3.9075 5.99 -4.375 6.5 C-6 8 -6 8 -8 8 C-8.12375 8.7425 -8.2475 9.485 -8.375 10.25 C-8.95486701 12.80141485 -9.73708739 14.7267573 -11 17 C-11.99 17 -12.98 17 -14 17 C-14 30.53 -14 44.06 -14 58 C-14.33 58 -14.66 58 -15 58 C-15.79214074 46.66664461 -16.1864433 35.38046247 -16.18530273 24.01928711 C-16.18754512 21.51204752 -16.20595883 19.00521235 -16.22460938 16.49804688 C-16.22753463 14.89583481 -16.22952522 13.2936207 -16.23046875 11.69140625 C-16.23765427 10.94572891 -16.24483978 10.20005157 -16.25224304 9.43177795 C-16.2289001 4.2289001 -16.2289001 4.2289001 -14 2 C-9.16433271 0.54929981 -5.08159232 -0.25407962 0 0 Z " fill="#FDDC40" transform="translate(54,85)"/>
<path d="M0 0 C0.99 0.495 0.99 0.495 2 1 C-6.03074373 7.45951126 -13.51935438 9.24655333 -23.6875 9.375 C-24.40019043 9.38893799 -25.11288086 9.40287598 -25.84716797 9.41723633 C-29.60621391 9.38361884 -32.44443409 8.97360403 -35.87890625 7.39453125 C-36.90886719 6.93433594 -37.93882813 6.47414062 -39 6 C-40.67888441 6.97934924 -42.34338239 7.98343919 -44 9 C-48.78714742 9.46327233 -53.47058823 9.29988466 -58.1875 8.375 C-61.51945742 7.93073901 -63.77556406 8.60391916 -66.96484375 9.51953125 C-70.03148692 10.24351802 -72.86142269 10.13077405 -76 10 C-72.83433427 7.88955618 -70.48802585 7.24447923 -66.8125 6.375 C-65.72582031 6.11460937 -64.63914062 5.85421875 -63.51953125 5.5859375 C-62.68808594 5.39257812 -61.85664062 5.19921875 -61 5 C-61 4.34 -61 3.68 -61 3 C-58.83264747 3.46443268 -57.1100283 3.93550065 -55.1875 5.0625 C-50.6428884 7.01019068 -45.68582396 6.13595732 -41 5 C-40.67 3.68 -40.34 2.36 -40 1 C-37.11458789 1.42746846 -35.95732448 2.0379746 -33.73046875 4.01953125 C-28.92882714 7.50226701 -23.70027403 6.52502524 -18 6 C-9.77602006 4.68468055 -9.77602006 4.68468055 -2.25 1.33203125 C-1.5075 0.89246094 -0.765 0.45289063 0 0 Z " fill="#DF260B" transform="translate(151,145)"/>
<path d="M0 0 C2.69173926 2.69173926 2.85698792 4.21017994 3 8 C1.90331933 10.56921903 0.55038088 12.65093806 -1 15 C-1.66 15 -2.32 15 -3 15 C-3 15.66 -3 16.32 -3 17 C-3.639375 17.103125 -4.27875 17.20625 -4.9375 17.3125 C-5.618125 17.539375 -6.29875 17.76625 -7 18 C-7.33 18.99 -7.66 19.98 -8 21 C-9.93873142 20.04416032 -11.8759433 19.08523808 -13.8125 18.125 C-14.89144531 17.59132813 -15.97039062 17.05765625 -17.08203125 16.5078125 C-20 15 -20 15 -23 13 C-22.67 11.35 -22.34 9.7 -22 8 C-16.60053099 7.48576486 -14.38999245 9.04152683 -10 12 C-7.82423512 12.24774386 -7.82423512 12.24774386 -6 11 C-2.73441332 7.63836665 -1.25256851 4.48837049 0 0 Z " fill="#AD0F01" transform="translate(202,92)"/>
<path d="M0 0 C0.33 0 0.66 0 1 0 C1.35485686 11.00056278 0.05956139 21.00221168 -7.5078125 29.5546875 C-14.91613509 36.73028792 -24.7792899 39.09272944 -34.875 39.3125 C-38.88965276 39.19066805 -42.32212998 38.74214896 -46 37 C-46.33 36.34 -46.66 35.68 -47 35 C-46.34 35 -45.68 35 -45 35 C-45 34.34 -45 33.68 -45 33 C-44.34 33 -43.68 33 -43 33 C-42.67 33.66 -42.34 34.32 -42 35 C-39.45767658 35.08152344 -36.91800798 35.14073716 -34.375 35.1875 C-33.66214844 35.21263672 -32.94929688 35.23777344 -32.21484375 35.26367188 C-27.38277644 35.33016821 -24.21423007 34.61332886 -20 32 C-19.34 31.34 -18.68 30.68 -18 30 C-15.31160615 29.73008094 -12.70858064 29.91262643 -10 30 C-9.31292445 27.50935112 -9 25.62113708 -9 23 C-7.68 23.33 -6.36 23.66 -5 24 C-5 20.7 -5 17.4 -5 14 C-4.34 14 -3.68 14 -3 14 C-1.79444595 11.58889191 -1.71839022 9.68307986 -1.5 7 C-1.11111111 2.22222222 -1.11111111 2.22222222 0 0 Z " fill="#FAA606" transform="translate(159,106)"/>
<path d="M0 0 C2.6875 2.75 2.6875 2.75 4 5 C3.45085937 4.71253906 2.90171875 4.42507812 2.3359375 4.12890625 C-3.74140919 1.19186078 -10.26516477 -1.27190971 -17 -2 C-17.33 -1.01 -17.66 -0.02 -18 1 C-19.9736169 1.69076592 -21.94812261 2.37925099 -23.9296875 3.046875 C-27.32467908 4.60985226 -28.83030027 7.00070919 -31 10 C-31.66 10.66 -32.32 11.32 -33 12 C-33.24360073 15.12814514 -33.24360073 15.12814514 -33.125 18.625 C-33.10695312 19.81351563 -33.08890625 21.00203125 -33.0703125 22.2265625 C-33.04710937 23.14179687 -33.02390625 24.05703125 -33 25 C-36.70331267 20.86332096 -36.56066372 17.41279354 -36.41015625 12.046875 C-35.69219895 6.71347792 -33.52544254 2.97318176 -29.28515625 -0.33984375 C-19.8134628 -6.1637953 -9.56580689 -4.80593508 0 0 Z " fill="#FCDB62" transform="translate(197,86)"/>
<path d="M0 0 C0.66 0 1.32 0 2 0 C2.99549695 8.67504487 -0.08880531 13.05912527 -5 20 C-7.72929418 23.97813781 -7.72929418 23.97813781 -7.6875 28.8125 C-7.460625 29.864375 -7.23375 30.91625 -7 32 C-12.99170124 26.4813278 -12.99170124 26.4813278 -14 22 C-13.375 19.25 -13.375 19.25 -12 17 C-11.06414062 16.82791016 -11.06414062 16.82791016 -10.109375 16.65234375 C-6.3281758 15.48297289 -5.19083555 11.86840248 -3.328125 8.58984375 C-1.89381448 5.79293824 -0.80042567 3.04161755 0 0 Z " fill="#A20901" transform="translate(85,93)"/>
<path d="M0 0 C0.7425 0.495 0.7425 0.495 1.5 1 C1.5 1.33 1.5 1.66 1.5 2 C-0.15 2 -1.8 2 -3.5 2 C-3.83 2.99 -4.16 3.98 -4.5 5 C-5.139375 5.103125 -5.77875 5.20625 -6.4375 5.3125 C-7.118125 5.539375 -7.79875 5.76625 -8.5 6 C-9.8045656 8.99615946 -9.8045656 8.99615946 -10.5 12 C-11.16 12 -11.82 12 -12.5 12 C-13.16 17.94 -13.82 23.88 -14.5 30 C-14.83 30 -15.16 30 -15.5 30 C-15.55793591 25.56255461 -15.59357467 21.12520611 -15.625 16.6875 C-15.64175781 15.42486328 -15.65851563 14.16222656 -15.67578125 12.86132812 C-15.68222656 11.65283203 -15.68867187 10.44433594 -15.6953125 9.19921875 C-15.70578613 8.08377686 -15.71625977 6.96833496 -15.72705078 5.8190918 C-15.5 3 -15.5 3 -13.5 0 C-8.97258828 -1.50913724 -4.43573202 -1.77429281 0 0 Z " fill="#FADF58" transform="translate(104.5,82)"/>
<path d="M0 0 C0.33 0 0.66 0 1 0 C1.58927163 15.73573495 1.58927163 15.73573495 -2 21 C-5.1875 22.4375 -5.1875 22.4375 -8 23 C-8 23.66 -8 24.32 -8 25 C-14.28569622 27.28570772 -20.34643 27.43414797 -27 27 C-27.66 26.67 -28.32 26.34 -29 26 C-29 25.01 -29 24.02 -29 23 C-23.06 22.67 -17.12 22.34 -11 22 C-11 22.66 -11 23.32 -11 24 C-10.34 24 -9.68 24 -9 24 C-8.9175 23.236875 -8.835 22.47375 -8.75 21.6875 C-7.84730645 18.45284809 -6.86406539 17.64900735 -4 16 C-3.34 16 -2.68 16 -2 16 C-1.90912109 15.02160156 -1.90912109 15.02160156 -1.81640625 14.0234375 C-1.36480009 9.31283783 -0.85804961 4.65798362 0 0 Z " fill="#AC0C01" transform="translate(203,126)"/>
<path d="M0 0 C2.56695636 0.39491636 4.67123994 0.83561997 7 2 C7.08133791 3.91595968 7.13934367 5.83291932 7.1875 7.75 C7.22230469 8.81734375 7.25710937 9.8846875 7.29296875 10.984375 C6.9625344 14.3856459 6.49261066 15.68581917 4 18 C1.3125 18.75 1.3125 18.75 -1 19 C-1.02683987 16.02077407 -1.04676037 13.04178705 -1.0625 10.0625 C-1.07087891 9.21236328 -1.07925781 8.36222656 -1.08789062 7.48632812 C-1.09111328 6.67744141 -1.09433594 5.86855469 -1.09765625 5.03515625 C-1.10289307 4.2862915 -1.10812988 3.53742676 -1.11352539 2.76586914 C-1 1 -1 1 0 0 Z " fill="#E82603" transform="translate(135,106)"/>
<path d="M0 0 C0.66 0.33 1.32 0.66 2 1 C1.35699811 2.48039971 0.71051501 3.95928782 0.0625 5.4375 C-0.29714844 6.26121094 -0.65679687 7.08492188 -1.02734375 7.93359375 C-2 10 -2 10 -3 11 C-3.12185143 12.34983748 -3.17766831 13.70574701 -3.20532227 15.06079102 C-3.22526749 15.92160782 -3.24521271 16.78242462 -3.26576233 17.66932678 C-3.28247482 18.60473801 -3.29918732 19.54014923 -3.31640625 20.50390625 C-3.33718735 21.45692123 -3.35796844 22.40993622 -3.37937927 23.39183044 C-3.44498177 26.4486441 -3.50380918 29.50554656 -3.5625 32.5625 C-3.60567506 34.62956663 -3.64928901 36.69662414 -3.69335938 38.76367188 C-3.80067401 43.84235595 -3.90191091 48.9211297 -4 54 C-4.99 54.495 -4.99 54.495 -6 55 C-6.90197206 48.23520953 -7.11013669 41.56482884 -7.125 34.75 C-7.12951172 33.88665039 -7.13402344 33.02330078 -7.13867188 32.13378906 C-7.1282013 27.62271803 -6.80510098 23.44892837 -6 19 C-5.74955859 16.21175227 -5.59165634 13.42003132 -5.4375 10.625 C-5.39431641 9.88894531 -5.35113281 9.15289062 -5.30664062 8.39453125 C-5.20156201 6.59651932 -5.10037907 4.79828042 -5 3 C-4.67 4.32 -4.34 5.64 -4 7 C-3.34 7 -2.68 7 -2 7 C-1.34 4.69 -0.68 2.38 0 0 Z " fill="#FAD12F" transform="translate(96,87)"/>
<path d="M0 0 C0 6.27 0 12.54 0 19 C-1.32 19.33 -2.64 19.66 -4 20 C-8.87259413 14.76196131 -8.87259413 14.76196131 -9.40234375 11.59375 C-8.86608113 8.13667837 -7.44484438 6.71219888 -5.0625 4.1875 C-3.96615234 3.00220703 -3.96615234 3.00220703 -2.84765625 1.79296875 C-1 0 -1 0 0 0 Z " fill="#F03002" transform="translate(87,109)"/>
<path d="M0 0 C2.0625 1.75 2.0625 1.75 4 4 C4.125 5.9375 4.125 5.9375 3 8 C-1.50017453 12.73095271 -6.53545787 14.99599821 -13 16 C-17.35213926 15.50862944 -19.1208834 14.30565239 -22 11 C-21.67 10.34 -21.34 9.68 -21 9 C-20.34 9.33 -19.68 9.66 -19 10 C-10.14618268 10.69360162 -10.14618268 10.69360162 -2 8 C-0.87134201 5.30223213 -0.47175499 2.92488094 0 0 Z " fill="#A50902" transform="translate(65,148)"/>
<path d="M0 0 C0.66 0.33 1.32 0.66 2 1 C1.67 1.66 1.34 2.32 1 3 C-3.75 2.125 -3.75 2.125 -6 1 C-12.57952181 0.44095566 -17.14928079 0.79603472 -23 4 C-25.80361646 3.79485733 -27.71658397 3.13383535 -30.25 1.9375 C-34.18973567 0.59440829 -37.88248082 0.35966248 -42 1 C-45.02690443 2.81590979 -45.02690443 2.81590979 -47 5 C-47 4.01 -47 3.02 -47 2 C-44.20760862 -0.64542341 -42.49218517 -1.91424223 -38.62109375 -2.13671875 C-33.21889987 -1.71608991 -28.82959313 -0.41479657 -24 2 C-22.9171875 1.0409375 -22.9171875 1.0409375 -21.8125 0.0625 C-15.55931531 -4.52316878 -6.63231737 -3.72265556 0 0 Z " fill="#F88623" transform="translate(110,80)"/>
<path d="M0 0 C2.64516087 2.64516087 2.32873984 4.00056515 2.375 7.6875 C2.25044949 13.47217937 1.66876721 16.50576017 -2 21 C-9.94727212 27.12435659 -17.11721939 27.65376718 -27 27 C-29.94087549 26.2679731 -32.25483191 25.31768068 -35 24 C-31.85073339 22.98773573 -30.15088947 23.17289151 -27 24 C-24.66882486 24.11820817 -22.3341375 24.17513698 -20 24.1875 C-18.1746875 24.20876953 -18.1746875 24.20876953 -16.3125 24.23046875 C-13.21132174 24.01470281 -11.5337665 23.73587369 -9 22 C-8.67 21.34 -8.34 20.68 -8 20 C-7.175 19.731875 -6.35 19.46375 -5.5 19.1875 C-4.675 18.795625 -3.85 18.40375 -3 18 C-2.26259783 15.48051222 -2.26259783 15.48051222 -2 13 C-1.34 12.67 -0.68 12.34 0 12 C0 8.04 0 4.08 0 0 Z " fill="#F99F14" transform="translate(199,120)"/>
<path d="M0 0 C3.4739394 2.3159596 3.4428028 2.82415122 4.3125 6.6875 C6.57730926 14.58036026 10.34617558 18.18967664 17.3737793 22.13623047 C18.65195535 22.82932026 19.93993041 23.50467661 21.23754883 24.16064453 C25.8133884 26.54498533 25.8133884 26.54498533 26.91796875 29.23828125 C26.94503906 29.81964844 26.97210938 30.40101562 27 31 C26.01 31.66 25.02 32.32 24 33 C23.505 30.525 23.505 30.525 23 28 C22.34 28 21.68 28 21 28 C21 27.34 21 26.68 21 26 C20.278125 25.731875 19.55625 25.46375 18.8125 25.1875 C16 24 16 24 13.625 22.4375 C10.43040014 20.68807627 7.59130296 20.41438111 4 20 C2.09424955 18.09424955 2.33957662 14.80743645 2 12.25 C1.44878478 8.13311134 0.86837297 4.06274497 0 0 Z " fill="#941800" transform="translate(157,97)"/>
<path d="M0 0 C11.5280051 0.40378302 11.5280051 0.40378302 16 5 C17.19785 6.07430493 18.40690863 7.13620123 19.625 8.1875 C20.19476563 8.69667969 20.76453125 9.20585938 21.3515625 9.73046875 C23.08858773 11.21192556 23.08858773 11.21192556 26 12 C25.67 15.96 25.34 19.92 25 24 C24.67 24 24.34 24 24 24 C23.731875 23.071875 23.46375 22.14375 23.1875 21.1875 C22.01789044 18.04802171 21.35360054 17.17255435 19 15 C18.38125 14.030625 17.7625 13.06125 17.125 12.0625 C12.69322266 5.67552678 7.07694701 3.5834292 0 1 C0 0.67 0 0.34 0 0 Z " fill="#E25C03" transform="translate(136,80)"/>
<path d="M0 0 C-0.33 17.49 -0.66 34.98 -1 53 C-1.33 53 -1.66 53 -2 53 C-2.79383686 46.25247111 -3.13808087 39.62719418 -3.09765625 32.8359375 C-3.0962413 31.91785309 -3.09482635 30.99976868 -3.09336853 30.05386353 C-3.0878322 27.16087392 -3.07529219 24.26796567 -3.0625 21.375 C-3.05747675 19.39713655 -3.0529153 17.41927186 -3.04882812 15.44140625 C-3.03788373 10.62757347 -3.02066418 5.81380046 -3 1 C-1 0 -1 0 0 0 Z " fill="#B51003" transform="translate(112,85)"/>
<path d="M0 0 C1.7265625 1.5234375 1.7265625 1.5234375 3 3 C2.29875 2.96519531 1.5975 2.93039063 0.875 2.89453125 C-5.53330347 2.71168563 -10.19997663 3.20739616 -16 6 C-16.33 6.66 -16.66 7.32 -17 8 C-17.66 8 -18.32 8 -19 8 C-19.33 20.87 -19.66 33.74 -20 47 C-20.33 47 -20.66 47 -21 47 C-21.09892174 41.3766798 -21.17149342 35.75386667 -21.21972656 30.12988281 C-21.23983452 28.21703265 -21.26712507 26.30424389 -21.30175781 24.39160156 C-21.35031249 21.64112189 -21.37297658 18.89145523 -21.390625 16.140625 C-21.41127014 15.28631897 -21.43191528 14.43201294 -21.45318604 13.55181885 C-21.45543139 7.60239017 -21.45543139 7.60239017 -19.10546875 4.49414062 C-13.4113644 0.45333374 -6.85029287 -0.70865099 0 0 Z " fill="#FE7C1F" transform="translate(55,81)"/>
<path d="M0 0 C-0.66 1.32 -1.32 2.64 -2 4 C-2.66 4 -3.32 4 -4 4 C-4 4.66 -4 5.32 -4 6 C-3.34 6.33 -2.68 6.66 -2 7 C-5.12856476 8.56428238 -7.52712131 8.28007086 -11 8 C-13.79827632 6.88166618 -16.39726245 5.51432003 -19 4 C-19 4.66 -19 5.32 -19 6 C-20.32 6.33 -21.64 6.66 -23 7 C-21.8984375 4.51171875 -21.8984375 4.51171875 -20 2 C-17.0390625 1.58203125 -17.0390625 1.58203125 -13.625 1.8125 C-8.52388778 2.12325741 -4.69847737 0 0 0 Z " fill="#B00E01" transform="translate(109,144)"/>
<path d="M0 0 C0.66 0 1.32 0 2 0 C2 6.27 2 12.54 2 19 C1.67 19 1.34 19 1 19 C0.67 30.88 0.34 42.76 0 55 C-0.66 55 -1.32 55 -2 55 C-1.88249348 47.64921242 -1.75766026 40.29857568 -1.62768555 32.94799805 C-1.58432212 30.44639928 -1.54264809 27.94477064 -1.50268555 25.44311523 C-1.44501729 21.85130808 -1.38131267 18.25965148 -1.31640625 14.66796875 C-1.29969376 13.54601608 -1.28298126 12.42406342 -1.26576233 11.26811218 C-1.24581711 10.22725967 -1.22587189 9.18640717 -1.20532227 8.11401367 C-1.18977798 7.19690109 -1.1742337 6.27978851 -1.15821838 5.33488464 C-1 3 -1 3 0 0 Z " fill="#F96E0B" transform="translate(36,89)"/>
<path d="M0 0 C0.33 0 0.66 0 1 0 C1.89110547 7.68578466 2.13459647 15.33131005 2.1875 23.0625 C2.20039062 23.9908667 2.21328125 24.9192334 2.2265625 25.87573242 C2.22849609 27.19214722 2.22849609 27.19214722 2.23046875 28.53515625 C2.23457764 29.322854 2.23868652 30.11055176 2.24291992 30.92211914 C2 33 2 33 0 36 C-2.92168889 36.9738963 -5.01029474 37.19605823 -8.0625 37.25 C-8.94035156 37.27578125 -9.81820312 37.3015625 -10.72265625 37.328125 C-11.47417969 37.21984375 -12.22570312 37.1115625 -13 37 C-13.66 36.01 -14.32 35.02 -15 34 C-10.71 34 -6.42 34 -2 34 C-0.83597273 30.50791819 -0.78881492 27.60852228 -0.68359375 23.92578125 C-0.6524221 22.90003242 -0.6524221 22.90003242 -0.62062073 21.8535614 C-0.55533846 19.6733079 -0.49633983 17.49293595 -0.4375 15.3125 C-0.39429447 13.83267014 -0.35067953 12.35285217 -0.30664062 10.87304688 C-0.19967917 7.24882378 -0.09835177 3.62446811 0 0 Z " fill="#F39B15" transform="translate(105,108)"/>
<path d="M0 0 C1.670625 0.061875 1.670625 0.061875 3.375 0.125 C1.68252159 1.25331894 -0.01938678 2.36859183 -1.75 3.4375 C-3.86791925 5.0034477 -3.86791925 5.0034477 -4.125 7.6875 C-4.29 8.491875 -4.455 9.29625 -4.625 10.125 C-6.605 11.115 -6.605 11.115 -8.625 12.125 C-8.955 25.985 -9.285 39.845 -9.625 54.125 C-9.955 54.125 -10.285 54.125 -10.625 54.125 C-10.625 38.945 -10.625 23.765 -10.625 8.125 C-9.305 8.125 -7.985 8.125 -6.625 8.125 C-6.439375 6.701875 -6.439375 6.701875 -6.25 5.25 C-5.34326729 0.71633645 -4.65257101 0.16043348 0 0 Z " fill="#FEED3C" transform="translate(123.625,83.875)"/>
<path d="M0 0 C8.60780811 -0.5465275 14.8467683 1.21661543 21.5625 6.75 C22.366875 7.4925 23.17125 8.235 24 9 C23.67 10.32 23.34 11.64 23 13 C20.625 13.625 20.625 13.625 18 14 C17.34 13.34 16.68 12.68 16 12 C16.66 11.67 17.32 11.34 18 11 C17.34 10.67 16.68 10.34 16 10 C15.88011719 9.36707031 15.76023438 8.73414062 15.63671875 8.08203125 C15.18667928 5.84714444 15.18667928 5.84714444 13.14453125 4.69921875 C8.37001934 2.62786434 5.2054852 1.39831225 0 3 C0 2.01 0 1.02 0 0 Z " fill="#FBE517" transform="translate(128,82)"/>
<path d="M0 0 C3.0625 1 3.0625 1 5 2 C5 2.33 5 2.66 5 3 C-2.42857143 2 -2.42857143 2 -6 1 C-6.0825 1.53625 -6.165 2.0725 -6.25 2.625 C-7.26376098 5.8352431 -9.07160549 8.26292392 -11 11 C-12 9 -12 9 -12 8 C-12.83144531 9.60681641 -12.83144531 9.60681641 -13.6796875 11.24609375 C-14.41115655 12.64338719 -15.14294389 14.04051404 -15.875 15.4375 C-16.42220703 16.49807617 -16.42220703 16.49807617 -16.98046875 17.58007812 C-19.7734375 22.88671875 -19.7734375 22.88671875 -22 24 C-20.47745284 18.98269433 -18.39580734 14.42517728 -16.0625 9.75 C-15.71509766 9.03070313 -15.36769531 8.31140625 -15.00976562 7.5703125 C-14.66751953 6.88195312 -14.32527344 6.19359375 -13.97265625 5.484375 C-13.66593994 4.86272461 -13.35922363 4.24107422 -13.04321289 3.60058594 C-9.92092534 -1.18989316 -5.03002609 -0.45807593 0 0 Z " fill="#FDE86A" transform="translate(78,83)"/>
<path d="M0 0 C0.33 0 0.66 0 1 0 C1.33 15.84 1.66 31.68 2 48 C-4.67357931 50.86010542 -9.08406575 52.21309896 -16 50 C-15.67 49.34 -15.34 48.68 -15 48 C-14.31292969 48.01160156 -13.62585938 48.02320313 -12.91796875 48.03515625 C-12.01691406 48.04417969 -11.11585937 48.05320313 -10.1875 48.0625 C-8.84751953 48.07990234 -8.84751953 48.07990234 -7.48046875 48.09765625 C-4.86586209 48.11009967 -4.86586209 48.11009967 -2 47 C-0.83574024 44.67148048 -0.84542008 43.23719816 -0.79467773 40.64208984 C-0.77473251 39.74130707 -0.75478729 38.84052429 -0.73423767 37.91244507 C-0.71752518 36.93844757 -0.70081268 35.96445007 -0.68359375 34.9609375 C-0.66281265 33.96494537 -0.64203156 32.96895325 -0.62062073 31.94277954 C-0.55510958 28.75359146 -0.49623296 25.56431942 -0.4375 22.375 C-0.39431627 20.21613707 -0.35070203 18.0572827 -0.30664062 15.8984375 C-0.19942664 10.5990477 -0.09766315 5.29957394 0 0 Z " fill="#951200" transform="translate(107,96)"/>
<path d="M0 0 C4.27016155 1.5250577 5.88365316 4.08475834 8 8 C8.45984894 10.9820295 8.38255278 13.86707151 8.25 16.875 C8.23195312 17.65875 8.21390625 18.4425 8.1953125 19.25 C8.14855148 21.16720189 8.07682003 23.08376715 8 25 C7.34 25 6.68 25 6 25 C5.96132812 24.10861328 5.96132812 24.10861328 5.921875 23.19921875 C5.50786078 17.14896542 4.17075455 12.07771184 1.9375 6.4453125 C1.11606044 4.30272432 0.49917884 2.2359052 0 0 Z " fill="#E0290A" transform="translate(199,113)"/>
<path d="M0 0 C0.57105469 0.2165625 1.14210937 0.433125 1.73046875 0.65625 C11.91296565 4.1529421 21.68968902 3.79601654 32 1 C28.00092508 5.61431721 24.36862213 6.75497012 18.375 7.375 C12.70919114 7.23225675 7.11521184 5.35299745 2 3 C1.34 2.01 0.68 1.02 0 0 Z " fill="#AF0D05" transform="translate(163,153)"/>
<path d="M0 0 C0 0.99 0 1.98 0 3 C-1.65 3 -3.3 3 -5 3 C-5 3.66 -5 4.32 -5 5 C-5.78375 5.144375 -6.5675 5.28875 -7.375 5.4375 C-10.15156763 6.71536857 -10.15156763 6.71536857 -10.77734375 9.13671875 C-11.26835609 11.41974691 -11.68112401 13.68695927 -12 16 C-14.4294516 12.3558226 -14.16179575 10.28758728 -14 6 C-14.66 6 -15.32 6 -16 6 C-15.5 4.125 -15.5 4.125 -14 2 C-9.18827156 0.39609052 -5.0944085 -0.25472042 0 0 Z " fill="#FCE170" transform="translate(54,85)"/>
<path d="M0 0 C0.66 0 1.32 0 2 0 C3.54296875 2.1171875 3.54296875 2.1171875 5.1875 4.875 C5.73792969 5.77992188 6.28835937 6.68484375 6.85546875 7.6171875 C7.23316406 8.40351563 7.61085938 9.18984375 8 10 C7.67 10.66 7.34 11.32 7 12 C4 11 4 11 2 8 C1.87882812 8.69867188 1.75765625 9.39734375 1.6328125 10.1171875 C1.38144531 11.48230469 1.38144531 11.48230469 1.125 12.875 C0.96257813 13.77992188 0.80015625 14.68484375 0.6328125 15.6171875 C0 18 0 18 -2 20 C-5.125 20.125 -5.125 20.125 -8 20 C-6 19 -4 18 -2 17 C-1.7137306 14.30847736 -1.53256862 11.69902132 -1.4375 9 C-1.11929275 1.11929275 -1.11929275 1.11929275 0 0 Z " fill="#C31402" transform="translate(62,136)"/>
<path d="M0 0 C0.33 0 0.66 0 1 0 C0.98952637 1.27641357 0.97905273 2.55282715 0.96826172 3.86791992 C0.93201719 8.61089261 0.90908323 13.35385309 0.89013672 18.09692383 C0.88008931 20.14837707 0.86644908 22.19981604 0.84912109 24.2512207 C0.82481754 27.20267262 0.81350418 30.1539349 0.8046875 33.10546875 C0.79436493 34.02023483 0.78404236 34.93500092 0.77340698 35.87748718 C0.74885085 42.18072371 0.74885085 42.18072371 3 48 C5.51364756 49.82619087 5.51364756 49.82619087 8 51 C7.67 51.99 7.34 52.98 7 54 C1.64025468 49.6889005 -1.05097729 47.11767031 -2 40 C-1.34 40 -0.68 40 0 40 C0 26.8 0 13.6 0 0 Z " fill="#F64D03" transform="translate(36,104)"/>
<path d="M0 0 C0.33 0 0.66 0 1 0 C1.33977618 10.53306156 -0.06690532 19.10035798 -6 28 C-6.66 28 -7.32 28 -8 28 C-8.66 26.68 -9.32 25.36 -10 24 C-9.01 23.67 -8.02 23.34 -7 23 C-6.34 23.33 -5.68 23.66 -5 24 C-5 20.7 -5 17.4 -5 14 C-4.34 14 -3.68 14 -3 14 C-1.79444595 11.58889191 -1.71839022 9.68307986 -1.5 7 C-1.11111111 2.22222222 -1.11111111 2.22222222 0 0 Z " fill="#F7B513" transform="translate(159,106)"/>
<path d="M0 0 C3.89454241 4.26742413 3.55126841 8.17595964 3.4140625 13.7265625 C2.81793487 18.43934512 1.31282342 21.60892091 -2 25 C-6.08346122 27.78022891 -9.10344225 28.34975412 -14 28 C-13.67 27.34 -13.34 26.68 -13 26 C-12.0925 25.87625 -11.185 25.7525 -10.25 25.625 C-6.39766676 24.88416668 -4.75712712 23.75712712 -2 21 C-0.21121926 17.36673255 0.24914856 14.46707383 0.1875 10.4375 C0.18105469 9.50808594 0.17460937 8.57867187 0.16796875 7.62109375 C0.08199182 5.03382448 0.08199182 5.03382448 -0.57421875 2.72265625 C-0.71472656 2.15417969 -0.85523438 1.58570312 -1 1 C-0.67 0.67 -0.34 0.34 0 0 Z " fill="#FDDB48" transform="translate(142,101)"/>
<path d="M0 0 C1.2065625 0.0309375 1.2065625 0.0309375 2.4375 0.0625 C1.65375 0.92875 0.87 1.795 0.0625 2.6875 C-2.39636728 5.61306447 -3.58700104 8.33786762 -4.5625 12.0625 C-4.8925 12.0625 -5.2225 12.0625 -5.5625 12.0625 C-5.5625 16.3525 -5.5625 20.6425 -5.5625 25.0625 C-9.57848637 19.70785151 -9.4863263 15.57922063 -8.5625 9.0625 C-6.83189633 5.04923629 -4.70341549 0.11471745 0 0 Z " fill="#FEE057" transform="translate(169.5625,85.9375)"/>
<path d="M0 0 C7.26 0 14.52 0 22 0 C22 0.33 22 0.66 22 1 C20.46279297 1.07347656 20.46279297 1.07347656 18.89453125 1.1484375 C17.5338294 1.22351071 16.17315356 1.29905655 14.8125 1.375 C14.13896484 1.4059375 13.46542969 1.436875 12.77148438 1.46875 C7.89268308 1.75433837 3.89708115 2.29916863 0.1875 5.625 C-0.204375 6.07875 -0.59625 6.5325 -1 7 C-5.7184466 5.16504854 -5.7184466 5.16504854 -7.8125 3.9375 C-10.5828128 2.75022309 -12.74828987 2.80353071 -15.75 2.875 C-16.73484375 2.89304687 -17.7196875 2.91109375 -18.734375 2.9296875 C-19.48203125 2.95289062 -20.2296875 2.97609375 -21 3 C-18.43748811 0.43748811 -17.36893409 0.70221628 -13.8125 0.6875 C-8.7835315 0.7602877 -5.41166152 1.64711386 -1 4 C-0.67 2.68 -0.34 1.36 0 0 Z " fill="#D05F0A" transform="translate(112,79)"/>
<path d="M0 0 C2.21654627 1.02911077 4.10869177 2.08234225 6.0625 3.5625 C8.04181496 5.18688728 8.04181496 5.18688728 11 6 C12.61512944 9.23025887 12.45225487 12.49808053 12 16 C10.99807618 18.881771 9.82844731 21.54780143 8 24 C7.01 24.33 6.02 24.66 5 25 C6.01205602 22.97588796 7.00404118 20.9934065 8.1875 19.0625 C9.6533965 15.34137813 8.25735039 12.60477342 6.75 9.0625 C4.79281239 5.63742168 2.60334378 2.955147 0 0 Z " fill="#E93E05" transform="translate(196,85)"/>
<path d="M0 0 C0.66 0 1.32 0 2 0 C2.11597653 3.77057547 2.18717396 7.54069393 2.25 11.3125 C2.30027344 12.9202832 2.30027344 12.9202832 2.3515625 14.56054688 C2.36445312 15.58857422 2.37734375 16.61660156 2.390625 17.67578125 C2.41157227 18.62364502 2.43251953 19.57150879 2.45410156 20.5480957 C2 23 2 23 0.1640625 24.81445312 C-2.75540736 26.41383779 -4.94492924 26.29527405 -8.25 26.1875 C-9.86648437 26.14689453 -9.86648437 26.14689453 -11.515625 26.10546875 C-12.74539062 26.05326172 -12.74539062 26.05326172 -14 26 C-13.505 24.515 -13.505 24.515 -13 23 C-12.30132812 23.01160156 -11.60265625 23.02320313 -10.8828125 23.03515625 C-9.97273438 23.04417969 -9.06265625 23.05320313 -8.125 23.0625 C-6.76761719 23.07990234 -6.76761719 23.07990234 -5.3828125 23.09765625 C-2.9831415 23.16249257 -2.9831415 23.16249257 -1 22 C-0.67 14.74 -0.34 7.48 0 0 Z " fill="#F9A118" transform="translate(55,123)"/>
<path d="M0 0 C3.73392649 3.48705532 5.1922884 6.29994983 7 11 C6.01 11.495 6.01 11.495 5 12 C4.67 11.01 4.34 10.02 4 9 C3.34 8.67 2.68 8.34 2 8 C2.165 8.495 2.33 8.99 2.5 9.5 C3.41192659 14.05963297 3.48043888 18.55868337 2 23 C-0.0625 24.1875 -0.0625 24.1875 -2 25 C-1.67402832 24.44280273 -1.34805664 23.88560547 -1.01220703 23.31152344 C0.14262179 20.6743022 0.23027983 18.882946 0.1953125 16.015625 C0.18886719 15.08105469 0.18242188 14.14648438 0.17578125 13.18359375 C0.15064453 11.73146484 0.15064453 11.73146484 0.125 10.25 C0.11597656 9.26644531 0.10695312 8.28289062 0.09765625 7.26953125 C0.07412785 4.84610593 0.04125368 2.42317778 0 0 Z " fill="#A12200" transform="translate(56,125)"/>
<path d="M0 0 C10.37931034 5.06896552 10.37931034 5.06896552 13 9 C13.66 8.67 14.32 8.34 15 8 C15 9.32 15 10.64 15 12 C10.65136348 11.43555175 7.82172345 9.84572036 4.1875 7.4375 C3.21167969 6.79683594 2.23585937 6.15617187 1.23046875 5.49609375 C0.12638672 4.75552734 0.12638672 4.75552734 -1 4 C-0.67 2.68 -0.34 1.36 0 0 Z " fill="#C72405" transform="translate(166,119)"/>
<path d="M0 0 C3.19494643 1.22054133 5.96837615 3.03907156 8.8671875 4.8359375 C11.01896028 5.98258664 11.01896028 5.98258664 13.2578125 5.57421875 C15.71223292 4.53056562 16.66281697 3.00271183 18.0859375 0.796875 C18.2109375 3.171875 18.2109375 3.171875 18.0859375 5.796875 C16.0859375 7.796875 16.0859375 7.796875 12.9609375 8.234375 C8.54014691 7.73525348 6.46283455 6.4100624 2.98046875 3.79296875 C1.14508452 2.61324511 1.14508452 2.61324511 -0.91796875 2.953125 C-3.24983256 3.9388052 -4.78849882 5.16415398 -6.6640625 6.859375 C-7.27765625 7.40722656 -7.89125 7.95507812 -8.5234375 8.51953125 C-8.98234375 8.94105469 -9.44125 9.36257812 -9.9140625 9.796875 C-8.6767085 5.466136 -5.24941261 -0.55708052 0 0 Z " fill="#FCD24D" transform="translate(166.9140625,124.203125)"/>
<path d="M0 0 C2.56695636 0.39491636 4.67123994 0.83561997 7 2 C7.05389087 3.95803507 7.09274217 5.91648909 7.125 7.875 C7.14820313 8.96554688 7.17140625 10.05609375 7.1953125 11.1796875 C7 14 7 14 5 16 C5.01160156 15.40832031 5.02320313 14.81664063 5.03515625 14.20703125 C5.08322386 9.99768215 5.06006883 6.1077667 4 2 C3.01 2.495 3.01 2.495 2 3 C0.69716121 7.29936801 0.70857399 11.5557534 1 16 C1.99 16.66 2.98 17.32 4 18 C2.35 18.33 0.7 18.66 -1 19 C-1.02683987 16.02077407 -1.04676037 13.04178705 -1.0625 10.0625 C-1.07087891 9.21236328 -1.07925781 8.36222656 -1.08789062 7.48632812 C-1.09111328 6.67744141 -1.09433594 5.86855469 -1.09765625 5.03515625 C-1.10289307 4.2862915 -1.10812988 3.53742676 -1.11352539 2.76586914 C-1 1 -1 1 0 0 Z " fill="#CF1F02" transform="translate(135,106)"/>
<path d="M0 0 C2.06242617 -0.02717692 4.12495703 -0.0464758 6.1875 -0.0625 C7.33605469 -0.07410156 8.48460938 -0.08570312 9.66796875 -0.09765625 C13 0 13 0 15.67578125 0.56640625 C18.29324225 1.22159505 18.29324225 1.22159505 22 0 C21.34 3.63 20.68 7.26 20 11 C16 8 16 8 15.0625 5.9375 C14.12843928 3.83596912 14.12843928 3.83596912 11.9375 2.8125 C7.99431046 1.72183055 4.06907884 1.33687363 0 1 C0 0.67 0 0.34 0 0 Z " fill="#D6610E" transform="translate(69,82)"/>
<path d="M0 0 C0.66 0 1.32 0 2 0 C0.70308182 3.89075454 -0.66776769 6.52462743 -4 9 C-7.06955187 8.9232612 -8.54870847 8.36394478 -10.9375 6.4375 C-13.69729715 4.51400502 -15.71355915 4.77592449 -19 5 C-19.33 5.66 -19.66 6.32 -20 7 C-20.66 7 -21.32 7 -22 7 C-20.125 3.125 -20.125 3.125 -19 2 C-12.92057494 1.39205749 -9.93587149 2.77657372 -5 6 C-4.21625 5.01 -3.4325 4.02 -2.625 3 C-1.325625 1.515 -1.325625 1.515 0 0 Z " fill="#F5B71B" transform="translate(199,96)"/>
<path d="M0 0 C0.33 0 0.66 0 1 0 C1.33 6.6 1.66 13.2 2 20 C1.34 19.01 0.68 18.02 0 17 C-0.66 17 -1.32 17 -2 17 C-3.69140625 15.20703125 -3.69140625 15.20703125 -5.5625 12.8125 C-6.18253906 12.03519531 -6.80257812 11.25789062 -7.44140625 10.45703125 C-9.063124 7.90048873 -9.61376194 5.97879489 -10 3 C-6.69833218 6.20995482 -3.8980567 9.37742913 -1 13 C-0.67 8.71 -0.34 4.42 0 0 Z " fill="#B52100" transform="translate(88,120)"/>
<path d="M0 0 C5.75593513 -0.90883186 9.29493431 1.60487139 14.0234375 4.4921875 C14.67570313 4.98976563 15.32796875 5.48734375 16 6 C16 6.66 16 7.32 16 8 C16.66 8 17.32 8 18 8 C17.67 9.32 17.34 10.64 17 12 C16.60167969 11.39671875 16.20335937 10.7934375 15.79296875 10.171875 C13.80946372 7.76919789 12.06024961 6.68360849 9.3125 5.25 C8.50425781 4.82203125 7.69601563 4.3940625 6.86328125 3.953125 C6.24839844 3.63859375 5.63351563 3.3240625 5 3 C4.01 4.485 4.01 4.485 3 6 C3.66 6.33 4.32 6.66 5 7 C4.01 7.33 3.02 7.66 2 8 C0 1.125 0 1.125 0 0 Z " fill="#B10E03" transform="translate(162,117)"/>
<path d="M0 0 C4 4 4 4 4 6 C4.66 6 5.32 6 6 6 C4.77782954 10.04256383 3.37245704 13.49288959 1 17 C0.67 17 0.34 17 0 17 C0 11.39 0 5.78 0 0 Z " fill="#961D01" transform="translate(56,87)"/>
<path d="M0 0 C1.98 0 3.96 0 6 0 C5.67 1.65 5.34 3.3 5 5 C4.34 4.34 3.68 3.68 3 3 C2.54625 3.495 2.0925 3.99 1.625 4.5 C0 6 0 6 -2 6 C-2.12375 6.7425 -2.2475 7.485 -2.375 8.25 C-2.95486701 10.80141485 -3.73708739 12.7267573 -5 15 C-5.33 15 -5.66 15 -6 15 C-6.36363636 7.72727273 -6.36363636 7.72727273 -4.75 4.5 C-3 3 -3 3 1 3 C0.67 2.01 0.34 1.02 0 0 Z " fill="#FAE32B" transform="translate(48,87)"/>
<path d="M0 0 C-0.99 0.66 -1.98 1.32 -3 2 C-3.48984375 1.67257813 -3.9796875 1.34515625 -4.484375 1.0078125 C-8.04269563 -0.41772589 -11.48203011 -0.21154348 -15.25 -0.125 C-15.99507812 -0.11597656 -16.74015625 -0.10695313 -17.5078125 -0.09765625 C-19.33868059 -0.07418358 -21.16938238 -0.03831525 -23 0 C-23.33 0.66 -23.66 1.32 -24 2 C-25.98 2 -27.96 2 -30 2 C-28.71672912 -0.56654176 -27.85143257 -0.67462406 -25.1875 -1.625 C-16.45685574 -4.34985076 -8.24635334 -3.80600924 0 0 Z " fill="#FE8221" transform="translate(196,81)"/>
<path d="M0 0 C0.66 0 1.32 0 2 0 C2.05059881 6.22961977 2.08569062 12.4591868 2.10986328 18.68896484 C2.11993751 20.8094277 2.13359733 22.92987661 2.15087891 25.05029297 C2.17506489 28.09345943 2.18646869 31.13644266 2.1953125 34.1796875 C2.20563507 35.13181122 2.21595764 36.08393494 2.22659302 37.06491089 C2.22674408 37.94567291 2.22689514 38.82643494 2.22705078 39.73388672 C2.231492 40.51110077 2.23593323 41.28831482 2.24050903 42.08908081 C2 44 2 44 0 46 C-1.28509803 41.16681988 -1.03254079 36.49278248 -0.87890625 31.54296875 C-0.85529526 30.64000565 -0.83168427 29.73704254 -0.80735779 28.80671692 C-0.73101754 25.93347279 -0.64686623 23.06051856 -0.5625 20.1875 C-0.50924962 18.23504005 -0.45650944 16.28256611 -0.40429688 14.33007812 C-0.27544265 9.55320316 -0.13958443 4.77657297 0 0 Z " fill="#FAD714" transform="translate(40,102)"/>
<path d="M0 0 C1.65 0 3.3 0 5 0 C4.68512356 3.02179807 4.51979666 4.54824539 2.1796875 6.58203125 C-2.85002794 9.2673878 -6.2875342 10.60770913 -12 10 C-12 9.67 -12 9.34 -12 9 C-10.02 9 -8.04 9 -6 9 C-6 8.34 -6 7.68 -6 7 C-4.3545622 5.31237149 -2.68711423 3.6459651 -1 2 C-0.67 1.34 -0.34 0.68 0 0 Z " fill="#F89D18" transform="translate(82,137)"/>
<path d="M0 0 C8.35229068 0.36848341 8.35229068 0.36848341 11.5 3.4375 C13.72907234 7.24549858 14.11393839 9.20129875 14.0625 13.625 C14.05347656 14.62789062 14.04445312 15.63078125 14.03515625 16.6640625 C14.02355469 17.43492188 14.01195312 18.20578125 14 19 C13.67 19 13.34 19 13 19 C12.86722656 18.16855469 12.73445312 17.33710937 12.59765625 16.48046875 C12.42105469 15.39378906 12.24445313 14.30710937 12.0625 13.1875 C11.88847656 12.10855469 11.71445313 11.02960938 11.53515625 9.91796875 C11.06128079 6.95066644 11.06128079 6.95066644 10 4 C7.89415562 3.19436362 7.89415562 3.19436362 5.4375 2.8125 C4.61121094 2.65394531 3.78492188 2.49539062 2.93359375 2.33203125 C2.29550781 2.22246094 1.65742188 2.11289063 1 2 C1 4.64 1 7.28 1 10 C0.67 10 0.34 10 0 10 C0 6.7 0 3.4 0 0 Z " fill="#961800" transform="translate(129,98)"/>
<path d="M0 0 C4.24964413 1.41654804 5.10301114 4.46315382 7 8.25 C7.6863399 9.58913688 8.3738187 10.92769073 9.0625 12.265625 C9.38863281 12.90306641 9.71476562 13.54050781 10.05078125 14.19726562 C11.27515476 16.52256758 12.61527531 18.76713144 14 21 C13.01 21 12.02 21 11 21 C9.6496582 19.28759766 9.6496582 19.28759766 8.30078125 16.9140625 C7.81416016 16.06585938 7.32753906 15.21765625 6.82617188 14.34375 C6.32666016 13.4465625 5.82714844 12.549375 5.3125 11.625 C4.80138672 10.73554688 4.29027344 9.84609375 3.76367188 8.9296875 C0 2.29678112 0 2.29678112 0 0 Z " fill="#FCCC36" transform="translate(57,124)"/>
<path d="M0 0 C11.13598278 -0.41244381 21.27265416 1.7272118 30 9 C29.67 9.66 29.34 10.32 29 11 C27.68 10.34 26.36 9.68 25 9 C25 8.34 25 7.68 25 7 C22.36 6.34 19.72 5.68 17 5 C17 4.34 17 3.68 17 3 C11.39 2.34 5.78 1.68 0 1 C0 0.67 0 0.34 0 0 Z " fill="#FE952E" transform="translate(125,76)"/>
<path d="M0 0 C2.6875 -0.3125 2.6875 -0.3125 6 0 C8.875 2.5 8.875 2.5 11 5 C8.69 4.67 6.38 4.34 4 4 C4 4.99 4 5.98 4 7 C1.525 6.01 1.525 6.01 -1 5 C-0.67 3.35 -0.34 1.7 0 0 Z " fill="#931100" transform="translate(180,100)"/>
<path d="M0 0 C3.67869936 0.62019643 5.96546386 2.23480449 8.9375 4.4375 C12.20499249 6.85655549 15.16265308 8.63393195 19 10 C15.16036808 11.27987731 12.58254727 10.6264325 9 9 C5.31908275 6.40780476 2.50040131 3.75060197 0 0 Z " fill="#E82E0F" transform="translate(154,145)"/>
<path d="M0 0 C3.95781786 0.27612683 5.69956508 0.74053348 8.75 3.375 C11 6 11 6 13 9 C8.56411585 8.50712398 7.08097175 7.08097175 4 4 C1.35815459 3.20318682 1.35815459 3.20318682 -1 3 C-0.67 2.01 -0.34 1.02 0 0 Z " fill="#F66715" transform="translate(194,82)"/>
<path d="M0 0 C0.33 0 0.66 0 1 0 C1.57329843 15.30919139 1.57329843 15.30919139 -2 21 C-2.99 21.33 -3.98 21.66 -5 22 C-4.70351562 21.35675781 -4.40703125 20.71351563 -4.1015625 20.05078125 C-2.6933545 16.15074421 -2.04560381 12.26928746 -1.375 8.1875 C-1.2409375 7.39923828 -1.106875 6.61097656 -0.96875 5.79882812 C-0.6408771 3.86671994 -0.31975763 1.9334678 0 0 Z " fill="#BE1401" transform="translate(203,126)"/>
<path d="M0 0 C3.125 0.52083333 6.25 1.04166667 9.375 1.5625 C10.674375 1.7790625 10.674375 1.7790625 12 2 C12 3.65 12 5.3 12 7 C11.67 5.68 11.34 4.36 11 3 C6.2460133 4.14751403 1.62107093 5.38262517 -3 7 C-2.690625 6.401875 -2.38125 5.80375 -2.0625 5.1875 C-0.89790296 2.91043228 -0.89790296 2.91043228 0 0 Z " fill="#FBE42E" transform="translate(72,84)"/>
<path d="M0 0 C4 0 4 0 6 1 C6.40729228 3.32156597 6.74438677 5.6568787 7 8 C7.99 8 8.98 8 10 8 C10 8.66 10 9.32 10 10 C8.02 10 6.04 10 4 10 C2.66666667 6.66666667 1.33333333 3.33333333 0 0 Z " fill="#FBBB03" transform="translate(66,136)"/>
<path d="M0 0 C1.670625 0.061875 1.670625 0.061875 3.375 0.125 C1.68252159 1.25331894 -0.01938678 2.36859183 -1.75 3.4375 C-3.87628584 5.00040883 -3.87628584 5.00040883 -4.0625 7.6875 C-4.248125 8.491875 -4.43375 9.29625 -4.625 10.125 C-7.1875 11.4375 -7.1875 11.4375 -9.625 12.125 C-9.625 10.805 -9.625 9.485 -9.625 8.125 C-8.635 8.125 -7.645 8.125 -6.625 8.125 C-6.50125 7.17625 -6.3775 6.2275 -6.25 5.25 C-5.34326729 0.71633645 -4.65257101 0.16043348 0 0 Z " fill="#F6E42B" transform="translate(123.625,83.875)"/>
<path d="M0 0 C-0.33 0.7425 -0.66 1.485 -1 2.25 C-2.22782871 5.13883312 -2.22782871 5.13883312 -2 9 C-4 10 -4 10 -6.0625 9.75 C-6.701875 9.5025 -7.34125 9.255 -8 9 C-8.33 8.01 -8.66 7.02 -9 6 C-8.360625 5.731875 -7.72125 5.46375 -7.0625 5.1875 C-4.66868314 4.11332248 -4.66868314 4.11332248 -4 1 C-2 0 -2 0 0 0 Z " fill="#FBDA0A" transform="translate(179,108)"/>
<path d="M0 0 C0.66 0 1.32 0 2 0 C2 6.27 2 12.54 2 19 C0.08139216 15.16278433 -0.37245931 13.10533336 -0.6875 8.9375 C-0.77386719 7.89464844 -0.86023437 6.85179688 -0.94921875 5.77734375 C-1 3 -1 3 0 0 Z " fill="#E2600B" transform="translate(36,89)"/>
<path d="M0 0 C2.46800047 1.15173355 4.04783565 2.04783565 6 4 C6.33 3.01 6.66 2.02 7 1 C7.66 1.33 8.32 1.66 9 2 C8.67 5.96 8.34 9.92 8 14 C7.67 14 7.34 14 7 14 C6.731875 13.071875 6.46375 12.14375 6.1875 11.1875 C5.03110437 8.08349067 4.28104551 7.18600194 2 5 C0.8125 2.3125 0.8125 2.3125 0 0 Z " fill="#CB3E01" transform="translate(153,90)"/>
<path d="M0 0 C2.97851562 0.390625 2.97851562 0.390625 5.95703125 0.78125 C8.15471706 1.053233 8.15471706 1.053233 11 1 C10.34 3.31 9.68 5.62 9 8 C8.01 8 7.02 8 6 8 C4.94228261 6.36935236 3.94726954 4.69719127 3 3 C1.41754725 1.24850835 1.41754725 1.24850835 0 0 Z " fill="#E23F03" transform="translate(54,85)"/>
<path d="M0 0 C7.11341265 -0.45164525 11.71546794 0.67202085 18 4 C16.2421875 5.12109375 16.2421875 5.12109375 14 6 C12.0703125 5.28515625 12.0703125 5.28515625 10.125 4.0625 C7.02596856 2.32727453 6.2098985 1.98500725 2.5 2.25 C1.2625 2.62125 1.2625 2.62125 0 3 C0 2.01 0 1.02 0 0 Z " fill="#FAE62B" transform="translate(128,82)"/>
<path d="M0 0 C1.1446875 0.495 1.1446875 0.495 2.3125 1 C7.25174651 2.33945668 11.91463109 2.16287658 17 2 C13.92409611 5.07590389 10.29237722 5.78430265 6 6 C2.4375 4.25 2.4375 4.25 0 2 C0 1.34 0 0.68 0 0 Z " fill="#E52F0C" transform="translate(69,152)"/>
<path d="M0 0 C0.33 0.66 0.66 1.32 1 2 C1.66 2 2.32 2 3 2 C3 1.34 3 0.68 3 0 C6.64991166 1.31802365 8.7895201 2.59214008 12 5 C8.04 5 4.08 5 0 5 C-0.33 4.34 -0.66 3.68 -1 3 C-0.67 2.01 -0.34 1.02 0 0 Z " fill="#FBB703" transform="translate(92,138)"/>
<path d="M0 0 C0.66 0 1.32 0 2 0 C2.33 2.97 2.66 5.94 3 9 C2.34 9 1.68 9 1 9 C1 14.28 1 19.56 1 25 C0.67 25 0.34 25 0 25 C0 16.75 0 8.5 0 0 Z " fill="#FAE855" transform="translate(38,91)"/>
<path d="M0 0 C0.66 0.66 1.32 1.32 2 2 C-8.18906606 9.85193622 -8.18906606 9.85193622 -15 10 C-6.25 3 -6.25 3 -1 3 C-0.67 2.01 -0.34 1.02 0 0 Z " fill="#F49D16" transform="translate(150,133)"/>
<path d="M0 0 C0.33 0 0.66 0 1 0 C1 4.29 1 8.58 1 13 C5.455 12.505 5.455 12.505 10 12 C6.70019484 15.29980516 5.48798839 15.60974014 1 16 C0 15 0 15 -0.09765625 11.62109375 C-0.09098369 10.22652923 -0.07902532 8.83198257 -0.0625 7.4375 C-0.05798828 6.72658203 -0.05347656 6.01566406 -0.04882812 5.28320312 C-0.03700864 3.52209987 -0.01907263 1.76103964 0 0 Z " fill="#B03A02" transform="translate(128,112)"/>
<path d="M0 0 C3.3782304 3.111528 5.79633875 5.51362626 7 10 C7.125 13.3125 7.125 13.3125 7 16 C6.34 16 5.68 16 5 16 C5 13.36 5 10.72 5 8 C4.01 7.67 3.02 7.34 2 7 C2 6.01 2 5.02 2 4 C1.01 3.67 0.02 3.34 -1 3 C-0.67 2.01 -0.34 1.02 0 0 Z " fill="#FDD52B" transform="translate(152,92)"/>
<path d="M0 0 C0.99773437 0.02320312 1.99546875 0.04640625 3.0234375 0.0703125 C4.52777344 0.09738281 4.52777344 0.09738281 6.0625 0.125 C6.83335938 0.14820312 7.60421875 0.17140625 8.3984375 0.1953125 C8.3984375 0.5253125 8.3984375 0.8553125 8.3984375 1.1953125 C7.1403125 1.2159375 5.8821875 1.2365625 4.5859375 1.2578125 C2.38144422 1.42573785 2.38144422 1.42573785 0.3984375 2.1953125 C-1.29139757 4.48512159 -1.79119111 6.40966083 -2.6015625 9.1953125 C-3.2615625 9.1953125 -3.9215625 9.1953125 -4.6015625 9.1953125 C-4.7265625 5.8203125 -4.7265625 5.8203125 -4.6015625 2.1953125 C-2.6015625 0.1953125 -2.6015625 0.1953125 0 0 Z " fill="#FEFD88" transform="translate(119.6015625,82.8046875)"/>
<path d="M0 0 C0.99 0.33 1.98 0.66 3 1 C3 6.28 3 11.56 3 17 C2.67 17 2.34 17 2 17 C1.34 11.39 0.68 5.78 0 0 Z " fill="#A50600" transform="translate(58,133)"/>
<path d="M0 0 C2.67151851 2.67151851 2.29873672 4.09182532 2.3125 7.8125 C2.32925781 8.85019531 2.34601563 9.88789063 2.36328125 10.95703125 C1.95759388 14.35520826 1.00435352 16.25479682 -1 19 C-1.33 19 -1.66 19 -2 19 C-2 17.02 -2 15.04 -2 13 C-1.34 12.67 -0.68 12.34 0 12 C0 8.04 0 4.08 0 0 Z " fill="#FDB81E" transform="translate(199,120)"/>
<path d="M0 0 C0.99 0.33 1.98 0.66 3 1 C2.67 1.33 2.34 1.66 2 2 C1.66625723 4.41583753 1.66625723 4.41583753 2 7 C3.39585785 8.81476003 3.39585785 8.81476003 5 10 C4.01 10 3.02 10 2 10 C-0.75 7.1875 -0.75 7.1875 -3 4 C-2.67 3.01 -2.34 2.02 -2 1 C-1.34 0.67 -0.68 0.34 0 0 Z " fill="#FAC224" transform="translate(159,132)"/>
<path d="M0 0 C-0.804375 0.680625 -1.60875 1.36125 -2.4375 2.0625 C-5.42288711 5.48477302 -5.73781251 7.5428126 -6 12 C-8.67927341 7.98108988 -8.15601248 5.75838077 -8 1 C-5.29120665 -0.35439668 -2.99066732 -0.06501451 0 0 Z " fill="#FCFB97" transform="translate(48,89)"/>
<path d="M0 0 C-0.33 0.66 -0.66 1.32 -1 2 C-3.29177787 2.60553928 -5.61041918 3.11125895 -7.9375 3.5625 C-12.6069882 4.3686973 -12.6069882 4.3686973 -17 6 C-16.4375 4.125 -16.4375 4.125 -15 2 C-9.88524919 -0.04590033 -5.40701133 -0.1897197 0 0 Z " fill="#DB5B03" transform="translate(55,83)"/>
<path d="M0 0 C3.77070649 1.6672132 5.0709374 3.33478106 7 7 C6.01 8.485 6.01 8.485 5 10 C3 9 3 9 2.1484375 6.93359375 C1.89320313 6.10988281 1.63796875 5.28617187 1.375 4.4375 C1.11460937 3.61121094 0.85421875 2.78492187 0.5859375 1.93359375 C0.39257812 1.29550781 0.19921875 0.65742187 0 0 Z " fill="#F5470B" transform="translate(199,113)"/>
<path d="M0 0 C-1.49619022 2.99238045 -3.92645689 3.08616743 -6.921875 4.13671875 C-9.70457011 5.29268796 -11.77993295 6.98806424 -14 9 C-13.08259025 5.33036099 -11.85358306 3.60779821 -8.6875 1.6875 C-5.69180869 0.12698298 -3.41662096 -0.41413587 0 0 Z " fill="#FEFB8D" transform="translate(180,85)"/>
<path d="M0 0 C0.99 0 1.98 0 3 0 C3.061875 0.886875 3.12375 1.77375 3.1875 2.6875 C4.18469621 6.75299225 6.01484729 8.16793205 9 11 C9 11.99 9 12.98 9 14 C3.64025468 9.6889005 0.94902271 7.11767031 0 0 Z " fill="#FB4310" transform="translate(34,144)"/>
<path d="M0 0 C3 1 3 1 4.26953125 2.48828125 C6.84544232 4.73856925 9.33924473 4.75653645 12.6875 5.1875 C13.86699219 5.34605469 15.04648438 5.50460938 16.26171875 5.66796875 C17.16535156 5.77753906 18.06898438 5.88710937 19 6 C19 6.33 19 6.66 19 7 C6.10656441 7.86083769 6.10656441 7.86083769 2.1875 4.625 C0 2 0 2 0 0 Z " fill="#B80D01" transform="translate(114,145)"/>
<path d="M0 0 C2.0625 0.4375 2.0625 0.4375 4 1 C3.01 1.33 2.02 1.66 1 2 C1 5.63 1 9.26 1 13 C0.34 13 -0.32 13 -1 13 C-1.02686553 11.02090602 -1.04633375 9.04171029 -1.0625 7.0625 C-1.07410156 5.96035156 -1.08570313 4.85820313 -1.09765625 3.72265625 C-1 1 -1 1 0 0 Z " fill="#A10501" transform="translate(133,103)"/>
<path d="M0 0 C0.66 0 1.32 0 2 0 C3.54296875 2.1171875 3.54296875 2.1171875 5.1875 4.875 C5.73792969 5.77992188 6.28835937 6.68484375 6.85546875 7.6171875 C7.23316406 8.40351563 7.61085938 9.18984375 8 10 C7.67 10.66 7.34 11.32 7 12 C4 11 4 11 2 8 C1.10869587 5.3260876 0.52268466 2.76276177 0 0 Z " fill="#BF2800" transform="translate(62,136)"/>
<path d="M0 0 C0 2.97 0 5.94 0 9 C-3.01464383 6.99023745 -4.64703317 5.38241707 -6 2 C-6 1.67 -6 1.34 -6 1 C-1.125 0 -1.125 0 0 0 Z " fill="#CF3E04" transform="translate(89,84)"/>
<path d="M0 0 C0.99 0.33 1.98 0.66 3 1 C0.03 4.96 0.03 4.96 -3 9 C-3.66 8.67 -4.32 8.34 -5 8 C-4.67 6.35 -4.34 4.7 -4 3 C-3.01 2.67 -2.02 2.34 -1 2 C-0.67 1.34 -0.34 0.68 0 0 Z " fill="#8F1701" transform="translate(161,123)"/>
<path d="M0 0 C0.33 0 0.66 0 1 0 C1.33 6.6 1.66 13.2 2 20 C1.34 19.01 0.68 18.02 0 17 C-0.66 16.67 -1.32 16.34 -2 16 C-1.67 15.34 -1.34 14.68 -1 14 C-0.76970044 11.62876754 -0.58880058 9.25258057 -0.4375 6.875 C-0.35371094 5.59367187 -0.26992187 4.31234375 -0.18359375 2.9921875 C-0.09271484 1.51105469 -0.09271484 1.51105469 0 0 Z " fill="#C43203" transform="translate(88,120)"/>
<path d="M0 0 C2.0625 0.4375 2.0625 0.4375 4 1 C3.67 1.99 3.34 2.98 3 4 C4.98 5.32 6.96 6.64 9 8 C8.01 8.495 8.01 8.495 7 9 C0.39923225 5.87332054 0.39923225 5.87332054 -1 2.8125 C-1 1 -1 1 0 0 Z " fill="#A61802" transform="translate(184,103)"/>
<path d="M0 0 C0 3.63195496 -0.95453155 4.74713911 -3 7.6875 C-3.556875 8.49574219 -4.11375 9.30398437 -4.6875 10.13671875 C-5.120625 10.75160156 -5.55375 11.36648437 -6 12 C-6.66 11.67 -7.32 11.34 -8 11 C-8 10.34 -8 9.68 -8 9 C-7.34 9 -6.68 9 -6 9 C-6 8.01 -6 7.02 -6 6 C-5.34 6 -4.68 6 -4 6 C-3.8453125 5.071875 -3.8453125 5.071875 -3.6875 4.125 C-3 2 -3 2 0 0 Z " fill="#FDC821" transform="translate(81,93)"/>
<path d="M0 0 C-1.32 0.33 -2.64 0.66 -4 1 C-4 1.66 -4 2.32 -4 3 C-7.67410785 4.17571451 -11.16929183 4.07366746 -15 4 C-12.19836511 2.13224341 -10.11958197 1.27321694 -6.9375 0.3125 C-6.05964844 0.04050781 -5.18179688 -0.23148438 -4.27734375 -0.51171875 C-2 -1 -2 -1 0 0 Z " fill="#D01B01" transform="translate(90,151)"/>
<path d="M0 0 C0.99 0.33 1.98 0.66 3 1 C1.02 3.97 1.02 3.97 -1 7 C-2.32 6.34 -3.64 5.68 -5 5 C-5 4.34 -5 3.68 -5 3 C-4.01 3 -3.02 3 -2 3 C-2 2.34 -2 1.68 -2 1 C-1.34 0.67 -0.68 0.34 0 0 Z " fill="#D52208" transform="translate(197,148)"/>
<path d="M0 0 C0.66 0.33 1.32 0.66 2 1 C2.33 1.99 2.66 2.98 3 4 C2.01 5.485 2.01 5.485 1 7 C0.01 6.67 -0.98 6.34 -2 6 C-2.33 4.35 -2.66 2.7 -3 1 C-2.01 0.67 -1.02 0.34 0 0 Z " fill="#FCC304" transform="translate(148,129)"/>
<path d="M0 0 C1.134375 0.020625 2.26875 0.04125 3.4375 0.0625 C0.4375 2.0625 0.4375 2.0625 -1.5625 3.0625 C-2.29325648 5.3765622 -2.96388258 7.71078869 -3.5625 10.0625 C-3.8925 10.0625 -4.2225 10.0625 -4.5625 10.0625 C-4.58939216 8.58343108 -4.60884621 7.10422517 -4.625 5.625 C-4.63660156 4.80128906 -4.64820312 3.97757812 -4.66015625 3.12890625 C-4.49001835 -0.47121162 -3.73687179 0.06555915 0 0 Z " fill="#FEFDA6" transform="translate(96.5625,83.9375)"/>
<path d="M0 0 C0.89203125 0.01804687 1.7840625 0.03609375 2.703125 0.0546875 C3.71632812 0.08949219 3.71632812 0.08949219 4.75 0.125 C1.60426323 2.22215785 -0.26456251 2.64504559 -3.9375 3.25 C-5.42830078 3.50136719 -5.42830078 3.50136719 -6.94921875 3.7578125 C-7.70847656 3.87898438 -8.46773437 4.00015625 -9.25 4.125 C-9.25 3.465 -9.25 2.805 -9.25 2.125 C-6.03817851 0.21891902 -3.71117397 -0.09766247 0 0 Z " fill="#FAE979" transform="translate(178.25,82.875)"/>
<path d="M0 0 C-0.99 0.66 -1.98 1.32 -3 2 C-3.53109375 1.68289062 -4.0621875 1.36578125 -4.609375 1.0390625 C-7.54535848 -0.2370349 -10.06174329 -0.41707021 -13.25 -0.625 C-14.32765625 -0.69976562 -15.4053125 -0.77453125 -16.515625 -0.8515625 C-17.33546875 -0.90054688 -18.1553125 -0.94953125 -19 -1 C-19 -1.33 -19 -1.66 -19 -2 C-11.85234068 -3.23852969 -6.68688919 -2.85888741 0 0 Z " fill="#FE8913" transform="translate(196,81)"/>
<path d="M0 0 C3.3 0.99 6.6 1.98 10 3 C9.01 3.99 8.02 4.98 7 6 C3.535 4.02 3.535 4.02 0 2 C0 1.34 0 0.68 0 0 Z " fill="#AD0B03" transform="translate(159,144)"/>
<path d="M0 0 C0.68707555 2.49064888 1 4.37886292 1 7 C-1.31 6.34 -3.62 5.68 -6 5 C-3.8614515 2.8614515 -2.86724686 2.57344937 0 2 C0 1.34 0 0.68 0 0 Z M-3 7 C-1 8 -1 8 -1 8 Z " fill="#FCDF16" transform="translate(60,103)"/>
<path d="M0 0 C1.875 1.1875 1.875 1.1875 2.875 3.1875 C2.276875 3.331875 1.67875 3.47625 1.0625 3.625 C-0.68650404 4.0747439 -2.41177023 4.61642341 -4.125 5.1875 C-4.455 3.5375 -4.785 1.8875 -5.125 0.1875 C-2.125 -0.8125 -2.125 -0.8125 0 0 Z " fill="#FDDD0F" transform="translate(68.125,104.8125)"/>
<path d="M0 0 C0.99 0.99 1.98 1.98 3 3 C3 3.66 3 4.32 3 5 C3.66 5 4.32 5 5 5 C5 5.66 5 6.32 5 7 C4.01 7.33 3.02 7.66 2 8 C1.67 8.99 1.34 9.98 1 11 C0.67 11 0.34 11 0 11 C0 7.37 0 3.74 0 0 Z " fill="#B51203" transform="translate(57,88)"/>
<path d="M0 0 C1.65 0 3.3 0 5 0 C4.21625 0.86625 3.4325 1.7325 2.625 2.625 C0.16613272 5.55056447 -1.02450104 8.27536762 -2 12 C-2.66 11.01 -3.32 10.02 -4 9 C-3.3203125 6.73828125 -3.3203125 6.73828125 -2.125 4.3125 C-1.73570312 3.50425781 -1.34640625 2.69601563 -0.9453125 1.86328125 C-0.63335937 1.24839844 -0.32140625 0.63351563 0 0 Z " fill="#F4E752" transform="translate(167,86)"/>
<path d="M0 0 C0.33 0.99 0.66 1.98 1 3 C-3.61012242 5.95047835 -6.36529617 7.5497272 -12 7 C-11.67 6.34 -11.34 5.68 -11 5 C-9.63875 4.814375 -9.63875 4.814375 -8.25 4.625 C-4.49945446 3.90374124 -2.78673289 2.5408447 0 0 Z " fill="#FEDE5D" transform="translate(140,122)"/>
<path d="M0 0 C0.66 0.33 1.32 0.66 2 1 C-0.20979308 3.81939117 -2.40062046 6.53058944 -5 9 C-6.32 8.01 -7.64 7.02 -9 6 C-8.67 5.34 -8.34 4.68 -8 4 C-6.515 4.99 -6.515 4.99 -5 6 C-3.35 4.02 -1.7 2.04 0 0 Z " fill="#FF7E20" transform="translate(164,83)"/>
<path d="M0 0 C1.65 0 3.3 0 5 0 C5 3.3 5 6.6 5 10 C4.67 10 4.34 10 4 10 C3.34 7.69 2.68 5.38 2 3 C1.01 3.33 0.02 3.66 -1 4 C-0.67 2.68 -0.34 1.36 0 0 Z " fill="#FCE41E" transform="translate(101,84)"/>
<path d="M0 0 C1.32 0.33 2.64 0.66 4 1 C2.07423885 3.43929746 0.19909405 5.80090595 -2 8 C-2.6875 6.25 -2.6875 6.25 -3 4 C-1.5625 1.75 -1.5625 1.75 0 0 Z " fill="#E05605" transform="translate(164,85)"/>
<path d="M0 0 C0.51046875 0.14308594 1.0209375 0.28617188 1.546875 0.43359375 C4.75951851 1.17536654 7.98459091 1.60897096 11.25 2.0625 C12.51328125 2.23910156 13.7765625 2.41570312 15.078125 2.59765625 C16.52445313 2.79681641 16.52445313 2.79681641 18 3 C18 3.33 18 3.66 18 4 C6.03148148 4.38333333 6.03148148 4.38333333 1 2 C0.67 1.34 0.34 0.68 0 0 Z " fill="#F79123" transform="translate(112,141)"/>
<path d="M0 0 C0.66 0.33 1.32 0.66 2 1 C0.66511872 4.59391114 -0.96022723 7.75490696 -3 11 C-3.66 10.67 -4.32 10.34 -5 10 C-4.01 7.69 -3.02 5.38 -2 3 C-1.34 3 -0.68 3 0 3 C0 2.01 0 1.02 0 0 Z " fill="#FCC61D" transform="translate(71,105)"/>
<path d="M0 0 C0.33 0 0.66 0 1 0 C0.49202991 4.3177458 -0.19682779 8.03302114 -2 12 C-3.32 11.67 -4.64 11.34 -6 11 C-5.38125 10.29875 -4.7625 9.5975 -4.125 8.875 C-1.9572991 5.94222819 -0.97344445 3.48817594 0 0 Z " fill="#A31E00" transform="translate(202,92)"/>
<path d="M0 0 C4.455 2.97 4.455 2.97 9 6 C8.34 6.66 7.68 7.32 7 8 C4.625 7.375 4.625 7.375 2 6 C0.6875 2.875 0.6875 2.875 0 0 Z " fill="#A12000" transform="translate(157,138)"/>
<path d="M0 0 C1.65 0.33 3.3 0.66 5 1 C5.33 2.32 5.66 3.64 6 5 C4.02 4.34 2.04 3.68 0 3 C0 3.66 0 4.32 0 5 C-0.99 4.67 -1.98 4.34 -3 4 C-2.34 4 -1.68 4 -1 4 C-0.67 2.68 -0.34 1.36 0 0 Z " fill="#B70F02" transform="translate(153,139)"/>
<path d="M0 0 C1.65 0 3.3 0 5 0 C4.67 1.65 4.34 3.3 4 5 C2.02 5 0.04 5 -2 5 C-1.34 3.35 -0.68 1.7 0 0 Z " fill="#FBB411" transform="translate(82,137)"/>
<path d="M0 0 C1.65 0.33 3.3 0.66 5 1 C2.64531545 3.72647685 0.4591583 4.98756342 -3 6 C-5.3125 5.625 -5.3125 5.625 -7 5 C-6.030625 4.54625 -5.06125 4.0925 -4.0625 3.625 C-0.92920418 2.34213779 -0.92920418 2.34213779 0 0 Z " fill="#FCBA06" transform="translate(140,136)"/>
<path d="M0 0 C0.99 0.33 1.98 0.66 3 1 C0.36 3.64 -2.28 6.28 -5 9 C-5 4.61031544 -2.87194899 3.23094261 0 0 Z " fill="#FEDC57" transform="translate(163,125)"/>
<path d="M0 0 C0.66 0.33 1.32 0.66 2 1 C1.67 3.31 1.34 5.62 1 8 C0.34 8 -0.32 8 -1 8 C-1.66 6.02 -2.32 4.04 -3 2 C-2.34 2 -1.68 2 -1 2 C-0.67 1.34 -0.34 0.68 0 0 Z " fill="#ED3006" transform="translate(205,120)"/>
<path d="M0 0 C0.99 0 1.98 0 3 0 C2.50168276 3.68754757 1.89932357 5.60490662 -1 8 C-2 6 -2 6 -1.0625 2.875 C-0.5365625 1.451875 -0.5365625 1.451875 0 0 Z " fill="#A80E03" transform="translate(77,102)"/>
<path d="M0 0 C1.98 0 3.96 0 6 0 C4.68 0.33 3.36 0.66 2 1 C2 1.99 2 2.98 2 4 C-2.455 4.495 -2.455 4.495 -7 5 C-5 3 -5 3 -2.9375 2.5 C-2.298125 2.335 -1.65875 2.17 -1 2 C-0.67 1.34 -0.34 0.68 0 0 Z " fill="#F6E73A" transform="translate(180,84)"/>
<path d="M0 0 C3.26008643 3.16952847 6.22237877 6.39937989 9 10 C8.01 10 7.02 10 6 10 C6 9.34 6 8.68 6 8 C5.01 7.67 4.02 7.34 3 7 C0 2.66666667 0 2.66666667 0 0 Z " fill="#FAC80F" transform="translate(77,128)"/>
<path d="M0 0 C3.11373372 1.49920512 6.12228205 3.08152136 9 5 C9 5.66 9 6.32 9 7 C4.75272765 6.52808085 2.76506398 4.07229331 0 1 C0 0.67 0 0.34 0 0 Z " fill="#FBDB25" transform="translate(190,113)"/>
<path d="M0 0 C0.33 0.99 0.66 1.98 1 3 C-2.21311475 8.73770492 -2.21311475 8.73770492 -6 10 C-6 9.34 -6 8.68 -6 8 C-5.34 8 -4.68 8 -4 8 C-3.71125 7.236875 -3.4225 6.47375 -3.125 5.6875 C-2 3 -2 3 0 0 Z " fill="#D02001" transform="translate(205,99)"/>
<path d="M0 0 C1.98 0 3.96 0 6 0 C5.67 1.65 5.34 3.3 5 5 C4.34 4.34 3.68 3.68 3 3 C2.67 3.33 2.34 3.66 2 4 C0.33382885 4.04063832 -1.33388095 4.042721 -3 4 C-1.68 3.67 -0.36 3.34 1 3 C0.67 2.01 0.34 1.02 0 0 Z " fill="#F7E933" transform="translate(48,87)"/>
<path d="M0 0 C1.1725131 0.95117134 2.33787015 1.91117009 3.5 2.875 C4.47453125 3.67550781 4.47453125 3.67550781 5.46875 4.4921875 C5.9740625 4.98976563 6.479375 5.48734375 7 6 C7 6.66 7 7.32 7 8 C7.66 8.33 8.32 8.66 9 9 C8.01 9.33 7.02 9.66 6 10 C0.77678571 4.10714286 0.77678571 4.10714286 0 0 Z " fill="#F65104" transform="translate(152,85)"/>
<path d="M0 0 C5.26159459 -0.64165788 7.68592849 0.79422999 11.6796875 3.90625 C12.11539063 4.2671875 12.55109375 4.628125 13 5 C12.67 5.66 12.34 6.32 12 7 C10.68 6.34 9.36 5.68 8 5 C8 4.34 8 3.68 8 3 C5.36 2.34 2.72 1.68 0 1 C0 0.67 0 0.34 0 0 Z " fill="#FE8217" transform="translate(142,80)"/>
<path d="M0 0 C3.79588866 0.54226981 5.47211993 2.20127563 8 5 C4.65626525 4.44271087 1.96687001 3.64826111 -1 2 C-0.67 1.34 -0.34 0.68 0 0 Z " fill="#CF1B05" transform="translate(111,146)"/>
<path d="M0 0 C0.33 0 0.66 0 1 0 C1.22127098 2.29045368 1.4266504 4.58244764 1.625 6.875 C1.74101563 8.15117187 1.85703125 9.42734375 1.9765625 10.7421875 C1.98429687 11.81726563 1.99203125 12.89234375 2 14 C1.34 14.66 0.68 15.32 0 16 C-0.9360342 12.20732808 -0.98276252 9.06325435 -0.5625 5.1875 C-0.40974609 3.72376953 -0.40974609 3.72376953 -0.25390625 2.23046875 C-0.12822266 1.12638672 -0.12822266 1.12638672 0 0 Z " fill="#FFC628" transform="translate(40,132)"/>
<path d="M0 0 C2.31 0.33 4.62 0.66 7 1 C7.33 2.32 7.66 3.64 8 5 C4.62496331 3.8141763 2.35277269 2.72426311 0 0 Z " fill="#C02601" transform="translate(168,124)"/>
<path d="M0 0 C0.99 0 1.98 0 3 0 C3 0.66 3 1.32 3 2 C2.34 2 1.68 2 1 2 C0.67 4.97 0.34 7.94 0 11 C-0.33 11 -0.66 11 -1 11 C-1.02688151 9.35425434 -1.04634123 7.70838587 -1.0625 6.0625 C-1.07410156 5.14597656 -1.08570313 4.22945313 -1.09765625 3.28515625 C-1 1 -1 1 0 0 Z " fill="#F7701B" transform="translate(35,87)"/>
<path d="M0 0 C4.75 -0.125 4.75 -0.125 7 1 C9.09821215 0.60061233 9.09821215 0.60061233 11 0 C11 0.66 11 1.32 11 2 C4.6 3.35384615 4.6 3.35384615 1.5625 1.5625 C1.046875 1.046875 0.53125 0.53125 0 0 Z " fill="#FA5D0D" transform="translate(54,84)"/>
<path d="M0 0 C6.625 -0.25 6.625 -0.25 10 2 C7.36 2.33 4.72 2.66 2 3 C2 2.34 2 1.68 2 1 C1.34 0.67 0.68 0.34 0 0 Z " fill="#D92505" transform="translate(171,154)"/>
<path d="M0 0 C0.33 0.66 0.66 1.32 1 2 C-2.21451269 3.60725635 -5.43612536 3.05748185 -9 3 C-5.92807025 0.26939578 -4.09590633 -0.34132553 0 0 Z " fill="#FDBC06" transform="translate(53,144)"/>
<path d="M0 0 C1.9375 0.8125 1.9375 0.8125 4 2 C4.33 2.99 4.66 3.98 5 5 C2.03 4.505 2.03 4.505 -1 4 C-0.67 2.68 -0.34 1.36 0 0 Z " fill="#D41D02" transform="translate(166,119)"/>
<path d="M0 0 C-0.66 1.98 -1.32 3.96 -2 6 C-2.99 5.67 -3.98 5.34 -5 5 C-4.625 3.0625 -4.625 3.0625 -4 1 C-2 0 -2 0 0 0 Z " fill="#D62902" transform="translate(199,109)"/>
<path d="M0 0 C0.66 0 1.32 0 2 0 C0.52307692 5.66153846 0.52307692 5.66153846 -2.125 7.375 C-3.053125 7.684375 -3.053125 7.684375 -4 8 C-2.66666667 5.33333333 -1.33333333 2.66666667 0 0 Z " fill="#E62E0F" transform="translate(205,102)"/>
<path d="M0 0 C2 3 2 3 1.625 5.6875 C1.41875 6.450625 1.2125 7.21375 1 8 C0.01 8 -0.98 8 -2 8 C-1.47731534 5.23723823 -0.89130413 2.6739124 0 0 Z " fill="#B61101" transform="translate(203,94)"/>
<path d="M0 0 C1 4 1 4 0 7 C-1.65 7.33 -3.3 7.66 -5 8 C-3.35 5.36 -1.7 2.72 0 0 Z " fill="#A22100" transform="translate(84,90)"/>
<path d="M0 0 C0.99 0.33 1.98 0.66 3 1 C4.6875 4.5625 4.6875 4.5625 6 8 C5.01 8.495 5.01 8.495 4 9 C3.67 7.35 3.34 5.7 3 4 C2.34 4 1.68 4 1 4 C0.67 2.68 0.34 1.36 0 0 Z " fill="#8C1800" transform="translate(57,128)"/>
<path d="M0 0 C1.98 0.495 1.98 0.495 4 1 C4 1.66 4 2.32 4 3 C2.35 3.66 0.7 4.32 -1 5 C-0.67 3.35 -0.34 1.7 0 0 Z " fill="#FDDE11" transform="translate(182,109)"/>
<path d="M0 0 C2 2 2 2 2.1953125 4.3828125 C2.17210937 5.28773437 2.14890625 6.19265625 2.125 7.125 C2.10695312 8.03507812 2.08890625 8.94515625 2.0703125 9.8828125 C2.03550781 10.93082031 2.03550781 10.93082031 2 12 C1.67 12 1.34 12 1 12 C0.63896464 10.18885568 0.28634496 8.37603177 -0.0625 6.5625 C-0.25972656 5.55316406 -0.45695313 4.54382813 -0.66015625 3.50390625 C-0.77230469 2.67761719 -0.88445312 1.85132812 -1 1 C-0.67 0.67 -0.34 0.34 0 0 Z " fill="#F8C83E" transform="translate(142,101)"/>
<path d="M0 0 C3.24208567 0.35049575 4.61527704 0.56221181 6.8125 3.0625 C7.204375 3.701875 7.59625 4.34125 8 5 C5 5 5 5 2.3125 2.5 C1.549375 1.675 0.78625 0.85 0 0 Z " fill="#D54603" transform="translate(146,84)"/>
<path d="M0 0 C0.66 0.33 1.32 0.66 2 1 C0.68 2.32 -0.64 3.64 -2 5 C-2.99 4.67 -3.98 4.34 -5 4 C-5 3.34 -5 2.68 -5 2 C-2.625 0.9375 -2.625 0.9375 0 0 Z " fill="#DD4903" transform="translate(113,81)"/>
<path d="M0 0 C2.31 0 4.62 0 7 0 C7.33 0.99 7.66 1.98 8 3 C5.6568787 2.74438677 3.32156597 2.40729228 1 2 C0.67 1.34 0.34 0.68 0 0 Z " fill="#E05F04" transform="translate(185,81)"/>
</svg>
