<?xml version="1.0" encoding="UTF-8"?>
<svg version="1.1" xmlns="http://www.w3.org/2000/svg" width="150" height="149">
<path d="M0 0 C2.90456365 1.71521661 2.90456365 1.71521661 5.93359375 0.328125 C8.51989599 0.24330727 11.07837431 0.21214271 13.6640625 0.23046875 C14.78969353 0.23259117 14.78969353 0.23259117 15.93806458 0.23475647 C18.33244835 0.2403494 20.72673828 0.25290056 23.12109375 0.265625 C24.74544136 0.27064092 26.36979043 0.27520366 27.99414062 0.27929688 C31.97399444 0.29031652 35.95377819 0.30757627 39.93359375 0.328125 C41.51284217 3.48662185 41.07675889 6.8646378 41.05859375 10.328125 C41.06246094 11.06546875 41.06632813 11.8028125 41.0703125 12.5625 C41.06025355 18.0748054 41.06025355 18.0748054 39.93359375 20.328125 C33.66359375 20.328125 27.39359375 20.328125 20.93359375 20.328125 C21.88234375 22.266875 22.83109375 24.205625 23.80859375 26.203125 C30.3075008 40.44247559 31.21445149 56.45131176 25.93359375 71.328125 C24.6400754 74.2825959 23.29179263 77.17889098 21.82421875 80.05078125 C20.61275488 82.43233392 20.61275488 82.43233392 21.93359375 85.328125 C23.62765065 87.00696178 23.62765065 87.00696178 25.68359375 88.640625 C29.23532018 91.68679037 32.34759873 94.40742287 34.93359375 98.328125 C34.93359375 101.578125 34.93359375 101.578125 33.93359375 104.328125 C30.60896288 106.54454558 29.78890909 107.03209128 25.93359375 106.328125 C23.42259922 104.57186715 21.29483245 102.48005362 19.12109375 100.328125 C18.52361328 99.75578125 17.92613281 99.1834375 17.31054688 98.59375 C15.84090474 97.18289355 14.38578958 95.75693261 12.93359375 94.328125 C8.82363742 97.05368107 8.82363742 97.05368107 4.765625 99.85546875 C-9.76006952 109.99816841 -24.71657796 113.13527295 -42.19921875 110.93359375 C-52.95588493 108.66209067 -63.58412983 103.25456941 -72.06640625 96.328125 C-73.55140625 95.833125 -73.55140625 95.833125 -75.06640625 95.328125 C-87.34775012 78.67368001 -93.26999846 60.82595618 -90.671875 40.1953125 C-87.27744995 24.12106741 -78.48909212 10.55322709 -65.09375 1.21875 C-43.9591857 -11.98012629 -21.55419264 -11.82236653 0 0 Z " fill="#1B2932" transform="translate(106.06640625,22.671875)"/>
<path d="M0 0 C6.88838836 5.3561803 11.08334431 12.72221666 12.25 21.35546875 C12.46585767 28.47877172 11.72325489 34.30356865 8.6171875 40.7421875 C7.60001066 42.55724132 7.60001066 42.55724132 7.7421875 44.59765625 C9.18901802 46.10039511 9.18901802 46.10039511 11.1171875 47.66015625 C12.20386719 48.58634766 12.20386719 48.58634766 13.3125 49.53125 C14.11429687 50.21316406 14.91609375 50.89507812 15.7421875 51.59765625 C17.49898297 53.13157469 19.24892409 54.67337616 20.9921875 56.22265625 C21.80171875 56.93679687 22.61125 57.6509375 23.4453125 58.38671875 C25.81261583 60.66544951 27.85614591 62.9051693 29.7421875 65.59765625 C29.6796875 68.78515625 29.6796875 68.78515625 28.7421875 71.59765625 C25.42562738 73.80869633 24.58871494 74.27645521 20.7421875 73.59765625 C18.3099175 71.95196022 16.27121679 69.96317637 14.1796875 67.91015625 C13.61572266 67.37970703 13.05175781 66.84925781 12.47070312 66.30273438 C9.27274708 63.25439031 6.45848023 60.09089302 3.7421875 56.59765625 C1.2421875 53.84765625 1.2421875 53.84765625 -2.2578125 52.59765625 C-4.7755508 53.35160692 -7.03388423 54.44657368 -9.41796875 55.55078125 C-17.23679652 58.43310015 -25.43725092 57.1322588 -32.94140625 53.9609375 C-35.2578125 52.59765625 -35.2578125 52.59765625 -37.92578125 50.00390625 C-41.88782026 46.5971697 -46.10533761 46.81922799 -51.1328125 46.78515625 C-52.01195312 46.76001953 -52.89109375 46.73488281 -53.796875 46.70898438 C-55.9500457 46.6504743 -58.10397471 46.62111389 -60.2578125 46.59765625 C-60.8203125 44.66015625 -60.8203125 44.66015625 -61.2578125 42.59765625 C-60.2578125 41.59765625 -60.2578125 41.59765625 -57.09765625 41.5 C-55.80988281 41.51160156 -54.52210937 41.52320313 -53.1953125 41.53515625 C-51.90496094 41.54417969 -50.61460938 41.55320313 -49.28515625 41.5625 C-48.28613281 41.57410156 -47.28710938 41.58570313 -46.2578125 41.59765625 C-47.2478125 38.62765625 -48.2378125 35.65765625 -49.2578125 32.59765625 C-52.8878125 32.59765625 -56.5178125 32.59765625 -60.2578125 32.59765625 C-60.5878125 31.27765625 -60.9178125 29.95765625 -61.2578125 28.59765625 C-60.2578125 27.59765625 -60.2578125 27.59765625 -57.97265625 27.5 C-56.59787109 27.51740234 -56.59787109 27.51740234 -55.1953125 27.53515625 C-54.27621094 27.54417969 -53.35710938 27.55320313 -52.41015625 27.5625 C-51.69988281 27.57410156 -50.98960938 27.58570313 -50.2578125 27.59765625 C-49.7628125 23.14265625 -49.7628125 23.14265625 -49.2578125 18.59765625 C-52.8878125 18.59765625 -56.5178125 18.59765625 -60.2578125 18.59765625 C-60.5878125 17.27765625 -60.9178125 15.95765625 -61.2578125 14.59765625 C-60.2578125 13.59765625 -60.2578125 13.59765625 -57.31640625 13.5 C-56.12144531 13.51160156 -54.92648438 13.52320312 -53.6953125 13.53515625 C-51.89900391 13.54869141 -51.89900391 13.54869141 -50.06640625 13.5625 C-49.13957031 13.57410156 -48.21273437 13.58570312 -47.2578125 13.59765625 C-46.9690625 12.83453125 -46.6803125 12.07140625 -46.3828125 11.28515625 C-45.2578125 8.59765625 -45.2578125 8.59765625 -43.2578125 5.59765625 C-48.8678125 5.26765625 -54.4778125 4.93765625 -60.2578125 4.59765625 C-60.5878125 3.27765625 -60.9178125 1.95765625 -61.2578125 0.59765625 C-59.54096383 -1.11919242 -57.24577365 -0.57228392 -54.90234375 -0.61328125 C-53.25588867 -0.65582031 -53.25588867 -0.65582031 -51.57617188 -0.69921875 C-49.25861613 -0.75086345 -46.94088634 -0.79526099 -44.62304688 -0.83203125 C-38.69306428 -0.99819539 -34.44225016 -1.25781702 -29.2578125 -4.40234375 C-18.98418438 -7.08856762 -9.00774094 -5.59477335 0 0 Z " fill="#676E72" transform="translate(111.2578125,55.40234375)"/>
<path d="M0 0 C1.04788696 -0.01260864 2.09577393 -0.02521729 3.17541504 -0.03820801 C4.86459045 -0.02606262 4.86459045 -0.02606262 6.58789062 -0.01367188 C8.32975647 -0.01941223 8.32975647 -0.01941223 10.10681152 -0.02526855 C12.56128812 -0.0279898 15.01579361 -0.02061392 17.47021484 -0.00390625 C21.23014904 0.01749847 24.98817222 -0.00370276 28.74804688 -0.02929688 C31.13216568 -0.02665364 33.5162833 -0.02152875 35.90039062 -0.01367188 C37.02650757 -0.0217688 38.15262451 -0.02986572 39.31286621 -0.03820801 C40.36075317 -0.02559937 41.40864014 -0.01299072 42.48828125 0 C43.86916931 0.00477356 43.86916931 0.00477356 45.2779541 0.00964355 C48.53962499 0.68141569 49.73713933 1.90123893 51.74414062 4.51757812 C52.03475302 7.41207762 52.12600108 9.89707748 51.99414062 12.76757812 C51.97609375 13.51265625 51.95804688 14.25773437 51.93945312 15.02539062 C51.89249711 16.85667514 51.82075714 18.68729461 51.74414062 20.51757812 C50.65101562 20.35257813 49.55789062 20.18757813 48.43164062 20.01757812 C38.79867509 18.86026071 30.53884535 19.12022576 21.74414062 23.51757812 C19.85941204 23.67102021 17.96986189 23.76717384 16.08007812 23.83398438 C14.95859375 23.87587891 13.83710937 23.91777344 12.68164062 23.9609375 C11.50601563 24.00025391 10.33039063 24.03957031 9.11914062 24.08007812 C7.93578125 24.12326172 6.75242187 24.16644531 5.53320312 24.2109375 C2.60363735 24.31725239 -0.32601526 24.41928454 -3.25585938 24.51757812 C-3.25585938 25.50757812 -3.25585938 26.49757813 -3.25585938 27.51757812 C2.68414062 27.84757812 8.62414063 28.17757812 14.74414062 28.51757812 C12.36590228 34.77146414 12.36590228 34.77146414 9.74414062 37.51757812 C5.38745493 38.62521008 1.22123167 38.68145408 -3.25585938 38.51757812 C-3.25585938 39.50757813 -3.25585938 40.49757812 -3.25585938 41.51757812 C0.37414063 41.84757812 4.00414063 42.17757812 7.74414062 42.51757812 C7.41414063 45.48757812 7.08414063 48.45757812 6.74414062 51.51757812 C1.79414062 52.01257813 1.79414062 52.01257813 -3.25585938 52.51757812 C-3.25585938 53.50757813 -3.25585938 54.49757812 -3.25585938 55.51757812 C-2.49660156 55.52015625 -1.73734375 55.52273437 -0.95507812 55.52539062 C2.05038702 55.64233479 4.81083502 55.84265825 7.74414062 56.51757812 C10.2132481 59.7626908 10.74414062 61.47565184 10.74414062 65.51757812 C6.12414062 65.84757812 1.50414062 66.17757812 -3.25585938 66.51757812 C-3.25585938 67.50757812 -3.25585938 68.49757813 -3.25585938 69.51757812 C-1.32033203 69.52144531 -1.32033203 69.52144531 0.65429688 69.52539062 C2.37177873 69.56293121 4.08922598 69.60207903 5.80664062 69.64257812 C7.07797852 69.63871094 7.07797852 69.63871094 8.375 69.63476562 C14.23856709 69.81587967 17.31577984 71.06337493 21.56225586 75.13818359 C22.74414062 76.51757812 22.74414062 76.51757812 22.74414062 77.51757812 C18.51510443 77.60483472 14.28630051 77.65805703 10.05664062 77.70507812 C8.85845703 77.73021484 7.66027344 77.75535156 6.42578125 77.78125 C5.26884766 77.79091797 4.11191406 77.80058594 2.91992188 77.81054688 C1.85684814 77.82625732 0.79377441 77.84196777 -0.30151367 77.8581543 C-3.68063268 77.46861037 -5.53576901 76.52553266 -8.25585938 74.51757812 C-9.6725027 71.68429148 -9.40668525 69.28007299 -9.43286133 66.11181641 C-9.43943253 65.45470673 -9.44600372 64.79759705 -9.45277405 64.12057495 C-9.4725072 61.94301238 -9.4841689 59.76551874 -9.49414062 57.58789062 C-9.49821615 56.84450314 -9.50229168 56.10111565 -9.50649071 55.33520126 C-9.52735045 51.40136747 -9.54165315 47.46756855 -9.55102539 43.53369141 C-9.56209631 39.4691398 -9.59650361 35.4051347 -9.63619709 31.34077644 C-9.66233082 28.21636939 -9.67071424 25.09209327 -9.67430687 21.96758652 C-9.67918045 20.46925028 -9.69081647 18.97092018 -9.70934486 17.47269058 C-9.73367175 15.37539473 -9.73278441 13.2795224 -9.72583008 11.18212891 C-9.73169632 9.98903107 -9.73756256 8.79593323 -9.74360657 7.56668091 C-9.25585938 4.51757812 -9.25585938 4.51757812 -7.55497742 2.13339233 C-4.79645972 0.19471324 -3.34901167 0.01157712 0 0 Z " fill="#010F18" transform="translate(54.255859375,31.482421875)"/>
<path d="M0 0 C5.875 1.875 5.875 1.875 7 3 C7.11862678 4.36469016 7.17000696 5.73533498 7.19287109 7.10498047 C7.20893402 7.97613495 7.22499695 8.84728943 7.24154663 9.74484253 C7.28582658 13.73304627 7.32705777 17.72108084 7.35009766 21.70947266 C7.36667193 23.81635574 7.39398117 25.92318226 7.43212891 28.02978516 C7.48674322 31.05921752 7.50874732 34.08732995 7.5234375 37.1171875 C7.54610687 38.06101288 7.56877625 39.00483826 7.59213257 39.9772644 C7.58419596 42.42075706 7.54032215 44.61690993 7 47 C2.23045847 51.11389288 -3.2583568 51.2805265 -9.3203125 51.2265625 C-13.42698467 50.87935115 -17.30195726 49.83638569 -21 48 C-21.33 47.34 -21.66 46.68 -22 46 C-15.07 46 -8.14 46 -1 46 C-1.495 43.525 -1.495 43.525 -2 41 C-2.80219971 40.99589111 -3.60439941 40.99178223 -4.4309082 40.98754883 C-8.05885992 40.95469409 -11.68511406 40.88405693 -15.3125 40.8125 C-16.57513672 40.80669922 -17.83777344 40.80089844 -19.13867188 40.79492188 C-20.34716797 40.76591797 -21.55566406 40.73691406 -22.80078125 40.70703125 C-23.91622314 40.6913208 -25.03166504 40.67561035 -26.1809082 40.65942383 C-29 40 -29 40 -30.88745117 37.64331055 C-32 35 -32 35 -32 32 C-28.04 32 -24.08 32 -20 32 C-19.67 33.32 -19.34 34.64 -19 36 C-16.79847753 36.50753344 -16.79847753 36.50753344 -14 36 C-11.46427718 34.20822891 -9.22825512 32.15761879 -7 30 C-6.62488281 30.44472656 -6.24976562 30.88945313 -5.86328125 31.34765625 C-4.31321937 33.06170453 -2.84043317 34.59920192 -1 36 C1.81416116 36.04097782 1.81416116 36.04097782 4 35 C3.52797514 30.75177626 1.03344482 28.80010291 -2 26 C-0.90101148 23.43569346 0.06785768 21.93613395 2.125 20 C4.45596075 17.97055253 4.45596075 17.97055253 4 14 C1.79847753 13.49246656 1.79847753 13.49246656 -1 14 C-3.53572282 15.79177109 -5.77174488 17.84238121 -8 20 C-8.66 19.030625 -9.32 18.06125 -10 17.0625 C-14.45090925 12.44875261 -20.71156594 13.13140291 -26.7109375 13.0078125 C-27.79632813 13.00523438 -28.88171875 13.00265625 -30 13 C-28.81440955 9.62562717 -27.85329117 7.21315254 -25 5 C-22.5480957 4.56762695 -22.5480957 4.56762695 -19.67578125 4.48828125 C-18.64775391 4.45283203 -17.61972656 4.41738281 -16.56054688 4.38085938 C-15.48869141 4.35830078 -14.41683594 4.33574219 -13.3125 4.3125 C-12.22904297 4.27833984 -11.14558594 4.24417969 -10.02929688 4.20898438 C-7.3529678 4.1264544 -4.67696841 4.05732063 -2 4 C-1.34 2.68 -0.68 1.36 0 0 Z " fill="#4E585F" transform="translate(100,56)"/>
<path d="M0 0 C1.43352212 0.00015908 2.86704998 0.00585132 4.30053711 0.01586914 C5.43041298 0.01799156 5.43041298 0.01799156 6.58311462 0.02015686 C8.99807646 0.02577163 11.41294687 0.03832656 13.82788086 0.05102539 C15.46134307 0.05603849 17.09480672 0.06060173 18.72827148 0.06469727 C22.74067671 0.07574585 26.75301326 0.09302033 30.76538086 0.11352539 C32.34462928 3.27202224 31.908546 6.65003819 31.89038086 10.11352539 C31.89618164 11.21954102 31.89618164 11.21954102 31.90209961 12.34790039 C31.89204066 17.86020579 31.89204066 17.86020579 30.76538086 20.11352539 C25.94157284 20.13817729 21.11780119 20.15636232 16.29394531 20.16845703 C14.65168621 20.17349713 13.00943163 20.18032917 11.3671875 20.18896484 C9.01162607 20.20104465 6.65612377 20.20675678 4.30053711 20.21118164 C3.5619899 20.21634293 2.82344269 20.22150421 2.06251526 20.2268219 C0.29639998 20.22701789 -1.4695906 20.17547258 -3.23461914 20.11352539 C-4.75671504 18.59142949 -4.36421435 17.23142457 -4.36743164 15.11352539 C-4.3687207 14.30915039 -4.37000977 13.50477539 -4.37133789 12.67602539 C-4.3674707 11.83040039 -4.36360352 10.98477539 -4.35961914 10.11352539 C-4.36348633 9.26790039 -4.36735352 8.42227539 -4.37133789 7.55102539 C-4.37004883 6.74665039 -4.36875977 5.94227539 -4.36743164 5.11352539 C-4.36630371 4.37102539 -4.36517578 3.62852539 -4.36401367 2.86352539 C-4.12802751 -0.32807618 -3.26263605 0.1145087 0 0 Z " fill="#010F18" transform="translate(115.234619140625,22.886474609375)"/>
<path d="M0 0 C2.0625 -0.375 2.0625 -0.375 5 0 C7.53572282 1.79177109 9.77174488 3.84238121 12 6 C12.37511719 5.566875 12.75023438 5.13375 13.13671875 4.6875 C17.36878216 0.08233276 17.36878216 0.08233276 20.875 -0.375 C21.926875 -0.189375 21.926875 -0.189375 23 0 C23.875 2.125 23.875 2.125 24 5 C22.2531134 7.29514024 20.19996058 9.14438107 18 11 C19.11591737 13.60380719 20.06671367 15.06099536 22.1875 17 C23.0846875 17.99 23.0846875 17.99 24 19 C23.75 21.25 23.75 21.25 23 23 C20.9375 23.875 20.9375 23.875 18 24 C15.40994275 22.26080867 13.20875121 20.19602066 11 18 C10.62488281 18.433125 10.24976562 18.86625 9.86328125 19.3125 C5.63121784 23.91766724 5.63121784 23.91766724 2.125 24.375 C1.42375 24.25125 0.7225 24.1275 0 24 C-0.68359375 22.234375 -0.68359375 22.234375 -1 20 C0.21484375 18.078125 0.21484375 18.078125 1.9375 16.25 C2.50339844 15.63640625 3.06929688 15.0228125 3.65234375 14.390625 C4.09707031 13.93171875 4.54179688 13.4728125 5 13 C3.80594521 10.40117486 2.995269 8.99580968 0.8125 7.0625 C0.214375 6.381875 -0.38375 5.70125 -1 5 C-0.75 2.25 -0.75 2.25 0 0 Z " fill="#F7F8F8" transform="translate(81,69)"/>
<path d="M0 0 C5.33335988 2.66667994 8.58523266 6.48310194 10.828125 12.05859375 C12.9319087 19.76745832 12.51124223 26.8555974 9 34 C6.90649148 36.91734289 4.69392449 39.61766196 2 42 C1.34 42 0.68 42 0 42 C0 28.14 0 14.28 0 0 Z " fill="#606A70" transform="translate(107,60)"/>
<path d="M0 0 C1.98 0.66 3.96 1.32 6 2 C6 7.28 6 12.56 6 18 C5.34 16.68 4.68 15.36 4 14 C1.79847753 13.49246656 1.79847753 13.49246656 -1 14 C-3.53572282 15.79177109 -5.77174488 17.84238121 -8 20 C-8.66 19.030625 -9.32 18.06125 -10 17.0625 C-14.45090925 12.44875261 -20.71156594 13.13140291 -26.7109375 13.0078125 C-27.79632813 13.00523438 -28.88171875 13.00265625 -30 13 C-28.81440955 9.62562717 -27.85329117 7.21315254 -25 5 C-22.5480957 4.56762695 -22.5480957 4.56762695 -19.67578125 4.48828125 C-18.64775391 4.45283203 -17.61972656 4.41738281 -16.56054688 4.38085938 C-15.48869141 4.35830078 -14.41683594 4.33574219 -13.3125 4.3125 C-12.22904297 4.27833984 -11.14558594 4.24417969 -10.02929688 4.20898438 C-7.3529678 4.1264544 -4.67696841 4.05732063 -2 4 C-1.34 2.68 -0.68 1.36 0 0 Z " fill="#4D575E" transform="translate(100,56)"/>
<path d="M0 0 C12.43946188 -0.92017937 12.43946188 -0.92017937 16.265625 1.3359375 C17.875 3 17.875 3 20 6 C19.67 6.99 19.34 7.98 19 9 C12.73 9 6.46 9 0 9 C0 6.03 0 3.06 0 0 Z " fill="#4C565D" transform="translate(67,74)"/>
<path d="M0 0 C8.91 0 17.82 0 27 0 C27 1.32 27 2.64 27 4 C18.75 4 10.5 4 2 4 C1.34 2.68 0.68 1.36 0 0 Z " fill="#94999C" transform="translate(72,97)"/>
<path d="M0 0 C7.59 0 15.18 0 23 0 C23.33 1.32 23.66 2.64 24 4 C16.08 4 8.16 4 0 4 C0 2.68 0 1.36 0 0 Z " fill="#666D71" transform="translate(51,42)"/>
<path d="M0 0 C1.1859375 0.00257812 2.371875 0.00515625 3.59375 0.0078125 C4.7796875 0.00523438 5.965625 0.00265625 7.1875 0 C10.09375 0.1328125 10.09375 0.1328125 11.09375 1.1328125 C11.09375 2.7828125 11.09375 4.4328125 11.09375 6.1328125 C6.47375 6.1328125 1.85375 6.1328125 -2.90625 6.1328125 C-3.23625 4.4828125 -3.56625 2.8328125 -3.90625 1.1328125 C-2.90625 0.1328125 -2.90625 0.1328125 0 0 Z " fill="#62696D" transform="translate(129.90625,29.8671875)"/>
<path d="M0 0 C6.27 0 12.54 0 19 0 C17.02 2.97 17.02 2.97 15 6 C10.05 5.67 5.1 5.34 0 5 C0 3.35 0 1.7 0 0 Z " fill="#93989B" transform="translate(66,83)"/>
<path d="M0 0 C1.0528418 0.07831055 1.0528418 0.07831055 2.12695312 0.15820312 C3.85588054 0.28757865 5.58425355 0.42432531 7.3125 0.5625 C7.3125 1.8825 7.3125 3.2025 7.3125 4.5625 C-0.2775 4.5625 -7.8675 4.5625 -15.6875 4.5625 C-9.69602757 -0.23067794 -7.2136255 -0.58598078 0 0 Z " fill="#93989B" transform="translate(91.6875,55.4375)"/>
<path d="M0 0 C2.0625 1.625 2.0625 1.625 4 4 C3.9375 7.125 3.9375 7.125 3 10 C-0.22791555 12.1519437 -1.28400809 12.20086443 -5 12 C-5.66 10.68 -6.32 9.36 -7 8 C-4.69 5.36 -2.38 2.72 0 0 Z " fill="#DDD8E7" transform="translate(137,117)"/>
<path d="M0 0 C0.33 0.66 0.66 1.32 1 2 C4.63 2 8.26 2 12 2 C11.67 3.65 11.34 5.3 11 7 C6.71 7 2.42 7 -2 7 C-1 1 -1 1 0 0 Z " fill="#92979A" transform="translate(69,67)"/>
<path d="M0 0 C0.66 0 1.32 0 2 0 C2.33 1.65 2.66 3.3 3 5 C4.32 5 5.64 5 7 5 C7 7 7 7 4.5 9.625 C3.675 10.40875 2.85 11.1925 2 12 C-1.41158256 10.86280581 -2.11854601 9.95657056 -4 7 C-4 6.34 -4 5.68 -4 5 C-3.01 4.34 -2.02 3.68 -1 3 C-0.67 2.01 -0.34 1.02 0 0 Z " fill="#4F585E" transform="translate(32,107)"/>
<path d="M0 0 C4.29 0 8.58 0 13 0 C11.02 2.31 9.04 4.62 7 7 C1.53125 2.41015625 1.53125 2.41015625 0 1 C0 0.67 0 0.34 0 0 Z " fill="#8E9497" transform="translate(86,69)"/>
<path d="M0 0 C1.67542976 0.28604898 3.34385343 0.61781233 5 1 C5 2.65 5 4.3 5 6 C1.25 7.125 1.25 7.125 -1 6 C-1.042721 4.33388095 -1.04063832 2.66617115 -1 1 C-0.67 0.67 -0.34 0.34 0 0 Z " fill="#686F72" transform="translate(140,88)"/>
<path d="M0 0 C2.0625 0.4375 2.0625 0.4375 4 1 C4.33 2.32 4.66 3.64 5 5 C3.35 5.33 1.7 5.66 0 6 C-0.38218767 4.34385343 -0.71395102 2.67542976 -1 1 C-0.67 0.67 -0.34 0.34 0 0 Z " fill="#5B6267" transform="translate(117,30)"/>
<path d="M0 0 C1 2 2 4 3 6 C2.67 6.66 2.34 7.32 2 8 C-1.41158256 6.86280581 -2.11854601 5.95657056 -4 3 C-4 2.34 -4 1.68 -4 1 C-2 0 -2 0 0 0 Z " fill="#636B6F" transform="translate(32,111)"/>
</svg>
