<?xml version="1.0" encoding="UTF-8"?>
<svg version="1.1" xmlns="http://www.w3.org/2000/svg" width="240" height="240">
<path d="M0 0 C79.2 0 158.4 0 240 0 C240 79.2 240 158.4 240 240 C160.8 240 81.6 240 0 240 C0 160.8 0 81.6 0 0 Z " fill="#FEDB34" transform="translate(0,0)"/>
<path d="M0 0 C-0.57216172 13.55431376 -2.40655859 26.50062944 -6.125 39.5625 C-8.31429901 47.42891246 -8.52540088 55.26645067 -8.58447266 63.40063477 C-8.74417144 73.95040685 -11.09444331 82.82675657 -18 91 C-23.00671253 95.37785009 -27.95028437 96.37342838 -34.4296875 96.26953125 C-38.36377172 95.8569905 -41.13206301 94.74622083 -44 92 C-46.42221122 88.42777751 -48 85.34961476 -48 81 C-48.5775 80.773125 -49.155 80.54625 -49.75 80.3125 C-58.79694112 75.03511768 -62.38486601 60.51316665 -65 51 C-66.37570167 45.17116635 -67.60341399 39.31125946 -68.828125 33.44921875 C-69.6883869 29.35879871 -70.68495533 25.33868543 -71.8125 21.3125 C-73.32569559 15.54025391 -73.28393751 9.93113905 -73 4 C-70.125 4.5625 -70.125 4.5625 -67 6 C-65.875 9.4375 -65.875 9.4375 -65 13 C-60.33123223 17.66876777 -54.63509493 17.14674749 -48.41772461 17.19018555 C-27.16531345 18.09967985 -27.16531345 18.09967985 -8.625 9.6875 C-6.91551946 6.86028218 -5.99809542 4.13687131 -5 1 C-3 0 -3 0 0 0 Z " fill="#4F2325" transform="translate(156,127)"/>
<path d="M0 0 C10.84629296 8.31646056 12.51227111 22.22749147 14.1875 34.8125 C16.38350362 53.28089044 16.38350362 53.28089044 12 60.6875 C7.3824069 65.72487429 0.85132929 67.2321434 -5.7421875 68.01171875 C-12.89569892 68.30555987 -20.08242937 66.97754216 -25.70703125 62.25390625 C-30.34581785 56.63410738 -29.67616811 46.83004421 -29.24267578 40.02001953 C-27.94388747 27.53649489 -25.28546977 10.2216557 -15.5 1.4453125 C-10.55020434 -2.03501258 -5.54633366 -2.42652098 0 0 Z " fill="#EADDD1" transform="translate(154,43.3125)"/>
<path d="M0 0 C5.49764541 1.90734637 8.92426087 5.17025829 12 10 C14.00138739 14.23457388 15.55067828 18.54924605 17 23 C17.32226562 23.97195312 17.64453125 24.94390625 17.9765625 25.9453125 C21.02646918 36.40620737 22.04531302 48.0962374 17 58 C11.90139229 62.15442109 2.26423388 61.18213381 -4.0625 61.1875 C-4.82626953 61.19974609 -5.59003906 61.21199219 -6.37695312 61.22460938 C-17.69807896 61.25366273 -17.69807896 61.25366273 -21.86328125 57.17578125 C-27.07653062 47.19715616 -26.33167521 32.58821451 -23.3125 22.125 C-19.31391966 10.73044414 -13.63066076 -0.90871072 0 0 Z " fill="#E9DCCE" transform="translate(99,50)"/>
<path d="M0 0 C4.09885218 -0.47661072 5.55930365 -0.3448928 8.875 2.25 C11 5 11 5 11 9 C9.68 9.33 8.36 9.66 7 10 C6.505 7.525 6.505 7.525 6 5 C2.37 5.99 -1.26 6.98 -5 8 C-4.938125 9.711875 -4.87625 11.42375 -4.8125 13.1875 C-4.87814231 28.36728338 -7.7823822 42.72708697 -12.57446289 57.09716797 C-14.45671081 62.79536154 -15.54759537 68.00869549 -16 74 C-16.33 74 -16.66 74 -17 74 C-17.60180484 64.30425536 -16.82634844 56.29983792 -14.07080078 47.02685547 C-10.64943488 34.99533373 -9.5102273 22.38540098 -8 10 C-9.65 10.33 -11.3 10.66 -13 11 C-13.0928125 12.299375 -13.0928125 12.299375 -13.1875 13.625 C-14.18734575 17.77820542 -15.67024776 20.39059151 -19 23 C-29.58951617 28.37149371 -41.07195967 28.19438999 -52.6875 28.25 C-53.77611328 28.270625 -54.86472656 28.29125 -55.98632812 28.3125 C-62.92103099 28.346225 -68.70459268 28.18910386 -73.9375 23.125 C-75.20740557 20.58518887 -75.23366867 18.80402402 -75 16 C-77.475 15.505 -77.475 15.505 -80 15 C-80.68837185 24.74534094 -78.61256041 33.72771892 -76.375 43.125 C-76.19359467 43.90180115 -76.01218933 44.67860229 -75.82528687 45.47894287 C-70.68928758 70.8584622 -70.68928758 70.8584622 -56 91 C-54.6875 94.25 -54.6875 94.25 -54 97 C-61.68805008 94.27326944 -66.19784986 89.08788806 -69.80224609 81.83837891 C-79.82080163 60.32583798 -84.83780144 36.7377074 -84 13 C-88.455 12.01 -88.455 12.01 -93 11 C-93.66 12.98 -94.32 14.96 -95 17 C-96.32 16.34 -97.64 15.68 -99 15 C-98.75112707 11.34986366 -98.34633115 9.42209109 -96 6.5625 C-91.79094241 4.37028251 -88.53807758 5.09040711 -84 6 C-84 7.32 -84 8.64 -84 10 C-58.86110326 16.21078625 -33.64282567 13.03113581 -9.0390625 6.0859375 C-5.71696824 5.15699592 -2.41907334 4.48843905 1 4 C0.505 2.02 0.505 2.02 0 0 Z " fill="#DD9E2A" transform="translate(164,117)"/>
<path d="M0 0 C4.5362887 0.37182694 6.35696755 1.39449482 9.8125 4.3125 C15.65121929 11.57144831 15.2533388 19.37138495 14.8125 28.3125 C13.71819487 37.828799 11.13104298 46.09718714 3.49609375 52.21875 C-0.6949866 54.94149362 -5.37416104 54.89721899 -10.1875 54.3125 C-14.58610972 52.01757319 -15.85371096 49.24447179 -17.50048828 44.67089844 C-18.9942819 39.54295019 -19.40028388 34.20507339 -20.00390625 28.9140625 C-21.01588297 20.86477644 -23.08905037 15.91648074 -29.1875 10.3125 C-28.28265208 9.15731082 -27.3630794 8.01364594 -26.4375 6.875 C-25.92703125 6.23691406 -25.4165625 5.59882813 -24.890625 4.94140625 C-22.0919387 2.26468105 -19.59509287 2.33514405 -15.8125 2.125 C-12.00353562 2.3220154 -9.59931525 2.60203113 -6.1875 4.3125 C-5.05267655 7.01301569 -4.37843916 9.1233805 -3.8125 11.9375 C-3.64878906 12.64390625 -3.48507813 13.3503125 -3.31640625 14.078125 C-2.9167695 15.81772026 -2.548992 17.56457988 -2.1875 19.3125 C-2.00446376 13.54685832 -2.36595 8.64068823 -3.84765625 3.0625 C-3.95980469 2.485 -4.07195312 1.9075 -4.1875 1.3125 C-3.1875 0.3125 -3.1875 0.3125 0 0 Z " fill="#E8663A" transform="translate(130.1875,165.6875)"/>
<path d="M0 0 C5.13710953 1.81309748 7.9691423 4.49701141 11 9 C11.6875 12.8125 11.6875 12.8125 12 16 C12.66 16.33 13.32 16.66 14 17 C13.91802737 20.79247962 13.80529057 24.58347719 13.6875 28.375 C13.66494141 29.43589844 13.64238281 30.49679688 13.61914062 31.58984375 C13.25344578 42.4277092 11.11731471 51.5761251 4 60 C-1.00671253 64.37785009 -5.95028437 65.37342838 -12.4296875 65.26953125 C-16.36377172 64.8569905 -19.13206301 63.74622083 -22 61 C-24.42221122 57.42777751 -26 54.34961476 -26 50 C-26.5775 49.773125 -27.155 49.54625 -27.75 49.3125 C-36.90346794 43.97297704 -40.19880098 29.52665842 -43 20 C-43.7501695 17.0077985 -44.39476762 14.02616189 -45 11 C-44.34 11 -43.68 11 -43 11 C-42.773125 10.4225 -42.54625 9.845 -42.3125 9.25 C-40.12579179 5.50135736 -37.20369814 3.5598596 -33.3125 1.75 C-27.40939516 0.41344796 -21.9776986 0.38399552 -16.1875 2.1875 C-13.02552605 3.38457045 -13.02552605 3.38457045 -10.5625 1.625 C-7.07734128 -0.58510065 -3.96932395 -0.56258135 0 0 Z M-7 8 C-8.13670623 11.41011869 -7.53453078 12.64554783 -6.48046875 15.94921875 C-5.62599164 19.59637714 -5.84807618 23.27786644 -6 27 C-6.21914062 25.94039062 -6.43828125 24.88078125 -6.6640625 23.7890625 C-6.98300464 22.40072614 -7.30339302 21.01272147 -7.625 19.625 C-7.76550781 18.92632812 -7.90601562 18.22765625 -8.05078125 17.5078125 C-8.55107153 15.18645732 -8.55107153 15.18645732 -10 12 C-15.05334104 9.47670287 -20.15530074 9.32269065 -25.625 10.625 C-28.93895224 12.54360393 -30.68557349 14.95818231 -33 18 C-32.236875 18.70125 -31.47375 19.4025 -30.6875 20.125 C-24.04776674 27.22797047 -23.81989577 35.62423909 -22.62695312 44.87890625 C-21.76584656 50.92466699 -21.08331295 55.35106685 -17 60 C-12.93041839 62.71305441 -9.77190659 62.50834744 -5 62 C0.46035219 60.1798826 3.90492074 56.74334632 7 52 C11.91540179 41.21659918 13.0523747 27.19227297 9 16 C6.74922596 12.43693722 4.14493019 9.21909711 0 8 C-2.33203812 7.9222654 -4.66839059 7.91032272 -7 8 Z " fill="#CA5127" transform="translate(134,158)"/>
<path d="M0 0 C6.69465865 3.69771792 9.6235293 9.99519684 12 17 C13.88438257 23.57875256 14.33694782 29.86655958 14.3125 36.6875 C14.32861328 37.59822266 14.34472656 38.50894531 14.36132812 39.44726562 C14.36585311 45.67817404 13.66803764 50.08606027 9.3046875 54.8515625 C5.96639531 56.51505047 2.76966174 56.43518707 -0.875 56.375 C-1.56980469 56.38660156 -2.26460937 56.39820313 -2.98046875 56.41015625 C-7.72104855 56.38337331 -10.93924747 55.4059004 -15 53 C-14.443125 52.7525 -13.88625 52.505 -13.3125 52.25 C-9.5140342 50.19677524 -6.69040988 48.3479431 -4.6875 44.4375 C-3.01563077 36.07815386 -3.74279966 28.85217939 -7 21 C-10.25639659 20.05728998 -10.25639659 20.05728998 -14 20 C-16.87551522 22.20864421 -16.87551522 22.20864421 -19 25 C-19.66 25.66 -20.32 26.32 -21 27 C-21.12184778 18.00067105 -18.70556447 11.95330222 -13 5 C-9.19769982 1.21412444 -5.47590831 -1.25489566 0 0 Z " fill="#FEFEFD" transform="translate(148,50)"/>
<path d="M0 0 C5.89396659 2.71122463 8.48654451 7.23907104 11 13 C11 13.66 11 14.32 11 15 C10.09507813 14.89558594 10.09507813 14.89558594 9.171875 14.7890625 C6.66779608 14.61943135 4.47741345 14.57713115 2 15 C-2.92381606 20.53929307 -3.33139607 25.79018592 -3.296875 32.91015625 C-2.8653202 37.40173314 -1.33977114 40.17128358 1 44 C1.33 44.66 1.66 45.32 2 46 C-3.17320817 47.6951374 -7.69428485 48.33816501 -13.125 48.3125 C-13.81464844 48.32861328 -14.50429687 48.34472656 -15.21484375 48.36132812 C-19.63255103 48.36555155 -22.5584748 47.83419722 -26 45 C-26.67773605 42.13265515 -26.90607724 39.90221322 -27 37 C-27.10828125 36.12085938 -27.2165625 35.24171875 -27.328125 34.3359375 C-28.17637206 23.84594888 -23.30946266 15.27831668 -16.828125 7.33984375 C-11.62621122 1.95214734 -7.75426632 -0.80216548 0 0 Z " fill="#FEFEFD" transform="translate(101,57)"/>
<path d="M0 0 C9.09578921 7.88301731 14.92467343 17.20736658 15.98480225 29.42288208 C16.20391472 33.9301991 16.19706544 38.434852 16.14868164 42.94628906 C16.12483372 45.32911402 16.12817354 47.71083383 16.13476562 50.09375 C16.12919507 51.62240246 16.12208912 53.15105027 16.11328125 54.6796875 C16.11464836 55.73758987 16.11464836 55.73758987 16.11604309 56.81686401 C16.04730961 61.61092425 15.47666115 65.39532995 12.40234375 69.16796875 C5.20760501 75.51226555 -2.54298799 75.92527774 -11.8984375 75.75 C-18.38030644 75.13414547 -24.81844063 73.46914565 -29.3125 68.5 C-32.44708621 63.38017585 -32.35610485 58.37691245 -32.390625 52.49609375 C-32.39632507 51.73257095 -32.40202515 50.96904816 -32.40789795 50.18238831 C-32.41731939 48.56781383 -32.42387055 46.95322038 -32.42773438 45.33862305 C-32.43737303 42.90703231 -32.46839464 40.4763122 -32.5 38.04492188 C-32.58499543 25.64369194 -31.64829633 13.86490377 -24.1875 3.4375 C-17.37930079 -3.37069921 -8.50096286 -4.16713866 0 0 Z M-19.59765625 10.0625 C-29.02922953 23.90701124 -32.44173506 44.9684455 -29.71875 61.23828125 C-28.60789158 65.27836752 -27.5934121 67.08570951 -24.375 69.875 C-15.10798339 74.4176552 -6.22144894 74.74942778 3.58203125 71.4140625 C7.99848705 69.48041285 10.90084055 67.17794076 13.1875 62.8125 C15.97644353 47.75220495 13.40273436 26.25130997 5.3984375 13.1171875 C2.74782106 9.32476706 0.22108836 6.15792473 -4.1875 4.4375 C-10.5065486 3.61836407 -15.43098759 5.26102033 -19.59765625 10.0625 Z " fill="#DCA133" transform="translate(155.1875,37.5625)"/>
<path d="M0 0 C3.48147224 1.91744151 6.45334044 4.19478977 8.99609375 7.24609375 C8.99609375 7.90609375 8.99609375 8.56609375 8.99609375 9.24609375 C9.65609375 9.24609375 10.31609375 9.24609375 10.99609375 9.24609375 C20.13137748 23.81013216 22.2483185 43.82801403 19.24609375 60.55859375 C17.36045243 66.12123563 17.36045243 66.12123563 13.99609375 68.24609375 C7.85134831 69.26220808 1.77840069 69.46021887 -4.44140625 69.49609375 C-5.33150391 69.51671875 -6.22160156 69.53734375 -7.13867188 69.55859375 C-13.09384147 69.59339386 -18.63623151 69.01418034 -24.00390625 66.24609375 C-32.7315762 55.28055971 -30.91282967 37.39594327 -30.00390625 24.24609375 C-28.85433913 15.98726456 -24.84232809 8.26444409 -18.390625 2.90625 C-12.92807491 -0.90262488 -6.38236455 -2.40116249 0 0 Z M-18.48046875 14.0390625 C-22.02543238 19.31301146 -24.09469527 25.21897674 -26.00390625 31.24609375 C-26.20113281 31.86871094 -26.39835937 32.49132812 -26.6015625 33.1328125 C-28.25015957 41.79194858 -27.81643157 52.8955031 -25.00390625 61.24609375 C-22.79711988 64.22823749 -21.45559317 65.83322866 -17.875 66.8515625 C-8.25281553 68.17379465 4.90891531 68.88783634 13.99609375 65.24609375 C19.01329219 59.9217199 18.55566628 52.9767411 18.40625 46.02734375 C18.08808461 40.60826872 16.8306004 35.52217554 15.37109375 30.30859375 C15.13575928 29.44564697 14.9004248 28.5827002 14.65795898 27.69360352 C12.23041385 19.6253347 8.23430587 11.94115026 0.99609375 7.24609375 C-7.55666688 4.39517354 -13.01483686 7.40222378 -18.48046875 14.0390625 Z " fill="#DEA333" transform="translate(101.00390625,43.75390625)"/>
<path d="M0 0 C-0.17182931 4.3816474 -0.50656137 6.4572175 -3.5 9.75 C-13.48825552 16.97959447 -26.94994501 16.19380584 -38.6875 16.25 C-39.77611328 16.270625 -40.86472656 16.29125 -41.98632812 16.3125 C-48.92103099 16.346225 -54.70459268 16.18910386 -59.9375 11.125 C-61.20797221 8.58405559 -61.07869349 6.8051913 -61 4 C-60.06019287 4.02094727 -59.12038574 4.04189453 -58.15209961 4.06347656 C-40.04293925 4.43156488 -22.66146226 4.47287128 -4.89648438 0.3671875 C-3 0 -3 0 0 0 Z " fill="#FEFDFB" transform="translate(150,129)"/>
<path d="M0 0 C3.375 1.125 3.375 1.125 5.25 3.9375 C7.74969881 11.01997996 8.98307455 18.95353684 6.0625 26.125 C3.33319936 30.97709003 3.33319936 30.97709003 1.375 32.125 C-3.67810063 32.76666357 -3.67810063 32.76666357 -6.625 32.125 C-10.27358896 28.75707173 -11.39457362 25.69070915 -11.828125 20.86328125 C-11.96888574 13.57891293 -11.24255666 7.1788161 -6.375 1.5 C-3.625 0.125 -3.625 0.125 0 0 Z " fill="#5CA5D7" transform="translate(137.625,68.875)"/>
<path d="M0 0 C7.63607827 6.6179345 7.51118036 17.68280866 8.6796875 27.15820312 C9.43345368 32.45598019 10.59757886 35.82907834 14 40 C19.16952834 42.58476417 26.48646037 40.93847483 32 40 C29.05372337 43.14946812 27.17460819 44.76809248 22.765625 45.23828125 C17.74318154 45.38645893 13.74326022 45.22693759 9.47265625 42.41015625 C6.74239435 39.79576753 5.17729465 36.56113351 4 33 C4 32.01 4 31.02 4 30 C3.4225 29.773125 2.845 29.54625 2.25 29.3125 C-4.04429618 25.64082723 -6.29354065 18.40712826 -9 12 C-9.57427734 10.67548828 -9.57427734 10.67548828 -10.16015625 9.32421875 C-11.20587437 6.43025464 -11.01352966 4.88466135 -10 2 C-6.23500419 -0.5099972 -4.45706394 -0.61476744 0 0 Z " fill="#B2481D" transform="translate(104,178)"/>
<path d="M0 0 C4.27172441 0.07910601 6.30930586 0.30930586 9.375 3.375 C12.13527394 7.83390406 12.21327083 11.77882755 12.25 16.875 C12.270625 17.58269531 12.29125 18.29039063 12.3125 19.01953125 C12.34639216 23.56955333 11.75991053 26.36924392 9 30 C7 32 7 32 4.1875 32.4375 C-0.07626944 31.85227674 -1.3471737 30.31603288 -4 27 C-6.90824247 20.98014146 -7.28986574 13.87568151 -5.171875 7.51171875 C-3.7640792 4.63834449 -2.2662994 2.2662994 0 0 Z " fill="#669FCA" transform="translate(103,71)"/>
<path d="M0 0 C6.97032549 3.57608004 11.237725 10.17237674 13.984375 17.296875 C15.79087734 23.28450467 16.24129259 28.56630595 16.109375 34.796875 C16.10035156 35.61929688 16.09132812 36.44171875 16.08203125 37.2890625 C16.05874365 39.29179583 16.02288459 41.29437654 15.984375 43.296875 C15.654375 43.296875 15.324375 43.296875 14.984375 43.296875 C14.84189331 42.37575928 14.84189331 42.37575928 14.6965332 41.43603516 C14.24703419 38.59498796 13.77211126 35.75872594 13.296875 32.921875 C13.07354492 31.47361328 13.07354492 31.47361328 12.84570312 29.99609375 C11.26862574 20.78101414 8.31618012 12.47102668 0.984375 6.296875 C-2.78775552 3.78212132 -4.53598342 3.84891084 -9.015625 4.296875 C-14.31225588 6.15534197 -16.43726441 8.40178729 -19.140625 13.296875 C-23.10035639 21.85500414 -24.98837907 31.12664844 -27.015625 40.296875 C-27.345625 40.296875 -27.675625 40.296875 -28.015625 40.296875 C-28.76354937 28.52399135 -27.01804467 15.08932125 -20.015625 5.296875 C-14.46266006 -0.86344548 -7.94933885 -2.77302518 0 0 Z " fill="#572C29" transform="translate(153.015625,38.703125)"/>
<path d="M0 0 C2.82886926 1.76018532 5.38381398 3.46417787 7.8125 5.75 C7.8125 6.74 7.8125 7.73 7.8125 8.75 C6.83410156 8.70359375 5.85570312 8.6571875 4.84765625 8.609375 C-2.99995291 8.39331496 -9.35663287 8.47725112 -16.1875 12.75 C-16.84492187 13.15863281 -17.50234375 13.56726562 -18.1796875 13.98828125 C-21.55952982 16.25319633 -23.76052477 18.47358344 -26.1875 21.75 C-27.1775 21.75 -28.1675 21.75 -29.1875 21.75 C-29.0337841 14.67906868 -25.71067564 10.03299764 -21.1875 4.75 C-14.91594056 -0.8688053 -8.00981479 -3.14110384 0 0 Z " fill="#542A25" transform="translate(98.1875,20.25)"/>
<path d="M0 0 C3.375 1.25 3.375 1.25 6 3 C7.2375 3.804375 7.2375 3.804375 8.5 4.625 C11.99175028 7.94216277 14.80035427 11.70653342 17 16 C17 17.32 17 18.64 17 20 C13.68501191 19.39860836 11.82563295 18.26426539 9.25 16.125 C1.78430861 10.40542796 -4.67759403 9.3756684 -14 10 C-16.00920153 10.27243411 -18.01820725 10.57150427 -20 11 C-20 7 -20 7 -18.5390625 5.33203125 C-17.90742188 4.83058594 -17.27578125 4.32914063 -16.625 3.8125 C-15.99851563 3.30332031 -15.37203125 2.79414063 -14.7265625 2.26953125 C-10.26964325 -1.00761526 -5.33643717 -0.4232868 0 0 Z " fill="#532825" transform="translate(150,17)"/>
<path d="M0 0 C1.65 0 3.3 0 5 0 C5.6509259 1.24735567 6.29551669 2.49801832 6.9375 3.75 C7.29714844 4.44609375 7.65679687 5.1421875 8.02734375 5.859375 C10.32584154 10.91791632 10.21650951 15.84936459 10.25 21.3125 C10.270625 22.14201172 10.29125 22.97152344 10.3125 23.82617188 C10.34726155 29.33153189 9.51609228 33.09362005 7 38 C4.625 38.1875 4.625 38.1875 2 38 C-0.32952964 34.50570555 -0.12270025 33.82175201 0.375 29.8125 C0.89241336 24.74924069 1.1214444 19.77141907 1.125 14.6875 C1.12757813 13.39199219 1.13015625 12.09648437 1.1328125 10.76171875 C1.00259864 7.07360271 0.59257308 3.63538884 0 0 Z " fill="#FE8D66" transform="translate(131,170)"/>
<path d="M0 0 C2.75 0.125 2.75 0.125 6 1 C11.06325532 7.04777719 12.34877154 13.28141699 12.3125 21 C12.32861328 21.68578125 12.34472656 22.3715625 12.36132812 23.078125 C12.36582996 27.79605034 11.39357189 30.95808441 9 35 C7.125 34.75 7.125 34.75 5 34 C3.28925877 31.23222159 2.70206378 28.88174915 2.4375 25.6640625 C2.36273438 24.84679687 2.28796875 24.02953125 2.2109375 23.1875 C2.14132813 22.341875 2.07171875 21.49625 2 20.625 C1.53932535 15.0798422 0.87162715 10.27894837 -1 5 C-0.625 2.125 -0.625 2.125 0 0 Z " fill="#FEA586" transform="translate(112,173)"/>
<path d="M0 0 C8.58944916 4.13566071 11.85947877 11.08810661 14.99609375 19.65234375 C16.32874919 24.09625704 16.88510971 28.37305462 17 33 C14.34567093 30.34567093 13.79344985 27.37828235 12.75 23.875 C10.37952662 16.39978113 7.72912803 10.53898078 1.0625 6 C-3.33481793 4.56414108 -6.68895508 3.8960834 -11.01171875 5.9609375 C-20.32916051 12.10157531 -23.6986623 22.56323165 -26 33 C-26.33 33 -26.66 33 -27 33 C-26.96861302 22.39120207 -25.55179148 13.0240393 -18.1171875 4.95703125 C-12.19242031 -0.26122604 -7.6920801 -0.77356613 0 0 Z " fill="#5A2F2B" transform="translate(101,46)"/>
<path d="M0 0 C2.42773949 5.09492726 3.61105388 9.5297707 4.1875 15.125 C4.3102832 16.15947266 4.3102832 16.15947266 4.43554688 17.21484375 C4.84623737 20.82477868 5.09187536 24.36738974 5 28 C-1.80107979 25.32814723 -4.19144065 18.95846294 -6.9609375 12.671875 C-8.0811859 9.79123626 -8.74991001 7.08444319 -9 4 C-4.5 0 -4.5 0 0 0 Z " fill="#512424" transform="translate(103,180)"/>
<path d="M0 0 C3.375 1.125 3.375 1.125 5.25 3.9375 C7.74969881 11.01997996 8.98307455 18.95353684 6.0625 26.125 C3.33319936 30.97709003 3.33319936 30.97709003 1.375 32.125 C-3.67810063 32.76666357 -3.67810063 32.76666357 -6.625 32.125 C-10.27358896 28.75707173 -11.39457362 25.69070915 -11.828125 20.86328125 C-11.96888574 13.57891293 -11.24255666 7.1788161 -6.375 1.5 C-3.625 0.125 -3.625 0.125 0 0 Z M-3.625 3.125 C-4.285 4.775 -4.945 6.425 -5.625 8.125 C-6.285 8.125 -6.945 8.125 -7.625 8.125 C-10.21756357 14.44437371 -10.79334785 20.28032697 -8.1875 26.625 C-6.84751722 28.97743595 -6.84751722 28.97743595 -5.625 30.125 C-2.17607891 30.10907238 -2.17607891 30.10907238 1.375 29.125 C4.52054009 25.22366652 4.75637889 22.04189288 4.6875 17.125 C4.68363281 15.92875 4.67976563 14.7325 4.67578125 13.5 C4.28514782 9.11678854 3.50517216 6.25517216 0.375 3.125 C-0.945 3.125 -2.265 3.125 -3.625 3.125 Z " fill="#639CC8" transform="translate(137.625,68.875)"/>
<path d="M0 0 C9.57 0.33 19.14 0.66 29 1 C29 1.33 29 1.66 29 2 C20.585 2.495 20.585 2.495 12 3 C16.72399863 9.04334764 16.72399863 9.04334764 23.671875 10.4140625 C25.03076358 10.49322106 26.39020651 10.56330805 27.75 10.625 C28.44738281 10.66367188 29.14476563 10.70234375 29.86328125 10.7421875 C31.57510818 10.83598624 33.28751682 10.91906174 35 11 C35 11.33 35 11.66 35 12 C30.97930575 12.08765069 26.9588599 12.14061018 22.9375 12.1875 C21.2369043 12.22520508 21.2369043 12.22520508 19.50195312 12.26367188 C12.37491868 12.32600745 6.4480569 12.33682926 1.0625 7.125 C0 5 0 5 0 0 Z " fill="#D9C4A8" transform="translate(89,133)"/>
<path d="M0 0 C-0.17182931 4.3816474 -0.50656137 6.4572175 -3.5 9.75 C-8.4863869 13.3906632 -14.80265431 15.59974313 -21 15 C-20.21625 14.13375 -19.4325 13.2675 -18.625 12.375 C-16.13794296 9.40884982 -14 6.03063067 -14 2 C-12.22978678 1.663389 -10.45880326 1.33082707 -8.6875 1 C-7.70136719 0.814375 -6.71523437 0.62875 -5.69921875 0.4375 C-3 0 -3 0 0 0 Z " fill="#E9DBCE" transform="translate(150,129)"/>
<path d="M0 0 C0.99 0 1.98 0 3 0 C3 1.65 3 3.3 3 5 C2.01 5.495 2.01 5.495 1 6 C0.94583812 7.60379341 0.90713362 9.20811406 0.875 10.8125 C0.84019531 12.15248047 0.84019531 12.15248047 0.8046875 13.51953125 C0.81714173 16.25402714 0.81714173 16.25402714 3 19 C4.32 18.67 5.64 18.34 7 18 C7.66 14.04 8.32 10.08 9 6 C9.33 6 9.66 6 10 6 C10.5864912 19.42413192 10.5864912 19.42413192 7 24 C4.5625 25.125 4.5625 25.125 2 25 C-2.1192046 22.17540256 -3.03185909 18.76002612 -4 14 C-4.31476486 9.43590953 -4.10437077 6.09183206 -2 2 C-1.34 1.34 -0.68 0.68 0 0 Z " fill="#5FAFE2" transform="translate(103,76)"/>
<path d="M0 0 C3 1 3 1 4.1875 3.0625 C5.58016687 8.09752638 5.86677718 12.26644564 3.5 17 C3.005 17.66 2.51 18.32 2 19 C0.125 18.6875 0.125 18.6875 -2 18 C-4.15357022 14.76964467 -4.29592637 13.68866542 -4.3125 9.9375 C-4.32925781 9.05964844 -4.34601563 8.18179688 -4.36328125 7.27734375 C-4.24339844 6.52582031 -4.12351562 5.77429688 -4 5 C-3.01 4.34 -2.02 3.68 -1 3 C-0.67 2.01 -0.34 1.02 0 0 Z " fill="#3C284F" transform="translate(107,77)"/>
<path d="M0 0 C0.66 0 1.32 0 2 0 C4.69414604 4.04121906 4.5569631 7.25370575 4 12 C2.5 15.5625 2.5 15.5625 1 18 C-0.66611905 18.042721 -2.33382885 18.04063832 -4 18 C-5 17 -5 17 -5.09765625 14.05859375 C-5.08605469 12.86363281 -5.07445312 11.66867188 -5.0625 10.4375 C-5.05347656 9.23996094 -5.04445312 8.04242188 -5.03515625 6.80859375 C-5.02355469 5.88175781 -5.01195312 4.95492187 -5 4 C-4.0409375 3.8453125 -4.0409375 3.8453125 -3.0625 3.6875 C-2.381875 3.460625 -1.70125 3.23375 -1 3 C-0.67 2.01 -0.34 1.02 0 0 Z " fill="#3E2C53" transform="translate(136,76)"/>
<path d="M0 0 C3.12994705 2.26906908 3.92251881 3.67545615 4.828125 7.46875 C4.98848283 8.81028823 5.12822292 10.15441099 5.25 11.5 C5.32589355 12.20253906 5.40178711 12.90507812 5.47998047 13.62890625 C6.0926043 19.7523662 6.2096719 25.84962427 6 32 C5.34 31.67 4.68 31.34 4 31 C3.42163086 28.54736328 3.42163086 28.54736328 2.96484375 25.3203125 C2.79533203 24.16402344 2.62582031 23.00773437 2.45117188 21.81640625 C2.28166016 20.59824219 2.11214844 19.38007813 1.9375 18.125 C1.59465445 15.73145374 1.2496996 13.33820838 0.90234375 10.9453125 C0.75273193 9.87812988 0.60312012 8.81094727 0.44897461 7.71142578 C0.05875139 4.91458566 0.05875139 4.91458566 -1 2 C-2.093125 2.45375 -3.18625 2.9075 -4.3125 3.375 C-4.92738281 3.63023437 -5.54226562 3.88546875 -6.17578125 4.1484375 C-8.26533932 5.06806692 -8.26533932 5.06806692 -11 7 C-10.6875 4.625 -10.6875 4.625 -10 2 C-6.2794164 -0.48038907 -4.40203429 -0.46337203 0 0 Z " fill="#A73F1B" transform="translate(104,178)"/>
<path d="M0 0 C2.75 -0.3125 2.75 -0.3125 6 0 C10.85316289 4.85316289 11.20264702 9.30477349 11.25 15.875 C11.270625 16.58269531 11.29125 17.29039063 11.3125 18.01953125 C11.34639216 22.56955333 10.75991053 25.36924392 8 29 C6 31 6 31 3.375 31.125 C2.59125 31.08375 1.8075 31.0425 1 31 C1 30.34 1 29.68 1 29 C1.78375 28.773125 2.5675 28.54625 3.375 28.3125 C6.15007091 27.2478876 6.15007091 27.2478876 7.1484375 24.76953125 C8.05325854 21.82678758 8.26692549 19.44697638 8.25 16.375 C8.25515625 15.43398437 8.2603125 14.49296875 8.265625 13.5234375 C8.17167307 10.75424779 8.17167307 10.75424779 6 8 C5.896875 7.154375 5.79375 6.30875 5.6875 5.4375 C5.460625 4.633125 5.23375 3.82875 5 3 C2.52363988 1.62533375 2.52363988 1.62533375 0 1 C0 0.67 0 0.34 0 0 Z " fill="#5896C5" transform="translate(104,72)"/>
<path d="M0 0 C0.33 0 0.66 0 1 0 C1.08152344 2.54232342 1.14073716 5.08199202 1.1875 7.625 C1.22520508 8.69427734 1.22520508 8.69427734 1.26367188 9.78515625 C1.33024446 14.62276416 0.55559453 17.74738338 -2 22 C-3.875 21.75 -3.875 21.75 -6 21 C-7.91184226 18.02602316 -8.22778191 15.74458497 -8.125 12.25 C-8.10695313 11.45078125 -8.08890625 10.6515625 -8.0703125 9.828125 C-8.04710938 9.22484375 -8.02390625 8.6215625 -8 8 C-7.34 9.32 -6.68 10.64 -6 12 C-4.35 11.67 -2.7 11.34 -1 11 C-0.67 7.37 -0.34 3.74 0 0 Z " fill="#FD8C65" transform="translate(123,186)"/>
<path d="M0 0 C1.08474358 3.25423074 0.86798476 3.86821713 0 7 C-0.54820753 12.79834883 -0.12859276 16.91603677 3 22 C8.03478441 21.76586026 8.03478441 21.76586026 11.9375 18.9375 C12.4634375 17.9784375 12.4634375 17.9784375 13 17 C13.66 17.33 14.32 17.66 15 18 C13.47793991 20.62901288 12.15634036 22.84365964 10 25 C6.99402676 25.33938407 4.89853457 25.56822757 2 25 C-1.69190539 21.59208733 -2.8254805 18.49603472 -3.16796875 13.59765625 C-3.23364319 5.07311405 -3.23364319 5.07311405 -1 1 C-0.67 0.67 -0.34 0.34 0 0 Z " fill="#5995C4" transform="translate(129,76)"/>
<path d="M0 0 C2.75 0.125 2.75 0.125 6 1 C10 5.94736842 10 5.94736842 10 9 C8.35 9.33 6.7 9.66 5 10 C4.34 12.31 3.68 14.62 3 17 C2.67 17 2.34 17 2 17 C1.46585888 15.10787298 0.94821671 13.21108364 0.4375 11.3125 C0.14746094 10.25675781 -0.14257812 9.20101562 -0.44140625 8.11328125 C-1.00124767 4.99304618 -0.84690764 3.02306766 0 0 Z " fill="#FD8D65" transform="translate(112,173)"/>
<path d="M0 0 C3.77627904 3.77627904 3.17202957 8.4545169 3.203125 13.5390625 C3.20882507 14.26112885 3.21452515 14.98319519 3.22039795 15.72714233 C3.22981787 17.24841864 3.23636994 18.76971507 3.24023438 20.29101562 C3.24999604 22.62405306 3.28106814 24.9562295 3.3125 27.2890625 C3.31902521 28.76822394 3.32427757 30.24739167 3.328125 31.7265625 C3.3404718 32.42552643 3.3528186 33.12449036 3.36553955 33.84463501 C3.35644531 35.80712891 3.35644531 35.80712891 3 39 C2.01 39.66 1.02 40.32 0 41 C0 27.47 0 13.94 0 0 Z " fill="#DAA035" transform="translate(168,59)"/>
<path d="M0 0 C3.15497657 0.3380332 3.93381319 0.91933482 6 3.4375 C6.66 4.283125 7.32 5.12875 8 6 C11.60364753 8.46249248 15.52499583 8.43331739 19.75 8.625 C20.44738281 8.66367188 21.14476563 8.70234375 21.86328125 8.7421875 C23.57510818 8.83598624 25.28751682 8.91906174 27 9 C27 9.33 27 9.66 27 10 C18.75 10 10.5 10 2 10 C0.0044484 6.00889681 -0.19546065 4.30013434 0 0 Z " fill="#E5D8CE" transform="translate(97,135)"/>
<path d="M0 0 C1.83203125 0.19921875 1.83203125 0.19921875 4 1 C5.44921875 3.14453125 5.44921875 3.14453125 6.6875 5.8125 C7.10386719 6.68519531 7.52023438 7.55789062 7.94921875 8.45703125 C9.51554476 12.24765665 10.12535666 15.44721436 10.09765625 19.546875 C10.09443359 20.39121094 10.09121094 21.23554688 10.08789062 22.10546875 C10.07951172 22.97816406 10.07113281 23.85085937 10.0625 24.75 C10.05798828 25.63816406 10.05347656 26.52632812 10.04882812 27.44140625 C10.037074 29.62767329 10.02064249 31.81380179 10 34 C9.67 34 9.34 34 9 34 C8.90203125 33.05640625 8.8040625 32.1128125 8.703125 31.140625 C7.61488656 21.79678457 6.30392348 12.49861606 1.37109375 4.2890625 C0 2 0 2 0 0 Z " fill="#AC411C" transform="translate(119,161)"/>
<path d="M0 0 C-0.23900384 6.09459794 -0.23900384 6.09459794 -2.296875 8.54296875 C-4.76473115 10.62598595 -6.93151657 11.97717219 -10 13 C-9.67 9.04 -9.34 5.08 -9 1 C-5.94152152 0.45627049 -3.11227195 0 0 0 Z " fill="#D9CAB9" transform="translate(150,129)"/>
<path d="M0 0 C2.12808712 3.19213068 2.4348667 4.81661031 2.9296875 8.55078125 C3.08566406 9.64197266 3.24164063 10.73316406 3.40234375 11.85742188 C3.71573183 14.14826281 4.02309279 16.43993688 4.32421875 18.73242188 C5.20290846 24.8010959 5.89784142 29.32675659 10 34 C12.76452033 35.38226016 15.0461363 35.09525387 18.125 35.0625 C19.22070312 35.05347656 20.31640625 35.04445312 21.4453125 35.03515625 C22.28835937 35.02355469 23.13140625 35.01195312 24 35 C21.46277946 37.53722054 20.34088191 37.38319839 16.8125 37.5 C12.04317469 37.34373115 8.7844098 36.86825442 5.3671875 33.41015625 C0.11892598 24.15822094 0.47593721 10.35573732 0 0 Z " fill="#CC5328" transform="translate(108,184)"/>
<path d="M0 0 C0.66 0 1.32 0 2 0 C1.1072376 8.09643141 -0.99025704 14.48605941 -6 21 C-6.99 21.66 -7.98 22.32 -9 23 C-9.66 22.34 -10.32 21.68 -11 21 C-9.63875 19.6696875 -9.63875 19.6696875 -8.25 18.3125 C-4.46524364 13.97300394 -3.24055991 9.17388861 -1.76171875 3.6953125 C-1 1 -1 1 0 0 Z " fill="#CF5C28" transform="translate(145,196)"/>
<path d="M0 0 C0.99 0 1.98 0 3 0 C3 1.65 3 3.3 3 5 C1.68 5.33 0.36 5.66 -1 6 C-0.95875 7.11375 -0.9175 8.2275 -0.875 9.375 C-1 13 -1 13 -3 15 C-4 14 -4 14 -4.1875 10.75 C-3.95681055 6.13621098 -3.28445883 3.28445883 0 0 Z " fill="#63B4E6" transform="translate(103,76)"/>
<path d="M0 0 C3.25696479 0.41755959 4.63443291 0.63443291 7 3 C6.67 3.99 6.34 4.98 6 6 C5.34 6 4.68 6 4 6 C4 5.34 4 4.68 4 4 C3.34 4 2.68 4 2 4 C1.67 5.32 1.34 6.64 1 8 C-0.32 7.67 -1.64 7.34 -3 7 C-1.125 1.125 -1.125 1.125 0 0 Z " fill="#60AEE0" transform="translate(134,72)"/>
<path d="M0 0 C0.66 0 1.32 0 2 0 C4.83374078 5.66748157 5.63223832 10.69732561 6 17 C3.38832897 14.38832897 2.92868518 12.0278941 1.875 8.5 C1.52179688 7.3346875 1.16859375 6.169375 0.8046875 4.96875 C0 2 0 2 0 0 Z " fill="#673B2F" transform="translate(112,62)"/>
<path d="M0 0 C1.485 0.99 1.485 0.99 3 2 C3.29296875 4.8203125 3.29296875 4.8203125 3.1875 8.125 C3.16042969 9.22070312 3.13335937 10.31640625 3.10546875 11.4453125 C3.07066406 12.28835937 3.03585938 13.13140625 3 14 C2.01 14.33 1.02 14.66 0 15 C0 10.05 0 5.1 0 0 Z " fill="#60B3E7" transform="translate(139,77)"/>
<path d="M0 0 C0.33 0 0.66 0 1 0 C0.88512252 1.58409994 0.75765492 3.16728963 0.625 4.75 C0.52058594 6.07257813 0.52058594 6.07257813 0.4140625 7.421875 C0.00149945 9.99066382 -0.71160957 11.75841015 -2 14 C-2.05437607 12.41705218 -2.09296271 10.83355744 -2.125 9.25 C-2.14820312 8.36828125 -2.17140625 7.4865625 -2.1953125 6.578125 C-1.99139502 3.8864142 -1.36551721 2.30095026 0 0 Z " fill="#62362D" transform="translate(127,65)"/>
<path d="M0 0 C0.99 0.33 1.98 0.66 3 1 C2.67 2.65 2.34 4.3 2 6 C0.68 5.67 -0.64 5.34 -2 5 C-1.34 3.35 -0.68 1.7 0 0 Z " fill="#ECF4FA" transform="translate(133,74)"/>
<path d="M0 0 C0.33 0 0.66 0 1 0 C1.33 3.63 1.66 7.26 2 11 C1.34 11 0.68 11 0 11 C-0.38909985 9.54536519 -0.76088029 8.08608793 -1.125 6.625 C-1.33382812 5.81289062 -1.54265625 5.00078125 -1.7578125 4.1640625 C-1.83773437 3.44992188 -1.91765625 2.73578125 -2 2 C-1.34 1.34 -0.68 0.68 0 0 Z " fill="#E5B047" transform="translate(74,94)"/>
<path d="M0 0 C2.875 -0.1875 2.875 -0.1875 6 0 C6.66 0.99 7.32 1.98 8 3 C7.01 3.495 7.01 3.495 6 4 C5.34 3.67 4.68 3.34 4 3 C3.67 3.99 3.34 4.98 3 6 C3 4.68 3 3.36 3 2 C2.01 2 1.02 2 0 2 C0 1.34 0 0.68 0 0 Z " fill="#6BA8D5" transform="translate(103,74)"/>
<path d="M0 0 C0.99 0 1.98 0 3 0 C3 1.65 3 3.3 3 5 C2.01 5.33 1.02 5.66 0 6 C-0.38218767 4.34385343 -0.71395102 2.67542976 -1 1 C-0.67 0.67 -0.34 0.34 0 0 Z " fill="#F4F6F9" transform="translate(103,76)"/>
<path d="M0 0 C0.66 0.99 1.32 1.98 2 3 C1.67 3.66 1.34 4.32 1 5 C0.77532169 6.53668865 0.59203195 8.07968054 0.4375 9.625 C0.35371094 10.44226563 0.26992187 11.25953125 0.18359375 12.1015625 C0.12300781 12.72804688 0.06242188 13.35453125 0 14 C-0.33 14 -0.66 14 -1 14 C-1.02694851 12.04174127 -1.04637218 10.08337774 -1.0625 8.125 C-1.07410156 7.03445312 -1.08570313 5.94390625 -1.09765625 4.8203125 C-1 2 -1 2 0 0 Z " fill="#61B2E4" transform="translate(130,77)"/>
<path d="M0 0 C0.33 0 0.66 0 1 0 C1.66 2.97 2.32 5.94 3 9 C2.01 9 1.02 9 0 9 C-0.84454356 5.62182575 -1.10844919 3.32534757 0 0 Z " fill="#E1AB45" transform="translate(125,96)"/>
</svg>
