<?xml version="1.0" encoding="UTF-8"?>
<svg version="1.1" xmlns="http://www.w3.org/2000/svg" width="240" height="241">
<path d="M0 0 C79.2 0 158.4 0 240 0 C240 79.53 240 159.06 240 241 C160.8 241 81.6 241 0 241 C0 161.47 0 81.94 0 0 Z " fill="#181717" transform="translate(0,0)"/>
<path d="M0 0 C0.99 0.33 1.98 0.66 3 1 C3 2.98 3 4.96 3 7 C5.475 7.495 5.475 7.495 8 8 C8 9.65 8 11.3 8 13 C9.32 13.66 10.64 14.32 12 15 C12 16.65 12 18.3 12 20 C12.66 20 13.32 20 14 20 C14 19.01 14 18.02 14 17 C14.66 17.33 15.32 17.66 16 18 C15.01 21.465 15.01 21.465 14 25 C15.485 25.495 15.485 25.495 17 26 C17.6875 28.0625 17.6875 28.0625 18 30 C19.65 30 21.3 30 23 30 C22.01 30.99 21.02 31.98 20 33 C20.66 33.66 21.32 34.32 22 35 C21.01 35 20.02 35 19 35 C19 35.99 19 36.98 19 38 C19.598125 37.67 20.19625 37.34 20.8125 37 C23 36 23 36 26 36 C26 36.66 26 37.32 26 38 C25.34 38 24.68 38 24 38 C24.495 40.97 24.495 40.97 25 44 C25.639375 44.144375 26.27875 44.28875 26.9375 44.4375 C29 45 29 45 30 46 C30.04080783 47.99958364 30.04254356 50.00045254 30 52 C30.66 52 31.32 52 32 52 C32.66 52.66 33.32 53.32 34 54 C34.66 54.33 35.32 54.66 36 55 C35.34 56.32 34.68 57.64 34 59 C35.65 59.66 37.3 60.32 39 61 C38.125 67.75 38.125 67.75 37 70 C35.02 69.34 33.04 68.68 31 68 C30.67 68.66 30.34 69.32 30 70 C28.35 69.34 26.7 68.68 25 68 C25 67.34 25 66.68 25 66 C24.01 66 23.02 66 22 66 C21.505 67.485 21.505 67.485 21 69 C20.34 68.34 19.68 67.68 19 67 C17.515 67.495 17.515 67.495 16 68 C15.34 67.01 14.68 66.02 14 65 C13.34 65.66 12.68 66.32 12 67 C5.91549296 68.35211268 5.91549296 68.35211268 2.5625 67.0625 C2.046875 66.711875 1.53125 66.36125 1 66 C1 65.34 1 64.68 1 64 C-2.0745356 64.7763932 -2.0745356 64.7763932 -4 67 C-4.7425 66.67 -5.485 66.34 -6.25 66 C-9.13883312 64.77217129 -9.13883312 64.77217129 -13 65 C-13.495 66.485 -13.495 66.485 -14 68 C-14.99 67.67 -15.98 67.34 -17 67 C-16.505 65.02 -16.505 65.02 -16 63 C-16.99 63 -17.98 63 -19 63 C-19 63.66 -19 64.32 -19 65 C-23.01804691 65.84098656 -26.01803543 66.05404945 -30 65 C-30 64.34 -30 63.68 -30 63 C-32.64 63 -35.28 63 -38 63 C-38 62.34 -38 61.68 -38 61 C-38.66 61 -39.32 61 -40 61 C-40 61.99 -40 62.98 -40 64 C-43.96 64 -47.92 64 -52 64 C-52.66 62.68 -53.32 61.36 -54 60 C-53.01 60 -52.02 60 -51 60 C-51.33 58.02 -51.66 56.04 -52 54 C-49.03 53.505 -49.03 53.505 -46 53 C-46 51.68 -46 50.36 -46 49 C-45.01 49 -44.02 49 -43 49 C-43 48.34 -43 47.68 -43 47 C-42.01 47 -41.02 47 -40 47 C-40 46.34 -40 45.68 -40 45 C-39.34 45 -38.68 45 -38 45 C-38 43.35 -38 41.7 -38 40 C-36.515 40.495 -36.515 40.495 -35 41 C-34.67 40.01 -34.34 39.02 -34 38 C-31.4375 36.8125 -31.4375 36.8125 -29 36 C-29 35.01 -29 34.02 -29 33 C-28.34 33 -27.68 33 -27 33 C-26.67 31.35 -26.34 29.7 -26 28 C-24.68 28 -23.36 28 -22 28 C-22 26.35 -22 24.7 -22 23 C-20.68 23 -19.36 23 -18 23 C-17.67 21.35 -17.34 19.7 -17 18 C-15.35 18.33 -13.7 18.66 -12 19 C-12.33 17.35 -12.66 15.7 -13 14 C-11.68 14 -10.36 14 -9 14 C-9 12.35 -9 10.7 -9 9 C-8.34 9 -7.68 9 -7 9 C-7 9.99 -7 10.98 -7 12 C-4.81628991 11.18727401 -4.81628991 11.18727401 -4.21875 9.00390625 C-3.9815625 8.19824219 -3.744375 7.39257812 -3.5 6.5625 C-2.21640091 2.21640091 -2.21640091 2.21640091 0 0 Z " fill="#1E1717" transform="translate(113,116)"/>
<path d="M0 0 C2.97 0.495 2.97 0.495 6 1 C6 1.66 6 2.32 6 3 C6.45375 2.505 6.9075 2.01 7.375 1.5 C9 0 9 0 11 0 C11 0.66 11 1.32 11 2 C12.98 2 14.96 2 17 2 C17.4125 2.969375 17.825 3.93875 18.25 4.9375 C19.64899168 8.12260099 19.64899168 8.12260099 22.1875 8.875 C22.785625 8.91625 23.38375 8.9575 24 9 C24 10.65 24 12.3 24 14 C24.969375 14.268125 25.93875 14.53625 26.9375 14.8125 C27.948125 15.204375 28.95875 15.59625 30 16 C30.495 17.485 30.495 17.485 31 19 C30.67 19.66 30.34 20.32 30 21 C30.66 21 31.32 21 32 21 C31.505 23.475 31.505 23.475 31 26 C31.66 26.33 32.32 26.66 33 27 C33.33 26.34 33.66 25.68 34 25 C33.505 27.475 33.505 27.475 33 30 C33.66 30 34.32 30 35 30 C34.67 31.32 34.34 32.64 34 34 C32.02 34.495 32.02 34.495 30 35 C30.33 36.051875 30.66 37.10375 31 38.1875 C31.83966782 41.38873357 32.19750904 43.7411008 32 47 C31.01 46.505 31.01 46.505 30 46 C30 44.68 30 43.36 30 42 C29.34 42 28.68 42 28 42 C28 44.64 28 47.28 28 50 C25.525 50.495 25.525 50.495 23 51 C23.99 51.495 23.99 51.495 25 52 C25 52.66 25 53.32 25 54 C22.03 54.495 22.03 54.495 19 55 C19 55.99 19 56.98 19 58 C15.25 59.125 15.25 59.125 13 58 C13 58.99 13 59.98 13 61 C11.68 61.66 10.36 62.32 9 63 C9 61.68 9 60.36 9 59 C8.34 59 7.68 59 7 59 C7 59.66 7 60.32 7 61 C6.01 61 5.02 61 4 61 C4 61.66 4 62.32 4 63 C-0.08718695 63.24042276 -3.17679443 62.42258812 -7 61 C-7 60.34 -7 59.68 -7 59 C-11.10188836 57.58184604 -11.10188836 57.58184604 -15.3125 56.5625 C-16.1478125 56.2840625 -16.1478125 56.2840625 -17 56 C-17.495 54.515 -17.495 54.515 -18 53 C-20.50447516 51.78130071 -20.50447516 51.78130071 -23 51 C-23 50.01 -23 49.02 -23 48 C-23.66 47.67 -24.32 47.34 -25 47 C-24.34 46.34 -23.68 45.68 -23 45 C-23.66 44.34 -24.32 43.68 -25 43 C-26.25 39.5625 -26.25 39.5625 -27 36 C-26.34 35.01 -25.68 34.02 -25 33 C-26.485 33.495 -26.485 33.495 -28 34 C-27.47157855 29.03283839 -26.33566693 24.70814106 -24.62109375 20.015625 C-23.85276187 17.87369512 -23.85276187 17.87369512 -24 15 C-22.35 15 -20.7 15 -19 15 C-19 14.34 -19 13.68 -19 13 C-19.99 12.67 -20.98 12.34 -22 12 C-18.375 9 -18.375 9 -15 9 C-14.67 8.01 -14.34 7.02 -14 6 C-13.34 6.33 -12.68 6.66 -12 7 C-12 6.34 -12 5.68 -12 5 C-10 4 -10 4 -7.9375 3.5625 C-7.298125 3.376875 -6.65875 3.19125 -6 3 C-5.67 2.34 -5.34 1.68 -5 1 C-2.525 1.495 -2.525 1.495 0 2 C0 1.34 0 0.68 0 0 Z " fill="#1C1717" transform="translate(175,66)"/>
<path d="M0 0 C0.66 0 1.32 0 2 0 C2.33 0.99 2.66 1.98 3 3 C5.31 3.33 7.62 3.66 10 4 C10 4.99 10 5.98 10 7 C10.78375 7.103125 11.5675 7.20625 12.375 7.3125 C15 8 15 8 17 11 C19.56282742 11.72965366 19.56282742 11.72965366 22 12 C22 12.66 22 13.32 22 14 C21.01 14 20.02 14 19 14 C19.680625 15.2065625 19.680625 15.2065625 20.375 16.4375 C22.2585056 20.56672383 23.16165904 24.56172434 24 29 C23.01 29 22.02 29 21 29 C21 31.97 21 34.94 21 38 C19.68 38 18.36 38 17 38 C17 39.98 17 41.96 17 44 C15.35 43.67 13.7 43.34 12 43 C11.67 44.98 11.34 46.96 11 49 C10.01 49 9.02 49 8 49 C8 49.66 8 50.32 8 51 C7.34 51 6.68 51 6 51 C5.67 50.34 5.34 49.68 5 49 C4.4225 49.20625 3.845 49.4125 3.25 49.625 C0.43496298 50.09417284 -0.52908735 49.31267234 -3 48 C-4.32 48 -5.64 48 -7 48 C-7.66 48.66 -8.32 49.32 -9 50 C-9.66 49.01 -10.32 48.02 -11 47 C-11.66 47 -12.32 47 -13 47 C-13.0825 46.21625 -13.165 45.4325 -13.25 44.625 C-13.71861846 41.90210663 -13.71861846 41.90210663 -15.8125 40.8125 C-17.20554711 40.2950825 -18.59875857 39.77810712 -19.9921875 39.26171875 C-22.68159461 37.57168277 -23.20432177 35.94373212 -24.3125 33 C-24.65925781 32.113125 -25.00601562 31.22625 -25.36328125 30.3125 C-26 28 -26 28 -25 26 C-24.34 26.33 -23.68 26.66 -23 27 C-23 25.68 -23 24.36 -23 23 C-23.99 23 -24.98 23 -26 23 C-26 22.34 -26 21.68 -26 21 C-24.68 21 -23.36 21 -22 21 C-22 20.34 -22 19.68 -22 19 C-21.34 19 -20.68 19 -20 19 C-19.67 17.35 -19.34 15.7 -19 14 C-19.99 13.67 -20.98 13.34 -22 13 C-18.25 10 -18.25 10 -16 10 C-16.33 8.68 -16.66 7.36 -17 6 C-16.01 6 -15.02 6 -14 6 C-14 6.66 -14 7.32 -14 8 C-13.34 8 -12.68 8 -12 8 C-11.360625 7.34 -10.72125 6.68 -10.0625 6 C-8 4 -8 4 -5 4 C-4.34 3.34 -3.68 2.68 -3 2 C-2.34 2.66 -1.68 3.32 -1 4 C-0.67 2.68 -0.34 1.36 0 0 Z " fill="#1F1617" transform="translate(57,64)"/>
<path d="M0 0 C0.99 0.33 1.98 0.66 3 1 C3 2.98 3 4.96 3 7 C5.475 7.495 5.475 7.495 8 8 C8 9.65 8 11.3 8 13 C9.32 13.66 10.64 14.32 12 15 C12 16.65 12 18.3 12 20 C12.66 20 13.32 20 14 20 C14 19.01 14 18.02 14 17 C14.66 17.33 15.32 17.66 16 18 C15.01 21.465 15.01 21.465 14 25 C15.485 25.495 15.485 25.495 17 26 C17.6875 28.0625 17.6875 28.0625 18 30 C19.65 30 21.3 30 23 30 C22.01 30.99 21.02 31.98 20 33 C20.66 33.66 21.32 34.32 22 35 C21.01 35 20.02 35 19 35 C19 35.99 19 36.98 19 38 C19.598125 37.67 20.19625 37.34 20.8125 37 C23 36 23 36 26 36 C26 36.66 26 37.32 26 38 C25.34 38 24.68 38 24 38 C24.495 40.97 24.495 40.97 25 44 C25.639375 44.144375 26.27875 44.28875 26.9375 44.4375 C29 45 29 45 30 46 C30.04080783 47.99958364 30.04254356 50.00045254 30 52 C30.66 52 31.32 52 32 52 C32.66 52.66 33.32 53.32 34 54 C34.66 54.33 35.32 54.66 36 55 C35.34 56.32 34.68 57.64 34 59 C35.65 59.66 37.3 60.32 39 61 C38.125 67.75 38.125 67.75 37 70 C35.02 69.34 33.04 68.68 31 68 C30.67 68.66 30.34 69.32 30 70 C28.35 69.34 26.7 68.68 25 68 C25 67.34 25 66.68 25 66 C24.01 66 23.02 66 22 66 C21.505 67.485 21.505 67.485 21 69 C20.34 68.34 19.68 67.68 19 67 C17.515 67.495 17.515 67.495 16 68 C15.34 67.01 14.68 66.02 14 65 C13.34 65.66 12.68 66.32 12 67 C5.91549296 68.35211268 5.91549296 68.35211268 2.5625 67.0625 C2.046875 66.711875 1.53125 66.36125 1 66 C1 65.34 1 64.68 1 64 C-2.0745356 64.7763932 -2.0745356 64.7763932 -4 67 C-4.7425 66.67 -5.485 66.34 -6.25 66 C-9.13883312 64.77217129 -9.13883312 64.77217129 -13 65 C-13.495 66.485 -13.495 66.485 -14 68 C-14.99 67.67 -15.98 67.34 -17 67 C-16.505 65.02 -16.505 65.02 -16 63 C-16.99 63 -17.98 63 -19 63 C-19 63.66 -19 64.32 -19 65 C-23.01804691 65.84098656 -26.01803543 66.05404945 -30 65 C-30 64.34 -30 63.68 -30 63 C-32.64 63 -35.28 63 -38 63 C-38 62.34 -38 61.68 -38 61 C-38.66 61 -39.32 61 -40 61 C-40 61.99 -40 62.98 -40 64 C-43.96 64 -47.92 64 -52 64 C-52.66 62.68 -53.32 61.36 -54 60 C-53.01 60 -52.02 60 -51 60 C-51.33 58.02 -51.66 56.04 -52 54 C-49.03 53.505 -49.03 53.505 -46 53 C-46 51.68 -46 50.36 -46 49 C-45.01 49 -44.02 49 -43 49 C-43 48.34 -43 47.68 -43 47 C-42.01 47 -41.02 47 -40 47 C-40 46.34 -40 45.68 -40 45 C-39.34 45 -38.68 45 -38 45 C-38 43.35 -38 41.7 -38 40 C-36.515 40.495 -36.515 40.495 -35 41 C-34.67 40.01 -34.34 39.02 -34 38 C-31.4375 36.8125 -31.4375 36.8125 -29 36 C-29 35.01 -29 34.02 -29 33 C-28.34 33 -27.68 33 -27 33 C-26.67 31.35 -26.34 29.7 -26 28 C-24.68 28 -23.36 28 -22 28 C-22 26.35 -22 24.7 -22 23 C-20.68 23 -19.36 23 -18 23 C-17.67 21.35 -17.34 19.7 -17 18 C-15.35 18.33 -13.7 18.66 -12 19 C-12.33 17.35 -12.66 15.7 -13 14 C-11.68 14 -10.36 14 -9 14 C-9 12.35 -9 10.7 -9 9 C-8.34 9 -7.68 9 -7 9 C-7 9.99 -7 10.98 -7 12 C-4.81628991 11.18727401 -4.81628991 11.18727401 -4.21875 9.00390625 C-3.9815625 8.19824219 -3.744375 7.39257812 -3.5 6.5625 C-2.21640091 2.21640091 -2.21640091 2.21640091 0 0 Z M0 11 C-0.99 12.98 -1.98 14.96 -3 17 C-3.99 17 -4.98 17 -6 17 C-6.433125 17.969375 -6.86625 18.93875 -7.3125 19.9375 C-9 23 -9 23 -12 24 C-12 24.99 -12 25.98 -12 27 C-13.32 27.33 -14.64 27.66 -16 28 C-15.67 29.32 -15.34 30.64 -15 32 C-16.32 31.34 -17.64 30.68 -19 30 C-21.68149334 32.3239609 -22.92433164 33.77299491 -24.0625 37.1875 C-24.371875 38.115625 -24.68125 39.04375 -25 40 C-25.99 40.33 -26.98 40.66 -28 41 C-28 41.66 -28 42.32 -28 43 C-28.99 43.495 -28.99 43.495 -30 44 C-29.67 44.66 -29.34 45.32 -29 46 C-30.1446875 45.9071875 -30.1446875 45.9071875 -31.3125 45.8125 C-33.99643969 45.77062434 -33.99643969 45.77062434 -35.8125 47.25 C-37.37433428 49.19917293 -37.37433428 49.19917293 -37 53 C-38.65 53 -40.3 53 -42 53 C-42.33 54.98 -42.66 56.96 -43 59 C-42.01 59.33 -41.02 59.66 -40 60 C-40 58.68 -40 57.36 -40 56 C-39.01 56.33 -38.02 56.66 -37 57 C-37.99 57.495 -37.99 57.495 -39 58 C-39 58.66 -39 59.32 -39 60 C-36.83125748 59.49396008 -35.00032373 59.00016187 -33 58 C-30.875 58.4375 -30.875 58.4375 -29 59 C-29 58.01 -29 57.02 -29 56 C-28.01 56 -27.02 56 -26 56 C-25.87625 56.639375 -25.7525 57.27875 -25.625 57.9375 C-25.41875 58.618125 -25.2125 59.29875 -25 60 C-24.34 60.33 -23.68 60.66 -23 61 C-23 60.34 -23 59.68 -23 59 C-21.35 59.33 -19.7 59.66 -18 60 C-18 60.66 -18 61.32 -18 62 C-17.01 62 -16.02 62 -15 62 C-15 60.68 -15 59.36 -15 58 C-14.01 58 -13.02 58 -12 58 C-12 58.66 -12 59.32 -12 60 C-11.45472656 59.62875 -10.90945312 59.2575 -10.34765625 58.875 C-7.06628731 57.65199394 -5.59555097 58.62506624 -2.4375 60 C0.3470447 61.27983865 0.3470447 61.27983865 3 62 C3.99 61.34 4.98 60.68 6 60 C9.1875 59.875 9.1875 59.875 12 60 C12.33 60.99 12.66 61.98 13 63 C13.33 62.01 13.66 61.02 14 60 C16.375 59.875 16.375 59.875 19 60 C19.66 60.66 20.32 61.32 21 62 C23.60280568 61.67958603 23.60280568 61.67958603 26 61 C26.66 58.69 27.32 56.38 28 54 C27.01 54 26.02 54 25 54 C25.33 52.02 25.66 50.04 26 48 C25.01 48 24.02 48 23 48 C22.505 48.99 22.505 48.99 22 50 C21.83564453 49.04287109 21.83564453 49.04287109 21.66796875 48.06640625 C21.43013672 46.82697266 21.43013672 46.82697266 21.1875 45.5625 C21.03667969 44.73878906 20.88585937 43.91507813 20.73046875 43.06640625 C20.48941406 42.38449219 20.24835938 41.70257813 20 41 C19.01 40.67 18.02 40.34 17 40 C17 38.02 17 36.04 17 34 C15.68 34.99 14.36 35.98 13 37 C13.33 35.68 13.66 34.36 14 33 C13.01 33 12.02 33 11 33 C11 32.34 11 31.68 11 31 C11.99 31 12.98 31 14 31 C13.505 29.515 13.505 29.515 13 28 C12.01 28 11.02 28 10 28 C9.34 28 8.68 28 8 28 C8.66 26.35 9.32 24.7 10 23 C9.01 22.34 8.02 21.68 7 21 C5.8584263 18.71265564 4.97854949 16.38163929 4.0625 13.99609375 C3.10989294 11.65393656 3.10989294 11.65393656 0 11 Z " fill="#CD0A14" transform="translate(113,116)"/>
<path d="M0 0 C2.97 0.495 2.97 0.495 6 1 C6 1.66 6 2.32 6 3 C6.45375 2.505 6.9075 2.01 7.375 1.5 C9 0 9 0 11 0 C11 0.66 11 1.32 11 2 C12.98 2 14.96 2 17 2 C17.4125 2.969375 17.825 3.93875 18.25 4.9375 C19.64899168 8.12260099 19.64899168 8.12260099 22.1875 8.875 C22.785625 8.91625 23.38375 8.9575 24 9 C24 10.65 24 12.3 24 14 C24.969375 14.268125 25.93875 14.53625 26.9375 14.8125 C27.948125 15.204375 28.95875 15.59625 30 16 C30.495 17.485 30.495 17.485 31 19 C30.67 19.66 30.34 20.32 30 21 C30.66 21 31.32 21 32 21 C31.505 23.475 31.505 23.475 31 26 C31.66 26.33 32.32 26.66 33 27 C33.33 26.34 33.66 25.68 34 25 C33.505 27.475 33.505 27.475 33 30 C33.66 30 34.32 30 35 30 C34.67 31.32 34.34 32.64 34 34 C32.02 34.495 32.02 34.495 30 35 C30.33 36.051875 30.66 37.10375 31 38.1875 C31.83966782 41.38873357 32.19750904 43.7411008 32 47 C31.01 46.505 31.01 46.505 30 46 C30 44.68 30 43.36 30 42 C29.34 42 28.68 42 28 42 C28 44.64 28 47.28 28 50 C25.525 50.495 25.525 50.495 23 51 C23.99 51.495 23.99 51.495 25 52 C25 52.66 25 53.32 25 54 C22.03 54.495 22.03 54.495 19 55 C19 55.99 19 56.98 19 58 C15.25 59.125 15.25 59.125 13 58 C13 58.99 13 59.98 13 61 C11.68 61.66 10.36 62.32 9 63 C9 61.68 9 60.36 9 59 C8.34 59 7.68 59 7 59 C7 59.66 7 60.32 7 61 C6.01 61 5.02 61 4 61 C4 61.66 4 62.32 4 63 C-0.08718695 63.24042276 -3.17679443 62.42258812 -7 61 C-7 60.34 -7 59.68 -7 59 C-11.10188836 57.58184604 -11.10188836 57.58184604 -15.3125 56.5625 C-16.1478125 56.2840625 -16.1478125 56.2840625 -17 56 C-17.495 54.515 -17.495 54.515 -18 53 C-20.50447516 51.78130071 -20.50447516 51.78130071 -23 51 C-23 50.01 -23 49.02 -23 48 C-23.66 47.67 -24.32 47.34 -25 47 C-24.34 46.34 -23.68 45.68 -23 45 C-23.66 44.34 -24.32 43.68 -25 43 C-26.25 39.5625 -26.25 39.5625 -27 36 C-26.34 35.01 -25.68 34.02 -25 33 C-26.485 33.495 -26.485 33.495 -28 34 C-27.47157855 29.03283839 -26.33566693 24.70814106 -24.62109375 20.015625 C-23.85276187 17.87369512 -23.85276187 17.87369512 -24 15 C-22.35 15 -20.7 15 -19 15 C-19 14.34 -19 13.68 -19 13 C-19.99 12.67 -20.98 12.34 -22 12 C-18.375 9 -18.375 9 -15 9 C-14.67 8.01 -14.34 7.02 -14 6 C-13.34 6.33 -12.68 6.66 -12 7 C-12 6.34 -12 5.68 -12 5 C-10 4 -10 4 -7.9375 3.5625 C-7.298125 3.376875 -6.65875 3.19125 -6 3 C-5.67 2.34 -5.34 1.68 -5 1 C-2.525 1.495 -2.525 1.495 0 2 C0 1.34 0 0.68 0 0 Z M4 5 C4 6.65 4 8.3 4 10 C2.68 9.34 1.36 8.68 0 8 C0 8.99 0 9.98 0 11 C-2.97 10.505 -2.97 10.505 -6 10 C-6.33 11.32 -6.66 12.64 -7 14 C-9.475 13.01 -9.475 13.01 -12 12 C-12.2475 12.61875 -12.495 13.2375 -12.75 13.875 C-14.20628639 16.35068687 -15.37812506 16.95125002 -18 18 C-17.01 18.66 -16.02 19.32 -15 20 C-15.33 21.32 -15.66 22.64 -16 24 C-16.66 24 -17.32 24 -18 24 C-18 24.66 -18 25.32 -18 26 C-18.99 26.33 -19.98 26.66 -21 27 C-20.814375 27.763125 -20.62875 28.52625 -20.4375 29.3125 C-20 32 -20 32 -21 35 C-20.360625 35.12375 -19.72125 35.2475 -19.0625 35.375 C-18.0415625 35.684375 -18.0415625 35.684375 -17 36 C-16.67 36.66 -16.34 37.32 -16 38 C-16.99 38 -17.98 38 -19 38 C-17.6910428 41.12197478 -17.6910428 41.12197478 -15 43 C-14.505 43.680625 -14.01 44.36125 -13.5 45.0625 C-12.7575 46.0215625 -12.7575 46.0215625 -12 47 C-11.34 47 -10.68 47 -10 47 C-9.67 47.99 -9.34 48.98 -9 50 C-8.01 50 -7.02 50 -6 50 C-6 50.99 -6 51.98 -6 53 C-5.05125 53 -4.1025 53 -3.125 53 C-1.41666667 53 0.29166667 53 2 53 C2 53.66 2 54.32 2 55 C3.65 55 5.3 55 7 55 C7 54.34 7 53.68 7 53 C7.66 53 8.32 53 9 53 C9 52.01 9 51.02 9 50 C10.32 50 11.64 50 13 50 C13 50.99 13 51.98 13 53 C13.66 53 14.32 53 15 53 C15 51.35 15 49.7 15 48 C15.99 48 16.98 48 18 48 C19.02028865 46.68212715 20.01971384 45.34789347 21 44 C21.99 43.67 22.98 43.34 24 43 C24 42.34 24 41.68 24 41 C23.01 40.505 23.01 40.505 22 40 C22.66 39.34 23.32 38.68 24 38 C24.6425235 35.93125966 24.6425235 35.93125966 25 34 C25.66 34 26.32 34 27 34 C26.68817931 32.58318366 26.37551263 31.16655349 26.0625 29.75 C25.88847656 28.96109375 25.71445313 28.1721875 25.53515625 27.359375 C25.052444 25.23121297 24.53836822 23.11467158 24 21 C23.34 21 22.68 21 22 21 C21.505 18.525 21.505 18.525 21 16 C20.34 16 19.68 16 19 16 C19 15.34 19 14.68 19 14 C17.88625 13.319375 16.7725 12.63875 15.625 11.9375 C14.99851563 11.55464844 14.37203125 11.17179687 13.7265625 10.77734375 C13.15679687 10.52082031 12.58703125 10.26429687 12 10 C11.34 10.33 10.68 10.66 10 11 C10 10.34 10 9.68 10 9 C9.38125 8.896875 8.7625 8.79375 8.125 8.6875 C6 8 6 8 4 5 Z " fill="#D50A14" transform="translate(175,66)"/>
<path d="M0 0 C0.66 0 1.32 0 2 0 C2.33 0.99 2.66 1.98 3 3 C5.31 3.33 7.62 3.66 10 4 C10 4.99 10 5.98 10 7 C10.78375 7.103125 11.5675 7.20625 12.375 7.3125 C15 8 15 8 17 11 C19.56282742 11.72965366 19.56282742 11.72965366 22 12 C22 12.66 22 13.32 22 14 C21.01 14 20.02 14 19 14 C19.680625 15.2065625 19.680625 15.2065625 20.375 16.4375 C22.2585056 20.56672383 23.16165904 24.56172434 24 29 C23.01 29 22.02 29 21 29 C21 31.97 21 34.94 21 38 C19.68 38 18.36 38 17 38 C17 39.98 17 41.96 17 44 C15.35 43.67 13.7 43.34 12 43 C11.67 44.98 11.34 46.96 11 49 C10.01 49 9.02 49 8 49 C8 49.66 8 50.32 8 51 C7.34 51 6.68 51 6 51 C5.67 50.34 5.34 49.68 5 49 C4.4225 49.20625 3.845 49.4125 3.25 49.625 C0.43496298 50.09417284 -0.52908735 49.31267234 -3 48 C-4.32 48 -5.64 48 -7 48 C-7.66 48.66 -8.32 49.32 -9 50 C-9.66 49.01 -10.32 48.02 -11 47 C-11.66 47 -12.32 47 -13 47 C-13.0825 46.21625 -13.165 45.4325 -13.25 44.625 C-13.71861846 41.90210663 -13.71861846 41.90210663 -15.8125 40.8125 C-17.20554711 40.2950825 -18.59875857 39.77810712 -19.9921875 39.26171875 C-22.68159461 37.57168277 -23.20432177 35.94373212 -24.3125 33 C-24.65925781 32.113125 -25.00601562 31.22625 -25.36328125 30.3125 C-26 28 -26 28 -25 26 C-24.34 26.33 -23.68 26.66 -23 27 C-23 25.68 -23 24.36 -23 23 C-23.99 23 -24.98 23 -26 23 C-26 22.34 -26 21.68 -26 21 C-24.68 21 -23.36 21 -22 21 C-22 20.34 -22 19.68 -22 19 C-21.34 19 -20.68 19 -20 19 C-19.67 17.35 -19.34 15.7 -19 14 C-19.99 13.67 -20.98 13.34 -22 13 C-18.25 10 -18.25 10 -16 10 C-16.33 8.68 -16.66 7.36 -17 6 C-16.01 6 -15.02 6 -14 6 C-14 6.66 -14 7.32 -14 8 C-13.34 8 -12.68 8 -12 8 C-11.360625 7.34 -10.72125 6.68 -10.0625 6 C-8 4 -8 4 -5 4 C-4.34 3.34 -3.68 2.68 -3 2 C-2.34 2.66 -1.68 3.32 -1 4 C-0.67 2.68 -0.34 1.36 0 0 Z M4 8 C3.01 8.66 2.02 9.32 1 10 C-1.33294775 10.04241723 -3.66702567 10.04092937 -6 10 C-8.22915167 10.0557408 -8.22915167 10.0557408 -10 11 C-12.36080197 14.20075978 -12.36080197 14.20075978 -13 18 C-14.32 17.67 -15.64 17.34 -17 17 C-17.2981424 20.7763932 -17.2981424 20.7763932 -16 23 C-16.99 23.495 -16.99 23.495 -18 24 C-17.67 24.99 -17.34 25.98 -17 27 C-16.34 27 -15.68 27 -15 27 C-15 27.66 -15 28.32 -15 29 C-15.66 29 -16.32 29 -17 29 C-17.75428575 30.80935548 -17.75428575 30.80935548 -18 33 C-16.96785516 34.96738368 -16.96785516 34.96738368 -15.3125 36.6875 C-14.79300781 37.28949219 -14.27351563 37.89148438 -13.73828125 38.51171875 C-11.81984424 40.15424572 -10.46626903 40.59701487 -8 41 C-8.33 39.68 -8.66 38.36 -9 37 C-8.34 37 -7.68 37 -7 37 C-6.896875 37.598125 -6.79375 38.19625 -6.6875 38.8125 C-5.87744486 41.38994819 -5.19710995 42.43063575 -3 44 C-0.37429296 44.25069913 -0.37429296 44.25069913 2 44 C1.34 43.67 0.68 43.34 0 43 C3 43 3 43 5.4375 43.3125 C8.25447644 43.25412993 8.25447644 43.25412993 10.1875 40.5625 C10.785625 39.716875 11.38375 38.87125 12 38 C12.66 37.67 13.32 37.34 14 37 C14.144375 36.195625 14.28875 35.39125 14.4375 34.5625 C15 32 15 32 18 30 C17.67 29.67 17.34 29.34 17 29 C16.8453125 27.0509375 16.8453125 27.0509375 16.6875 25.0625 C16.50121862 22.90410781 16.50121862 22.90410781 16 21 C14.06616713 19.69934079 14.06616713 19.69934079 12 19 C11.25 16.875 11.25 16.875 11 15 C11.66 14.67 12.32 14.34 13 14 C11.77190909 12.35444301 11.77190909 12.35444301 10 11 C7.83700789 11.22757731 7.83700789 11.22757731 6 12 C5.34 10.68 4.68 9.36 4 8 Z " fill="#CA0A14" transform="translate(57,64)"/>
<path d="M0 0 C0.66 1.98 1.32 3.96 2 6 C-1 7 -1 7 -3.1875 6.0625 C-3.785625 5.711875 -4.38375 5.36125 -5 5 C-5 4.34 -5 3.68 -5 3 C-8.0745356 3.7763932 -8.0745356 3.7763932 -10 6 C-11.32 4.68 -12.64 3.36 -14 2 C-8.76579213 -1.27137992 -5.83394389 -1.10643764 0 0 Z " fill="#DB0914" transform="translate(119,177)"/>
<path d="M0 0 C4.95 0.99 4.95 0.99 10 2 C10 2.66 10 3.32 10 4 C4.375 6.125 4.375 6.125 1 5 C0.67 3.35 0.34 1.7 0 0 Z " fill="#BE0B14" transform="translate(91,139)"/>
<path d="M0 0 C0.99 0.33 1.98 0.66 3 1 C2.67 2.65 2.34 4.3 2 6 C0.68 6 -0.64 6 -2 6 C-2 6.66 -2 7.32 -2 8 C-2.66 7.67 -3.32 7.34 -4 7 C-2.92598892 4.08482708 -2.22189824 2.22189824 0 0 Z " fill="#990E15" transform="translate(113,116)"/>
<path d="M0 0 C0.66 0 1.32 0 2 0 C1.67 1.32 1.34 2.64 1 4 C0.67 2.68 0.34 1.36 0 0 Z M-4 1 C-3.34 1.33 -2.68 1.66 -2 2 C-2.33 2.66 -2.66 3.32 -3 4 C-2.01 4 -1.02 4 0 4 C-0.33 4.66 -0.66 5.32 -1 6 C-2.65 5.67 -4.3 5.34 -6 5 C-6.33 4.01 -6.66 3.02 -7 2 C-6.01 1.67 -5.02 1.34 -4 1 Z " fill="#DF0914" transform="translate(98,174)"/>
<path d="M0 0 C2.125 0.9375 2.125 0.9375 4 2 C4 3.32 4 4.64 4 6 C3.01 6 2.02 6 1 6 C1 5.34 1 4.68 1 4 C0.01 3.67 -0.98 3.34 -2 3 C-2 2.34 -2 1.68 -2 1 C-1.34 0.67 -0.68 0.34 0 0 Z " fill="#671216" transform="translate(39,104)"/>
<path d="M0 0 C2.475 0.99 2.475 0.99 5 2 C4.67 3.32 4.34 4.64 4 6 C2.68 6 1.36 6 0 6 C0 4.02 0 2.04 0 0 Z " fill="#511316" transform="translate(116,117)"/>
<path d="M0 0 C1.65 0.99 3.3 1.98 5 3 C4.67 3.66 4.34 4.32 4 5 C3.34 5 2.68 5 2 5 C1.67 4.34 1.34 3.68 1 3 C0.67 3.66 0.34 4.32 0 5 C-0.99 4.67 -1.98 4.34 -3 4 C-3 3.34 -3 2.68 -3 2 C-2.01 1.34 -1.02 0.68 0 0 Z " fill="#581216" transform="translate(187,76)"/>
<path d="M0 0 C0.99 1.485 0.99 1.485 2 3 C4.05925139 3.72382467 4.05925139 3.72382467 6 4 C6 4.66 6 5.32 6 6 C4.34385343 6.38218767 2.67542976 6.71395102 1 7 C0 6 0 6 -0.0625 2.9375 C-0.041875 1.968125 -0.02125 0.99875 0 0 Z " fill="#711116" transform="translate(179,71)"/>
<path d="M0 0 C0.99 0.33 1.98 0.66 3 1 C3.33 1.99 3.66 2.98 4 4 C1.03 4 -1.94 4 -5 4 C-3.68 3.67 -2.36 3.34 -1 3 C-0.67 2.01 -0.34 1.02 0 0 Z " fill="#DF0914" transform="translate(80,174)"/>
<path d="M0 0 C0.33 0.66 0.66 1.32 1 2 C0.34 2 -0.32 2 -1 2 C-1 2.66 -1 3.32 -1 4 C-1.99 4 -2.98 4 -4 4 C-4 4.66 -4 5.32 -4 6 C-4.99 5.67 -5.98 5.34 -7 5 C-4.53846154 1.18461538 -4.53846154 1.18461538 -1.8125 0.25 C-1.214375 0.1675 -0.61625 0.085 0 0 Z " fill="#421416" transform="translate(74,159)"/>
<path d="M0 0 C1.32 0 2.64 0 4 0 C4.33 1.32 4.66 2.64 5 4 C3.35 4.33 1.7 4.66 0 5 C0 3.35 0 1.7 0 0 Z " fill="#A20D15" transform="translate(184,116)"/>
<path d="M0 0 C0.66 0 1.32 0 2 0 C2.33 1.65 2.66 3.3 3 5 C2.34 5 1.68 5 1 5 C1 5.66 1 6.32 1 7 C0.01 6.67 -0.98 6.34 -2 6 C-2 5.34 -2 4.68 -2 4 C-1.34 3.67 -0.68 3.34 0 3 C0 2.01 0 1.02 0 0 Z " fill="#791016" transform="translate(48,101)"/>
<path d="M0 0 C0.99 0.33 1.98 0.66 3 1 C3 2.32 3 3.64 3 5 C1.68 5.33 0.36 5.66 -1 6 C-0.67 4.02 -0.34 2.04 0 0 Z " fill="#4E1316" transform="translate(163,78)"/>
</svg>
