<?xml version="1.0" encoding="UTF-8"?>
<svg version="1.1" xmlns="http://www.w3.org/2000/svg" width="240" height="240">
<path d="M0 0 C79.2 0 158.4 0 240 0 C240 79.2 240 158.4 240 240 C160.8 240 81.6 240 0 240 C0 160.8 0 81.6 0 0 Z " fill="#D32724" transform="translate(0,0)"/>
<path d="M0 0 C79.2 0 158.4 0 240 0 C240 27.06 240 54.12 240 82 C160.8 82 81.6 82 0 82 C0 54.94 0 27.88 0 0 Z " fill="#D32724" transform="translate(0,0)"/>
<path d="M0 0 C79.2 0 158.4 0 240 0 C240 12.87 240 25.74 240 39 C160.8 39 81.6 39 0 39 C0 26.13 0 13.26 0 0 Z " fill="#1C0000" transform="translate(0,43)"/>
<path d="M0 0 C0.72819931 0.00446144 1.45639861 0.00892289 2.20666456 0.01351953 C3.36479823 0.00883955 3.36479823 0.00883955 4.54632854 0.00406504 C7.14741705 -0.0039466 9.7482743 0.00242091 12.34936476 0.00869775 C14.20846141 0.00598929 16.06755699 0.00242918 17.92665052 -0.00192237 C22.98644897 -0.0110659 28.04616616 -0.00749405 33.10596609 -0.0011642 C38.39148767 0.00388566 43.6770021 -0.00079281 48.96252394 -0.00393653 C57.84001879 -0.00757914 66.71748041 -0.00276934 75.59497023 0.00674462 C85.87079278 0.01762973 96.14653598 0.01410436 106.42235661 0.00309181 C115.23170401 -0.00597266 124.04102748 -0.00727046 132.85037804 -0.00203085 C138.11762655 0.00109348 143.38483773 0.00148554 148.65208387 -0.00510383 C153.60307435 -0.01086448 158.55396213 -0.00690398 163.50494146 0.00468469 C165.32629109 0.00733815 167.14764931 0.00655455 168.96899557 0.00215936 C171.44685571 -0.00327059 173.92438255 0.00350668 176.4022212 0.01351953 C177.49452016 0.00682736 177.49452016 0.00682736 178.60888577 0 C183.57614272 0.03918665 183.57614272 0.03918665 185.80444288 2.26748681 C186.01640678 4.79013978 186.10842972 7.20023407 186.10522413 9.72451806 C186.10950926 10.46449533 186.11379438 11.20447259 186.11820936 11.96687341 C186.12395708 13.53459676 186.12444967 15.1023468 186.12011671 16.6700747 C186.11696863 19.060436 186.14036689 21.44954534 186.16577101 23.83975244 C186.16804527 25.36383942 186.16874691 26.88792972 186.16772413 28.41201806 C186.17693388 29.12364602 186.18614363 29.83527398 186.19563246 30.56846642 C186.15500343 34.9639884 185.65769347 37.86545934 182.80444288 41.26748681 C178.67332116 43.4078549 175.09532652 43.52515532 170.4859767 43.54164147 C169.75906565 43.54687815 169.0321546 43.55211483 168.28321594 43.5575102 C165.85281695 43.5724857 163.42262895 43.5732148 160.99218702 43.5738833 C159.24750874 43.5815063 157.50283381 43.58993404 155.75816298 43.59910607 C151.02266353 43.62104081 146.28722865 43.62984831 141.55168414 43.63493252 C138.5928785 43.63857652 135.63408977 43.64481674 132.67529058 43.65193391 C122.35252976 43.67642237 112.02981916 43.68947953 101.70703077 43.69302392 C92.08492451 43.69666135 82.46313679 43.72657316 72.84112793 43.7684285 C64.57857022 43.80311036 56.31611822 43.81857198 48.05348819 43.81926996 C43.11914921 43.82006332 38.18513495 43.8288298 33.25087118 43.85726762 C28.6107555 43.88341304 23.97123463 43.8856733 19.33107901 43.86961198 C17.62910876 43.86779482 15.92710458 43.87451231 14.22520781 43.89043069 C11.89939788 43.91085712 9.57567609 43.90036253 7.24989271 43.88221765 C5.94928435 43.88422897 4.64867599 43.8862403 3.30865526 43.88831258 C-1.29679369 43.07238561 -2.91082208 41.5388408 -6.19555712 38.26748681 C-7.71819821 35.22220462 -7.35841249 32.04603435 -7.36352587 28.70498681 C-7.36685427 27.95789453 -7.37018267 27.21080224 -7.37361193 26.4410708 C-7.37867678 24.8607548 -7.38102039 23.2804281 -7.38085985 21.700104 C-7.38304846 19.27707438 -7.40121413 16.85449846 -7.42016649 14.43154931 C-7.42310004 12.89769671 -7.42508509 11.36384193 -7.42602587 9.82998681 C-7.43321138 9.10287499 -7.4403969 8.37576318 -7.44780016 7.62661767 C-7.41927737 1.37718666 -6.27897236 0.04953476 0 0 Z " fill="#FCBB70" transform="translate(31.195557117462158,94.7325131893158)"/>
<path d="M0 0 C11.22 0 22.44 0 34 0 C34.061875 4.681875 34.12375 9.36375 34.1875 14.1875 C34.22846802 16.39022583 34.22846802 16.39022583 34.27026367 18.63745117 C34.27775635 19.80252197 34.28524902 20.96759277 34.29296875 22.16796875 C34.3086792 23.35672607 34.32438965 24.5454834 34.34057617 25.77026367 C33.96668746 29.31590796 33.12877583 31.17058165 31 34 C28.58225419 35.20887291 27.06668936 35.12059343 24.36669922 35.11352539 C23.40585419 35.11344986 22.44500916 35.11337433 21.45504761 35.11329651 C20.41542877 35.10813522 19.37580994 35.10297394 18.3046875 35.09765625 C17.24210724 35.0962413 16.17952698 35.09482635 15.08474731 35.09336853 C11.68146991 35.08775834 8.27825762 35.07520409 4.875 35.0625 C2.57161553 35.05748631 0.26823003 35.05292318 -2.03515625 35.04882812 C-7.69012649 35.0377856 -13.34505859 35.02103752 -19 35 C-18.73046875 33.09375 -18.73046875 33.09375 -18 31 C-16.05967175 30.21071393 -14.11186951 29.43300375 -12.125 28.76953125 C-5.46917491 26.35924165 -1.61773187 21.73961696 2.3125 16.125 C3.44791193 12.61554494 3.29281908 9.68952036 3 6 C1.60414215 4.18523997 1.60414215 4.18523997 0 3 C0 2.01 0 1.02 0 0 Z " fill="#FEBE71" transform="translate(183,102)"/>
<path d="M0 0 C0.73111215 0.0015486 1.46222429 0.0030972 2.21549135 0.00469273 C2.98672604 0.00242718 3.75796073 0.00016162 4.55256617 -0.00217259 C7.15669924 -0.00854154 9.76078065 -0.00768138 12.36492068 -0.00685817 C14.22386912 -0.00984786 16.08281694 -0.01324994 17.94176394 -0.01703578 C23.0057304 -0.02589927 28.06967999 -0.02821487 33.13365346 -0.02885157 C37.35360432 -0.02979868 41.57355121 -0.03347467 45.79350054 -0.03702366 C55.74520642 -0.04517711 65.69690325 -0.04760708 75.64861208 -0.04689723 C85.93179305 -0.04629616 96.21492161 -0.05685182 106.49808931 -0.0726409 C115.3116584 -0.08569382 124.12521032 -0.09108208 132.93878901 -0.09044182 C138.20941136 -0.09018618 143.47998716 -0.09307384 148.75059992 -0.10361987 C153.70567251 -0.11326318 158.66065369 -0.1134061 163.61572939 -0.10610324 C165.43869382 -0.10505269 167.26166382 -0.10744791 169.08461863 -0.1134637 C171.56471292 -0.12112059 174.04448656 -0.11658111 176.52457339 -0.10883266 C177.25345481 -0.11397622 177.98233624 -0.11911978 178.73330498 -0.12441921 C183.70525295 -0.08986574 183.70525295 -0.08986574 185.93352419 2.1384055 C185.93352419 3.4584055 185.93352419 4.7784055 185.93352419 6.1384055 C122.24352419 6.1384055 58.55352419 6.1384055 -7.06647581 6.1384055 C-5.84451304 0.02859166 -5.84451304 0.02859166 0 0 Z " fill="#D29F61" transform="translate(31.066475808620453,94.8615944981575)"/>
<path d="M0 0 C4.00591801 3.15617783 4.00591801 3.15617783 4.5 7.25 C4.32811154 13.18015184 1.36558866 17.34662259 -2.7578125 21.42578125 C-8.06394979 26.07697691 -11.47849737 26.85249197 -18.5625 26.9375 C-19.73619141 26.98100586 -19.73619141 26.98100586 -20.93359375 27.02539062 C-26.77332781 27.08833967 -31.03735201 25.83771413 -35.9375 22.625 C-38.47918437 20.08331563 -38.25049113 18.26970839 -38.3984375 14.79296875 C-37.7100101 11.5550263 -36.23400703 9.98883134 -33.9375 7.625 C-24.49187103 1.82035855 -11.0284447 -5.16225071 0 0 Z " fill="#171615" transform="translate(182.9375,104.375)"/>
<path d="M0 0 C7.82746868 1.93898717 14.85990856 4.7166655 21 10 C22.60480024 13.20960047 22.47072552 16.51801565 22 20 C19.64083324 23.79518131 16.05426033 25.21440697 11.89453125 26.44921875 C5.03993001 27.75353559 -3.03593024 28.60562469 -9.6328125 25.93359375 C-11.75739688 24.45123165 -13.32796612 22.97527428 -15 21 C-15.52207031 20.38511719 -16.04414062 19.77023438 -16.58203125 19.13671875 C-19.65530689 14.91202304 -20.57091337 11.25721669 -20.6640625 6.078125 C-17.91752781 -2.51691296 -7.11362191 -0.98166266 0 0 Z " fill="#171614" transform="translate(75,104)"/>
<path d="M0 0 C63.69 0 127.38 0 193 0 C193 0.33 193 0.66 193 1 C181.78 1 170.56 1 159 1 C159 1.66 159 2.32 159 3 C154.38 3 149.76 3 145 3 C145 2.34 145 1.68 145 1 C96.49 1.495 96.49 1.495 47 2 C47 2.33 47 2.66 47 3 C44.36 3 41.72 3 39 3 C39 2.34 39 1.68 39 1 C26.46 1 13.92 1 1 1 C1 10.57 1 20.14 1 30 C0.67 30 0.34 30 0 30 C0 20.1 0 10.2 0 0 Z " fill="#F2B46C" transform="translate(24,101)"/>
</svg>
