<?xml version="1.0" encoding="UTF-8"?>
<svg version="1.1" xmlns="http://www.w3.org/2000/svg" width="240" height="241">
<path d="M0 0 C79.2 0 158.4 0 240 0 C240 79.53 240 159.06 240 241 C160.8 241 81.6 241 0 241 C0 161.47 0 81.94 0 0 Z " fill="#DEFE70" transform="translate(0,0)"/>
<path d="M0 0 C1.03161758 0.00090637 1.03161758 0.00090637 2.08407593 0.00183105 C28.31146621 0.06427269 63.9654713 1.85053804 84.28515625 21.1171875 C87.24696248 24.49210618 89.12411484 26.90347133 89.5625 31.375 C89.19757335 35.82710514 88.13143725 38.83012629 85.25 42.1875 C79.51970448 46.83631155 73.3568808 49.65448113 66.375 51.875 C65.4564624 52.16898682 64.5379248 52.46297363 63.59155273 52.76586914 C27.66943454 63.83951188 -18.04353929 61.24638422 -51.74243164 44.0793457 C-58.01757562 40.71146576 -63.55479927 36.68309325 -66.75 30.1875 C-67.51948561 26.40479506 -67.13252672 23.19163265 -65.75 19.5625 C-54.3542043 6.02999261 -33.84418011 2.20858993 -17.06713867 0.34423828 C-11.3866244 -0.04000892 -5.6910486 -0.00919078 0 0 Z " fill="#F0A946" transform="translate(108.75,134.8125)"/>
<path d="M0 0 C1.03161758 0.00090637 1.03161758 0.00090637 2.08407593 0.00183105 C28.31146621 0.06427269 63.9654713 1.85053804 84.28515625 21.1171875 C87.24696248 24.49210618 89.12411484 26.90347133 89.5625 31.375 C89.19757335 35.82710514 88.13143725 38.83012629 85.25 42.1875 C79.51970448 46.83631155 73.3568808 49.65448113 66.375 51.875 C65.4564624 52.16898682 64.5379248 52.46297363 63.59155273 52.76586914 C27.66943454 63.83951188 -18.04353929 61.24638422 -51.74243164 44.0793457 C-58.01757562 40.71146576 -63.55479927 36.68309325 -66.75 30.1875 C-67.51948561 26.40479506 -67.13252672 23.19163265 -65.75 19.5625 C-54.3542043 6.02999261 -33.84418011 2.20858993 -17.06713867 0.34423828 C-11.3866244 -0.04000892 -5.6910486 -0.00919078 0 0 Z M-53.25 21.5 C-54.075 22.386875 -54.9 23.27375 -55.75 24.1875 C-55.33044149 29.08234933 -53.33305906 30.96924333 -49.75 34.1875 C-40.00307333 40.26146457 -28.92526432 42.37642953 -17.75 44.1875 C-16.68612061 44.36700195 -15.62224121 44.54650391 -14.52612305 44.73144531 C-4.64699565 46.24007723 5.04256052 46.49588799 15.01977539 46.44824219 C17.68073373 46.43752725 20.34101516 46.44819988 23.00195312 46.4609375 C49.07683404 46.65172605 49.07683404 46.65172605 72.25 36.1875 C74.47648908 34.36872886 74.47648908 34.36872886 74.55859375 31.77734375 C74.07695518 27.73523781 72.1562797 26.42737986 69.07421875 23.953125 C42.22479912 7.16759572 -27.63508559 -0.08388206 -53.25 21.5 Z " fill="#D6974E" transform="translate(108.75,134.8125)"/>
<path d="M0 0 C0.495 0.99 0.495 0.99 1 2 C0.67 2.66 0.34 3.32 0 4 C0.99 4.495 0.99 4.495 2 5 C-2.52611219 7.89168279 -2.52611219 7.89168279 -5.1875 8.5 C-7.40546281 8.89906646 -7.40546281 8.89906646 -9 12 C-10.875 12.51953125 -10.875 12.51953125 -13 12.8125 C-15.14018313 13.20702226 -15.14018313 13.20702226 -17 14 C-18.56714195 16.86754034 -18.56714195 16.86754034 -19 20 C-19.495 21.485 -19.495 21.485 -20 23 C-21.875 23.625 -21.875 23.625 -24 24 C-24.99 24.33 -25.98 24.66 -27 25 C-26.89300781 25.73605469 -26.78601563 26.47210938 -26.67578125 27.23046875 C-25.69277413 35.23193532 -25.69277413 35.23193532 -27.25 39.125 C-29 41 -29 41 -32 42 C-34.80426452 42.08518867 -37.5829635 42.1158852 -40.38671875 42.09765625 C-41.20372757 42.0962413 -42.02073639 42.09482635 -42.86250305 42.09336853 C-45.47087268 42.08777294 -48.07915634 42.07522129 -50.6875 42.0625 C-52.45637897 42.05748443 -54.22525928 42.05292162 -55.99414062 42.04882812 C-60.32946019 42.03780496 -64.66471552 42.02054338 -69 42 C-69 40 -69 38 -69 36 C-69.350625 35.401875 -69.70125 34.80375 -70.0625 34.1875 C-71.16347909 31.61854879 -70.92078561 30.5781997 -70 28 C-70.99 28 -71.98 28 -73 28 C-72.67 26.68 -72.34 25.36 -72 24 C-72 24.66 -72 25.32 -72 26 C-71.34 26 -70.68 26 -70 26 C-69.67 24.35 -69.34 22.7 -69 21 C-67.88625 21.556875 -67.88625 21.556875 -66.75 22.125 C-64.10345719 23.22081308 -64.10345719 23.22081308 -61.75 22.5 C-59.21212368 20.32467744 -59.28092129 18.2305948 -59 15 C-57.35 14.67 -55.7 14.34 -54 14 C-54.185625 13.113125 -54.37125 12.22625 -54.5625 11.3125 C-54.98042484 8.14821189 -54.80777742 6.05160358 -54 3 C-48.86621495 2.20337818 -45.14212073 2.13152517 -40 3 C-30.34185836 3.52921324 -21.19059953 3.01793712 -11.7097168 1.06738281 C-7.73198959 0.25079222 -4.06086684 -0.15157201 0 0 Z " fill="#DEFE70" transform="translate(143,199)"/>
<path d="M0 0 C1.03161758 0.00090637 1.03161758 0.00090637 2.08407593 0.00183105 C29.1750976 0.06632881 62.67760405 2.31992652 84.28515625 20.94140625 C87.95371202 24.81810702 89.03349497 27.88312687 89.25 33.1875 C88.3425 32.589375 87.435 31.99125 86.5 31.375 C83.17014357 29.44611975 79.99553396 28.53918548 76.25 27.6875 C72.06520545 26.72654718 68.90200389 25.57396085 65.23046875 23.2890625 C38.15115658 8.22719656 -8.167545 7.31306079 -37.3125 15.36328125 C-39.97664345 16.1635078 -42.58035496 17.04533111 -45.20703125 17.96875 C-49.03251671 19.28468326 -52.81764628 20.2417952 -56.75 21.1875 C-58.08594686 21.55308005 -59.42033839 21.92468203 -60.75 22.3125 C-61.74 22.60125 -62.73 22.89 -63.75 23.1875 C-64.70024979 26.88291586 -64.70024979 29.49208414 -63.75 33.1875 C-65.25 32.1875 -65.25 32.1875 -66.75 30.1875 C-67.14542831 26.10140748 -67.20425355 23.37991557 -65.75 19.5625 C-54.3542043 6.02999261 -33.84418011 2.20858993 -17.06713867 0.34423828 C-11.3866244 -0.04000892 -5.6910486 -0.00919078 0 0 Z " fill="#E19337" transform="translate(108.75,134.8125)"/>
<path d="M0 0 C5.50796464 2.6977786 8.50762445 6.52617897 11 12 C14.37029002 23.00146482 13.29681542 32.41612644 9 43 C6.39673148 47.53135777 3.93007103 50.98792072 -1 53 C-4.44059909 53.51933571 -6.84782605 53.68609948 -9.90234375 51.8671875 C-15.26769241 47.53407294 -17.91608229 42.81454349 -19 36 C-19.70984047 24.61927907 -19.44278316 14.87914812 -13.0625 5 C-8.97543711 1.0367875 -5.78744094 -0.82677728 0 0 Z " fill="#191917" transform="translate(171,52)"/>
<path d="M0 0 C6.17621344 4.27584007 9.00931297 8.8680758 11 16 C12.19370466 26.69014426 11.8656445 37.11441431 5.50390625 46.1171875 C3.07985483 49.12760547 1.73214024 50.75595325 -2 52 C-5.93386967 52.36424719 -8.23607847 52.44414043 -11.6875 50.4375 C-18.23373803 43.53741127 -21.132364 34.94810183 -21.375 25.5625 C-21.06853771 15.43745732 -18.86424678 9.17946291 -11.9375 1.71484375 C-8.06885002 -1.70922347 -4.79183874 -1.13704648 0 0 Z " fill="#191917" transform="translate(76,53)"/>
<path d="M0 0 C1.07894531 0.51949219 2.15789063 1.03898438 3.26953125 1.57421875 C40.5823962 19.12057559 83.44236462 20.18769728 123 10 C120.73349701 14.53300598 112.62323429 16.35873522 108.03808594 18.01806641 C101.93079729 19.99199078 95.68819398 21.4366352 89.4375 22.875 C88.7841568 23.02593109 88.1308136 23.17686218 87.45767212 23.33236694 C62.08583028 29.14145237 38.01835624 28.54679442 15.1875 14.6875 C9.71145373 11.00391332 4.52300101 6.81733947 0 2 C0 1.34 0 0.68 0 0 Z " fill="#D4ED7B" transform="translate(53,176)"/>
<path d="M0 0 C1.32 0 2.64 0 4 0 C3.67 4.95 3.34 9.9 3 15 C2.67 15 2.34 15 2 15 C1.87625 14.195625 1.7525 13.39125 1.625 12.5625 C1.41875 11.716875 1.2125 10.87125 1 10 C0.34 9.67 -0.32 9.34 -1 9 C-1 9.99 -1 10.98 -1 12 C-1.99 12.33 -2.98 12.66 -4 13 C-4.99 11.35 -5.98 9.7 -7 8 C-3.375 3.125 -3.375 3.125 0 2 C0 1.34 0 0.68 0 0 Z " fill="#DEFF6E" transform="translate(149,69)"/>
<path d="M0 0 C1.32 0 2.64 0 4 0 C3.67 4.95 3.34 9.9 3 15 C2.67 15 2.34 15 2 15 C1.32741333 12.66836622 0.66152556 10.3347961 0 8 C-0.226875 7.278125 -0.45375 6.55625 -0.6875 5.8125 C-1.06529676 3.6212788 -0.67461917 2.09881518 0 0 Z " fill="#C5E164" transform="translate(149,69)"/>
</svg>
