<?xml version="1.0" encoding="UTF-8"?>
<svg version="1.1" xmlns="http://www.w3.org/2000/svg" width="240" height="240">
<path d="M0 0 C79.2 0 158.4 0 240 0 C240 79.2 240 158.4 240 240 C160.8 240 81.6 240 0 240 C0 160.8 0 81.6 0 0 Z " fill="#76CBF3" transform="translate(0,0)"/>
<path d="M0 0 C15.51 0 31.02 0 47 0 C47 79.2 47 158.4 47 240 C-32.2 240 -111.4 240 -193 240 C-193 227.13 -193 214.26 -193 201 C-188.38 202.32 -183.76 203.64 -179 205 C-175.23153738 205.93144546 -171.47294899 206.83625297 -167.6875 207.6875 C-166.77677734 207.89955078 -165.86605469 208.11160156 -164.92773438 208.33007812 C-141.26075855 213.70046562 -112.87274325 213.41858289 -89.84448242 205.23388672 C-82.10435585 202.60679443 -75.09642522 202.80675911 -67.00976562 203.1171875 C-56.35389374 203.36388293 -47.66822127 200.78244607 -38.3125 195.8125 C-37.59900391 195.44447266 -36.88550781 195.07644531 -36.15039062 194.69726562 C-34.42872091 193.80754369 -32.71359599 192.90517429 -31 192 C-34.66864103 187.04237699 -38.08330842 184.38852457 -43.625 181.75 C-44.33285645 181.40646484 -45.04071289 181.06292969 -45.77001953 180.70898438 C-51.41515841 178.07023101 -56.75147493 176.43866401 -63 176 C-63.81597656 175.93167969 -64.63195312 175.86335937 -65.47265625 175.79296875 C-78.30950106 175.24369013 -91.49427129 180.07183452 -101.25 188.375 C-102.1575 189.24125 -103.065 190.1075 -104 191 C-112.68597309 187.22690762 -119.14690766 178.3966232 -123 170 C-124.05025043 167.29835978 -124.98563509 164.57099025 -125.875 161.8125 C-126.19839355 160.81464478 -126.19839355 160.81464478 -126.52832031 159.79663086 C-127.91700481 155.16365235 -128 152.05811931 -128 147 C-87.74 147 -47.48 147 -6 147 C-5.67 147.66 -5.34 148.32 -5 149 C-4.38125 148.01 -3.7625 147.02 -3.125 146 C-2.42375 145.01 -1.7225 144.02 -1 143 C-0.34 143 0.32 143 1 143 C1.5878125 144.11375 1.5878125 144.11375 2.1875 145.25 C4.51732759 148.78491083 7.06244145 150.62111714 11 152 C16.95405759 152.96001906 22.07577357 152.29454992 27.30859375 149.25 C31.66448003 146.03086927 33.1803893 142.31321529 34 137.125 C34.33130523 131.88722207 33.09857114 128.20937966 30 124 C27.62157423 121.59593616 27.62157423 121.59593616 25 120 C24.401875 119.608125 23.80375 119.21625 23.1875 118.8125 C19.87118736 117.58072674 16.51086747 117.4082404 13 117 C13.17128418 116.42668945 13.34256836 115.85337891 13.51904297 115.26269531 C14.31175082 112.59393005 15.09338459 109.92203409 15.875 107.25 C16.14441406 106.34894531 16.41382813 105.44789062 16.69140625 104.51953125 C25.4836758 74.28270181 22.71497885 40.95116531 8 13 C5.9958829 9.55984175 3.79603024 6.28602661 1.46875 3.0546875 C0 1 0 1 0 0 Z " fill="#36BCE6" transform="translate(193,0)"/>
<path d="M0 0 C1.2578125 1.625 1.2578125 1.625 1.59375 4.1484375 C1.2578125 6.625 1.2578125 6.625 -0.9921875 9.25 C-9.03463333 15.25644271 -21.44665383 15.38103396 -31.0546875 16.5625 C-55.70458379 19.57612424 -55.70458379 19.57612424 -76.1796875 32.8125 C-82.60368966 41.42179322 -84.56715886 51.52562741 -86.31103516 61.88720703 C-88.04192335 72.09732948 -90.18689684 82.06970934 -97.7421875 89.625 C-100.30964096 90.90872673 -101.9082664 91.06098786 -104.7421875 90.625 C-108.70882166 87.44057087 -109.04635372 83.44247879 -109.7421875 78.625 C-109.99989603 75.42927178 -110.04649538 72.25594391 -110.04296875 69.05078125 C-110.04725388 68.16448532 -110.051539 67.27818939 -110.05595398 66.36503601 C-110.06166085 64.50028328 -110.06222465 62.63550831 -110.05786133 60.77075195 C-110.05471495 57.96200226 -110.07815952 55.15432209 -110.10351562 52.34570312 C-110.16670134 34.96107246 -108.45631684 17.46307091 -95.9296875 4.125 C-72.90404325 -16.63364066 -24.82558702 -18.28160383 0 0 Z " fill="#BDE3F7" transform="translate(109.7421875,16.375)"/>
<path d="M0 0 C79.2 0 158.4 0 240 0 C240 5.61 240 11.22 240 17 C160.8 17 81.6 17 0 17 C0 11.39 0 5.78 0 0 Z " fill="#11B3D8" transform="translate(0,223)"/>
<path d="M0 0 C39.93 0 79.86 0 121 0 C121 15.66312773 115.64173713 28.27241683 104.8125 39.625 C102.37392302 42.05861043 100.54173097 43.82501329 97 44 C95.31640625 42.77734375 95.31640625 42.77734375 93.5625 40.9375 C83.86528649 31.92521978 70.61484523 28.40410368 57.58984375 28.75390625 C44.83655347 29.96575736 33.24673111 35.17357485 24 44 C15.31402691 40.22690762 8.85309234 31.3966232 5 23 C3.94974957 20.29835978 3.01436491 17.57099025 2.125 14.8125 C1.9094043 14.14726318 1.69380859 13.48202637 1.47167969 12.79663086 C0.08299519 8.16365235 0 5.05811931 0 0 Z " fill="#000000" transform="translate(65,147)"/>
<path d="M0 0 C7.07934603 3.96443378 11.54435385 9.00806156 14.125 16.75 C14.75878614 25.41520729 14.94732571 33.22400972 10.125 40.75 C9.76277344 41.32234375 9.40054688 41.8946875 9.02734375 42.484375 C5.91324621 46.7491052 2.12221565 49.27635651 -2.875 50.75 C-9.80072772 51.74737936 -15.48080974 51.4729851 -21.19921875 47.22265625 C-27.26808579 41.88940945 -31.00645096 35.50172474 -32.2265625 27.421875 C-32.53574705 19.38307657 -29.86367209 12.02147349 -24.875 5.75 C-17.79944872 -1.11576404 -9.55784923 -3.84414596 0 0 Z " fill="#030505" transform="translate(192.875,57.25)"/>
<path d="M0 0 C6.69334078 3.99026085 11.47284773 9.1649061 13.80078125 16.7265625 C15.76232029 26.38074593 14.32239668 34.47383836 9.15234375 42.6796875 C6.0201603 46.94795105 2.27128393 49.48905271 -2.75 50.9375 C-9.16583858 51.86779659 -14.89093396 52.17176833 -20.3125 48.25 C-21.49441367 47.18454323 -22.64554916 46.08305943 -23.75 44.9375 C-24.4925 44.174375 -25.235 43.41125 -26 42.625 C-31.02970672 34.90080754 -32.95414034 28.22303584 -31.75 18.9375 C-29.65054504 11.03659257 -24.54566894 4.6979865 -18 -0.0625 C-11.9078241 -1.93701566 -6.10486238 -1.72971101 0 0 Z " fill="#040506" transform="translate(75.75,57.0625)"/>
<path d="M0 0 C2.37351159 2.22651815 4.09894709 4.33852593 6 7 C-9.6122593 17.25545701 -26.19557318 21.72426361 -44.71484375 18.31640625 C-52.9235385 15.91847239 -63.19703717 12.56241098 -69 6 C-49.98416272 -12.90397941 -22.06457337 -15.10977061 0 0 Z " fill="#E54F51" transform="translate(157,185)"/>
<path d="M0 0 C6.08239865 2.58689011 9.93995949 6.56659916 13.3125 12.1875 C14.59086116 17.41715928 14.26899683 22.4705231 11.8359375 27.3203125 C8.62111808 31.97922192 5.58655835 34.51025111 0 36 C-6.31397106 36.90937717 -11.08420985 36.33564667 -16.3046875 32.53125 C-20.16831157 29.04152504 -21.7230084 26.14668493 -22.375 21.09375 C-22.56594492 16.27239088 -22.42666008 12.88492462 -20.3125 8.5 C-14.35454997 2.05897294 -8.87427455 -1.42804418 0 0 Z " fill="#EC7B83" transform="translate(214,117)"/>
<path d="M0 0 C4.47413236 2.46605721 7.51255818 5.77511637 9.8125 10.375 C10.54478782 17.17481548 10.61179551 23.11124133 6.41796875 28.75 C2.23026336 32.98865071 -2.29250147 34.58434341 -8.1875 34.9375 C-13.53930427 34.69049365 -17.23141697 32.94823628 -21.1875 29.375 C-25.40432512 24.20938923 -25.81333303 19.78809511 -25.57421875 13.18359375 C-24.86798874 8.05450912 -22.4134802 5.47838218 -18.6875 2.125 C-12.5624028 -2.16256804 -6.96386184 -3.15940802 0 0 Z " fill="#ED7A83" transform="translate(46.1875,118.625)"/>
<path d="M0 0 C2.375 1.6875 2.375 1.6875 4 4 C4.25 6.75 4.25 6.75 4 9 C4.7425 9.226875 5.485 9.45375 6.25 9.6875 C10.09146563 11.52092678 12.11488412 14.22976824 14 18 C14.40282133 23.23667727 13.83087029 26.55148954 11 31 C8.40010102 33.88877665 7.0094552 33.99894942 3.0625 34.4375 C-0.02759082 34.3109041 -1.09298311 33.94542296 -3.875 32.3125 C-7.5975035 28.2615403 -8.08600057 25.25394463 -8 19.875 C-7.95875 19.02679688 -7.9175 18.17859375 -7.875 17.3046875 C-7.81916313 14.7200291 -7.81916313 14.7200291 -10 12 C-10.66453674 5.02236422 -10.66453674 5.02236422 -8.375 1.5 C-5.27859404 -0.45562482 -3.60146865 -0.60024477 0 0 Z " fill="#F9F9F9" transform="translate(184,65)"/>
<path d="M0 0 C2.77871234 2.55934031 3.91313862 4.02280949 4.25 7.8125 C4.1675 8.534375 4.085 9.25625 4 10 C4.7425 10.061875 5.485 10.12375 6.25 10.1875 C9.84889332 11.25080939 10.91859246 12.95222467 13 16 C14.60632723 19.21265446 14.47931944 22.51521812 14 26 C11.98497111 29.75212276 10.54533858 31.63644095 7 34 C0.09741551 34.66799205 0.09741551 34.66799205 -3.875 32.25 C-6.63313409 29.32962273 -7.93614558 27.37486557 -8.125 23.30859375 C-8.08375 22.36113281 -8.0425 21.41367188 -8 20.4375 C-7.77591784 15.94032454 -7.77591784 15.94032454 -10 12 C-10.66453674 5.02236422 -10.66453674 5.02236422 -8.375 1.5 C-5.25673949 -0.46942769 -3.62279473 -0.67927401 0 0 Z " fill="#FAFAFA" transform="translate(67,65)"/>
</svg>
