<svg width="44" height="44" viewBox="0 0 44 44" fill="none" xmlns="http://www.w3.org/2000/svg">
<path d="M4.125 8.25C4.125 7.88533 4.26987 7.53559 4.52773 7.27773C4.78559 7.01987 5.13533 6.875 5.5 6.875H38.5C38.8647 6.875 39.2144 7.01987 39.4723 7.27773C39.7301 7.53559 39.875 7.88533 39.875 8.25C39.875 8.61467 39.7301 8.96441 39.4723 9.22227C39.2144 9.48013 38.8647 9.625 38.5 9.625H5.5C5.13533 9.625 4.78559 9.48013 4.52773 9.22227C4.26987 8.96441 4.125 8.61467 4.125 8.25ZM38.5 34.375H5.5C5.13533 34.375 4.78559 34.5199 4.52773 34.7777C4.26987 35.0356 4.125 35.3853 4.125 35.75C4.125 36.1147 4.26987 36.4644 4.52773 36.7223C4.78559 36.9801 5.13533 37.125 5.5 37.125H38.5C38.8647 37.125 39.2144 36.9801 39.4723 36.7223C39.7301 36.4644 39.875 36.1147 39.875 35.75C39.875 35.3853 39.7301 35.0356 39.4723 34.7777C39.2144 34.5199 38.8647 34.375 38.5 34.375Z" fill="black"/>
<path d="M6.51976 20.7744C6.39372 20.8734 6.25867 20.8869 6.11462 20.8149C5.97958 20.7429 5.91205 20.6303 5.91205 20.4773V19.9371C5.91205 19.4329 6.11462 19.0233 6.51976 18.7082L7.96475 17.6008C8.36989 17.2947 8.82904 17.1417 9.34221 17.1417H9.74735C9.95442 17.1417 10.13 17.2182 10.274 17.3712C10.4271 17.5243 10.5036 17.7044 10.5036 17.9114V26.2302C10.5036 26.4373 10.4271 26.6174 10.274 26.7704C10.13 26.9235 9.95442 27 9.74735 27H9.34221C9.13514 27 8.95508 26.9235 8.80203 26.7704C8.64898 26.6174 8.57245 26.4373 8.57245 26.2302V19.2214L8.55895 19.2079L8.54544 19.2214L6.51976 20.7744ZM19.0202 19.2889C18.7141 18.7487 18.246 18.4786 17.6158 18.4786C16.9856 18.4786 16.5174 18.7487 16.2113 19.2889C15.9052 19.8291 15.7521 20.7564 15.7521 22.0708C15.7521 23.3853 15.9052 24.3126 16.2113 24.8528C16.5174 25.393 16.9856 25.663 17.6158 25.663C18.246 25.663 18.7141 25.393 19.0202 24.8528C19.3263 24.3126 19.4794 23.3853 19.4794 22.0708C19.4794 20.7564 19.3263 19.8291 19.0202 19.2889ZM20.4517 25.9331C19.8305 26.7344 18.8852 27.135 17.6158 27.135C16.3463 27.135 15.3965 26.7344 14.7663 25.9331C14.1451 25.1319 13.8345 23.8444 13.8345 22.0708C13.8345 20.2972 14.1451 19.0098 14.7663 18.2085C15.3965 17.4073 16.3463 17.0066 17.6158 17.0066C18.8852 17.0066 19.8305 17.4073 20.4517 18.2085C21.0819 19.0098 21.397 20.2972 21.397 22.0708C21.397 23.8444 21.0819 25.1319 20.4517 25.9331ZM26.1189 22.53C24.9845 22.8991 24.4173 23.4573 24.4173 24.2046C24.4173 24.6727 24.5974 25.0508 24.9575 25.3389C25.3176 25.618 25.7948 25.7576 26.389 25.7576C26.9832 25.7576 27.4513 25.618 27.7935 25.3389C28.1446 25.0508 28.3201 24.6727 28.3201 24.2046C28.3201 23.8084 28.1761 23.4798 27.888 23.2187C27.5999 22.9576 27.0867 22.7281 26.3485 22.53C26.2674 22.503 26.1909 22.503 26.1189 22.53ZM26.389 18.3841C25.8668 18.3841 25.4572 18.5011 25.1601 18.7352C24.872 18.9693 24.7279 19.2799 24.7279 19.667C24.7279 20.3242 25.2591 20.8059 26.3215 21.112C26.4205 21.13 26.4925 21.13 26.5375 21.112C27.5639 20.7879 28.0771 20.3062 28.0771 19.667C28.0771 19.2799 27.9285 18.9693 27.6314 18.7352C27.3343 18.5011 26.9202 18.3841 26.389 18.3841ZM29.1709 26.3653C28.5047 26.8785 27.5774 27.135 26.389 27.135C25.2006 27.135 24.2733 26.8785 23.607 26.3653C22.9408 25.8521 22.6077 25.1634 22.6077 24.2991C22.6077 23.8039 22.7698 23.3493 23.0939 22.9351C23.418 22.512 23.8996 22.1654 24.5389 21.8953C24.5569 21.8953 24.5659 21.8863 24.5659 21.8683C24.5659 21.8593 24.5614 21.8548 24.5524 21.8548C24.0302 21.5937 23.6251 21.2561 23.337 20.8419C23.0579 20.4278 22.9183 19.9731 22.9183 19.478C22.9183 18.7397 23.2244 18.1455 23.8366 17.6954C24.4488 17.2362 25.2996 17.0066 26.389 17.0066C27.4784 17.0066 28.3291 17.2362 28.9413 17.6954C29.5536 18.1455 29.8597 18.7397 29.8597 19.478C29.8597 20.4143 29.3015 21.139 28.1851 21.6522C28.1761 21.6522 28.1716 21.6612 28.1716 21.6792C28.1716 21.6882 28.1761 21.6927 28.1851 21.6927C29.5085 22.1969 30.1703 23.0657 30.1703 24.2991C30.1703 25.1634 29.8372 25.8521 29.1709 26.3653ZM36.5667 19.2889C36.2606 18.7487 35.7924 18.4786 35.1622 18.4786C34.532 18.4786 34.0638 18.7487 33.7577 19.2889C33.4516 19.8291 33.2986 20.7564 33.2986 22.0708C33.2986 23.3853 33.4516 24.3126 33.7577 24.8528C34.0638 25.393 34.532 25.663 35.1622 25.663C35.7924 25.663 36.2606 25.393 36.5667 24.8528C36.8728 24.3126 37.0258 23.3853 37.0258 22.0708C37.0258 20.7564 36.8728 19.8291 36.5667 19.2889ZM37.9982 25.9331C37.377 26.7344 36.4316 27.135 35.1622 27.135C33.8928 27.135 32.943 26.7344 32.3127 25.9331C31.6915 25.1319 31.3809 23.8444 31.3809 22.0708C31.3809 20.2972 31.6915 19.0098 32.3127 18.2085C32.943 17.4073 33.8928 17.0066 35.1622 17.0066C36.4316 17.0066 37.377 17.4073 37.9982 18.2085C38.6284 19.0098 38.9435 20.2972 38.9435 22.0708C38.9435 23.8444 38.6284 25.1319 37.9982 25.9331Z" fill="black"/>
</svg>