<svg width="44" height="44" viewBox="0 0 44 44" fill="none" xmlns="http://www.w3.org/2000/svg">
<path d="M4.125 8.25C4.125 7.88533 4.26987 7.53559 4.52773 7.27773C4.78559 7.01987 5.13533 6.875 5.5 6.875H38.5C38.8647 6.875 39.2144 7.01987 39.4723 7.27773C39.7301 7.53559 39.875 7.88533 39.875 8.25C39.875 8.61467 39.7301 8.96441 39.4723 9.22227C39.2144 9.48013 38.8647 9.625 38.5 9.625H5.5C5.13533 9.625 4.78559 9.48013 4.52773 9.22227C4.26987 8.96441 4.125 8.61467 4.125 8.25ZM38.5 34.375H5.5C5.13533 34.375 4.78559 34.5199 4.52773 34.7777C4.26987 35.0356 4.125 35.3853 4.125 35.75C4.125 36.1147 4.26987 36.4644 4.52773 36.7223C4.78559 36.9801 5.13533 37.125 5.5 37.125H38.5C38.8647 37.125 39.2144 36.9801 39.4723 36.7223C39.7301 36.4644 39.875 36.1147 39.875 35.75C39.875 35.3853 39.7301 35.0356 39.4723 34.7777C39.2144 34.5199 38.8647 34.375 38.5 34.375Z" fill="black"/>
<path d="M6.51976 20.7744C6.39372 20.8734 6.25867 20.8869 6.11462 20.8149C5.97958 20.7429 5.91205 20.6303 5.91205 20.4773V19.9371C5.91205 19.4329 6.11462 19.0233 6.51976 18.7082L7.96475 17.6008C8.36989 17.2947 8.82904 17.1417 9.34221 17.1417H9.74735C9.95442 17.1417 10.13 17.2182 10.274 17.3712C10.4271 17.5243 10.5036 17.7044 10.5036 17.9114V26.2302C10.5036 26.4373 10.4271 26.6174 10.274 26.7704C10.13 26.9235 9.95442 27 9.74735 27H9.34221C9.13514 27 8.95508 26.9235 8.80203 26.7704C8.64898 26.6174 8.57245 26.4373 8.57245 26.2302V19.2214L8.55895 19.2079L8.54544 19.2214L6.51976 20.7744ZM15.239 23.4483C15.239 23.4573 15.2345 23.4618 15.2255 23.4618C15.2255 23.4618 15.2255 23.4663 15.2255 23.4753C15.2255 23.4843 15.23 23.4888 15.239 23.4888H17.8183C17.8904 23.4888 17.9264 23.4483 17.9264 23.3673V19.6265C17.9264 19.6175 17.9219 19.613 17.9129 19.613H17.8994L15.239 23.4483ZM14.2126 24.9743C14.0145 24.9743 13.839 24.9023 13.6859 24.7582C13.5419 24.6142 13.4699 24.4386 13.4699 24.2316C13.4699 23.7274 13.6139 23.2772 13.902 22.8811L17.4942 17.7629C17.7823 17.3487 18.183 17.1417 18.6961 17.1417H18.9932C19.2003 17.1417 19.3804 17.2182 19.5334 17.3712C19.6865 17.5243 19.763 17.7044 19.763 17.9114V23.3673C19.763 23.4483 19.799 23.4888 19.871 23.4888H20.5192C20.7263 23.4888 20.9019 23.5608 21.0459 23.7049C21.19 23.8489 21.262 24.0245 21.262 24.2316C21.262 24.4386 21.19 24.6142 21.0459 24.7582C20.9019 24.9023 20.7263 24.9743 20.5192 24.9743H19.871C19.799 24.9743 19.763 25.0148 19.763 25.0959V26.2302C19.763 26.4373 19.6865 26.6174 19.5334 26.7704C19.3804 26.9235 19.2003 27 18.9932 27H18.6961C18.4891 27 18.309 26.9235 18.1559 26.7704C18.0029 26.6174 17.9264 26.4373 17.9264 26.2302V25.0959C17.9264 25.0148 17.8904 24.9743 17.8183 24.9743H14.2126ZM24.0122 23.4483C24.0122 23.4573 24.0077 23.4618 23.9987 23.4618C23.9987 23.4618 23.9987 23.4663 23.9987 23.4753C23.9987 23.4843 24.0032 23.4888 24.0122 23.4888H26.5916C26.6636 23.4888 26.6996 23.4483 26.6996 23.3673V19.6265C26.6996 19.6175 26.6951 19.613 26.6861 19.613H26.6726L24.0122 23.4483ZM22.9858 24.9743C22.7878 24.9743 22.6122 24.9023 22.4592 24.7582C22.3151 24.6142 22.2431 24.4386 22.2431 24.2316C22.2431 23.7274 22.3871 23.2772 22.6752 22.8811L26.2674 17.7629C26.5555 17.3487 26.9562 17.1417 27.4694 17.1417H27.7665C27.9735 17.1417 28.1536 17.2182 28.3066 17.3712C28.4597 17.5243 28.5362 17.7044 28.5362 17.9114V23.3673C28.5362 23.4483 28.5722 23.4888 28.6442 23.4888H29.2925C29.4995 23.4888 29.6751 23.5608 29.8191 23.7049C29.9632 23.8489 30.0352 24.0245 30.0352 24.2316C30.0352 24.4386 29.9632 24.6142 29.8191 24.7582C29.6751 24.9023 29.4995 24.9743 29.2925 24.9743H28.6442C28.5722 24.9743 28.5362 25.0148 28.5362 25.0959V26.2302C28.5362 26.4373 28.4597 26.6174 28.3066 26.7704C28.1536 26.9235 27.9735 27 27.7665 27H27.4694C27.2623 27 27.0822 26.9235 26.9292 26.7704C26.7761 26.6174 26.6996 26.4373 26.6996 26.2302V25.0959C26.6996 25.0148 26.6636 24.9743 26.5916 24.9743H22.9858ZM36.5667 19.2889C36.2606 18.7487 35.7924 18.4786 35.1622 18.4786C34.532 18.4786 34.0638 18.7487 33.7577 19.2889C33.4516 19.8291 33.2986 20.7564 33.2986 22.0708C33.2986 23.3853 33.4516 24.3126 33.7577 24.8528C34.0638 25.393 34.532 25.663 35.1622 25.663C35.7924 25.663 36.2606 25.393 36.5667 24.8528C36.8728 24.3126 37.0258 23.3853 37.0258 22.0708C37.0258 20.7564 36.8728 19.8291 36.5667 19.2889ZM37.9982 25.9331C37.377 26.7344 36.4316 27.135 35.1622 27.135C33.8928 27.135 32.943 26.7344 32.3127 25.9331C31.6915 25.1319 31.3809 23.8444 31.3809 22.0708C31.3809 20.2972 31.6915 19.0098 32.3127 18.2085C32.943 17.4073 33.8928 17.0066 35.1622 17.0066C36.4316 17.0066 37.377 17.4073 37.9982 18.2085C38.6284 19.0098 38.9435 20.2972 38.9435 22.0708C38.9435 23.8444 38.6284 25.1319 37.9982 25.9331Z" fill="black"/>
</svg>