<svg width="44" height="44" viewBox="0 0 44 44" fill="none" xmlns="http://www.w3.org/2000/svg">
<path d="M4.125 8.25C4.125 7.88533 4.26987 7.53559 4.52773 7.27773C4.78559 7.01987 5.13533 6.875 5.5 6.875H38.5C38.8647 6.875 39.2144 7.01987 39.4723 7.27773C39.7301 7.53559 39.875 7.88533 39.875 8.25C39.875 8.61467 39.7301 8.96441 39.4723 9.22227C39.2144 9.48013 38.8647 9.625 38.5 9.625H5.5C5.13533 9.625 4.78559 9.48013 4.52773 9.22227C4.26987 8.96441 4.125 8.61467 4.125 8.25ZM38.5 34.375H5.5C5.13533 34.375 4.78559 34.5199 4.52773 34.7777C4.26987 35.0356 4.125 35.3853 4.125 35.75C4.125 36.1147 4.26987 36.4644 4.52773 36.7223C4.78559 36.9801 5.13533 37.125 5.5 37.125H38.5C38.8647 37.125 39.2144 36.9801 39.4723 36.7223C39.7301 36.4644 39.875 36.1147 39.875 35.75C39.875 35.3853 39.7301 35.0356 39.4723 34.7777C39.2144 34.5199 38.8647 34.375 38.5 34.375Z" fill="black"/>
<path d="M20.4047 19.46C20.4047 20.7133 20.0047 21.92 19.2047 23.08C18.418 24.2267 16.8847 25.7533 14.6047 27.66C14.578 27.6867 14.5647 27.7067 14.5647 27.72C14.5647 27.7333 14.5714 27.74 14.5847 27.74H19.3047C19.6114 27.74 19.878 27.8533 20.1047 28.08C20.3314 28.2933 20.4447 28.5533 20.4447 28.86C20.4447 29.1667 20.3314 29.4333 20.1047 29.66C19.878 29.8867 19.6114 30 19.3047 30H11.9647C11.658 30 11.3914 29.8867 11.1647 29.66C10.9514 29.4333 10.8447 29.1667 10.8447 28.86C10.8447 28.1 11.1314 27.4933 11.7047 27.04C14.0114 25.2 15.558 23.7667 16.3447 22.74C17.1314 21.7133 17.5247 20.7133 17.5247 19.74C17.5247 18.26 16.7314 17.52 15.1447 17.52C14.3314 17.52 13.3447 17.7467 12.1847 18.2C11.9314 18.3067 11.6914 18.2867 11.4647 18.14C11.2514 17.9933 11.1447 17.7933 11.1447 17.54V17.2C11.1447 16.8533 11.238 16.54 11.4247 16.26C11.6247 15.9667 11.8847 15.7733 12.2047 15.68C13.338 15.36 14.4514 15.2 15.5447 15.2C17.1047 15.2 18.3047 15.5733 19.1447 16.32C19.9847 17.0667 20.4047 18.1133 20.4047 19.46ZM24.8977 30C24.591 30 24.3243 29.8867 24.0977 29.66C23.8843 29.4333 23.7777 29.1667 23.7777 28.86V16.54C23.7777 16.2333 23.8843 15.9667 24.0977 15.74C24.3243 15.5133 24.591 15.4 24.8977 15.4H25.4377C25.7443 15.4 26.011 15.5133 26.2377 15.74C26.4643 15.9667 26.5777 16.2333 26.5777 16.54V21.72C26.5777 21.7333 26.5843 21.74 26.5977 21.74C26.611 21.74 26.6177 21.7333 26.6177 21.72L30.6377 16.32C31.0777 15.7067 31.6777 15.4 32.4377 15.4H33.4377C33.6643 15.4 33.831 15.5067 33.9377 15.72C34.0443 15.9333 34.0243 16.1267 33.8777 16.3L29.2777 22.26C29.211 22.3533 29.211 22.4467 29.2777 22.54L34.0977 29.08C34.2443 29.2667 34.2643 29.4667 34.1577 29.68C34.051 29.8933 33.8777 30 33.6377 30H32.6377C31.8777 30 31.2843 29.6933 30.8577 29.08L26.6177 23.08C26.6177 23.0667 26.611 23.06 26.5977 23.06C26.5843 23.06 26.5777 23.0667 26.5777 23.08V28.86C26.5777 29.1667 26.4643 29.4333 26.2377 29.66C26.011 29.8867 25.7443 30 25.4377 30H24.8977Z" fill="black"/>
</svg>