<svg width="44" height="44" viewBox="0 0 44 44" fill="none" xmlns="http://www.w3.org/2000/svg">
<path d="M4.125 8.25C4.125 7.88533 4.26987 7.53559 4.52773 7.27773C4.78559 7.01987 5.13533 6.875 5.5 6.875H38.5C38.8647 6.875 39.2144 7.01987 39.4723 7.27773C39.7301 7.53559 39.875 7.88533 39.875 8.25C39.875 8.61467 39.7301 8.96441 39.4723 9.22227C39.2144 9.48013 38.8647 9.625 38.5 9.625H5.5C5.13533 9.625 4.78559 9.48013 4.52773 9.22227C4.26987 8.96441 4.125 8.61467 4.125 8.25ZM38.5 34.375H5.5C5.13533 34.375 4.78559 34.5199 4.52773 34.7777C4.26987 35.0356 4.125 35.3853 4.125 35.75C4.125 36.1147 4.26987 36.4644 4.52773 36.7223C4.78559 36.9801 5.13533 37.125 5.5 37.125H38.5C38.8647 37.125 39.2144 36.9801 39.4723 36.7223C39.7301 36.4644 39.875 36.1147 39.875 35.75C39.875 35.3853 39.7301 35.0356 39.4723 34.7777C39.2144 34.5199 38.8647 34.375 38.5 34.375Z" fill="black"/>
<path d="M8.36954 23.8453C8.36954 23.8567 8.36386 23.8624 8.35249 23.8624C8.35249 23.8624 8.35249 23.8681 8.35249 23.8794C8.35249 23.8908 8.35818 23.8965 8.36954 23.8965H11.6244C11.7153 23.8965 11.7607 23.8453 11.7607 23.7431V19.0227C11.7607 19.0113 11.755 19.0056 11.7437 19.0056H11.7266L8.36954 23.8453ZM7.07441 25.771C6.82447 25.771 6.60294 25.6801 6.40981 25.4983C6.22803 25.3165 6.13715 25.095 6.13715 24.8337C6.13715 24.1975 6.31892 23.6295 6.68246 23.1296L11.2154 16.671C11.5789 16.1484 12.0845 15.8871 12.7321 15.8871H13.107C13.3683 15.8871 13.5955 15.9837 13.7886 16.1768C13.9817 16.37 14.0783 16.5972 14.0783 16.8585V23.7431C14.0783 23.8453 14.1238 23.8965 14.2146 23.8965H15.0326C15.2939 23.8965 15.5155 23.9873 15.6972 24.1691C15.879 24.3509 15.9699 24.5724 15.9699 24.8337C15.9699 25.095 15.879 25.3165 15.6972 25.4983C15.5155 25.6801 15.2939 25.771 15.0326 25.771H14.2146C14.1238 25.771 14.0783 25.8221 14.0783 25.9243V27.3558C14.0783 27.6171 13.9817 27.8443 13.7886 28.0374C13.5955 28.2306 13.3683 28.3271 13.107 28.3271H12.7321C12.4708 28.3271 12.2436 28.2306 12.0504 28.0374C11.8573 27.8443 11.7607 27.6171 11.7607 27.3558V25.9243C11.7607 25.8221 11.7153 25.771 11.6244 25.771H7.07441ZM22.0987 22.6865C20.6672 23.1523 19.9515 23.8567 19.9515 24.7996C19.9515 25.3904 20.1787 25.8675 20.6332 26.2311C21.0876 26.5833 21.6897 26.7594 22.4395 26.7594C23.1893 26.7594 23.7801 26.5833 24.2118 26.2311C24.6549 25.8675 24.8764 25.3904 24.8764 24.7996C24.8764 24.2998 24.6946 23.8851 24.3311 23.5556C23.9675 23.2262 23.32 22.9365 22.3884 22.6865C22.2861 22.6525 22.1896 22.6525 22.0987 22.6865ZM22.4395 17.4549C21.7806 17.4549 21.2637 17.6026 20.8888 17.898C20.5252 18.1934 20.3435 18.5853 20.3435 19.0738C20.3435 19.9031 21.0137 20.5109 22.3543 20.8972C22.4793 20.9199 22.5702 20.9199 22.627 20.8972C23.9221 20.4882 24.5697 19.8804 24.5697 19.0738C24.5697 18.5853 24.3822 18.1934 24.0073 17.898C23.6324 17.6026 23.1098 17.4549 22.4395 17.4549ZM25.95 27.5262C25.1093 28.1738 23.9391 28.4976 22.4395 28.4976C20.9399 28.4976 19.7697 28.1738 18.929 27.5262C18.0883 26.8787 17.668 26.0096 17.668 24.9189C17.668 24.2941 17.8725 23.7204 18.2815 23.1978C18.6905 22.6638 19.2983 22.2264 20.1049 21.8856C20.1276 21.8856 20.139 21.8742 20.139 21.8515C20.139 21.8402 20.1333 21.8345 20.1219 21.8345C19.463 21.505 18.9518 21.079 18.5882 20.5564C18.236 20.0338 18.0599 19.4601 18.0599 18.8352C18.0599 17.9037 18.4462 17.1538 19.2187 16.5858C19.9913 16.0064 21.0649 15.7167 22.4395 15.7167C23.8142 15.7167 24.8878 16.0064 25.6603 16.5858C26.4328 17.1538 26.8191 17.9037 26.8191 18.8352C26.8191 20.0168 26.1147 20.9313 24.706 21.5789C24.6946 21.5789 24.6889 21.5902 24.6889 21.6129C24.6889 21.6243 24.6946 21.63 24.706 21.63C26.376 22.2662 27.211 23.3625 27.211 24.9189C27.211 26.0096 26.7907 26.8787 25.95 27.5262ZM35.2825 18.5967C34.8963 17.915 34.3055 17.5742 33.5103 17.5742C32.715 17.5742 32.1243 17.915 31.738 18.5967C31.3517 19.2783 31.1586 20.4485 31.1586 22.1071C31.1586 23.7658 31.3517 24.936 31.738 25.6176C32.1243 26.2993 32.715 26.6401 33.5103 26.6401C34.3055 26.6401 34.8963 26.2993 35.2825 25.6176C35.6688 24.936 35.8619 23.7658 35.8619 22.1071C35.8619 20.4485 35.6688 19.2783 35.2825 18.5967ZM37.0889 26.9809C36.305 27.992 35.1121 28.4976 33.5103 28.4976C31.9084 28.4976 30.7098 27.992 29.9146 26.9809C29.1307 25.9698 28.7387 24.3452 28.7387 22.1071C28.7387 19.8691 29.1307 18.2445 29.9146 17.2334C30.7098 16.2223 31.9084 15.7167 33.5103 15.7167C35.1121 15.7167 36.305 16.2223 37.0889 17.2334C37.8842 18.2445 38.2818 19.8691 38.2818 22.1071C38.2818 24.3452 37.8842 25.9698 37.0889 26.9809Z" fill="black"/>
</svg>