<svg width="44" height="44" viewBox="0 0 44 44" fill="none" xmlns="http://www.w3.org/2000/svg">
<path d="M4.125 8.25C4.125 7.88533 4.26987 7.53559 4.52773 7.27773C4.78559 7.01987 5.13533 6.875 5.5 6.875H38.5C38.8647 6.875 39.2144 7.01987 39.4723 7.27773C39.7301 7.53559 39.875 7.88533 39.875 8.25C39.875 8.61467 39.7301 8.96441 39.4723 9.22227C39.2144 9.48013 38.8647 9.625 38.5 9.625H5.5C5.13533 9.625 4.78559 9.48013 4.52773 9.22227C4.26987 8.96441 4.125 8.61467 4.125 8.25ZM38.5 34.375H5.5C5.13533 34.375 4.78559 34.5199 4.52773 34.7777C4.26987 35.0356 4.125 35.3853 4.125 35.75C4.125 36.1147 4.26987 36.4644 4.52773 36.7223C4.78559 36.9801 5.13533 37.125 5.5 37.125H38.5C38.8647 37.125 39.2144 36.9801 39.4723 36.7223C39.7301 36.4644 39.875 36.1147 39.875 35.75C39.875 35.3853 39.7301 35.0356 39.4723 34.7777C39.2144 34.5199 38.8647 34.375 38.5 34.375Z" fill="black"/>
<path d="M12.0847 24.74C12.0847 24.7533 12.078 24.76 12.0647 24.76C12.0647 24.76 12.0647 24.7667 12.0647 24.78C12.0647 24.7933 12.0714 24.8 12.0847 24.8H15.9047C16.0114 24.8 16.0647 24.74 16.0647 24.62V19.08C16.0647 19.0667 16.058 19.06 16.0447 19.06H16.0247L12.0847 24.74ZM10.5647 27C10.2714 27 10.0114 26.8933 9.78469 26.68C9.57135 26.4667 9.46469 26.2067 9.46469 25.9C9.46469 25.1533 9.67802 24.4867 10.1047 23.9L15.4247 16.32C15.8514 15.7067 16.4447 15.4 17.2047 15.4H17.6447C17.9514 15.4 18.218 15.5133 18.4447 15.74C18.6714 15.9667 18.7847 16.2333 18.7847 16.54V24.62C18.7847 24.74 18.838 24.8 18.9447 24.8H19.9047C20.2114 24.8 20.4714 24.9067 20.6847 25.12C20.898 25.3333 21.0047 25.5933 21.0047 25.9C21.0047 26.2067 20.898 26.4667 20.6847 26.68C20.4714 26.8933 20.2114 27 19.9047 27H18.9447C18.838 27 18.7847 27.06 18.7847 27.18V28.86C18.7847 29.1667 18.6714 29.4333 18.4447 29.66C18.218 29.8867 17.9514 30 17.6447 30H17.2047C16.898 30 16.6314 29.8867 16.4047 29.66C16.178 29.4333 16.0647 29.1667 16.0647 28.86V27.18C16.0647 27.06 16.0114 27 15.9047 27H10.5647ZM24.8977 30C24.591 30 24.3243 29.8867 24.0977 29.66C23.8843 29.4333 23.7777 29.1667 23.7777 28.86V16.54C23.7777 16.2333 23.8843 15.9667 24.0977 15.74C24.3243 15.5133 24.591 15.4 24.8977 15.4H25.4377C25.7443 15.4 26.011 15.5133 26.2377 15.74C26.4643 15.9667 26.5777 16.2333 26.5777 16.54V21.72C26.5777 21.7333 26.5843 21.74 26.5977 21.74C26.611 21.74 26.6177 21.7333 26.6177 21.72L30.6377 16.32C31.0777 15.7067 31.6777 15.4 32.4377 15.4H33.4377C33.6643 15.4 33.831 15.5067 33.9377 15.72C34.0443 15.9333 34.0243 16.1267 33.8777 16.3L29.2777 22.26C29.211 22.3533 29.211 22.4467 29.2777 22.54L34.0977 29.08C34.2443 29.2667 34.2643 29.4667 34.1577 29.68C34.051 29.8933 33.8777 30 33.6377 30H32.6377C31.8777 30 31.2843 29.6933 30.8577 29.08L26.6177 23.08C26.6177 23.0667 26.611 23.06 26.5977 23.06C26.5843 23.06 26.5777 23.0667 26.5777 23.08V28.86C26.5777 29.1667 26.4643 29.4333 26.2377 29.66C26.011 29.8867 25.7443 30 25.4377 30H24.8977Z" fill="black"/>
</svg>