<svg width="44" height="44" viewBox="0 0 44 44" fill="none" xmlns="http://www.w3.org/2000/svg">
<path d="M4.125 8.25C4.125 7.88533 4.26987 7.53559 4.52773 7.27773C4.78559 7.01987 5.13533 6.875 5.5 6.875H38.5C38.8647 6.875 39.2144 7.01987 39.4723 7.27773C39.7301 7.53559 39.875 7.88533 39.875 8.25C39.875 8.61467 39.7301 8.96441 39.4723 9.22227C39.2144 9.48013 38.8647 9.625 38.5 9.625H5.5C5.13533 9.625 4.78559 9.48013 4.52773 9.22227C4.26987 8.96441 4.125 8.61467 4.125 8.25ZM38.5 34.375H5.5C5.13533 34.375 4.78559 34.5199 4.52773 34.7777C4.26987 35.0356 4.125 35.3853 4.125 35.75C4.125 36.1147 4.26987 36.4644 4.52773 36.7223C4.78559 36.9801 5.13533 37.125 5.5 37.125H38.5C38.8647 37.125 39.2144 36.9801 39.4723 36.7223C39.7301 36.4644 39.875 36.1147 39.875 35.75C39.875 35.3853 39.7301 35.0356 39.4723 34.7777C39.2144 34.5199 38.8647 34.375 38.5 34.375Z" fill="black"/>
<path d="M9.66794 18.7828C9.45131 18.7828 9.26293 18.7075 9.10281 18.5568C8.94269 18.3967 8.86263 18.2083 8.86263 17.9917C8.86263 17.775 8.94269 17.5867 9.10281 17.4265C9.26293 17.2664 9.45131 17.1863 9.66794 17.1863H15.0791C15.2957 17.1863 15.4841 17.2664 15.6442 17.4265C15.8043 17.5867 15.8844 17.775 15.8844 17.9917C15.8844 18.5097 15.7431 19.0089 15.4605 19.4893C14.2173 21.6368 13.1529 24.0527 12.2675 26.7371C12.1922 26.9631 12.0556 27.1468 11.8578 27.2881C11.6695 27.4294 11.4575 27.5 11.2221 27.5H10.7276C10.5298 27.5 10.3744 27.4199 10.2613 27.2598C10.1483 27.0997 10.1248 26.9254 10.1907 26.7371C11.2268 23.8643 12.4936 21.2317 13.9912 18.8394V18.8111C13.9912 18.7923 13.9865 18.7828 13.9771 18.7828H9.66794ZM24.8933 20.0544C24.8933 20.9398 24.6107 21.7922 24.0456 22.6116C23.4899 23.4216 22.4067 24.5001 20.7961 25.847C20.7772 25.8658 20.7678 25.88 20.7678 25.8894C20.7678 25.8988 20.7725 25.9035 20.7819 25.9035H24.1162C24.3329 25.9035 24.5212 25.9836 24.6813 26.1437C24.8415 26.2944 24.9215 26.4781 24.9215 26.6947C24.9215 26.9113 24.8415 27.0997 24.6813 27.2598C24.5212 27.4199 24.3329 27.5 24.1162 27.5H18.9311C18.7145 27.5 18.5261 27.4199 18.366 27.2598C18.2153 27.0997 18.14 26.9113 18.14 26.6947C18.14 26.1578 18.3425 25.7293 18.7475 25.409C20.3769 24.1092 21.4695 23.0967 22.0252 22.3714C22.5809 21.6462 22.8588 20.9398 22.8588 20.2522C22.8588 19.2067 22.2984 18.6839 21.1775 18.6839C20.603 18.6839 19.906 18.8441 19.0865 19.1643C18.9076 19.2397 18.738 19.2255 18.5779 19.1219C18.4272 19.0183 18.3519 18.877 18.3519 18.6981V18.4579C18.3519 18.213 18.4178 17.9917 18.5497 17.7939C18.691 17.5867 18.8746 17.4501 19.1007 17.3841C19.9013 17.1581 20.6878 17.0451 21.4601 17.0451C22.5621 17.0451 23.4098 17.3088 24.0032 17.8363C24.5966 18.3637 24.8933 19.1031 24.8933 20.0544ZM32.1502 19.4327C31.83 18.8676 31.3402 18.585 30.6809 18.585C30.0216 18.585 29.5318 18.8676 29.2116 19.4327C28.8913 19.9979 28.7312 20.968 28.7312 22.3432C28.7312 23.7183 28.8913 24.6885 29.2116 25.2536C29.5318 25.8187 30.0216 26.1013 30.6809 26.1013C31.3402 26.1013 31.83 25.8187 32.1502 25.2536C32.4705 24.6885 32.6306 23.7183 32.6306 22.3432C32.6306 20.968 32.4705 19.9979 32.1502 19.4327ZM33.6478 26.3839C32.9979 27.2221 32.009 27.6413 30.6809 27.6413C29.3528 27.6413 28.3592 27.2221 27.6998 26.3839C27.0499 25.5456 26.725 24.1987 26.725 22.3432C26.725 20.4877 27.0499 19.1408 27.6998 18.3025C28.3592 17.4642 29.3528 17.0451 30.6809 17.0451C32.009 17.0451 32.9979 17.4642 33.6478 18.3025C34.3072 19.1408 34.6368 20.4877 34.6368 22.3432C34.6368 24.1987 34.3072 25.5456 33.6478 26.3839Z" fill="black"/>
</svg>