<svg width="44" height="44" viewBox="0 0 44 44" fill="none" xmlns="http://www.w3.org/2000/svg">
<path d="M4.125 8.25C4.125 7.88533 4.26987 7.53559 4.52773 7.27773C4.78559 7.01987 5.13533 6.875 5.5 6.875H38.5C38.8647 6.875 39.2144 7.01987 39.4723 7.27773C39.7301 7.53559 39.875 7.88533 39.875 8.25C39.875 8.61467 39.7301 8.96441 39.4723 9.22227C39.2144 9.48013 38.8647 9.625 38.5 9.625H5.5C5.13533 9.625 4.78559 9.48013 4.52773 9.22227C4.26987 8.96441 4.125 8.61467 4.125 8.25ZM38.5 34.375H5.5C5.13533 34.375 4.78559 34.5199 4.52773 34.7777C4.26987 35.0356 4.125 35.3853 4.125 35.75C4.125 36.1147 4.26987 36.4644 4.52773 36.7223C4.78559 36.9801 5.13533 37.125 5.5 37.125H38.5C38.8647 37.125 39.2144 36.9801 39.4723 36.7223C39.7301 36.4644 39.875 36.1147 39.875 35.75C39.875 35.3853 39.7301 35.0356 39.4723 34.7777C39.2144 34.5199 38.8647 34.375 38.5 34.375Z" fill="black"/>
<path d="M15.2047 23.38C13.5247 23.9267 12.6847 24.7533 12.6847 25.86C12.6847 26.5533 12.9514 27.1133 13.4847 27.54C14.018 27.9533 14.7247 28.16 15.6047 28.16C16.4847 28.16 17.178 27.9533 17.6847 27.54C18.2047 27.1133 18.4647 26.5533 18.4647 25.86C18.4647 25.2733 18.2514 24.7867 17.8247 24.4C17.398 24.0133 16.638 23.6733 15.5447 23.38C15.4247 23.34 15.3114 23.34 15.2047 23.38ZM15.6047 17.24C14.8314 17.24 14.2247 17.4133 13.7847 17.76C13.358 18.1067 13.1447 18.5667 13.1447 19.14C13.1447 20.1133 13.9314 20.8267 15.5047 21.28C15.6514 21.3067 15.758 21.3067 15.8247 21.28C17.3447 20.8 18.1047 20.0867 18.1047 19.14C18.1047 18.5667 17.8847 18.1067 17.4447 17.76C17.0047 17.4133 16.3914 17.24 15.6047 17.24ZM19.7247 29.06C18.738 29.82 17.3647 30.2 15.6047 30.2C13.8447 30.2 12.4714 29.82 11.4847 29.06C10.498 28.3 10.0047 27.28 10.0047 26C10.0047 25.2667 10.2447 24.5933 10.7247 23.98C11.2047 23.3533 11.918 22.84 12.8647 22.44C12.8914 22.44 12.9047 22.4267 12.9047 22.4C12.9047 22.3867 12.898 22.38 12.8847 22.38C12.1114 21.9933 11.5114 21.4933 11.0847 20.88C10.6714 20.2667 10.4647 19.5933 10.4647 18.86C10.4647 17.7667 10.918 16.8867 11.8247 16.22C12.7314 15.54 13.9914 15.2 15.6047 15.2C17.218 15.2 18.478 15.54 19.3847 16.22C20.2914 16.8867 20.7447 17.7667 20.7447 18.86C20.7447 20.2467 19.918 21.32 18.2647 22.08C18.2514 22.08 18.2447 22.0933 18.2447 22.12C18.2447 22.1333 18.2514 22.14 18.2647 22.14C20.2247 22.8867 21.2047 24.1733 21.2047 26C21.2047 27.28 20.7114 28.3 19.7247 29.06ZM24.8977 30C24.591 30 24.3243 29.8867 24.0977 29.66C23.8843 29.4333 23.7777 29.1667 23.7777 28.86V16.54C23.7777 16.2333 23.8843 15.9667 24.0977 15.74C24.3243 15.5133 24.591 15.4 24.8977 15.4H25.4377C25.7443 15.4 26.011 15.5133 26.2377 15.74C26.4643 15.9667 26.5777 16.2333 26.5777 16.54V21.72C26.5777 21.7333 26.5843 21.74 26.5977 21.74C26.611 21.74 26.6177 21.7333 26.6177 21.72L30.6377 16.32C31.0777 15.7067 31.6777 15.4 32.4377 15.4H33.4377C33.6643 15.4 33.831 15.5067 33.9377 15.72C34.0443 15.9333 34.0243 16.1267 33.8777 16.3L29.2777 22.26C29.211 22.3533 29.211 22.4467 29.2777 22.54L34.0977 29.08C34.2443 29.2667 34.2643 29.4667 34.1577 29.68C34.051 29.8933 33.8777 30 33.6377 30H32.6377C31.8777 30 31.2843 29.6933 30.8577 29.08L26.6177 23.08C26.6177 23.0667 26.611 23.06 26.5977 23.06C26.5843 23.06 26.5777 23.0667 26.5777 23.08V28.86C26.5777 29.1667 26.4643 29.4333 26.2377 29.66C26.011 29.8867 25.7443 30 25.4377 30H24.8977Z" fill="black"/>
</svg>