<?xml version="1.0" encoding="UTF-8"?>
<svg version="1.1" xmlns="http://www.w3.org/2000/svg" width="512" height="512">
<path d="M0 0 C68.03888025 0 68.03888025 0 87 16 C102.42123545 31.44439046 106.43756291 49.96590643 106.5 71 C106.44005442 91.19474521 102.89336849 110.10663151 88 125 C62.13599907 146.47329521 34.12908494 141 0 141 C0 94.47 0 47.94 0 0 Z M20 17 C20 52.97 20 88.94 20 126 C49.46672041 126.78029748 49.46672041 126.78029748 74 113 C84.13241442 101.26562282 86.19959304 88.60168147 86.24023438 73.61010742 C86.2498621 71.46818016 86.28088456 69.32724625 86.3125 67.18554688 C86.42857418 52.29933065 83.66048625 38.85570638 73.25 27.625 C58.29858284 13.67415569 39.96079579 17 20 17 Z " fill="#000000" transform="translate(333,185)"/>
<path d="M0 0 C6.6 0 13.2 0 20 0 C20 20.13 20 40.26 20 61 C44.09 61 68.18 61 93 61 C93 40.87 93 20.74 93 0 C99.6 0 106.2 0 113 0 C113 46.53 113 93.06 113 141 C106.4 141 99.8 141 93 141 C93 119.88 93 98.76 93 77 C68.91 77 44.82 77 20 77 C20 98.12 20 119.24 20 141 C13.4 141 6.8 141 0 141 C0 94.47 0 47.94 0 0 Z " fill="#000000" transform="translate(186,185)"/>
<path d="M0 0 C30.03 0 60.06 0 91 0 C91 5.28 91 10.56 91 16 C67.57 16 44.14 16 20 16 C20 31.84 20 47.68 20 64 C40.13 64 60.26 64 81 64 C81 69.28 81 74.56 81 80 C60.87 80 40.74 80 20 80 C20 100.13 20 120.26 20 141 C13.4 141 6.8 141 0 141 C0 94.47 0 47.94 0 0 Z " fill="#000000" transform="translate(73,185)"/>
</svg>
