<?xml version="1.0" encoding="UTF-8"?>
<svg version="1.1" xmlns="http://www.w3.org/2000/svg" width="1024" height="1024">
<path d="M0 0 C143.10412926 0 143.10412926 0 177 32 C177.61617187 32.56332031 178.23234375 33.12664062 178.8671875 33.70703125 C196.08371895 50.01116587 211.3922501 78.28975355 212.1015625 102.4609375 C212.05128906 103.71777344 212.05128906 103.71777344 212 105 C212.66 105.33 213.32 105.66 214 106 C214.40527344 108.82958984 214.40527344 108.82958984 214.609375 112.5859375 C214.66505646 113.59338516 214.66505646 113.59338516 214.72186279 114.6211853 C216.90711652 157.03766268 212.78365686 201.04680355 183.46020508 234.24316406 C159.75925844 260.24484229 129.78528409 270.96007358 95.23654366 272.66477585 C85.59353423 273.10830861 75.95643232 273.18286461 66.3046875 273.203125 C65.37672489 273.20595238 64.44876228 273.20877975 63.4926796 273.21169281 C58.61442042 273.22647751 53.73618942 273.23584587 48.85791016 273.24023438 C43.82750644 273.24579625 38.79736298 273.27004074 33.76704216 273.29820633 C29.87756544 273.31675335 25.98815385 273.32203328 22.09863663 273.32357025 C20.2414108 273.32659794 18.38418616 273.33463036 16.52700424 273.34775543 C13.95252266 273.36470432 11.37871304 273.36296754 8.80419922 273.35644531 C8.03864716 273.3656601 7.27309509 273.37487488 6.48434448 273.3843689 C4.37081909 273.36749268 4.37081909 273.36749268 1 273 C0.01 271.515 0.01 271.515 -1 270 C-0.34 270 0.32 270 1 270 C0.67 180.9 0.34 91.8 0 0 Z M47 43 C47 104.38 47 165.76 47 229 C49.93442519 230.46721259 52.54222827 230.12989043 55.81640625 230.1328125 C56.50033447 230.13431305 57.1842627 230.1358136 57.88891602 230.13735962 C60.11350327 230.13971884 62.33792884 230.13345992 64.5625 230.125 C65.31675262 230.12278442 66.07100525 230.12056885 66.84811401 230.11828613 C94.28536135 230.02307005 119.71062569 228.67531571 141.03125 209.05859375 C160.22491497 188.9890274 165.68997094 160.62093991 165.1875 133.64453125 C163.91424756 108.89568703 159.48762507 83.83003613 142 65 C141.34 65 140.68 65 140 65 C139.78085937 64.43152344 139.56171875 63.86304688 139.3359375 63.27734375 C133.33419437 53.0463021 118.62989219 48.14729337 107.9375 45.25 C88.871675 40.43454934 64.74953205 43 47 43 Z " fill="#262626" transform="translate(522,359)"/>
<path d="M0 0 C1.56038467 0.00279271 3.12076934 0.00558509 4.68115401 0.00837713 C42.98658801 0.0770863 81.29199659 0.15687968 119.59739846 0.24147995 C144.41258285 0.29628548 169.22777181 0.34793424 194.04296875 0.39672852 C194.86913852 0.3983541 195.6953083 0.39997968 196.54651352 0.40165452 C204.84905405 0.41798771 213.15159469 0.43426577 221.45413542 0.45050358 C238.34245077 0.4835344 255.2307654 0.51693134 272.11907959 0.55055237 C273.28186131 0.55286654 273.28186131 0.55286654 274.46813358 0.55522746 C325.55689378 0.65694601 376.64563516 0.76747989 427.734375 0.87890625 C427.734375 15.39890625 427.734375 29.91890625 427.734375 44.87890625 C404.7617673 46.02753664 404.7617673 46.02753664 396.89247704 46.00474739 C395.49877549 46.00692755 395.49877549 46.00692755 394.07691836 46.00915176 C391.03664323 46.01273265 387.9964208 46.00936321 384.95614624 46.00588989 C382.72529246 46.00704483 380.49443888 46.00863484 378.26358569 46.01061714 C372.18998357 46.01475871 366.11639733 46.01274342 360.04279518 46.00963092 C354.14841449 46.00759029 348.25403705 46.01027236 342.35965681 46.01277828 C329.57836246 46.01802072 316.79707314 46.01759733 304.01577833 46.01469937 C292.84150819 46.0121783 281.66723988 46.01152971 270.49296951 46.01272202 C269.75016633 46.0127984 269.00736316 46.01287479 268.24205079 46.01295349 C265.2265489 46.01326484 262.21104701 46.01358324 259.19554513 46.01391325 C230.96026793 46.01696641 202.72499393 46.01420703 174.48971723 46.00881635 C149.3990676 46.00406253 124.30842303 46.00450344 99.21777344 46.00927734 C71.0051289 46.01462737 42.79248718 46.01675866 14.57984221 46.01366508 C11.57559371 46.01334437 8.57134521 46.01303153 5.56709671 46.01272202 C4.82740976 46.01264294 4.0877228 46.01256386 3.32562109 46.01248239 C-7.85467323 46.01134388 -19.03496552 46.01267692 -30.21525955 46.01520157 C-42.91086323 46.01805416 -55.60646112 46.01735983 -68.30206408 46.01192082 C-74.78330714 46.00928378 -81.26453986 46.00827893 -87.74578285 46.01156998 C-93.66891724 46.01453234 -99.59203163 46.01294116 -105.51516418 46.00759242 C-107.66667367 46.00646809 -109.81818482 46.00705978 -111.96969326 46.00946821 C-114.87610931 46.01247421 -117.78245529 46.0094256 -120.68886757 46.00474739 C-121.53943009 46.00708856 -122.38999262 46.00942972 -123.26632977 46.01184183 C-129.03732374 45.99305688 -129.03732374 45.99305688 -131.265625 44.87890625 C-131.265625 45.86890625 -131.265625 46.85890625 -131.265625 47.87890625 C-131.925625 47.54890625 -132.585625 47.21890625 -133.265625 46.87890625 C-132.935625 46.21890625 -132.605625 45.55890625 -132.265625 44.87890625 C-132.96261662 45.04114842 -133.65960825 45.2033906 -134.37772083 45.3705492 C-137.46976766 45.91484143 -140.33273956 46.00776652 -143.47209167 46.01261902 C-145.34600838 46.01901649 -145.34600838 46.01901649 -147.25778198 46.02554321 C-148.63433841 46.02519374 -150.01089481 46.02473224 -151.38745117 46.02416992 C-152.84305406 46.02716334 -154.29865615 46.0305663 -155.7542572 46.03434753 C-159.70025481 46.04316902 -163.64623072 46.04552475 -167.59223723 46.04616332 C-170.88536187 46.04711357 -174.17848147 46.05079285 -177.47160417 46.05433542 C-185.23619901 46.06247147 -193.00078225 46.06492027 -200.76538086 46.06420898 C-208.78331893 46.06360709 -216.80118996 46.07418307 -224.81911105 46.08995265 C-231.70071804 46.1030065 -238.58230304 46.10839385 -245.46392232 46.10775357 C-249.57530375 46.10749813 -253.68662549 46.11037545 -257.79799461 46.12093163 C-261.65985513 46.13057744 -265.52159838 46.13071618 -269.38346291 46.12341499 C-270.80329178 46.12236504 -272.22312783 46.12475624 -273.64294434 46.13077545 C-275.57531806 46.13843958 -277.50773137 46.13267666 -279.44010925 46.12614441 C-281.06470707 46.12696156 -281.06470707 46.12696156 -282.72212505 46.12779522 C-285.265625 45.87890625 -285.265625 45.87890625 -287.265625 43.87890625 C-287.46817017 42.00595093 -287.46817017 42.00595093 -287.40087891 39.70458984 C-287.38070709 38.84384857 -287.36053528 37.9831073 -287.3397522 37.09628296 C-287.30755585 36.16603302 -287.2753595 35.23578308 -287.2421875 34.27734375 C-287.21716156 33.32574371 -287.19213562 32.37414368 -287.16635132 31.39370728 C-287.084013 28.34675194 -286.98747708 25.30043149 -286.890625 22.25390625 C-286.83239958 20.1914324 -286.77509601 18.1289323 -286.71875 16.06640625 C-286.57841356 11.00353942 -286.42534063 5.9411973 -286.265625 0.87890625 C-199.39592239 -0.0941469 -112.52727819 -0.18845406 0 0 Z " fill="#272727" transform="translate(440.265625,727.12109375)"/>
<path d="M0 0 C1.80957208 0.6128805 3.62165001 1.21847776 5.4375 1.8125 C6.613125 2.204375 7.78875 2.59625 9 3 C9 3.66 9 4.32 9 5 C9.94875 5.309375 10.8975 5.61875 11.875 5.9375 C15.71122542 7.24181664 17.53430323 8.48688362 20.328125 11.37109375 C21.58658512 12.59721027 22.89887151 13.76844086 24.234375 14.91015625 C38.56326673 27.16981362 46.57458259 41.82174696 51 60 C51.19980469 60.79535156 51.39960938 61.59070313 51.60546875 62.41015625 C52.13744913 65.90226509 52 69.46760318 52 73 C35.17 72.67 18.34 72.34 1 72 C0.01 66.555 0.01 66.555 -1 61 C-3.84235166 52.78166486 -8.73172205 46.41600639 -16.3125 42.125 C-17.199375 41.75375 -18.08625 41.3825 -19 41 C-21 40 -21 40 -24 38 C-25.32 38 -26.64 38 -28 38 C-28 37.34 -28 36.68 -28 36 C-43.04241474 34.09847579 -60.49220491 33.39165056 -73.46484375 42.71484375 C-75.81746319 44.68433942 -77.94692294 46.71880327 -80 49 C-80.70125 49.763125 -81.4025 50.52625 -82.125 51.3125 C-86.82943276 58.0555203 -88.5399557 65.74964131 -87.703125 73.88671875 C-86.12951085 82.19072314 -82.56372889 87.69958294 -76 93 C-69.44717735 97.20993535 -62.47531759 99.88932209 -55 102 C-53.66492909 102.66318014 -52.33168326 103.33004335 -51 104 C-49.613651 104.51706444 -48.21701817 105.00720174 -46.8125 105.47265625 C-46.03132813 105.73240234 -45.25015625 105.99214844 -44.4453125 106.25976562 C-43.63835937 106.52466797 -42.83140625 106.78957031 -42 107.0625 C-41.19304687 107.33126953 -40.38609375 107.60003906 -39.5546875 107.87695312 C-35.3724811 109.28053258 -35.3724811 109.28053258 -31.12402344 110.45849609 C-14.99207122 114.57121679 1.57269619 120.70604274 16 129 C17.00546875 129.57234375 18.0109375 130.1446875 19.046875 130.734375 C25.72765366 134.75760635 31.44086678 139.54593631 37 145 C37.62648438 145.60199219 38.25296875 146.20398438 38.8984375 146.82421875 C47.18997243 155.47217712 52.73528112 167.32498371 55 179 C55.3403125 180.670625 55.3403125 180.670625 55.6875 182.375 C57.45744246 202.90633252 54.0254748 224.89715541 40.453125 241.171875 C37.75662235 244.24275772 34.90763331 247.12861142 32 250 C30.75863281 251.23943359 30.75863281 251.23943359 29.4921875 252.50390625 C18.14774275 263.28295263 -0.36233998 273.54044873 -16.4375 274.125 C-17.283125 274.08375 -18.12875 274.0425 -19 274 C-19.33 274.66 -19.66 275.32 -20 276 C-55.14115463 278.02360581 -89.1703142 276.27479893 -117 252 C-119.625 249.5625 -119.625 249.5625 -122 247 C-122.59167969 246.401875 -123.18335938 245.80375 -123.79296875 245.1875 C-137.88522366 230.35928594 -144.28470593 211.05119615 -146 191 C-140.99778603 189.6773652 -136.01854038 189.87406522 -130.88671875 189.90234375 C-129.91716751 189.9037587 -128.94761627 189.90517365 -127.94868469 189.90663147 C-124.86159133 189.91221487 -121.77457133 189.92476436 -118.6875 189.9375 C-116.59049584 189.94251714 -114.49349054 189.94707968 -112.39648438 189.95117188 C-107.26429479 189.96217888 -102.13215982 189.97943212 -97 190 C-96.03512676 192.88839635 -95.07183414 195.77633461 -94.140625 198.67578125 C-90.2540837 210.18198903 -84.07414577 219.20286092 -73.46875 225.50390625 C-57.46696102 233.38714053 -38.93720073 234.27938238 -22 229 C-15.73059498 226.43033572 -10.76645666 223.81849222 -6 219 C-5.34 219 -4.68 219 -4 219 C-3.71253906 218.4225 -3.42507813 217.845 -3.12890625 217.25 C-2.41597685 215.82907497 -1.69558512 214.41184749 -0.96484375 213 C-0.45630859 212.01 -0.45630859 212.01 0.0625 211 C0.40410156 210.34 0.74570312 209.68 1.09765625 209 C4.20507134 202.11256914 4.2511042 192.82702708 1.9375 185.6875 C-3.20626427 174.53488384 -14.17719068 168.57150035 -25.21069336 164.29492188 C-29.62695042 162.67559956 -34.09104162 161.20822035 -38.5625 159.75 C-40.07531245 159.24350773 -41.58768457 158.73569833 -43.09960938 158.2265625 C-47.39036929 156.78820957 -51.69185852 155.38533776 -56 154 C-56.65216492 153.78964111 -57.30432983 153.57928223 -57.97625732 153.36254883 C-64.85692004 150.93533411 -64.85692004 150.93533411 -72 150 C-72 149.34 -72 148.68 -72 148 C-72.54889893 147.89695557 -73.09779785 147.79391113 -73.66333008 147.68774414 C-79.33886829 146.53692985 -84.41947238 144.8246934 -89.6875 142.4375 C-90.85043579 141.91349609 -90.85043579 141.91349609 -92.03686523 141.37890625 C-102.49920741 136.53079205 -111.89608713 130.56285294 -120.23046875 122.53125 C-122.02854536 120.77845581 -122.02854536 120.77845581 -125 120 C-125.38180042 118.67972831 -125.70609137 117.34257462 -126 116 C-126.89190693 114.4110335 -127.83454068 112.85000059 -128.8125 111.3125 C-139.68068839 93.42418993 -141.68923707 72.85523674 -137.03515625 52.59375 C-133.90367905 41.7222065 -129.10499401 32.76282594 -122 24 C-121.44570313 23.28199219 -120.89140625 22.56398438 -120.3203125 21.82421875 C-115.68168125 16.10915871 -110.08705204 12.07501392 -104 8 C-103.23042969 7.46375 -102.46085937 6.9275 -101.66796875 6.375 C-90.23524038 -1.10399096 -76.3320683 -4.70961904 -63 -7 C-62.26265625 -7.13148438 -61.5253125 -7.26296875 -60.765625 -7.3984375 C-40.35668407 -10.32530112 -19.14331403 -7.22256903 0 0 Z " fill="#262626" transform="translate(437,362)"/>
<path d="M0 0 C0.89365884 -0.00250352 1.78731769 -0.00500704 2.70805711 -0.00758642 C3.70321184 -0.00524525 4.69836658 -0.00290409 5.72367752 -0.00049198 C7.30061459 -0.00267214 7.30061459 -0.00267214 8.90940899 -0.00489634 C12.48039562 -0.00858521 16.05134032 -0.00505645 19.62232673 -0.00163448 C22.19026032 -0.00278526 24.75819374 -0.00437249 27.32612681 -0.00636172 C32.935894 -0.00998695 38.54565159 -0.00985554 44.15541923 -0.00731456 C52.50125443 -0.00354469 60.84708148 -0.0054598 69.19291662 -0.00852287 C84.11746841 -0.01380559 99.04201593 -0.0133242 113.96656813 -0.01044396 C127.07609386 -0.0079268 140.18561804 -0.00727234 153.29514396 -0.0084666 C154.6004184 -0.00858118 154.6004184 -0.00858118 155.93206202 -0.00869807 C159.46542137 -0.00900946 162.99878072 -0.00932786 166.53214006 -0.00965784 C199.75536725 -0.01272322 232.97859173 -0.00993709 266.2018185 -0.00456094 C295.55299808 0.00015279 324.90417332 -0.00021163 354.25535285 -0.00502193 C387.30069371 -0.01041964 420.34603216 -0.01247339 453.3913734 -0.00940967 C456.9424268 -0.00908905 460.49348021 -0.00877619 464.04453361 -0.0084666 C464.9187444 -0.00838752 465.79295519 -0.00830845 466.69365721 -0.00822697 C478.86855711 -0.00717748 491.04345542 -0.00807466 503.21835511 -0.0104524 C523.66330724 -0.01439018 544.10825386 -0.01373026 564.55320442 -0.00404537 C565.70144787 -0.00351449 565.70144787 -0.00351449 566.87288817 -0.00297289 C614.88287296 0.02008456 662.8856154 0.24059836 710.88865364 1.12534916 C710.22865364 1.45534916 709.56865364 1.78534916 708.88865364 2.12534916 C709.21865364 3.11534916 709.54865364 4.10534916 709.88865364 5.12534916 C709.90497589 7.93259307 709.86303999 10.7084314 709.76755989 13.51206791 C709.74394889 14.32907673 709.7203379 15.14608555 709.69601142 15.98785222 C709.61946146 18.5963651 709.53539992 21.2045746 709.45115364 23.81284916 C709.39792427 25.58171455 709.34518392 27.35059472 709.29295051 29.11948979 C709.16385805 33.45496823 709.02802853 37.79018959 708.88865364 42.12534916 C707.57629549 42.1295811 706.26393734 42.13381304 704.91181076 42.13817322 C673.78595528 42.23876524 642.66012175 42.34445842 611.53430537 42.4564661 C607.70645805 42.47023632 603.87861058 42.48396332 600.05076301 42.49766362 C599.28868087 42.50039192 598.52659872 42.50312023 597.74142317 42.50593121 C585.38848393 42.5500524 573.03553551 42.59067011 560.68258019 42.63000178 C548.01511744 42.67041249 535.34767177 42.71456794 522.68023419 42.76222771 C514.85854614 42.79153704 507.03685942 42.81789644 499.21514915 42.84052814 C493.22582627 42.85817016 487.23653497 42.8810125 481.24723709 42.90584004 C478.78409563 42.91522525 476.32094698 42.9228952 473.85779464 42.92876828 C470.50847648 42.93700453 467.15923824 42.95127413 463.8099488 42.96713078 C462.82358267 42.96810889 461.83721654 42.96908699 460.82096052 42.97009474 C459.92871255 42.97556918 459.03646458 42.98104363 458.1171788 42.98668396 C457.34330876 42.98934201 456.56943873 42.99200005 455.77211809 42.99473864 C453.79831308 43.01040864 453.79831308 43.01040864 451.88865364 44.12534916 C451.88865364 43.46534916 451.88865364 42.80534916 451.88865364 42.12534916 C450.81790092 42.13787724 449.7471482 42.15040532 448.64394844 42.16331303 C438.56432352 42.28122443 428.48469648 42.39895269 418.40506732 42.51650059 C413.22275582 42.57694225 408.04044508 42.63744894 402.85813606 42.69810307 C397.85907179 42.75661011 392.86000558 42.81494789 387.86093795 42.87316716 C385.95152231 42.89543423 384.04210738 42.91776281 382.13269317 42.94015324 C379.46305099 42.97144796 376.79340637 43.00252611 374.12376106 43.03355229 C373.33038337 43.04290303 372.53700569 43.05225377 371.71958625 43.06188786 C367.43533611 43.11142242 363.15938139 43.14164513 358.87620246 43.03355229 C358.07559898 43.01353154 357.27499549 42.99351079 356.4501313 42.97288334 C355.59066398 42.95100956 354.73119667 42.92913579 353.84568489 42.90659916 C352.52028945 42.8733051 352.52028945 42.8733051 351.16811836 42.83933842 C348.3457878 42.76836032 345.52347072 42.69686098 342.70115364 42.62534916 C340.78774304 42.57713775 338.87433159 42.52896025 336.96091926 42.48081791 C332.27015404 42.36272183 327.57940085 42.24415825 322.88865364 42.12534916 C322.55865364 42.78534916 322.22865364 43.44534916 321.88865364 44.12534916 C321.88865364 43.46534916 321.88865364 42.80534916 321.88865364 42.12534916 C315.94865364 42.62034916 315.94865364 42.62034916 309.88865364 43.12534916 C309.88865364 43.45534916 309.88865364 43.78534916 309.88865364 44.12534916 C307.57865364 44.12534916 305.26865364 44.12534916 302.88865364 44.12534916 C302.88865364 43.79534916 302.88865364 43.46534916 302.88865364 43.12534916 C264.60865364 43.12534916 226.32865364 43.12534916 186.88865364 43.12534916 C186.88865364 43.45534916 186.88865364 43.78534916 186.88865364 44.12534916 C182.92865364 44.12534916 178.96865364 44.12534916 174.88865364 44.12534916 C174.88865364 43.79534916 174.88865364 43.46534916 174.88865364 43.12534916 C170.59865364 43.12534916 166.30865364 43.12534916 161.88865364 43.12534916 C161.88865364 43.45534916 161.88865364 43.78534916 161.88865364 44.12534916 C158.25865364 44.12534916 154.62865364 44.12534916 150.88865364 44.12534916 C150.88865364 43.79534916 150.88865364 43.46534916 150.88865364 43.12534916 C135.70865364 43.12534916 120.52865364 43.12534916 104.88865364 43.12534916 C104.88865364 43.45534916 104.88865364 43.78534916 104.88865364 44.12534916 C102.24865364 44.12534916 99.60865364 44.12534916 96.88865364 44.12534916 C96.88865364 43.79534916 96.88865364 43.46534916 96.88865364 43.12534916 C63.22865364 42.79534916 29.56865364 42.46534916 -5.11134636 42.12534916 C-5.11134636 0.00044643 -5.11134636 0.00044643 0 0 Z " fill="#272727" transform="translate(159.1113463640213,250.8746508359909)"/>
<path d="M0 0 C1.56038467 0.00279271 3.12076934 0.00558509 4.68115401 0.00837713 C42.98658801 0.0770863 81.29199659 0.15687968 119.59739846 0.24147995 C144.41258285 0.29628548 169.22777181 0.34793424 194.04296875 0.39672852 C194.86913852 0.3983541 195.6953083 0.39997968 196.54651352 0.40165452 C204.84905405 0.41798771 213.15159469 0.43426577 221.45413542 0.45050358 C238.34245077 0.4835344 255.2307654 0.51693134 272.11907959 0.55055237 C273.28186131 0.55286654 273.28186131 0.55286654 274.46813358 0.55522746 C325.55689378 0.65694601 376.64563516 0.76747989 427.734375 0.87890625 C427.734375 15.39890625 427.734375 29.91890625 427.734375 44.87890625 C404.7617673 46.02753664 404.7617673 46.02753664 396.89247704 46.00474739 C395.49877549 46.00692755 395.49877549 46.00692755 394.07691836 46.00915176 C391.03664323 46.01273265 387.9964208 46.00936321 384.95614624 46.00588989 C382.72529246 46.00704483 380.49443888 46.00863484 378.26358569 46.01061714 C372.18998357 46.01475871 366.11639733 46.01274342 360.04279518 46.00963092 C354.14841449 46.00759029 348.25403705 46.01027236 342.35965681 46.01277828 C329.57836246 46.01802072 316.79707314 46.01759733 304.01577833 46.01469937 C292.84150819 46.0121783 281.66723988 46.01152971 270.49296951 46.01272202 C269.75016633 46.0127984 269.00736316 46.01287479 268.24205079 46.01295349 C265.2265489 46.01326484 262.21104701 46.01358324 259.19554513 46.01391325 C230.96026793 46.01696641 202.72499393 46.01420703 174.48971723 46.00881635 C149.3990676 46.00406253 124.30842303 46.00450344 99.21777344 46.00927734 C71.0051289 46.01462737 42.79248718 46.01675866 14.57984221 46.01366508 C11.57559371 46.01334437 8.57134521 46.01303153 5.56709671 46.01272202 C4.82740976 46.01264294 4.0877228 46.01256386 3.32562109 46.01248239 C-7.85467323 46.01134388 -19.03496552 46.01267692 -30.21525955 46.01520157 C-42.91086323 46.01805416 -55.60646112 46.01735983 -68.30206408 46.01192082 C-74.78330714 46.00928378 -81.26453986 46.00827893 -87.74578285 46.01156998 C-93.66891724 46.01453234 -99.59203163 46.01294116 -105.51516418 46.00759242 C-107.66667367 46.00646809 -109.81818482 46.00705978 -111.96969326 46.00946821 C-114.87610931 46.01247421 -117.78245529 46.0094256 -120.68886757 46.00474739 C-121.53943009 46.00708856 -122.38999262 46.00942972 -123.26632977 46.01184183 C-129.03732374 45.99305688 -129.03732374 45.99305688 -131.265625 44.87890625 C-131.265625 45.86890625 -131.265625 46.85890625 -131.265625 47.87890625 C-131.925625 47.54890625 -132.585625 47.21890625 -133.265625 46.87890625 C-132.935625 46.21890625 -132.605625 45.55890625 -132.265625 44.87890625 C-132.96261662 45.04114842 -133.65960825 45.2033906 -134.37772083 45.3705492 C-137.46976766 45.91484143 -140.33273956 46.00776652 -143.47209167 46.01261902 C-145.34600838 46.01901649 -145.34600838 46.01901649 -147.25778198 46.02554321 C-148.63433841 46.02519374 -150.01089481 46.02473224 -151.38745117 46.02416992 C-152.84305406 46.02716334 -154.29865615 46.0305663 -155.7542572 46.03434753 C-159.70025481 46.04316902 -163.64623072 46.04552475 -167.59223723 46.04616332 C-170.88536187 46.04711357 -174.17848147 46.05079285 -177.47160417 46.05433542 C-185.23619901 46.06247147 -193.00078225 46.06492027 -200.76538086 46.06420898 C-208.78331893 46.06360709 -216.80118996 46.07418307 -224.81911105 46.08995265 C-231.70071804 46.1030065 -238.58230304 46.10839385 -245.46392232 46.10775357 C-249.57530375 46.10749813 -253.68662549 46.11037545 -257.79799461 46.12093163 C-261.65985513 46.13057744 -265.52159838 46.13071618 -269.38346291 46.12341499 C-270.80329178 46.12236504 -272.22312783 46.12475624 -273.64294434 46.13077545 C-275.57531806 46.13843958 -277.50773137 46.13267666 -279.44010925 46.12614441 C-281.06470707 46.12696156 -281.06470707 46.12696156 -282.72212505 46.12779522 C-285.265625 45.87890625 -285.265625 45.87890625 -287.265625 43.87890625 C-287.46817017 42.00595093 -287.46817017 42.00595093 -287.40087891 39.70458984 C-287.38070709 38.84384857 -287.36053528 37.9831073 -287.3397522 37.09628296 C-287.30755585 36.16603302 -287.2753595 35.23578308 -287.2421875 34.27734375 C-287.21716156 33.32574371 -287.19213562 32.37414368 -287.16635132 31.39370728 C-287.084013 28.34675194 -286.98747708 25.30043149 -286.890625 22.25390625 C-286.83239958 20.1914324 -286.77509601 18.1289323 -286.71875 16.06640625 C-286.57841356 11.00353942 -286.42534063 5.9411973 -286.265625 0.87890625 C-199.39592239 -0.0941469 -112.52727819 -0.18845406 0 0 Z M-284.265625 2.87890625 C-284.265625 16.07890625 -284.265625 29.27890625 -284.265625 42.87890625 C-49.965625 42.87890625 184.334375 42.87890625 425.734375 42.87890625 C425.734375 29.67890625 425.734375 16.47890625 425.734375 2.87890625 C191.434375 2.87890625 -42.865625 2.87890625 -284.265625 2.87890625 Z " fill="#1F1F1F" transform="translate(440.265625,727.12109375)"/>
<path d="M0 0 C0.89365884 -0.00250352 1.78731769 -0.00500704 2.70805711 -0.00758642 C3.70321184 -0.00524525 4.69836658 -0.00290409 5.72367752 -0.00049198 C7.30061459 -0.00267214 7.30061459 -0.00267214 8.90940899 -0.00489634 C12.48039562 -0.00858521 16.05134032 -0.00505645 19.62232673 -0.00163448 C22.19026032 -0.00278526 24.75819374 -0.00437249 27.32612681 -0.00636172 C32.935894 -0.00998695 38.54565159 -0.00985554 44.15541923 -0.00731456 C52.50125443 -0.00354469 60.84708148 -0.0054598 69.19291662 -0.00852287 C84.11746841 -0.01380559 99.04201593 -0.0133242 113.96656813 -0.01044396 C127.07609386 -0.0079268 140.18561804 -0.00727234 153.29514396 -0.0084666 C154.6004184 -0.00858118 154.6004184 -0.00858118 155.93206202 -0.00869807 C159.46542137 -0.00900946 162.99878072 -0.00932786 166.53214006 -0.00965784 C199.75536725 -0.01272322 232.97859173 -0.00993709 266.2018185 -0.00456094 C295.55299808 0.00015279 324.90417332 -0.00021163 354.25535285 -0.00502193 C387.30069371 -0.01041964 420.34603216 -0.01247339 453.3913734 -0.00940967 C456.9424268 -0.00908905 460.49348021 -0.00877619 464.04453361 -0.0084666 C464.9187444 -0.00838752 465.79295519 -0.00830845 466.69365721 -0.00822697 C478.86855711 -0.00717748 491.04345542 -0.00807466 503.21835511 -0.0104524 C523.66330724 -0.01439018 544.10825386 -0.01373026 564.55320442 -0.00404537 C565.70144787 -0.00351449 565.70144787 -0.00351449 566.87288817 -0.00297289 C614.88287296 0.02008456 662.8856154 0.24059836 710.88865364 1.12534916 C710.22865364 1.45534916 709.56865364 1.78534916 708.88865364 2.12534916 C709.21865364 3.11534916 709.54865364 4.10534916 709.88865364 5.12534916 C709.90497589 7.93259307 709.86303999 10.7084314 709.76755989 13.51206791 C709.74394889 14.32907673 709.7203379 15.14608555 709.69601142 15.98785222 C709.61946146 18.5963651 709.53539992 21.2045746 709.45115364 23.81284916 C709.39792427 25.58171455 709.34518392 27.35059472 709.29295051 29.11948979 C709.16385805 33.45496823 709.02802853 37.79018959 708.88865364 42.12534916 C707.57629549 42.1295811 706.26393734 42.13381304 704.91181076 42.13817322 C673.78595528 42.23876524 642.66012175 42.34445842 611.53430537 42.4564661 C607.70645805 42.47023632 603.87861058 42.48396332 600.05076301 42.49766362 C599.28868087 42.50039192 598.52659872 42.50312023 597.74142317 42.50593121 C585.38848393 42.5500524 573.03553551 42.59067011 560.68258019 42.63000178 C548.01511744 42.67041249 535.34767177 42.71456794 522.68023419 42.76222771 C514.85854614 42.79153704 507.03685942 42.81789644 499.21514915 42.84052814 C493.22582627 42.85817016 487.23653497 42.8810125 481.24723709 42.90584004 C478.78409563 42.91522525 476.32094698 42.9228952 473.85779464 42.92876828 C470.50847648 42.93700453 467.15923824 42.95127413 463.8099488 42.96713078 C462.82358267 42.96810889 461.83721654 42.96908699 460.82096052 42.97009474 C459.92871255 42.97556918 459.03646458 42.98104363 458.1171788 42.98668396 C457.34330876 42.98934201 456.56943873 42.99200005 455.77211809 42.99473864 C453.79831308 43.01040864 453.79831308 43.01040864 451.88865364 44.12534916 C451.88865364 43.46534916 451.88865364 42.80534916 451.88865364 42.12534916 C450.81790092 42.13787724 449.7471482 42.15040532 448.64394844 42.16331303 C438.56432352 42.28122443 428.48469648 42.39895269 418.40506732 42.51650059 C413.22275582 42.57694225 408.04044508 42.63744894 402.85813606 42.69810307 C397.85907179 42.75661011 392.86000558 42.81494789 387.86093795 42.87316716 C385.95152231 42.89543423 384.04210738 42.91776281 382.13269317 42.94015324 C379.46305099 42.97144796 376.79340637 43.00252611 374.12376106 43.03355229 C373.33038337 43.04290303 372.53700569 43.05225377 371.71958625 43.06188786 C367.43533611 43.11142242 363.15938139 43.14164513 358.87620246 43.03355229 C358.07559898 43.01353154 357.27499549 42.99351079 356.4501313 42.97288334 C355.59066398 42.95100956 354.73119667 42.92913579 353.84568489 42.90659916 C352.52028945 42.8733051 352.52028945 42.8733051 351.16811836 42.83933842 C348.3457878 42.76836032 345.52347072 42.69686098 342.70115364 42.62534916 C340.78774304 42.57713775 338.87433159 42.52896025 336.96091926 42.48081791 C332.27015404 42.36272183 327.57940085 42.24415825 322.88865364 42.12534916 C322.55865364 42.78534916 322.22865364 43.44534916 321.88865364 44.12534916 C321.88865364 43.46534916 321.88865364 42.80534916 321.88865364 42.12534916 C315.94865364 42.62034916 315.94865364 42.62034916 309.88865364 43.12534916 C309.88865364 43.45534916 309.88865364 43.78534916 309.88865364 44.12534916 C307.57865364 44.12534916 305.26865364 44.12534916 302.88865364 44.12534916 C302.88865364 43.79534916 302.88865364 43.46534916 302.88865364 43.12534916 C264.60865364 43.12534916 226.32865364 43.12534916 186.88865364 43.12534916 C186.88865364 43.45534916 186.88865364 43.78534916 186.88865364 44.12534916 C182.92865364 44.12534916 178.96865364 44.12534916 174.88865364 44.12534916 C174.88865364 43.79534916 174.88865364 43.46534916 174.88865364 43.12534916 C170.59865364 43.12534916 166.30865364 43.12534916 161.88865364 43.12534916 C161.88865364 43.45534916 161.88865364 43.78534916 161.88865364 44.12534916 C158.25865364 44.12534916 154.62865364 44.12534916 150.88865364 44.12534916 C150.88865364 43.79534916 150.88865364 43.46534916 150.88865364 43.12534916 C135.70865364 43.12534916 120.52865364 43.12534916 104.88865364 43.12534916 C104.88865364 43.45534916 104.88865364 43.78534916 104.88865364 44.12534916 C102.24865364 44.12534916 99.60865364 44.12534916 96.88865364 44.12534916 C96.88865364 43.79534916 96.88865364 43.46534916 96.88865364 43.12534916 C63.22865364 42.79534916 29.56865364 42.46534916 -5.11134636 42.12534916 C-5.11134636 0.00044643 -5.11134636 0.00044643 0 0 Z M-3.11134636 3.12534916 C-3.11134636 15.33534916 -3.11134636 27.54534916 -3.11134636 40.12534916 C231.18865364 40.12534916 465.48865364 40.12534916 706.88865364 40.12534916 C706.88865364 27.91534916 706.88865364 15.70534916 706.88865364 3.12534916 C472.58865364 3.12534916 238.28865364 3.12534916 -3.11134636 3.12534916 Z " fill="#1E1D1D" transform="translate(159.1113463640213,250.8746508359909)"/>
<path d="M0 0 C1.32751785 0.00212242 1.32751785 0.00212242 2.68185425 0.00428772 C5.51449941 0.00989485 8.34706614 0.02244854 11.1796875 0.03515625 C13.09765511 0.04017033 15.01562396 0.0447334 16.93359375 0.04882812 C21.64065532 0.05986659 26.3476581 0.077136 31.0546875 0.09765625 C31.0546875 0.42765625 31.0546875 0.75765625 31.0546875 1.09765625 C17.70927151 2.10080161 4.4328392 2.1854984 -8.9453125 2.09765625 C-8.900364 3.51766937 -8.900364 3.51766937 -8.85450745 4.96636963 C-7.75486839 40.8121649 -7.82282399 76.6530925 -7.87328589 112.51108789 C-7.88470654 120.77788196 -7.8900221 129.04467712 -7.89498889 137.31147718 C-7.90528834 154.24021432 -7.92353685 171.16892939 -7.9453125 188.09765625 C10.8646875 188.09765625 29.6746875 188.09765625 49.0546875 188.09765625 C42.77102178 192.28676673 34.13142832 191.24521057 26.80859375 191.23046875 C25.2310154 191.23190384 25.2310154 191.23190384 23.62156677 191.23336792 C21.41380757 191.23404502 19.20604633 191.23222368 16.99829102 191.22802734 C13.60363374 191.22263472 10.20910652 191.22800742 6.81445312 191.234375 C4.66666637 191.23371487 2.5188797 191.23243507 0.37109375 191.23046875 C-0.64858994 191.23249298 -1.66827362 191.23451721 -2.71885681 191.23660278 C-3.65395584 191.23345062 -4.58905487 191.23029846 -5.55249023 191.22705078 C-6.79203712 191.22585739 -6.79203712 191.22585739 -8.05662537 191.22463989 C-9.9453125 191.09765625 -9.9453125 191.09765625 -10.9453125 190.09765625 C-11.04300303 187.65655605 -11.07527635 185.24378333 -11.06556702 182.80223083 C-11.06642144 182.02958501 -11.06727587 181.25693919 -11.06815618 180.46087986 C-11.06981332 177.85207071 -11.06428581 175.24332479 -11.05883789 172.63452148 C-11.05855604 170.77232871 -11.0587137 168.91013582 -11.0592804 167.04794312 C-11.05956847 161.97584039 -11.05367021 156.9037611 -11.04670644 151.83166385 C-11.04047447 146.53719624 -11.03986923 141.24272815 -11.03868103 135.94825745 C-11.03556725 125.91494201 -11.02735323 115.8816374 -11.01733154 105.84832674 C-11.00617185 94.4289334 -11.00066032 83.00953956 -10.99563611 71.59014213 C-10.98517065 48.09264082 -10.96757031 24.59514914 -10.9453125 1.09765625 C-7.56138242 -0.59430879 -3.72053459 -0.02220924 0 0 Z " fill="#060606" transform="translate(577.9453125,399.90234375)"/>
<path d="M0 0 C34.32 0 68.64 0 104 0 C104 0.33 104 0.66 104 1 C70.34 1 36.68 1 2 1 C2 90.1 2 179.2 2 271 C36.65 271 71.3 271 107 271 C107 271.33 107 271.66 107 272 C93.42647364 272.78748008 79.90006398 273.17458636 66.3046875 273.203125 C65.37672489 273.20595238 64.44876228 273.20877975 63.4926796 273.21169281 C58.61442042 273.22647751 53.73618942 273.23584587 48.85791016 273.24023438 C43.82750644 273.24579625 38.79736298 273.27004074 33.76704216 273.29820633 C29.87756544 273.31675335 25.98815385 273.32203328 22.09863663 273.32357025 C20.2414108 273.32659794 18.38418616 273.33463036 16.52700424 273.34775543 C13.95252266 273.36470432 11.37871304 273.36296754 8.80419922 273.35644531 C8.03864716 273.3656601 7.27309509 273.37487488 6.48434448 273.3843689 C4.37081909 273.36749268 4.37081909 273.36749268 1 273 C0.01 271.515 0.01 271.515 -1 270 C-0.34 270 0.32 270 1 270 C0.67 180.9 0.34 91.8 0 0 Z " fill="#444443" transform="translate(522,359)"/>
<path d="M0 0 C3.45718175 3.45718175 3.03970459 8.31511771 3.11352539 13.00756836 C3.1132795 14.45166982 3.10791848 15.89577873 3.09765625 17.33984375 C3.09664917 18.0208313 3.09564209 18.70181885 3.09460449 19.40344238 C3.08942526 21.91481238 3.07546458 24.42615812 3.0625 26.9375 C3.041875 32.568125 3.02125 38.19875 3 44 C21.81 44 40.62 44 60 44 C53.71633428 48.18911048 45.07674082 47.14755432 37.75390625 47.1328125 C36.1763279 47.13424759 36.1763279 47.13424759 34.56687927 47.13571167 C32.35912007 47.13638877 30.15135883 47.13456743 27.94360352 47.13037109 C24.54894624 47.12497847 21.15441902 47.13035117 17.75976562 47.13671875 C15.61197887 47.13605862 13.4641922 47.13477882 11.31640625 47.1328125 C10.29672256 47.13483673 9.27703888 47.13686096 8.22645569 47.13894653 C7.29135666 47.13579437 6.35625763 47.13264221 5.39282227 47.12939453 C4.15327538 47.12820114 4.15327538 47.12820114 2.88868713 47.12698364 C1 47 1 47 0 46 C-0.09295815 44.55710213 -0.11746513 43.10970215 -0.11352539 41.66381836 C-0.11344986 40.7429393 -0.11337433 39.82206024 -0.11329651 38.87327576 C-0.10813522 37.87224319 -0.10297394 36.87121063 -0.09765625 35.83984375 C-0.0962413 34.82024063 -0.09482635 33.80063751 -0.09336853 32.75013733 C-0.08775097 29.47922893 -0.0751955 26.20838787 -0.0625 22.9375 C-0.05748726 20.72591244 -0.05292396 18.51432382 -0.04882812 16.30273438 C-0.03777584 10.86846643 -0.02102063 5.43423803 0 0 Z " fill="#171616" transform="translate(567,544)"/>
<path d="M0 0 C1.07290283 0.00700928 1.07290283 0.00700928 2.16748047 0.01416016 C2.89306152 0.01754395 3.61864258 0.02092773 4.36621094 0.02441406 C12.08194027 0.09819133 19.46455973 0.27123092 26.72998047 3.13916016 C26.72998047 3.46916016 26.72998047 3.79916016 26.72998047 4.13916016 C12.86998047 3.80916016 -0.99001953 3.47916016 -15.27001953 3.13916016 C-15.27001953 2.80916016 -15.27001953 2.47916016 -15.27001953 2.13916016 C-14.31289063 2.04828125 -14.31289063 2.04828125 -13.33642578 1.95556641 C-12.09699219 1.82988281 -12.09699219 1.82988281 -10.83251953 1.70166016 C-10.00880859 1.62044922 -9.18509766 1.53923828 -8.33642578 1.45556641 C-5.35558035 0.99914206 -3.34756293 0.01049899 0 0 Z " fill="#1D1D1C" transform="translate(390.27001953125,353.86083984375)"/>
<path d="M0 0 C19.305 0.495 19.305 0.495 39 1 C29.55190045 5.72404977 15.2409092 4.53948308 5 3 C2.10546875 1.95703125 2.10546875 1.95703125 0 1 C0 0.67 0 0.34 0 0 Z " fill="#1B1B1A" transform="translate(371,635)"/>
<path d="M0 0 C0.99 0.33 1.98 0.66 3 1 C2.20335937 1.76183594 1.40671875 2.52367187 0.5859375 3.30859375 C-5.42173173 9.13355259 -10.71831776 14.74578297 -15 22 C-15.66 22.99 -16.32 23.98 -17 25 C-17.71875 23.328125 -17.71875 23.328125 -18 21 C-16.59375 18.484375 -16.59375 18.484375 -14.5 15.75 C-13.76394531 14.78707031 -13.02789062 13.82414062 -12.26953125 12.83203125 C-4.26456071 2.84304047 -4.26456071 2.84304047 0 0 Z " fill="#201F1F" transform="translate(325,376)"/>
<path d="M0 0 C0.33 0 0.66 0 1 0 C1.02494208 4.39249301 1.04297329 8.78494717 1.05493164 13.17749023 C1.05992328 14.66805745 1.06671894 16.15861986 1.07543945 17.64916992 C1.12015168 25.49484991 1.1148321 33.21373172 0 41 C-0.33 41 -0.66 41 -1 41 C-1.33 38.69 -1.66 36.38 -2 34 C-2.33 34 -2.66 34 -3 34 C-3 28.06 -3 22.12 -3 16 C-2.67 16 -2.34 16 -2 16 C-1.67 19.3 -1.34 22.6 -1 26 C-0.67 17.42 -0.34 8.84 0 0 Z " fill="#494949" transform="translate(736,480)"/>
<path d="M0 0 C0.33 0 0.66 0 1 0 C1.1967332 2.8329581 1.38259641 5.66596323 1.5625 8.5 C1.61857422 9.29148437 1.67464844 10.08296875 1.73242188 10.8984375 C2.54132473 24.05659056 2.54132473 24.05659056 -0.4375 27.8125 C-0.953125 28.204375 -1.46875 28.59625 -2 29 C-2.66 29.99 -3.32 30.98 -4 32 C-3.49689162 27.55587597 -2.8623489 23.20146979 -2 18.8125 C-0.82640659 12.57669024 -0.3822392 6.32706458 0 0 Z " fill="#2F2F2E" transform="translate(686,503)"/>
<path d="M0 0 C0.66 0.33 1.32 0.66 2 1 C2 11.89 2 22.78 2 34 C1.34 34 0.68 34 0 34 C-1.29925149 31.40149702 -1.12950813 29.48917253 -1.1328125 26.58203125 C-1.13410156 25.49212891 -1.13539063 24.40222656 -1.13671875 23.27929688 C-1.13285156 22.13525391 -1.12898437 20.99121094 -1.125 19.8125 C-1.12886719 18.68779297 -1.13273438 17.56308594 -1.13671875 16.40429688 C-1.13016681 10.83187584 -1.00045218 5.48660679 0 0 Z " fill="#0D0D0E" transform="translate(568,512)"/>
<path d="M0 0 C1.07785767 0.05208618 1.07785767 0.05208618 2.17749023 0.10522461 C5.78596971 0.34134195 7.54911915 0.63691277 10.625 2.6875 C-1.585 2.6875 -13.795 2.6875 -26.375 2.6875 C-26.375 2.0275 -26.375 1.3675 -26.375 0.6875 C-17.55572614 -0.02996283 -8.8449008 -0.48363791 0 0 Z " fill="#1A1B1A" transform="translate(618.375,400.3125)"/>
<path d="M0 0 C4.95490469 0.40150241 7.62958758 2.94231331 11.0625 6.25 C11.8369043 6.96736328 11.8369043 6.96736328 12.62695312 7.69921875 C15.69743457 10.58586245 18.6385815 13.49026079 21 17 C20.67 17.99 20.34 18.98 20 20 C19.43152344 19.34773437 18.86304688 18.69546875 18.27734375 18.0234375 C14.23684827 13.4500553 10.23260859 9.11774006 5.5078125 5.25 C3.54421011 3.6221431 1.7666578 1.83732411 0 0 Z " fill="#1A1919" transform="translate(458,496)"/>
<path d="M0 0 C4.10389334 6.15584 3.89520322 13.18925572 2.55078125 20.4140625 C2.10115469 21.96383915 1.56274554 23.48762136 1 25 C0.67 25 0.34 25 0 25 C0 16.75 0 8.5 0 0 Z " fill="#1D1D1D" transform="translate(490,543)"/>
<path d="M0 0 C3.0904483 3.0904483 2.9701541 5.40308199 3.1875 9.75 C3.14690298 14.06952271 2.18360441 17.85738456 1 22 C0.67 22 0.34 22 0 22 C0 14.74 0 7.48 0 0 Z " fill="#1C1C1C" transform="translate(441,548)"/>
<path d="M0 0 C3.7699857 1.2566619 4.05755996 2.40666698 5.9375 5.8125 C7.94177663 9.4308874 9.95953085 12.18280505 13 15 C12.67 15.99 12.34 16.98 12 18 C0 5.15533981 0 5.15533981 0 0 Z " fill="#1F1E1E" transform="translate(342,566)"/>
<path d="M0 0 C0.33 0 0.66 0 1 0 C0.85764543 1.72945653 0.71095618 3.45855654 0.5625 5.1875 C0.48128906 6.15042969 0.40007813 7.11335937 0.31640625 8.10546875 C0.02333849 10.78649602 -0.42703754 13.3662986 -1 16 C-2.51953125 14.85546875 -2.51953125 14.85546875 -4 13 C-4.07421875 10.30078125 -4.07421875 10.30078125 -3.6875 7.3125 C-3.56761719 6.31863281 -3.44773437 5.32476563 -3.32421875 4.30078125 C-3.21722656 3.54152344 -3.11023438 2.78226563 -3 2 C-2.34 2.33 -1.68 2.66 -1 3 C-0.67 2.01 -0.34 1.02 0 0 Z " fill="#2C2C2C" transform="translate(734,522)"/>
<path d="M0 0 C0.33 1.32 0.66 2.64 1 4 C1.66 4 2.32 4 3 4 C3 5.65 3 7.3 3 9 C2.34 8.34 1.68 7.68 1 7 C-0.09315246 11.5838914 -0.32282625 16.12511007 -0.5625 20.8125 C-0.60568359 21.60076172 -0.64886719 22.38902344 -0.69335938 23.20117188 C-0.79878321 25.13394215 -0.89983094 27.06695026 -1 29 C-1.33 29 -1.66 29 -2 29 C-2.19538118 19.13325025 -2.38222795 9.65653116 0 0 Z " fill="#494949" transform="translate(300,415)"/>
<path d="M0 0 C3.09672199 2.25216145 3.83992251 5.01994536 4.66015625 8.66015625 C5.25678051 12.76794857 5.15266886 16.86097756 5 21 C3.09260973 17.61645552 2.23265257 14.27713656 1.375 10.5 C1.11460937 9.3759375 0.85421875 8.251875 0.5859375 7.09375 C0 4 0 4 0 0 Z " fill="#161616" transform="translate(728,443)"/>
<path d="M0 0 C0.33 0 0.66 0 1 0 C1.12086218 6.43255401 0.82351864 12.61773055 0 19 C-2.83941649 14.74087527 -2.40297498 10.9984397 -2 6 C-1 2.375 -1 2.375 0 0 Z " fill="#151515" transform="translate(348,421)"/>
<path d="M0 0 C1.485 0.99 1.485 0.99 3 2 C4.37633007 9.11103869 3.78777182 15.83733626 3 23 C2.67 23 2.34 23 2 23 C1.34 15.41 0.68 7.82 0 0 Z " fill="#383737" transform="translate(684,466)"/>
<path d="M0 0 C0.33 0.66 0.66 1.32 1 2 C-0.98 2.33 -2.96 2.66 -5 3 C-5 3.66 -5 4.32 -5 5 C-8.21451269 6.60725635 -11.43612536 6.05748185 -15 6 C-14.34 5.34 -13.68 4.68 -13 4 C-13.33 3.34 -13.66 2.68 -14 2 C-7.07 1.01 -7.07 1.01 0 0 Z " fill="#343433" transform="translate(383,354)"/>
<path d="M0 0 C4.09202235 1.36400745 4.90355024 3.2962721 7 7 C7.75 10.375 7.75 10.375 8 13 C7.34 12.34 6.68 11.68 6 11 C5.34 11.66 4.68 12.32 4 13 C3.32942113 11.2097939 2.6636531 9.41778511 2 7.625 C1.62875 6.62726563 1.2575 5.62953125 0.875 4.6015625 C0 2 0 2 0 0 Z " fill="#2C2C2C" transform="translate(677,444)"/>
<path d="M0 0 C3.65844986 3.29260487 5.83551416 6.05570351 6.1171875 11.09765625 C6.12412868 13.06547967 6.066668 15.03329398 6 17 C4.0990238 14.1485357 3.03734101 11.70289524 1.875 8.5 C1.52179688 7.5409375 1.16859375 6.581875 0.8046875 5.59375 C0 3 0 3 0 0 Z " fill="#1B1B1A" transform="translate(479,402)"/>
<path d="M0 0 C0 0.66 0 1.32 0 2 C1.32 2.33 2.64 2.66 4 3 C-1.80766296 4.5056904 -6.9981863 5.21824777 -13 5 C-13 4.67 -13 4.34 -13 4 C-9.535 3.505 -9.535 3.505 -6 3 C-6.99 2.34 -7.98 1.68 -9 1 C-5.92677456 0.08941469 -3.19902639 -0.08886184 0 0 Z " fill="#3C3C3B" transform="translate(643,625)"/>
<path d="M0 0 C3.54243452 1.36591169 6.92627929 2.90931484 10.3125 4.625 C11.63701172 5.29402344 11.63701172 5.29402344 12.98828125 5.9765625 C13.65214844 6.31429687 14.31601562 6.65203125 15 7 C15 7.33 15 7.66 15 8 C10.05283331 7.50528333 6.2377837 6.66093395 2 4 C0.625 1.8125 0.625 1.8125 0 0 Z " fill="#1C1C1B" transform="translate(331,620)"/>
<path d="M0 0 C6.93 0.33 13.86 0.66 21 1 C21 1.33 21 1.66 21 2 C14.565 2.495 14.565 2.495 8 3 C8 3.33 8 3.66 8 4 C6.02 4 4.04 4 2 4 C2.33 3.34 2.66 2.68 3 2 C2.01 1.34 1.02 0.68 0 0 Z " fill="#363534" transform="translate(380,594)"/>
<path d="M0 0 C5.27315333 0.4452885 10.01770224 1.08373163 15 3 C14.67 3.99 14.34 4.98 14 6 C9.38 4.35 4.76 2.7 0 1 C0 0.67 0 0.34 0 0 Z " fill="#1C1C1C" transform="translate(422,480)"/>
<path d="M0 0 C3.08693704 1.35852131 5.08641734 2.84510953 7.3125 5.375 C7.84488281 5.96023438 8.37726562 6.54546875 8.92578125 7.1484375 C10 9 10 9 9.66796875 11.2265625 C9.44753906 11.81179688 9.22710938 12.39703125 9 13 C7.49710267 11.02297434 5.99758658 9.0435417 4.5 7.0625 C4.07074219 6.49853516 3.64148438 5.93457031 3.19921875 5.35351562 C0 1.11328125 0 1.11328125 0 0 Z " fill="#1D1C1C" transform="translate(704,399)"/>
<path d="M0 0 C-5.04140164 2.81532819 -9.22621075 4.5188509 -15 5 C-12.86699672 2.63442627 -11.04050601 1.37032472 -8.0625 0.25 C-7.39347656 -0.01296875 -6.72445313 -0.2759375 -6.03515625 -0.546875 C-3.68352509 -1.07046274 -2.26382477 -0.74954377 0 0 Z " fill="#1D1D1C" transform="translate(424,590)"/>
<path d="M0 0 C4.3429862 0.65802821 8.07277596 2.03638798 12 4 C12.33 4.99 12.66 5.98 13 7 C7.92990529 6.52467862 4.02506742 3.95637706 0 1 C0 0.67 0 0.34 0 0 Z " fill="#1D1D1D" transform="translate(358,586)"/>
<path d="M0 0 C0.89203125 0.00902344 1.7840625 0.01804687 2.703125 0.02734375 C3.37859375 0.03894531 4.0540625 0.05054688 4.75 0.0625 C-0.5863834 2.89113975 -6.17410633 4.44224335 -12.25 4.0625 C-11.26 3.7325 -10.27 3.4025 -9.25 3.0625 C-9.25 2.4025 -9.25 1.7425 -9.25 1.0625 C-6.09493858 0.12630187 -3.28413498 -0.0432123 0 0 Z " fill="#191919" transform="translate(369.25,356.9375)"/>
<path d="M0 0 C-0.33 0.66 -0.66 1.32 -1 2 C-2.918125 1.8453125 -2.918125 1.8453125 -4.875 1.6875 C-5.95394531 1.60048828 -5.95394531 1.60048828 -7.0546875 1.51171875 C-9 1 -9 1 -11 -2 C-6.74891557 -3.87047715 -3.9091836 -1.87941519 0 0 Z " fill="#201F1F" transform="translate(414,523)"/>
<path d="M0 0 C0.66 0 1.32 0 2 0 C0.6062718 4.43458973 -1.60582235 6.87378374 -5 10 C-5.99 9.67 -6.98 9.34 -8 9 C-7.50628906 8.51789062 -7.01257813 8.03578125 -6.50390625 7.5390625 C-5.86324219 6.90742187 -5.22257813 6.27578125 -4.5625 5.625 C-3.92441406 4.99851562 -3.28632812 4.37203125 -2.62890625 3.7265625 C-0.92117824 2.08276939 -0.92117824 2.08276939 0 0 Z " fill="#1F1F1E" transform="translate(704,590)"/>
<path d="M0 0 C0.33 0 0.66 0 1 0 C0.88541307 1.43836751 0.75790884 2.87570966 0.625 4.3125 C0.55539062 5.11300781 0.48578125 5.91351562 0.4140625 6.73828125 C0 9 0 9 -2 12 C-2.66 12 -3.32 12 -4 12 C-4 10.68 -4 9.36 -4 8 C-3.34 8 -2.68 8 -2 8 C-1.7834375 6.576875 -1.7834375 6.576875 -1.5625 5.125 C-1 2 -1 2 0 0 Z " fill="#191919" transform="translate(728,546)"/>
<path d="M0 0 C5.35152885 0.32433508 8.28280043 3.49704824 12 7 C11.01 7.33 10.02 7.66 9 8 C6.73828125 6.6015625 6.73828125 6.6015625 4.3125 4.625 C3.50425781 3.97789062 2.69601562 3.33078125 1.86328125 2.6640625 C1.24839844 2.11492187 0.63351562 1.56578125 0 1 C0 0.67 0 0.34 0 0 Z " fill="#201F1F" transform="translate(458,496)"/>
<path d="M0 0 C-3.66291938 2.47785723 -6.6109185 3.48964169 -11 4 C-11.33 3.34 -11.66 2.68 -12 2 C-10.56656 1.46809459 -9.12804633 0.94984742 -7.6875 0.4375 C-6.48673828 0.00244141 -6.48673828 0.00244141 -5.26171875 -0.44140625 C-3 -1 -3 -1 0 0 Z " fill="#201F1F" transform="translate(439,630)"/>
<path d="M0 0 C2.72957339 2.35735884 3.88893396 4.58133526 5 8 C5 8.99 5 9.98 5 11 C4.34 11 3.68 11 3 11 C0 4.5 0 4.5 0 0 Z " fill="#212120" transform="translate(298,579)"/>
<path d="M0 0 C1.5625 1.1875 1.5625 1.1875 3 3 C2.79085853 6.97368795 1.15493022 9.72075836 -1 13 C-2.95177846 9.09644308 -1.14247021 4.08025075 0 0 Z " fill="#2E2E2E" transform="translate(440,565)"/>
<path d="M0 0 C3 1 3 1 4.16796875 2.77734375 C4.50441406 3.49019531 4.84085937 4.20304688 5.1875 4.9375 C5.70376953 6.00291016 5.70376953 6.00291016 6.23046875 7.08984375 C7 9 7 9 7 11 C6.34 11 5.68 11 5 11 C4.16151196 9.54462432 3.32936066 8.08559627 2.5 6.625 C1.80390625 5.40683594 1.80390625 5.40683594 1.09375 4.1640625 C0 2 0 2 0 0 Z " fill="#1C1C1B" transform="translate(480,517)"/>
<path d="M0 0 C0.99 0 1.98 0 3 0 C1.515 5.445 1.515 5.445 0 11 C-0.33 11 -0.66 11 -1 11 C-1.125 3.375 -1.125 3.375 0 0 Z " fill="#1A1919" transform="translate(302,408)"/>
<path d="M0 0 C-1.49097658 3.7952131 -3.75700849 5.61042731 -7 8 C-7.66 7.34 -8.32 6.68 -9 6 C-7.8803014 4.99406757 -6.7540588 3.9954151 -5.625 3 C-4.68527344 2.1646875 -4.68527344 2.1646875 -3.7265625 1.3125 C-2 0 -2 0 0 0 Z " fill="#1D1C1B" transform="translate(469,610)"/>
<path d="M0 0 C0 3 0 3 -1.53125 4.82421875 C-2.1809375 5.43910156 -2.830625 6.05398438 -3.5 6.6875 C-4.1496875 7.31011719 -4.799375 7.93273437 -5.46875 8.57421875 C-5.9740625 9.04472656 -6.479375 9.51523437 -7 10 C-7.66 9.67 -8.32 9.34 -9 9 C-8.06725891 7.87105124 -7.12859878 6.74699124 -6.1875 5.625 C-5.66542969 4.99851562 -5.14335938 4.37203125 -4.60546875 3.7265625 C-3 2 -3 2 0 0 Z " fill="#101010" transform="translate(667,564)"/>
<path d="M0 0 C4.79280002 0.80904103 6.13520113 3.25984591 9 7 C6 7 6 7 4.39453125 5.46875 C3.87246094 4.8190625 3.35039063 4.169375 2.8125 3.5 C2.28269531 2.8503125 1.75289062 2.200625 1.20703125 1.53125 C0.80871094 1.0259375 0.41039062 0.520625 0 0 Z " fill="#191818" transform="translate(693,388)"/>
<path d="M0 0 C1.33332095 2.6666419 0.67102033 4.16680303 0 7 C-1.98 7.66 -3.96 8.32 -6 9 C-4.47291037 5.56404834 -2.40072955 2.88087546 0 0 Z " fill="#333232" transform="translate(671,557)"/>
<path d="M0 0 C1.875 0.125 1.875 0.125 4 1 C5.25 4.0625 5.25 4.0625 6 7 C5.01 7 4.02 7 3 7 C0.64276511 4.46815512 0 3.52809907 0 0 Z " fill="#2E2F2E" transform="translate(302,459)"/>
<path d="M0 0 C0.33 1.32 0.66 2.64 1 4 C1.66 4 2.32 4 3 4 C3 6.31 3 8.62 3 11 C0.28527098 8.28527098 -0.14258516 5.69347931 -1 2 C-0.67 1.34 -0.34 0.68 0 0 Z " fill="#181817" transform="translate(339,554)"/>
<path d="M0 0 C0.33 0 0.66 0 1 0 C1.37211538 7.56634615 1.37211538 7.56634615 -0.51171875 9.76171875 C-1.00285156 10.17035156 -1.49398437 10.57898438 -2 11 C-1.85892253 9.54119891 -1.71197585 8.08296449 -1.5625 6.625 C-1.48128906 5.81289063 -1.40007813 5.00078125 -1.31640625 4.1640625 C-1 2 -1 2 0 0 Z " fill="#121212" transform="translate(731,534)"/>
<path d="M0 0 C6.625 -0.125 6.625 -0.125 10 1 C10.33 1.99 10.66 2.98 11 4 C7.37 3.01 3.74 2.02 0 1 C0 0.67 0 0.34 0 0 Z " fill="#2F2F2F" transform="translate(393,519)"/>
<path d="M0 0 C3.81684226 1.55500981 6.19195732 4.03595495 9 7 C6.75 6.875 6.75 6.875 4 6 C1.6875 2.9375 1.6875 2.9375 0 0 Z " fill="#181717" transform="translate(321,486)"/>
<path d="M0 0 C2.86697492 1.28519565 4.97607712 2.57129254 7 5 C7 5.66 7 6.32 7 7 C4.625 6.3125 4.625 6.3125 2 5 C0.6875 2.375 0.6875 2.375 0 0 Z " fill="#1A1A19" transform="translate(660,419)"/>
<path d="M0 0 C-1.305239 2.61047801 -2.35826574 2.68066423 -5.0625 3.625 C-6.16271484 4.01558594 -6.16271484 4.01558594 -7.28515625 4.4140625 C-7.85105469 4.60742188 -8.41695313 4.80078125 -9 5 C-8.6875 3.0625 -8.6875 3.0625 -8 1 C-5.07175348 0.02391783 -3.04386724 -0.08226668 0 0 Z " fill="#1A1A1A" transform="translate(351,363)"/>
<path d="M0 0 C3.3 0.33 6.6 0.66 10 1 C9.67 1.66 9.34 2.32 9 3 C5.37 3 1.74 3 -2 3 C-1.34 2.01 -0.68 1.02 0 0 Z " fill="#3D3C3B" transform="translate(408,635)"/>
<path d="M0 0 C2.60018816 3.90028225 2.15085514 7.47434569 2 12 C1.01 12.495 1.01 12.495 0 13 C-0.19466332 11.20909747 -0.38051213 9.41723495 -0.5625 7.625 C-0.66691406 6.62726563 -0.77132812 5.62953125 -0.87890625 4.6015625 C-1 2 -1 2 0 0 Z " fill="#0F1010" transform="translate(568,466)"/>
<path d="M0 0 C3 1 3 1 4.75 3.375 C6 6 6 6 5 9 C2.67527795 6.14693203 1.2491742 3.45925163 0 0 Z " fill="#1D1D1D" transform="translate(715,414)"/>
<path d="M0 0 C3.48539917 0.64544429 6.02819057 2.10134397 9 4 C7.3125 4.6875 7.3125 4.6875 5 5 C2.25 3.6875 2.25 3.6875 0 2 C0 1.34 0 0.68 0 0 Z " fill="#1D1E1D" transform="translate(644,408)"/>
<path d="M0 0 C4.29 0.33 8.58 0.66 13 1 C13 1.33 13 1.66 13 2 C8.545 2.495 8.545 2.495 4 3 C4 2.34 4 1.68 4 1 C2.68 0.67 1.36 0.34 0 0 Z " fill="#393938" transform="translate(628,360)"/>
<path d="M0 0 C0.66 0.33 1.32 0.66 2 1 C2 1.99 2 2.98 2 4 C0.35 4.66 -1.3 5.32 -3 6 C-3 3 -3 3 -1.5 1.3125 C-0.7575 0.6628125 -0.7575 0.6628125 0 0 Z " fill="#2F2E2D" transform="translate(425,586)"/>
<path d="M0 0 C1.65 0.99 3.3 1.98 5 3 C4.67 3.99 4.34 4.98 4 6 C1.525 5.01 1.525 5.01 -1 4 C-0.67 2.68 -0.34 1.36 0 0 Z " fill="#2E2E2E" transform="translate(355,582)"/>
<path d="M0 0 C0.66 0 1.32 0 2 0 C2 0.66 2 1.32 2 2 C2.66 2 3.32 2 4 2 C4.33 3.98 4.66 5.96 5 8 C4.34 7.01 3.68 6.02 3 5 C2.34 5.66 1.68 6.32 1 7 C0.67 4.69 0.34 2.38 0 0 Z " fill="#2F2E2E" transform="translate(439,545)"/>
<path d="M0 0 C0.66 0.33 1.32 0.66 2 1 C-1.465 3.97 -1.465 3.97 -5 7 C-5 6.01 -5 5.02 -5 4 C-2.5 1.8125 -2.5 1.8125 0 0 Z " fill="#191918" transform="translate(694,601)"/>
<path d="M0 0 C0.93065133 2.60582371 1.14917407 3.64198224 0.0625 6.25 C-0.4634375 7.11625 -0.4634375 7.11625 -1 8 C-1.66 8 -2.32 8 -3 8 C-2.45276317 4.62537285 -1.9451 2.91765 0 0 Z " fill="#181818" transform="translate(485,585)"/>
<path d="M0 0 C1.485 0.99 1.485 0.99 3 2 C2.67 4.31 2.34 6.62 2 9 C1.67 8.01 1.34 7.02 1 6 C0.34 6 -0.32 6 -1 6 C-0.67 4.02 -0.34 2.04 0 0 Z " fill="#2F2F2F" transform="translate(487,573)"/>
<path d="M0 0 C0.33 0.66 0.66 1.32 1 2 C-0.98 4.97 -0.98 4.97 -3 8 C-3.75 6.25 -3.75 6.25 -4 4 C-2.0625 1.75 -2.0625 1.75 0 0 Z " fill="#1B1B1B" transform="translate(676,551)"/>
<path d="M0 0 C5.75 1.75 5.75 1.75 8 4 C5 5 5 5 2.875 4.25 C1 3 1 3 0 0 Z " fill="#1C1C1C" transform="translate(335,496)"/>
<path d="M0 0 C0.33 0 0.66 0 1 0 C1.33 2.97 1.66 5.94 2 9 C1.34 9 0.68 9 0 9 C-1.125 2.25 -1.125 2.25 0 0 Z " fill="#151616" transform="translate(568,495)"/>
<path d="M0 0 C3.37503669 1.1858237 5.64722731 2.27573689 8 5 C4.33776842 4.50510384 2.33006074 3.94323463 0 1 C0 0.67 0 0.34 0 0 Z " fill="#1D1C1C" transform="translate(418,400)"/>
<path d="M0 0 C1.32 0.66 2.64 1.32 4 2 C3.67 3.32 3.34 4.64 3 6 C0.48916886 4.74458443 0.12874554 3.49936512 -1 1 C-0.67 0.67 -0.34 0.34 0 0 Z " fill="#2D2D2C" transform="translate(415,397)"/>
<path d="M0 0 C4.95 0 9.9 0 15 0 C15 0.33 15 0.66 15 1 C10.05 1 5.1 1 0 1 C0 0.67 0 0.34 0 0 Z " fill="#504F4F" transform="translate(662,294)"/>
<path d="M0 0 C4.29 0 8.58 0 13 0 C13 0.33 13 0.66 13 1 C8.71 1 4.42 1 0 1 C0 0.67 0 0.34 0 0 Z " fill="#504F4E" transform="translate(696,294)"/>
<path d="M0 0 C0.33 0 0.66 0 1 0 C1 3.63 1 7.26 1 11 C0.67 11 0.34 11 0 11 C0 7.37 0 3.74 0 0 Z " fill="#474746" transform="translate(521,399)"/>
<path d="M0 0 C3.3 0 6.6 0 10 0 C10 0.33 10 0.66 10 1 C6.7 1 3.4 1 0 1 C0 0.67 0 0.34 0 0 Z " fill="#515150" transform="translate(432,294)"/>
<path d="M0 0 C3.3 0 6.6 0 10 0 C10 0.33 10 0.66 10 1 C6.7 1 3.4 1 0 1 C0 0.67 0 0.34 0 0 Z " fill="#515150" transform="translate(371,294)"/>
<path d="M0 0 C3.3 0 6.6 0 10 0 C10 0.33 10 0.66 10 1 C6.7 1 3.4 1 0 1 C0 0.67 0 0.34 0 0 Z " fill="#504F4F" transform="translate(297,294)"/>
<path d="M0 0 C0.66 0 1.32 0 2 0 C2 1.98 2 3.96 2 6 C0 2.25 0 2.25 0 0 Z " fill="#4A4949" transform="translate(520,619)"/>
<path d="M0 0 C0.33 0 0.66 0 1 0 C1 2.31 1 4.62 1 7 C0.67 7 0.34 7 0 7 C0 4.69 0 2.38 0 0 Z " fill="#484847" transform="translate(296,430)"/>
<path d="M0 0 C2.31 0 4.62 0 7 0 C7 0.33 7 0.66 7 1 C4.69 1 2.38 1 0 1 C0 0.67 0 0.34 0 0 Z " fill="#514F4F" transform="translate(622,294)"/>
<path d="M0 0 C2.31 0 4.62 0 7 0 C7 0.33 7 0.66 7 1 C4.69 1 2.38 1 0 1 C0 0.67 0 0.34 0 0 Z " fill="#525151" transform="translate(550,294)"/>
<path d="M0 0 C2.31 0 4.62 0 7 0 C7 0.33 7 0.66 7 1 C4.69 1 2.38 1 0 1 C0 0.67 0 0.34 0 0 Z " fill="#514F4F" transform="translate(542,294)"/>
<path d="M0 0 C2.31 0 4.62 0 7 0 C7 0.33 7 0.66 7 1 C4.69 1 2.38 1 0 1 C0 0.67 0 0.34 0 0 Z " fill="#515150" transform="translate(534,294)"/>
<path d="M0 0 C2.31 0 4.62 0 7 0 C7 0.33 7 0.66 7 1 C4.69 1 2.38 1 0 1 C0 0.67 0 0.34 0 0 Z " fill="#525151" transform="translate(526,294)"/>
<path d="M0 0 C2.31 0 4.62 0 7 0 C7 0.33 7 0.66 7 1 C4.69 1 2.38 1 0 1 C0 0.67 0 0.34 0 0 Z " fill="#515050" transform="translate(449,294)"/>
<path d="M0 0 C2.31 0 4.62 0 7 0 C7 0.33 7 0.66 7 1 C4.69 1 2.38 1 0 1 C0 0.67 0 0.34 0 0 Z " fill="#51504F" transform="translate(414,294)"/>
<path d="M0 0 C2.31 0 4.62 0 7 0 C7 0.33 7 0.66 7 1 C4.69 1 2.38 1 0 1 C0 0.67 0 0.34 0 0 Z " fill="#525050" transform="translate(398,294)"/>
<path d="M0 0 C2.31 0 4.62 0 7 0 C7 0.33 7 0.66 7 1 C4.69 1 2.38 1 0 1 C0 0.67 0 0.34 0 0 Z " fill="#525151" transform="translate(347,294)"/>
<path d="M0 0 C2.31 0 4.62 0 7 0 C7 0.33 7 0.66 7 1 C4.69 1 2.38 1 0 1 C0 0.67 0 0.34 0 0 Z " fill="#525150" transform="translate(286,294)"/>
<path d="M0 0 C0.33 0 0.66 0 1 0 C1 1.98 1 3.96 1 6 C0.67 6 0.34 6 0 6 C0 4.02 0 2.04 0 0 Z " fill="#474645" transform="translate(521,579)"/>
<path d="M0 0 C0.33 0 0.66 0 1 0 C1 1.98 1 3.96 1 6 C0.67 6 0.34 6 0 6 C0 4.02 0 2.04 0 0 Z " fill="#464545" transform="translate(521,507)"/>
<path d="M0 0 C0.33 0 0.66 0 1 0 C1 1.98 1 3.96 1 6 C0.67 6 0.34 6 0 6 C0 4.02 0 2.04 0 0 Z " fill="#464544" transform="translate(521,474)"/>
<path d="M0 0 C0.33 0 0.66 0 1 0 C1 1.98 1 3.96 1 6 C0.67 6 0.34 6 0 6 C0 4.02 0 2.04 0 0 Z " fill="#4A4948" transform="translate(296,438)"/>
<path d="M0 0 C1.98 0 3.96 0 6 0 C6 0.33 6 0.66 6 1 C4.02 1 2.04 1 0 1 C0 0.67 0 0.34 0 0 Z " fill="#514F4F" transform="translate(593,294)"/>
<path d="M0 0 C1.98 0 3.96 0 6 0 C6 0.33 6 0.66 6 1 C4.02 1 2.04 1 0 1 C0 0.67 0 0.34 0 0 Z " fill="#52504F" transform="translate(274,294)"/>
<path d="M0 0 C0.33 0 0.66 0 1 0 C1 1.65 1 3.3 1 5 C0.67 5 0.34 5 0 5 C0 3.35 0 1.7 0 0 Z " fill="#4C4C4C" transform="translate(152,753)"/>
<path d="M0 0 C0.33 0 0.66 0 1 0 C1 1.65 1 3.3 1 5 C0.67 5 0.34 5 0 5 C0 3.35 0 1.7 0 0 Z " fill="#4A4749" transform="translate(152,729)"/>
<path d="M0 0 C0.33 0 0.66 0 1 0 C1 1.65 1 3.3 1 5 C0.67 5 0.34 5 0 5 C0 3.35 0 1.7 0 0 Z " fill="#464645" transform="translate(521,539)"/>
<path d="M0 0 C0.33 0 0.66 0 1 0 C1 1.65 1 3.3 1 5 C0.67 5 0.34 5 0 5 C0 3.35 0 1.7 0 0 Z " fill="#454645" transform="translate(521,435)"/>
<path d="M0 0 C1.65 0 3.3 0 5 0 C5 0.33 5 0.66 5 1 C3.35 1 1.7 1 0 1 C0 0.67 0 0.34 0 0 Z " fill="#4F4E4E" transform="translate(846,294)"/>
<path d="M0 0 C1.65 0 3.3 0 5 0 C5 0.33 5 0.66 5 1 C3.35 1 1.7 1 0 1 C0 0.67 0 0.34 0 0 Z " fill="#51504F" transform="translate(792,294)"/>
<path d="M0 0 C1.65 0 3.3 0 5 0 C5 0.33 5 0.66 5 1 C3.35 1 1.7 1 0 1 C0 0.67 0 0.34 0 0 Z " fill="#504F4F" transform="translate(656,294)"/>
<path d="M0 0 C1.65 0 3.3 0 5 0 C5 0.33 5 0.66 5 1 C3.35 1 1.7 1 0 1 C0 0.67 0 0.34 0 0 Z " fill="#515050" transform="translate(635,294)"/>
<path d="M0 0 C1.65 0 3.3 0 5 0 C5 0.33 5 0.66 5 1 C3.35 1 1.7 1 0 1 C0 0.67 0 0.34 0 0 Z " fill="#525051" transform="translate(571,294)"/>
<path d="M0 0 C4 1 4 1 4 1 Z " fill="#4C4B4B" transform="translate(273,774)"/>
<path d="M0 0 C1 4 1 4 1 4 Z " fill="#484947" transform="translate(521,603)"/>
<path d="M0 0 C1 4 1 4 1 4 Z " fill="#464445" transform="translate(521,498)"/>
<path d="M0 0 C1 4 1 4 1 4 Z " fill="#464545" transform="translate(521,490)"/>
<path d="M0 0 C4 1 4 1 4 1 Z " fill="#4D4B4B" transform="translate(863,294)"/>
<path d="M0 0 C4 1 4 1 4 1 Z " fill="#514F4F" transform="translate(825,294)"/>
<path d="M0 0 C4 1 4 1 4 1 Z " fill="#514F4F" transform="translate(798,294)"/>
<path d="M0 0 C4 1 4 1 4 1 Z " fill="#504F4F" transform="translate(771,294)"/>
<path d="M0 0 C4 1 4 1 4 1 Z " fill="#514F4F" transform="translate(748,294)"/>
<path d="M0 0 C4 1 4 1 4 1 Z " fill="#51504F" transform="translate(718,294)"/>
<path d="M0 0 C4 1 4 1 4 1 Z " fill="#52514F" transform="translate(582,294)"/>
<path d="M0 0 C4 1 4 1 4 1 Z " fill="#52504F" transform="translate(563,294)"/>
<path d="M0 0 C4 1 4 1 4 1 Z " fill="#525050" transform="translate(558,294)"/>
<path d="M0 0 C4 1 4 1 4 1 Z " fill="#504F50" transform="translate(457,294)"/>
<path d="M0 0 C4 1 4 1 4 1 Z " fill="#50504E" transform="translate(388,294)"/>
<path d="M0 0 C4 1 4 1 4 1 Z " fill="#504F4F" transform="translate(361,294)"/>
<path d="M0 0 C4 1 4 1 4 1 Z " fill="#515050" transform="translate(329,294)"/>
<path d="M0 0 C4 1 4 1 4 1 Z " fill="#515050" transform="translate(201,294)"/>
<path d="" fill="#494847" transform="translate(0,0)"/>
<path d="" fill="#484746" transform="translate(0,0)"/>
<path d="" fill="#464646" transform="translate(0,0)"/>
<path d="" fill="#474846" transform="translate(0,0)"/>
<path d="" fill="#454545" transform="translate(0,0)"/>
<path d="" fill="#464645" transform="translate(0,0)"/>
<path d="" fill="#474544" transform="translate(0,0)"/>
<path d="M0 0 C0.66 0 1.32 0 2 0 C1.67 0.66 1.34 1.32 1 2 C0.67 1.34 0.34 0.68 0 0 Z " fill="#484746" transform="translate(520,515)"/>
<path d="" fill="#474745" transform="translate(0,0)"/>
<path d="" fill="#474746" transform="translate(0,0)"/>
<path d="" fill="#494848" transform="translate(0,0)"/>
<path d="M0 0 C0.66 0 1.32 0 2 0 C1.67 0.66 1.34 1.32 1 2 C0.67 1.34 0.34 0.68 0 0 Z " fill="#484745" transform="translate(659,422)"/>
<path d="M0 0 C0.33 0.66 0.66 1.32 1 2 C0.34 1.67 -0.32 1.34 -1 1 C-0.67 0.67 -0.34 0.34 0 0 Z " fill="#484847" transform="translate(657,420)"/>
<path d="" fill="#464745" transform="translate(0,0)"/>
<path d="" fill="#474745" transform="translate(0,0)"/>
<path d="" fill="#474746" transform="translate(0,0)"/>
<path d="M0 0 C3 1 3 1 3 1 Z " fill="#454443" transform="translate(384,398)"/>
<path d="" fill="#494847" transform="translate(0,0)"/>
<path d="M0 0 C3 1 3 1 3 1 Z " fill="#4B4B49" transform="translate(400,352)"/>
<path d="M0 0 C3 1 3 1 3 1 Z " fill="#4E4C4D" transform="translate(842,294)"/>
<path d="M0 0 C3 1 3 1 3 1 Z " fill="#514F4F" transform="translate(682,294)"/>
<path d="M0 0 C3 1 3 1 3 1 Z " fill="#51504F" transform="translate(474,294)"/>
<path d="M0 0 C3 1 3 1 3 1 Z " fill="#515051" transform="translate(367,294)"/>
<path d="M0 0 C3 1 3 1 3 1 Z " fill="#525050" transform="translate(234,294)"/>
<path d="M0 0 C3 1 3 1 3 1 Z " fill="#514F50" transform="translate(210,294)"/>
<path d="M0 0 C3 1 3 1 3 1 Z " fill="#525050" transform="translate(206,294)"/>
<path d="M0 0 C3 1 3 1 3 1 Z " fill="#515050" transform="translate(194,294)"/>
<path d="M0 0 C3 1 3 1 3 1 Z " fill="#504F50" transform="translate(178,294)"/>
<path d="" fill="#4D4A4B" transform="translate(0,0)"/>
<path d="M0 0 C2 1 2 1 2 1 Z " fill="#4D4C4C" transform="translate(667,774)"/>
<path d="M0 0 C2 1 2 1 2 1 Z " fill="#4D4B4B" transform="translate(595,774)"/>
<path d="M0 0 C2 1 2 1 2 1 Z " fill="#4D4D4B" transform="translate(531,774)"/>
<path d="M0 0 C2 1 2 1 2 1 Z " fill="#4F4D4C" transform="translate(406,774)"/>
<path d="M0 0 C2 1 2 1 2 1 Z " fill="#4D4C4B" transform="translate(403,774)"/>
<path d="" fill="#4D4B4C" transform="translate(0,0)"/>
<path d="M0 0 C2 1 2 1 2 1 Z " fill="#4C4D4B" transform="translate(315,774)"/>
<path d="M0 0 C2 1 2 1 2 1 Z " fill="#4C4C4C" transform="translate(179,774)"/>
<path d="M0 0 C2 1 2 1 2 1 Z " fill="#4C4A4C" transform="translate(158,774)"/>
<path d="M0 0 C2 1 2 1 2 1 Z " fill="#4E4C4C" transform="translate(480,773)"/>
<path d="" fill="#4D4B4B" transform="translate(0,0)"/>
<path d="" fill="#4B4949" transform="translate(0,0)"/>
<path d="" fill="#484747" transform="translate(0,0)"/>
<path d="" fill="#484748" transform="translate(0,0)"/>
<path d="" fill="#484546" transform="translate(0,0)"/>
<path d="M0 0 C2 1 2 1 2 1 Z " fill="#434242" transform="translate(432,577)"/>
<path d="" fill="#474746" transform="translate(0,0)"/>
<path d="" fill="#474846" transform="translate(0,0)"/>
<path d="" fill="#494747" transform="translate(0,0)"/>
<path d="M0 0 C2 1 2 1 2 1 Z " fill="#474545" transform="translate(432,543)"/>
<path d="" fill="#454544" transform="translate(0,0)"/>
<path d="M0 0 C2 1 2 1 2 1 Z " fill="#494748" transform="translate(411,527)"/>
<path d="M0 0 C2 1 2 1 2 1 Z " fill="#4B4B4A" transform="translate(384,518)"/>
<path d="" fill="#454545" transform="translate(0,0)"/>
<path d="" fill="#444443" transform="translate(0,0)"/>
<path d="" fill="#444544" transform="translate(0,0)"/>
<path d="" fill="#464445" transform="translate(0,0)"/>
<path d="" fill="#494948" transform="translate(0,0)"/>
<path d="" fill="#464646" transform="translate(0,0)"/>
<path d="" fill="#484946" transform="translate(0,0)"/>
<path d="" fill="#4A4848" transform="translate(0,0)"/>
<path d="" fill="#474646" transform="translate(0,0)"/>
<path d="" fill="#4A4748" transform="translate(0,0)"/>
<path d="" fill="#464745" transform="translate(0,0)"/>
<path d="" fill="#474544" transform="translate(0,0)"/>
<path d="" fill="#464646" transform="translate(0,0)"/>
<path d="M0 0 C2 1 2 1 2 1 Z " fill="#494949" transform="translate(640,409)"/>
<path d="" fill="#464546" transform="translate(0,0)"/>
<path d="M0 0 C2 1 2 1 2 1 Z " fill="#444343" transform="translate(403,398)"/>
<path d="" fill="#444242" transform="translate(0,0)"/>
<path d="" fill="#494848" transform="translate(0,0)"/>
<path d="M0 0 C2 1 2 1 2 1 Z " fill="#474644" transform="translate(694,385)"/>
<path d="" fill="#484A48" transform="translate(0,0)"/>
<path d="" fill="#494948" transform="translate(0,0)"/>
<path d="M0 0 C2 1 2 1 2 1 Z " fill="#454545" transform="translate(667,368)"/>
<path d="M0 0 C2 1 2 1 2 1 Z " fill="#454544" transform="translate(348,360)"/>
<path d="M0 0 C2 1 2 1 2 1 Z " fill="#494949" transform="translate(345,360)"/>
<path d="M0 0 C2 1 2 1 2 1 Z " fill="#504E4F" transform="translate(810,294)"/>
<path d="M0 0 C2 1 2 1 2 1 Z " fill="#4F504F" transform="translate(803,294)"/>
<path d="M0 0 C2 1 2 1 2 1 Z " fill="#504E4E" transform="translate(787,294)"/>
<path d="M0 0 C2 1 2 1 2 1 Z " fill="#514F4F" transform="translate(784,294)"/>
<path d="M0 0 C2 1 2 1 2 1 Z " fill="#525050" transform="translate(780,294)"/>
<path d="M0 0 C2 1 2 1 2 1 Z " fill="#504F4F" transform="translate(777,294)"/>
<path d="M0 0 C2 1 2 1 2 1 Z " fill="#515150" transform="translate(766,294)"/>
<path d="M0 0 C2 1 2 1 2 1 Z " fill="#515050" transform="translate(763,294)"/>
<path d="M0 0 C2 1 2 1 2 1 Z " fill="#505050" transform="translate(755,294)"/>
<path d="M0 0 C2 1 2 1 2 1 Z " fill="#525150" transform="translate(739,294)"/>
<path d="M0 0 C2 1 2 1 2 1 Z " fill="#515150" transform="translate(736,294)"/>
<path d="M0 0 C2 1 2 1 2 1 Z " fill="#525150" transform="translate(731,294)"/>
<path d="M0 0 C2 1 2 1 2 1 Z " fill="#504F4F" transform="translate(723,294)"/>
<path d="M0 0 C2 1 2 1 2 1 Z " fill="#4F5150" transform="translate(691,294)"/>
<path d="M0 0 C2 1 2 1 2 1 Z " fill="#505150" transform="translate(688,294)"/>
<path d="M0 0 C2 1 2 1 2 1 Z " fill="#514F4F" transform="translate(643,294)"/>
<path d="M0 0 C2 1 2 1 2 1 Z " fill="#515050" transform="translate(619,294)"/>
<path d="M0 0 C2 1 2 1 2 1 Z " fill="#535051" transform="translate(614,294)"/>
<path d="M0 0 C2 1 2 1 2 1 Z " fill="#52504F" transform="translate(608,294)"/>
<path d="M0 0 C2 1 2 1 2 1 Z " fill="#515050" transform="translate(603,294)"/>
<path d="M0 0 C2 1 2 1 2 1 Z " fill="#52504E" transform="translate(590,294)"/>
<path d="M0 0 C2 1 2 1 2 1 Z " fill="#525051" transform="translate(587,294)"/>
<path d="M0 0 C2 1 2 1 2 1 Z " fill="#51504F" transform="translate(579,294)"/>
<path d="M0 0 C2 1 2 1 2 1 Z " fill="#535150" transform="translate(519,294)"/>
<path d="M0 0 C2 1 2 1 2 1 Z " fill="#505051" transform="translate(507,294)"/>
<path d="M0 0 C2 1 2 1 2 1 Z " fill="#535150" transform="translate(499,294)"/>
<path d="M0 0 C2 1 2 1 2 1 Z " fill="#515051" transform="translate(491,294)"/>
<path d="M0 0 C2 1 2 1 2 1 Z " fill="#51504F" transform="translate(470,294)"/>
<path d="M0 0 C2 1 2 1 2 1 Z " fill="#515051" transform="translate(427,294)"/>
<path d="M0 0 C2 1 2 1 2 1 Z " fill="#535150" transform="translate(422,294)"/>
<path d="M0 0 C2 1 2 1 2 1 Z " fill="#515050" transform="translate(382,294)"/>
<path d="M0 0 C2 1 2 1 2 1 Z " fill="#525050" transform="translate(358,294)"/>
<path d="M0 0 C2 1 2 1 2 1 Z " fill="#525251" transform="translate(355,294)"/>
<path d="M0 0 C2 1 2 1 2 1 Z " fill="#525150" transform="translate(323,294)"/>
<path d="M0 0 C2 1 2 1 2 1 Z " fill="#545151" transform="translate(294,294)"/>
<path d="M0 0 C2 1 2 1 2 1 Z " fill="#505051" transform="translate(267,294)"/>
<path d="M0 0 C2 1 2 1 2 1 Z " fill="#535151" transform="translate(247,294)"/>
<path d="M0 0 C2 1 2 1 2 1 Z " fill="#525150" transform="translate(243,294)"/>
<path d="M0 0 C2 1 2 1 2 1 Z " fill="#525151" transform="translate(238,294)"/>
<path d="M0 0 C2 1 2 1 2 1 Z " fill="#51504E" transform="translate(230,294)"/>
<path d="M0 0 C2 1 2 1 2 1 Z " fill="#514F50" transform="translate(227,294)"/>
<path d="M0 0 C2 1 2 1 2 1 Z " fill="#535150" transform="translate(222,294)"/>
<path d="M0 0 C2 1 2 1 2 1 Z " fill="#52504F" transform="translate(219,294)"/>
<path d="M0 0 C2 1 2 1 2 1 Z " fill="#515050" transform="translate(182,294)"/>
<path d="M0 0 C2 1 2 1 2 1 Z " fill="#4B4A49" transform="translate(158,294)"/>
<path d="" fill="#4E4C4D" transform="translate(0,0)"/>
<path d="" fill="#323231" transform="translate(0,0)"/>
<path d="" fill="#4B4B4C" transform="translate(0,0)"/>
<path d="" fill="#4D4C4D" transform="translate(0,0)"/>
<path d="" fill="#4C4B4C" transform="translate(0,0)"/>
<path d="" fill="#4E4E4B" transform="translate(0,0)"/>
<path d="" fill="#4E4C4C" transform="translate(0,0)"/>
<path d="" fill="#4E4C4D" transform="translate(0,0)"/>
<path d="" fill="#4C4D4A" transform="translate(0,0)"/>
<path d="" fill="#4D4C4B" transform="translate(0,0)"/>
<path d="" fill="#4C4C4D" transform="translate(0,0)"/>
<path d="" fill="#4E4D4C" transform="translate(0,0)"/>
<path d="" fill="#504E4E" transform="translate(0,0)"/>
<path d="" fill="#4E4D4E" transform="translate(0,0)"/>
<path d="" fill="#4E4E4D" transform="translate(0,0)"/>
<path d="" fill="#4D4B4C" transform="translate(0,0)"/>
<path d="" fill="#4C4B4B" transform="translate(0,0)"/>
<path d="" fill="#4E4D4A" transform="translate(0,0)"/>
<path d="" fill="#4E4D4B" transform="translate(0,0)"/>
<path d="" fill="#4B4B4B" transform="translate(0,0)"/>
<path d="" fill="#4D4D4C" transform="translate(0,0)"/>
<path d="" fill="#4F4D4A" transform="translate(0,0)"/>
<path d="" fill="#4C4D4C" transform="translate(0,0)"/>
<path d="" fill="#4E4C4C" transform="translate(0,0)"/>
<path d="" fill="#4E4B4E" transform="translate(0,0)"/>
<path d="" fill="#4D4C4B" transform="translate(0,0)"/>
<path d="" fill="#4C4D4B" transform="translate(0,0)"/>
<path d="" fill="#4D4D4D" transform="translate(0,0)"/>
<path d="" fill="#4F4D4C" transform="translate(0,0)"/>
<path d="" fill="#4E4C4C" transform="translate(0,0)"/>
<path d="" fill="#4D4C4C" transform="translate(0,0)"/>
<path d="" fill="#4D4D4C" transform="translate(0,0)"/>
<path d="" fill="#4F4D4C" transform="translate(0,0)"/>
<path d="" fill="#4D4D4D" transform="translate(0,0)"/>
<path d="" fill="#4E4E4E" transform="translate(0,0)"/>
<path d="" fill="#4D4E4D" transform="translate(0,0)"/>
<path d="" fill="#4C4D4D" transform="translate(0,0)"/>
<path d="" fill="#4B4D4C" transform="translate(0,0)"/>
<path d="" fill="#4E4D4C" transform="translate(0,0)"/>
<path d="" fill="#4D4C4D" transform="translate(0,0)"/>
<path d="" fill="#4D4C4C" transform="translate(0,0)"/>
<path d="" fill="#4D4D4B" transform="translate(0,0)"/>
<path d="" fill="#4D4D4C" transform="translate(0,0)"/>
<path d="" fill="#4F4D4C" transform="translate(0,0)"/>
<path d="" fill="#4F4D4D" transform="translate(0,0)"/>
<path d="" fill="#4B4C4C" transform="translate(0,0)"/>
<path d="" fill="#4E4F4D" transform="translate(0,0)"/>
<path d="" fill="#4D4A4C" transform="translate(0,0)"/>
<path d="" fill="#4F4C4E" transform="translate(0,0)"/>
<path d="" fill="#4E4D4D" transform="translate(0,0)"/>
<path d="" fill="#4D4E4C" transform="translate(0,0)"/>
<path d="" fill="#4D4D4D" transform="translate(0,0)"/>
<path d="" fill="#4E4C4D" transform="translate(0,0)"/>
<path d="" fill="#4E4C4D" transform="translate(0,0)"/>
<path d="" fill="#4C4B4C" transform="translate(0,0)"/>
<path d="" fill="#4F4D4D" transform="translate(0,0)"/>
<path d="" fill="#4E4C4B" transform="translate(0,0)"/>
<path d="" fill="#524D4C" transform="translate(0,0)"/>
<path d="" fill="#4C494B" transform="translate(0,0)"/>
<path d="" fill="#4E4C4C" transform="translate(0,0)"/>
<path d="" fill="#4D4B4C" transform="translate(0,0)"/>
<path d="" fill="#4E4C4B" transform="translate(0,0)"/>
<path d="" fill="#514C4D" transform="translate(0,0)"/>
<path d="" fill="#514E4D" transform="translate(0,0)"/>
<path d="" fill="#4D4C4C" transform="translate(0,0)"/>
<path d="" fill="#4D4D4B" transform="translate(0,0)"/>
<path d="" fill="#4D4D4B" transform="translate(0,0)"/>
<path d="" fill="#494B49" transform="translate(0,0)"/>
<path d="" fill="#4A4B4C" transform="translate(0,0)"/>
<path d="" fill="#4E4D4E" transform="translate(0,0)"/>
<path d="" fill="#4E4F4D" transform="translate(0,0)"/>
<path d="" fill="#4E4E4F" transform="translate(0,0)"/>
<path d="" fill="#505151" transform="translate(0,0)"/>
<path d="" fill="#4E4F4D" transform="translate(0,0)"/>
<path d="" fill="#4E4F4E" transform="translate(0,0)"/>
<path d="" fill="#4F4E4D" transform="translate(0,0)"/>
<path d="" fill="#505050" transform="translate(0,0)"/>
<path d="" fill="#4B4847" transform="translate(0,0)"/>
<path d="" fill="#4E4C49" transform="translate(0,0)"/>
<path d="" fill="#4C4B49" transform="translate(0,0)"/>
<path d="" fill="#4D4B4A" transform="translate(0,0)"/>
<path d="" fill="#494647" transform="translate(0,0)"/>
<path d="" fill="#4D4C4C" transform="translate(0,0)"/>
<path d="" fill="#4B4A4A" transform="translate(0,0)"/>
<path d="" fill="#494746" transform="translate(0,0)"/>
<path d="" fill="#474645" transform="translate(0,0)"/>
<path d="" fill="#4B4A48" transform="translate(0,0)"/>
<path d="" fill="#4A4B4A" transform="translate(0,0)"/>
<path d="" fill="#4C4A49" transform="translate(0,0)"/>
<path d="" fill="#494947" transform="translate(0,0)"/>
<path d="" fill="#4B4B49" transform="translate(0,0)"/>
<path d="" fill="#4B4B4A" transform="translate(0,0)"/>
<path d="" fill="#4A4947" transform="translate(0,0)"/>
<path d="" fill="#494747" transform="translate(0,0)"/>
<path d="" fill="#4B4947" transform="translate(0,0)"/>
<path d="" fill="#494745" transform="translate(0,0)"/>
<path d="" fill="#4A4947" transform="translate(0,0)"/>
<path d="" fill="#494747" transform="translate(0,0)"/>
<path d="" fill="#484848" transform="translate(0,0)"/>
<path d="" fill="#4A4949" transform="translate(0,0)"/>
<path d="" fill="#4A4945" transform="translate(0,0)"/>
<path d="" fill="#4A4848" transform="translate(0,0)"/>
<path d="" fill="#4A4847" transform="translate(0,0)"/>
<path d="" fill="#484847" transform="translate(0,0)"/>
<path d="" fill="#484848" transform="translate(0,0)"/>
<path d="" fill="#494948" transform="translate(0,0)"/>
<path d="" fill="#454544" transform="translate(0,0)"/>
<path d="" fill="#474745" transform="translate(0,0)"/>
<path d="" fill="#4B4A48" transform="translate(0,0)"/>
<path d="" fill="#484545" transform="translate(0,0)"/>
<path d="" fill="#464645" transform="translate(0,0)"/>
<path d="" fill="#484846" transform="translate(0,0)"/>
<path d="" fill="#464645" transform="translate(0,0)"/>
<path d="" fill="#484646" transform="translate(0,0)"/>
<path d="" fill="#464746" transform="translate(0,0)"/>
<path d="" fill="#474846" transform="translate(0,0)"/>
<path d="" fill="#484949" transform="translate(0,0)"/>
<path d="" fill="#494746" transform="translate(0,0)"/>
<path d="" fill="#484848" transform="translate(0,0)"/>
<path d="" fill="#494848" transform="translate(0,0)"/>
<path d="" fill="#474747" transform="translate(0,0)"/>
<path d="" fill="#464443" transform="translate(0,0)"/>
<path d="" fill="#474747" transform="translate(0,0)"/>
<path d="" fill="#474446" transform="translate(0,0)"/>
<path d="" fill="#43403F" transform="translate(0,0)"/>
<path d="" fill="#464444" transform="translate(0,0)"/>
<path d="" fill="#454542" transform="translate(0,0)"/>
<path d="" fill="#4A4A49" transform="translate(0,0)"/>
<path d="" fill="#4B4949" transform="translate(0,0)"/>
<path d="" fill="#4C4B4B" transform="translate(0,0)"/>
<path d="" fill="#454646" transform="translate(0,0)"/>
<path d="" fill="#494847" transform="translate(0,0)"/>
<path d="" fill="#494948" transform="translate(0,0)"/>
<path d="" fill="#4A4B49" transform="translate(0,0)"/>
<path d="" fill="#474647" transform="translate(0,0)"/>
<path d="" fill="#474746" transform="translate(0,0)"/>
<path d="" fill="#494847" transform="translate(0,0)"/>
<path d="" fill="#474645" transform="translate(0,0)"/>
<path d="" fill="#494647" transform="translate(0,0)"/>
<path d="" fill="#474847" transform="translate(0,0)"/>
<path d="" fill="#484847" transform="translate(0,0)"/>
<path d="" fill="#494747" transform="translate(0,0)"/>
<path d="" fill="#484748" transform="translate(0,0)"/>
<path d="" fill="#494848" transform="translate(0,0)"/>
<path d="" fill="#454746" transform="translate(0,0)"/>
<path d="" fill="#4A4948" transform="translate(0,0)"/>
<path d="" fill="#4B4C4A" transform="translate(0,0)"/>
<path d="" fill="#4A4948" transform="translate(0,0)"/>
<path d="" fill="#4C4C4A" transform="translate(0,0)"/>
<path d="" fill="#4C4A4A" transform="translate(0,0)"/>
<path d="" fill="#4A4A49" transform="translate(0,0)"/>
<path d="" fill="#4C4A4B" transform="translate(0,0)"/>
<path d="" fill="#49494A" transform="translate(0,0)"/>
<path d="" fill="#494B49" transform="translate(0,0)"/>
<path d="" fill="#4B4C4C" transform="translate(0,0)"/>
<path d="" fill="#4A4B48" transform="translate(0,0)"/>
<path d="" fill="#4A4948" transform="translate(0,0)"/>
<path d="" fill="#474647" transform="translate(0,0)"/>
<path d="" fill="#484949" transform="translate(0,0)"/>
<path d="" fill="#4B494A" transform="translate(0,0)"/>
<path d="" fill="#484A47" transform="translate(0,0)"/>
<path d="" fill="#494746" transform="translate(0,0)"/>
<path d="" fill="#474546" transform="translate(0,0)"/>
<path d="" fill="#464646" transform="translate(0,0)"/>
<path d="" fill="#464543" transform="translate(0,0)"/>
<path d="" fill="#474746" transform="translate(0,0)"/>
<path d="" fill="#494847" transform="translate(0,0)"/>
<path d="" fill="#494747" transform="translate(0,0)"/>
<path d="" fill="#4A4847" transform="translate(0,0)"/>
<path d="" fill="#484746" transform="translate(0,0)"/>
<path d="" fill="#484949" transform="translate(0,0)"/>
<path d="" fill="#444343" transform="translate(0,0)"/>
<path d="" fill="#444545" transform="translate(0,0)"/>
<path d="" fill="#474544" transform="translate(0,0)"/>
<path d="" fill="#474848" transform="translate(0,0)"/>
<path d="" fill="#4A4B49" transform="translate(0,0)"/>
<path d="" fill="#4B4A47" transform="translate(0,0)"/>
<path d="" fill="#494746" transform="translate(0,0)"/>
<path d="" fill="#494949" transform="translate(0,0)"/>
<path d="" fill="#4B4B4C" transform="translate(0,0)"/>
<path d="" fill="#424141" transform="translate(0,0)"/>
<path d="" fill="#4C4B4A" transform="translate(0,0)"/>
<path d="" fill="#4A494A" transform="translate(0,0)"/>
<path d="" fill="#4A4A49" transform="translate(0,0)"/>
<path d="" fill="#474646" transform="translate(0,0)"/>
<path d="" fill="#464747" transform="translate(0,0)"/>
<path d="" fill="#474346" transform="translate(0,0)"/>
<path d="" fill="#484745" transform="translate(0,0)"/>
<path d="" fill="#494745" transform="translate(0,0)"/>
<path d="" fill="#444240" transform="translate(0,0)"/>
<path d="" fill="#464544" transform="translate(0,0)"/>
<path d="" fill="#484545" transform="translate(0,0)"/>
<path d="" fill="#474545" transform="translate(0,0)"/>
<path d="" fill="#474644" transform="translate(0,0)"/>
<path d="" fill="#474847" transform="translate(0,0)"/>
<path d="" fill="#484847" transform="translate(0,0)"/>
<path d="" fill="#494949" transform="translate(0,0)"/>
<path d="" fill="#48484B" transform="translate(0,0)"/>
<path d="" fill="#494947" transform="translate(0,0)"/>
<path d="" fill="#4C4B4A" transform="translate(0,0)"/>
<path d="" fill="#4C4B4A" transform="translate(0,0)"/>
<path d="" fill="#464543" transform="translate(0,0)"/>
<path d="" fill="#4B4B49" transform="translate(0,0)"/>
<path d="" fill="#4D4A49" transform="translate(0,0)"/>
<path d="" fill="#4E4B4A" transform="translate(0,0)"/>
<path d="" fill="#4C4C4A" transform="translate(0,0)"/>
<path d="" fill="#4D4A4A" transform="translate(0,0)"/>
<path d="" fill="#4E4D4E" transform="translate(0,0)"/>
<path d="" fill="#504E50" transform="translate(0,0)"/>
<path d="" fill="#504F50" transform="translate(0,0)"/>
<path d="" fill="#4F4E4E" transform="translate(0,0)"/>
<path d="" fill="#4F4E4F" transform="translate(0,0)"/>
<path d="" fill="#525050" transform="translate(0,0)"/>
<path d="" fill="#4F4E4F" transform="translate(0,0)"/>
<path d="" fill="#52504F" transform="translate(0,0)"/>
<path d="" fill="#525150" transform="translate(0,0)"/>
<path d="" fill="#4F4F4F" transform="translate(0,0)"/>
<path d="" fill="#534F4F" transform="translate(0,0)"/>
<path d="" fill="#525250" transform="translate(0,0)"/>
<path d="" fill="#53504F" transform="translate(0,0)"/>
<path d="" fill="#52504F" transform="translate(0,0)"/>
<path d="" fill="#535050" transform="translate(0,0)"/>
<path d="" fill="#545150" transform="translate(0,0)"/>
<path d="" fill="#525050" transform="translate(0,0)"/>
<path d="" fill="#525151" transform="translate(0,0)"/>
<path d="" fill="#515251" transform="translate(0,0)"/>
<path d="" fill="#534F51" transform="translate(0,0)"/>
<path d="" fill="#515150" transform="translate(0,0)"/>
<path d="" fill="#525352" transform="translate(0,0)"/>
<path d="" fill="#52524F" transform="translate(0,0)"/>
<path d="" fill="#515351" transform="translate(0,0)"/>
<path d="" fill="#51514F" transform="translate(0,0)"/>
<path d="" fill="#525151" transform="translate(0,0)"/>
<path d="" fill="#525351" transform="translate(0,0)"/>
<path d="" fill="#515050" transform="translate(0,0)"/>
<path d="" fill="#505250" transform="translate(0,0)"/>
<path d="" fill="#535251" transform="translate(0,0)"/>
<path d="" fill="#535150" transform="translate(0,0)"/>
<path d="" fill="#53514F" transform="translate(0,0)"/>
<path d="" fill="#525052" transform="translate(0,0)"/>
<path d="" fill="#535253" transform="translate(0,0)"/>
<path d="" fill="#52504F" transform="translate(0,0)"/>
<path d="" fill="#545251" transform="translate(0,0)"/>
<path d="" fill="#515151" transform="translate(0,0)"/>
<path d="" fill="#51504F" transform="translate(0,0)"/>
<path d="" fill="#515151" transform="translate(0,0)"/>
<path d="" fill="#515250" transform="translate(0,0)"/>
<path d="" fill="#535050" transform="translate(0,0)"/>
<path d="" fill="#525050" transform="translate(0,0)"/>
<path d="" fill="#52514F" transform="translate(0,0)"/>
<path d="" fill="#53504F" transform="translate(0,0)"/>
<path d="" fill="#535051" transform="translate(0,0)"/>
<path d="" fill="#53514F" transform="translate(0,0)"/>
<path d="" fill="#544F51" transform="translate(0,0)"/>
<path d="" fill="#545051" transform="translate(0,0)"/>
<path d="" fill="#525150" transform="translate(0,0)"/>
<path d="" fill="#525150" transform="translate(0,0)"/>
<path d="" fill="#515151" transform="translate(0,0)"/>
<path d="" fill="#525052" transform="translate(0,0)"/>
<path d="" fill="#535152" transform="translate(0,0)"/>
<path d="" fill="#4E5050" transform="translate(0,0)"/>
<path d="" fill="#504E4F" transform="translate(0,0)"/>
<path d="" fill="#4E4C4B" transform="translate(0,0)"/>
<path d="" fill="#4C494C" transform="translate(0,0)"/>
<path d="" fill="#4E4E4D" transform="translate(0,0)"/>
<path d="" fill="#4C4D4D" transform="translate(0,0)"/>
<path d="" fill="#504F4E" transform="translate(0,0)"/>
<path d="" fill="#4E514C" transform="translate(0,0)"/>
<path d="" fill="#4F4D4C" transform="translate(0,0)"/>
<path d="" fill="#4E4D4E" transform="translate(0,0)"/>
</svg>
