<svg width="18" height="18" viewBox="0 0 18 18" fill="none" xmlns="http://www.w3.org/2000/svg">
<g clip-path="url(#clip0_5228_17074)">
<path d="M12.8231 0.254867C20.7131 -0.930132 15.6581 5.78987 13.2131 7.67986C14.8931 8.96986 16.6181 10.7849 17.3531 12.8399C18.7181 16.6049 15.3581 17.1599 12.8231 16.2149C10.0481 15.2399 7.60307 13.1549 5.98307 10.7099C5.53307 10.7099 5.03807 10.6349 4.57307 10.4999C5.48807 13.0799 5.87807 15.7199 5.62307 17.8799C5.62307 13.5299 3.55307 9.20986 0.568074 5.60986C-0.481926 4.34986 0.598074 3.41986 1.54307 4.63486C2.18807 5.51986 2.77307 6.43486 3.29807 7.37986C4.33307 3.83987 9.37307 0.749867 12.8231 0.254867ZM11.6981 6.65986C13.2431 5.71486 17.9381 0.674865 13.5581 1.12487C11.0381 1.40987 7.97807 3.73486 6.71807 5.23486C8.47307 5.02486 10.2581 5.78986 11.6981 6.65986ZM7.34807 10.5749C8.75807 12.1499 10.6781 13.6799 12.7481 14.2349C13.9481 14.5499 15.2681 14.4149 14.7881 12.7049C14.2931 11.1299 13.0331 9.74986 11.8031 8.69986C11.4581 8.93986 11.0681 9.19486 10.6781 9.35986C9.62807 9.94486 8.50307 10.3649 7.34807 10.5749Z" fill="#EBA12A"/>
<path d="M6.67344 6.34503C7.87344 6.24003 9.16344 6.87003 10.1534 7.50003C9.20844 7.95003 8.15844 8.23503 7.06344 8.29503C5.45844 8.31003 5.12844 6.49503 6.67344 6.34503Z" fill="white"/>
</g>
<defs>
<clipPath id="clip0_5228_17074">
<rect width="18" height="18" fill="white"/>
</clipPath>
</defs>
</svg>
