<svg width="14" height="18" viewBox="0 0 14 18" fill="none" xmlns="http://www.w3.org/2000/svg">
<path d="M6.3295 13.944C4.66825 13.944 2.52175 13.2592 0.8365 12.345V16.8608C2.70175 17.6625 4.59475 18 6.3265 18C10.4995 18 13.375 16.2075 13.375 12.6015C13.375 6.61875 5.70325 7.69125 5.70325 5.43375L5.7025 5.433C5.7025 4.64925 6.35725 4.34775 7.40575 4.34775C8.93275 4.34775 10.8723 4.815 12.4 5.63775V0.91725C10.735 0.25275 9.0745 0 7.4095 0C3.3385 0 0.625 2.1225 0.625 5.673C0.625 11.223 8.254 10.3237 8.254 12.717C8.25475 13.6455 7.44925 13.944 6.3295 13.944Z" fill="#646FDE"/>
</svg>
