<svg width="18" height="24" viewBox="0 0 18 24" fill="none" xmlns="http://www.w3.org/2000/svg">
<path d="M5.12202 22.339L5.49035 19.8966L4.67014 19.8766H0.753906L3.47532 1.85623C3.49203 1.74244 3.58603 1.65846 3.69639 1.65918H10.2999C12.4922 1.65918 14.0048 2.13544 14.7947 3.07596C15.1652 3.51695 15.4009 3.97794 15.5151 4.4851C15.6348 5.01735 15.6369 5.65321 15.5199 6.42904L15.5116 6.48575V6.98273L15.882 7.20196C16.1647 7.35138 16.4188 7.55388 16.6319 7.79892C16.9487 8.17592 17.1534 8.65545 17.2401 9.22369C17.3296 9.80829 17.3 10.5038 17.1534 11.2909C16.9846 12.1965 16.7113 12.9854 16.3426 13.6307C16.0171 14.2091 15.5795 14.7097 15.0579 15.1009C14.5681 15.4641 13.9857 15.7397 13.3277 15.9164C12.6899 16.0898 11.9626 16.1774 11.165 16.1774H10.6512C10.2835 16.1774 9.92671 16.3156 9.64645 16.5635C9.36655 16.814 9.18099 17.1598 9.12285 17.5397L9.08421 17.7596L8.43388 22.0641L8.40429 22.2223C8.39663 22.2724 8.38305 22.2972 8.36355 22.3142C8.34441 22.3306 8.32073 22.3397 8.29602 22.3401H5.12307L5.12202 22.339Z" fill="#253B80"/>
<path d="M16.2206 6.54346C16.2008 6.67506 16.1785 6.80958 16.1531 6.94773C15.2824 11.6169 12.303 13.2296 8.49782 13.2296H6.56042C6.09496 13.2296 5.70295 13.5826 5.63054 14.0618L4.63868 20.6313L4.35774 22.4934C4.31491 22.7759 4.49943 23.0409 4.76993 23.0856C4.79535 23.09 4.82111 23.0918 4.84722 23.0918H8.28336C8.69034 23.0918 9.03604 22.7831 9.1001 22.364L9.13387 22.1818L9.78071 17.8944L9.82214 17.6592C9.8855 17.2385 10.2319 16.9299 10.6389 16.9299H11.1527C14.482 16.9299 17.0882 15.5186 17.8499 11.434C18.1681 9.72784 18.0034 8.30307 17.1613 7.30111C16.8943 6.99099 16.5757 6.73469 16.2206 6.54382V6.54346Z" fill="#179BD7"/>
<path d="M15.3164 6.16462C15.0382 6.08063 14.7556 6.01519 14.4694 5.9683C13.9044 5.87777 13.3331 5.83414 12.7614 5.83814H7.58561C7.17863 5.83814 6.83223 6.14753 6.76957 6.56744L5.6684 13.8498L5.63672 14.0621C5.70774 13.583 6.10253 13.2296 6.5666 13.23H8.504C12.3092 13.23 15.2882 11.6161 16.1593 6.94808C16.1854 6.80993 16.2073 6.67541 16.2268 6.5438C15.997 6.41801 15.7575 6.31258 15.5107 6.2286C15.4459 6.20606 15.3812 6.18498 15.3157 6.16462H15.3164Z" fill="#222D65"/>
<path d="M6.76831 6.56804C6.83028 6.14777 7.17703 5.83802 7.58435 5.83947H12.7602C13.3732 5.83947 13.9456 5.88128 14.4681 5.96963C14.8215 6.0278 15.1703 6.11432 15.5108 6.22921C15.7677 6.31828 16.0066 6.42335 16.2269 6.54441C16.486 4.81897 16.2248 3.64432 15.3315 2.58056C14.3459 1.40955 12.5683 0.908203 10.2939 0.908203H3.69041C3.22564 0.908203 2.82945 1.26122 2.75774 1.74111L0.00708207 19.9473C-0.0420057 20.2705 0.169315 20.574 0.478812 20.6253C0.508056 20.63 0.5373 20.6326 0.566892 20.6326H4.64361L5.66715 13.8508L6.76831 6.5684V6.56804Z" fill="#253B80"/>
</svg>
