<?xml version="1.0" encoding="UTF-8"?>
<!DOCTYPE svg PUBLIC "-//W3C//DTD SVG 1.1//EN" "http://www.w3.org/Graphics/SVG/1.1/DTD/svg11.dtd">
<svg xmlns="http://www.w3.org/2000/svg" version="1.1" width="104px" height="180px" style="shape-rendering:geometricPrecision; text-rendering:geometricPrecision; image-rendering:optimizeQuality; fill-rule:evenodd; clip-rule:evenodd" xmlns:xlink="http://www.w3.org/1999/xlink">
<g><path style="opacity:0.954" fill="#d7d7d7" d="M 54.5,17.5 C 58.9836,17.4258 63.317,18.0925 67.5,19.5C 67.5,20.5 67.5,21.5 67.5,22.5C 68.552,22.3505 69.552,22.5172 70.5,23C 68.8659,23.4935 67.1992,23.6602 65.5,23.5C 65.5,24.5 65.5,25.5 65.5,26.5C 67.1788,26.2852 68.1788,26.9519 68.5,28.5C 69.8333,29.8333 71.1667,31.1667 72.5,32.5C 68.7768,32.4662 65.7768,31.1328 63.5,28.5C 62.4479,26.744 60.7812,26.0773 58.5,26.5C 58.7852,24.712 58.4519,23.0453 57.5,21.5C 56.0656,20.4116 55.0656,19.0783 54.5,17.5 Z"/></g>
<g><path style="opacity:1" fill="#dddddd" d="M 47.5,17.5 C 47.7214,18.7348 48.3881,19.7348 49.5,20.5C 52.1024,21.1324 54.4357,22.1324 56.5,23.5C 54.0799,23.2924 51.7466,23.6258 49.5,24.5C 48.6143,23.675 48.281,22.675 48.5,21.5C 46.1667,21.5 43.8333,21.5 41.5,21.5C 39.8212,21.2852 38.8212,21.9519 38.5,23.5C 37.1667,23.5 35.8333,23.5 34.5,23.5C 34.5,22.1667 34.5,20.8333 34.5,19.5C 38.7047,18.0897 43.038,17.423 47.5,17.5 Z"/></g>
<g><path style="opacity:1" fill="#cfcfcf" d="M 47.5,17.5 C 49.8333,17.5 52.1667,17.5 54.5,17.5C 55.0656,19.0783 56.0656,20.4116 57.5,21.5C 58.4519,23.0453 58.7852,24.712 58.5,26.5C 57.8333,26.5 57.1667,26.5 56.5,26.5C 56.5,25.5 56.5,24.5 56.5,23.5C 54.4357,22.1324 52.1024,21.1324 49.5,20.5C 48.3881,19.7348 47.7214,18.7348 47.5,17.5 Z"/></g>
<g><path style="opacity:1" fill="#c6c6c6" d="M 34.5,19.5 C 34.5,20.8333 34.5,22.1667 34.5,23.5C 35.8333,23.5 37.1667,23.5 38.5,23.5C 38.5,24.5 38.5,25.5 38.5,26.5C 37.1667,27.1667 35.8333,27.8333 34.5,28.5C 32.8333,28.5 31.1667,28.5 29.5,28.5C 28.1667,28.5 27.5,27.8333 27.5,26.5C 29.1667,26.5 30.8333,26.5 32.5,26.5C 32.7593,24.0107 31.7593,22.344 29.5,21.5C 30.9303,20.4625 32.597,19.7959 34.5,19.5 Z"/></g>
<g><path style="opacity:1" fill="#d5d5d5" d="M 41.5,21.5 C 43.8333,21.5 46.1667,21.5 48.5,21.5C 48.281,22.675 48.6143,23.675 49.5,24.5C 51.7466,23.6258 54.0799,23.2924 56.5,23.5C 56.5,24.5 56.5,25.5 56.5,26.5C 55.1667,27.1667 53.8333,27.8333 52.5,28.5C 51.8333,28.5 51.1667,28.5 50.5,28.5C 48.7211,26.6565 46.3878,25.9898 43.5,26.5C 43.1692,24.6776 42.5025,23.0109 41.5,21.5 Z"/></g>
<g><path style="opacity:1" fill="#dadada" d="M 29.5,21.5 C 31.7593,22.344 32.7593,24.0107 32.5,26.5C 30.8333,26.5 29.1667,26.5 27.5,26.5C 25.5168,26.8432 24.1834,26.1765 23.5,24.5C 25.1815,22.9925 27.1815,21.9925 29.5,21.5 Z"/></g>
<g><path style="opacity:1" fill="#c7c7c7" d="M 67.5,19.5 C 70.9116,20.0749 73.9116,21.4082 76.5,23.5C 76.1692,25.3224 75.5025,26.9891 74.5,28.5C 72.5,28.5 70.5,28.5 68.5,28.5C 68.1788,26.9519 67.1788,26.2852 65.5,26.5C 65.5,25.5 65.5,24.5 65.5,23.5C 67.1992,23.6602 68.8659,23.4935 70.5,23C 69.552,22.5172 68.552,22.3505 67.5,22.5C 67.5,21.5 67.5,20.5 67.5,19.5 Z"/></g>
<g><path style="opacity:1" fill="#c7c7c7" d="M 23.5,24.5 C 24.1834,26.1765 25.5168,26.8432 27.5,26.5C 27.5,27.8333 28.1667,28.5 29.5,28.5C 27.8271,31.1685 25.8271,33.5018 23.5,35.5C 22.1667,35.5 20.8333,35.5 19.5,35.5C 19.1667,35.5 18.8333,35.5 18.5,35.5C 17.3915,34.71 16.0581,34.21 14.5,34C 15.9733,33.2904 16.6399,32.1238 16.5,30.5C 18.2193,27.7805 20.5526,25.7805 23.5,24.5 Z"/></g>
<g><path style="opacity:1" fill="#c0c0c0" d="M 41.5,21.5 C 42.5025,23.0109 43.1692,24.6776 43.5,26.5C 46.3878,25.9898 48.7211,26.6565 50.5,28.5C 48.8333,28.5 47.1667,28.5 45.5,28.5C 44.1667,28.5 42.8333,28.5 41.5,28.5C 41.1788,26.9519 40.1788,26.2852 38.5,26.5C 38.5,25.5 38.5,24.5 38.5,23.5C 38.8212,21.9519 39.8212,21.2852 41.5,21.5 Z"/></g>
<g><path style="opacity:1" fill="#c8c8c8" d="M 56.5,26.5 C 57.1667,26.5 57.8333,26.5 58.5,26.5C 60.7812,26.0773 62.4479,26.744 63.5,28.5C 62.1667,29.1667 60.8333,29.8333 59.5,30.5C 58.7784,30.0825 58.2784,29.4158 58,28.5C 57.2904,29.9733 56.1238,30.6399 54.5,30.5C 53.551,32.7373 52.8844,35.0706 52.5,37.5C 54.9294,37.1156 57.2627,36.449 59.5,35.5C 59.8333,36.8333 60.1667,38.1667 60.5,39.5C 56.6707,40.069 53.3373,39.4023 50.5,37.5C 50.2895,34.248 50.9562,31.248 52.5,28.5C 53.8333,27.8333 55.1667,27.1667 56.5,26.5 Z"/></g>
<g><path style="opacity:1" fill="#d7d7d7" d="M 38.5,26.5 C 40.1788,26.2852 41.1788,26.9519 41.5,28.5C 37.213,31.4058 37.8796,32.7391 43.5,32.5C 43.8308,34.3224 44.4975,35.9891 45.5,37.5C 45.5,38.1667 45.5,38.8333 45.5,39.5C 44.8333,39.5 44.1667,39.5 43.5,39.5C 42.2562,36.4574 39.9229,35.124 36.5,35.5C 36.5,34.5 36.5,33.5 36.5,32.5C 32.6266,32.334 31.9599,33.334 34.5,35.5C 33.1667,35.5 31.8333,35.5 30.5,35.5C 30.5,33.8333 30.5,32.1667 30.5,30.5C 32.4832,30.8432 33.8166,30.1765 34.5,28.5C 35.8333,27.8333 37.1667,27.1667 38.5,26.5 Z"/></g>
<g><path style="opacity:1" fill="#c2c2c2" d="M 41.5,28.5 C 42.8333,28.5 44.1667,28.5 45.5,28.5C 45.6138,30.7179 46.2804,32.7179 47.5,34.5C 47.7148,36.1788 47.0481,37.1788 45.5,37.5C 44.4975,35.9891 43.8308,34.3224 43.5,32.5C 37.8796,32.7391 37.213,31.4058 41.5,28.5 Z"/></g>
<g><path style="opacity:1" fill="#dfdfdf" d="M 45.5,28.5 C 47.1667,28.5 48.8333,28.5 50.5,28.5C 51.1667,28.5 51.8333,28.5 52.5,28.5C 50.9562,31.248 50.2895,34.248 50.5,37.5C 49.1001,36.9002 48.1001,35.9002 47.5,34.5C 46.2804,32.7179 45.6138,30.7179 45.5,28.5 Z"/></g>
<g><path style="opacity:0.969" fill="#ededed" d="M 76.5,23.5 C 80.3633,24.6936 83.3633,27.027 85.5,30.5C 83.9837,31.8997 82.3171,33.233 80.5,34.5C 78.8211,32.8955 76.8211,32.2289 74.5,32.5C 74.5,31.1667 74.5,29.8333 74.5,28.5C 75.5025,26.9891 76.1692,25.3224 76.5,23.5 Z"/></g>
<g><path style="opacity:1" fill="#dfdfdf" d="M 59.5,30.5 C 60.8062,31.4674 61.4729,32.8007 61.5,34.5C 60.5084,34.3284 59.8417,34.6618 59.5,35.5C 57.2627,36.449 54.9294,37.1156 52.5,37.5C 52.8844,35.0706 53.551,32.7373 54.5,30.5C 56.1238,30.6399 57.2904,29.9733 58,28.5C 58.2784,29.4158 58.7784,30.0825 59.5,30.5 Z"/></g>
<g><path style="opacity:1" fill="#c0c0c0" d="M 43.5,39.5 C 43.6309,40.3764 43.2975,41.0431 42.5,41.5C 41.1186,40.1186 39.7853,38.7853 38.5,37.5C 36.5168,37.8432 35.1834,37.1765 34.5,35.5C 31.9599,33.334 32.6266,32.334 36.5,32.5C 36.5,33.5 36.5,34.5 36.5,35.5C 39.9229,35.124 42.2562,36.4574 43.5,39.5 Z"/></g>
<g><path style="opacity:1" fill="#dbdbdb" d="M 63.5,28.5 C 65.7768,31.1328 68.7768,32.4662 72.5,32.5C 73.1834,34.1765 74.5168,34.8432 76.5,34.5C 75.8333,35.1667 75.1667,35.8333 74.5,36.5C 72.2362,35.7814 69.9029,35.448 67.5,35.5C 66.2652,35.2786 65.2652,34.6119 64.5,33.5C 63.5832,34.1272 62.5832,34.4606 61.5,34.5C 61.4729,32.8007 60.8062,31.4674 59.5,30.5C 60.8333,29.8333 62.1667,29.1667 63.5,28.5 Z"/></g>
<g><path style="opacity:1" fill="#e0e0e0" d="M 68.5,28.5 C 70.5,28.5 72.5,28.5 74.5,28.5C 74.5,29.8333 74.5,31.1667 74.5,32.5C 76.8211,32.2289 78.8211,32.8955 80.5,34.5C 82.3171,33.233 83.9837,31.8997 85.5,30.5C 86.8333,31.1667 87.8333,32.1667 88.5,33.5C 87.3473,34.3132 87.3473,35.3132 88.5,36.5C 87.6667,36.8333 86.8333,37.1667 86,37.5C 83.6403,36.22 81.1403,35.5533 78.5,35.5C 78.2893,33.5759 77.6226,33.2426 76.5,34.5C 74.5168,34.8432 73.1834,34.1765 72.5,32.5C 71.1667,31.1667 69.8333,29.8333 68.5,28.5 Z"/></g>
<g><path style="opacity:1" fill="#e7e7e7" d="M 29.5,28.5 C 31.1667,28.5 32.8333,28.5 34.5,28.5C 33.8166,30.1765 32.4832,30.8432 30.5,30.5C 30.5,32.1667 30.5,33.8333 30.5,35.5C 31.8333,35.5 33.1667,35.5 34.5,35.5C 35.1834,37.1765 36.5168,37.8432 38.5,37.5C 38.5,38.1667 38.5,38.8333 38.5,39.5C 37.1667,39.5 35.8333,39.5 34.5,39.5C 34.87,43.1859 33.5367,44.1859 30.5,42.5C 29.8466,41.1932 29.1799,39.8599 28.5,38.5C 26.3449,37.9986 24.6782,36.9986 23.5,35.5C 25.8271,33.5018 27.8271,31.1685 29.5,28.5 Z"/></g>
<g><path style="opacity:1" fill="#adadad" d="M 67.5,35.5 C 68.4663,37.0568 69.7996,38.3901 71.5,39.5C 72.4287,40.6888 72.762,42.0222 72.5,43.5C 71.8333,43.5 71.1667,43.5 70.5,43.5C 68.1944,43.0074 65.861,42.6741 63.5,42.5C 62.791,41.596 61.791,41.2627 60.5,41.5C 60.5,40.8333 60.5,40.1667 60.5,39.5C 60.1667,38.1667 59.8333,36.8333 59.5,35.5C 59.8417,34.6618 60.5084,34.3284 61.5,34.5C 62.5832,34.4606 63.5832,34.1272 64.5,33.5C 65.2652,34.6119 66.2652,35.2786 67.5,35.5 Z"/></g>
<g><path style="opacity:1" fill="#d3d3d3" d="M 67.5,35.5 C 69.9029,35.448 72.2362,35.7814 74.5,36.5C 75.2013,39.2163 76.5346,41.5496 78.5,43.5C 76.5,43.5 74.5,43.5 72.5,43.5C 72.762,42.0222 72.4287,40.6888 71.5,39.5C 69.7996,38.3901 68.4663,37.0568 67.5,35.5 Z"/></g>
<g><path style="opacity:1" fill="#d2d2d2" d="M 88.5,33.5 C 91.2583,36.678 93.2583,40.3447 94.5,44.5C 92.9519,44.1788 92.2852,43.1788 92.5,41.5C 90.8333,41.5 89.1667,41.5 87.5,41.5C 84.7531,41.8134 82.0865,41.48 79.5,40.5C 78.6906,38.9291 78.3573,37.2624 78.5,35.5C 81.1403,35.5533 83.6403,36.22 86,37.5C 86.8333,37.1667 87.6667,36.8333 88.5,36.5C 87.3473,35.3132 87.3473,34.3132 88.5,33.5 Z"/></g>
<g><path style="opacity:1" fill="#cdcdcd" d="M 47.5,34.5 C 48.1001,35.9002 49.1001,36.9002 50.5,37.5C 53.3373,39.4023 56.6707,40.069 60.5,39.5C 60.5,40.1667 60.5,40.8333 60.5,41.5C 55.5839,39.4071 53.5839,41.0738 54.5,46.5C 53.0413,46.5674 51.7079,46.2341 50.5,45.5C 49.791,44.596 48.791,44.2627 47.5,44.5C 47.9227,42.2188 47.256,40.5521 45.5,39.5C 45.5,38.8333 45.5,38.1667 45.5,37.5C 47.0481,37.1788 47.7148,36.1788 47.5,34.5 Z"/></g>
<g><path style="opacity:1" fill="#dcdcdc" d="M 16.5,30.5 C 16.6399,32.1238 15.9733,33.2904 14.5,34C 16.0581,34.21 17.3915,34.71 18.5,35.5C 16.5531,36.4734 14.5531,37.4734 12.5,38.5C 16.2048,39.9542 19.5381,41.9542 22.5,44.5C 23.4168,43.8728 24.4168,43.5394 25.5,43.5C 26.1667,43.5 26.8333,43.5 27.5,43.5C 27.5,45.1667 27.5,46.8333 27.5,48.5C 27.5,49.1667 27.5,49.8333 27.5,50.5C 23.9517,49.2978 20.285,48.6311 16.5,48.5C 14.071,47.7352 12.7377,46.0685 12.5,43.5C 11.1667,43.5 9.83333,43.5 8.5,43.5C 9.91656,38.3212 12.5832,33.9879 16.5,30.5 Z"/></g>
<g><path style="opacity:1" fill="#eeeeee" d="M 18.5,35.5 C 18.8333,35.5 19.1667,35.5 19.5,35.5C 20.7196,37.2821 21.3862,39.2821 21.5,41.5C 23.4832,41.1568 24.8166,41.8235 25.5,43.5C 24.4168,43.5394 23.4168,43.8728 22.5,44.5C 19.5381,41.9542 16.2048,39.9542 12.5,38.5C 14.5531,37.4734 16.5531,36.4734 18.5,35.5 Z"/></g>
<g><path style="opacity:1" fill="#cacaca" d="M 19.5,35.5 C 20.8333,35.5 22.1667,35.5 23.5,35.5C 24.6782,36.9986 26.3449,37.9986 28.5,38.5C 29.1799,39.8599 29.8466,41.1932 30.5,42.5C 29.791,43.404 28.791,43.7373 27.5,43.5C 26.8333,43.5 26.1667,43.5 25.5,43.5C 24.8166,41.8235 23.4832,41.1568 21.5,41.5C 21.3862,39.2821 20.7196,37.2821 19.5,35.5 Z"/></g>
<g><path style="opacity:1" fill="#dedede" d="M 38.5,37.5 C 39.7853,38.7853 41.1186,40.1186 42.5,41.5C 43.2975,41.0431 43.6309,40.3764 43.5,39.5C 44.1667,39.5 44.8333,39.5 45.5,39.5C 47.256,40.5521 47.9227,42.2188 47.5,44.5C 48.791,44.2627 49.791,44.596 50.5,45.5C 49.791,46.404 48.791,46.7373 47.5,46.5C 46.6879,45.0069 45.3545,44.3402 43.5,44.5C 41.1817,44.9971 38.8484,45.3305 36.5,45.5C 37.1667,43.5 37.8333,41.5 38.5,39.5C 38.5,38.8333 38.5,38.1667 38.5,37.5 Z"/></g>
<g><path style="opacity:0.993" fill="#e0e0e0" d="M 60.5,41.5 C 61.791,41.2627 62.791,41.596 63.5,42.5C 62.4138,42.62 61.7472,43.2867 61.5,44.5C 62.2255,45.8669 62.8921,47.2003 63.5,48.5C 61.8333,48.5 60.1667,48.5 58.5,48.5C 57.3951,47.3995 56.0618,46.7329 54.5,46.5C 53.5839,41.0738 55.5839,39.4071 60.5,41.5 Z"/></g>
<g><path style="opacity:1" fill="#b4b4b4" d="M 78.5,35.5 C 78.3573,37.2624 78.6906,38.9291 79.5,40.5C 82.0865,41.48 84.7531,41.8134 87.5,41.5C 88.6085,42.29 89.9419,42.79 91.5,43C 88.7111,43.2414 86.0444,43.908 83.5,45C 81.1667,45.6667 78.8333,45.6667 76.5,45C 77.4158,44.7216 78.0825,44.2216 78.5,43.5C 76.5346,41.5496 75.2013,39.2163 74.5,36.5C 75.1667,35.8333 75.8333,35.1667 76.5,34.5C 77.6226,33.2426 78.2893,33.5759 78.5,35.5 Z"/></g>
<g><path style="opacity:1" fill="#d0d0d0" d="M 38.5,39.5 C 37.8333,41.5 37.1667,43.5 36.5,45.5C 38.8484,45.3305 41.1817,44.9971 43.5,44.5C 45.3545,44.3402 46.6879,45.0069 47.5,46.5C 42.4254,48.3575 40.0921,52.0242 40.5,57.5C 38.1861,56.8213 37.8528,55.488 39.5,53.5C 37.8333,52.8333 36.1667,52.1667 34.5,51.5C 36.7078,49.2374 36.0411,47.5708 32.5,46.5C 30.9436,47.5471 29.2769,48.2137 27.5,48.5C 27.5,46.8333 27.5,45.1667 27.5,43.5C 28.791,43.7373 29.791,43.404 30.5,42.5C 33.5367,44.1859 34.87,43.1859 34.5,39.5C 35.8333,39.5 37.1667,39.5 38.5,39.5 Z"/></g>
<g><path style="opacity:1" fill="#ededed" d="M 63.5,42.5 C 65.861,42.6741 68.1944,43.0074 70.5,43.5C 70.5,43.8333 70.5,44.1667 70.5,44.5C 70.2786,45.7348 69.6119,46.7348 68.5,47.5C 71.2291,49.3671 70.8957,50.3671 67.5,50.5C 66.8333,50.5 66.1667,50.5 65.5,50.5C 65.5,49.1667 64.8333,48.5 63.5,48.5C 62.8921,47.2003 62.2255,45.8669 61.5,44.5C 61.7472,43.2867 62.4138,42.62 63.5,42.5 Z"/></g>
<g><path style="opacity:1" fill="#cbcbcb" d="M 87.5,41.5 C 89.1667,41.5 90.8333,41.5 92.5,41.5C 92.2852,43.1788 92.9519,44.1788 94.5,44.5C 94.5,45.1667 94.5,45.8333 94.5,46.5C 93.1211,49.0472 91.4544,49.0472 89.5,46.5C 88.7025,46.9569 88.3691,47.6236 88.5,48.5C 86.6776,48.1692 85.0109,47.5025 83.5,46.5C 80.5,46.5 77.5,46.5 74.5,46.5C 73.1667,45.8333 71.8333,45.1667 70.5,44.5C 70.5,44.1667 70.5,43.8333 70.5,43.5C 71.1667,43.5 71.8333,43.5 72.5,43.5C 74.5,43.5 76.5,43.5 78.5,43.5C 78.0825,44.2216 77.4158,44.7216 76.5,45C 78.8333,45.6667 81.1667,45.6667 83.5,45C 86.0444,43.908 88.7111,43.2414 91.5,43C 89.9419,42.79 88.6085,42.29 87.5,41.5 Z"/></g>
<g><path style="opacity:1" fill="#d0d0d0" d="M 74.5,46.5 C 77.5,46.5 80.5,46.5 83.5,46.5C 82.2034,48.7976 80.5368,50.7976 78.5,52.5C 77.1667,52.5 75.8333,52.5 74.5,52.5C 74.2786,51.2652 73.6119,50.2652 72.5,49.5C 73.6119,48.7348 74.2786,47.7348 74.5,46.5 Z"/></g>
<g><path style="opacity:1" fill="#d4d4d4" d="M 8.5,43.5 C 9.83333,43.5 11.1667,43.5 12.5,43.5C 12.7377,46.0685 14.071,47.7352 16.5,48.5C 16.7822,49.7777 17.4489,50.7777 18.5,51.5C 16.8235,52.1834 16.1568,53.5168 16.5,55.5C 15.1667,55.5 13.8333,55.5 12.5,55.5C 10.2821,55.3862 8.28209,54.7196 6.5,53.5C 6.53992,50.0124 7.20658,46.6791 8.5,43.5 Z"/></g>
<g><path style="opacity:1" fill="#e3e3e3" d="M 70.5,44.5 C 71.8333,45.1667 73.1667,45.8333 74.5,46.5C 74.2786,47.7348 73.6119,48.7348 72.5,49.5C 73.6119,50.2652 74.2786,51.2652 74.5,52.5C 74.5,53.8333 73.8333,54.5 72.5,54.5C 70.8333,53.1667 69.1667,51.8333 67.5,50.5C 70.8957,50.3671 71.2291,49.3671 68.5,47.5C 69.6119,46.7348 70.2786,45.7348 70.5,44.5 Z"/></g>
<g><path style="opacity:1" fill="#e6e6e6" d="M 83.5,46.5 C 85.0109,47.5025 86.6776,48.1692 88.5,48.5C 90.3773,49.829 90.5439,51.1623 89,52.5C 87.322,50.718 85.4886,50.3847 83.5,51.5C 84.8532,52.5237 85.5198,53.857 85.5,55.5C 84.8333,55.5 84.1667,55.5 83.5,55.5C 81.4687,55.0276 79.8021,54.0276 78.5,52.5C 80.5368,50.7976 82.2034,48.7976 83.5,46.5 Z"/></g>
<g><path style="opacity:1" fill="#e1e1e1" d="M 18.5,51.5 C 20.1667,52.1667 21.8333,52.8333 23.5,53.5C 21.8008,53.3398 20.1341,53.5065 18.5,54C 18.8333,54.3333 19.1667,54.6667 19.5,55C 17.9837,56.897 17.317,59.0637 17.5,61.5C 16.8386,60.2825 16.1719,58.9492 15.5,57.5C 14.5344,59.396 14.2011,61.396 14.5,63.5C 13.4168,63.5394 12.4168,63.8728 11.5,64.5C 11.1667,64 10.8333,63.5 10.5,63C 11.4295,61.9231 12.0962,60.7564 12.5,59.5C 12.5,58.1667 12.5,56.8333 12.5,55.5C 13.8333,55.5 15.1667,55.5 16.5,55.5C 16.1568,53.5168 16.8235,52.1834 18.5,51.5 Z"/></g>
<g><path style="opacity:1" fill="#bebebe" d="M 16.5,48.5 C 20.285,48.6311 23.9517,49.2978 27.5,50.5C 29.7267,52.2287 30.7267,54.562 30.5,57.5C 28.8333,57.5 27.1667,57.5 25.5,57.5C 25.8432,55.5168 25.1765,54.1834 23.5,53.5C 21.8333,52.8333 20.1667,52.1667 18.5,51.5C 17.4489,50.7777 16.7822,49.7777 16.5,48.5 Z"/></g>
<g><path style="opacity:1" fill="#dedede" d="M 40.5,57.5 C 40.5079,60.5448 40.8413,63.5448 41.5,66.5C 41.2132,69.4841 39.5465,70.8174 36.5,70.5C 36.5,67.5 36.5,64.5 36.5,61.5C 34.5,60.1667 32.5,58.8333 30.5,57.5C 30.7267,54.562 29.7267,52.2287 27.5,50.5C 27.5,49.8333 27.5,49.1667 27.5,48.5C 29.2769,48.2137 30.9436,47.5471 32.5,46.5C 36.0411,47.5708 36.7078,49.2374 34.5,51.5C 36.1667,52.1667 37.8333,52.8333 39.5,53.5C 37.8528,55.488 38.1861,56.8213 40.5,57.5 Z"/></g>
<g><path style="opacity:1" fill="#cecece" d="M 58.5,48.5 C 60.1667,48.5 61.8333,48.5 63.5,48.5C 64.8333,48.5 65.5,49.1667 65.5,50.5C 64.6236,50.3691 63.9569,50.7025 63.5,51.5C 64.8532,52.5237 65.5198,53.857 65.5,55.5C 65.2479,58.2438 65.9145,60.7438 67.5,63C 67.1639,64.0299 66.4972,64.5299 65.5,64.5C 64.3079,61.3259 62.9746,58.3259 61.5,55.5C 61.3122,52.7939 60.3122,50.4605 58.5,48.5 Z"/></g>
<g><path style="opacity:1" fill="#efefef" d="M 6.5,53.5 C 8.28209,54.7196 10.2821,55.3862 12.5,55.5C 12.5,56.8333 12.5,58.1667 12.5,59.5C 11.1667,59.5 9.83333,59.5 8.5,59.5C 8.80155,62.0593 8.46822,64.3926 7.5,66.5C 6.56404,62.2648 6.23071,57.9315 6.5,53.5 Z"/></g>
<g><path style="opacity:1" fill="#e2e2e2" d="M 23.5,53.5 C 25.1765,54.1834 25.8432,55.5168 25.5,57.5C 25.6309,58.3764 25.2975,59.0431 24.5,59.5C 23.065,57.5989 21.3983,57.2655 19.5,58.5C 20.6119,59.2652 21.2786,60.2652 21.5,61.5C 21.5386,62.7562 21.0386,63.7562 20,64.5C 19.3021,63.3094 18.4687,62.3094 17.5,61.5C 17.317,59.0637 17.9837,56.897 19.5,55C 19.1667,54.6667 18.8333,54.3333 18.5,54C 20.1341,53.5065 21.8008,53.3398 23.5,53.5 Z"/></g>
<g><path style="opacity:1" fill="#c4c4c4" d="M 65.5,50.5 C 66.1667,50.5 66.8333,50.5 67.5,50.5C 69.1667,51.8333 70.8333,53.1667 72.5,54.5C 73.3909,55.2613 74.0576,56.2613 74.5,57.5C 74.2528,58.7133 73.5862,59.38 72.5,59.5C 71.8333,56.8333 71.1667,56.8333 70.5,59.5C 68.8235,58.8166 68.1568,57.4832 68.5,55.5C 67.5,55.5 66.5,55.5 65.5,55.5C 65.5198,53.857 64.8532,52.5237 63.5,51.5C 63.9569,50.7025 64.6236,50.3691 65.5,50.5 Z"/></g>
<g><path style="opacity:1" fill="#dbdbdb" d="M 94.5,46.5 C 96.5103,51.9693 96.8436,57.636 95.5,63.5C 92.976,63.043 90.3093,63.043 87.5,63.5C 86.8333,60.8333 86.1667,58.1667 85.5,55.5C 85.5198,53.857 84.8532,52.5237 83.5,51.5C 85.4886,50.3847 87.322,50.718 89,52.5C 90.5439,51.1623 90.3773,49.829 88.5,48.5C 88.3691,47.6236 88.7025,46.9569 89.5,46.5C 91.4544,49.0472 93.1211,49.0472 94.5,46.5 Z"/></g>
<g><path style="opacity:1" fill="#cfcfcf" d="M 25.5,57.5 C 27.1667,57.5 28.8333,57.5 30.5,57.5C 32.5,58.8333 34.5,60.1667 36.5,61.5C 33.9179,61.0254 31.9179,61.6921 30.5,63.5C 29.8333,63.5 29.1667,63.5 28.5,63.5C 26.7211,61.6565 24.3878,60.9898 21.5,61.5C 21.2786,60.2652 20.6119,59.2652 19.5,58.5C 21.3983,57.2655 23.065,57.5989 24.5,59.5C 25.2975,59.0431 25.6309,58.3764 25.5,57.5 Z"/></g>
<g><path style="opacity:1" fill="#494949" d="M 72.5,59.5 C 71.8333,59.5 71.1667,59.5 70.5,59.5C 71.1667,56.8333 71.8333,56.8333 72.5,59.5 Z"/></g>
<g><path style="opacity:1" fill="#d8d8d8" d="M 74.5,52.5 C 75.8333,52.5 77.1667,52.5 78.5,52.5C 79.8021,54.0276 81.4687,55.0276 83.5,55.5C 78.3055,55.9417 78.3055,56.9417 83.5,58.5C 80.7476,60.3361 77.7476,61.3361 74.5,61.5C 74.8308,63.3224 75.4975,64.9891 76.5,66.5C 75.1667,66.5 73.8333,66.5 72.5,66.5C 72.5198,64.857 71.8532,63.5237 70.5,62.5C 71.6119,61.7348 72.2786,60.7348 72.5,59.5C 73.5862,59.38 74.2528,58.7133 74.5,57.5C 74.0576,56.2613 73.3909,55.2613 72.5,54.5C 73.8333,54.5 74.5,53.8333 74.5,52.5 Z"/></g>
<g><path style="opacity:1" fill="#e5e5e5" d="M 65.5,55.5 C 66.5,55.5 67.5,55.5 68.5,55.5C 68.1568,57.4832 68.8235,58.8166 70.5,59.5C 71.1667,59.5 71.8333,59.5 72.5,59.5C 72.2786,60.7348 71.6119,61.7348 70.5,62.5C 71.8532,63.5237 72.5198,64.857 72.5,66.5C 73.8333,66.5 75.1667,66.5 76.5,66.5C 75.8333,67.8333 75.1667,69.1667 74.5,70.5C 71.3056,70.2695 68.3056,70.9362 65.5,72.5C 64.2867,72.2528 63.62,71.5862 63.5,70.5C 63.0254,67.9179 63.6921,65.9179 65.5,64.5C 66.4972,64.5299 67.1639,64.0299 67.5,63C 65.9145,60.7438 65.2479,58.2438 65.5,55.5 Z"/></g>
<g><path style="opacity:1" fill="#c2c2c2" d="M 83.5,55.5 C 84.1667,55.5 84.8333,55.5 85.5,55.5C 86.1667,58.1667 86.8333,60.8333 87.5,63.5C 90.3093,63.043 92.976,63.043 95.5,63.5C 95.634,65.2915 95.3007,66.9582 94.5,68.5C 89.8991,69.2418 86.5658,67.5751 84.5,63.5C 83.5832,64.1272 82.5832,64.4606 81.5,64.5C 79.6776,64.8308 78.0109,65.4975 76.5,66.5C 75.4975,64.9891 74.8308,63.3224 74.5,61.5C 77.7476,61.3361 80.7476,60.3361 83.5,58.5C 78.3055,56.9417 78.3055,55.9417 83.5,55.5 Z"/></g>
<g><path style="opacity:1" fill="#e4e4e4" d="M 36.5,61.5 C 36.5,64.5 36.5,67.5 36.5,70.5C 35.8333,70.5 35.1667,70.5 34.5,70.5C 34.5,69.1667 34.5,67.8333 34.5,66.5C 32.396,66.7989 30.396,66.4656 28.5,65.5C 29.2427,64.8182 29.9094,64.1515 30.5,63.5C 31.9179,61.6921 33.9179,61.0254 36.5,61.5 Z"/></g>
<g><path style="opacity:1" fill="#dadada" d="M 12.5,59.5 C 12.0962,60.7564 11.4295,61.9231 10.5,63C 10.8333,63.5 11.1667,64 11.5,64.5C 12.4168,63.8728 13.4168,63.5394 14.5,63.5C 16.0481,63.8212 16.7148,64.8212 16.5,66.5C 14.0184,67.9893 11.3517,69.3226 8.5,70.5C 7.76589,69.2921 7.43255,67.9587 7.5,66.5C 8.46822,64.3926 8.80155,62.0593 8.5,59.5C 9.83333,59.5 11.1667,59.5 12.5,59.5 Z"/></g>
<g><path style="opacity:1" fill="#d2d2d2" d="M 17.5,61.5 C 18.4687,62.3094 19.3021,63.3094 20,64.5C 21.0386,63.7562 21.5386,62.7562 21.5,61.5C 24.3878,60.9898 26.7211,61.6565 28.5,63.5C 25.1031,62.8878 23.4364,64.5545 23.5,68.5C 21.8333,68.5 20.1667,68.5 18.5,68.5C 18.5,67.1667 17.8333,66.5 16.5,66.5C 16.7148,64.8212 16.0481,63.8212 14.5,63.5C 14.2011,61.396 14.5344,59.396 15.5,57.5C 16.1719,58.9492 16.8386,60.2825 17.5,61.5 Z"/></g>
<g><path style="opacity:1" fill="#e4e4e4" d="M 94.5,68.5 C 93.7729,70.9538 92.7729,73.2872 91.5,75.5C 90.5489,74.0813 90.2155,72.4147 90.5,70.5C 88.8333,70.5 87.1667,70.5 85.5,70.5C 83.396,70.7989 81.396,70.4656 79.5,69.5C 80.4565,67.9246 81.1231,66.258 81.5,64.5C 82.5832,64.4606 83.5832,64.1272 84.5,63.5C 86.5658,67.5751 89.8991,69.2418 94.5,68.5 Z"/></g>
<g><path style="opacity:0.822" fill="#d8d8d8" d="M 61.5,55.5 C 62.9746,58.3259 64.3079,61.3259 65.5,64.5C 63.6921,65.9179 63.0254,67.9179 63.5,70.5C 61.5168,70.1568 60.1834,70.8235 59.5,72.5C 58.596,71.791 58.2627,70.791 58.5,69.5C 61.3079,65.1214 62.3079,60.4548 61.5,55.5 Z"/></g>
<g><path style="opacity:1" fill="#e5e5e5" d="M 16.5,66.5 C 17.8333,66.5 18.5,67.1667 18.5,68.5C 18.6715,70.4918 18.0049,72.1585 16.5,73.5C 17.325,74.3857 18.325,74.719 19.5,74.5C 19.0825,75.2216 18.4158,75.7216 17.5,76C 18.056,76.3826 18.3893,76.8826 18.5,77.5C 16.0706,77.1156 13.7373,76.449 11.5,75.5C 10.2632,74.0351 9.26315,72.3684 8.5,70.5C 11.3517,69.3226 14.0184,67.9893 16.5,66.5 Z"/></g>
<g><path style="opacity:1" fill="#dddddd" d="M 28.5,63.5 C 29.1667,63.5 29.8333,63.5 30.5,63.5C 29.9094,64.1515 29.2427,64.8182 28.5,65.5C 30.396,66.4656 32.396,66.7989 34.5,66.5C 34.5,67.8333 34.5,69.1667 34.5,70.5C 32.5168,70.1568 31.1834,70.8235 30.5,72.5C 29.1779,72.67 28.0113,72.3366 27,71.5C 26.7216,72.4158 26.2216,73.0825 25.5,73.5C 25.9227,71.2188 25.256,69.5521 23.5,68.5C 23.4364,64.5545 25.1031,62.8878 28.5,63.5 Z"/></g>
<g><path style="opacity:1" fill="#d0d0d0" d="M 81.5,64.5 C 81.1231,66.258 80.4565,67.9246 79.5,69.5C 81.396,70.4656 83.396,70.7989 85.5,70.5C 83.0122,72.3878 80.0122,73.0545 76.5,72.5C 76.5,71.1667 75.8333,70.5 74.5,70.5C 75.1667,69.1667 75.8333,67.8333 76.5,66.5C 78.0109,65.4975 79.6776,64.8308 81.5,64.5 Z"/></g>
<g><path style="opacity:1" fill="#ececec" d="M 41.5,66.5 C 43.1667,67.5 44.5,68.8333 45.5,70.5C 44.1667,70.5 42.8333,70.5 41.5,70.5C 42.449,72.7373 43.1156,75.0706 43.5,77.5C 40.5,77.5 37.5,77.5 34.5,77.5C 34.7852,75.712 34.4519,74.0453 33.5,72.5C 32.7348,73.6119 31.7348,74.2786 30.5,74.5C 30.5,73.8333 30.5,73.1667 30.5,72.5C 31.1834,70.8235 32.5168,70.1568 34.5,70.5C 35.1667,70.5 35.8333,70.5 36.5,70.5C 39.5465,70.8174 41.2132,69.4841 41.5,66.5 Z"/></g>
<g><path style="opacity:1" fill="#ebebeb" d="M 18.5,68.5 C 20.1667,68.5 21.8333,68.5 23.5,68.5C 25.256,69.5521 25.9227,71.2188 25.5,73.5C 25.6309,74.3764 25.2975,75.0431 24.5,75.5C 23.1667,74.8333 21.8333,74.1667 20.5,73.5C 19.8933,73.6236 19.56,73.9569 19.5,74.5C 18.325,74.719 17.325,74.3857 16.5,73.5C 18.0049,72.1585 18.6715,70.4918 18.5,68.5 Z"/></g>
<g><path style="opacity:1" fill="#cdcdcd" d="M 63.5,70.5 C 63.62,71.5862 64.2867,72.2528 65.5,72.5C 68.3056,70.9362 71.3056,70.2695 74.5,70.5C 74.2623,73.0685 72.929,74.7352 70.5,75.5C 70.2648,74.9033 69.7648,74.5699 69,74.5C 66.7691,76.1997 64.2691,77.1997 61.5,77.5C 61.9227,75.2188 61.256,73.5521 59.5,72.5C 60.1834,70.8235 61.5168,70.1568 63.5,70.5 Z"/></g>
<g><path style="opacity:1" fill="#d4d4d4" d="M 85.5,70.5 C 87.1667,70.5 88.8333,70.5 90.5,70.5C 90.2155,72.4147 90.5489,74.0813 91.5,75.5C 91.1667,76.5 90.5,77.1667 89.5,77.5C 87.8829,76.4107 87.0496,74.744 87,72.5C 86.6174,73.056 86.1174,73.3893 85.5,73.5C 83.5,73.5 81.5,73.5 79.5,73.5C 77.8041,75.129 76.8041,74.7957 76.5,72.5C 80.0122,73.0545 83.0122,72.3878 85.5,70.5 Z"/></g>
<g><path style="opacity:1" fill="#d2d2d2" d="M 30.5,72.5 C 30.5,73.1667 30.5,73.8333 30.5,74.5C 29.7332,79.6971 26.7332,82.0304 21.5,81.5C 20.8776,79.8784 19.8776,78.5451 18.5,77.5C 18.3893,76.8826 18.056,76.3826 17.5,76C 18.4158,75.7216 19.0825,75.2216 19.5,74.5C 19.56,73.9569 19.8933,73.6236 20.5,73.5C 21.8333,74.1667 23.1667,74.8333 24.5,75.5C 25.2975,75.0431 25.6309,74.3764 25.5,73.5C 26.2216,73.0825 26.7216,72.4158 27,71.5C 28.0113,72.3366 29.1779,72.67 30.5,72.5 Z"/></g>
<g><path style="opacity:1" fill="#e3e3e3" d="M 58.5,69.5 C 58.2627,70.791 58.596,71.791 59.5,72.5C 60.5981,73.397 60.5981,74.2303 59.5,75C 56.304,75.645 53.304,76.8117 50.5,78.5C 52.0049,79.8415 52.6715,81.5082 52.5,83.5C 50.9891,82.4975 49.3224,81.8308 47.5,81.5C 47.2786,80.2652 46.6119,79.2652 45.5,78.5C 46.7277,76.679 48.3944,75.679 50.5,75.5C 50.5,74.5 50.5,73.5 50.5,72.5C 48.2188,72.9227 46.5521,72.256 45.5,70.5C 49.9735,71.956 54.3068,71.6227 58.5,69.5 Z"/></g>
<g><path style="opacity:1" fill="#d1d1d1" d="M 45.5,70.5 C 46.5521,72.256 48.2188,72.9227 50.5,72.5C 50.5,73.5 50.5,74.5 50.5,75.5C 48.3944,75.679 46.7277,76.679 45.5,78.5C 46.6119,79.2652 47.2786,80.2652 47.5,81.5C 46.1667,81.5 44.8333,81.5 43.5,81.5C 43.5,80.1667 43.5,78.8333 43.5,77.5C 43.1156,75.0706 42.449,72.7373 41.5,70.5C 42.8333,70.5 44.1667,70.5 45.5,70.5 Z"/></g>
<g><path style="opacity:1" fill="#dddddd" d="M 74.5,70.5 C 75.8333,70.5 76.5,71.1667 76.5,72.5C 76.8041,74.7957 77.8041,75.129 79.5,73.5C 77.8109,75.8534 75.4776,77.52 72.5,78.5C 74.396,79.4656 76.396,79.7989 78.5,79.5C 79.5,79.5 80.5,79.5 81.5,79.5C 81.666,83.3734 80.666,84.0401 78.5,81.5C 76.5,81.5 74.5,81.5 72.5,81.5C 72.5,82.5 72.5,83.5 72.5,84.5C 70.9519,84.1788 70.2852,83.1788 70.5,81.5C 70.5,79.5 70.5,77.5 70.5,75.5C 72.929,74.7352 74.2623,73.0685 74.5,70.5 Z"/></g>
<g><path style="opacity:1" fill="#efefef" d="M 70.5,75.5 C 70.5,77.5 70.5,79.5 70.5,81.5C 66.715,81.3689 63.0483,80.7022 59.5,79.5C 59.5,78.1667 60.1667,77.5 61.5,77.5C 64.2691,77.1997 66.7691,76.1997 69,74.5C 69.7648,74.5699 70.2648,74.9033 70.5,75.5 Z"/></g>
<g><path style="opacity:0.912" fill="#ebebeb" d="M 11.5,75.5 C 13.7373,76.449 16.0706,77.1156 18.5,77.5C 19.8776,78.5451 20.8776,79.8784 21.5,81.5C 21.6309,82.3764 21.2975,83.0431 20.5,83.5C 19.2857,81.6203 17.9524,81.2869 16.5,82.5C 14.4525,80.4504 12.7859,78.117 11.5,75.5 Z"/></g>
<g><path style="opacity:1" fill="#d5d5d5" d="M 43.5,77.5 C 43.5,78.8333 43.5,80.1667 43.5,81.5C 43.7822,82.7777 44.4489,83.7777 45.5,84.5C 44.1667,84.5 42.8333,84.5 41.5,84.5C 41.5,83.5 41.5,82.5 41.5,81.5C 39.4357,81.687 37.4357,82.187 35.5,83C 36.8333,83.3333 38.1667,83.6667 39.5,84C 37.3476,85.4127 35.0143,86.2461 32.5,86.5C 28.1161,86.1744 23.7828,86.5078 19.5,87.5C 21.8912,88.8086 21.8912,89.8086 19.5,90.5C 18.2613,90.0576 17.2613,89.3909 16.5,88.5C 17.2899,87.2058 18.2899,86.0391 19.5,85C 18.0577,84.6232 17.0577,83.7899 16.5,82.5C 17.9524,81.2869 19.2857,81.6203 20.5,83.5C 21.2975,83.0431 21.6309,82.3764 21.5,81.5C 26.7332,82.0304 29.7332,79.6971 30.5,74.5C 31.7348,74.2786 32.7348,73.6119 33.5,72.5C 34.4519,74.0453 34.7852,75.712 34.5,77.5C 37.5,77.5 40.5,77.5 43.5,77.5 Z"/></g>
<g><path style="opacity:1" fill="#d5d5d5" d="M 59.5,72.5 C 61.256,73.5521 61.9227,75.2188 61.5,77.5C 60.1667,77.5 59.5,78.1667 59.5,79.5C 57.8333,79.5 56.1667,79.5 54.5,79.5C 54.5,81.1667 54.5,82.8333 54.5,84.5C 53.5084,84.6716 52.8417,84.3382 52.5,83.5C 52.6715,81.5082 52.0049,79.8415 50.5,78.5C 53.304,76.8117 56.304,75.645 59.5,75C 60.5981,74.2303 60.5981,73.397 59.5,72.5 Z"/></g>
<g><path style="opacity:1" fill="#eaeaea" d="M 79.5,73.5 C 81.5,73.5 83.5,73.5 85.5,73.5C 84.1938,74.4674 83.5271,75.8007 83.5,77.5C 81.2188,77.0773 79.5521,77.744 78.5,79.5C 76.396,79.7989 74.396,79.4656 72.5,78.5C 75.4776,77.52 77.8109,75.8534 79.5,73.5 Z"/></g>
<g><path style="opacity:0.955" fill="#e4e4e4" d="M 89.5,77.5 C 87.9337,80.4123 85.9337,83.079 83.5,85.5C 86.1878,87.5211 88.5211,89.8544 90.5,92.5C 89.7777,93.5511 88.7777,94.2178 87.5,94.5C 86.8166,92.8235 85.4832,92.1568 83.5,92.5C 83.5,91.1667 83.5,89.8333 83.5,88.5C 82.5,88.5 81.5,88.5 80.5,88.5C 81.2341,87.2921 81.5674,85.9587 81.5,84.5C 80.5,84.5 79.5,84.5 78.5,84.5C 78.5,83.5 78.5,82.5 78.5,81.5C 80.666,84.0401 81.666,83.3734 81.5,79.5C 80.5,79.5 79.5,79.5 78.5,79.5C 79.5521,77.744 81.2188,77.0773 83.5,77.5C 83.5271,75.8007 84.1938,74.4674 85.5,73.5C 86.1174,73.3893 86.6174,73.056 87,72.5C 87.0496,74.744 87.8829,76.4107 89.5,77.5 Z"/></g>
<g><path style="opacity:1" fill="#e7e7e7" d="M 43.5,81.5 C 44.8333,81.5 46.1667,81.5 47.5,81.5C 49.3224,81.8308 50.9891,82.4975 52.5,83.5C 52.8417,84.3382 53.5084,84.6716 54.5,84.5C 54.5,85.1667 54.5,85.8333 54.5,86.5C 51.248,86.7105 48.248,86.0438 45.5,84.5C 44.4489,83.7777 43.7822,82.7777 43.5,81.5 Z"/></g>
<g><path style="opacity:1" fill="#c3c3c3" d="M 59.5,79.5 C 63.0483,80.7022 66.715,81.3689 70.5,81.5C 70.2852,83.1788 70.9519,84.1788 72.5,84.5C 72.5,85.8333 72.5,87.1667 72.5,88.5C 70.1667,87.1667 67.8333,85.8333 65.5,84.5C 65.5,85.8333 65.5,87.1667 65.5,88.5C 64.1667,88.5 62.8333,88.5 61.5,88.5C 61.7692,86.5714 61.2692,84.9047 60,83.5C 58.4941,85.1742 56.6607,86.1742 54.5,86.5C 54.5,85.8333 54.5,85.1667 54.5,84.5C 54.5,82.8333 54.5,81.1667 54.5,79.5C 56.1667,79.5 57.8333,79.5 59.5,79.5 Z"/></g>
<g><path style="opacity:1" fill="#e3e3e3" d="M 41.5,84.5 C 41.5,85.8333 41.5,87.1667 41.5,88.5C 43.4832,88.1568 44.8166,88.8235 45.5,90.5C 44.1667,90.5 42.8333,90.5 41.5,90.5C 40.8333,92.8333 40.1667,95.1667 39.5,97.5C 38.5,97.5 37.5,97.5 36.5,97.5C 34.5,97.5 32.5,97.5 30.5,97.5C 30.5,96.8333 30.5,96.1667 30.5,95.5C 32.5,95.5 34.5,95.5 36.5,95.5C 36.9762,93.0069 38.3096,91.0069 40.5,89.5C 37.3837,89.0799 34.7171,88.0799 32.5,86.5C 35.0143,86.2461 37.3476,85.4127 39.5,84C 38.1667,83.6667 36.8333,83.3333 35.5,83C 37.4357,82.187 39.4357,81.687 41.5,81.5C 41.5,82.5 41.5,83.5 41.5,84.5 Z"/></g>
<g><path style="opacity:1" fill="#dadada" d="M 32.5,86.5 C 34.7171,88.0799 37.3837,89.0799 40.5,89.5C 38.3096,91.0069 36.9762,93.0069 36.5,95.5C 34.5,95.5 32.5,95.5 30.5,95.5C 30.5,94.5 30.5,93.5 30.5,92.5C 28.8333,92.5 27.1667,92.5 25.5,92.5C 24.8333,87.1667 24.1667,87.1667 23.5,92.5C 19.896,92.9515 16.896,91.9515 14.5,89.5C 14.8417,88.6618 15.5084,88.3284 16.5,88.5C 17.2613,89.3909 18.2613,90.0576 19.5,90.5C 21.8912,89.8086 21.8912,88.8086 19.5,87.5C 23.7828,86.5078 28.1161,86.1744 32.5,86.5 Z"/></g>
<g><path style="opacity:1" fill="#cccccc" d="M 61.5,88.5 C 61.5,89.8333 61.5,91.1667 61.5,92.5C 59.2627,91.551 56.9294,90.8844 54.5,90.5C 54.0296,89.3065 53.0296,88.6399 51.5,88.5C 49.4649,89.2043 47.4649,89.871 45.5,90.5C 44.8166,88.8235 43.4832,88.1568 41.5,88.5C 41.5,87.1667 41.5,85.8333 41.5,84.5C 42.8333,84.5 44.1667,84.5 45.5,84.5C 48.248,86.0438 51.248,86.7105 54.5,86.5C 56.6607,86.1742 58.4941,85.1742 60,83.5C 61.2692,84.9047 61.7692,86.5714 61.5,88.5 Z"/></g>
<g><path style="opacity:1" fill="#dedede" d="M 54.5,90.5 C 52.7758,92.852 50.4424,94.5187 47.5,95.5C 46.4625,94.0697 45.7959,92.403 45.5,90.5C 47.4649,89.871 49.4649,89.2043 51.5,88.5C 53.0296,88.6399 54.0296,89.3065 54.5,90.5 Z"/></g>
<g><path style="opacity:1" fill="#e6e6e6" d="M 78.5,81.5 C 78.5,82.5 78.5,83.5 78.5,84.5C 79.5,84.5 80.5,84.5 81.5,84.5C 81.5674,85.9587 81.2341,87.2921 80.5,88.5C 78.7179,89.7196 76.7179,90.3862 74.5,90.5C 74.5,91.8333 74.5,93.1667 74.5,94.5C 72.8235,93.8166 72.1568,92.4832 72.5,90.5C 72.5,89.8333 72.5,89.1667 72.5,88.5C 72.5,87.1667 72.5,85.8333 72.5,84.5C 72.5,83.5 72.5,82.5 72.5,81.5C 74.5,81.5 76.5,81.5 78.5,81.5 Z"/></g>
<g><path style="opacity:1" fill="#d4d4d4" d="M 80.5,88.5 C 81.5,88.5 82.5,88.5 83.5,88.5C 83.5,89.8333 83.5,91.1667 83.5,92.5C 81.1667,92.5 78.8333,92.5 76.5,92.5C 76.5,93.5 76.5,94.5 76.5,95.5C 76.8432,97.4832 76.1765,98.8166 74.5,99.5C 74.5,97.8333 74.5,96.1667 74.5,94.5C 74.5,93.1667 74.5,91.8333 74.5,90.5C 76.7179,90.3862 78.7179,89.7196 80.5,88.5 Z"/></g>
<g><path style="opacity:1" fill="#c5c5c5" d="M 30.5,95.5 C 30.5,96.1667 30.5,96.8333 30.5,97.5C 28.7231,97.2137 27.0564,96.5471 25.5,95.5C 24.2867,95.7472 23.62,96.4138 23.5,97.5C 21.8333,97.5 20.1667,97.5 18.5,97.5C 16.2426,96.1002 14.2426,94.4336 12.5,92.5C 12.9321,91.2905 13.5987,90.2905 14.5,89.5C 16.896,91.9515 19.896,92.9515 23.5,92.5C 24.1667,87.1667 24.8333,87.1667 25.5,92.5C 27.1667,92.5 28.8333,92.5 30.5,92.5C 30.5,93.5 30.5,94.5 30.5,95.5 Z"/></g>
<g><path style="opacity:1" fill="#e7e7e7" d="M 54.5,90.5 C 56.9294,90.8844 59.2627,91.551 61.5,92.5C 61.5,93.5 61.5,94.5 61.5,95.5C 58.4281,95.1826 55.4281,95.5159 52.5,96.5C 53.8532,97.5237 54.5198,98.857 54.5,100.5C 52.1667,100.5 49.8333,100.5 47.5,100.5C 46.2825,99.8386 44.9492,99.1719 43.5,98.5C 45.3316,97.9432 46.6649,96.9432 47.5,95.5C 50.4424,94.5187 52.7758,92.852 54.5,90.5 Z"/></g>
<g><path style="opacity:1" fill="#d4d4d4" d="M 72.5,88.5 C 72.5,89.1667 72.5,89.8333 72.5,90.5C 71.0222,90.238 69.6888,90.5713 68.5,91.5C 69.8532,92.5237 70.5198,93.857 70.5,95.5C 68.2627,94.551 65.9294,93.8844 63.5,93.5C 62.8333,95.5 62.1667,97.5 61.5,99.5C 61.3653,101.554 62.032,103.221 63.5,104.5C 62.8333,104.5 62.1667,104.5 61.5,104.5C 59.6282,102.396 57.2948,101.063 54.5,100.5C 54.5198,98.857 53.8532,97.5237 52.5,96.5C 55.4281,95.5159 58.4281,95.1826 61.5,95.5C 61.5,94.5 61.5,93.5 61.5,92.5C 61.5,91.1667 61.5,89.8333 61.5,88.5C 62.8333,88.5 64.1667,88.5 65.5,88.5C 65.5,87.1667 65.5,85.8333 65.5,84.5C 67.8333,85.8333 70.1667,87.1667 72.5,88.5 Z"/></g>
<g><path style="opacity:1" fill="#e7e7e7" d="M 72.5,90.5 C 72.1568,92.4832 72.8235,93.8166 74.5,94.5C 74.5,96.1667 74.5,97.8333 74.5,99.5C 70.1667,96.8333 65.8333,96.8333 61.5,99.5C 62.1667,97.5 62.8333,95.5 63.5,93.5C 65.9294,93.8844 68.2627,94.551 70.5,95.5C 70.5198,93.857 69.8532,92.5237 68.5,91.5C 69.6888,90.5713 71.0222,90.238 72.5,90.5 Z"/></g>
<g><path style="opacity:1" fill="#d4d4d4" d="M 45.5,90.5 C 45.7959,92.403 46.4625,94.0697 47.5,95.5C 46.6649,96.9432 45.3316,97.9432 43.5,98.5C 44.9492,99.1719 46.2825,99.8386 47.5,100.5C 46.2921,101.234 44.9587,101.567 43.5,101.5C 41.2627,100.551 38.9294,99.8844 36.5,99.5C 36.5,98.8333 36.5,98.1667 36.5,97.5C 37.5,97.5 38.5,97.5 39.5,97.5C 40.1667,95.1667 40.8333,92.8333 41.5,90.5C 42.8333,90.5 44.1667,90.5 45.5,90.5 Z"/></g>
<g><path style="opacity:1" fill="#d0d0d0" d="M 83.5,92.5 C 85.4832,92.1568 86.8166,92.8235 87.5,94.5C 87.5,95.5 87.5,96.5 87.5,97.5C 85.5,97.5 83.5,97.5 81.5,97.5C 80.4479,95.744 78.7812,95.0773 76.5,95.5C 76.5,94.5 76.5,93.5 76.5,92.5C 78.8333,92.5 81.1667,92.5 83.5,92.5 Z"/></g>
<g><path style="opacity:0.994" fill="#dddddd" d="M 90.5,92.5 C 91.4013,93.2905 92.0679,94.2905 92.5,95.5C 91.8921,96.7997 91.2255,98.1331 90.5,99.5C 91.5471,101.056 92.2137,102.723 92.5,104.5C 90.5168,104.157 89.1834,104.824 88.5,106.5C 87.2379,103.929 85.9045,103.929 84.5,106.5C 83.5258,104.257 83.1924,101.924 83.5,99.5C 85.7659,99.1412 87.5993,99.8078 89,101.5C 89.8442,99.5372 89.3442,98.2039 87.5,97.5C 87.5,96.5 87.5,95.5 87.5,94.5C 88.7777,94.2178 89.7777,93.5511 90.5,92.5 Z"/></g>
<g><path style="opacity:1" fill="#d1d1d1" d="M 12.5,92.5 C 14.2426,94.4336 16.2426,96.1002 18.5,97.5C 14.9517,98.7022 11.285,99.3689 7.5,99.5C 8.43334,96.6298 10.1,94.2964 12.5,92.5 Z"/></g>
<g><path style="opacity:1" fill="#e0e0e0" d="M 76.5,95.5 C 78.7812,95.0773 80.4479,95.744 81.5,97.5C 81.2786,98.7348 80.6119,99.7348 79.5,100.5C 80.1667,101.167 80.8333,101.833 81.5,102.5C 80.1468,103.524 79.4802,104.857 79.5,106.5C 77.9484,104.658 76.2818,102.991 74.5,101.5C 74.5,100.833 74.5,100.167 74.5,99.5C 76.1765,98.8166 76.8432,97.4832 76.5,95.5 Z"/></g>
<g><path style="opacity:0.992" fill="#e1e1e1" d="M 18.5,97.5 C 18.2786,98.7348 17.6119,99.7348 16.5,100.5C 18.6191,102.303 20.9524,103.636 23.5,104.5C 23.5,105.167 23.5,105.833 23.5,106.5C 23.5,107.833 23.5,109.167 23.5,110.5C 22.1667,109.833 20.8333,109.167 19.5,108.5C 19.4606,107.417 19.1272,106.417 18.5,105.5C 16.8333,105.167 15.1667,104.833 13.5,104.5C 11.3603,104.556 9.69363,105.223 8.5,106.5C 7.16667,107.167 5.83333,107.833 4.5,108.5C 4.68964,105.145 5.68964,102.145 7.5,99.5C 11.285,99.3689 14.9517,98.7022 18.5,97.5 Z"/></g>
<g><path style="opacity:1" fill="#cacaca" d="M 74.5,99.5 C 74.5,100.167 74.5,100.833 74.5,101.5C 71.5,101.5 68.5,101.5 65.5,101.5C 65.5,102.5 65.5,103.5 65.5,104.5C 64.8333,104.5 64.1667,104.5 63.5,104.5C 62.032,103.221 61.3653,101.554 61.5,99.5C 65.8333,96.8333 70.1667,96.8333 74.5,99.5 Z"/></g>
<g><path style="opacity:1" fill="#cccccc" d="M 18.5,97.5 C 20.1667,97.5 21.8333,97.5 23.5,97.5C 23.5,98.8333 24.1667,99.5 25.5,99.5C 24.4975,101.011 23.8308,102.678 23.5,104.5C 20.9524,103.636 18.6191,102.303 16.5,100.5C 17.6119,99.7348 18.2786,98.7348 18.5,97.5 Z"/></g>
<g><path style="opacity:1" fill="#ebebeb" d="M 30.5,97.5 C 32.5,97.5 34.5,97.5 36.5,97.5C 36.5,98.1667 36.5,98.8333 36.5,99.5C 34.2821,99.6138 32.2821,100.28 30.5,101.5C 28.6776,101.169 27.0109,100.502 25.5,99.5C 24.1667,99.5 23.5,98.8333 23.5,97.5C 23.62,96.4138 24.2867,95.7472 25.5,95.5C 27.0564,96.5471 28.7231,97.2137 30.5,97.5 Z"/></g>
<g><path style="opacity:0.836" fill="#dbdbdb" d="M 36.5,99.5 C 38.9294,99.8844 41.2627,100.551 43.5,101.5C 41.4453,103.555 39.7787,105.888 38.5,108.5C 37.2652,108.279 36.2652,107.612 35.5,106.5C 34.8333,109.5 34.1667,112.5 33.5,115.5C 32.8589,114.007 31.8589,113.007 30.5,112.5C 29.9935,111.141 28.9935,110.141 27.5,109.5C 29.0453,108.548 30.712,108.215 32.5,108.5C 32.762,107.022 32.4287,105.689 31.5,104.5C 30.7348,105.612 29.7348,106.279 28.5,106.5C 29.4408,104.95 30.1075,103.284 30.5,101.5C 32.2821,100.28 34.2821,99.6138 36.5,99.5 Z"/></g>
<g><path style="opacity:1" fill="#d3d3d3" d="M 92.5,95.5 C 95.1128,98.6448 96.7795,102.311 97.5,106.5C 96.9779,108.219 95.9779,109.552 94.5,110.5C 94.5,109.167 94.5,107.833 94.5,106.5C 92.5,106.5 90.5,106.5 88.5,106.5C 89.1834,104.824 90.5168,104.157 92.5,104.5C 92.2137,102.723 91.5471,101.056 90.5,99.5C 91.2255,98.1331 91.8921,96.7997 92.5,95.5 Z"/></g>
<g><path style="opacity:1" fill="#e3e3e3" d="M 25.5,99.5 C 27.0109,100.502 28.6776,101.169 30.5,101.5C 30.1075,103.284 29.4408,104.95 28.5,106.5C 26.8333,106.5 25.1667,106.5 23.5,106.5C 23.5,105.833 23.5,105.167 23.5,104.5C 23.8308,102.678 24.4975,101.011 25.5,99.5 Z"/></g>
<g><path style="opacity:1" fill="#d1d1d1" d="M 19.5,108.5 C 17.857,108.52 16.5237,107.853 15.5,106.5C 14.5713,107.689 14.238,109.022 14.5,110.5C 12.5178,109.193 10.5178,107.859 8.5,106.5C 9.69363,105.223 11.3603,104.556 13.5,104.5C 15.1667,104.833 16.8333,105.167 18.5,105.5C 19.1272,106.417 19.4606,107.417 19.5,108.5 Z"/></g>
<g><path style="opacity:1" fill="#e8e8e8" d="M 74.5,101.5 C 74.5,103.833 74.5,106.167 74.5,108.5C 71.5,107.167 68.5,105.833 65.5,104.5C 65.5,103.5 65.5,102.5 65.5,101.5C 68.5,101.5 71.5,101.5 74.5,101.5 Z"/></g>
<g><path style="opacity:1" fill="#cbcbcb" d="M 74.5,101.5 C 76.2818,102.991 77.9484,104.658 79.5,106.5C 79.5,107.833 79.5,109.167 79.5,110.5C 78.5,110.5 77.5,110.5 76.5,110.5C 76.5,111.5 76.5,112.5 76.5,113.5C 74.2821,113.614 72.2821,114.28 70.5,115.5C 69.8333,113.833 69.1667,112.167 68.5,110.5C 70.4918,110.328 72.1585,110.995 73.5,112.5C 74.4287,111.311 74.762,109.978 74.5,108.5C 74.5,106.167 74.5,103.833 74.5,101.5 Z"/></g>
<g><path style="opacity:1" fill="#ececec" d="M 81.5,97.5 C 83.5,97.5 85.5,97.5 87.5,97.5C 89.3442,98.2039 89.8442,99.5372 89,101.5C 87.5993,99.8078 85.7659,99.1412 83.5,99.5C 83.1924,101.924 83.5258,104.257 84.5,106.5C 85.9045,103.929 87.2379,103.929 88.5,106.5C 90.5,106.5 92.5,106.5 94.5,106.5C 94.5,107.833 94.5,109.167 94.5,110.5C 90.715,110.369 87.0483,109.702 83.5,108.5C 82.1667,107.833 80.8333,107.167 79.5,106.5C 79.4802,104.857 80.1468,103.524 81.5,102.5C 80.8333,101.833 80.1667,101.167 79.5,100.5C 80.6119,99.7348 81.2786,98.7348 81.5,97.5 Z"/></g>
<g><path style="opacity:1" fill="#c1c1c1" d="M 30.5,112.5 C 27.6122,113.01 25.2789,112.344 23.5,110.5C 23.5,109.167 23.5,107.833 23.5,106.5C 25.1667,106.5 26.8333,106.5 28.5,106.5C 29.7348,106.279 30.7348,105.612 31.5,104.5C 32.4287,105.689 32.762,107.022 32.5,108.5C 30.712,108.215 29.0453,108.548 27.5,109.5C 28.9935,110.141 29.9935,111.141 30.5,112.5 Z"/></g>
<g><path style="opacity:1" fill="#c9c9c9" d="M 63.5,104.5 C 64.1667,104.5 64.8333,104.5 65.5,104.5C 68.5,105.833 71.5,107.167 74.5,108.5C 74.762,109.978 74.4287,111.311 73.5,112.5C 72.1585,110.995 70.4918,110.328 68.5,110.5C 66.4632,108.798 64.7966,106.798 63.5,104.5 Z"/></g>
<g><path style="opacity:1" fill="#e3e3e3" d="M 19.5,108.5 C 20.8333,109.167 22.1667,109.833 23.5,110.5C 25.2789,112.344 27.6122,113.01 30.5,112.5C 30.5,112.833 30.5,113.167 30.5,113.5C 22.163,112.864 19.8296,116.197 23.5,123.5C 22.0222,123.762 20.6888,123.429 19.5,122.5C 19.2155,120.241 18.2155,118.574 16.5,117.5C 16.1156,115.071 15.449,112.737 14.5,110.5C 14.238,109.022 14.5713,107.689 15.5,106.5C 16.5237,107.853 17.857,108.52 19.5,108.5 Z"/></g>
<g><path style="opacity:0.971" fill="#f2f2f2" d="M 38.5,108.5 C 37.701,111.43 37.3677,114.43 37.5,117.5C 35.8333,117.5 34.1667,117.5 32.5,117.5C 29.6643,117.163 28.9976,115.829 30.5,113.5C 30.5,113.167 30.5,112.833 30.5,112.5C 31.8589,113.007 32.8589,114.007 33.5,115.5C 34.1667,112.5 34.8333,109.5 35.5,106.5C 36.2652,107.612 37.2652,108.279 38.5,108.5 Z"/></g>
<g><path style="opacity:0.854" fill="#ececec" d="M 8.5,106.5 C 10.5178,107.859 12.5178,109.193 14.5,110.5C 15.449,112.737 16.1156,115.071 16.5,117.5C 15.1667,117.5 13.8333,117.5 12.5,117.5C 12.5,117.167 12.5,116.833 12.5,116.5C 12.5,115.167 12.5,113.833 12.5,112.5C 9.51763,112.963 6.51763,113.296 3.5,113.5C 3.21552,111.585 3.54885,109.919 4.5,108.5C 5.83333,107.833 7.16667,107.167 8.5,106.5 Z"/></g>
<g><path style="opacity:1" fill="#cfcfcf" d="M 79.5,106.5 C 80.8333,107.167 82.1667,107.833 83.5,108.5C 83.6825,111.608 85.0158,114.108 87.5,116C 86.2068,116.49 84.8734,116.657 83.5,116.5C 83.719,115.325 83.3857,114.325 82.5,113.5C 81.5713,114.689 81.238,116.022 81.5,117.5C 80.5,117.5 79.5,117.5 78.5,117.5C 78.5,116.833 78.5,116.167 78.5,115.5C 78.4802,113.857 79.1468,112.524 80.5,111.5C 80.3764,110.893 80.0431,110.56 79.5,110.5C 79.5,109.167 79.5,107.833 79.5,106.5 Z"/></g>
<g><path style="opacity:1" fill="#ededed" d="M 30.5,113.5 C 28.9976,115.829 29.6643,117.163 32.5,117.5C 32.1788,119.048 31.1788,119.715 29.5,119.5C 27.8235,120.183 27.1568,121.517 27.5,123.5C 26.1667,123.5 24.8333,123.5 23.5,123.5C 19.8296,116.197 22.163,112.864 30.5,113.5 Z"/></g>
<g><path style="opacity:1" fill="#e6e6e6" d="M 61.5,104.5 C 62.1667,104.5 62.8333,104.5 63.5,104.5C 64.7966,106.798 66.4632,108.798 68.5,110.5C 69.1667,112.167 69.8333,113.833 70.5,115.5C 70.5,116.833 70.5,118.167 70.5,119.5C 68.8333,120.833 67.1667,122.167 65.5,123.5C 64.5084,123.672 63.8417,123.338 63.5,122.5C 65.2441,116.197 64.5775,110.197 61.5,104.5 Z"/></g>
<g><path style="opacity:1" fill="#dbdbdb" d="M 83.5,108.5 C 87.0483,109.702 90.715,110.369 94.5,110.5C 94.5,112.833 94.5,115.167 94.5,117.5C 92.2341,117.859 90.4007,117.192 89,115.5C 88.7216,116.416 88.2216,117.082 87.5,117.5C 86.1667,117.5 84.8333,117.5 83.5,117.5C 83.5,117.167 83.5,116.833 83.5,116.5C 84.8734,116.657 86.2068,116.49 87.5,116C 85.0158,114.108 83.6825,111.608 83.5,108.5 Z"/></g>
<g><path style="opacity:1" fill="#efefef" d="M 97.5,106.5 C 98.436,110.735 98.7693,115.069 98.5,119.5C 95.1445,119.091 92.1445,119.758 89.5,121.5C 88.8333,120.167 88.1667,118.833 87.5,117.5C 88.2216,117.082 88.7216,116.416 89,115.5C 90.4007,117.192 92.2341,117.859 94.5,117.5C 94.5,115.167 94.5,112.833 94.5,110.5C 95.9779,109.552 96.9779,108.219 97.5,106.5 Z"/></g>
<g><path style="opacity:1" fill="#c0c0c0" d="M 12.5,116.5 C 12.5,116.833 12.5,117.167 12.5,117.5C 12.1788,119.048 11.1788,119.715 9.5,119.5C 8.81658,117.824 7.48324,117.157 5.5,117.5C 5.5,116.5 5.5,115.5 5.5,114.5C 8.07577,114.468 10.4091,115.135 12.5,116.5 Z"/></g>
<g><path style="opacity:1" fill="#e1e1e1" d="M 79.5,110.5 C 80.0431,110.56 80.3764,110.893 80.5,111.5C 79.1468,112.524 78.4802,113.857 78.5,115.5C 75.8333,116.833 73.1667,118.167 70.5,119.5C 70.5,118.167 70.5,116.833 70.5,115.5C 72.2821,114.28 74.2821,113.614 76.5,113.5C 76.5,112.5 76.5,111.5 76.5,110.5C 77.5,110.5 78.5,110.5 79.5,110.5 Z"/></g>
<g><path style="opacity:1" fill="#dfdfdf" d="M 12.5,116.5 C 10.4091,115.135 8.07577,114.468 5.5,114.5C 5.5,115.5 5.5,116.5 5.5,117.5C 7.48324,117.157 8.81658,117.824 9.5,119.5C 7.5,120.167 5.5,120.833 3.5,121.5C 3.5,118.833 3.5,116.167 3.5,113.5C 6.51763,113.296 9.51763,112.963 12.5,112.5C 12.5,113.833 12.5,115.167 12.5,116.5 Z"/></g>
<g><path style="opacity:1" fill="#e5e5e5" d="M 83.5,116.5 C 83.5,116.833 83.5,117.167 83.5,117.5C 83.2786,118.735 82.6119,119.735 81.5,120.5C 82.6119,121.265 83.2786,122.265 83.5,123.5C 82.1667,123.5 81.5,124.167 81.5,125.5C 79.8333,125.5 78.1667,125.5 76.5,125.5C 76.5,124.167 76.5,122.833 76.5,121.5C 81.1103,121.404 81.4436,120.404 77.5,118.5C 77.6236,117.893 77.9569,117.56 78.5,117.5C 79.5,117.5 80.5,117.5 81.5,117.5C 81.238,116.022 81.5713,114.689 82.5,113.5C 83.3857,114.325 83.719,115.325 83.5,116.5 Z"/></g>
<g><path style="opacity:0.943" fill="#e4e4e4" d="M 12.5,117.5 C 13.8333,117.5 15.1667,117.5 16.5,117.5C 16.8432,119.483 16.1765,120.817 14.5,121.5C 13.1667,121.5 11.8333,121.5 10.5,121.5C 8.26271,122.449 5.92937,123.116 3.5,123.5C 3.5,122.833 3.5,122.167 3.5,121.5C 5.5,120.833 7.5,120.167 9.5,119.5C 11.1788,119.715 12.1788,119.048 12.5,117.5 Z"/></g>
<g><path style="opacity:1" fill="#cfcfcf" d="M 32.5,117.5 C 34.1667,117.5 35.8333,117.5 37.5,117.5C 37.8333,118.167 38.1667,118.833 38.5,119.5C 37.3263,120.514 36.6596,121.847 36.5,123.5C 35.5178,124.141 34.5178,124.807 33.5,125.5C 32.8003,122.985 31.4669,122.318 29.5,123.5C 28.7084,122.3 28.7084,120.967 29.5,119.5C 31.1788,119.715 32.1788,119.048 32.5,117.5 Z"/></g>
<g><path style="opacity:1" fill="#dadada" d="M 78.5,115.5 C 78.5,116.167 78.5,116.833 78.5,117.5C 77.9569,117.56 77.6236,117.893 77.5,118.5C 81.4436,120.404 81.1103,121.404 76.5,121.5C 76.5,122.833 76.5,124.167 76.5,125.5C 78.1667,125.5 79.8333,125.5 81.5,125.5C 79.3432,126.407 77.0098,127.073 74.5,127.5C 74.5,126.5 74.5,125.5 74.5,124.5C 72.0706,124.884 69.7373,125.551 67.5,126.5C 70.0401,124.334 69.3734,123.334 65.5,123.5C 67.1667,122.167 68.8333,120.833 70.5,119.5C 73.1667,118.167 75.8333,116.833 78.5,115.5 Z"/></g>
<g><path style="opacity:1" fill="#dddddd" d="M 98.5,119.5 C 98.7489,123.458 98.0823,127.124 96.5,130.5C 92.7429,130.714 92.0762,129.714 94.5,127.5C 93.1468,126.476 92.4802,125.143 92.5,123.5C 90.712,123.785 89.0453,123.452 87.5,122.5C 87.9569,121.702 88.6236,121.369 89.5,121.5C 92.1445,119.758 95.1445,119.091 98.5,119.5 Z"/></g>
<g><path style="opacity:0.982" fill="#e1e1e1" d="M 10.5,121.5 C 11.449,123.737 12.1156,126.071 12.5,128.5C 13.9179,130.308 15.9179,130.975 18.5,130.5C 18.5,131.833 18.5,133.167 18.5,134.5C 15.8333,133.833 13.1667,133.167 10.5,132.5C 10.5,131.167 10.5,129.833 10.5,128.5C 8.5,128.5 6.5,128.5 4.5,128.5C 4.63404,126.708 4.30071,125.042 3.5,123.5C 5.92937,123.116 8.26271,122.449 10.5,121.5 Z"/></g>
<g><path style="opacity:1" fill="#dddddd" d="M 10.5,121.5 C 11.8333,121.5 13.1667,121.5 14.5,121.5C 14.3691,122.376 14.7025,123.043 15.5,123.5C 17.604,124.519 19.604,125.519 21.5,126.5C 18.4359,126.928 15.4359,127.594 12.5,128.5C 12.1156,126.071 11.449,123.737 10.5,121.5 Z"/></g>
<g><path style="opacity:1" fill="#eeeeee" d="M 83.5,117.5 C 84.8333,117.5 86.1667,117.5 87.5,117.5C 88.1667,118.833 88.8333,120.167 89.5,121.5C 88.6236,121.369 87.9569,121.702 87.5,122.5C 89.0453,123.452 90.712,123.785 92.5,123.5C 92.4802,125.143 93.1468,126.476 94.5,127.5C 92.0762,129.714 92.7429,130.714 96.5,130.5C 96.2041,132.403 95.5375,134.07 94.5,135.5C 94.5,134.5 94.5,133.5 94.5,132.5C 93.1667,132.5 91.8333,132.5 90.5,132.5C 90.5,131.167 90.5,129.833 90.5,128.5C 88.6776,128.169 87.0109,127.502 85.5,126.5C 85.2178,125.222 84.5511,124.222 83.5,123.5C 83.2786,122.265 82.6119,121.265 81.5,120.5C 82.6119,119.735 83.2786,118.735 83.5,117.5 Z"/></g>
<g><path style="opacity:1" fill="#d3d3d3" d="M 29.5,119.5 C 28.7084,120.967 28.7084,122.3 29.5,123.5C 31.4669,122.318 32.8003,122.985 33.5,125.5C 34.5178,124.807 35.5178,124.141 36.5,123.5C 38.0481,123.821 38.7148,124.821 38.5,126.5C 36.5,126.5 34.5,126.5 32.5,126.5C 32.762,127.978 32.4287,129.311 31.5,130.5C 30.5481,128.955 30.2148,127.288 30.5,125.5C 29.209,125.263 28.209,125.596 27.5,126.5C 26.8166,128.176 25.4832,128.843 23.5,128.5C 23.5,126.833 23.5,125.167 23.5,123.5C 24.8333,123.5 26.1667,123.5 27.5,123.5C 27.1568,121.517 27.8235,120.183 29.5,119.5 Z"/></g>
<g><path style="opacity:1" fill="#cdcdcd" d="M 83.5,123.5 C 84.5511,124.222 85.2178,125.222 85.5,126.5C 85.2786,127.735 84.6119,128.735 83.5,129.5C 80.5719,130.484 77.5719,130.817 74.5,130.5C 74.5,129.5 74.5,128.5 74.5,127.5C 77.0098,127.073 79.3432,126.407 81.5,125.5C 81.5,124.167 82.1667,123.5 83.5,123.5 Z"/></g>
<g><path style="opacity:0.828" fill="#c1c1c1" d="M 63.5,122.5 C 63.8417,123.338 64.5084,123.672 65.5,123.5C 69.3734,123.334 70.0401,124.334 67.5,126.5C 66.0222,126.238 64.6888,126.571 63.5,127.5C 65.3316,128.057 66.6649,129.057 67.5,130.5C 64.4281,130.183 61.4281,130.516 58.5,131.5C 59.8697,134.439 59.203,135.439 56.5,134.5C 56.5,134.167 56.5,133.833 56.5,133.5C 55.032,132.221 54.3653,130.554 54.5,128.5C 58.3608,127.74 61.3608,125.74 63.5,122.5 Z"/></g>
<g><path style="opacity:1" fill="#eaeaea" d="M 16.5,117.5 C 18.2155,118.574 19.2155,120.241 19.5,122.5C 20.6888,123.429 22.0222,123.762 23.5,123.5C 23.5,125.167 23.5,126.833 23.5,128.5C 25.4832,128.843 26.8166,128.176 27.5,126.5C 29.1765,127.183 29.8432,128.517 29.5,130.5C 26.9179,130.025 24.9179,130.692 23.5,132.5C 22.8333,132.5 22.1667,132.5 21.5,132.5C 21.2786,131.265 20.6119,130.265 19.5,129.5C 20.6119,128.735 21.2786,127.735 21.5,126.5C 19.604,125.519 17.604,124.519 15.5,123.5C 14.7025,123.043 14.3691,122.376 14.5,121.5C 16.1765,120.817 16.8432,119.483 16.5,117.5 Z"/></g>
<g><path style="opacity:1" fill="#e3e3e3" d="M 74.5,127.5 C 74.5,128.5 74.5,129.5 74.5,130.5C 75.0545,134.012 74.3878,137.012 72.5,139.5C 72.38,138.414 71.7133,137.747 70.5,137.5C 69.2613,137.942 68.2613,138.609 67.5,139.5C 67.5,138.833 67.5,138.167 67.5,137.5C 67.8212,135.952 68.8212,135.285 70.5,135.5C 70.4802,133.857 71.1468,132.524 72.5,131.5C 70.9547,130.548 69.288,130.215 67.5,130.5C 66.6649,129.057 65.3316,128.057 63.5,127.5C 64.6888,126.571 66.0222,126.238 67.5,126.5C 69.7373,125.551 72.0706,124.884 74.5,124.5C 74.5,125.5 74.5,126.5 74.5,127.5 Z"/></g>
<g><path style="opacity:1" fill="#d9d9d9" d="M 85.5,126.5 C 87.0109,127.502 88.6776,128.169 90.5,128.5C 90.5,129.833 90.5,131.167 90.5,132.5C 88.1667,132.5 85.8333,132.5 83.5,132.5C 81.1667,132.5 78.8333,132.5 76.5,132.5C 76.1103,135.466 76.777,138.132 78.5,140.5C 78.0431,141.298 77.3764,141.631 76.5,141.5C 74.5168,141.843 73.1834,141.176 72.5,139.5C 74.3878,137.012 75.0545,134.012 74.5,130.5C 77.5719,130.817 80.5719,130.484 83.5,129.5C 84.6119,128.735 85.2786,127.735 85.5,126.5 Z"/></g>
<g><path style="opacity:1" fill="#d9d9d9" d="M 38.5,119.5 C 38.8925,121.284 39.5592,122.95 40.5,124.5C 39.9569,124.56 39.6236,124.893 39.5,125.5C 40.9459,127.618 41.6126,129.951 41.5,132.5C 39.5853,132.216 37.9187,132.549 36.5,133.5C 32.5822,133.127 29.9155,134.794 28.5,138.5C 29.6888,139.429 31.0222,139.762 32.5,139.5C 32.5,140.167 32.5,140.833 32.5,141.5C 30.2188,141.923 28.5521,141.256 27.5,139.5C 27.4012,136.361 26.0679,134.027 23.5,132.5C 24.9179,130.692 26.9179,130.025 29.5,130.5C 29.8432,128.517 29.1765,127.183 27.5,126.5C 28.209,125.596 29.209,125.263 30.5,125.5C 30.2148,127.288 30.5481,128.955 31.5,130.5C 32.4287,129.311 32.762,127.978 32.5,126.5C 34.5,126.5 36.5,126.5 38.5,126.5C 38.7148,124.821 38.0481,123.821 36.5,123.5C 36.6596,121.847 37.3263,120.514 38.5,119.5 Z"/></g>
<g><path style="opacity:1" fill="#e4e4e4" d="M 40.5,124.5 C 42.3718,126.604 44.7052,127.937 47.5,128.5C 48.6782,129.999 50.3449,130.999 52.5,131.5C 51.3112,132.429 49.9778,132.762 48.5,132.5C 46.1789,132.229 44.1789,132.896 42.5,134.5C 41.7025,134.043 41.3691,133.376 41.5,132.5C 41.6126,129.951 40.9459,127.618 39.5,125.5C 39.6236,124.893 39.9569,124.56 40.5,124.5 Z"/></g>
<g><path style="opacity:1" fill="#dbdbdb" d="M 47.5,128.5 C 49.8817,129.546 52.2151,129.546 54.5,128.5C 54.3653,130.554 55.032,132.221 56.5,133.5C 55.1667,133.5 53.8333,133.5 52.5,133.5C 52.5,137.167 52.5,140.833 52.5,144.5C 50.1667,144.5 47.8333,144.5 45.5,144.5C 46.6085,143.71 47.9419,143.21 49.5,143C 48.572,142.612 47.9054,141.945 47.5,141C 47.9891,139.862 48.3225,138.695 48.5,137.5C 49.4972,137.53 50.1639,137.03 50.5,136C 49.5705,134.923 48.9038,133.756 48.5,132.5C 49.9778,132.762 51.3112,132.429 52.5,131.5C 50.3449,130.999 48.6782,129.999 47.5,128.5 Z"/></g>
<g><path style="opacity:1" fill="#dfdfdf" d="M 36.5,133.5 C 37.6497,136.298 38.983,138.965 40.5,141.5C 39.8166,143.176 38.4832,143.843 36.5,143.5C 36.5,144.5 36.5,145.5 36.5,146.5C 35.4138,146.38 34.7472,145.713 34.5,144.5C 35.9371,142.423 36.6038,140.09 36.5,137.5C 34.5168,137.157 33.1834,137.824 32.5,139.5C 31.0222,139.762 29.6888,139.429 28.5,138.5C 29.9155,134.794 32.5822,133.127 36.5,133.5 Z"/></g>
<g><path style="opacity:1" fill="#cdcdcd" d="M 41.5,132.5 C 41.3691,133.376 41.7025,134.043 42.5,134.5C 44.1789,132.896 46.1789,132.229 48.5,132.5C 48.9038,133.756 49.5705,134.923 50.5,136C 50.1639,137.03 49.4972,137.53 48.5,137.5C 47.1336,135.649 45.467,135.316 43.5,136.5C 44.1667,137.167 44.8333,137.833 45.5,138.5C 43.9951,139.842 43.3285,141.508 43.5,143.5C 42.2223,143.218 41.2223,142.551 40.5,141.5C 38.983,138.965 37.6497,136.298 36.5,133.5C 37.9187,132.549 39.5853,132.216 41.5,132.5 Z"/></g>
<g><path style="opacity:1" fill="#d1d1d1" d="M 67.5,130.5 C 69.288,130.215 70.9547,130.548 72.5,131.5C 71.1468,132.524 70.4802,133.857 70.5,135.5C 68.8212,135.285 67.8212,135.952 67.5,137.5C 66.2652,137.279 65.2652,136.612 64.5,135.5C 61.2241,140.409 57.8908,140.576 54.5,136C 54.8361,134.97 55.5028,134.47 56.5,134.5C 59.203,135.439 59.8697,134.439 58.5,131.5C 61.4281,130.516 64.4281,130.183 67.5,130.5 Z"/></g>
<g><path style="opacity:1" fill="#cbcbcb" d="M 83.5,132.5 C 83.5,133.5 83.5,134.5 83.5,135.5C 81.8235,136.183 81.1568,137.517 81.5,139.5C 82.8333,139.5 84.1667,139.5 85.5,139.5C 84.572,142.195 83.2387,144.528 81.5,146.5C 81.5,145.5 81.5,144.5 81.5,143.5C 79.8333,143.5 78.1667,143.5 76.5,143.5C 76.5,142.833 76.5,142.167 76.5,141.5C 77.3764,141.631 78.0431,141.298 78.5,140.5C 76.777,138.132 76.1103,135.466 76.5,132.5C 78.8333,132.5 81.1667,132.5 83.5,132.5 Z"/></g>
<g><path style="opacity:1" fill="#c0c0c0" d="M 83.5,132.5 C 85.8333,132.5 88.1667,132.5 90.5,132.5C 91.8333,132.5 93.1667,132.5 94.5,132.5C 94.5,133.5 94.5,134.5 94.5,135.5C 94.6716,136.492 94.3382,137.158 93.5,137.5C 90.2655,136.424 86.9322,135.757 83.5,135.5C 83.5,134.5 83.5,133.5 83.5,132.5 Z"/></g>
<g><path style="opacity:1" fill="#d8d8d8" d="M 21.5,126.5 C 21.2786,127.735 20.6119,128.735 19.5,129.5C 20.6119,130.265 21.2786,131.265 21.5,132.5C 19.9519,132.821 19.2852,133.821 19.5,135.5C 21.4832,135.157 22.8166,135.824 23.5,137.5C 22.2223,137.782 21.2223,138.449 20.5,139.5C 17.6391,139.658 14.9724,138.992 12.5,137.5C 11.4163,137.685 10.4163,138.018 9.5,138.5C 7.32331,135.48 5.65664,132.147 4.5,128.5C 6.5,128.5 8.5,128.5 10.5,128.5C 10.5,129.833 10.5,131.167 10.5,132.5C 13.1667,133.167 15.8333,133.833 18.5,134.5C 18.5,133.167 18.5,131.833 18.5,130.5C 15.9179,130.975 13.9179,130.308 12.5,128.5C 15.4359,127.594 18.4359,126.928 21.5,126.5 Z"/></g>
<g><path style="opacity:1" fill="#bababa" d="M 21.5,132.5 C 22.1667,132.5 22.8333,132.5 23.5,132.5C 26.0679,134.027 27.4012,136.361 27.5,139.5C 26.1667,139.5 24.8333,139.5 23.5,139.5C 23.5,138.833 23.5,138.167 23.5,137.5C 22.8166,135.824 21.4832,135.157 19.5,135.5C 19.2852,133.821 19.9519,132.821 21.5,132.5 Z"/></g>
<g><path style="opacity:1" fill="#dadada" d="M 83.5,135.5 C 86.9322,135.757 90.2655,136.424 93.5,137.5C 93.1667,138.167 92.8333,138.833 92.5,139.5C 90.8762,139.36 89.7096,140.027 89,141.5C 88.51,140.207 88.3433,138.873 88.5,137.5C 86.8212,137.285 85.8212,137.952 85.5,139.5C 84.1667,139.5 82.8333,139.5 81.5,139.5C 81.1568,137.517 81.8235,136.183 83.5,135.5 Z"/></g>
<g><path style="opacity:1" fill="#e5e5e5" d="M 48.5,137.5 C 48.3225,138.695 47.9891,139.862 47.5,141C 47.9054,141.945 48.572,142.612 49.5,143C 47.9419,143.21 46.6085,143.71 45.5,144.5C 45.38,145.586 44.7133,146.253 43.5,146.5C 42.8333,146.167 42.1667,145.833 41.5,145.5C 42.2427,144.818 42.9094,144.151 43.5,143.5C 43.3285,141.508 43.9951,139.842 45.5,138.5C 44.8333,137.833 44.1667,137.167 43.5,136.5C 45.467,135.316 47.1336,135.649 48.5,137.5 Z"/></g>
<g><path style="opacity:1" fill="#ececec" d="M 56.5,133.5 C 56.5,133.833 56.5,134.167 56.5,134.5C 55.5028,134.47 54.8361,134.97 54.5,136C 57.8908,140.576 61.2241,140.409 64.5,135.5C 65.2652,136.612 66.2652,137.279 67.5,137.5C 67.5,138.167 67.5,138.833 67.5,139.5C 66.1667,139.5 64.8333,139.5 63.5,139.5C 63.5,140.5 63.5,141.5 63.5,142.5C 62.1779,142.33 61.0113,142.663 60,143.5C 59.8184,145.33 60.3184,146.997 61.5,148.5C 59.8762,148.36 58.7096,149.027 58,150.5C 57.7216,149.584 57.2216,148.918 56.5,148.5C 54.9145,147.467 53.5812,146.134 52.5,144.5C 52.5,140.833 52.5,137.167 52.5,133.5C 53.8333,133.5 55.1667,133.5 56.5,133.5 Z"/></g>
<g><path style="opacity:1" fill="#c4c4c4" d="M 72.5,139.5 C 73.1834,141.176 74.5168,141.843 76.5,141.5C 76.5,142.167 76.5,142.833 76.5,143.5C 74.5168,143.157 73.1834,143.824 72.5,145.5C 70.5679,144.416 68.7346,143.083 67,141.5C 65.9231,142.429 64.7564,143.096 63.5,143.5C 63.5,143.167 63.5,142.833 63.5,142.5C 63.5,141.5 63.5,140.5 63.5,139.5C 64.8333,139.5 66.1667,139.5 67.5,139.5C 68.2613,138.609 69.2613,137.942 70.5,137.5C 71.7133,137.747 72.38,138.414 72.5,139.5 Z"/></g>
<g><path style="opacity:0.542" fill="#bcbcbc" d="M 20.5,139.5 C 19.8166,141.176 18.4832,141.843 16.5,141.5C 16.7148,143.179 16.0481,144.179 14.5,144.5C 12.1097,143.109 10.4431,141.109 9.5,138.5C 10.4163,138.018 11.4163,137.685 12.5,137.5C 14.9724,138.992 17.6391,139.658 20.5,139.5 Z"/></g>
<g><path style="opacity:1" fill="#d3d3d3" d="M 23.5,137.5 C 23.5,138.167 23.5,138.833 23.5,139.5C 23.1924,141.924 23.5258,144.257 24.5,146.5C 25.2652,147.612 26.2652,148.279 27.5,148.5C 27.1898,150.144 26.1898,151.144 24.5,151.5C 20.6082,149.938 17.2749,147.605 14.5,144.5C 16.0481,144.179 16.7148,143.179 16.5,141.5C 18.4832,141.843 19.8166,141.176 20.5,139.5C 21.2223,138.449 22.2223,137.782 23.5,137.5 Z"/></g>
<g><path style="opacity:1" fill="#cfcfcf" d="M 72.5,145.5 C 72.5,146.5 72.5,147.5 72.5,148.5C 70.1667,148.5 67.8333,148.5 65.5,148.5C 65.6347,146.446 64.968,144.779 63.5,143.5C 64.7564,143.096 65.9231,142.429 67,141.5C 68.7346,143.083 70.5679,144.416 72.5,145.5 Z"/></g>
<g><path style="opacity:0.95" fill="#e9e9e9" d="M 92.5,139.5 C 89.7689,143.234 86.4356,146.234 82.5,148.5C 81.6618,148.158 81.3284,147.492 81.5,146.5C 83.2387,144.528 84.572,142.195 85.5,139.5C 85.8212,137.952 86.8212,137.285 88.5,137.5C 88.3433,138.873 88.51,140.207 89,141.5C 89.7096,140.027 90.8762,139.36 92.5,139.5 Z"/></g>
<g><path style="opacity:1" fill="#ededed" d="M 36.5,146.5 C 37.1667,146.5 37.8333,146.5 38.5,146.5C 38.5,147.833 37.8333,148.5 36.5,148.5C 35.1667,148.5 33.8333,148.5 32.5,148.5C 31.325,148.719 30.325,148.386 29.5,147.5C 30.2458,146.264 30.5792,144.93 30.5,143.5C 29.448,143.649 28.448,143.483 27.5,143C 29.3817,142.802 31.0484,142.302 32.5,141.5C 32.5,140.833 32.5,140.167 32.5,139.5C 33.1834,137.824 34.5168,137.157 36.5,137.5C 36.6038,140.09 35.9371,142.423 34.5,144.5C 34.7472,145.713 35.4138,146.38 36.5,146.5 Z"/></g>
<g><path style="opacity:1" fill="#e1e1e1" d="M 23.5,139.5 C 24.8333,139.5 26.1667,139.5 27.5,139.5C 28.5521,141.256 30.2188,141.923 32.5,141.5C 31.0484,142.302 29.3817,142.802 27.5,143C 28.448,143.483 29.448,143.649 30.5,143.5C 30.5792,144.93 30.2458,146.264 29.5,147.5C 30.325,148.386 31.325,148.719 32.5,148.5C 32.38,149.586 31.7133,150.253 30.5,150.5C 29.2613,150.058 28.2613,149.391 27.5,148.5C 26.2652,148.279 25.2652,147.612 24.5,146.5C 23.5258,144.257 23.1924,141.924 23.5,139.5 Z"/></g>
<g><path style="opacity:1" fill="#cecece" d="M 40.5,141.5 C 41.2223,142.551 42.2223,143.218 43.5,143.5C 42.9094,144.151 42.2427,144.818 41.5,145.5C 42.1667,145.833 42.8333,146.167 43.5,146.5C 44.7133,146.253 45.38,145.586 45.5,144.5C 47.8333,144.5 50.1667,144.5 52.5,144.5C 53.5812,146.134 54.9145,147.467 56.5,148.5C 55.8166,150.176 54.4832,150.843 52.5,150.5C 52.5,149.167 52.5,147.833 52.5,146.5C 50.0706,146.884 47.7373,147.551 45.5,148.5C 43.5168,148.157 42.1834,148.824 41.5,150.5C 40.0221,149.552 39.0221,148.219 38.5,146.5C 37.8333,146.5 37.1667,146.5 36.5,146.5C 36.5,145.5 36.5,144.5 36.5,143.5C 38.4832,143.843 39.8166,143.176 40.5,141.5 Z"/></g>
<g><path style="opacity:1" fill="#dadada" d="M 56.5,148.5 C 57.2216,148.918 57.7216,149.584 58,150.5C 58.7096,149.027 59.8762,148.36 61.5,148.5C 62.1079,149.8 62.7745,151.133 63.5,152.5C 63.1667,153.167 62.8333,153.833 62.5,154.5C 60.1237,152.756 57.457,151.756 54.5,151.5C 50.6075,153.049 47.6075,152.049 45.5,148.5C 47.7373,147.551 50.0706,146.884 52.5,146.5C 52.5,147.833 52.5,149.167 52.5,150.5C 54.4832,150.843 55.8166,150.176 56.5,148.5 Z"/></g>
<g><path style="opacity:1" fill="#e0e0e0" d="M 76.5,143.5 C 78.1667,143.5 79.8333,143.5 81.5,143.5C 81.5,144.5 81.5,145.5 81.5,146.5C 81.3284,147.492 81.6618,148.158 82.5,148.5C 78.4306,151.868 73.7639,154.201 68.5,155.5C 68.2882,153.616 67.2882,152.283 65.5,151.5C 68.2949,151.062 70.6283,150.062 72.5,148.5C 72.5,147.5 72.5,146.5 72.5,145.5C 73.1834,143.824 74.5168,143.157 76.5,143.5 Z"/></g>
<g><path style="opacity:1" fill="#d6d6d6" d="M 27.5,148.5 C 28.2613,149.391 29.2613,150.058 30.5,150.5C 31.7133,150.253 32.38,149.586 32.5,148.5C 33.8333,148.5 35.1667,148.5 36.5,148.5C 36.7214,149.735 37.3881,150.735 38.5,151.5C 35.3583,152.167 32.3583,152.834 29.5,153.5C 27.4471,153.598 25.7804,152.931 24.5,151.5C 26.1898,151.144 27.1898,150.144 27.5,148.5 Z"/></g>
<g><path style="opacity:1" fill="#e1e1e1" d="M 38.5,146.5 C 39.0221,148.219 40.0221,149.552 41.5,150.5C 42.8333,152.833 44.1667,155.167 45.5,157.5C 39.7883,157.224 34.455,155.89 29.5,153.5C 32.3583,152.834 35.3583,152.167 38.5,151.5C 37.3881,150.735 36.7214,149.735 36.5,148.5C 37.8333,148.5 38.5,147.833 38.5,146.5 Z"/></g>
<g><path style="opacity:0.959" fill="#f0f0f0" d="M 45.5,148.5 C 47.6075,152.049 50.6075,153.049 54.5,151.5C 55.2297,153.045 56.563,153.878 58.5,154C 56.5273,154.495 54.5273,154.662 52.5,154.5C 52.5,155.5 52.5,156.5 52.5,157.5C 50.1667,157.5 47.8333,157.5 45.5,157.5C 44.1667,155.167 42.8333,152.833 41.5,150.5C 42.1834,148.824 43.5168,148.157 45.5,148.5 Z"/></g>
<g><path style="opacity:0.919" fill="#e9e9e9" d="M 63.5,142.5 C 63.5,142.833 63.5,143.167 63.5,143.5C 64.968,144.779 65.6347,146.446 65.5,148.5C 67.8333,148.5 70.1667,148.5 72.5,148.5C 70.6283,150.062 68.2949,151.062 65.5,151.5C 67.2882,152.283 68.2882,153.616 68.5,155.5C 63.2838,156.969 57.9505,157.635 52.5,157.5C 52.5,156.5 52.5,155.5 52.5,154.5C 54.5273,154.662 56.5273,154.495 58.5,154C 56.563,153.878 55.2297,153.045 54.5,151.5C 57.457,151.756 60.1237,152.756 62.5,154.5C 62.8333,153.833 63.1667,153.167 63.5,152.5C 62.7745,151.133 62.1079,149.8 61.5,148.5C 60.3184,146.997 59.8184,145.33 60,143.5C 61.0113,142.663 62.1779,142.33 63.5,142.5 Z"/></g>
</svg>
