<?xml version="1.0" encoding="UTF-8"?>
<!DOCTYPE svg PUBLIC "-//W3C//DTD SVG 1.1//EN" "http://www.w3.org/Graphics/SVG/1.1/DTD/svg11.dtd">
<svg xmlns="http://www.w3.org/2000/svg" version="1.1" width="104px" height="180px" style="shape-rendering:geometricPrecision; text-rendering:geometricPrecision; image-rendering:optimizeQuality; fill-rule:evenodd; clip-rule:evenodd" xmlns:xlink="http://www.w3.org/1999/xlink">
<g><path style="opacity:1" fill="#d6d6d6" d="M 56.5,19.5 C 60.1667,19.5 63.8333,19.5 67.5,19.5C 67.5,20.5 67.5,21.5 67.5,22.5C 68.552,22.3505 69.552,22.5172 70.5,23C 68.8659,23.4935 67.1992,23.6602 65.5,23.5C 65.5,24.5 65.5,25.5 65.5,26.5C 67.1788,26.2852 68.1788,26.9519 68.5,28.5C 69.8333,29.8333 71.1667,31.1667 72.5,32.5C 68.7768,32.4662 65.7768,31.1328 63.5,28.5C 62.4479,26.744 60.7812,26.0773 58.5,26.5C 58.5321,23.9242 57.8654,21.5909 56.5,19.5 Z"/></g>
<g><path style="opacity:1" fill="#d6d6d6" d="M 74.5,19.5 C 76.1667,19.5 77.8333,19.5 79.5,19.5C 80.5025,21.0109 81.1692,22.6776 81.5,24.5C 81.7214,25.7348 82.3881,26.7348 83.5,27.5C 82.8333,27.8333 82.1667,28.1667 81.5,28.5C 79.9436,27.4529 78.2769,26.7863 76.5,26.5C 75.551,24.2627 74.8844,21.9294 74.5,19.5 Z"/></g>
<g><path style="opacity:1" fill="#dddddd" d="M 79.5,19.5 C 82.1667,19.5 84.8333,19.5 87.5,19.5C 87.5,21.8333 87.5,24.1667 87.5,26.5C 85.7179,25.2804 83.7179,24.6138 81.5,24.5C 81.1692,22.6776 80.5025,21.0109 79.5,19.5 Z"/></g>
<g><path style="opacity:1" fill="#c6c6c6" d="M 67.5,19.5 C 69.8333,19.5 72.1667,19.5 74.5,19.5C 74.8844,21.9294 75.551,24.2627 76.5,26.5C 75.1667,26.5 74.5,27.1667 74.5,28.5C 72.5,28.5 70.5,28.5 68.5,28.5C 68.1788,26.9519 67.1788,26.2852 65.5,26.5C 65.5,25.5 65.5,24.5 65.5,23.5C 67.1992,23.6602 68.8659,23.4935 70.5,23C 69.552,22.5172 68.552,22.3505 67.5,22.5C 67.5,21.5 67.5,20.5 67.5,19.5 Z"/></g>
<g><path style="opacity:1" fill="#cecece" d="M 56.5,19.5 C 57.8654,21.5909 58.5321,23.9242 58.5,26.5C 60.7812,26.0773 62.4479,26.744 63.5,28.5C 62.1667,29.1667 60.8333,29.8333 59.5,30.5C 58.7784,30.0825 58.2784,29.4158 58,28.5C 57.2904,29.9733 56.1238,30.6399 54.5,30.5C 53.551,32.7373 52.8844,35.0706 52.5,37.5C 51.8333,37.5 51.1667,37.5 50.5,37.5C 50.1924,35.076 50.5258,32.7427 51.5,30.5C 53.5435,28.792 55.2101,26.792 56.5,24.5C 56.1316,22.8247 55.1316,21.8247 53.5,21.5C 53.8212,19.9519 54.8212,19.2852 56.5,19.5 Z"/></g>
<g><path style="opacity:1" fill="#f0f0f0" d="M 81.5,24.5 C 83.7179,24.6138 85.7179,25.2804 87.5,26.5C 87.5,27.8333 87.5,29.1667 87.5,30.5C 86.1667,30.5 84.8333,30.5 83.5,30.5C 83.5499,32.5901 82.5499,33.9234 80.5,34.5C 78.8211,32.8955 76.8211,32.2289 74.5,32.5C 74.5,31.1667 74.5,29.8333 74.5,28.5C 74.5,27.1667 75.1667,26.5 76.5,26.5C 78.2769,26.7863 79.9436,27.4529 81.5,28.5C 82.1667,28.1667 82.8333,27.8333 83.5,27.5C 82.3881,26.7348 81.7214,25.7348 81.5,24.5 Z"/></g>
<g><path style="opacity:0.781" fill="#dcdcdc" d="M 53.5,21.5 C 55.1316,21.8247 56.1316,22.8247 56.5,24.5C 55.2101,26.792 53.5435,28.792 51.5,30.5C 50.5258,32.7427 50.1924,35.076 50.5,37.5C 48.5923,36.5144 47.5923,34.8477 47.5,32.5C 49.2336,28.7004 51.2336,25.0337 53.5,21.5 Z"/></g>
<g><path style="opacity:1" fill="#dfdfdf" d="M 59.5,30.5 C 60.8062,31.4674 61.4729,32.8007 61.5,34.5C 60.5084,34.3284 59.8417,34.6618 59.5,35.5C 57.2627,36.449 54.9294,37.1156 52.5,37.5C 52.8844,35.0706 53.551,32.7373 54.5,30.5C 56.1238,30.6399 57.2904,29.9733 58,28.5C 58.2784,29.4158 58.7784,30.0825 59.5,30.5 Z"/></g>
<g><path style="opacity:1" fill="#dbdbdb" d="M 63.5,28.5 C 65.7768,31.1328 68.7768,32.4662 72.5,32.5C 73.1834,34.1765 74.5168,34.8432 76.5,34.5C 75.8333,35.1667 75.1667,35.8333 74.5,36.5C 72.2362,35.7814 69.9029,35.448 67.5,35.5C 66.2652,35.2786 65.2652,34.6119 64.5,33.5C 63.5832,34.1272 62.5832,34.4606 61.5,34.5C 61.4729,32.8007 60.8062,31.4674 59.5,30.5C 60.8333,29.8333 62.1667,29.1667 63.5,28.5 Z"/></g>
<g><path style="opacity:1" fill="#e0e0e0" d="M 68.5,28.5 C 70.5,28.5 72.5,28.5 74.5,28.5C 74.5,29.8333 74.5,31.1667 74.5,32.5C 76.8211,32.2289 78.8211,32.8955 80.5,34.5C 82.5499,33.9234 83.5499,32.5901 83.5,30.5C 84.8333,30.5 86.1667,30.5 87.5,30.5C 87.5,32.8333 87.5,35.1667 87.5,37.5C 84.5641,36.5942 81.5641,35.9275 78.5,35.5C 78.2893,33.5759 77.6226,33.2426 76.5,34.5C 74.5168,34.8432 73.1834,34.1765 72.5,32.5C 71.1667,31.1667 69.8333,29.8333 68.5,28.5 Z"/></g>
<g><path style="opacity:1" fill="#adadad" d="M 67.5,35.5 C 68.4663,37.0568 69.7996,38.3901 71.5,39.5C 72.4287,40.6888 72.762,42.0222 72.5,43.5C 71.8333,43.5 71.1667,43.5 70.5,43.5C 68.1944,43.0074 65.861,42.6741 63.5,42.5C 62.791,41.596 61.791,41.2627 60.5,41.5C 60.4828,39.4352 60.1495,37.4352 59.5,35.5C 59.8417,34.6618 60.5084,34.3284 61.5,34.5C 62.5832,34.4606 63.5832,34.1272 64.5,33.5C 65.2652,34.6119 66.2652,35.2786 67.5,35.5 Z"/></g>
<g><path style="opacity:1" fill="#d3d3d3" d="M 67.5,35.5 C 69.9029,35.448 72.2362,35.7814 74.5,36.5C 75.2013,39.2163 76.5346,41.5496 78.5,43.5C 76.5,43.5 74.5,43.5 72.5,43.5C 72.762,42.0222 72.4287,40.6888 71.5,39.5C 69.7996,38.3901 68.4663,37.0568 67.5,35.5 Z"/></g>
<g><path style="opacity:1" fill="#cbcbcb" d="M 78.5,35.5 C 81.5641,35.9275 84.5641,36.5942 87.5,37.5C 87.5,38.8333 87.5,40.1667 87.5,41.5C 84.7531,41.8134 82.0865,41.48 79.5,40.5C 78.6906,38.9291 78.3573,37.2624 78.5,35.5 Z"/></g>
<g><path style="opacity:1" fill="#c8c8c8" d="M 47.5,32.5 C 47.5923,34.8477 48.5923,36.5144 50.5,37.5C 51.1667,37.5 51.8333,37.5 52.5,37.5C 54.9294,37.1156 57.2627,36.449 59.5,35.5C 60.1495,37.4352 60.4828,39.4352 60.5,41.5C 60.1667,41.5 59.8333,41.5 59.5,41.5C 55.1668,39.8243 53.5002,41.4909 54.5,46.5C 53.1667,46.5 51.8333,46.5 50.5,46.5C 50.1788,44.9519 49.1788,44.2852 47.5,44.5C 47.5,42.8333 47.5,41.1667 47.5,39.5C 45.2821,39.6138 43.2821,40.2804 41.5,41.5C 43.2651,38.2911 45.2651,35.2911 47.5,32.5 Z"/></g>
<g><path style="opacity:1" fill="#d9d9d9" d="M 50.5,46.5 C 50.5,47.1667 50.5,47.8333 50.5,48.5C 49.5,48.5 48.5,48.5 47.5,48.5C 47.8333,45.5 46.5,44.1667 43.5,44.5C 43.3285,46.4918 43.9951,48.1585 45.5,49.5C 44.8333,49.8333 44.1667,50.1667 43.5,50.5C 41.6663,49.2455 39.6663,48.5789 37.5,48.5C 38.5839,45.9959 39.9172,43.6626 41.5,41.5C 43.2821,40.2804 45.2821,39.6138 47.5,39.5C 47.5,41.1667 47.5,42.8333 47.5,44.5C 49.1788,44.2852 50.1788,44.9519 50.5,46.5 Z"/></g>
<g><path style="opacity:1" fill="#dfdfdf" d="M 59.5,41.5 C 59.8333,41.5 60.1667,41.5 60.5,41.5C 61.791,41.2627 62.791,41.596 63.5,42.5C 62.4138,42.62 61.7472,43.2867 61.5,44.5C 62.885,46.5355 64.2183,48.5355 65.5,50.5C 64.2652,50.7214 63.2652,51.3881 62.5,52.5C 60.9931,50.3096 58.9931,48.9762 56.5,48.5C 56.5,46.1667 56.5,43.8333 56.5,41.5C 57.5,41.5 58.5,41.5 59.5,41.5 Z"/></g>
<g><path style="opacity:1" fill="#b5b5b5" d="M 78.5,35.5 C 78.3573,37.2624 78.6906,38.9291 79.5,40.5C 82.0865,41.48 84.7531,41.8134 87.5,41.5C 87.5,42.5 87.5,43.5 87.5,44.5C 83.8542,45.2834 80.1875,45.4501 76.5,45C 77.4158,44.7216 78.0825,44.2216 78.5,43.5C 76.5346,41.5496 75.2013,39.2163 74.5,36.5C 75.1667,35.8333 75.8333,35.1667 76.5,34.5C 77.6226,33.2426 78.2893,33.5759 78.5,35.5 Z"/></g>
<g><path style="opacity:1" fill="#d2d2d2" d="M 59.5,41.5 C 58.5,41.5 57.5,41.5 56.5,41.5C 56.5,43.8333 56.5,46.1667 56.5,48.5C 56.5,49.8333 55.8333,50.5 54.5,50.5C 52.5168,50.8432 51.1834,50.1765 50.5,48.5C 50.5,47.8333 50.5,47.1667 50.5,46.5C 51.8333,46.5 53.1667,46.5 54.5,46.5C 53.5002,41.4909 55.1668,39.8243 59.5,41.5 Z"/></g>
<g><path style="opacity:1" fill="#ededed" d="M 63.5,42.5 C 65.861,42.6741 68.1944,43.0074 70.5,43.5C 70.5,43.8333 70.5,44.1667 70.5,44.5C 70.2786,45.7348 69.6119,46.7348 68.5,47.5C 71.2291,49.3671 70.8957,50.3671 67.5,50.5C 66.8333,50.5 66.1667,50.5 65.5,50.5C 64.2183,48.5355 62.885,46.5355 61.5,44.5C 61.7472,43.2867 62.4138,42.62 63.5,42.5 Z"/></g>
<g><path style="opacity:1" fill="#c8c8c8" d="M 70.5,44.5 C 70.5,44.1667 70.5,43.8333 70.5,43.5C 71.1667,43.5 71.8333,43.5 72.5,43.5C 74.5,43.5 76.5,43.5 78.5,43.5C 78.0825,44.2216 77.4158,44.7216 76.5,45C 80.1875,45.4501 83.8542,45.2834 87.5,44.5C 87.5,45.8333 87.5,47.1667 87.5,48.5C 86.1667,47.8333 84.8333,47.1667 83.5,46.5C 80.5,46.5 77.5,46.5 74.5,46.5C 73.1667,45.8333 71.8333,45.1667 70.5,44.5 Z"/></g>
<g><path style="opacity:1" fill="#d0d0d0" d="M 74.5,46.5 C 77.5,46.5 80.5,46.5 83.5,46.5C 82.2034,48.7976 80.5368,50.7976 78.5,52.5C 77.1667,52.5 75.8333,52.5 74.5,52.5C 74.2786,51.2652 73.6119,50.2652 72.5,49.5C 73.6119,48.7348 74.2786,47.7348 74.5,46.5 Z"/></g>
<g><path style="opacity:1" fill="#cdcdcd" d="M 47.5,48.5 C 47.5,49.8333 47.5,51.1667 47.5,52.5C 45.396,52.2011 43.396,52.5344 41.5,53.5C 42.2427,54.1818 42.9094,54.8485 43.5,55.5C 41.8235,56.1834 41.1568,57.5168 41.5,59.5C 40.1224,58.4549 39.1224,57.1216 38.5,55.5C 39.7736,54.8106 39.7736,53.9772 38.5,53C 37.2068,52.51 35.8734,52.3433 34.5,52.5C 35.0256,50.7697 36.0256,49.4363 37.5,48.5C 39.6663,48.5789 41.6663,49.2455 43.5,50.5C 44.1667,50.1667 44.8333,49.8333 45.5,49.5C 43.9951,48.1585 43.3285,46.4918 43.5,44.5C 46.5,44.1667 47.8333,45.5 47.5,48.5 Z"/></g>
<g><path style="opacity:1" fill="#e3e3e3" d="M 70.5,44.5 C 71.8333,45.1667 73.1667,45.8333 74.5,46.5C 74.2786,47.7348 73.6119,48.7348 72.5,49.5C 73.6119,50.2652 74.2786,51.2652 74.5,52.5C 74.5,53.8333 73.8333,54.5 72.5,54.5C 70.8333,53.1667 69.1667,51.8333 67.5,50.5C 70.8957,50.3671 71.2291,49.3671 68.5,47.5C 69.6119,46.7348 70.2786,45.7348 70.5,44.5 Z"/></g>
<g><path style="opacity:1" fill="#e4e4e4" d="M 83.5,46.5 C 84.8333,47.1667 86.1667,47.8333 87.5,48.5C 87.5,52.1667 87.5,55.8333 87.5,59.5C 86.1667,58.1667 84.8333,56.8333 83.5,55.5C 81.4687,55.0276 79.8021,54.0276 78.5,52.5C 80.5368,50.7976 82.2034,48.7976 83.5,46.5 Z"/></g>
<g><path style="opacity:0.923" fill="#e6e6e6" d="M 34.5,52.5 C 35.8734,52.3433 37.2068,52.51 38.5,53C 39.7736,53.9772 39.7736,54.8106 38.5,55.5C 36.8235,56.1834 36.1568,57.5168 36.5,59.5C 34.5,59.5 32.5,59.5 30.5,59.5C 31.5839,56.9959 32.9172,54.6626 34.5,52.5 Z"/></g>
<g><path style="opacity:1" fill="#e8e8e8" d="M 47.5,48.5 C 48.5,48.5 49.5,48.5 50.5,48.5C 51.1834,50.1765 52.5168,50.8432 54.5,50.5C 53.8166,52.1765 52.4832,52.8432 50.5,52.5C 50.5,53.5 50.5,54.5 50.5,55.5C 50.5,56.8333 49.8333,57.5 48.5,57.5C 47.2209,56.032 45.5542,55.3653 43.5,55.5C 42.9094,54.8485 42.2427,54.1818 41.5,53.5C 43.396,52.5344 45.396,52.2011 47.5,52.5C 47.5,51.1667 47.5,49.8333 47.5,48.5 Z"/></g>
<g><path style="opacity:1" fill="#c7c7c7" d="M 56.5,48.5 C 58.9931,48.9762 60.9931,50.3096 62.5,52.5C 63.2652,51.3881 64.2652,50.7214 65.5,50.5C 66.1667,50.5 66.8333,50.5 67.5,50.5C 69.1667,51.8333 70.8333,53.1667 72.5,54.5C 73.3909,55.2613 74.0576,56.2613 74.5,57.5C 74.2528,58.7133 73.5862,59.38 72.5,59.5C 71.8333,56.8333 71.1667,56.8333 70.5,59.5C 68.8235,58.8166 68.1568,57.4832 68.5,55.5C 67.5,55.5 66.5,55.5 65.5,55.5C 65.2479,58.2438 65.9145,60.7438 67.5,63C 67.1639,64.0299 66.4972,64.5299 65.5,64.5C 65.1583,63.6618 64.4916,63.3284 63.5,63.5C 63.5,60.5 63.5,57.5 63.5,54.5C 60.9339,54.6556 58.4339,54.3223 56,53.5C 54.9701,53.8361 54.4701,54.5028 54.5,55.5C 54.6309,56.3764 54.2975,57.0431 53.5,57.5C 52.7348,56.3881 51.7348,55.7214 50.5,55.5C 50.5,54.5 50.5,53.5 50.5,52.5C 52.4832,52.8432 53.8166,52.1765 54.5,50.5C 55.8333,50.5 56.5,49.8333 56.5,48.5 Z"/></g>
<g><path style="opacity:1" fill="#e1e1e1" d="M 63.5,63.5 C 62.8333,63.5 62.1667,63.5 61.5,63.5C 59.0122,61.6122 56.0122,60.9455 52.5,61.5C 51.6236,61.6309 50.9569,61.2975 50.5,60.5C 52.396,59.5344 54.396,59.2011 56.5,59.5C 56.8432,57.5168 56.1765,56.1834 54.5,55.5C 54.4701,54.5028 54.9701,53.8361 56,53.5C 58.4339,54.3223 60.9339,54.6556 63.5,54.5C 63.5,57.5 63.5,60.5 63.5,63.5 Z"/></g>
<g><path style="opacity:1" fill="#494949" d="M 72.5,59.5 C 71.8333,59.5 71.1667,59.5 70.5,59.5C 71.1667,56.8333 71.8333,56.8333 72.5,59.5 Z"/></g>
<g><path style="opacity:1" fill="#d8d8d8" d="M 74.5,52.5 C 75.8333,52.5 77.1667,52.5 78.5,52.5C 79.8021,54.0276 81.4687,55.0276 83.5,55.5C 78.3055,55.9417 78.3055,56.9417 83.5,58.5C 80.7476,60.3361 77.7476,61.3361 74.5,61.5C 74.8308,63.3224 75.4975,64.9891 76.5,66.5C 75.1667,66.5 73.8333,66.5 72.5,66.5C 72.5198,64.857 71.8532,63.5237 70.5,62.5C 71.6119,61.7348 72.2786,60.7348 72.5,59.5C 73.5862,59.38 74.2528,58.7133 74.5,57.5C 74.0576,56.2613 73.3909,55.2613 72.5,54.5C 73.8333,54.5 74.5,53.8333 74.5,52.5 Z"/></g>
<g><path style="opacity:1" fill="#dbdbdb" d="M 38.5,55.5 C 39.1224,57.1216 40.1224,58.4549 41.5,59.5C 43.2789,61.3435 45.6122,62.0102 48.5,61.5C 48.5,60.1667 48.5,58.8333 48.5,57.5C 49.8333,57.5 50.5,56.8333 50.5,55.5C 51.7348,55.7214 52.7348,56.3881 53.5,57.5C 54.2975,57.0431 54.6309,56.3764 54.5,55.5C 56.1765,56.1834 56.8432,57.5168 56.5,59.5C 54.396,59.2011 52.396,59.5344 50.5,60.5C 50.9569,61.2975 51.6236,61.6309 52.5,61.5C 52.5,62.1667 52.5,62.8333 52.5,63.5C 50.8333,63.5 49.1667,63.5 47.5,63.5C 46.0772,65.5449 44.0772,66.5449 41.5,66.5C 40.7611,66.631 40.0944,66.4643 39.5,66C 39.0853,63.9737 38.0853,62.4737 36.5,61.5C 34.5,61.5 32.5,61.5 30.5,61.5C 29.7777,62.5511 28.7777,63.2178 27.5,63.5C 28.0256,61.7697 29.0256,60.4363 30.5,59.5C 32.5,59.5 34.5,59.5 36.5,59.5C 36.1568,57.5168 36.8235,56.1834 38.5,55.5 Z"/></g>
<g><path style="opacity:1" fill="#c2c2c2" d="M 43.5,55.5 C 45.5542,55.3653 47.2209,56.032 48.5,57.5C 48.5,58.8333 48.5,60.1667 48.5,61.5C 45.6122,62.0102 43.2789,61.3435 41.5,59.5C 41.1568,57.5168 41.8235,56.1834 43.5,55.5 Z"/></g>
<g><path style="opacity:1" fill="#e5e5e5" d="M 70.5,59.5 C 71.1667,59.5 71.8333,59.5 72.5,59.5C 72.2786,60.7348 71.6119,61.7348 70.5,62.5C 71.8532,63.5237 72.5198,64.857 72.5,66.5C 73.8333,66.5 75.1667,66.5 76.5,66.5C 75.8333,67.8333 75.1667,69.1667 74.5,70.5C 70.715,70.6311 67.0483,71.2978 63.5,72.5C 62.9644,69.3019 63.631,66.6353 65.5,64.5C 66.4972,64.5299 67.1639,64.0299 67.5,63C 65.9145,60.7438 65.2479,58.2438 65.5,55.5C 66.5,55.5 67.5,55.5 68.5,55.5C 68.1568,57.4832 68.8235,58.8166 70.5,59.5 Z"/></g>
<g><path style="opacity:0.966" fill="#c7c7c7" d="M 83.5,55.5 C 84.8333,56.8333 86.1667,58.1667 87.5,59.5C 87.5,61.8333 87.5,64.1667 87.5,66.5C 86.1411,65.9935 85.1411,64.9935 84.5,63.5C 83.5832,64.1272 82.5832,64.4606 81.5,64.5C 79.6776,64.8308 78.0109,65.4975 76.5,66.5C 75.4975,64.9891 74.8308,63.3224 74.5,61.5C 77.7476,61.3361 80.7476,60.3361 83.5,58.5C 78.3055,56.9417 78.3055,55.9417 83.5,55.5 Z"/></g>
<g><path style="opacity:1" fill="#e8e8e8" d="M 30.5,61.5 C 32.5,61.5 34.5,61.5 36.5,61.5C 36.5,64.5 36.5,67.5 36.5,70.5C 38.6636,70.7215 40.3303,71.7215 41.5,73.5C 40.7888,75.0301 39.7888,76.3634 38.5,77.5C 37.1667,77.5 35.8333,77.5 34.5,77.5C 34.7852,75.712 34.4519,74.0453 33.5,72.5C 32.7348,73.6119 31.7348,74.2786 30.5,74.5C 30.5,73.8333 30.5,73.1667 30.5,72.5C 31.1834,70.8235 32.5168,70.1568 34.5,70.5C 34.5,69.1667 34.5,67.8333 34.5,66.5C 32.396,66.7989 30.396,66.4656 28.5,65.5C 29.8532,64.4763 30.5198,63.143 30.5,61.5 Z"/></g>
<g><path style="opacity:1" fill="#c9c9c9" d="M 52.5,61.5 C 56.0122,60.9455 59.0122,61.6122 61.5,63.5C 61.5,64.5 61.5,65.5 61.5,66.5C 60.5,66.5 59.5,66.5 58.5,66.5C 55.0901,66.5429 51.7568,66.0429 48.5,65C 50.0581,64.79 51.3915,64.29 52.5,63.5C 52.5,62.8333 52.5,62.1667 52.5,61.5 Z"/></g>
<g><path style="opacity:1" fill="#e3e3e3" d="M 87.5,66.5 C 87.5,67.8333 87.5,69.1667 87.5,70.5C 86.8333,70.5 86.1667,70.5 85.5,70.5C 83.396,70.7989 81.396,70.4656 79.5,69.5C 80.4565,67.9246 81.1231,66.258 81.5,64.5C 82.5832,64.4606 83.5832,64.1272 84.5,63.5C 85.1411,64.9935 86.1411,65.9935 87.5,66.5 Z"/></g>
<g><path style="opacity:1" fill="#e0e0e0" d="M 30.5,61.5 C 30.5198,63.143 29.8532,64.4763 28.5,65.5C 30.396,66.4656 32.396,66.7989 34.5,66.5C 34.5,67.8333 34.5,69.1667 34.5,70.5C 32.5168,70.1568 31.1834,70.8235 30.5,72.5C 29.1779,72.67 28.0113,72.3366 27,71.5C 26.4169,73.0016 25.5836,74.3349 24.5,75.5C 23.2638,74.7542 21.9305,74.4208 20.5,74.5C 22.5836,70.6641 24.917,66.9974 27.5,63.5C 28.7777,63.2178 29.7777,62.5511 30.5,61.5 Z"/></g>
<g><path style="opacity:0.953" fill="#dbdbdb" d="M 47.5,63.5 C 49.1667,63.5 50.8333,63.5 52.5,63.5C 51.3915,64.29 50.0581,64.79 48.5,65C 51.7568,66.0429 55.0901,66.5429 58.5,66.5C 58.5,68.5 58.5,70.5 58.5,72.5C 54.6346,72.3241 50.9679,71.3241 47.5,69.5C 51.3354,68.0035 51.3354,67.0035 47.5,66.5C 47.5,65.5 47.5,64.5 47.5,63.5 Z"/></g>
<g><path style="opacity:1" fill="#d0d0d0" d="M 81.5,64.5 C 81.1231,66.258 80.4565,67.9246 79.5,69.5C 81.396,70.4656 83.396,70.7989 85.5,70.5C 84.4855,71.7647 82.9855,72.4313 81,72.5C 78.6591,72.1705 76.4924,71.5038 74.5,70.5C 75.1667,69.1667 75.8333,67.8333 76.5,66.5C 78.0109,65.4975 79.6776,64.8308 81.5,64.5 Z"/></g>
<g><path style="opacity:1" fill="#e7e7e7" d="M 47.5,63.5 C 47.5,64.5 47.5,65.5 47.5,66.5C 51.3354,67.0035 51.3354,68.0035 47.5,69.5C 50.9679,71.3241 54.6346,72.3241 58.5,72.5C 58.8333,72.5 59.1667,72.5 59.5,72.5C 60.5981,73.397 60.5981,74.2303 59.5,75C 57.5273,75.4955 55.5273,75.6621 53.5,75.5C 53.631,74.7611 53.4643,74.0944 53,73.5C 52.074,75.6917 50.9073,77.6917 49.5,79.5C 48.0222,79.762 46.6888,79.4287 45.5,78.5C 46.7277,76.679 48.3944,75.679 50.5,75.5C 50.5,74.5 50.5,73.5 50.5,72.5C 47.4359,72.0725 44.4359,71.4058 41.5,70.5C 41.5,69.1667 41.5,67.8333 41.5,66.5C 44.0772,66.5449 46.0772,65.5449 47.5,63.5 Z"/></g>
<g><path style="opacity:1" fill="#d2d2d2" d="M 36.5,61.5 C 38.0853,62.4737 39.0853,63.9737 39.5,66C 40.0944,66.4643 40.7611,66.631 41.5,66.5C 41.5,67.8333 41.5,69.1667 41.5,70.5C 44.4359,71.4058 47.4359,72.0725 50.5,72.5C 50.5,73.5 50.5,74.5 50.5,75.5C 48.3944,75.679 46.7277,76.679 45.5,78.5C 46.6888,79.4287 48.0222,79.762 49.5,79.5C 49.0679,80.7095 48.4013,81.7095 47.5,82.5C 46.4324,81.5655 45.099,81.2322 43.5,81.5C 44.0356,78.3019 43.369,75.6353 41.5,73.5C 40.3303,71.7215 38.6636,70.7215 36.5,70.5C 36.5,67.5 36.5,64.5 36.5,61.5 Z"/></g>
<g><path style="opacity:1" fill="#cfcfcf" d="M 61.5,63.5 C 62.1667,63.5 62.8333,63.5 63.5,63.5C 64.4916,63.3284 65.1583,63.6618 65.5,64.5C 63.631,66.6353 62.9644,69.3019 63.5,72.5C 67.0483,71.2978 70.715,70.6311 74.5,70.5C 74.2623,73.0685 72.929,74.7352 70.5,75.5C 70.2648,74.9033 69.7648,74.5699 69,74.5C 66.7691,76.1997 64.2691,77.1997 61.5,77.5C 61.9227,75.2188 61.256,73.5521 59.5,72.5C 59.1667,72.5 58.8333,72.5 58.5,72.5C 58.5,70.5 58.5,68.5 58.5,66.5C 59.5,66.5 60.5,66.5 61.5,66.5C 61.5,65.5 61.5,64.5 61.5,63.5 Z"/></g>
<g><path style="opacity:1" fill="#d2d2d2" d="M 30.5,72.5 C 30.5,73.1667 30.5,73.8333 30.5,74.5C 29.5233,76.8209 28.5233,79.1542 27.5,81.5C 24.0649,81.6883 21.0649,80.6883 18.5,78.5C 18.7329,76.9382 19.3995,75.6049 20.5,74.5C 21.9305,74.4208 23.2638,74.7542 24.5,75.5C 25.5836,74.3349 26.4169,73.0016 27,71.5C 28.0113,72.3366 29.1779,72.67 30.5,72.5 Z"/></g>
<g><path style="opacity:1" fill="#dcdcdc" d="M 74.5,70.5 C 76.4924,71.5038 78.6591,72.1705 81,72.5C 82.9855,72.4313 84.4855,71.7647 85.5,70.5C 86.1667,70.5 86.8333,70.5 87.5,70.5C 87.5,71.1667 87.5,71.8333 87.5,72.5C 86.8333,72.8333 86.1667,73.1667 85.5,73.5C 83.396,73.2011 81.396,73.5344 79.5,74.5C 77.3157,76.0922 74.9824,77.4255 72.5,78.5C 74.396,79.4656 76.396,79.7989 78.5,79.5C 79.5,79.5 80.5,79.5 81.5,79.5C 81.666,83.3734 80.666,84.0401 78.5,81.5C 76.5,81.5 74.5,81.5 72.5,81.5C 72.5,82.5 72.5,83.5 72.5,84.5C 70.9519,84.1788 70.2852,83.1788 70.5,81.5C 70.5,79.5 70.5,77.5 70.5,75.5C 72.929,74.7352 74.2623,73.0685 74.5,70.5 Z"/></g>
<g><path style="opacity:1" fill="#efefef" d="M 70.5,75.5 C 70.5,77.5 70.5,79.5 70.5,81.5C 66.715,81.3689 63.0483,80.7022 59.5,79.5C 59.5,78.1667 60.1667,77.5 61.5,77.5C 64.2691,77.1997 66.7691,76.1997 69,74.5C 69.7648,74.5699 70.2648,74.9033 70.5,75.5 Z"/></g>
<g><path style="opacity:1" fill="#d3d3d3" d="M 38.5,77.5 C 40.2428,80.5998 39.2428,82.4332 35.5,83C 39.0863,84.1076 42.753,84.6076 46.5,84.5C 45.9744,86.2303 44.9744,87.5637 43.5,88.5C 37.0054,86.9969 30.3388,85.9969 23.5,85.5C 24.6888,84.5713 26.0222,84.238 27.5,84.5C 27.5,83.5 27.5,82.5 27.5,81.5C 28.5233,79.1542 29.5233,76.8209 30.5,74.5C 31.7348,74.2786 32.7348,73.6119 33.5,72.5C 34.4519,74.0453 34.7852,75.712 34.5,77.5C 35.8333,77.5 37.1667,77.5 38.5,77.5 Z"/></g>
<g><path style="opacity:1" fill="#e1e1e1" d="M 41.5,73.5 C 43.369,75.6353 44.0356,78.3019 43.5,81.5C 45.099,81.2322 46.4324,81.5655 47.5,82.5C 47.1667,83.1667 46.8333,83.8333 46.5,84.5C 42.753,84.6076 39.0863,84.1076 35.5,83C 39.2428,82.4332 40.2428,80.5998 38.5,77.5C 39.7888,76.3634 40.7888,75.0301 41.5,73.5 Z"/></g>
<g><path style="opacity:1" fill="#eaeaea" d="M 85.5,73.5 C 84.1938,74.4674 83.5271,75.8007 83.5,77.5C 81.2188,77.0773 79.5521,77.744 78.5,79.5C 76.396,79.7989 74.396,79.4656 72.5,78.5C 74.9824,77.4255 77.3157,76.0922 79.5,74.5C 81.396,73.5344 83.396,73.2011 85.5,73.5 Z"/></g>
<g><path style="opacity:1" fill="#e4e4e4" d="M 87.5,72.5 C 87.5,79.1667 87.5,85.8333 87.5,92.5C 86.1667,92.5 84.8333,92.5 83.5,92.5C 83.5,91.1667 83.5,89.8333 83.5,88.5C 82.5,88.5 81.5,88.5 80.5,88.5C 81.2341,87.2921 81.5674,85.9587 81.5,84.5C 80.5,84.5 79.5,84.5 78.5,84.5C 78.5,83.5 78.5,82.5 78.5,81.5C 80.666,84.0401 81.666,83.3734 81.5,79.5C 80.5,79.5 79.5,79.5 78.5,79.5C 79.5521,77.744 81.2188,77.0773 83.5,77.5C 83.5271,75.8007 84.1938,74.4674 85.5,73.5C 86.1667,73.1667 86.8333,72.8333 87.5,72.5 Z"/></g>
<g><path style="opacity:0.986" fill="#cccccc" d="M 16.5,81.5 C 18.4577,83.8138 20.1243,86.4805 21.5,89.5C 20.8333,89.8333 20.1667,90.1667 19.5,90.5C 17.9436,89.4529 16.2769,88.7863 14.5,88.5C 14.5,87.1667 14.5,85.8333 14.5,84.5C 14.9321,83.2905 15.5987,82.2905 16.5,81.5 Z"/></g>
<g><path style="opacity:1" fill="#c3c3c3" d="M 59.5,79.5 C 63.0483,80.7022 66.715,81.3689 70.5,81.5C 70.2852,83.1788 70.9519,84.1788 72.5,84.5C 72.5,85.8333 72.5,87.1667 72.5,88.5C 70.1667,87.1667 67.8333,85.8333 65.5,84.5C 65.5,85.8333 65.5,87.1667 65.5,88.5C 64.1667,88.5 62.8333,88.5 61.5,88.5C 61.7692,86.5714 61.2692,84.9047 60,83.5C 58.4941,85.1742 56.6607,86.1742 54.5,86.5C 54.0317,82.9661 55.0317,79.9661 57.5,77.5C 58.1818,78.2427 58.8485,78.9094 59.5,79.5 Z"/></g>
<g><path style="opacity:1" fill="#dbdbdb" d="M 59.5,72.5 C 61.256,73.5521 61.9227,75.2188 61.5,77.5C 60.1667,77.5 59.5,78.1667 59.5,79.5C 58.8485,78.9094 58.1818,78.2427 57.5,77.5C 55.0317,79.9661 54.0317,82.9661 54.5,86.5C 56.6607,86.1742 58.4941,85.1742 60,83.5C 61.2692,84.9047 61.7692,86.5714 61.5,88.5C 52.5426,88.7349 52.5426,90.0683 61.5,92.5C 61.5,93.5 61.5,94.5 61.5,95.5C 58.8333,95.5 56.1667,95.5 53.5,95.5C 53.5,88.8333 53.5,82.1667 53.5,75.5C 55.5273,75.6621 57.5273,75.4955 59.5,75C 60.5981,74.2303 60.5981,73.397 59.5,72.5 Z"/></g>
<g><path style="opacity:1" fill="#e0e0e0" d="M 18.5,78.5 C 21.0649,80.6883 24.0649,81.6883 27.5,81.5C 27.5,82.5 27.5,83.5 27.5,84.5C 26.0222,84.238 24.6888,84.5713 23.5,85.5C 30.3388,85.9969 37.0054,86.9969 43.5,88.5C 43.2503,90.674 42.2503,92.3406 40.5,93.5C 39.2947,92.3281 39.2947,90.9948 40.5,89.5C 37.9135,88.52 35.2469,88.1866 32.5,88.5C 32.8432,90.4832 32.1765,91.8166 30.5,92.5C 28.8333,92.5 27.1667,92.5 25.5,92.5C 25.762,91.0222 25.4287,89.6888 24.5,88.5C 23.9432,90.3316 22.9432,91.6649 21.5,92.5C 18.0771,92.876 15.7438,91.5426 14.5,88.5C 16.2769,88.7863 17.9436,89.4529 19.5,90.5C 20.1667,90.1667 20.8333,89.8333 21.5,89.5C 20.1243,86.4805 18.4577,83.8138 16.5,81.5C 16.427,79.9731 17.0937,78.9731 18.5,78.5 Z"/></g>
<g><path style="opacity:1" fill="#e6e6e6" d="M 78.5,81.5 C 78.5,82.5 78.5,83.5 78.5,84.5C 79.5,84.5 80.5,84.5 81.5,84.5C 81.5674,85.9587 81.2341,87.2921 80.5,88.5C 78.7179,89.7196 76.7179,90.3862 74.5,90.5C 74.5,91.8333 74.5,93.1667 74.5,94.5C 72.8235,93.8166 72.1568,92.4832 72.5,90.5C 72.5,89.8333 72.5,89.1667 72.5,88.5C 72.5,87.1667 72.5,85.8333 72.5,84.5C 72.5,83.5 72.5,82.5 72.5,81.5C 74.5,81.5 76.5,81.5 78.5,81.5 Z"/></g>
<g><path style="opacity:1" fill="#d4d4d4" d="M 80.5,88.5 C 81.5,88.5 82.5,88.5 83.5,88.5C 83.5,89.8333 83.5,91.1667 83.5,92.5C 81.1667,92.5 78.8333,92.5 76.5,92.5C 76.5,93.5 76.5,94.5 76.5,95.5C 76.8432,97.4832 76.1765,98.8166 74.5,99.5C 74.5,97.8333 74.5,96.1667 74.5,94.5C 74.5,93.1667 74.5,91.8333 74.5,90.5C 76.7179,90.3862 78.7179,89.7196 80.5,88.5 Z"/></g>
<g><path style="opacity:1" fill="#cacaca" d="M 30.5,92.5 C 30.5,93.5 30.5,94.5 30.5,95.5C 30.5299,96.4972 30.0299,97.1639 29,97.5C 27.4029,96.1153 25.5695,95.4486 23.5,95.5C 23.2178,94.2223 22.5511,93.2223 21.5,92.5C 22.9432,91.6649 23.9432,90.3316 24.5,88.5C 25.4287,89.6888 25.762,91.0222 25.5,92.5C 27.1667,92.5 28.8333,92.5 30.5,92.5 Z"/></g>
<g><path style="opacity:1" fill="#dbdbdb" d="M 10.5,90.5 C 14.2411,91.7224 14.9078,93.7224 12.5,96.5C 10.604,97.4656 8.60395,97.7989 6.5,97.5C 7.56855,95.0313 8.90189,92.6979 10.5,90.5 Z"/></g>
<g><path style="opacity:1" fill="#c3c3c3" d="M 14.5,84.5 C 14.5,85.8333 14.5,87.1667 14.5,88.5C 15.7438,91.5426 18.0771,92.876 21.5,92.5C 22.5511,93.2223 23.2178,94.2223 23.5,95.5C 23.5,96.1667 23.5,96.8333 23.5,97.5C 21.8333,97.5 20.1667,97.5 18.5,97.5C 15.2655,98.576 11.9322,99.2427 8.5,99.5C 7.20895,99.7373 6.20895,99.404 5.5,98.5C 5.5,97.8333 5.83333,97.5 6.5,97.5C 8.60395,97.7989 10.604,97.4656 12.5,96.5C 14.9078,93.7224 14.2411,91.7224 10.5,90.5C 11.4746,88.2048 12.8079,86.2048 14.5,84.5 Z"/></g>
<g><path style="opacity:1" fill="#d1d1d1" d="M 72.5,88.5 C 72.5,89.1667 72.5,89.8333 72.5,90.5C 71.0222,90.238 69.6888,90.5713 68.5,91.5C 69.8532,92.5237 70.5198,93.857 70.5,95.5C 68.2627,94.551 65.9294,93.8844 63.5,93.5C 62.8333,95.5 62.1667,97.5 61.5,99.5C 59.857,99.5198 58.5237,98.8532 57.5,97.5C 56.8333,98.8333 56.1667,100.167 55.5,101.5C 54.8182,100.757 54.1515,100.091 53.5,99.5C 53.5,98.1667 53.5,96.8333 53.5,95.5C 56.1667,95.5 58.8333,95.5 61.5,95.5C 61.5,94.5 61.5,93.5 61.5,92.5C 52.5426,90.0683 52.5426,88.7349 61.5,88.5C 62.8333,88.5 64.1667,88.5 65.5,88.5C 65.5,87.1667 65.5,85.8333 65.5,84.5C 67.8333,85.8333 70.1667,87.1667 72.5,88.5 Z"/></g>
<g><path style="opacity:1" fill="#e7e7e7" d="M 72.5,90.5 C 72.1568,92.4832 72.8235,93.8166 74.5,94.5C 74.5,96.1667 74.5,97.8333 74.5,99.5C 70.1667,96.8333 65.8333,96.8333 61.5,99.5C 62.1667,97.5 62.8333,95.5 63.5,93.5C 65.9294,93.8844 68.2627,94.551 70.5,95.5C 70.5198,93.857 69.8532,92.5237 68.5,91.5C 69.6888,90.5713 71.0222,90.238 72.5,90.5 Z"/></g>
<g><path style="opacity:1" fill="#d5d5d5" d="M 40.5,93.5 C 40.6716,94.4916 40.3382,95.1583 39.5,95.5C 38.8485,94.9094 38.1818,94.2427 37.5,93.5C 35.4775,95.1733 33.1441,95.8399 30.5,95.5C 30.5,94.5 30.5,93.5 30.5,92.5C 32.1765,91.8166 32.8432,90.4832 32.5,88.5C 35.2469,88.1866 37.9135,88.52 40.5,89.5C 39.2947,90.9948 39.2947,92.3281 40.5,93.5 Z"/></g>
<g><path style="opacity:0.969" fill="#d0d0d0" d="M 83.5,92.5 C 84.8333,92.5 86.1667,92.5 87.5,92.5C 87.5,94.1667 87.5,95.8333 87.5,97.5C 85.5,97.5 83.5,97.5 81.5,97.5C 80.4479,95.744 78.7812,95.0773 76.5,95.5C 76.5,94.5 76.5,93.5 76.5,92.5C 78.8333,92.5 81.1667,92.5 83.5,92.5 Z"/></g>
<g><path style="opacity:1" fill="#e0e0e0" d="M 76.5,95.5 C 78.7812,95.0773 80.4479,95.744 81.5,97.5C 81.2786,98.7348 80.6119,99.7348 79.5,100.5C 80.1667,101.167 80.8333,101.833 81.5,102.5C 80.1468,103.524 79.4802,104.857 79.5,106.5C 77.9484,104.658 76.2818,102.991 74.5,101.5C 74.5,100.833 74.5,100.167 74.5,99.5C 76.1765,98.8166 76.8432,97.4832 76.5,95.5 Z"/></g>
<g><path style="opacity:1" fill="#e1e1e1" d="M 18.5,97.5 C 18.2786,98.7348 17.6119,99.7348 16.5,100.5C 18.6191,102.303 20.9524,103.636 23.5,104.5C 23.5,105.167 23.5,105.833 23.5,106.5C 23.5,107.833 23.5,109.167 23.5,110.5C 22.1667,109.833 20.8333,109.167 19.5,108.5C 19.4606,107.417 19.1272,106.417 18.5,105.5C 16.8333,105.167 15.1667,104.833 13.5,104.5C 11.3603,104.556 9.69363,105.223 8.5,106.5C 6.72145,105.33 5.72145,103.664 5.5,101.5C 7.17876,101.715 8.17876,101.048 8.5,99.5C 11.9322,99.2427 15.2655,98.576 18.5,97.5 Z"/></g>
<g><path style="opacity:1" fill="#cacaca" d="M 74.5,99.5 C 74.5,100.167 74.5,100.833 74.5,101.5C 71.5,101.5 68.5,101.5 65.5,101.5C 65.5,102.5 65.5,103.5 65.5,104.5C 64.8333,104.5 64.1667,104.5 63.5,104.5C 62.032,103.221 61.3653,101.554 61.5,99.5C 65.8333,96.8333 70.1667,96.8333 74.5,99.5 Z"/></g>
<g><path style="opacity:1" fill="#cccccc" d="M 18.5,97.5 C 20.1667,97.5 21.8333,97.5 23.5,97.5C 23.5,98.8333 24.1667,99.5 25.5,99.5C 24.4975,101.011 23.8308,102.678 23.5,104.5C 20.9524,103.636 18.6191,102.303 16.5,100.5C 17.6119,99.7348 18.2786,98.7348 18.5,97.5 Z"/></g>
<g><path style="opacity:1" fill="#e9e9e9" d="M 39.5,95.5 C 39.1667,96.1667 38.8333,96.8333 38.5,97.5C 35.8333,98.8333 33.1667,100.167 30.5,101.5C 28.6776,101.169 27.0109,100.502 25.5,99.5C 24.1667,99.5 23.5,98.8333 23.5,97.5C 23.5,96.8333 23.5,96.1667 23.5,95.5C 25.5695,95.4486 27.4029,96.1153 29,97.5C 30.0299,97.1639 30.5299,96.4972 30.5,95.5C 33.1441,95.8399 35.4775,95.1733 37.5,93.5C 38.1818,94.2427 38.8485,94.9094 39.5,95.5 Z"/></g>
<g><path style="opacity:0.965" fill="#d6d6d6" d="M 38.5,97.5 C 38.3893,98.1174 38.056,98.6174 37.5,99C 40.8168,99.4983 44.1501,99.665 47.5,99.5C 47.7852,101.288 47.4519,102.955 46.5,104.5C 45.7025,104.043 45.3691,103.376 45.5,102.5C 43.0521,101.527 40.3854,101.194 37.5,101.5C 37.5,102.5 37.5,103.5 37.5,104.5C 41.2998,104.819 41.4665,105.819 38,107.5C 37.6174,106.944 37.1174,106.611 36.5,106.5C 35.1667,106.5 33.8333,106.5 32.5,106.5C 32.6309,105.624 32.2975,104.957 31.5,104.5C 30.7348,105.612 29.7348,106.279 28.5,106.5C 29.4408,104.95 30.1075,103.284 30.5,101.5C 33.1667,100.167 35.8333,98.8333 38.5,97.5 Z"/></g>
<g><path style="opacity:0.992" fill="#ededed" d="M 48.5,99.5 C 49.8333,99.5 51.1667,99.5 52.5,99.5C 52.4679,102.076 53.1346,104.409 54.5,106.5C 52.8235,107.183 52.1568,108.517 52.5,110.5C 52.6309,111.376 52.2975,112.043 51.5,112.5C 50.9432,110.668 49.9432,109.335 48.5,108.5C 48.5,105.5 48.5,102.5 48.5,99.5 Z"/></g>
<g><path style="opacity:1" fill="#d1d1d1" d="M 90.5,99.5 C 91.8333,99.5 93.1667,99.5 94.5,99.5C 94.5,100.833 94.5,102.167 94.5,103.5C 95.9778,103.238 97.3112,103.571 98.5,104.5C 96.9137,106.173 96.2471,108.173 96.5,110.5C 95.8333,110.5 95.1667,110.5 94.5,110.5C 94.5,109.167 94.5,107.833 94.5,106.5C 92.5,106.5 90.5,106.5 88.5,106.5C 89.1834,104.824 90.5168,104.157 92.5,104.5C 92.1692,102.678 91.5025,101.011 90.5,99.5 Z"/></g>
<g><path style="opacity:0.772" fill="#e4e4e4" d="M 94.5,99.5 C 97.1667,99.5 99.8333,99.5 102.5,99.5C 102.5,103.833 102.5,108.167 102.5,112.5C 99.9899,112.946 97.9899,112.28 96.5,110.5C 96.2471,108.173 96.9137,106.173 98.5,104.5C 97.3112,103.571 95.9778,103.238 94.5,103.5C 94.5,102.167 94.5,100.833 94.5,99.5 Z"/></g>
<g><path style="opacity:1" fill="#e3e3e3" d="M 25.5,99.5 C 27.0109,100.502 28.6776,101.169 30.5,101.5C 30.1075,103.284 29.4408,104.95 28.5,106.5C 26.8333,106.5 25.1667,106.5 23.5,106.5C 23.5,105.833 23.5,105.167 23.5,104.5C 23.8308,102.678 24.4975,101.011 25.5,99.5 Z"/></g>
<g><path style="opacity:1" fill="#dbdbdb" d="M 87.5,99.5 C 88.5,99.5 89.5,99.5 90.5,99.5C 91.5025,101.011 92.1692,102.678 92.5,104.5C 90.5168,104.157 89.1834,104.824 88.5,106.5C 87.2379,103.929 85.9045,103.929 84.5,106.5C 83.5258,104.257 83.1924,101.924 83.5,99.5C 84.8333,99.5 86.1667,99.5 87.5,99.5 Z"/></g>
<g><path style="opacity:1" fill="#d1d1d1" d="M 19.5,108.5 C 17.857,108.52 16.5237,107.853 15.5,106.5C 14.5713,107.689 14.238,109.022 14.5,110.5C 12.5178,109.193 10.5178,107.859 8.5,106.5C 9.69363,105.223 11.3603,104.556 13.5,104.5C 15.1667,104.833 16.8333,105.167 18.5,105.5C 19.1272,106.417 19.4606,107.417 19.5,108.5 Z"/></g>
<g><path style="opacity:1" fill="#f0f0f0" d="M 61.5,99.5 C 61.3653,101.554 62.032,103.221 63.5,104.5C 64.8333,106.5 66.1667,108.5 67.5,110.5C 67.5,111.833 66.8333,112.5 65.5,112.5C 62.9202,111.385 61.2535,109.385 60.5,106.5C 59.7836,107.311 58.9503,107.978 58,108.5C 56.9231,107.571 55.7564,106.904 54.5,106.5C 53.1346,104.409 52.4679,102.076 52.5,99.5C 52.8333,99.5 53.1667,99.5 53.5,99.5C 54.1515,100.091 54.8182,100.757 55.5,101.5C 56.1667,100.167 56.8333,98.8333 57.5,97.5C 58.5237,98.8532 59.857,99.5198 61.5,99.5 Z"/></g>
<g><path style="opacity:1" fill="#e8e8e8" d="M 74.5,101.5 C 74.5,103.833 74.5,106.167 74.5,108.5C 71.5,107.167 68.5,105.833 65.5,104.5C 65.5,103.5 65.5,102.5 65.5,101.5C 68.5,101.5 71.5,101.5 74.5,101.5 Z"/></g>
<g><path style="opacity:1" fill="#cbcbcb" d="M 74.5,101.5 C 76.2818,102.991 77.9484,104.658 79.5,106.5C 79.5,107.833 79.5,109.167 79.5,110.5C 78.5,110.5 77.5,110.5 76.5,110.5C 76.5,111.5 76.5,112.5 76.5,113.5C 74.5082,113.328 72.8415,113.995 71.5,115.5C 70.0476,114.06 69.0476,112.394 68.5,110.5C 70.4918,110.328 72.1585,110.995 73.5,112.5C 74.4287,111.311 74.762,109.978 74.5,108.5C 74.5,106.167 74.5,103.833 74.5,101.5 Z"/></g>
<g><path style="opacity:1" fill="#ececec" d="M 81.5,97.5 C 83.5,97.5 85.5,97.5 87.5,97.5C 87.5,98.1667 87.5,98.8333 87.5,99.5C 86.1667,99.5 84.8333,99.5 83.5,99.5C 83.1924,101.924 83.5258,104.257 84.5,106.5C 85.9045,103.929 87.2379,103.929 88.5,106.5C 90.5,106.5 92.5,106.5 94.5,106.5C 94.5,107.833 94.5,109.167 94.5,110.5C 90.715,110.369 87.0483,109.702 83.5,108.5C 82.1667,107.833 80.8333,107.167 79.5,106.5C 79.4802,104.857 80.1468,103.524 81.5,102.5C 80.8333,101.833 80.1667,101.167 79.5,100.5C 80.6119,99.7348 81.2786,98.7348 81.5,97.5 Z"/></g>
<g><path style="opacity:1" fill="#c1c1c1" d="M 32.5,106.5 C 31.3218,107.999 29.6551,108.999 27.5,109.5C 28.9935,110.141 29.9935,111.141 30.5,112.5C 27.6122,113.01 25.2789,112.344 23.5,110.5C 23.5,109.167 23.5,107.833 23.5,106.5C 25.1667,106.5 26.8333,106.5 28.5,106.5C 29.7348,106.279 30.7348,105.612 31.5,104.5C 32.2975,104.957 32.6309,105.624 32.5,106.5 Z"/></g>
<g><path style="opacity:1" fill="#e9e9e9" d="M 47.5,99.5 C 47.8333,99.5 48.1667,99.5 48.5,99.5C 48.5,102.5 48.5,105.5 48.5,108.5C 48.7678,110.099 48.4345,111.432 47.5,112.5C 47.8432,110.517 47.1765,109.183 45.5,108.5C 44.8166,106.824 43.4832,106.157 41.5,106.5C 41.4877,103.858 42.821,102.525 45.5,102.5C 45.3691,103.376 45.7025,104.043 46.5,104.5C 47.4519,102.955 47.7852,101.288 47.5,99.5 Z"/></g>
<g><path style="opacity:1" fill="#cdcdcd" d="M 54.5,106.5 C 55.7564,106.904 56.9231,107.571 58,108.5C 58.9503,107.978 59.7836,107.311 60.5,106.5C 61.2535,109.385 62.9202,111.385 65.5,112.5C 66.8654,114.591 67.5321,116.924 67.5,119.5C 65.5,118.167 63.5,116.833 61.5,115.5C 61.5,114.833 61.5,114.167 61.5,113.5C 58.4772,112.776 55.4772,111.776 52.5,110.5C 52.1568,108.517 52.8235,107.183 54.5,106.5 Z"/></g>
<g><path style="opacity:1" fill="#c9c9c9" d="M 63.5,104.5 C 64.1667,104.5 64.8333,104.5 65.5,104.5C 68.5,105.833 71.5,107.167 74.5,108.5C 74.762,109.978 74.4287,111.311 73.5,112.5C 72.1585,110.995 70.4918,110.328 68.5,110.5C 68.1667,110.5 67.8333,110.5 67.5,110.5C 66.1667,108.5 64.8333,106.5 63.5,104.5 Z"/></g>
<g><path style="opacity:1" fill="#e3e3e3" d="M 19.5,108.5 C 20.8333,109.167 22.1667,109.833 23.5,110.5C 25.2789,112.344 27.6122,113.01 30.5,112.5C 30.5,112.833 30.5,113.167 30.5,113.5C 22.163,112.864 19.8296,116.197 23.5,123.5C 22.0222,123.762 20.6888,123.429 19.5,122.5C 19.2155,120.241 18.2155,118.574 16.5,117.5C 16.1156,115.071 15.449,112.737 14.5,110.5C 14.238,109.022 14.5713,107.689 15.5,106.5C 16.5237,107.853 17.857,108.52 19.5,108.5 Z"/></g>
<g><path style="opacity:1" fill="#dcdcdc" d="M 45.5,102.5 C 42.821,102.525 41.4877,103.858 41.5,106.5C 43.4832,106.157 44.8166,106.824 45.5,108.5C 43.6921,109.918 43.0254,111.918 43.5,114.5C 42.1266,114.657 40.7932,114.49 39.5,114C 41.1554,112.556 41.822,110.722 41.5,108.5C 39.8333,108.5 38.1667,108.5 36.5,108.5C 36.5,107.833 36.5,107.167 36.5,106.5C 37.1174,106.611 37.6174,106.944 38,107.5C 41.4665,105.819 41.2998,104.819 37.5,104.5C 37.5,103.5 37.5,102.5 37.5,101.5C 40.3854,101.194 43.0521,101.527 45.5,102.5 Z"/></g>
<g><path style="opacity:1" fill="#eeeeee" d="M 36.5,108.5 C 38.1667,108.5 39.8333,108.5 41.5,108.5C 41.822,110.722 41.1554,112.556 39.5,114C 40.7932,114.49 42.1266,114.657 43.5,114.5C 43.0254,111.918 43.6921,109.918 45.5,108.5C 47.1765,109.183 47.8432,110.517 47.5,112.5C 46.1667,112.5 45.5,113.167 45.5,114.5C 45.5,114.833 45.5,115.167 45.5,115.5C 44.8333,115.5 44.1667,115.5 43.5,115.5C 41.8333,115.5 40.1667,115.5 38.5,115.5C 37.551,113.263 36.8844,110.929 36.5,108.5 Z"/></g>
<g><path style="opacity:1" fill="#ebebeb" d="M 5.5,98.5 C 6.20895,99.404 7.20895,99.7373 8.5,99.5C 8.17876,101.048 7.17876,101.715 5.5,101.5C 5.72145,103.664 6.72145,105.33 8.5,106.5C 10.5178,107.859 12.5178,109.193 14.5,110.5C 15.449,112.737 16.1156,115.071 16.5,117.5C 15.1667,117.5 13.8333,117.5 12.5,117.5C 12.5,117.167 12.5,116.833 12.5,116.5C 12.5,115.167 12.5,113.833 12.5,112.5C 9.51763,112.963 6.51763,113.296 3.5,113.5C 3.33432,109.154 3.50098,104.821 4,100.5C 4.27842,99.5842 4.77842,98.9175 5.5,98.5 Z"/></g>
<g><path style="opacity:1" fill="#ececec" d="M 32.5,106.5 C 33.8333,106.5 35.1667,106.5 36.5,106.5C 36.5,107.167 36.5,107.833 36.5,108.5C 36.8844,110.929 37.551,113.263 38.5,115.5C 40.1667,115.5 41.8333,115.5 43.5,115.5C 43.5,116.833 42.8333,117.5 41.5,117.5C 37.318,117.32 33.318,117.987 29.5,119.5C 28.1667,119.5 27.5,120.167 27.5,121.5C 25.6921,120.082 25.0254,118.082 25.5,115.5C 27.143,115.48 28.4763,116.147 29.5,117.5C 29.4047,116.309 29.738,114.975 30.5,113.5C 30.5,113.167 30.5,112.833 30.5,112.5C 29.9935,111.141 28.9935,110.141 27.5,109.5C 29.6551,108.999 31.3218,107.999 32.5,106.5 Z"/></g>
<g><path style="opacity:1" fill="#cfcfcf" d="M 79.5,106.5 C 80.8333,107.167 82.1667,107.833 83.5,108.5C 83.6825,111.608 85.0158,114.108 87.5,116C 86.2068,116.49 84.8734,116.657 83.5,116.5C 83.719,115.325 83.3857,114.325 82.5,113.5C 81.5713,114.689 81.238,116.022 81.5,117.5C 80.5,117.5 79.5,117.5 78.5,117.5C 78.5,116.833 78.5,116.167 78.5,115.5C 78.4802,113.857 79.1468,112.524 80.5,111.5C 80.3764,110.893 80.0431,110.56 79.5,110.5C 79.5,109.167 79.5,107.833 79.5,106.5 Z"/></g>
<g><path style="opacity:1" fill="#efefef" d="M 30.5,113.5 C 29.738,114.975 29.4047,116.309 29.5,117.5C 28.4763,116.147 27.143,115.48 25.5,115.5C 25.0254,118.082 25.6921,120.082 27.5,121.5C 26.8166,123.176 25.4832,123.843 23.5,123.5C 19.8296,116.197 22.163,112.864 30.5,113.5 Z"/></g>
<g><path style="opacity:1" fill="#e1e1e1" d="M 48.5,108.5 C 49.9432,109.335 50.9432,110.668 51.5,112.5C 52.2975,112.043 52.6309,111.376 52.5,110.5C 55.4772,111.776 58.4772,112.776 61.5,113.5C 59.1667,113.5 56.8333,113.5 54.5,113.5C 54.3285,115.492 54.9951,117.158 56.5,118.5C 55.3881,119.265 54.7214,120.265 54.5,121.5C 52.8333,121.5 51.1667,121.5 49.5,121.5C 50.2653,118.904 50.5987,116.237 50.5,113.5C 48.7839,113.629 47.1172,113.962 45.5,114.5C 45.5,113.167 46.1667,112.5 47.5,112.5C 48.4345,111.432 48.7678,110.099 48.5,108.5 Z"/></g>
<g><path style="opacity:1" fill="#d1d1d1" d="M 49.5,121.5 C 48.8333,122.167 48.1667,122.833 47.5,123.5C 46.8592,122.518 46.1925,121.518 45.5,120.5C 46.1667,119.833 46.8333,119.167 47.5,118.5C 46.3881,117.735 45.7214,116.735 45.5,115.5C 45.5,115.167 45.5,114.833 45.5,114.5C 47.1172,113.962 48.7839,113.629 50.5,113.5C 50.5987,116.237 50.2653,118.904 49.5,121.5 Z"/></g>
<g><path style="opacity:1" fill="#f0f0f0" d="M 61.5,113.5 C 61.5,114.167 61.5,114.833 61.5,115.5C 60.2804,117.282 59.6138,119.282 59.5,121.5C 58.2209,122.968 56.5542,123.635 54.5,123.5C 54.5,122.833 54.5,122.167 54.5,121.5C 54.7214,120.265 55.3881,119.265 56.5,118.5C 54.9951,117.158 54.3285,115.492 54.5,113.5C 56.8333,113.5 59.1667,113.5 61.5,113.5 Z"/></g>
<g><path style="opacity:1" fill="#dbdbdb" d="M 83.5,108.5 C 87.0483,109.702 90.715,110.369 94.5,110.5C 94.5,112.833 94.5,115.167 94.5,117.5C 92.2341,117.859 90.4007,117.192 89,115.5C 87.5993,117.192 85.7659,117.859 83.5,117.5C 83.5,117.167 83.5,116.833 83.5,116.5C 84.8734,116.657 86.2068,116.49 87.5,116C 85.0158,114.108 83.6825,111.608 83.5,108.5 Z"/></g>
<g><path style="opacity:1" fill="#f0f0f0" d="M 94.5,110.5 C 95.1667,110.5 95.8333,110.5 96.5,110.5C 97.9899,112.28 99.9899,112.946 102.5,112.5C 102.5,114.833 102.5,117.167 102.5,119.5C 99.8333,119.5 97.1667,119.5 94.5,119.5C 94.5,118.833 94.5,118.167 94.5,117.5C 94.5,115.167 94.5,112.833 94.5,110.5 Z"/></g>
<g><path style="opacity:1" fill="#c0c0c0" d="M 12.5,116.5 C 12.5,116.833 12.5,117.167 12.5,117.5C 12.1788,119.048 11.1788,119.715 9.5,119.5C 8.81658,117.824 7.48324,117.157 5.5,117.5C 5.5,116.5 5.5,115.5 5.5,114.5C 8.07577,114.468 10.4091,115.135 12.5,116.5 Z"/></g>
<g><path style="opacity:1" fill="#e3e3e3" d="M 67.5,110.5 C 67.8333,110.5 68.1667,110.5 68.5,110.5C 69.0476,112.394 70.0476,114.06 71.5,115.5C 72.8415,113.995 74.5082,113.328 76.5,113.5C 76.5,112.5 76.5,111.5 76.5,110.5C 77.5,110.5 78.5,110.5 79.5,110.5C 80.0431,110.56 80.3764,110.893 80.5,111.5C 79.1468,112.524 78.4802,113.857 78.5,115.5C 74.653,117.255 70.9863,119.255 67.5,121.5C 67.5,120.833 67.5,120.167 67.5,119.5C 67.5321,116.924 66.8654,114.591 65.5,112.5C 66.8333,112.5 67.5,111.833 67.5,110.5 Z"/></g>
<g><path style="opacity:1" fill="#dedede" d="M 12.5,116.5 C 10.4091,115.135 8.07577,114.468 5.5,114.5C 5.5,115.5 5.5,116.5 5.5,117.5C 7.48324,117.157 8.81658,117.824 9.5,119.5C 7.5,120.167 5.5,120.833 3.5,121.5C 3.5,118.833 3.5,116.167 3.5,113.5C 6.51763,113.296 9.51763,112.963 12.5,112.5C 12.5,113.833 12.5,115.167 12.5,116.5 Z"/></g>
<g><path style="opacity:1" fill="#ebebeb" d="M 61.5,115.5 C 63.5,116.833 65.5,118.167 67.5,119.5C 67.5,120.167 67.5,120.833 67.5,121.5C 66.1667,121.5 65.5,122.167 65.5,123.5C 63.7179,122.28 61.7179,121.614 59.5,121.5C 59.6138,119.282 60.2804,117.282 61.5,115.5 Z"/></g>
<g><path style="opacity:1" fill="#e5e5e5" d="M 83.5,116.5 C 83.5,116.833 83.5,117.167 83.5,117.5C 83.2786,118.735 82.6119,119.735 81.5,120.5C 82.6119,121.265 83.2786,122.265 83.5,123.5C 82.1667,123.5 81.5,124.167 81.5,125.5C 79.8333,125.5 78.1667,125.5 76.5,125.5C 76.5,124.167 76.5,122.833 76.5,121.5C 81.1103,121.404 81.4436,120.404 77.5,118.5C 77.6236,117.893 77.9569,117.56 78.5,117.5C 79.5,117.5 80.5,117.5 81.5,117.5C 81.238,116.022 81.5713,114.689 82.5,113.5C 83.3857,114.325 83.719,115.325 83.5,116.5 Z"/></g>
<g><path style="opacity:1" fill="#e8e8e8" d="M 12.5,117.5 C 13.8333,117.5 15.1667,117.5 16.5,117.5C 18.2155,118.574 19.2155,120.241 19.5,122.5C 20.6888,123.429 22.0222,123.762 23.5,123.5C 23.5,124.833 23.5,126.167 23.5,127.5C 22.8333,127.5 22.1667,127.5 21.5,127.5C 21.5299,126.503 21.0299,125.836 20,125.5C 16.8913,123.856 13.7247,122.522 10.5,121.5C 8.26271,122.449 5.92937,123.116 3.5,123.5C 3.5,122.833 3.5,122.167 3.5,121.5C 5.5,120.833 7.5,120.167 9.5,119.5C 11.1788,119.715 12.1788,119.048 12.5,117.5 Z"/></g>
<g><path style="opacity:1" fill="#cccccc" d="M 41.5,117.5 C 41.7214,118.735 42.3881,119.735 43.5,120.5C 40.7051,120.938 38.3717,121.938 36.5,123.5C 35.5178,124.141 34.5178,124.807 33.5,125.5C 32.8003,122.985 31.4669,122.318 29.5,123.5C 28.7084,122.3 28.7084,120.967 29.5,119.5C 33.318,117.987 37.318,117.32 41.5,117.5 Z"/></g>
<g><path style="opacity:1" fill="#dbdbdb" d="M 43.5,115.5 C 44.1667,115.5 44.8333,115.5 45.5,115.5C 45.7214,116.735 46.3881,117.735 47.5,118.5C 46.8333,119.167 46.1667,119.833 45.5,120.5C 46.1925,121.518 46.8592,122.518 47.5,123.5C 46.1667,123.5 44.8333,123.5 43.5,123.5C 43.5,124.833 43.5,126.167 43.5,127.5C 42.5,127.5 41.5,127.5 40.5,127.5C 40.0432,125.227 38.7099,123.894 36.5,123.5C 38.3717,121.938 40.7051,120.938 43.5,120.5C 42.3881,119.735 41.7214,118.735 41.5,117.5C 42.8333,117.5 43.5,116.833 43.5,115.5 Z"/></g>
<g><path style="opacity:1" fill="#dadada" d="M 78.5,115.5 C 78.5,116.167 78.5,116.833 78.5,117.5C 77.9569,117.56 77.6236,117.893 77.5,118.5C 81.4436,120.404 81.1103,121.404 76.5,121.5C 76.5,122.833 76.5,124.167 76.5,125.5C 78.1667,125.5 79.8333,125.5 81.5,125.5C 79.3432,126.407 77.0098,127.073 74.5,127.5C 74.5,126.5 74.5,125.5 74.5,124.5C 72.0706,124.884 69.7373,125.551 67.5,126.5C 70.0401,124.334 69.3734,123.334 65.5,123.5C 65.5,122.167 66.1667,121.5 67.5,121.5C 70.9863,119.255 74.653,117.255 78.5,115.5 Z"/></g>
<g><path style="opacity:1" fill="#e2e2e2" d="M 94.5,119.5 C 97.1667,119.5 99.8333,119.5 102.5,119.5C 102.5,122.167 102.5,124.833 102.5,127.5C 99.8333,127.5 97.1667,127.5 94.5,127.5C 93.1938,126.533 92.5271,125.199 92.5,123.5C 90.712,123.785 89.0453,123.452 87.5,122.5C 89.5117,120.659 91.845,119.659 94.5,119.5 Z"/></g>
<g><path style="opacity:1" fill="#dcdcdc" d="M 10.5,121.5 C 11.1667,123.5 11.8333,125.5 12.5,127.5C 9.5,127.5 6.5,127.5 3.5,127.5C 3.5,126.167 3.5,124.833 3.5,123.5C 5.92937,123.116 8.26271,122.449 10.5,121.5 Z"/></g>
<g><path style="opacity:1" fill="#dbdbdb" d="M 10.5,121.5 C 13.7247,122.522 16.8913,123.856 20,125.5C 21.0299,125.836 21.5299,126.503 21.5,127.5C 18.5,127.5 15.5,127.5 12.5,127.5C 11.8333,125.5 11.1667,123.5 10.5,121.5 Z"/></g>
<g><path style="opacity:1" fill="#d6d6d6" d="M 29.5,119.5 C 28.7084,120.967 28.7084,122.3 29.5,123.5C 31.4669,122.318 32.8003,122.985 33.5,125.5C 34.5178,124.807 35.5178,124.141 36.5,123.5C 38.7099,123.894 40.0432,125.227 40.5,127.5C 34.8333,127.5 29.1667,127.5 23.5,127.5C 23.5,126.167 23.5,124.833 23.5,123.5C 25.4832,123.843 26.8166,123.176 27.5,121.5C 27.5,120.167 28.1667,119.5 29.5,119.5 Z"/></g>
<g><path style="opacity:1" fill="#c3c3c3" d="M 49.5,121.5 C 51.1667,121.5 52.8333,121.5 54.5,121.5C 54.5,122.167 54.5,122.833 54.5,123.5C 52.8235,124.183 52.1568,125.517 52.5,127.5C 49.5,127.5 46.5,127.5 43.5,127.5C 43.5,126.167 43.5,124.833 43.5,123.5C 44.8333,123.5 46.1667,123.5 47.5,123.5C 48.1667,122.833 48.8333,122.167 49.5,121.5 Z"/></g>
<g><path style="opacity:1" fill="#efefef" d="M 94.5,117.5 C 94.5,118.167 94.5,118.833 94.5,119.5C 91.845,119.659 89.5117,120.659 87.5,122.5C 89.0453,123.452 90.712,123.785 92.5,123.5C 92.5271,125.199 93.1938,126.533 94.5,127.5C 92.1667,127.5 89.8333,127.5 87.5,127.5C 87.1583,126.662 86.4916,126.328 85.5,126.5C 85.2178,125.222 84.5511,124.222 83.5,123.5C 83.2786,122.265 82.6119,121.265 81.5,120.5C 82.6119,119.735 83.2786,118.735 83.5,117.5C 85.7659,117.859 87.5993,117.192 89,115.5C 90.4007,117.192 92.2341,117.859 94.5,117.5 Z"/></g>
<g><path style="opacity:1" fill="#cbcbcb" d="M 59.5,121.5 C 61.7179,121.614 63.7179,122.28 65.5,123.5C 69.3734,123.334 70.0401,124.334 67.5,126.5C 66.1667,126.5 64.8333,126.5 63.5,126.5C 62.2436,126.096 61.0769,125.429 60,124.5C 59.0546,124.905 58.3879,125.572 58,126.5C 57.015,125.186 55.8484,124.186 54.5,123.5C 56.5542,123.635 58.2209,122.968 59.5,121.5 Z"/></g>
<g><path style="opacity:1" fill="#cdcdcd" d="M 83.5,123.5 C 84.5511,124.222 85.2178,125.222 85.5,126.5C 85.2786,127.735 84.6119,128.735 83.5,129.5C 80.5719,130.484 77.5719,130.817 74.5,130.5C 74.5,129.5 74.5,128.5 74.5,127.5C 77.0098,127.073 79.3432,126.407 81.5,125.5C 81.5,124.167 82.1667,123.5 83.5,123.5 Z"/></g>
<g><path style="opacity:1" fill="#bababa" d="M 54.5,123.5 C 55.8484,124.186 57.015,125.186 58,126.5C 58.3879,125.572 59.0546,124.905 60,124.5C 61.0769,125.429 62.2436,126.096 63.5,126.5C 64.8333,127.833 66.1667,129.167 67.5,130.5C 62.9296,130.121 58.5963,130.787 54.5,132.5C 54.7678,130.901 54.4345,129.568 53.5,128.5C 53.5,127.833 53.1667,127.5 52.5,127.5C 52.1568,125.517 52.8235,124.183 54.5,123.5 Z"/></g>
<g><path style="opacity:1" fill="#e4e4e4" d="M 74.5,127.5 C 74.5,128.5 74.5,129.5 74.5,130.5C 75.0545,134.012 74.3878,137.012 72.5,139.5C 72.38,138.414 71.7133,137.747 70.5,137.5C 67.7449,138.443 65.4116,139.776 63.5,141.5C 61.8235,140.817 61.1568,139.483 61.5,137.5C 62.7348,137.279 63.7348,136.612 64.5,135.5C 65.1667,136.167 65.8333,136.833 66.5,137.5C 67.5237,136.147 68.857,135.48 70.5,135.5C 70.4802,133.857 71.1468,132.524 72.5,131.5C 70.9547,130.548 69.288,130.215 67.5,130.5C 66.1667,129.167 64.8333,127.833 63.5,126.5C 64.8333,126.5 66.1667,126.5 67.5,126.5C 69.7373,125.551 72.0706,124.884 74.5,124.5C 74.5,125.5 74.5,126.5 74.5,127.5 Z"/></g>
<g><path style="opacity:1" fill="#d7d7d7" d="M 85.5,126.5 C 86.4916,126.328 87.1583,126.662 87.5,127.5C 87.5,129.167 87.5,130.833 87.5,132.5C 84.495,132.253 81.995,133.253 80,135.5C 79.3333,134.833 78.6667,134.167 78,133.5C 76.6814,135.25 76.1814,137.25 76.5,139.5C 78.7373,140.449 81.0706,141.116 83.5,141.5C 83.5,142.5 83.5,143.5 83.5,144.5C 83.5,145.833 82.8333,146.5 81.5,146.5C 81.5,145.5 81.5,144.5 81.5,143.5C 79.8333,143.5 78.1667,143.5 76.5,143.5C 75.1667,142.167 73.8333,140.833 72.5,139.5C 74.3878,137.012 75.0545,134.012 74.5,130.5C 77.5719,130.817 80.5719,130.484 83.5,129.5C 84.6119,128.735 85.2786,127.735 85.5,126.5 Z"/></g>
<g><path style="opacity:1" fill="#cecece" d="M 67.5,130.5 C 69.288,130.215 70.9547,130.548 72.5,131.5C 71.1468,132.524 70.4802,133.857 70.5,135.5C 68.857,135.48 67.5237,136.147 66.5,137.5C 65.8333,136.833 65.1667,136.167 64.5,135.5C 63.7348,136.612 62.7348,137.279 61.5,137.5C 58.9906,136.079 56.6572,134.412 54.5,132.5C 58.5963,130.787 62.9296,130.121 67.5,130.5 Z"/></g>
<g><path style="opacity:1" fill="#c5c5c5" d="M 87.5,132.5 C 87.5,133.5 87.5,134.5 87.5,135.5C 85.5,135.5 83.5,135.5 81.5,135.5C 81.5,136.833 81.5,138.167 81.5,139.5C 82.9778,139.238 84.3112,139.571 85.5,140.5C 85.0431,141.298 84.3764,141.631 83.5,141.5C 81.0706,141.116 78.7373,140.449 76.5,139.5C 76.1814,137.25 76.6814,135.25 78,133.5C 78.6667,134.167 79.3333,134.833 80,135.5C 81.995,133.253 84.495,132.253 87.5,132.5 Z"/></g>
<g><path style="opacity:1" fill="#e3e3e3" d="M 53.5,128.5 C 54.4345,129.568 54.7678,130.901 54.5,132.5C 56.6572,134.412 58.9906,136.079 61.5,137.5C 61.1568,139.483 61.8235,140.817 63.5,141.5C 63.5,142.167 63.5,142.833 63.5,143.5C 64.968,144.779 65.6347,146.446 65.5,148.5C 64.1667,148.5 62.8333,148.5 61.5,148.5C 59.1978,145.962 56.8644,143.295 54.5,140.5C 56.7153,138.608 56.382,136.941 53.5,135.5C 53.5,133.167 53.5,130.833 53.5,128.5 Z"/></g>
<g><path style="opacity:1" fill="#c4c4c4" d="M 72.5,139.5 C 73.8333,140.833 75.1667,142.167 76.5,143.5C 74.5168,143.157 73.1834,143.824 72.5,145.5C 70.5679,144.416 68.7346,143.083 67,141.5C 65.9231,142.429 64.7564,143.096 63.5,143.5C 63.5,142.833 63.5,142.167 63.5,141.5C 65.4116,139.776 67.7449,138.443 70.5,137.5C 71.7133,137.747 72.38,138.414 72.5,139.5 Z"/></g>
<g><path style="opacity:1" fill="#cfcfcf" d="M 72.5,145.5 C 72.5,146.5 72.5,147.5 72.5,148.5C 70.1667,148.5 67.8333,148.5 65.5,148.5C 65.6347,146.446 64.968,144.779 63.5,143.5C 64.7564,143.096 65.9231,142.429 67,141.5C 68.7346,143.083 70.5679,144.416 72.5,145.5 Z"/></g>
<g><path style="opacity:0.969" fill="#e3e3e3" d="M 87.5,135.5 C 87.5,139.167 87.5,142.833 87.5,146.5C 86.1667,145.833 84.8333,145.167 83.5,144.5C 83.5,143.5 83.5,142.5 83.5,141.5C 84.3764,141.631 85.0431,141.298 85.5,140.5C 84.3112,139.571 82.9778,139.238 81.5,139.5C 81.5,138.167 81.5,136.833 81.5,135.5C 83.5,135.5 85.5,135.5 87.5,135.5 Z"/></g>
<g><path style="opacity:1" fill="#efefef" d="M 53.5,135.5 C 56.382,136.941 56.7153,138.608 54.5,140.5C 56.8644,143.295 59.1978,145.962 61.5,148.5C 59.8762,148.36 58.7096,149.027 58,150.5C 56.5862,149.009 55.0862,147.675 53.5,146.5C 53.5,142.833 53.5,139.167 53.5,135.5 Z"/></g>
<g><path style="opacity:1" fill="#e0e0e0" d="M 76.5,143.5 C 78.1667,143.5 79.8333,143.5 81.5,143.5C 81.5,144.5 81.5,145.5 81.5,146.5C 81.5,147.167 81.5,147.833 81.5,148.5C 81.6309,149.376 81.2975,150.043 80.5,150.5C 79.7348,149.388 78.7348,148.721 77.5,148.5C 77.189,147.522 76.5223,146.855 75.5,146.5C 74.7348,147.612 73.7348,148.279 72.5,148.5C 72.5,147.5 72.5,146.5 72.5,145.5C 73.1834,143.824 74.5168,143.157 76.5,143.5 Z"/></g>
<g><path style="opacity:0.962" fill="#efefef" d="M 83.5,144.5 C 84.8333,145.167 86.1667,145.833 87.5,146.5C 88.0545,150.012 87.3878,153.012 85.5,155.5C 84.9026,152.626 83.5693,150.292 81.5,148.5C 81.5,147.833 81.5,147.167 81.5,146.5C 82.8333,146.5 83.5,145.833 83.5,144.5 Z"/></g>
<g><path style="opacity:1" fill="#cfcfcf" d="M 53.5,146.5 C 55.0862,147.675 56.5862,149.009 58,150.5C 58.7096,149.027 59.8762,148.36 61.5,148.5C 62.1079,149.8 62.7745,151.133 63.5,152.5C 63.1667,153.167 62.8333,153.833 62.5,154.5C 59.8158,152.627 56.8158,151.627 53.5,151.5C 53.5,149.833 53.5,148.167 53.5,146.5 Z"/></g>
<g><path style="opacity:1" fill="#dadada" d="M 77.5,148.5 C 75.2733,150.229 74.2733,152.562 74.5,155.5C 73.1667,155.5 71.8333,155.5 70.5,155.5C 68.8767,154.221 67.21,152.887 65.5,151.5C 68.2949,151.062 70.6283,150.062 72.5,148.5C 73.7348,148.279 74.7348,147.612 75.5,146.5C 76.5223,146.855 77.189,147.522 77.5,148.5 Z"/></g>
<g><path style="opacity:1" fill="#eaeaea" d="M 77.5,148.5 C 78.7348,148.721 79.7348,149.388 80.5,150.5C 81.2975,150.043 81.6309,149.376 81.5,148.5C 83.5693,150.292 84.9026,152.626 85.5,155.5C 81.8333,155.5 78.1667,155.5 74.5,155.5C 74.2733,152.562 75.2733,150.229 77.5,148.5 Z"/></g>
<g><path style="opacity:1" fill="#ededed" d="M 61.5,148.5 C 62.8333,148.5 64.1667,148.5 65.5,148.5C 67.8333,148.5 70.1667,148.5 72.5,148.5C 70.6283,150.062 68.2949,151.062 65.5,151.5C 67.21,152.887 68.8767,154.221 70.5,155.5C 64.8333,155.5 59.1667,155.5 53.5,155.5C 53.5,154.167 53.5,152.833 53.5,151.5C 56.8158,151.627 59.8158,152.627 62.5,154.5C 62.8333,153.833 63.1667,153.167 63.5,152.5C 62.7745,151.133 62.1079,149.8 61.5,148.5 Z"/></g>
</svg>
