<?xml version="1.0" encoding="UTF-8"?>
<!DOCTYPE svg PUBLIC "-//W3C//DTD SVG 1.1//EN" "http://www.w3.org/Graphics/SVG/1.1/DTD/svg11.dtd">
<svg xmlns="http://www.w3.org/2000/svg" version="1.1" width="104px" height="180px" style="shape-rendering:geometricPrecision; text-rendering:geometricPrecision; image-rendering:optimizeQuality; fill-rule:evenodd; clip-rule:evenodd" xmlns:xlink="http://www.w3.org/1999/xlink">
<g><path style="opacity:1" fill="#d4d4d4" d="M 34.5,19.5 C 36.8333,19.5 39.1667,19.5 41.5,19.5C 41.5,20.1667 41.5,20.8333 41.5,21.5C 39.8212,21.2852 38.8212,21.9519 38.5,23.5C 37.1667,23.5 35.8333,23.5 34.5,23.5C 34.5,22.1667 34.5,20.8333 34.5,19.5 Z"/></g>
<g><path style="opacity:1" fill="#dbdbdb" d="M 56.5,19.5 C 60.1667,19.5 63.8333,19.5 67.5,19.5C 67.5,20.5 67.5,21.5 67.5,22.5C 68.552,22.3505 69.552,22.5172 70.5,23C 68.8659,23.4935 67.1992,23.6602 65.5,23.5C 65.5,24.5 65.5,25.5 65.5,26.5C 67.1788,26.2852 68.1788,26.9519 68.5,28.5C 68.5,29.1667 68.5,29.8333 68.5,30.5C 68.1667,30.5 67.8333,30.5 67.5,30.5C 66.8166,28.8235 65.4832,28.1568 63.5,28.5C 62.8166,26.8235 61.4832,26.1568 59.5,26.5C 58.6343,24.1728 57.6343,21.8395 56.5,19.5 Z"/></g>
<g><path style="opacity:1" fill="#d8d8d8" d="M 74.5,19.5 C 76.1667,19.5 77.8333,19.5 79.5,19.5C 79.62,20.5862 80.2867,21.2528 81.5,21.5C 82.7133,21.2528 83.38,20.5862 83.5,19.5C 84.1667,19.5 84.8333,19.5 85.5,19.5C 86.8654,21.5909 87.5321,23.9242 87.5,26.5C 86.2652,26.2786 85.2652,25.6119 84.5,24.5C 83.5713,25.6888 83.238,27.0222 83.5,28.5C 81.4305,28.4486 79.5971,29.1153 78,30.5C 76.9231,29.5705 75.7564,28.9038 74.5,28.5C 74.9038,27.2436 75.5705,26.0769 76.5,25C 75.1153,23.4029 74.4486,21.5695 74.5,19.5 Z"/></g>
<g><path style="opacity:1" fill="#f0f0f0" d="M 79.5,19.5 C 80.8333,19.5 82.1667,19.5 83.5,19.5C 83.38,20.5862 82.7133,21.2528 81.5,21.5C 80.2867,21.2528 79.62,20.5862 79.5,19.5 Z"/></g>
<g><path style="opacity:1" fill="#dedede" d="M 41.5,21.5 C 43.8333,21.5 46.1667,21.5 48.5,21.5C 48.2852,23.1788 48.9519,24.1788 50.5,24.5C 49.791,25.404 48.791,25.7373 47.5,25.5C 47.719,24.325 47.3857,23.325 46.5,22.5C 45.8589,23.9935 44.8589,24.9935 43.5,25.5C 42.8333,24.1667 42.1667,22.8333 41.5,21.5 Z"/></g>
<g><path style="opacity:1" fill="#dcdcdc" d="M 17.5,19.5 C 22.0557,21.4417 27.0557,22.1083 32.5,21.5C 32.8383,25.1507 31.1716,26.8174 27.5,26.5C 25.2821,26.3862 23.2821,25.7196 21.5,24.5C 19.3432,23.5933 17.0098,22.9267 14.5,22.5C 14.5,20.5 15.5,19.5 17.5,19.5 Z"/></g>
<g><path style="opacity:1" fill="#c8c8c8" d="M 17.5,19.5 C 23.1667,19.5 28.8333,19.5 34.5,19.5C 34.5,20.8333 34.5,22.1667 34.5,23.5C 35.8333,23.5 37.1667,23.5 38.5,23.5C 38.5,24.5 38.5,25.5 38.5,26.5C 37.1667,27.1667 35.8333,27.8333 34.5,28.5C 32.8333,28.5 31.1667,28.5 29.5,28.5C 28.1667,28.5 27.5,27.8333 27.5,26.5C 31.1716,26.8174 32.8383,25.1507 32.5,21.5C 27.0557,22.1083 22.0557,21.4417 17.5,19.5 Z"/></g>
<g><path style="opacity:1" fill="#ececec" d="M 41.5,19.5 C 44.1667,19.5 46.8333,19.5 49.5,19.5C 51.3637,21.2183 53.6971,22.385 56.5,23C 54.2922,23.1909 52.2922,23.6909 50.5,24.5C 48.9519,24.1788 48.2852,23.1788 48.5,21.5C 46.1667,21.5 43.8333,21.5 41.5,21.5C 41.5,20.8333 41.5,20.1667 41.5,19.5 Z"/></g>
<g><path style="opacity:0.953" fill="#c5c5c5" d="M 14.5,22.5 C 17.0098,22.9267 19.3432,23.5933 21.5,24.5C 20.6649,25.9432 19.3316,26.9432 17.5,27.5C 18.6119,28.2652 19.2786,29.2652 19.5,30.5C 17.1582,31.2107 16.8249,32.544 18.5,34.5C 17.1266,34.6567 15.7932,34.49 14.5,34C 15.4158,33.7216 16.0825,33.2216 16.5,32.5C 16.8432,30.5168 16.1765,29.1834 14.5,28.5C 14.5,26.5 14.5,24.5 14.5,22.5 Z"/></g>
<g><path style="opacity:1" fill="#c6c6c6" d="M 67.5,19.5 C 69.8333,19.5 72.1667,19.5 74.5,19.5C 74.4486,21.5695 75.1153,23.4029 76.5,25C 75.5705,26.0769 74.9038,27.2436 74.5,28.5C 72.5,28.5 70.5,28.5 68.5,28.5C 68.1788,26.9519 67.1788,26.2852 65.5,26.5C 65.5,25.5 65.5,24.5 65.5,23.5C 67.1992,23.6602 68.8659,23.4935 70.5,23C 69.552,22.5172 68.552,22.3505 67.5,22.5C 67.5,21.5 67.5,20.5 67.5,19.5 Z"/></g>
<g><path style="opacity:1" fill="#dedede" d="M 85.5,19.5 C 86.1667,19.5 86.8333,19.5 87.5,19.5C 89.118,20.4511 90.4513,21.7844 91.5,23.5C 92.4287,22.3112 92.762,20.9778 92.5,19.5C 93.5,19.5 94.5,19.5 95.5,19.5C 95.5,23.1667 95.5,26.8333 95.5,30.5C 94.2209,29.032 92.5542,28.3653 90.5,28.5C 88.8212,28.7148 87.8212,28.0481 87.5,26.5C 87.5321,23.9242 86.8654,21.5909 85.5,19.5 Z"/></g>
<g><path style="opacity:1" fill="#c8c8c8" d="M 87.5,19.5 C 89.1667,19.5 90.8333,19.5 92.5,19.5C 92.762,20.9778 92.4287,22.3112 91.5,23.5C 90.4513,21.7844 89.118,20.4511 87.5,19.5 Z"/></g>
<g><path style="opacity:1" fill="#cccccc" d="M 21.5,24.5 C 23.2821,25.7196 25.2821,26.3862 27.5,26.5C 27.5,27.8333 28.1667,28.5 29.5,28.5C 27.8271,31.1685 25.8271,33.5018 23.5,35.5C 23.5,34.5 23.5,33.5 23.5,32.5C 21.5168,32.8432 20.1834,32.1765 19.5,30.5C 19.2786,29.2652 18.6119,28.2652 17.5,27.5C 19.3316,26.9432 20.6649,25.9432 21.5,24.5 Z"/></g>
<g><path style="opacity:1" fill="#c3c3c3" d="M 41.5,21.5 C 42.1667,22.8333 42.8333,24.1667 43.5,25.5C 46.1589,25.9174 48.4922,26.9174 50.5,28.5C 48.8333,28.5 47.1667,28.5 45.5,28.5C 45.5,29.8333 45.5,31.1667 45.5,32.5C 44.8333,32.5 44.1667,32.5 43.5,32.5C 37.5827,32.8738 36.9161,31.2071 41.5,27.5C 40.675,26.6143 39.675,26.281 38.5,26.5C 38.5,25.5 38.5,24.5 38.5,23.5C 38.8212,21.9519 39.8212,21.2852 41.5,21.5 Z"/></g>
<g><path style="opacity:1" fill="#d4d4d4" d="M 49.5,19.5 C 51.8333,19.5 54.1667,19.5 56.5,19.5C 57.6343,21.8395 58.6343,24.1728 59.5,26.5C 59.5,27.8333 60.1667,28.5 61.5,28.5C 61.5,29.8333 60.8333,30.5 59.5,30.5C 58.7784,30.0825 58.2784,29.4158 58,28.5C 57.7216,29.4158 57.2216,30.0825 56.5,30.5C 55.8166,28.8235 54.4832,28.1568 52.5,28.5C 51.8333,28.5 51.1667,28.5 50.5,28.5C 48.4922,26.9174 46.1589,25.9174 43.5,25.5C 44.8589,24.9935 45.8589,23.9935 46.5,22.5C 47.3857,23.325 47.719,24.325 47.5,25.5C 48.791,25.7373 49.791,25.404 50.5,24.5C 52.2922,23.6909 54.2922,23.1909 56.5,23C 53.6971,22.385 51.3637,21.2183 49.5,19.5 Z"/></g>
<g><path style="opacity:1" fill="#b4b4b4" d="M 59.5,26.5 C 61.4832,26.1568 62.8166,26.8235 63.5,28.5C 62.8333,28.5 62.1667,28.5 61.5,28.5C 60.1667,28.5 59.5,27.8333 59.5,26.5 Z"/></g>
<g><path style="opacity:0.992" fill="#eaeaea" d="M 14.5,28.5 C 16.1765,29.1834 16.8432,30.5168 16.5,32.5C 15.5,32.5 14.5,32.5 13.5,32.5C 13.4326,31.0413 13.7659,29.7079 14.5,28.5 Z"/></g>
<g><path style="opacity:1" fill="#d7d7d7" d="M 38.5,26.5 C 39.675,26.281 40.675,26.6143 41.5,27.5C 36.9161,31.2071 37.5827,32.8738 43.5,32.5C 43.8308,34.3224 44.4975,35.9891 45.5,37.5C 45.5,38.1667 45.5,38.8333 45.5,39.5C 44.8333,39.5 44.1667,39.5 43.5,39.5C 42.2562,36.4574 39.9229,35.124 36.5,35.5C 36.5,34.5 36.5,33.5 36.5,32.5C 32.6266,32.334 31.9599,33.334 34.5,35.5C 33.1667,35.5 31.8333,35.5 30.5,35.5C 30.5,33.8333 30.5,32.1667 30.5,30.5C 32.4832,30.8432 33.8166,30.1765 34.5,28.5C 35.8333,27.8333 37.1667,27.1667 38.5,26.5 Z"/></g>
<g><path style="opacity:1" fill="#dfdfdf" d="M 50.5,28.5 C 51.1667,28.5 51.8333,28.5 52.5,28.5C 50.9562,31.248 50.2895,34.248 50.5,37.5C 49.1001,36.9002 48.1001,35.9002 47.5,34.5C 47.5,33.1667 46.8333,32.5 45.5,32.5C 45.5,31.1667 45.5,29.8333 45.5,28.5C 47.1667,28.5 48.8333,28.5 50.5,28.5 Z"/></g>
<g><path style="opacity:1" fill="#bcbcbc" d="M 63.5,28.5 C 65.4832,28.1568 66.8166,28.8235 67.5,30.5C 65.5168,30.8432 64.1834,30.1765 63.5,28.5 Z"/></g>
<g><path style="opacity:1" fill="#f3f3f3" d="M 87.5,26.5 C 87.8212,28.0481 88.8212,28.7148 90.5,28.5C 88.7211,30.3435 86.3878,31.0102 83.5,30.5C 83.4729,32.1993 82.8062,33.5326 81.5,34.5C 79.4091,33.1346 77.0758,32.4679 74.5,32.5C 74.5,31.1667 74.5,29.8333 74.5,28.5C 75.7564,28.9038 76.9231,29.5705 78,30.5C 79.5971,29.1153 81.4305,28.4486 83.5,28.5C 83.238,27.0222 83.5713,25.6888 84.5,24.5C 85.2652,25.6119 86.2652,26.2786 87.5,26.5 Z"/></g>
<g><path style="opacity:0.946" fill="#e6e6e6" d="M 90.5,28.5 C 92.5542,28.3653 94.2209,29.032 95.5,30.5C 95.5,32.1667 95.5,33.8333 95.5,35.5C 93.8333,35.5 92.1667,35.5 90.5,35.5C 90.5,34.5 90.5,33.5 90.5,32.5C 89.5,32.5 88.5,32.5 87.5,32.5C 87.5,33.5 87.5,34.5 87.5,35.5C 87.1583,36.3382 86.4916,36.6716 85.5,36.5C 84.8166,34.8235 83.4832,34.1568 81.5,34.5C 82.8062,33.5326 83.4729,32.1993 83.5,30.5C 86.3878,31.0102 88.7211,30.3435 90.5,28.5 Z"/></g>
<g><path style="opacity:1" fill="#bfbfbf" d="M 67.5,30.5 C 67.8333,30.5 68.1667,30.5 68.5,30.5C 70.4832,30.1568 71.8166,30.8235 72.5,32.5C 70.2188,32.9227 68.5521,32.256 67.5,30.5 Z"/></g>
<g><path style="opacity:1" fill="#b2b2b2" d="M 19.5,30.5 C 20.1834,32.1765 21.5168,32.8432 23.5,32.5C 23.5,33.5 23.5,34.5 23.5,35.5C 22.1667,35.5 20.8333,35.5 19.5,35.5C 19.1667,35.5 18.8333,35.5 18.5,35.5C 18.5,35.1667 18.5,34.8333 18.5,34.5C 16.8249,32.544 17.1582,31.2107 19.5,30.5 Z"/></g>
<g><path style="opacity:1" fill="#cacaca" d="M 52.5,28.5 C 54.4832,28.1568 55.8166,28.8235 56.5,30.5C 53.9321,32.0274 52.5988,34.3607 52.5,37.5C 53.8333,37.5 55.1667,37.5 56.5,37.5C 56.5,38.1667 56.5,38.8333 56.5,39.5C 53.9179,39.9746 51.9179,39.3079 50.5,37.5C 50.2895,34.248 50.9562,31.248 52.5,28.5 Z"/></g>
<g><path style="opacity:1" fill="#dfdfdf" d="M 59.5,30.5 C 60.8062,31.4674 61.4729,32.8007 61.5,34.5C 59.1523,34.5923 57.4856,35.5923 56.5,37.5C 55.1667,37.5 53.8333,37.5 52.5,37.5C 52.5988,34.3607 53.9321,32.0274 56.5,30.5C 57.2216,30.0825 57.7216,29.4158 58,28.5C 58.2784,29.4158 58.7784,30.0825 59.5,30.5 Z"/></g>
<g><path style="opacity:1" fill="#c0c0c0" d="M 43.5,39.5 C 43.6309,40.3764 43.2975,41.0431 42.5,41.5C 41.1186,40.1186 39.7853,38.7853 38.5,37.5C 36.5168,37.8432 35.1834,37.1765 34.5,35.5C 31.9599,33.334 32.6266,32.334 36.5,32.5C 36.5,33.5 36.5,34.5 36.5,35.5C 39.9229,35.124 42.2562,36.4574 43.5,39.5 Z"/></g>
<g><path style="opacity:1" fill="#adadad" d="M 43.5,32.5 C 44.1667,32.5 44.8333,32.5 45.5,32.5C 46.8333,32.5 47.5,33.1667 47.5,34.5C 47.7148,36.1788 47.0481,37.1788 45.5,37.5C 44.4975,35.9891 43.8308,34.3224 43.5,32.5 Z"/></g>
<g><path style="opacity:1" fill="#dbdbdb" d="M 61.5,28.5 C 62.1667,28.5 62.8333,28.5 63.5,28.5C 64.1834,30.1765 65.5168,30.8432 67.5,30.5C 68.5521,32.256 70.2188,32.9227 72.5,32.5C 73.1834,34.1765 74.5168,34.8432 76.5,34.5C 75.8333,35.1667 75.1667,35.8333 74.5,36.5C 72.2362,35.7814 69.9029,35.448 67.5,35.5C 66.2652,35.2786 65.2652,34.6119 64.5,33.5C 63.5832,34.1272 62.5832,34.4606 61.5,34.5C 61.4729,32.8007 60.8062,31.4674 59.5,30.5C 60.8333,30.5 61.5,29.8333 61.5,28.5 Z"/></g>
<g><path style="opacity:1" fill="#dedede" d="M 68.5,28.5 C 70.5,28.5 72.5,28.5 74.5,28.5C 74.5,29.8333 74.5,31.1667 74.5,32.5C 77.0758,32.4679 79.4091,33.1346 81.5,34.5C 83.4832,34.1568 84.8166,34.8235 85.5,36.5C 85.5,36.8333 85.5,37.1667 85.5,37.5C 84.1667,36.8333 82.8333,36.1667 81.5,35.5C 79.857,35.5198 78.5237,34.8532 77.5,33.5C 76.8933,33.6236 76.56,33.9569 76.5,34.5C 74.5168,34.8432 73.1834,34.1765 72.5,32.5C 71.8166,30.8235 70.4832,30.1568 68.5,30.5C 68.5,29.8333 68.5,29.1667 68.5,28.5 Z"/></g>
<g><path style="opacity:1" fill="#bdbdbd" d="M 90.5,35.5 C 89.5,35.5 88.5,35.5 87.5,35.5C 87.5,34.5 87.5,33.5 87.5,32.5C 88.5,32.5 89.5,32.5 90.5,32.5C 90.5,33.5 90.5,34.5 90.5,35.5 Z"/></g>
<g><path style="opacity:1" fill="#d7d7d7" d="M 13.5,32.5 C 14.5,32.5 15.5,32.5 16.5,32.5C 16.0825,33.2216 15.4158,33.7216 14.5,34C 15.7932,34.49 17.1266,34.6567 18.5,34.5C 18.5,34.8333 18.5,35.1667 18.5,35.5C 16.9891,36.5025 15.3224,37.1692 13.5,37.5C 13.5,35.8333 13.5,34.1667 13.5,32.5 Z"/></g>
<g><path style="opacity:1" fill="#e7e7e7" d="M 29.5,28.5 C 31.1667,28.5 32.8333,28.5 34.5,28.5C 33.8166,30.1765 32.4832,30.8432 30.5,30.5C 30.5,32.1667 30.5,33.8333 30.5,35.5C 31.8333,35.5 33.1667,35.5 34.5,35.5C 35.1834,37.1765 36.5168,37.8432 38.5,37.5C 38.5,38.1667 38.5,38.8333 38.5,39.5C 37.1667,39.5 35.8333,39.5 34.5,39.5C 34.87,43.1859 33.5367,44.1859 30.5,42.5C 29.8466,41.1932 29.1799,39.8599 28.5,38.5C 26.3449,37.9986 24.6782,36.9986 23.5,35.5C 25.8271,33.5018 27.8271,31.1685 29.5,28.5 Z"/></g>
<g><path style="opacity:1" fill="#b0b0b0" d="M 67.5,35.5 C 68.4663,37.0568 69.7996,38.3901 71.5,39.5C 72.4287,40.6888 72.762,42.0222 72.5,43.5C 71.8333,43.5 71.1667,43.5 70.5,43.5C 68.1944,43.0074 65.861,42.6741 63.5,42.5C 63.5,42.1667 63.5,41.8333 63.5,41.5C 66.0828,40.9085 66.0828,40.2418 63.5,39.5C 62.2867,39.7472 61.62,40.4138 61.5,41.5C 61.1667,41.5 60.8333,41.5 60.5,41.5C 59.8166,39.8235 58.4832,39.1568 56.5,39.5C 56.5,38.8333 56.5,38.1667 56.5,37.5C 57.4856,35.5923 59.1523,34.5923 61.5,34.5C 62.5832,34.4606 63.5832,34.1272 64.5,33.5C 65.2652,34.6119 66.2652,35.2786 67.5,35.5 Z"/></g>
<g><path style="opacity:1" fill="#d3d3d3" d="M 67.5,35.5 C 69.9029,35.448 72.2362,35.7814 74.5,36.5C 74.2852,38.1788 74.9519,39.1788 76.5,39.5C 76.5,40.1667 76.5,40.8333 76.5,41.5C 77.1667,42.1667 77.8333,42.8333 78.5,43.5C 76.5,43.5 74.5,43.5 72.5,43.5C 72.762,42.0222 72.4287,40.6888 71.5,39.5C 69.7996,38.3901 68.4663,37.0568 67.5,35.5 Z"/></g>
<g><path style="opacity:1" fill="#cdcdcd" d="M 81.5,35.5 C 82.8333,36.1667 84.1667,36.8333 85.5,37.5C 86.1667,40.1667 86.8333,40.1667 87.5,37.5C 88.4345,38.5676 88.7678,39.901 88.5,41.5C 90.4918,41.3285 92.1585,41.9951 93.5,43.5C 94.1818,42.7573 94.8485,42.0906 95.5,41.5C 95.5,43.8333 95.5,46.1667 95.5,48.5C 93.8333,48.5 92.1667,48.5 90.5,48.5C 90.7214,47.2652 91.3881,46.2652 92.5,45.5C 90.2573,44.5258 87.924,44.1924 85.5,44.5C 87.2922,43.6909 89.2922,43.1909 91.5,43C 87.5817,41.8436 83.5817,41.3436 79.5,41.5C 79.6138,39.2821 80.2804,37.2821 81.5,35.5 Z"/></g>
<g><path style="opacity:1" fill="#bcbcbc" d="M 90.5,35.5 C 92.1667,35.5 93.8333,35.5 95.5,35.5C 95.5,36.1667 95.5,36.8333 95.5,37.5C 93.2188,37.9227 91.5521,37.256 90.5,35.5 Z"/></g>
<g><path style="opacity:1" fill="#cdcdcd" d="M 47.5,34.5 C 48.1001,35.9002 49.1001,36.9002 50.5,37.5C 51.9179,39.3079 53.9179,39.9746 56.5,39.5C 58.4832,39.1568 59.8166,39.8235 60.5,41.5C 60.1667,41.5 59.8333,41.5 59.5,41.5C 55.1668,39.8243 53.5002,41.4909 54.5,46.5C 52.0706,46.1156 49.7373,45.449 47.5,44.5C 47.9227,42.2188 47.256,40.5521 45.5,39.5C 45.5,38.8333 45.5,38.1667 45.5,37.5C 47.0481,37.1788 47.7148,36.1788 47.5,34.5 Z"/></g>
<g><path style="opacity:1" fill="#a9a9a9" d="M 85.5,37.5 C 86.1667,37.5 86.8333,37.5 87.5,37.5C 86.8333,40.1667 86.1667,40.1667 85.5,37.5 Z"/></g>
<g><path style="opacity:0.959" fill="#dfdfdf" d="M 12.5,39.5 C 14.288,39.2148 15.9547,39.5481 17.5,40.5C 19.3296,43.8863 21.9963,44.8863 25.5,43.5C 26.1667,43.5 26.8333,43.5 27.5,43.5C 27.5,45.1667 27.5,46.8333 27.5,48.5C 29.3224,48.1692 30.9891,47.5025 32.5,46.5C 32.9746,49.0821 32.3079,51.0821 30.5,52.5C 26.2079,49.987 21.5412,48.6536 16.5,48.5C 15.1667,47.8333 13.8333,47.1667 12.5,46.5C 12.5,44.1667 12.5,41.8333 12.5,39.5 Z"/></g>
<g><path style="opacity:1" fill="#929292" d="M 76.5,39.5 C 79.1667,40.1667 79.1667,40.8333 76.5,41.5C 76.5,40.8333 76.5,40.1667 76.5,39.5 Z"/></g>
<g><path style="opacity:1" fill="#e1e1e1" d="M 87.5,35.5 C 88.5,35.5 89.5,35.5 90.5,35.5C 91.5521,37.256 93.2188,37.9227 95.5,37.5C 95.5,38.8333 95.5,40.1667 95.5,41.5C 94.8485,42.0906 94.1818,42.7573 93.5,43.5C 92.1585,41.9951 90.4918,41.3285 88.5,41.5C 88.7678,39.901 88.4345,38.5676 87.5,37.5C 86.8333,37.5 86.1667,37.5 85.5,37.5C 85.5,37.1667 85.5,36.8333 85.5,36.5C 86.4916,36.6716 87.1583,36.3382 87.5,35.5 Z"/></g>
<g><path style="opacity:1" fill="#898989" d="M 63.5,41.5 C 62.8333,41.5 62.1667,41.5 61.5,41.5C 61.62,40.4138 62.2867,39.7472 63.5,39.5C 66.0828,40.2418 66.0828,40.9085 63.5,41.5 Z"/></g>
<g><path style="opacity:1" fill="#eeeeee" d="M 18.5,35.5 C 18.8333,35.5 19.1667,35.5 19.5,35.5C 20.7196,37.2821 21.3862,39.2821 21.5,41.5C 23.4832,41.1568 24.8166,41.8235 25.5,43.5C 21.9963,44.8863 19.3296,43.8863 17.5,40.5C 15.9547,39.5481 14.288,39.2148 12.5,39.5C 12.8333,38.8333 13.1667,38.1667 13.5,37.5C 15.3224,37.1692 16.9891,36.5025 18.5,35.5 Z"/></g>
<g><path style="opacity:1" fill="#cacaca" d="M 19.5,35.5 C 20.8333,35.5 22.1667,35.5 23.5,35.5C 24.6782,36.9986 26.3449,37.9986 28.5,38.5C 29.1799,39.8599 29.8466,41.1932 30.5,42.5C 29.791,43.404 28.791,43.7373 27.5,43.5C 26.8333,43.5 26.1667,43.5 25.5,43.5C 24.8166,41.8235 23.4832,41.1568 21.5,41.5C 21.3862,39.2821 20.7196,37.2821 19.5,35.5 Z"/></g>
<g><path style="opacity:1" fill="#e0e0e0" d="M 38.5,37.5 C 39.7853,38.7853 41.1186,40.1186 42.5,41.5C 43.2975,41.0431 43.6309,40.3764 43.5,39.5C 44.1667,39.5 44.8333,39.5 45.5,39.5C 45.762,40.9778 45.4287,42.3112 44.5,43.5C 41.9795,44.7853 39.3128,45.4519 36.5,45.5C 37.1667,43.5 37.8333,41.5 38.5,39.5C 38.5,38.8333 38.5,38.1667 38.5,37.5 Z"/></g>
<g><path style="opacity:0.84" fill="#d5d5d5" d="M 45.5,39.5 C 47.256,40.5521 47.9227,42.2188 47.5,44.5C 49.7373,45.449 52.0706,46.1156 54.5,46.5C 53.5002,41.4909 55.1668,39.8243 59.5,41.5C 58.5,41.5 57.5,41.5 56.5,41.5C 56.5,43.8333 56.5,46.1667 56.5,48.5C 51.706,47.9031 47.3727,48.5698 43.5,50.5C 41.1554,48.8178 38.822,47.1511 36.5,45.5C 39.3128,45.4519 41.9795,44.7853 44.5,43.5C 45.4287,42.3112 45.762,40.9778 45.5,39.5 Z"/></g>
<g><path style="opacity:0.97" fill="#e1e1e1" d="M 59.5,41.5 C 59.8333,41.5 60.1667,41.5 60.5,41.5C 60.8333,41.5 61.1667,41.5 61.5,41.5C 62.1667,41.5 62.8333,41.5 63.5,41.5C 63.5,41.8333 63.5,42.1667 63.5,42.5C 62.4138,42.62 61.7472,43.2867 61.5,44.5C 62.2255,45.8669 62.8921,47.2003 63.5,48.5C 61.1667,48.5 58.8333,48.5 56.5,48.5C 56.5,46.1667 56.5,43.8333 56.5,41.5C 57.5,41.5 58.5,41.5 59.5,41.5 Z"/></g>
<g><path style="opacity:1" fill="#b9b9b9" d="M 81.5,35.5 C 80.2804,37.2821 79.6138,39.2821 79.5,41.5C 83.5817,41.3436 87.5817,41.8436 91.5,43C 89.2922,43.1909 87.2922,43.6909 85.5,44.5C 84.5084,44.3284 83.8417,44.6618 83.5,45.5C 81.1432,45.6633 78.8098,45.4966 76.5,45C 77.4158,44.7216 78.0825,44.2216 78.5,43.5C 77.8333,42.8333 77.1667,42.1667 76.5,41.5C 79.1667,40.8333 79.1667,40.1667 76.5,39.5C 74.9519,39.1788 74.2852,38.1788 74.5,36.5C 75.1667,35.8333 75.8333,35.1667 76.5,34.5C 76.56,33.9569 76.8933,33.6236 77.5,33.5C 78.5237,34.8532 79.857,35.5198 81.5,35.5 Z"/></g>
<g><path style="opacity:1" fill="#cfcfcf" d="M 38.5,39.5 C 37.8333,41.5 37.1667,43.5 36.5,45.5C 38.822,47.1511 41.1554,48.8178 43.5,50.5C 43.5,51.1667 43.5,51.8333 43.5,52.5C 40.4281,52.8174 37.4281,52.4841 34.5,51.5C 35.1667,50.8333 35.8333,50.1667 36.5,49.5C 35.4116,48.0656 34.0783,47.0656 32.5,46.5C 30.9891,47.5025 29.3224,48.1692 27.5,48.5C 27.5,46.8333 27.5,45.1667 27.5,43.5C 28.791,43.7373 29.791,43.404 30.5,42.5C 33.5367,44.1859 34.87,43.1859 34.5,39.5C 35.8333,39.5 37.1667,39.5 38.5,39.5 Z"/></g>
<g><path style="opacity:1" fill="#dfdfdf" d="M 63.5,42.5 C 65.861,42.6741 68.1944,43.0074 70.5,43.5C 70.5,43.8333 70.5,44.1667 70.5,44.5C 68.1944,44.9926 65.861,45.3259 63.5,45.5C 63.5,44.5 63.5,43.5 63.5,42.5 Z"/></g>
<g><path style="opacity:0.9" fill="#f2f2f2" d="M 63.5,42.5 C 63.5,43.5 63.5,44.5 63.5,45.5C 65.861,45.3259 68.1944,44.9926 70.5,44.5C 69.8333,45.8333 69.1667,47.1667 68.5,48.5C 66.8333,48.5 65.1667,48.5 63.5,48.5C 62.8921,47.2003 62.2255,45.8669 61.5,44.5C 61.7472,43.2867 62.4138,42.62 63.5,42.5 Z"/></g>
<g><path style="opacity:1" fill="#c5c5c5" d="M 70.5,44.5 C 70.5,44.1667 70.5,43.8333 70.5,43.5C 71.1667,43.5 71.8333,43.5 72.5,43.5C 74.5,43.5 76.5,43.5 78.5,43.5C 78.0825,44.2216 77.4158,44.7216 76.5,45C 78.8098,45.4966 81.1432,45.6633 83.5,45.5C 79.1194,46.9243 74.786,46.5909 70.5,44.5 Z"/></g>
<g><path style="opacity:0.749" fill="#d6d6d6" d="M 70.5,44.5 C 74.786,46.5909 79.1194,46.9243 83.5,45.5C 83.8417,44.6618 84.5084,44.3284 85.5,44.5C 87.924,44.1924 90.2573,44.5258 92.5,45.5C 91.3881,46.2652 90.7214,47.2652 90.5,48.5C 83.1667,48.5 75.8333,48.5 68.5,48.5C 69.1667,47.1667 69.8333,45.8333 70.5,44.5 Z"/></g>
<g><path style="opacity:1" fill="#d5d5d5" d="M 12.5,46.5 C 13.8333,47.1667 15.1667,47.8333 16.5,48.5C 16.7822,49.7777 17.4489,50.7777 18.5,51.5C 16.8235,52.1834 16.1568,53.5168 16.5,55.5C 14.8333,55.5 13.1667,55.5 11.5,55.5C 11.2641,52.3915 11.5975,49.3915 12.5,46.5 Z"/></g>
<g><path style="opacity:1" fill="#bebebe" d="M 16.5,48.5 C 21.5412,48.6536 26.2079,49.987 30.5,52.5C 30.5,54.1667 30.5,55.8333 30.5,57.5C 28.8333,57.5 27.1667,57.5 25.5,57.5C 25.762,56.0222 25.4287,54.6888 24.5,53.5C 22.3432,52.9495 20.3432,52.2829 18.5,51.5C 17.4489,50.7777 16.7822,49.7777 16.5,48.5 Z"/></g>
<g><path style="opacity:1" fill="#dddddd" d="M 32.5,46.5 C 34.0783,47.0656 35.4116,48.0656 36.5,49.5C 35.8333,50.1667 35.1667,50.8333 34.5,51.5C 37.4281,52.4841 40.4281,52.8174 43.5,52.5C 43.5,53.5 43.5,54.5 43.5,55.5C 41.712,55.2148 40.0453,55.5481 38.5,56.5C 39.6119,57.2652 40.2786,58.2652 40.5,59.5C 37.342,58.1242 34.0087,57.4576 30.5,57.5C 30.5,55.8333 30.5,54.1667 30.5,52.5C 32.3079,51.0821 32.9746,49.0821 32.5,46.5 Z"/></g>
<g><path style="opacity:1" fill="#e1e1e1" d="M 18.5,51.5 C 20.3432,52.2829 22.3432,52.9495 24.5,53.5C 25.4287,54.6888 25.762,56.0222 25.5,57.5C 25.6309,58.3764 25.2975,59.0431 24.5,59.5C 23.065,57.5989 21.3983,57.2655 19.5,58.5C 20.6119,59.2652 21.2786,60.2652 21.5,61.5C 21.5386,62.7562 21.0386,63.7562 20,64.5C 17.5129,62.8378 16.0129,60.5045 15.5,57.5C 15.1667,58.5 14.8333,59.5 14.5,60.5C 15.2043,62.5351 15.871,64.5351 16.5,66.5C 14.7211,68.3435 12.3878,69.0102 9.5,68.5C 10.0234,64.1094 10.6901,59.7761 11.5,55.5C 13.1667,55.5 14.8333,55.5 16.5,55.5C 16.1568,53.5168 16.8235,52.1834 18.5,51.5 Z"/></g>
<g><path style="opacity:0.958" fill="#b8b8b8" d="M 43.5,55.5 C 42.8505,57.4352 42.5172,59.4352 42.5,61.5C 41.8333,60.8333 41.1667,60.1667 40.5,59.5C 40.2786,58.2652 39.6119,57.2652 38.5,56.5C 40.0453,55.5481 41.712,55.2148 43.5,55.5 Z"/></g>
<g><path style="opacity:1" fill="#cfcfcf" d="M 25.5,57.5 C 27.1667,57.5 28.8333,57.5 30.5,57.5C 32.5,58.8333 34.5,60.1667 36.5,61.5C 33.9179,61.0254 31.9179,61.6921 30.5,63.5C 29.8333,63.5 29.1667,63.5 28.5,63.5C 26.7211,61.6565 24.3878,60.9898 21.5,61.5C 21.2786,60.2652 20.6119,59.2652 19.5,58.5C 21.3983,57.2655 23.065,57.5989 24.5,59.5C 25.2975,59.0431 25.6309,58.3764 25.5,57.5 Z"/></g>
<g><path style="opacity:1" fill="#e9e9e9" d="M 30.5,57.5 C 34.0087,57.4576 37.342,58.1242 40.5,59.5C 41.1667,60.1667 41.8333,60.8333 42.5,61.5C 42.1199,65.7532 43.7866,66.4199 47.5,63.5C 47.5,64.5 47.5,65.5 47.5,66.5C 48.675,66.281 49.675,66.6143 50.5,67.5C 48.3449,68.0014 46.6782,69.0014 45.5,70.5C 44.1667,70.5 42.8333,70.5 41.5,70.5C 41.762,69.0222 41.4287,67.6888 40.5,66.5C 39.3112,64.6366 37.9779,62.9699 36.5,61.5C 34.5,60.1667 32.5,58.8333 30.5,57.5 Z"/></g>
<g><path style="opacity:1" fill="#e5e5e5" d="M 36.5,61.5 C 36.5,64.5 36.5,67.5 36.5,70.5C 36.5106,72.0174 37.1772,73.1841 38.5,74C 37.4366,75.1882 36.1033,75.6882 34.5,75.5C 34.719,74.325 34.3857,73.325 33.5,72.5C 32.7348,73.6119 31.7348,74.2786 30.5,74.5C 30.5,73.8333 30.5,73.1667 30.5,72.5C 31.1834,70.8235 32.5168,70.1568 34.5,70.5C 34.5,69.1667 34.5,67.8333 34.5,66.5C 32.396,66.7989 30.396,66.4656 28.5,65.5C 29.2427,64.8182 29.9094,64.1515 30.5,63.5C 31.9179,61.6921 33.9179,61.0254 36.5,61.5 Z"/></g>
<g><path style="opacity:1" fill="#cbcbcb" d="M 48.5,63.5 C 52.8333,63.5 57.1667,63.5 61.5,63.5C 61.5,64.5 61.5,65.5 61.5,66.5C 60.5,66.5 59.5,66.5 58.5,66.5C 55.7814,66.6025 53.1147,66.2692 50.5,65.5C 49.2867,65.2528 48.62,64.5862 48.5,63.5 Z"/></g>
<g><path style="opacity:1" fill="#d2d2d2" d="M 21.5,61.5 C 24.3878,60.9898 26.7211,61.6565 28.5,63.5C 25.1031,62.8878 23.4364,64.5545 23.5,68.5C 21.8333,68.5 20.1667,68.5 18.5,68.5C 18.5,67.1667 17.8333,66.5 16.5,66.5C 15.871,64.5351 15.2043,62.5351 14.5,60.5C 14.8333,59.5 15.1667,58.5 15.5,57.5C 16.0129,60.5045 17.5129,62.8378 20,64.5C 21.0386,63.7562 21.5386,62.7562 21.5,61.5 Z"/></g>
<g><path style="opacity:1" fill="#e7e7e7" d="M 16.5,66.5 C 17.8333,66.5 18.5,67.1667 18.5,68.5C 18.6715,70.4918 18.0049,72.1585 16.5,73.5C 17.325,74.3857 18.325,74.719 19.5,74.5C 19.5,74.8333 19.5,75.1667 19.5,75.5C 18.7611,75.369 18.0944,75.5357 17.5,76C 19.0764,77.73 20.4097,79.5633 21.5,81.5C 21.6309,82.3764 21.2975,83.0431 20.5,83.5C 19.8182,82.7573 19.1515,82.0906 18.5,81.5C 16.5,81.5 14.5,81.5 12.5,81.5C 11.8166,79.8235 10.4832,79.1568 8.5,79.5C 8.94225,75.8455 9.27558,72.1788 9.5,68.5C 12.3878,69.0102 14.7211,68.3435 16.5,66.5 Z"/></g>
<g><path style="opacity:1" fill="#dddddd" d="M 28.5,63.5 C 29.1667,63.5 29.8333,63.5 30.5,63.5C 29.9094,64.1515 29.2427,64.8182 28.5,65.5C 30.396,66.4656 32.396,66.7989 34.5,66.5C 34.5,67.8333 34.5,69.1667 34.5,70.5C 32.5168,70.1568 31.1834,70.8235 30.5,72.5C 29.1779,72.67 28.0113,72.3366 27,71.5C 26.7216,72.4158 26.2216,73.0825 25.5,73.5C 25.9227,71.2188 25.256,69.5521 23.5,68.5C 23.4364,64.5545 25.1031,62.8878 28.5,63.5 Z"/></g>
<g><path style="opacity:1" fill="#dcdcdc" d="M 47.5,63.5 C 47.8333,63.5 48.1667,63.5 48.5,63.5C 48.62,64.5862 49.2867,65.2528 50.5,65.5C 53.1147,66.2692 55.7814,66.6025 58.5,66.5C 58.5,68.5 58.5,70.5 58.5,72.5C 55.8559,72.8399 53.5225,72.1733 51.5,70.5C 50.4777,70.8555 49.811,71.5222 49.5,72.5C 47.5168,72.8432 46.1834,72.1765 45.5,70.5C 46.6782,69.0014 48.3449,68.0014 50.5,67.5C 49.675,66.6143 48.675,66.281 47.5,66.5C 47.5,65.5 47.5,64.5 47.5,63.5 Z"/></g>
<g><path style="opacity:1" fill="#e9e9e9" d="M 63.5,63.5 C 68.1652,64.0777 72.4985,65.4111 76.5,67.5C 75.4489,68.2223 74.7822,69.2223 74.5,70.5C 70.715,70.6311 67.0483,71.2978 63.5,72.5C 63.5,69.5 63.5,66.5 63.5,63.5 Z"/></g>
<g><path style="opacity:1" fill="#c5c5c5" d="M 81.5,70.5 C 83.0269,70.427 84.0269,71.0937 84.5,72.5C 81.7531,72.8134 79.0865,72.48 76.5,71.5C 78.0453,70.5481 79.712,70.2148 81.5,70.5 Z"/></g>
<g><path style="opacity:1" fill="#f2f2f2" d="M 36.5,70.5 C 38.6636,70.7215 40.3303,71.7215 41.5,73.5C 40.7888,75.0301 39.7888,76.3634 38.5,77.5C 37.1667,77.5 35.8333,77.5 34.5,77.5C 34.5,76.8333 34.5,76.1667 34.5,75.5C 36.1033,75.6882 37.4366,75.1882 38.5,74C 37.1772,73.1841 36.5106,72.0174 36.5,70.5 Z"/></g>
<g><path style="opacity:1" fill="#ebebeb" d="M 18.5,68.5 C 20.1667,68.5 21.8333,68.5 23.5,68.5C 25.256,69.5521 25.9227,71.2188 25.5,73.5C 25.6309,74.3764 25.2975,75.0431 24.5,75.5C 23.1667,74.8333 21.8333,74.1667 20.5,73.5C 19.8933,73.6236 19.56,73.9569 19.5,74.5C 18.325,74.719 17.325,74.3857 16.5,73.5C 18.0049,72.1585 18.6715,70.4918 18.5,68.5 Z"/></g>
<g><path style="opacity:1" fill="#d2d2d2" d="M 36.5,61.5 C 37.9779,62.9699 39.3112,64.6366 40.5,66.5C 41.4287,67.6888 41.762,69.0222 41.5,70.5C 42.8333,70.5 44.1667,70.5 45.5,70.5C 46.1834,72.1765 47.5168,72.8432 49.5,72.5C 50.1667,72.5 50.5,72.8333 50.5,73.5C 49.0753,75.2535 47.4086,76.9201 45.5,78.5C 46.6119,79.2652 47.2786,80.2652 47.5,81.5C 46.1667,81.5 44.8333,81.5 43.5,81.5C 44.0356,78.3019 43.369,75.6353 41.5,73.5C 40.3303,71.7215 38.6636,70.7215 36.5,70.5C 36.5,67.5 36.5,64.5 36.5,61.5 Z"/></g>
<g><path style="opacity:1" fill="#cfcfcf" d="M 61.5,63.5 C 62.1667,63.5 62.8333,63.5 63.5,63.5C 63.5,66.5 63.5,69.5 63.5,72.5C 67.0483,71.2978 70.715,70.6311 74.5,70.5C 74.2623,73.0685 72.929,74.7352 70.5,75.5C 70.2648,74.9033 69.7648,74.5699 69,74.5C 66.7691,76.1997 64.2691,77.1997 61.5,77.5C 61.9227,75.2188 61.256,73.5521 59.5,72.5C 59.1667,72.5 58.8333,72.5 58.5,72.5C 58.5,70.5 58.5,68.5 58.5,66.5C 59.5,66.5 60.5,66.5 61.5,66.5C 61.5,65.5 61.5,64.5 61.5,63.5 Z"/></g>
<g><path style="opacity:1" fill="#d6d6d6" d="M 30.5,72.5 C 30.5,73.1667 30.5,73.8333 30.5,74.5C 29.9856,76.6984 28.9856,78.6984 27.5,80.5C 27.0431,81.2975 26.3764,81.6309 25.5,81.5C 25.5,80.1667 25.5,78.8333 25.5,77.5C 23.2821,77.3862 21.2821,76.7196 19.5,75.5C 19.5,75.1667 19.5,74.8333 19.5,74.5C 19.56,73.9569 19.8933,73.6236 20.5,73.5C 21.8333,74.1667 23.1667,74.8333 24.5,75.5C 25.2975,75.0431 25.6309,74.3764 25.5,73.5C 26.2216,73.0825 26.7216,72.4158 27,71.5C 28.0113,72.3366 29.1779,72.67 30.5,72.5 Z"/></g>
<g><path style="opacity:1" fill="#dfdfdf" d="M 50.5,73.5 C 51.6049,74.6005 52.9382,75.2671 54.5,75.5C 53.6649,76.9432 52.3316,77.9432 50.5,78.5C 52.0049,79.8415 52.6715,81.5082 52.5,83.5C 50.9891,82.4975 49.3224,81.8308 47.5,81.5C 47.2786,80.2652 46.6119,79.2652 45.5,78.5C 47.4086,76.9201 49.0753,75.2535 50.5,73.5 Z"/></g>
<g><path style="opacity:1" fill="#ededed" d="M 58.5,72.5 C 58.8333,72.5 59.1667,72.5 59.5,72.5C 60.5981,73.397 60.5981,74.2303 59.5,75C 57.8659,75.4935 56.1992,75.6602 54.5,75.5C 52.9382,75.2671 51.6049,74.6005 50.5,73.5C 50.5,72.8333 50.1667,72.5 49.5,72.5C 49.811,71.5222 50.4777,70.8555 51.5,70.5C 53.5225,72.1733 55.8559,72.8399 58.5,72.5 Z"/></g>
<g><path style="opacity:1" fill="#dcdcdc" d="M 76.5,67.5 C 78.674,67.7497 80.3406,68.7497 81.5,70.5C 79.712,70.2148 78.0453,70.5481 76.5,71.5C 79.0865,72.48 81.7531,72.8134 84.5,72.5C 80.4289,74.0847 76.4289,76.0847 72.5,78.5C 75.4281,79.4841 78.4281,79.8174 81.5,79.5C 81.762,80.9778 81.4287,82.3112 80.5,83.5C 78.1324,81.777 75.4658,81.1103 72.5,81.5C 72.5,82.5 72.5,83.5 72.5,84.5C 70.9519,84.1788 70.2852,83.1788 70.5,81.5C 70.5,79.5 70.5,77.5 70.5,75.5C 72.929,74.7352 74.2623,73.0685 74.5,70.5C 74.7822,69.2223 75.4489,68.2223 76.5,67.5 Z"/></g>
<g><path style="opacity:1" fill="#efefef" d="M 70.5,75.5 C 70.5,77.5 70.5,79.5 70.5,81.5C 66.715,81.3689 63.0483,80.7022 59.5,79.5C 59.5,78.1667 60.1667,77.5 61.5,77.5C 64.2691,77.1997 66.7691,76.1997 69,74.5C 69.7648,74.5699 70.2648,74.9033 70.5,75.5 Z"/></g>
<g><path style="opacity:1" fill="#c8c8c8" d="M 19.5,75.5 C 21.2821,76.7196 23.2821,77.3862 25.5,77.5C 25.5,78.8333 25.5,80.1667 25.5,81.5C 24.1667,81.5 22.8333,81.5 21.5,81.5C 20.4097,79.5633 19.0764,77.73 17.5,76C 18.0944,75.5357 18.7611,75.369 19.5,75.5 Z"/></g>
<g><path style="opacity:1" fill="#dbdbdb" d="M 34.5,75.5 C 34.5,76.1667 34.5,76.8333 34.5,77.5C 32.8235,78.1834 32.1568,79.5168 32.5,81.5C 34.5,81.5 36.5,81.5 38.5,81.5C 37.7375,82.2679 36.7375,82.7679 35.5,83C 37.5183,83.5046 39.5183,84.0046 41.5,84.5C 41.5,85.1667 41.5,85.8333 41.5,86.5C 38.5,86.5 35.5,86.5 32.5,86.5C 32.5,85.5 32.5,84.5 32.5,83.5C 27.8592,84.1266 23.1925,84.4599 18.5,84.5C 18.5,83.5 18.5,82.5 18.5,81.5C 19.1515,82.0906 19.8182,82.7573 20.5,83.5C 21.2975,83.0431 21.6309,82.3764 21.5,81.5C 22.8333,81.5 24.1667,81.5 25.5,81.5C 26.3764,81.6309 27.0431,81.2975 27.5,80.5C 28.9856,78.6984 29.9856,76.6984 30.5,74.5C 31.7348,74.2786 32.7348,73.6119 33.5,72.5C 34.3857,73.325 34.719,74.325 34.5,75.5 Z"/></g>
<g><path style="opacity:1" fill="#c6c6c6" d="M 34.5,77.5 C 35.8333,77.5 37.1667,77.5 38.5,77.5C 39.8333,78.8333 39.8333,80.1667 38.5,81.5C 36.5,81.5 34.5,81.5 32.5,81.5C 32.1568,79.5168 32.8235,78.1834 34.5,77.5 Z"/></g>
<g><path style="opacity:1" fill="#dedede" d="M 41.5,73.5 C 43.369,75.6353 44.0356,78.3019 43.5,81.5C 43.7822,82.7777 44.4489,83.7777 45.5,84.5C 44.1667,84.5 42.8333,84.5 41.5,84.5C 39.5183,84.0046 37.5183,83.5046 35.5,83C 36.7375,82.7679 37.7375,82.2679 38.5,81.5C 39.8333,80.1667 39.8333,78.8333 38.5,77.5C 39.7888,76.3634 40.7888,75.0301 41.5,73.5 Z"/></g>
<g><path style="opacity:1" fill="#d5d5d5" d="M 59.5,72.5 C 61.256,73.5521 61.9227,75.2188 61.5,77.5C 60.1667,77.5 59.5,78.1667 59.5,79.5C 58.5,79.5 57.5,79.5 56.5,79.5C 54.744,80.5521 54.0773,82.2188 54.5,84.5C 53.5084,84.6716 52.8417,84.3382 52.5,83.5C 52.6715,81.5082 52.0049,79.8415 50.5,78.5C 52.3316,77.9432 53.6649,76.9432 54.5,75.5C 56.1992,75.6602 57.8659,75.4935 59.5,75C 60.5981,74.2303 60.5981,73.397 59.5,72.5 Z"/></g>
<g><path style="opacity:1" fill="#e7e7e7" d="M 84.5,72.5 C 85.5,72.8333 86.1667,73.5 86.5,74.5C 85.8501,74.8039 85.1835,75.1373 84.5,75.5C 84.1667,77.1667 83.8333,78.8333 83.5,80.5C 83.5561,82.6397 84.2227,84.3064 85.5,85.5C 84.4489,86.2223 83.7822,87.2223 83.5,88.5C 80.4359,88.9275 77.4359,89.5942 74.5,90.5C 74.5,91.8333 74.5,93.1667 74.5,94.5C 72.8235,93.8166 72.1568,92.4832 72.5,90.5C 72.5,89.8333 72.5,89.1667 72.5,88.5C 72.5,87.1667 72.5,85.8333 72.5,84.5C 72.5,83.5 72.5,82.5 72.5,81.5C 75.4658,81.1103 78.1324,81.777 80.5,83.5C 81.4287,82.3112 81.762,80.9778 81.5,79.5C 78.4281,79.8174 75.4281,79.4841 72.5,78.5C 76.4289,76.0847 80.4289,74.0847 84.5,72.5 Z"/></g>
<g><path style="opacity:0.906" fill="#c0c0c0" d="M 8.5,79.5 C 10.4832,79.1568 11.8166,79.8235 12.5,81.5C 11.1667,81.5 9.83333,81.5 8.5,81.5C 8.5,80.8333 8.5,80.1667 8.5,79.5 Z"/></g>
<g><path style="opacity:1" fill="#e7e7e7" d="M 43.5,81.5 C 44.8333,81.5 46.1667,81.5 47.5,81.5C 49.3224,81.8308 50.9891,82.4975 52.5,83.5C 52.8417,84.3382 53.5084,84.6716 54.5,84.5C 54.5,85.1667 54.5,85.8333 54.5,86.5C 53.8333,86.5 53.1667,86.5 52.5,86.5C 51.5,86.5 50.5,86.5 49.5,86.5C 48.1667,85.8333 46.8333,85.1667 45.5,84.5C 44.4489,83.7777 43.7822,82.7777 43.5,81.5 Z"/></g>
<g><path style="opacity:1" fill="#d9d9d9" d="M 86.5,74.5 C 87.8333,75.1667 88.8333,76.1667 89.5,77.5C 85.7429,77.2864 85.0762,78.2864 87.5,80.5C 85.9951,81.8415 85.3285,83.5082 85.5,85.5C 84.2227,84.3064 83.5561,82.6397 83.5,80.5C 83.8333,78.8333 84.1667,77.1667 84.5,75.5C 85.1835,75.1373 85.8501,74.8039 86.5,74.5 Z"/></g>
<g><path style="opacity:1" fill="#a4a4a4" d="M 56.5,79.5 C 56.9227,81.7812 56.256,83.4479 54.5,84.5C 54.0773,82.2188 54.744,80.5521 56.5,79.5 Z"/></g>
<g><path style="opacity:1" fill="#c5c5c5" d="M 56.5,79.5 C 57.5,79.5 58.5,79.5 59.5,79.5C 63.0483,80.7022 66.715,81.3689 70.5,81.5C 70.2852,83.1788 70.9519,84.1788 72.5,84.5C 72.5,85.8333 72.5,87.1667 72.5,88.5C 70.1667,87.1667 67.8333,85.8333 65.5,84.5C 65.5,85.8333 65.5,87.1667 65.5,88.5C 64.1667,88.5 62.8333,88.5 61.5,88.5C 61.7692,86.5714 61.2692,84.9047 60,83.5C 58.4941,85.1742 56.6607,86.1742 54.5,86.5C 54.5,85.8333 54.5,85.1667 54.5,84.5C 56.256,83.4479 56.9227,81.7812 56.5,79.5 Z"/></g>
<g><path style="opacity:1" fill="#d2d2d2" d="M 61.5,88.5 C 61.6347,90.5542 60.968,92.2209 59.5,93.5C 55.2668,90.9098 50.6002,89.9098 45.5,90.5C 44.1667,89.1667 42.8333,87.8333 41.5,86.5C 41.5,85.8333 41.5,85.1667 41.5,84.5C 42.8333,84.5 44.1667,84.5 45.5,84.5C 46.8333,85.1667 48.1667,85.8333 49.5,86.5C 50.5,89.1667 51.5,89.1667 52.5,86.5C 53.1667,86.5 53.8333,86.5 54.5,86.5C 56.6607,86.1742 58.4941,85.1742 60,83.5C 61.2692,84.9047 61.7692,86.5714 61.5,88.5 Z"/></g>
<g><path style="opacity:1" fill="#efefef" d="M 89.5,77.5 C 90.4884,78.795 91.4884,80.1283 92.5,81.5C 89.491,82.8476 87.8244,85.1809 87.5,88.5C 88.5,88.5 89.5,88.5 90.5,88.5C 90.7214,89.7348 91.3881,90.7348 92.5,91.5C 91.7573,92.1818 91.0906,92.8485 90.5,93.5C 89.8501,93.8039 89.1835,94.1373 88.5,94.5C 87.7348,93.3881 86.7348,92.7214 85.5,92.5C 84.8333,92.5 84.1667,92.5 83.5,92.5C 83.5,91.1667 83.5,89.8333 83.5,88.5C 83.7822,87.2223 84.4489,86.2223 85.5,85.5C 85.3285,83.5082 85.9951,81.8415 87.5,80.5C 85.0762,78.2864 85.7429,77.2864 89.5,77.5 Z"/></g>
<g><path style="opacity:0.984" fill="#e4e4e4" d="M 92.5,81.5 C 94.6007,84.1268 95.9341,87.1268 96.5,90.5C 94.7179,89.2804 92.7179,88.6138 90.5,88.5C 89.5,88.5 88.5,88.5 87.5,88.5C 87.8244,85.1809 89.491,82.8476 92.5,81.5 Z"/></g>
<g><path style="opacity:1" fill="#dfdfdf" d="M 14.5,84.5 C 15.552,84.3505 16.552,84.5172 17.5,85C 16.0691,87.5385 16.7358,89.3718 19.5,90.5C 21.8912,89.8086 21.8912,88.8086 19.5,87.5C 23.7828,86.5078 28.1161,86.1744 32.5,86.5C 35.5,86.5 38.5,86.5 41.5,86.5C 42.8333,87.8333 44.1667,89.1667 45.5,90.5C 43.4214,90.9707 41.4214,91.6373 39.5,92.5C 39.5,91.8333 39.5,91.1667 39.5,90.5C 40.0431,90.44 40.3764,90.1067 40.5,89.5C 39.1667,89.1667 37.8333,88.8333 36.5,88.5C 34.6672,88.5854 33.3339,89.2521 32.5,90.5C 31.2436,90.0962 30.0769,89.4295 29,88.5C 28.5,88.8333 28,89.1667 27.5,89.5C 28.6119,90.2652 29.2786,91.2652 29.5,92.5C 28.1667,92.5 26.8333,92.5 25.5,92.5C 24.8333,87.1667 24.1667,87.1667 23.5,92.5C 16.9936,93.6569 13.9936,90.9902 14.5,84.5 Z"/></g>
<g><path style="opacity:1" fill="#d0d0d0" d="M 72.5,88.5 C 72.5,89.1667 72.5,89.8333 72.5,90.5C 71.0222,90.238 69.6888,90.5713 68.5,91.5C 69.8532,92.5237 70.5198,93.857 70.5,95.5C 68.8212,95.7148 67.8212,95.0481 67.5,93.5C 66.032,92.2209 65.3653,90.5542 65.5,88.5C 65.5,87.1667 65.5,85.8333 65.5,84.5C 67.8333,85.8333 70.1667,87.1667 72.5,88.5 Z"/></g>
<g><path style="opacity:1" fill="#b6b6b6" d="M 49.5,86.5 C 50.5,86.5 51.5,86.5 52.5,86.5C 51.5,89.1667 50.5,89.1667 49.5,86.5 Z"/></g>
<g><path style="opacity:0.862" fill="#dfdfdf" d="M 8.5,81.5 C 9.83333,81.5 11.1667,81.5 12.5,81.5C 12.5,81.8333 12.5,82.1667 12.5,82.5C 12.8399,85.1441 12.1733,87.4775 10.5,89.5C 11.8532,90.5237 12.5198,91.857 12.5,93.5C 10.9582,92.6993 9.29152,92.366 7.5,92.5C 7.32274,88.7657 7.65608,85.0991 8.5,81.5 Z"/></g>
<g><path style="opacity:1" fill="#cacaca" d="M 12.5,82.5 C 12.5,82.1667 12.5,81.8333 12.5,81.5C 14.5,81.5 16.5,81.5 18.5,81.5C 18.5,82.5 18.5,83.5 18.5,84.5C 23.1925,84.4599 27.8592,84.1266 32.5,83.5C 32.5,84.5 32.5,85.5 32.5,86.5C 28.1161,86.1744 23.7828,86.5078 19.5,87.5C 21.8912,88.8086 21.8912,89.8086 19.5,90.5C 16.7358,89.3718 16.0691,87.5385 17.5,85C 16.552,84.5172 15.552,84.3505 14.5,84.5C 14.5,83.1667 13.8333,82.5 12.5,82.5 Z"/></g>
<g><path style="opacity:1" fill="#cccccc" d="M 39.5,90.5 C 38.4477,91.5305 37.1143,92.1971 35.5,92.5C 33.9704,92.3601 32.9704,91.6935 32.5,90.5C 33.3339,89.2521 34.6672,88.5854 36.5,88.5C 37.8333,88.8333 39.1667,89.1667 40.5,89.5C 40.3764,90.1067 40.0431,90.44 39.5,90.5 Z"/></g>
<g><path style="opacity:1" fill="#d1d1d1" d="M 83.5,88.5 C 83.5,89.8333 83.5,91.1667 83.5,92.5C 82.1001,93.0998 81.1001,94.0998 80.5,95.5C 78.5168,95.1568 77.1834,95.8235 76.5,97.5C 76.5,98.8333 75.8333,99.5 74.5,99.5C 74.5,97.8333 74.5,96.1667 74.5,94.5C 74.5,93.1667 74.5,91.8333 74.5,90.5C 77.4359,89.5942 80.4359,88.9275 83.5,88.5 Z"/></g>
<g><path style="opacity:0.994" fill="#d9d9d9" d="M 90.5,88.5 C 92.7179,88.6138 94.7179,89.2804 96.5,90.5C 96.8333,91.1667 97.1667,91.8333 97.5,92.5C 96.5,92.5 95.5,92.5 94.5,92.5C 94.2852,94.1788 94.9519,95.1788 96.5,95.5C 96.6309,96.3764 96.2975,97.0431 95.5,97.5C 94.5832,96.8728 93.5832,96.5394 92.5,96.5C 91.4489,95.7777 90.7822,94.7777 90.5,93.5C 91.0906,92.8485 91.7573,92.1818 92.5,91.5C 91.3881,90.7348 90.7214,89.7348 90.5,88.5 Z"/></g>
<g><path style="opacity:1" fill="#c4c4c4" d="M 12.5,82.5 C 13.8333,82.5 14.5,83.1667 14.5,84.5C 13.9936,90.9902 16.9936,93.6569 23.5,92.5C 24.1667,87.1667 24.8333,87.1667 25.5,92.5C 26.8333,92.5 28.1667,92.5 29.5,92.5C 30.404,93.209 30.7373,94.209 30.5,95.5C 27.9952,94.5829 25.6618,94.5829 23.5,95.5C 19.8641,94.6745 16.1974,94.0078 12.5,93.5C 12.5198,91.857 11.8532,90.5237 10.5,89.5C 12.1733,87.4775 12.8399,85.1441 12.5,82.5 Z"/></g>
<g><path style="opacity:0.875" fill="#dadada" d="M 61.5,88.5 C 62.8333,88.5 64.1667,88.5 65.5,88.5C 65.3653,90.5542 66.032,92.2209 67.5,93.5C 65.8235,94.1834 65.1568,95.5168 65.5,97.5C 64.8333,97.5 64.1667,97.5 63.5,97.5C 62.1667,96.1667 60.8333,94.8333 59.5,93.5C 60.968,92.2209 61.6347,90.5542 61.5,88.5 Z"/></g>
<g><path style="opacity:1" fill="#e9e9e9" d="M 72.5,90.5 C 72.1568,92.4832 72.8235,93.8166 74.5,94.5C 74.5,96.1667 74.5,97.8333 74.5,99.5C 73.8333,99.5 73.1667,99.5 72.5,99.5C 70.7211,97.6565 68.3878,96.9898 65.5,97.5C 65.1568,95.5168 65.8235,94.1834 67.5,93.5C 67.8212,95.0481 68.8212,95.7148 70.5,95.5C 70.5198,93.857 69.8532,92.5237 68.5,91.5C 69.6888,90.5713 71.0222,90.238 72.5,90.5 Z"/></g>
<g><path style="opacity:0.875" fill="#dcdcdc" d="M 32.5,90.5 C 32.9704,91.6935 33.9704,92.3601 35.5,92.5C 37.1143,92.1971 38.4477,91.5305 39.5,90.5C 39.5,91.1667 39.5,91.8333 39.5,92.5C 37.2294,94.2659 35.0627,96.2659 33,98.5C 29.8504,97.4214 26.6837,96.4214 23.5,95.5C 25.6618,94.5829 27.9952,94.5829 30.5,95.5C 30.7373,94.209 30.404,93.209 29.5,92.5C 29.2786,91.2652 28.6119,90.2652 27.5,89.5C 28,89.1667 28.5,88.8333 29,88.5C 30.0769,89.4295 31.2436,90.0962 32.5,90.5 Z"/></g>
<g><path style="opacity:1" fill="#dfdfdf" d="M 83.5,92.5 C 84.1667,96.5 84.8333,96.5 85.5,92.5C 86.7348,92.7214 87.7348,93.3881 88.5,94.5C 89.1835,94.1373 89.8501,93.8039 90.5,93.5C 90.7822,94.7777 91.4489,95.7777 92.5,96.5C 91.4489,97.2223 90.7822,98.2223 90.5,99.5C 91.5025,101.011 92.1692,102.678 92.5,104.5C 90.5168,104.157 89.1834,104.824 88.5,106.5C 87.7777,105.449 86.7777,104.782 85.5,104.5C 86.968,103.221 87.6347,101.554 87.5,99.5C 88.2216,99.9175 88.7216,100.584 89,101.5C 89.49,100.207 89.6567,98.8734 89.5,97.5C 86.2123,97.073 83.2123,97.7397 80.5,99.5C 79.3744,98.1916 79.3744,96.8583 80.5,95.5C 81.1001,94.0998 82.1001,93.0998 83.5,92.5 Z"/></g>
<g><path style="opacity:1" fill="#b7b7b7" d="M 83.5,92.5 C 84.1667,92.5 84.8333,92.5 85.5,92.5C 84.8333,96.5 84.1667,96.5 83.5,92.5 Z"/></g>
<g><path style="opacity:1" fill="#b9b9b9" d="M 97.5,92.5 C 97.5,93.1667 97.5,93.8333 97.5,94.5C 97.5,95.1667 97.1667,95.5 96.5,95.5C 94.9519,95.1788 94.2852,94.1788 94.5,92.5C 95.5,92.5 96.5,92.5 97.5,92.5 Z"/></g>
<g><path style="opacity:0.976" fill="#e1e1e1" d="M 97.5,94.5 C 98.6572,97.2727 99.3239,100.273 99.5,103.5C 96.7138,101.721 93.7138,100.388 90.5,99.5C 90.7822,98.2223 91.4489,97.2223 92.5,96.5C 93.5832,96.5394 94.5832,96.8728 95.5,97.5C 96.2975,97.0431 96.6309,96.3764 96.5,95.5C 97.1667,95.5 97.5,95.1667 97.5,94.5 Z"/></g>
<g><path style="opacity:1" fill="#cacaca" d="M 63.5,97.5 C 64.1667,97.5 64.8333,97.5 65.5,97.5C 68.3878,96.9898 70.7211,97.6565 72.5,99.5C 69.6122,98.9898 67.2789,99.6565 65.5,101.5C 65.5,102.167 65.5,102.833 65.5,103.5C 64.5418,101.698 63.8751,99.6976 63.5,97.5 Z"/></g>
<g><path style="opacity:1" fill="#e9e9e9" d="M 80.5,95.5 C 79.3744,96.8583 79.3744,98.1916 80.5,99.5C 83.2123,97.7397 86.2123,97.073 89.5,97.5C 89.6567,98.8734 89.49,100.207 89,101.5C 88.7216,100.584 88.2216,99.9175 87.5,99.5C 86.1667,99.5 84.8333,99.5 83.5,99.5C 83.5,101.167 83.5,102.833 83.5,104.5C 82.1667,104.5 80.8333,104.5 79.5,104.5C 80.0906,103.849 80.7573,103.182 81.5,102.5C 79.1461,101.406 77.4794,99.7389 76.5,97.5C 77.1834,95.8235 78.5168,95.1568 80.5,95.5 Z"/></g>
<g><path style="opacity:1" fill="#dbdbdb" d="M 76.5,97.5 C 77.4794,99.7389 79.1461,101.406 81.5,102.5C 80.7573,103.182 80.0906,103.849 79.5,104.5C 79.5,105.167 79.5,105.833 79.5,106.5C 79.1667,106.5 78.8333,106.5 78.5,106.5C 75.5075,99.9295 74.1742,100.596 74.5,108.5C 73.8333,108.5 73.1667,108.5 72.5,108.5C 72.5,107.167 71.8333,106.5 70.5,106.5C 71.5025,104.989 72.1692,103.322 72.5,101.5C 70.1667,101.5 67.8333,101.5 65.5,101.5C 67.2789,99.6565 69.6122,98.9898 72.5,99.5C 73.1667,99.5 73.8333,99.5 74.5,99.5C 75.8333,99.5 76.5,98.8333 76.5,97.5 Z"/></g>
<g><path style="opacity:1" fill="#d1d1d1" d="M 87.5,99.5 C 87.6347,101.554 86.968,103.221 85.5,104.5C 84.8333,107.167 84.1667,107.167 83.5,104.5C 83.5,102.833 83.5,101.167 83.5,99.5C 84.8333,99.5 86.1667,99.5 87.5,99.5 Z"/></g>
<g><path style="opacity:1" fill="#d2d2d2" d="M 90.5,99.5 C 93.7138,100.388 96.7138,101.721 99.5,103.5C 99.5,104.5 99.5,105.5 99.5,106.5C 98.5,106.5 97.5,106.5 96.5,106.5C 96.8432,108.483 96.1765,109.817 94.5,110.5C 94.5,109.167 94.5,107.833 94.5,106.5C 92.5,106.5 90.5,106.5 88.5,106.5C 89.1834,104.824 90.5168,104.157 92.5,104.5C 92.1692,102.678 91.5025,101.011 90.5,99.5 Z"/></g>
<g><path style="opacity:1" fill="#ebebeb" d="M 65.5,101.5 C 67.8333,101.5 70.1667,101.5 72.5,101.5C 72.1692,103.322 71.5025,104.989 70.5,106.5C 68.6776,106.169 67.0109,105.502 65.5,104.5C 65.5,104.167 65.5,103.833 65.5,103.5C 65.5,102.833 65.5,102.167 65.5,101.5 Z"/></g>
<g><path style="opacity:1" fill="#cecece" d="M 78.5,106.5 C 77.6236,106.369 76.9569,106.702 76.5,107.5C 77.325,108.386 78.325,108.719 79.5,108.5C 79.5,109.167 79.5,109.833 79.5,110.5C 78.5,110.5 77.5,110.5 76.5,110.5C 76.5,111.5 76.5,112.5 76.5,113.5C 74.2821,113.614 72.2821,114.28 70.5,115.5C 69.8333,113.833 69.1667,112.167 68.5,110.5C 70.4918,110.328 72.1585,110.995 73.5,112.5C 74.4287,111.311 74.762,109.978 74.5,108.5C 74.1742,100.596 75.5075,99.9295 78.5,106.5 Z"/></g>
<g><path style="opacity:1" fill="#ececec" d="M 79.5,104.5 C 80.8333,104.5 82.1667,104.5 83.5,104.5C 84.1667,107.167 84.8333,107.167 85.5,104.5C 86.7777,104.782 87.7777,105.449 88.5,106.5C 90.5,106.5 92.5,106.5 94.5,106.5C 94.5,107.833 94.5,109.167 94.5,110.5C 89.1919,110.173 84.1919,108.839 79.5,106.5C 79.5,105.833 79.5,105.167 79.5,104.5 Z"/></g>
<g><path style="opacity:1" fill="#cccccc" d="M 65.5,104.5 C 67.0109,105.502 68.6776,106.169 70.5,106.5C 71.8333,106.5 72.5,107.167 72.5,108.5C 70.5168,108.157 69.1834,108.824 68.5,110.5C 67.7777,109.449 66.7777,108.782 65.5,108.5C 65.5,107.167 65.5,105.833 65.5,104.5 Z"/></g>
<g><path style="opacity:1" fill="#a2a2a2" d="M 78.5,106.5 C 78.8333,106.5 79.1667,106.5 79.5,106.5C 79.5,107.167 79.5,107.833 79.5,108.5C 78.325,108.719 77.325,108.386 76.5,107.5C 76.9569,106.702 77.6236,106.369 78.5,106.5 Z"/></g>
<g><path style="opacity:1" fill="#b9b9b9" d="M 72.5,108.5 C 73.1667,108.5 73.8333,108.5 74.5,108.5C 74.762,109.978 74.4287,111.311 73.5,112.5C 72.1585,110.995 70.4918,110.328 68.5,110.5C 69.1834,108.824 70.5168,108.157 72.5,108.5 Z"/></g>
<g><path style="opacity:0.95" fill="#ededed" d="M 30.5,112.5 C 30.5,112.167 30.5,111.833 30.5,111.5C 32.8568,111.337 35.1902,111.503 37.5,112C 38.4061,113.699 38.7394,115.533 38.5,117.5C 36.5,117.5 34.5,117.5 32.5,117.5C 32.9227,115.219 32.256,113.552 30.5,112.5 Z"/></g>
<g><path style="opacity:1" fill="#e0e0e0" d="M 14.5,111.5 C 19.8333,111.5 25.1667,111.5 30.5,111.5C 30.5,111.833 30.5,112.167 30.5,112.5C 27.7626,113.051 25.0959,114.051 22.5,115.5C 22.1667,116.167 21.8333,116.833 21.5,117.5C 22.7545,119.334 23.4211,121.334 23.5,123.5C 22.0222,123.762 20.6888,123.429 19.5,122.5C 18.0816,118.667 16.4149,115 14.5,111.5 Z"/></g>
<g><path style="opacity:1" fill="#d4d4d4" d="M 79.5,106.5 C 84.1919,108.839 89.1919,110.173 94.5,110.5C 94.5,112.167 94.5,113.833 94.5,115.5C 93.4168,115.539 92.4168,115.873 91.5,116.5C 90.6143,115.675 90.281,114.675 90.5,113.5C 89.0695,113.579 87.7362,113.246 86.5,112.5C 85.2612,114.007 85.5946,115.174 87.5,116C 86.2068,116.49 84.8734,116.657 83.5,116.5C 83.719,115.325 83.3857,114.325 82.5,113.5C 81.8933,113.624 81.56,113.957 81.5,114.5C 80.391,114.557 79.391,114.89 78.5,115.5C 78.4802,113.857 79.1468,112.524 80.5,111.5C 80.3764,110.893 80.0431,110.56 79.5,110.5C 79.5,109.833 79.5,109.167 79.5,108.5C 79.5,107.833 79.5,107.167 79.5,106.5 Z"/></g>
<g><path style="opacity:1" fill="#eeeeee" d="M 30.5,112.5 C 32.256,113.552 32.9227,115.219 32.5,117.5C 32.1788,119.048 31.1788,119.715 29.5,119.5C 27.8235,120.183 27.1568,121.517 27.5,123.5C 26.1667,123.5 24.8333,123.5 23.5,123.5C 23.4211,121.334 22.7545,119.334 21.5,117.5C 21.8333,116.833 22.1667,116.167 22.5,115.5C 25.0959,114.051 27.7626,113.051 30.5,112.5 Z"/></g>
<g><path style="opacity:0.992" fill="#e7e7e7" d="M 65.5,108.5 C 66.7777,108.782 67.7777,109.449 68.5,110.5C 69.1667,112.167 69.8333,113.833 70.5,115.5C 70.5,116.833 70.5,118.167 70.5,119.5C 70.5858,120.496 70.2524,121.329 69.5,122C 68,122.5 66.5,123 65,123.5C 64.2352,123.43 63.7352,123.097 63.5,122.5C 63.6287,120.784 63.962,119.117 64.5,117.5C 65.675,117.719 66.675,117.386 67.5,116.5C 67.0431,115.702 66.3764,115.369 65.5,115.5C 65.5,113.167 65.5,110.833 65.5,108.5 Z"/></g>
<g><path style="opacity:1" fill="#e5e5e5" d="M 94.5,115.5 C 92.8413,118.139 91.008,118.139 89,115.5C 88.7216,116.416 88.2216,117.082 87.5,117.5C 85.4458,117.365 83.7791,118.032 82.5,119.5C 82.6716,118.508 82.3382,117.842 81.5,117.5C 81.5,116.5 81.5,115.5 81.5,114.5C 81.56,113.957 81.8933,113.624 82.5,113.5C 83.3857,114.325 83.719,115.325 83.5,116.5C 84.8734,116.657 86.2068,116.49 87.5,116C 85.5946,115.174 85.2612,114.007 86.5,112.5C 87.7362,113.246 89.0695,113.579 90.5,113.5C 90.281,114.675 90.6143,115.675 91.5,116.5C 92.4168,115.873 93.4168,115.539 94.5,115.5 Z"/></g>
<g><path style="opacity:0.944" fill="#eeeeee" d="M 99.5,106.5 C 99.8182,111.032 99.4849,115.366 98.5,119.5C 95.1445,119.091 92.1445,119.758 89.5,121.5C 88.8333,120.167 88.1667,118.833 87.5,117.5C 88.2216,117.082 88.7216,116.416 89,115.5C 91.008,118.139 92.8413,118.139 94.5,115.5C 94.5,113.833 94.5,112.167 94.5,110.5C 96.1765,109.817 96.8432,108.483 96.5,106.5C 97.5,106.5 98.5,106.5 99.5,106.5 Z"/></g>
<g><path style="opacity:1" fill="#c0c0c0" d="M 12.5,116.5 C 12.5,117.5 12.5,118.5 12.5,119.5C 11.5,119.5 10.5,119.5 9.5,119.5C 8.81658,117.824 7.48324,117.157 5.5,117.5C 5.5,116.5 5.5,115.5 5.5,114.5C 8.07577,114.468 10.4091,115.135 12.5,116.5 Z"/></g>
<g><path style="opacity:1" fill="#e0e0e0" d="M 79.5,110.5 C 80.0431,110.56 80.3764,110.893 80.5,111.5C 79.1468,112.524 78.4802,113.857 78.5,115.5C 78.5,116.167 78.5,116.833 78.5,117.5C 77.9569,117.56 77.6236,117.893 77.5,118.5C 78.5,119.167 79.5,119.833 80.5,120.5C 79.0508,121.172 77.7175,121.839 76.5,122.5C 75.1667,122.5 73.8333,122.5 72.5,122.5C 72.7148,120.821 72.0481,119.821 70.5,119.5C 70.5,118.167 70.5,116.833 70.5,115.5C 72.2821,114.28 74.2821,113.614 76.5,113.5C 76.5,112.5 76.5,111.5 76.5,110.5C 77.5,110.5 78.5,110.5 79.5,110.5 Z"/></g>
<g><path style="opacity:1" fill="#c9c9c9" d="M 65.5,115.5 C 66.3764,115.369 67.0431,115.702 67.5,116.5C 66.675,117.386 65.675,117.719 64.5,117.5C 64.3284,116.508 64.6618,115.842 65.5,115.5 Z"/></g>
<g><path style="opacity:1" fill="#b0b0b0" d="M 81.5,114.5 C 81.5,115.5 81.5,116.5 81.5,117.5C 80.5,117.5 79.5,117.5 78.5,117.5C 78.5,116.833 78.5,116.167 78.5,115.5C 79.391,114.89 80.391,114.557 81.5,114.5 Z"/></g>
<g><path style="opacity:1" fill="#dfdfdf" d="M 12.5,116.5 C 10.4091,115.135 8.07577,114.468 5.5,114.5C 5.5,115.5 5.5,116.5 5.5,117.5C 7.48324,117.157 8.81658,117.824 9.5,119.5C 6.85795,119.488 5.52462,120.821 5.5,123.5C 4.52056,120.375 4.18723,117.042 4.5,113.5C 7.16667,113.167 9.83333,112.833 12.5,112.5C 12.5,113.833 12.5,115.167 12.5,116.5 Z"/></g>
<g><path style="opacity:1" fill="#e3e3e3" d="M 78.5,117.5 C 79.5,117.5 80.5,117.5 81.5,117.5C 82.3382,117.842 82.6716,118.508 82.5,119.5C 81.9569,119.56 81.6236,119.893 81.5,120.5C 82.6119,121.265 83.2786,122.265 83.5,123.5C 81.9519,123.821 81.2852,124.821 81.5,126.5C 78.0504,127.244 76.3838,125.91 76.5,122.5C 77.7175,121.839 79.0508,121.172 80.5,120.5C 79.5,119.833 78.5,119.167 77.5,118.5C 77.6236,117.893 77.9569,117.56 78.5,117.5 Z"/></g>
<g><path style="opacity:1" fill="#e9e9e9" d="M 14.5,111.5 C 16.4149,115 18.0816,118.667 19.5,122.5C 20.6888,123.429 22.0222,123.762 23.5,123.5C 23.5,125.167 23.5,126.833 23.5,128.5C 25.4832,128.843 26.8166,128.176 27.5,126.5C 29.1765,127.183 29.8432,128.517 29.5,130.5C 26.9179,130.025 24.9179,130.692 23.5,132.5C 22.8333,132.5 22.1667,132.5 21.5,132.5C 21.2786,131.265 20.6119,130.265 19.5,129.5C 20.6119,128.735 21.2786,127.735 21.5,126.5C 17.9688,124.568 14.3022,122.902 10.5,121.5C 8.67761,121.831 7.01094,122.498 5.5,123.5C 5.52462,120.821 6.85795,119.488 9.5,119.5C 10.5,119.5 11.5,119.5 12.5,119.5C 12.5,118.5 12.5,117.5 12.5,116.5C 12.5,115.167 12.5,113.833 12.5,112.5C 9.83333,112.833 7.16667,113.167 4.5,113.5C 7.33732,111.598 10.6707,110.931 14.5,111.5 Z"/></g>
<g><path style="opacity:1" fill="#cfcfcf" d="M 32.5,117.5 C 34.5,117.5 36.5,117.5 38.5,117.5C 38.8333,118.833 39.1667,120.167 39.5,121.5C 37.8212,121.285 36.8212,121.952 36.5,123.5C 35.5178,124.141 34.5178,124.807 33.5,125.5C 32.8003,122.985 31.4669,122.318 29.5,123.5C 28.7084,122.3 28.7084,120.967 29.5,119.5C 31.1788,119.715 32.1788,119.048 32.5,117.5 Z"/></g>
<g><path style="opacity:1" fill="#d4d4d4" d="M 70.5,119.5 C 72.0481,119.821 72.7148,120.821 72.5,122.5C 73.8333,122.5 75.1667,122.5 76.5,122.5C 76.3838,125.91 78.0504,127.244 81.5,126.5C 81.2852,124.821 81.9519,123.821 83.5,123.5C 84.5511,124.222 85.2178,125.222 85.5,126.5C 84.8333,128.5 83.5,129.833 81.5,130.5C 79.7211,128.656 77.3878,127.99 74.5,128.5C 74.5,126.833 74.5,125.167 74.5,123.5C 73.1667,123.5 71.8333,123.5 70.5,123.5C 70.5,124.5 70.5,125.5 70.5,126.5C 69.5,126.5 68.5,126.5 67.5,126.5C 67.38,125.414 66.7133,124.747 65.5,124.5C 64.1508,124.846 62.8175,125.179 61.5,125.5C 61.9321,124.29 62.5987,123.29 63.5,122.5C 63.7352,123.097 64.2352,123.43 65,123.5C 66.5,123 68,122.5 69.5,122C 70.2524,121.329 70.5858,120.496 70.5,119.5 Z"/></g>
<g><path style="opacity:1" fill="#dedede" d="M 98.5,119.5 C 98.4835,123.534 97.4835,127.201 95.5,130.5C 92.1043,130.367 91.7709,129.367 94.5,127.5C 93.1468,126.476 92.4802,125.143 92.5,123.5C 90.712,123.785 89.0453,123.452 87.5,122.5C 87.9569,121.702 88.6236,121.369 89.5,121.5C 92.1445,119.758 95.1445,119.091 98.5,119.5 Z"/></g>
<g><path style="opacity:0.945" fill="#e2e2e2" d="M 10.5,121.5 C 11.449,123.737 12.1156,126.071 12.5,128.5C 13.9179,130.308 15.9179,130.975 18.5,130.5C 18.5,131.833 18.5,133.167 18.5,134.5C 15.5641,133.594 12.5641,132.928 9.5,132.5C 9.65668,131.127 9.49001,129.793 9,128.5C 8.76791,129.737 8.26791,130.737 7.5,131.5C 6.22642,129.007 5.55975,126.341 5.5,123.5C 7.01094,122.498 8.67761,121.831 10.5,121.5 Z"/></g>
<g><path style="opacity:1" fill="#dddddd" d="M 10.5,121.5 C 14.3022,122.902 17.9688,124.568 21.5,126.5C 18.4359,126.928 15.4359,127.594 12.5,128.5C 12.1156,126.071 11.449,123.737 10.5,121.5 Z"/></g>
<g><path style="opacity:1" fill="#efefef" d="M 87.5,117.5 C 88.1667,118.833 88.8333,120.167 89.5,121.5C 88.6236,121.369 87.9569,121.702 87.5,122.5C 89.0453,123.452 90.712,123.785 92.5,123.5C 92.4802,125.143 93.1468,126.476 94.5,127.5C 91.7709,129.367 92.1043,130.367 95.5,130.5C 95.6716,131.492 95.3382,132.158 94.5,132.5C 93.1667,132.5 91.8333,132.5 90.5,132.5C 90.5,131.167 90.5,129.833 90.5,128.5C 88.6776,128.169 87.0109,127.502 85.5,126.5C 85.2178,125.222 84.5511,124.222 83.5,123.5C 83.2786,122.265 82.6119,121.265 81.5,120.5C 81.6236,119.893 81.9569,119.56 82.5,119.5C 83.7791,118.032 85.4458,117.365 87.5,117.5 Z"/></g>
<g><path style="opacity:1" fill="#d3d3d3" d="M 29.5,119.5 C 28.7084,120.967 28.7084,122.3 29.5,123.5C 31.4669,122.318 32.8003,122.985 33.5,125.5C 34.5178,124.807 35.5178,124.141 36.5,123.5C 38.0481,123.821 38.7148,124.821 38.5,126.5C 36.5,126.5 34.5,126.5 32.5,126.5C 32.762,127.978 32.4287,129.311 31.5,130.5C 30.5481,128.955 30.2148,127.288 30.5,125.5C 29.209,125.263 28.209,125.596 27.5,126.5C 26.8166,128.176 25.4832,128.843 23.5,128.5C 23.5,126.833 23.5,125.167 23.5,123.5C 24.8333,123.5 26.1667,123.5 27.5,123.5C 27.1568,121.517 27.8235,120.183 29.5,119.5 Z"/></g>
<g><path style="opacity:0.799" fill="#bcbcbc" d="M 67.5,126.5 C 66.0222,126.238 64.6888,126.571 63.5,127.5C 65.3316,128.057 66.6649,129.057 67.5,130.5C 63.351,129.92 59.6843,130.586 56.5,132.5C 54.8235,131.817 54.1568,130.483 54.5,128.5C 57.2061,128.312 59.5395,127.312 61.5,125.5C 62.8175,125.179 64.1508,124.846 65.5,124.5C 66.7133,124.747 67.38,125.414 67.5,126.5 Z"/></g>
<g><path style="opacity:1" fill="#d0d0d0" d="M 21.5,126.5 C 21.2786,127.735 20.6119,128.735 19.5,129.5C 20.6119,130.265 21.2786,131.265 21.5,132.5C 20.1667,132.5 19.5,133.167 19.5,134.5C 19.5,134.833 19.5,135.167 19.5,135.5C 19.5,136.833 19.5,138.167 19.5,139.5C 18.8333,139.5 18.1667,139.5 17.5,139.5C 17.6399,137.876 16.9733,136.71 15.5,136C 16.7375,135.768 17.7375,135.268 18.5,134.5C 18.5,133.167 18.5,131.833 18.5,130.5C 15.9179,130.975 13.9179,130.308 12.5,128.5C 15.4359,127.594 18.4359,126.928 21.5,126.5 Z"/></g>
<g><path style="opacity:1" fill="#e3e3e3" d="M 74.5,128.5 C 74.5,129.167 74.5,129.833 74.5,130.5C 75.0545,134.012 74.3878,137.012 72.5,139.5C 72.38,138.414 71.7133,137.747 70.5,137.5C 69.2613,137.942 68.2613,138.609 67.5,139.5C 67.5,138.833 67.5,138.167 67.5,137.5C 67.8212,135.952 68.8212,135.285 70.5,135.5C 70.4802,133.857 71.1468,132.524 72.5,131.5C 70.9547,130.548 69.288,130.215 67.5,130.5C 66.6649,129.057 65.3316,128.057 63.5,127.5C 64.6888,126.571 66.0222,126.238 67.5,126.5C 68.5,126.5 69.5,126.5 70.5,126.5C 70.5,125.5 70.5,124.5 70.5,123.5C 71.8333,123.5 73.1667,123.5 74.5,123.5C 74.5,125.167 74.5,126.833 74.5,128.5 Z"/></g>
<g><path style="opacity:1" fill="#bababa" d="M 74.5,128.5 C 77.3878,127.99 79.7211,128.656 81.5,130.5C 79.1667,130.5 76.8333,130.5 74.5,130.5C 74.5,129.833 74.5,129.167 74.5,128.5 Z"/></g>
<g><path style="opacity:1" fill="#d9d9d9" d="M 85.5,126.5 C 87.0109,127.502 88.6776,128.169 90.5,128.5C 90.5,129.833 90.5,131.167 90.5,132.5C 88.1667,132.5 85.8333,132.5 83.5,132.5C 81.1667,132.5 78.8333,132.5 76.5,132.5C 76.1103,135.466 76.777,138.132 78.5,140.5C 78.0431,141.298 77.3764,141.631 76.5,141.5C 74.5168,141.843 73.1834,141.176 72.5,139.5C 74.3878,137.012 75.0545,134.012 74.5,130.5C 76.8333,130.5 79.1667,130.5 81.5,130.5C 83.5,129.833 84.8333,128.5 85.5,126.5 Z"/></g>
<g><path style="opacity:1" fill="#d9d9d9" d="M 39.5,121.5 C 41.5,124.167 43.8333,126.5 46.5,128.5C 43.9315,128.738 42.2648,130.071 41.5,132.5C 39.5853,132.216 37.9187,132.549 36.5,133.5C 32.5822,133.127 29.9155,134.794 28.5,138.5C 29.6888,139.429 31.0222,139.762 32.5,139.5C 32.5,140.167 32.5,140.833 32.5,141.5C 30.2188,141.923 28.5521,141.256 27.5,139.5C 27.6347,137.446 26.968,135.779 25.5,134.5C 25.5,133.167 24.8333,132.5 23.5,132.5C 24.9179,130.692 26.9179,130.025 29.5,130.5C 29.8432,128.517 29.1765,127.183 27.5,126.5C 28.209,125.596 29.209,125.263 30.5,125.5C 30.2148,127.288 30.5481,128.955 31.5,130.5C 32.4287,129.311 32.762,127.978 32.5,126.5C 34.5,126.5 36.5,126.5 38.5,126.5C 38.7148,124.821 38.0481,123.821 36.5,123.5C 36.8212,121.952 37.8212,121.285 39.5,121.5 Z"/></g>
<g><path style="opacity:1" fill="#e0e0e0" d="M 46.5,128.5 C 49.2658,129.232 51.9325,129.232 54.5,128.5C 54.1568,130.483 54.8235,131.817 56.5,132.5C 56.5,132.833 56.5,133.167 56.5,133.5C 55.1667,133.5 53.8333,133.5 52.5,133.5C 52.5,137.167 52.5,140.833 52.5,144.5C 50.8333,144.5 49.1667,144.5 47.5,144.5C 46.8333,144.5 46.1667,144.5 45.5,144.5C 46.6085,143.71 47.9419,143.21 49.5,143C 48.5842,142.722 47.9175,142.222 47.5,141.5C 48.675,141.719 49.675,141.386 50.5,140.5C 50.0431,139.702 49.3764,139.369 48.5,139.5C 48.5,138.833 48.5,138.167 48.5,137.5C 51.0182,136.489 51.0182,135.156 48.5,133.5C 46.2637,132.188 44.2637,132.521 42.5,134.5C 41.7025,134.043 41.3691,133.376 41.5,132.5C 42.2648,130.071 43.9315,128.738 46.5,128.5 Z"/></g>
<g><path style="opacity:1" fill="#dedede" d="M 67.5,130.5 C 68.0547,134.584 67.0547,135.251 64.5,132.5C 63.8333,133.167 63.1667,133.833 62.5,134.5C 60.677,133.253 58.677,132.586 56.5,132.5C 59.6843,130.586 63.351,129.92 67.5,130.5 Z"/></g>
<g><path style="opacity:1" fill="#acacac" d="M 21.5,132.5 C 22.1667,132.5 22.8333,132.5 23.5,132.5C 24.8333,132.5 25.5,133.167 25.5,134.5C 23.5,134.5 21.5,134.5 19.5,134.5C 19.5,133.167 20.1667,132.5 21.5,132.5 Z"/></g>
<g><path style="opacity:1" fill="#dfdfdf" d="M 36.5,133.5 C 37.6497,136.298 38.983,138.965 40.5,141.5C 39.8166,143.176 38.4832,143.843 36.5,143.5C 36.5,144.5 36.5,145.5 36.5,146.5C 35.4138,146.38 34.7472,145.713 34.5,144.5C 35.9371,142.423 36.6038,140.09 36.5,137.5C 34.5168,137.157 33.1834,137.824 32.5,139.5C 31.0222,139.762 29.6888,139.429 28.5,138.5C 29.9155,134.794 32.5822,133.127 36.5,133.5 Z"/></g>
<g><path style="opacity:1" fill="#cdcdcd" d="M 41.5,132.5 C 41.3691,133.376 41.7025,134.043 42.5,134.5C 44.2637,132.521 46.2637,132.188 48.5,133.5C 51.0182,135.156 51.0182,136.489 48.5,137.5C 47.1336,135.649 45.467,135.316 43.5,136.5C 44.1667,137.167 44.8333,137.833 45.5,138.5C 43.9951,139.842 43.3285,141.508 43.5,143.5C 42.2223,143.218 41.2223,142.551 40.5,141.5C 38.983,138.965 37.6497,136.298 36.5,133.5C 37.9187,132.549 39.5853,132.216 41.5,132.5 Z"/></g>
<g><path style="opacity:1" fill="#c9c9c9" d="M 67.5,130.5 C 69.288,130.215 70.9547,130.548 72.5,131.5C 71.1468,132.524 70.4802,133.857 70.5,135.5C 68.8212,135.285 67.8212,135.952 67.5,137.5C 66.2652,137.279 65.2652,136.612 64.5,135.5C 63.7348,136.612 62.7348,137.279 61.5,137.5C 59.9611,136.233 58.2944,135.233 56.5,134.5C 56.5,134.167 56.5,133.833 56.5,133.5C 56.5,133.167 56.5,132.833 56.5,132.5C 58.677,132.586 60.677,133.253 62.5,134.5C 63.1667,133.833 63.8333,133.167 64.5,132.5C 67.0547,135.251 68.0547,134.584 67.5,130.5 Z"/></g>
<g><path style="opacity:1" fill="#cbcbcb" d="M 83.5,132.5 C 83.5,133.5 83.5,134.5 83.5,135.5C 81.8235,136.183 81.1568,137.517 81.5,139.5C 82.8333,139.5 84.1667,139.5 85.5,139.5C 84.4073,141.728 83.4073,144.061 82.5,146.5C 81.6143,145.675 81.281,144.675 81.5,143.5C 79.8333,143.5 78.1667,143.5 76.5,143.5C 76.5,142.833 76.5,142.167 76.5,141.5C 77.3764,141.631 78.0431,141.298 78.5,140.5C 76.777,138.132 76.1103,135.466 76.5,132.5C 78.8333,132.5 81.1667,132.5 83.5,132.5 Z"/></g>
<g><path style="opacity:1" fill="#bfbfbf" d="M 83.5,132.5 C 85.8333,132.5 88.1667,132.5 90.5,132.5C 91.8333,132.5 93.1667,132.5 94.5,132.5C 94.1075,134.284 93.4408,135.95 92.5,137.5C 89.6644,136.224 86.6644,135.558 83.5,135.5C 83.5,134.5 83.5,133.5 83.5,132.5 Z"/></g>
<g><path style="opacity:1" fill="#d9d9d9" d="M 18.5,134.5 C 17.7375,135.268 16.7375,135.768 15.5,136C 16.9733,136.71 17.6399,137.876 17.5,139.5C 15.2627,138.551 12.9294,137.884 10.5,137.5C 9.5,135.5 8.5,133.5 7.5,131.5C 8.26791,130.737 8.76791,129.737 9,128.5C 9.49001,129.793 9.65668,131.127 9.5,132.5C 12.5641,132.928 15.5641,133.594 18.5,134.5 Z"/></g>
<g><path style="opacity:1" fill="#bebebe" d="M 19.5,135.5 C 19.5,135.167 19.5,134.833 19.5,134.5C 21.5,134.5 23.5,134.5 25.5,134.5C 26.968,135.779 27.6347,137.446 27.5,139.5C 26.1667,139.5 24.8333,139.5 23.5,139.5C 23.5,138.167 23.5,136.833 23.5,135.5C 22.1667,135.5 20.8333,135.5 19.5,135.5 Z"/></g>
<g><path style="opacity:1" fill="#d9d9d9" d="M 56.5,134.5 C 58.2944,135.233 59.9611,136.233 61.5,137.5C 61.2089,138.649 60.3756,139.316 59,139.5C 56.918,139.085 55.418,137.918 54.5,136C 54.8361,134.97 55.5028,134.47 56.5,134.5 Z"/></g>
<g><path style="opacity:1" fill="#dbdbdb" d="M 83.5,135.5 C 86.6644,135.558 89.6644,136.224 92.5,137.5C 91.396,139.389 90.0627,141.055 88.5,142.5C 87.8365,140.958 87.1698,139.291 86.5,137.5C 85.7025,137.957 85.3691,138.624 85.5,139.5C 84.1667,139.5 82.8333,139.5 81.5,139.5C 81.1568,137.517 81.8235,136.183 83.5,135.5 Z"/></g>
<g><path style="opacity:0.819" fill="#b6b6b6" d="M 10.5,137.5 C 12.9294,137.884 15.2627,138.551 17.5,139.5C 18.1667,139.5 18.8333,139.5 19.5,139.5C 20.0431,139.56 20.3764,139.893 20.5,140.5C 18.6684,141.057 17.3351,142.057 16.5,143.5C 14.1667,141.833 12.1667,139.833 10.5,137.5 Z"/></g>
<g><path style="opacity:1" fill="#e5e5e5" d="M 48.5,137.5 C 48.5,138.167 48.5,138.833 48.5,139.5C 47.6618,139.842 47.3284,140.508 47.5,141.5C 47.9175,142.222 48.5842,142.722 49.5,143C 47.9419,143.21 46.6085,143.71 45.5,144.5C 45.5,145.167 45.5,145.833 45.5,146.5C 41.6266,146.666 40.9599,145.666 43.5,143.5C 43.3285,141.508 43.9951,139.842 45.5,138.5C 44.8333,137.833 44.1667,137.167 43.5,136.5C 45.467,135.316 47.1336,135.649 48.5,137.5 Z"/></g>
<g><path style="opacity:1" fill="#bebebe" d="M 48.5,139.5 C 49.3764,139.369 50.0431,139.702 50.5,140.5C 49.675,141.386 48.675,141.719 47.5,141.5C 47.3284,140.508 47.6618,139.842 48.5,139.5 Z"/></g>
<g><path style="opacity:1" fill="#ebebeb" d="M 56.5,133.5 C 56.5,133.833 56.5,134.167 56.5,134.5C 55.5028,134.47 54.8361,134.97 54.5,136C 55.418,137.918 56.918,139.085 59,139.5C 60.3756,139.316 61.2089,138.649 61.5,137.5C 62.7348,137.279 63.7348,136.612 64.5,135.5C 65.2652,136.612 66.2652,137.279 67.5,137.5C 67.5,138.167 67.5,138.833 67.5,139.5C 66.1667,139.5 64.8333,139.5 63.5,139.5C 63.5,140.833 63.5,142.167 63.5,143.5C 64.968,144.779 65.6347,146.446 65.5,148.5C 64.1667,148.5 62.8333,148.5 61.5,148.5C 59.8212,148.285 58.8212,148.952 58.5,150.5C 57.8333,149.833 57.1667,149.167 56.5,148.5C 55.1667,148.5 54.5,147.833 54.5,146.5C 53.8333,145.833 53.1667,145.167 52.5,144.5C 52.5,140.833 52.5,137.167 52.5,133.5C 53.8333,133.5 55.1667,133.5 56.5,133.5 Z"/></g>
<g><path style="opacity:1" fill="#c4c4c4" d="M 72.5,139.5 C 73.1834,141.176 74.5168,141.843 76.5,141.5C 76.5,142.167 76.5,142.833 76.5,143.5C 74.5168,143.157 73.1834,143.824 72.5,145.5C 70.5679,144.416 68.7346,143.083 67,141.5C 65.9231,142.429 64.7564,143.096 63.5,143.5C 63.5,142.167 63.5,140.833 63.5,139.5C 64.8333,139.5 66.1667,139.5 67.5,139.5C 68.2613,138.609 69.2613,137.942 70.5,137.5C 71.7133,137.747 72.38,138.414 72.5,139.5 Z"/></g>
<g><path style="opacity:1" fill="#d4d4d4" d="M 19.5,135.5 C 20.8333,135.5 22.1667,135.5 23.5,135.5C 23.5,136.833 23.5,138.167 23.5,139.5C 22.5606,145.231 24.8939,148.897 30.5,150.5C 31.7133,150.253 32.38,149.586 32.5,148.5C 33.8333,148.5 35.1667,148.5 36.5,148.5C 36.7214,149.735 37.3881,150.735 38.5,151.5C 35.6944,152.168 33.0277,152.834 30.5,153.5C 24.9742,151.298 20.3075,147.965 16.5,143.5C 17.3351,142.057 18.6684,141.057 20.5,140.5C 20.3764,139.893 20.0431,139.56 19.5,139.5C 19.5,138.167 19.5,136.833 19.5,135.5 Z"/></g>
<g><path style="opacity:1" fill="#cfcfcf" d="M 72.5,145.5 C 72.5,146.5 72.5,147.5 72.5,148.5C 70.1667,148.5 67.8333,148.5 65.5,148.5C 65.6347,146.446 64.968,144.779 63.5,143.5C 64.7564,143.096 65.9231,142.429 67,141.5C 68.7346,143.083 70.5679,144.416 72.5,145.5 Z"/></g>
<g><path style="opacity:1" fill="#ededed" d="M 36.5,146.5 C 37.1667,146.5 37.8333,146.5 38.5,146.5C 38.5,147.833 37.8333,148.5 36.5,148.5C 35.1667,148.5 33.8333,148.5 32.5,148.5C 31.325,148.719 30.325,148.386 29.5,147.5C 30.2458,146.264 30.5792,144.93 30.5,143.5C 29.448,143.649 28.448,143.483 27.5,143C 29.3817,142.802 31.0484,142.302 32.5,141.5C 32.5,140.833 32.5,140.167 32.5,139.5C 33.1834,137.824 34.5168,137.157 36.5,137.5C 36.6038,140.09 35.9371,142.423 34.5,144.5C 34.7472,145.713 35.4138,146.38 36.5,146.5 Z"/></g>
<g><path style="opacity:1" fill="#e1e1e1" d="M 23.5,139.5 C 24.8333,139.5 26.1667,139.5 27.5,139.5C 28.5521,141.256 30.2188,141.923 32.5,141.5C 31.0484,142.302 29.3817,142.802 27.5,143C 28.448,143.483 29.448,143.649 30.5,143.5C 30.5792,144.93 30.2458,146.264 29.5,147.5C 30.325,148.386 31.325,148.719 32.5,148.5C 32.38,149.586 31.7133,150.253 30.5,150.5C 24.8939,148.897 22.5606,145.231 23.5,139.5 Z"/></g>
<g><path style="opacity:1" fill="#d2d2d2" d="M 40.5,141.5 C 41.2223,142.551 42.2223,143.218 43.5,143.5C 40.9599,145.666 41.6266,146.666 45.5,146.5C 45.5,147.167 45.5,147.833 45.5,148.5C 43.5168,148.157 42.1834,148.824 41.5,150.5C 40.0221,149.552 39.0221,148.219 38.5,146.5C 37.8333,146.5 37.1667,146.5 36.5,146.5C 36.5,145.5 36.5,144.5 36.5,143.5C 38.4832,143.843 39.8166,143.176 40.5,141.5 Z"/></g>
<g><path style="opacity:1" fill="#a7a7a7" d="M 45.5,144.5 C 46.1667,144.5 46.8333,144.5 47.5,144.5C 47.8432,146.483 47.1765,147.817 45.5,148.5C 45.5,147.833 45.5,147.167 45.5,146.5C 45.5,145.833 45.5,145.167 45.5,144.5 Z"/></g>
<g><path style="opacity:1" fill="#dbdbdb" d="M 47.5,144.5 C 49.1667,144.5 50.8333,144.5 52.5,144.5C 53.1667,145.167 53.8333,145.833 54.5,146.5C 52.8235,147.183 52.1568,148.517 52.5,150.5C 54.4832,150.843 55.8166,150.176 56.5,148.5C 57.1667,149.167 57.8333,149.833 58.5,150.5C 58.1667,151.167 57.8333,151.833 57.5,152.5C 56.609,151.89 55.609,151.557 54.5,151.5C 50.6075,153.049 47.6075,152.049 45.5,148.5C 47.1765,147.817 47.8432,146.483 47.5,144.5 Z"/></g>
<g><path style="opacity:1" fill="#bebebe" d="M 54.5,146.5 C 54.5,147.833 55.1667,148.5 56.5,148.5C 55.8166,150.176 54.4832,150.843 52.5,150.5C 52.1568,148.517 52.8235,147.183 54.5,146.5 Z"/></g>
<g><path style="opacity:1" fill="#cbcbcb" d="M 61.5,148.5 C 62.1079,149.8 62.7745,151.133 63.5,152.5C 63.1667,153.167 62.8333,153.833 62.5,154.5C 61.1585,152.995 59.4918,152.328 57.5,152.5C 57.8333,151.833 58.1667,151.167 58.5,150.5C 58.8212,148.952 59.8212,148.285 61.5,148.5 Z"/></g>
<g><path style="opacity:1" fill="#e3e3e3" d="M 88.5,142.5 C 83.173,148.834 76.5063,153.167 68.5,155.5C 68.2882,153.616 67.2882,152.283 65.5,151.5C 68.2949,151.062 70.6283,150.062 72.5,148.5C 72.5,147.5 72.5,146.5 72.5,145.5C 73.1834,143.824 74.5168,143.157 76.5,143.5C 78.1667,143.5 79.8333,143.5 81.5,143.5C 81.281,144.675 81.6143,145.675 82.5,146.5C 83.4073,144.061 84.4073,141.728 85.5,139.5C 85.3691,138.624 85.7025,137.957 86.5,137.5C 87.1698,139.291 87.8365,140.958 88.5,142.5 Z"/></g>
<g><path style="opacity:0.952" fill="#f0f0f0" d="M 45.5,148.5 C 47.6075,152.049 50.6075,153.049 54.5,151.5C 55.2297,153.045 56.563,153.878 58.5,154C 57.9056,154.464 57.2389,154.631 56.5,154.5C 55.1667,154.5 53.8333,154.5 52.5,154.5C 52.5,155.5 52.5,156.5 52.5,157.5C 50.1667,157.5 47.8333,157.5 45.5,157.5C 44.1667,155.167 42.8333,152.833 41.5,150.5C 42.1834,148.824 43.5168,148.157 45.5,148.5 Z"/></g>
<g><path style="opacity:0.931" fill="#eeeeee" d="M 61.5,148.5 C 62.8333,148.5 64.1667,148.5 65.5,148.5C 67.8333,148.5 70.1667,148.5 72.5,148.5C 70.6283,150.062 68.2949,151.062 65.5,151.5C 67.2882,152.283 68.2882,153.616 68.5,155.5C 64.6179,156.803 60.6179,157.47 56.5,157.5C 56.5,156.5 56.5,155.5 56.5,154.5C 57.2389,154.631 57.9056,154.464 58.5,154C 56.563,153.878 55.2297,153.045 54.5,151.5C 55.609,151.557 56.609,151.89 57.5,152.5C 59.4918,152.328 61.1585,152.995 62.5,154.5C 62.8333,153.833 63.1667,153.167 63.5,152.5C 62.7745,151.133 62.1079,149.8 61.5,148.5 Z"/></g>
<g><path style="opacity:1" fill="#dfdfdf" d="M 38.5,146.5 C 39.0221,148.219 40.0221,149.552 41.5,150.5C 42.8333,152.833 44.1667,155.167 45.5,157.5C 40.3541,156.631 35.3541,155.297 30.5,153.5C 33.0277,152.834 35.6944,152.168 38.5,151.5C 37.3881,150.735 36.7214,149.735 36.5,148.5C 37.8333,148.5 38.5,147.833 38.5,146.5 Z"/></g>
<g><path style="opacity:0.875" fill="#d1d1d1" d="M 56.5,154.5 C 56.5,155.5 56.5,156.5 56.5,157.5C 55.1667,157.5 53.8333,157.5 52.5,157.5C 52.5,156.5 52.5,155.5 52.5,154.5C 53.8333,154.5 55.1667,154.5 56.5,154.5 Z"/></g>
</svg>
