<?xml version="1.0" encoding="UTF-8"?>
<!DOCTYPE svg PUBLIC "-//W3C//DTD SVG 1.1//EN" "http://www.w3.org/Graphics/SVG/1.1/DTD/svg11.dtd">
<svg xmlns="http://www.w3.org/2000/svg" version="1.1" width="104px" height="180px" style="shape-rendering:geometricPrecision; text-rendering:geometricPrecision; image-rendering:optimizeQuality; fill-rule:evenodd; clip-rule:evenodd" xmlns:xlink="http://www.w3.org/1999/xlink">
<g><path style="opacity:0.945" fill="#d2d2d2" d="M 47.5,17.5 C 58.2439,16.6005 67.9105,19.2671 76.5,25.5C 75.4489,26.2223 74.7822,27.2223 74.5,28.5C 68.3034,28.3251 67.6367,29.3251 72.5,31.5C 70.9547,32.4519 69.288,32.7852 67.5,32.5C 66.1667,31.1667 64.8333,29.8333 63.5,28.5C 62.4479,26.744 60.7812,26.0773 58.5,26.5C 58.752,23.6301 57.752,21.2967 55.5,19.5C 54.7025,19.9569 54.3691,20.6236 54.5,21.5C 51.0771,21.876 48.7438,20.5426 47.5,17.5 Z"/></g>
<g><path style="opacity:1" fill="#e7e7e7" d="M 40.5,18.5 C 42.6074,17.5318 44.9407,17.1984 47.5,17.5C 48.7438,20.5426 51.0771,21.876 54.5,21.5C 55.5511,22.2223 56.2178,23.2223 56.5,24.5C 53.7508,24.2739 51.0841,24.6072 48.5,25.5C 47.8333,24.5 47.1667,23.5 46.5,22.5C 45.8589,23.9935 44.8589,24.9935 43.5,25.5C 42.8333,24.1667 42.1667,22.8333 41.5,21.5C 41.7373,20.209 41.404,19.209 40.5,18.5 Z"/></g>
<g><path style="opacity:1" fill="#c9c9c9" d="M 40.5,18.5 C 41.404,19.209 41.7373,20.209 41.5,21.5C 40.5,21.5 39.5,21.5 38.5,21.5C 38.5,23.1667 38.5,24.8333 38.5,26.5C 37.1667,27.1667 35.8333,27.8333 34.5,28.5C 32.8333,28.5 31.1667,28.5 29.5,28.5C 28.1667,28.5 27.5,27.8333 27.5,26.5C 29.1667,26.5 30.8333,26.5 32.5,26.5C 32.5,24.5 32.5,22.5 32.5,20.5C 34.9925,19.2264 37.6592,18.5597 40.5,18.5 Z"/></g>
<g><path style="opacity:0.844" fill="#dbdbdb" d="M 32.5,20.5 C 32.5,22.5 32.5,24.5 32.5,26.5C 30.8333,26.5 29.1667,26.5 27.5,26.5C 26.1667,26.5 25.5,25.8333 25.5,24.5C 27.3356,22.412 29.6689,21.0787 32.5,20.5 Z"/></g>
<g><path style="opacity:1" fill="#d1d1d1" d="M 56.5,24.5 C 55.8333,26.5 54.5,27.8333 52.5,28.5C 51.8333,28.5 51.1667,28.5 50.5,28.5C 48.4922,26.9174 46.1589,25.9174 43.5,25.5C 44.8589,24.9935 45.8589,23.9935 46.5,22.5C 47.1667,23.5 47.8333,24.5 48.5,25.5C 51.0841,24.6072 53.7508,24.2739 56.5,24.5 Z"/></g>
<g><path style="opacity:0.938" fill="#cfcfcf" d="M 25.5,24.5 C 25.5,25.8333 26.1667,26.5 27.5,26.5C 27.5,27.8333 28.1667,28.5 29.5,28.5C 28.8333,30.5 27.5,31.8333 25.5,32.5C 24.8333,27.1667 24.1667,27.1667 23.5,32.5C 22.1667,32.5 20.8333,32.5 19.5,32.5C 19.7373,31.209 19.404,30.209 18.5,29.5C 20.2964,27.1 22.6298,25.4333 25.5,24.5 Z"/></g>
<g><path style="opacity:1" fill="#c1c1c1" d="M 41.5,21.5 C 42.1667,22.8333 42.8333,24.1667 43.5,25.5C 46.1589,25.9174 48.4922,26.9174 50.5,28.5C 48.8333,28.5 47.1667,28.5 45.5,28.5C 44.1667,28.5 42.8333,28.5 41.5,28.5C 41.1788,26.9519 40.1788,26.2852 38.5,26.5C 38.5,24.8333 38.5,23.1667 38.5,21.5C 39.5,21.5 40.5,21.5 41.5,21.5 Z"/></g>
<g><path style="opacity:1" fill="#cecece" d="M 63.5,28.5 C 62.2436,28.9038 61.0769,29.5705 60,30.5C 59.0546,30.0946 58.3879,29.428 58,28.5C 57.2904,29.9733 56.1238,30.6399 54.5,30.5C 53.551,32.7373 52.8844,35.0706 52.5,37.5C 51.8333,37.5 51.1667,37.5 50.5,37.5C 50.2895,34.248 50.9562,31.248 52.5,28.5C 54.5,27.8333 55.8333,26.5 56.5,24.5C 56.2178,23.2223 55.5511,22.2223 54.5,21.5C 54.3691,20.6236 54.7025,19.9569 55.5,19.5C 57.752,21.2967 58.752,23.6301 58.5,26.5C 60.7812,26.0773 62.4479,26.744 63.5,28.5 Z"/></g>
<g><path style="opacity:1" fill="#d8d8d8" d="M 38.5,26.5 C 40.1788,26.2852 41.1788,26.9519 41.5,28.5C 37.213,31.4058 37.8796,32.7391 43.5,32.5C 43.5,33.5 43.5,34.5 43.5,35.5C 43.5,36.1667 43.5,36.8333 43.5,37.5C 41.4091,36.1346 39.0758,35.4679 36.5,35.5C 36.5,34.5 36.5,33.5 36.5,32.5C 32.6266,32.334 31.9599,33.334 34.5,35.5C 33.1667,35.5 31.8333,35.5 30.5,35.5C 30.5,33.8333 30.5,32.1667 30.5,30.5C 32.4832,30.8432 33.8166,30.1765 34.5,28.5C 35.8333,27.8333 37.1667,27.1667 38.5,26.5 Z"/></g>
<g><path style="opacity:1" fill="#c2c2c2" d="M 41.5,28.5 C 42.8333,28.5 44.1667,28.5 45.5,28.5C 45.6138,30.7179 46.2804,32.7179 47.5,34.5C 47.719,35.675 47.3857,36.675 46.5,37.5C 45.7348,36.3881 44.7348,35.7214 43.5,35.5C 43.5,34.5 43.5,33.5 43.5,32.5C 37.8796,32.7391 37.213,31.4058 41.5,28.5 Z"/></g>
<g><path style="opacity:1" fill="#dedede" d="M 45.5,28.5 C 47.1667,28.5 48.8333,28.5 50.5,28.5C 51.1667,28.5 51.8333,28.5 52.5,28.5C 50.9562,31.248 50.2895,34.248 50.5,37.5C 49.1001,36.9002 48.1001,35.9002 47.5,34.5C 46.2804,32.7179 45.6138,30.7179 45.5,28.5 Z"/></g>
<g><path style="opacity:0.871" fill="#ececec" d="M 76.5,25.5 C 81.5448,28.2707 85.2114,32.2707 87.5,37.5C 84.5625,37.0233 81.8958,36.0233 79.5,34.5C 78.4479,32.744 76.7812,32.0773 74.5,32.5C 74.5,31.1667 74.5,29.8333 74.5,28.5C 74.7822,27.2223 75.4489,26.2223 76.5,25.5 Z"/></g>
<g><path style="opacity:1" fill="#b7b7b7" d="M 25.5,32.5 C 25.7148,34.1788 25.0481,35.1788 23.5,35.5C 22.1667,35.5 20.8333,35.5 19.5,35.5C 19.1667,35.5 18.8333,35.5 18.5,35.5C 18.3404,33.847 17.6737,32.5137 16.5,31.5C 16.8333,30.5 17.5,29.8333 18.5,29.5C 19.404,30.209 19.7373,31.209 19.5,32.5C 20.8333,32.5 22.1667,32.5 23.5,32.5C 24.1667,27.1667 24.8333,27.1667 25.5,32.5 Z"/></g>
<g><path style="opacity:1" fill="#dfdfdf" d="M 63.5,28.5 C 64.8333,29.8333 66.1667,31.1667 67.5,32.5C 64.9179,32.0254 62.9179,32.6921 61.5,34.5C 58.493,35.5139 55.493,36.5139 52.5,37.5C 52.8844,35.0706 53.551,32.7373 54.5,30.5C 56.1238,30.6399 57.2904,29.9733 58,28.5C 58.3879,29.428 59.0546,30.0946 60,30.5C 61.0769,29.5705 62.2436,28.9038 63.5,28.5 Z"/></g>
<g><path style="opacity:1" fill="#dcdcdc" d="M 74.5,28.5 C 74.5,29.8333 74.5,31.1667 74.5,32.5C 76.7812,32.0773 78.4479,32.744 79.5,34.5C 77.563,33.2942 75.8963,33.6275 74.5,35.5C 72.1667,35.5 69.8333,35.5 67.5,35.5C 66.2652,35.2786 65.2652,34.6119 64.5,33.5C 63.5832,34.1272 62.5832,34.4606 61.5,34.5C 62.9179,32.6921 64.9179,32.0254 67.5,32.5C 69.288,32.7852 70.9547,32.4519 72.5,31.5C 67.6367,29.3251 68.3034,28.3251 74.5,28.5 Z"/></g>
<g><path style="opacity:1" fill="#c0c0c0" d="M 43.5,37.5 C 43.5,38.1667 43.5,38.8333 43.5,39.5C 43.6309,40.3764 43.2975,41.0431 42.5,41.5C 41.1186,40.1186 39.7853,38.7853 38.5,37.5C 36.5168,37.8432 35.1834,37.1765 34.5,35.5C 31.9599,33.334 32.6266,32.334 36.5,32.5C 36.5,33.5 36.5,34.5 36.5,35.5C 39.0758,35.4679 41.4091,36.1346 43.5,37.5 Z"/></g>
<g><path style="opacity:1" fill="#e7e7e7" d="M 29.5,28.5 C 31.1667,28.5 32.8333,28.5 34.5,28.5C 33.8166,30.1765 32.4832,30.8432 30.5,30.5C 30.5,32.1667 30.5,33.8333 30.5,35.5C 31.8333,35.5 33.1667,35.5 34.5,35.5C 35.1834,37.1765 36.5168,37.8432 38.5,37.5C 38.5,38.1667 38.5,38.8333 38.5,39.5C 37.1667,39.5 35.8333,39.5 34.5,39.5C 34.762,40.9778 34.4287,42.3112 33.5,43.5C 32.1401,42.8201 30.8068,42.1534 29.5,41.5C 29.4606,40.4168 29.1272,39.4168 28.5,38.5C 26.3449,37.9986 24.6782,36.9986 23.5,35.5C 25.0481,35.1788 25.7148,34.1788 25.5,32.5C 27.5,31.8333 28.8333,30.5 29.5,28.5 Z"/></g>
<g><path style="opacity:1" fill="#aeaeae" d="M 67.5,35.5 C 68.5,36.8333 69.5,38.1667 70.5,39.5C 68.7211,41.3435 66.3878,42.0102 63.5,41.5C 62.8333,41.5 62.1667,41.5 61.5,41.5C 57.8333,40.1667 54.1667,38.8333 50.5,37.5C 51.1667,37.5 51.8333,37.5 52.5,37.5C 55.493,36.5139 58.493,35.5139 61.5,34.5C 62.5832,34.4606 63.5832,34.1272 64.5,33.5C 65.2652,34.6119 66.2652,35.2786 67.5,35.5 Z"/></g>
<g><path style="opacity:1" fill="#d3d3d3" d="M 67.5,35.5 C 69.8333,35.5 72.1667,35.5 74.5,35.5C 74.1568,37.4832 74.8235,38.8166 76.5,39.5C 76.5,40.1667 76.5,40.8333 76.5,41.5C 75.8166,43.1765 74.4832,43.8432 72.5,43.5C 72.8432,41.5168 72.1765,40.1834 70.5,39.5C 69.5,38.1667 68.5,36.8333 67.5,35.5 Z"/></g>
<g><path style="opacity:1" fill="#c8c8c8" d="M 79.5,34.5 C 81.8958,36.0233 84.5625,37.0233 87.5,37.5C 88.9744,38.4363 89.9744,39.7697 90.5,41.5C 85.6529,41.7685 80.9862,41.1018 76.5,39.5C 74.8235,38.8166 74.1568,37.4832 74.5,35.5C 75.8963,33.6275 77.563,33.2942 79.5,34.5 Z"/></g>
<g><path style="opacity:1" fill="#cacaca" d="M 19.5,35.5 C 20.8333,35.5 22.1667,35.5 23.5,35.5C 24.6782,36.9986 26.3449,37.9986 28.5,38.5C 29.1272,39.4168 29.4606,40.4168 29.5,41.5C 29.5,42.8333 28.8333,43.5 27.5,43.5C 26.8333,43.5 26.1667,43.5 25.5,43.5C 24.8166,41.8235 23.4832,41.1568 21.5,41.5C 21.3862,39.2821 20.7196,37.2821 19.5,35.5 Z"/></g>
<g><path style="opacity:1" fill="#cecece" d="M 47.5,34.5 C 48.1001,35.9002 49.1001,36.9002 50.5,37.5C 54.1667,38.8333 57.8333,40.1667 61.5,41.5C 59.8333,41.5 58.1667,41.5 56.5,41.5C 56.5,43.5 56.5,45.5 56.5,47.5C 54.3024,47.1249 52.3024,46.4582 50.5,45.5C 49.791,44.596 48.791,44.2627 47.5,44.5C 47.9227,42.2188 47.256,40.5521 45.5,39.5C 44.8333,39.5 44.1667,39.5 43.5,39.5C 43.5,38.8333 43.5,38.1667 43.5,37.5C 43.5,36.8333 43.5,36.1667 43.5,35.5C 44.7348,35.7214 45.7348,36.3881 46.5,37.5C 47.3857,36.675 47.719,35.675 47.5,34.5 Z"/></g>
<g><path style="opacity:1" fill="#dddddd" d="M 16.5,31.5 C 17.6737,32.5137 18.3404,33.847 18.5,35.5C 16.5531,36.4734 14.5531,37.4734 12.5,38.5C 14.0453,39.4519 15.712,39.7852 17.5,39.5C 17.8618,42.8866 19.8618,44.5533 23.5,44.5C 22.1667,45.8333 20.8333,47.1667 19.5,48.5C 18.5,48.5 17.5,48.5 16.5,48.5C 15.8333,48.5 15.1667,48.5 14.5,48.5C 12.9726,45.7105 11.3059,43.0438 9.5,40.5C 11.1198,36.9181 13.4531,33.9181 16.5,31.5 Z"/></g>
<g><path style="opacity:1" fill="#eeeeee" d="M 18.5,35.5 C 18.8333,35.5 19.1667,35.5 19.5,35.5C 20.7196,37.2821 21.3862,39.2821 21.5,41.5C 23.4832,41.1568 24.8166,41.8235 25.5,43.5C 24.5084,43.3284 23.8417,43.6618 23.5,44.5C 19.8618,44.5533 17.8618,42.8866 17.5,39.5C 15.712,39.7852 14.0453,39.4519 12.5,38.5C 14.5531,37.4734 16.5531,36.4734 18.5,35.5 Z"/></g>
<g><path style="opacity:1" fill="#e0e0e0" d="M 38.5,37.5 C 39.7853,38.7853 41.1186,40.1186 42.5,41.5C 43.2975,41.0431 43.6309,40.3764 43.5,39.5C 44.1667,39.5 44.8333,39.5 45.5,39.5C 45.762,40.9778 45.4287,42.3112 44.5,43.5C 41.9795,44.7853 39.3128,45.4519 36.5,45.5C 37.1667,43.5 37.8333,41.5 38.5,39.5C 38.5,38.8333 38.5,38.1667 38.5,37.5 Z"/></g>
<g><path style="opacity:1" fill="#dfdfdf" d="M 61.5,41.5 C 62.1667,41.5 62.8333,41.5 63.5,41.5C 63.5,41.8333 63.5,42.1667 63.5,42.5C 62.4138,42.62 61.7472,43.2867 61.5,44.5C 62.885,46.5355 64.2183,48.5355 65.5,50.5C 64.2652,50.7214 63.2652,51.3881 62.5,52.5C 61.7348,51.3881 60.7348,50.7214 59.5,50.5C 58.1667,49.8333 57.1667,48.8333 56.5,47.5C 56.5,45.5 56.5,43.5 56.5,41.5C 58.1667,41.5 59.8333,41.5 61.5,41.5 Z"/></g>
<g><path style="opacity:0.875" fill="#b3b3b3" d="M 76.5,39.5 C 80.9862,41.1018 85.6529,41.7685 90.5,41.5C 90.8333,42.1667 91.1667,42.8333 91.5,43.5C 88.7628,43.4013 86.0961,43.7347 83.5,44.5C 80.7438,44.2838 78.4105,43.2838 76.5,41.5C 76.5,40.8333 76.5,40.1667 76.5,39.5 Z"/></g>
<g><path style="opacity:1" fill="#cfcfcf" d="M 38.5,39.5 C 37.8333,41.5 37.1667,43.5 36.5,45.5C 38.3784,46.5324 40.0451,47.8657 41.5,49.5C 41.573,51.0269 40.9063,52.0269 39.5,52.5C 37.712,52.7852 36.0453,52.4519 34.5,51.5C 36.7078,49.2374 36.0411,47.5708 32.5,46.5C 30.9436,47.5471 29.2769,48.2137 27.5,48.5C 27.5106,46.9826 28.1772,45.8159 29.5,45C 28.5842,44.7216 27.9175,44.2216 27.5,43.5C 28.8333,43.5 29.5,42.8333 29.5,41.5C 30.8068,42.1534 32.1401,42.8201 33.5,43.5C 34.4287,42.3112 34.762,40.9778 34.5,39.5C 35.8333,39.5 37.1667,39.5 38.5,39.5 Z"/></g>
<g><path style="opacity:1" fill="#c5c5c5" d="M 70.5,39.5 C 72.1765,40.1834 72.8432,41.5168 72.5,43.5C 74.4832,43.8432 75.8166,43.1765 76.5,41.5C 78.4105,43.2838 80.7438,44.2838 83.5,44.5C 83.5,45.1667 83.5,45.8333 83.5,46.5C 80.5,46.5 77.5,46.5 74.5,46.5C 71.0207,44.7089 67.354,43.3756 63.5,42.5C 63.5,42.1667 63.5,41.8333 63.5,41.5C 66.3878,42.0102 68.7211,41.3435 70.5,39.5 Z"/></g>
<g><path style="opacity:0.969" fill="#cecece" d="M 9.5,40.5 C 11.3059,43.0438 12.9726,45.7105 14.5,48.5C 11.9627,49.9757 9.96274,51.9757 8.5,54.5C 7.21119,53.3634 6.21119,52.0301 5.5,50.5C 6.25341,46.9006 7.58674,43.5673 9.5,40.5 Z"/></g>
<g><path style="opacity:1" fill="#dcdcdc" d="M 25.5,43.5 C 26.1667,43.5 26.8333,43.5 27.5,43.5C 27.9175,44.2216 28.5842,44.7216 29.5,45C 28.1772,45.8159 27.5106,46.9826 27.5,48.5C 27.5,49.1667 27.5,49.8333 27.5,50.5C 24.8333,49.8333 22.1667,49.1667 19.5,48.5C 20.8333,47.1667 22.1667,45.8333 23.5,44.5C 23.8417,43.6618 24.5084,43.3284 25.5,43.5 Z"/></g>
<g><path style="opacity:1" fill="#d6d6d6" d="M 45.5,39.5 C 47.256,40.5521 47.9227,42.2188 47.5,44.5C 48.791,44.2627 49.791,44.596 50.5,45.5C 47.1517,46.0846 44.1517,47.418 41.5,49.5C 40.0451,47.8657 38.3784,46.5324 36.5,45.5C 39.3128,45.4519 41.9795,44.7853 44.5,43.5C 45.4287,42.3112 45.762,40.9778 45.5,39.5 Z"/></g>
<g><path style="opacity:0.929" fill="#d0d0d0" d="M 91.5,43.5 C 92.6948,45.7513 93.6948,48.0846 94.5,50.5C 90.5084,50.0017 86.8417,48.6684 83.5,46.5C 83.5,45.8333 83.5,45.1667 83.5,44.5C 86.0961,43.7347 88.7628,43.4013 91.5,43.5 Z"/></g>
<g><path style="opacity:1" fill="#d0d0d0" d="M 74.5,46.5 C 77.5,46.5 80.5,46.5 83.5,46.5C 82.2034,48.7976 80.5368,50.7976 78.5,52.5C 77.1667,52.5 75.8333,52.5 74.5,52.5C 74.2786,51.2652 73.6119,50.2652 72.5,49.5C 73.6119,48.7348 74.2786,47.7348 74.5,46.5 Z"/></g>
<g><path style="opacity:1" fill="#d9d9d9" d="M 14.5,48.5 C 15.1667,48.5 15.8333,48.5 16.5,48.5C 16.7822,49.7777 17.4489,50.7777 18.5,51.5C 16.8235,52.1834 16.1568,53.5168 16.5,55.5C 15.1667,55.5 13.8333,55.5 12.5,55.5C 10.901,55.7678 9.56764,55.4345 8.5,54.5C 9.96274,51.9757 11.9627,49.9757 14.5,48.5 Z"/></g>
<g><path style="opacity:1" fill="#e9e9e9" d="M 63.5,42.5 C 67.354,43.3756 71.0207,44.7089 74.5,46.5C 74.2786,47.7348 73.6119,48.7348 72.5,49.5C 73.6119,50.2652 74.2786,51.2652 74.5,52.5C 74.5,53.8333 73.8333,54.5 72.5,54.5C 71.4479,52.744 69.7812,52.0773 67.5,52.5C 67.5,51.1667 66.8333,50.5 65.5,50.5C 64.2183,48.5355 62.885,46.5355 61.5,44.5C 61.7472,43.2867 62.4138,42.62 63.5,42.5 Z"/></g>
<g><path style="opacity:1" fill="#e5e5e5" d="M 83.5,46.5 C 86.8417,48.6684 90.5084,50.0017 94.5,50.5C 94.5,51.1667 94.5,51.8333 94.5,52.5C 93.8333,52.5 93.1667,52.5 92.5,52.5C 89.5493,53.6939 86.5493,54.6939 83.5,55.5C 81.4687,55.0276 79.8021,54.0276 78.5,52.5C 80.5368,50.7976 82.2034,48.7976 83.5,46.5 Z"/></g>
<g><path style="opacity:1" fill="#e0e0e0" d="M 18.5,51.5 C 20.1667,52.1667 21.8333,52.8333 23.5,53.5C 21.8008,53.3398 20.1341,53.5065 18.5,54C 18.8333,54.3333 19.1667,54.6667 19.5,55C 17.9837,56.897 17.317,59.0637 17.5,61.5C 16.8386,60.2825 16.1719,58.9492 15.5,57.5C 15.1667,58.5 14.8333,59.5 14.5,60.5C 15.2043,62.5351 15.871,64.5351 16.5,66.5C 15.8166,68.1765 14.4832,68.8432 12.5,68.5C 12.2137,66.7231 11.5471,65.0564 10.5,63.5C 11.2255,62.1331 11.8921,60.7997 12.5,59.5C 12.5,58.1667 12.5,56.8333 12.5,55.5C 13.8333,55.5 15.1667,55.5 16.5,55.5C 16.1568,53.5168 16.8235,52.1834 18.5,51.5 Z"/></g>
<g><path style="opacity:1" fill="#bebebe" d="M 16.5,48.5 C 17.5,48.5 18.5,48.5 19.5,48.5C 22.1667,49.1667 24.8333,49.8333 27.5,50.5C 29.7267,52.2287 30.7267,54.562 30.5,57.5C 28.8333,57.5 27.1667,57.5 25.5,57.5C 25.8432,55.5168 25.1765,54.1834 23.5,53.5C 21.8333,52.8333 20.1667,52.1667 18.5,51.5C 17.4489,50.7777 16.7822,49.7777 16.5,48.5 Z"/></g>
<g><path style="opacity:1" fill="#b7b7b7" d="M 67.5,52.5 C 69.7812,52.0773 71.4479,52.744 72.5,54.5C 73.968,55.7791 74.6347,57.4458 74.5,59.5C 72.8333,59.5 71.1667,59.5 69.5,59.5C 69.5,57.8333 69.5,56.1667 69.5,54.5C 68.1266,54.6567 66.7932,54.49 65.5,54C 66.0442,53.2828 66.7109,52.7828 67.5,52.5 Z"/></g>
<g><path style="opacity:1" fill="#e2e2e2" d="M 39.5,52.5 C 38.6295,55.1123 37.9628,57.779 37.5,60.5C 34.6879,60.2331 32.3545,59.2331 30.5,57.5C 30.7267,54.562 29.7267,52.2287 27.5,50.5C 27.5,49.8333 27.5,49.1667 27.5,48.5C 29.2769,48.2137 30.9436,47.5471 32.5,46.5C 36.0411,47.5708 36.7078,49.2374 34.5,51.5C 36.0453,52.4519 37.712,52.7852 39.5,52.5 Z"/></g>
<g><path style="opacity:1" fill="#d8d8d8" d="M 74.5,52.5 C 75.8333,52.5 77.1667,52.5 78.5,52.5C 79.8021,54.0276 81.4687,55.0276 83.5,55.5C 81.2188,55.0773 79.5521,55.744 78.5,57.5C 77.3933,59.9689 75.3933,60.9689 72.5,60.5C 71.209,60.7373 70.209,60.404 69.5,59.5C 71.1667,59.5 72.8333,59.5 74.5,59.5C 74.6347,57.4458 73.968,55.7791 72.5,54.5C 73.8333,54.5 74.5,53.8333 74.5,52.5 Z"/></g>
<g><path style="opacity:0.835" fill="#e9e9e9" d="M 5.5,50.5 C 6.21119,52.0301 7.21119,53.3634 8.5,54.5C 9.56764,55.4345 10.901,55.7678 12.5,55.5C 12.5,56.8333 12.5,58.1667 12.5,59.5C 10.8333,59.5 9.16667,59.5 7.5,59.5C 7.5,60.8333 7.5,62.1667 7.5,63.5C 6.16667,63.5 4.83333,63.5 3.5,63.5C 3.15606,58.8781 3.82273,54.5448 5.5,50.5 Z"/></g>
<g><path style="opacity:1" fill="#e3e3e3" d="M 23.5,53.5 C 25.1765,54.1834 25.8432,55.5168 25.5,57.5C 25.6309,58.3764 25.2975,59.0431 24.5,59.5C 23.065,57.5989 21.3983,57.2655 19.5,58.5C 19.6236,59.1067 19.9569,59.44 20.5,59.5C 20.1788,61.0481 19.1788,61.7148 17.5,61.5C 17.317,59.0637 17.9837,56.897 19.5,55C 19.1667,54.6667 18.8333,54.3333 18.5,54C 20.1341,53.5065 21.8008,53.3398 23.5,53.5 Z"/></g>
<g><path style="opacity:1" fill="#cfcfcf" d="M 59.5,50.5 C 60.7348,50.7214 61.7348,51.3881 62.5,52.5C 63.2652,51.3881 64.2652,50.7214 65.5,50.5C 66.8333,50.5 67.5,51.1667 67.5,52.5C 66.7109,52.7828 66.0442,53.2828 65.5,54C 66.7932,54.49 68.1266,54.6567 69.5,54.5C 69.5,56.1667 69.5,57.8333 69.5,59.5C 68.5326,58.1938 67.1993,57.5271 65.5,57.5C 65.8844,59.9294 66.551,62.2627 67.5,64.5C 66.1667,64.5 64.8333,64.5 63.5,64.5C 63.0961,59.5486 61.7628,54.882 59.5,50.5 Z"/></g>
<g><path style="opacity:1" fill="#cfcfcf" d="M 92.5,52.5 C 94.3505,53.8664 94.6838,55.533 93.5,57.5C 92.8333,56.8333 92.1667,56.1667 91.5,55.5C 89.2074,56.652 87.2074,57.9853 85.5,59.5C 84.8333,59.5 84.1667,59.5 83.5,59.5C 82.4479,57.744 80.7812,57.0773 78.5,57.5C 79.5521,55.744 81.2188,55.0773 83.5,55.5C 86.5493,54.6939 89.5493,53.6939 92.5,52.5 Z"/></g>
<g><path style="opacity:1" fill="#cfcfcf" d="M 25.5,57.5 C 27.1667,57.5 28.8333,57.5 30.5,57.5C 32.3545,59.2331 34.6879,60.2331 37.5,60.5C 37.5,60.8333 37.5,61.1667 37.5,61.5C 34.6122,60.9898 32.2789,61.6565 30.5,63.5C 27.0526,62.3294 23.7192,60.996 20.5,59.5C 19.9569,59.44 19.6236,59.1067 19.5,58.5C 21.3983,57.2655 23.065,57.5989 24.5,59.5C 25.2975,59.0431 25.6309,58.3764 25.5,57.5 Z"/></g>
<g><path style="opacity:1" fill="#dddddd" d="M 92.5,52.5 C 93.1667,52.5 93.8333,52.5 94.5,52.5C 96.1184,55.8878 97.1184,59.5544 97.5,63.5C 94.3899,62.1975 91.3899,62.5309 88.5,64.5C 87.9986,62.3449 86.9986,60.6782 85.5,59.5C 87.2074,57.9853 89.2074,56.652 91.5,55.5C 92.1667,56.1667 92.8333,56.8333 93.5,57.5C 94.6838,55.533 94.3505,53.8664 92.5,52.5 Z"/></g>
<g><path style="opacity:1" fill="#dbdbdb" d="M 78.5,57.5 C 80.7812,57.0773 82.4479,57.744 83.5,59.5C 80.5641,60.4058 77.5641,61.0725 74.5,61.5C 74.3653,63.5542 75.032,65.2209 76.5,66.5C 75.1667,66.5 73.8333,66.5 72.5,66.5C 72.5198,64.857 71.8532,63.5237 70.5,62.5C 71.2427,61.8182 71.9094,61.1515 72.5,60.5C 75.3933,60.9689 77.3933,59.9689 78.5,57.5 Z"/></g>
<g><path style="opacity:1" fill="#bfbfbf" d="M 83.5,59.5 C 84.1667,59.5 84.8333,59.5 85.5,59.5C 86.9986,60.6782 87.9986,62.3449 88.5,64.5C 91.3899,62.5309 94.3899,62.1975 97.5,63.5C 97.5,64.5 97.5,65.5 97.5,66.5C 96.2209,67.968 94.5542,68.6347 92.5,68.5C 89.9242,68.5321 87.5909,67.8654 85.5,66.5C 85.719,65.325 85.3857,64.325 84.5,63.5C 81.6562,64.172 78.9895,65.172 76.5,66.5C 75.032,65.2209 74.3653,63.5542 74.5,61.5C 77.5641,61.0725 80.5641,60.4058 83.5,59.5 Z"/></g>
<g><path style="opacity:1" fill="#e7e7e7" d="M 69.5,59.5 C 70.209,60.404 71.209,60.7373 72.5,60.5C 71.9094,61.1515 71.2427,61.8182 70.5,62.5C 71.8532,63.5237 72.5198,64.857 72.5,66.5C 73.8333,66.5 75.1667,66.5 76.5,66.5C 75.8333,67.8333 75.1667,69.1667 74.5,70.5C 70.715,70.6311 67.0483,71.2978 63.5,72.5C 63.5,69.8333 63.5,67.1667 63.5,64.5C 64.8333,64.5 66.1667,64.5 67.5,64.5C 66.551,62.2627 65.8844,59.9294 65.5,57.5C 67.1993,57.5271 68.5326,58.1938 69.5,59.5 Z"/></g>
<g><path style="opacity:1" fill="#dbdbdb" d="M 20.5,59.5 C 23.7192,60.996 27.0526,62.3294 30.5,63.5C 28.1851,64.4918 26.5184,66.1585 25.5,68.5C 24.8333,68.5 24.1667,68.5 23.5,68.5C 23.8948,65.4775 22.8948,64.4775 20.5,65.5C 19.6114,63.993 18.6114,62.6597 17.5,61.5C 19.1788,61.7148 20.1788,61.0481 20.5,59.5 Z"/></g>
<g><path style="opacity:0.972" fill="#e3e3e3" d="M 37.5,61.5 C 36.701,64.4299 36.3677,67.4299 36.5,70.5C 35.8333,70.5 35.1667,70.5 34.5,70.5C 34.5,69.1667 34.5,67.8333 34.5,66.5C 31.4359,66.9275 28.4359,67.5942 25.5,68.5C 26.5184,66.1585 28.1851,64.4918 30.5,63.5C 32.2789,61.6565 34.6122,60.9898 37.5,61.5 Z"/></g>
<g><path style="opacity:1" fill="#d6d6d6" d="M 12.5,59.5 C 11.8921,60.7997 11.2255,62.1331 10.5,63.5C 11.5471,65.0564 12.2137,66.7231 12.5,68.5C 11.8333,68.5 11.1667,68.5 10.5,68.5C 9.84851,69.0906 9.18185,69.7573 8.5,70.5C 7.15848,68.9951 5.49181,68.3285 3.5,68.5C 3.5,66.8333 3.5,65.1667 3.5,63.5C 4.83333,63.5 6.16667,63.5 7.5,63.5C 7.5,62.1667 7.5,60.8333 7.5,59.5C 9.16667,59.5 10.8333,59.5 12.5,59.5 Z"/></g>
<g><path style="opacity:1" fill="#d1d1d1" d="M 17.5,61.5 C 18.6114,62.6597 19.6114,63.993 20.5,65.5C 22.8948,64.4775 23.8948,65.4775 23.5,68.5C 21.8333,68.5 20.1667,68.5 18.5,68.5C 18.5,67.1667 17.8333,66.5 16.5,66.5C 15.871,64.5351 15.2043,62.5351 14.5,60.5C 14.8333,59.5 15.1667,58.5 15.5,57.5C 16.1719,58.9492 16.8386,60.2825 17.5,61.5 Z"/></g>
<g><path style="opacity:1" fill="#ebebeb" d="M 16.5,66.5 C 17.8333,66.5 18.5,67.1667 18.5,68.5C 18.6715,70.4918 18.0049,72.1585 16.5,73.5C 16.9569,74.2975 17.6236,74.6309 18.5,74.5C 17.9094,75.1515 17.2427,75.8182 16.5,76.5C 18.4086,78.0799 20.0753,79.7465 21.5,81.5C 21.6309,82.3764 21.2975,83.0431 20.5,83.5C 19.8182,82.7573 19.1515,82.0906 18.5,81.5C 16.5,81.5 14.5,81.5 12.5,81.5C 12.7214,80.2652 13.3881,79.2652 14.5,78.5C 9.30595,77.1695 9.30595,75.6695 14.5,74C 11.5744,73.313 10.2411,71.4797 10.5,68.5C 11.1667,68.5 11.8333,68.5 12.5,68.5C 14.4832,68.8432 15.8166,68.1765 16.5,66.5 Z"/></g>
<g><path style="opacity:1" fill="#ebebeb" d="M 18.5,68.5 C 20.1667,68.5 21.8333,68.5 23.5,68.5C 24.1667,68.5 24.8333,68.5 25.5,68.5C 25.5,70.1667 25.5,71.8333 25.5,73.5C 25.6309,74.3764 25.2975,75.0431 24.5,75.5C 22.5699,73.826 20.5699,73.4927 18.5,74.5C 17.6236,74.6309 16.9569,74.2975 16.5,73.5C 18.0049,72.1585 18.6715,70.4918 18.5,68.5 Z"/></g>
<g><path style="opacity:1" fill="#dbdbdb" d="M 34.5,70.5 C 33.1667,70.5 31.8333,70.5 30.5,70.5C 30.5,71.5 30.5,72.5 30.5,73.5C 28.4089,71.4892 26.7422,71.4892 25.5,73.5C 25.5,71.8333 25.5,70.1667 25.5,68.5C 28.4359,67.5942 31.4359,66.9275 34.5,66.5C 34.5,67.8333 34.5,69.1667 34.5,70.5 Z"/></g>
<g><path style="opacity:1" fill="#d7d7d7" d="M 85.5,66.5 C 84.6236,66.3691 83.9569,66.7025 83.5,67.5C 84.6119,68.2652 85.2786,69.2652 85.5,70.5C 83.8439,72.0603 81.8439,73.0603 79.5,73.5C 78.8501,73.8039 78.1835,74.1373 77.5,74.5C 76.9432,72.6684 75.9432,71.3351 74.5,70.5C 75.1667,69.1667 75.8333,67.8333 76.5,66.5C 78.9895,65.172 81.6562,64.172 84.5,63.5C 85.3857,64.325 85.719,65.325 85.5,66.5 Z"/></g>
<g><path style="opacity:1" fill="#ededed" d="M 85.5,66.5 C 87.5909,67.8654 89.9242,68.5321 92.5,68.5C 92.4486,70.5695 93.1153,72.4029 94.5,74C 94.1639,75.0299 93.4972,75.5299 92.5,75.5C 91.032,74.2209 90.3653,72.5542 90.5,70.5C 88.8333,70.5 87.1667,70.5 85.5,70.5C 85.2786,69.2652 84.6119,68.2652 83.5,67.5C 83.9569,66.7025 84.6236,66.3691 85.5,66.5 Z"/></g>
<g><path style="opacity:1" fill="#ebebeb" d="M 34.5,70.5 C 35.1667,70.5 35.8333,70.5 36.5,70.5C 37.4067,72.6568 38.0733,74.9902 38.5,77.5C 37.1667,77.5 35.8333,77.5 34.5,77.5C 34.7852,75.712 34.4519,74.0453 33.5,72.5C 32.7348,73.6119 31.7348,74.2786 30.5,74.5C 30.5,74.1667 30.5,73.8333 30.5,73.5C 30.5,72.5 30.5,71.5 30.5,70.5C 31.8333,70.5 33.1667,70.5 34.5,70.5 Z"/></g>
<g><path style="opacity:1" fill="#e0e0e0" d="M 3.5,68.5 C 5.49181,68.3285 7.15848,68.9951 8.5,70.5C 9.18185,69.7573 9.84851,69.0906 10.5,68.5C 10.2411,71.4797 11.5744,73.313 14.5,74C 9.30595,75.6695 9.30595,77.1695 14.5,78.5C 13.3881,79.2652 12.7214,80.2652 12.5,81.5C 12.5,81.8333 12.5,82.1667 12.5,82.5C 12.9746,85.0821 12.3079,87.0821 10.5,88.5C 9.77842,88.9175 9.27842,89.5842 9,90.5C 8.58309,89.244 7.74975,88.5774 6.5,88.5C 3.96456,82.1109 2.96456,75.4442 3.5,68.5 Z"/></g>
<g><path style="opacity:0.85" fill="#cecece" d="M 74.5,70.5 C 74.2623,73.0685 72.929,74.7352 70.5,75.5C 70.2648,74.9033 69.7648,74.5699 69,74.5C 67.016,75.3393 65.1826,76.3393 63.5,77.5C 63.5,75.8333 63.5,74.1667 63.5,72.5C 67.0483,71.2978 70.715,70.6311 74.5,70.5 Z"/></g>
<g><path style="opacity:1" fill="#cecece" d="M 97.5,66.5 C 97.5,71.5 97.5,76.5 97.5,81.5C 96.5,81.5 95.5,81.5 94.5,81.5C 94.5,80.1667 94.5,78.8333 94.5,77.5C 92.1667,77.5 89.8333,77.5 87.5,77.5C 88.5521,75.744 90.2188,75.0773 92.5,75.5C 93.4972,75.5299 94.1639,75.0299 94.5,74C 93.1153,72.4029 92.4486,70.5695 92.5,68.5C 94.5542,68.6347 96.2209,67.968 97.5,66.5 Z"/></g>
<g><path style="opacity:1" fill="#d3d3d3" d="M 30.5,73.5 C 30.5,73.8333 30.5,74.1667 30.5,74.5C 29.7332,79.6971 26.7332,82.0304 21.5,81.5C 20.0753,79.7465 18.4086,78.0799 16.5,76.5C 17.2427,75.8182 17.9094,75.1515 18.5,74.5C 20.5699,73.4927 22.5699,73.826 24.5,75.5C 25.2975,75.0431 25.6309,74.3764 25.5,73.5C 26.7422,71.4892 28.4089,71.4892 30.5,73.5 Z"/></g>
<g><path style="opacity:1" fill="#dedede" d="M 74.5,70.5 C 75.9432,71.3351 76.9432,72.6684 77.5,74.5C 78.1835,74.1373 78.8501,73.8039 79.5,73.5C 79.1788,75.0481 78.1788,75.7148 76.5,75.5C 76.5,76.8333 76.5,78.1667 76.5,79.5C 78.1667,79.5 79.8333,79.5 81.5,79.5C 81.666,83.3734 80.666,84.0401 78.5,81.5C 75.9179,81.0254 73.9179,81.6921 72.5,83.5C 71.1667,83.5 70.5,82.8333 70.5,81.5C 70.5,79.5 70.5,77.5 70.5,75.5C 72.929,74.7352 74.2623,73.0685 74.5,70.5 Z"/></g>
<g><path style="opacity:1" fill="#f0f0f0" d="M 70.5,75.5 C 70.5,77.5 70.5,79.5 70.5,81.5C 67.6122,82.0102 65.2789,81.3435 63.5,79.5C 63.5,78.8333 63.5,78.1667 63.5,77.5C 65.1826,76.3393 67.016,75.3393 69,74.5C 69.7648,74.5699 70.2648,74.9033 70.5,75.5 Z"/></g>
<g><path style="opacity:1" fill="#d8d8d8" d="M 38.5,77.5 C 39.5294,79.5168 40.5294,81.5168 41.5,83.5C 41.5,84.5 41.5,85.5 41.5,86.5C 38.5,86.5 35.5,86.5 32.5,86.5C 32.5,85.5 32.5,84.5 32.5,83.5C 27.8592,84.1266 23.1925,84.4599 18.5,84.5C 18.5,83.5 18.5,82.5 18.5,81.5C 19.1515,82.0906 19.8182,82.7573 20.5,83.5C 21.2975,83.0431 21.6309,82.3764 21.5,81.5C 26.7332,82.0304 29.7332,79.6971 30.5,74.5C 31.7348,74.2786 32.7348,73.6119 33.5,72.5C 34.4519,74.0453 34.7852,75.712 34.5,77.5C 35.8333,77.5 37.1667,77.5 38.5,77.5 Z"/></g>
<g><path style="opacity:1" fill="#e6e6e6" d="M 79.5,73.5 C 81.5273,73.3379 83.5273,73.5045 85.5,74C 84.267,75.6977 83.6004,77.6977 83.5,80C 83.5465,82.2953 84.2132,84.1286 85.5,85.5C 84.4489,86.2223 83.7822,87.2223 83.5,88.5C 82.5,88.5 81.5,88.5 80.5,88.5C 81.2341,87.2921 81.5674,85.9587 81.5,84.5C 80.5,84.5 79.5,84.5 78.5,84.5C 78.5,83.5 78.5,82.5 78.5,81.5C 80.666,84.0401 81.666,83.3734 81.5,79.5C 79.8333,79.5 78.1667,79.5 76.5,79.5C 76.5,78.1667 76.5,76.8333 76.5,75.5C 78.1788,75.7148 79.1788,75.0481 79.5,73.5 Z"/></g>
<g><path style="opacity:1" fill="#dbdbdb" d="M 85.5,70.5 C 87.1667,70.5 88.8333,70.5 90.5,70.5C 90.3653,72.5542 91.032,74.2209 92.5,75.5C 90.2188,75.0773 88.5521,75.744 87.5,77.5C 86.6236,77.3691 85.9569,77.7025 85.5,78.5C 89.3354,79.9965 89.3354,80.9965 85.5,81.5C 85.5,82.8333 85.5,84.1667 85.5,85.5C 84.2132,84.1286 83.5465,82.2953 83.5,80C 83.6004,77.6977 84.267,75.6977 85.5,74C 83.5273,73.5045 81.5273,73.3379 79.5,73.5C 81.8439,73.0603 83.8439,72.0603 85.5,70.5 Z"/></g>
<g><path style="opacity:1" fill="#cdcdcd" d="M 12.5,82.5 C 12.5,82.1667 12.5,81.8333 12.5,81.5C 14.5,81.5 16.5,81.5 18.5,81.5C 18.5,82.5 18.5,83.5 18.5,84.5C 23.1925,84.4599 27.8592,84.1266 32.5,83.5C 32.5,84.5 32.5,85.5 32.5,86.5C 28.1161,86.1744 23.7828,86.5078 19.5,87.5C 21.8912,88.8086 21.8912,89.8086 19.5,90.5C 17.9436,89.4529 16.2769,88.7863 14.5,88.5C 14.9746,85.9179 14.3079,83.9179 12.5,82.5 Z"/></g>
<g><path style="opacity:1" fill="#c2c2c2" d="M 63.5,79.5 C 65.2789,81.3435 67.6122,82.0102 70.5,81.5C 70.5,82.8333 71.1667,83.5 72.5,83.5C 72.5,84.5 72.5,85.5 72.5,86.5C 72.5,87.1667 72.5,87.8333 72.5,88.5C 69.5299,88.2542 68.1966,86.5876 68.5,83.5C 67.5,83.5 66.5,83.5 65.5,83.5C 65.5,85.1667 65.5,86.8333 65.5,88.5C 64.1667,88.5 62.8333,88.5 61.5,88.5C 61.7845,86.5853 61.4511,84.9187 60.5,83.5C 61.5116,82.1283 62.5116,80.795 63.5,79.5 Z"/></g>
<g><path style="opacity:1" fill="#efefef" d="M 87.5,77.5 C 89.8333,77.5 92.1667,77.5 94.5,77.5C 94.5,78.8333 94.5,80.1667 94.5,81.5C 92.0107,81.2407 90.344,82.2407 89.5,84.5C 87.8235,85.1834 87.1568,86.5168 87.5,88.5C 89.6056,88.679 91.2723,89.679 92.5,91.5C 91.7573,92.1818 91.0906,92.8485 90.5,93.5C 89.8826,93.6107 89.3826,93.944 89,94.5C 88.7216,93.5842 88.2216,92.9175 87.5,92.5C 86.1667,92.5 84.8333,92.5 83.5,92.5C 83.5,91.1667 83.5,89.8333 83.5,88.5C 83.7822,87.2223 84.4489,86.2223 85.5,85.5C 85.5,84.1667 85.5,82.8333 85.5,81.5C 89.3354,80.9965 89.3354,79.9965 85.5,78.5C 85.9569,77.7025 86.6236,77.3691 87.5,77.5 Z"/></g>
<g><path style="opacity:1" fill="#e7e7e7" d="M 94.5,81.5 C 95.5,81.5 96.5,81.5 97.5,81.5C 97.5,85.1667 97.5,88.8333 97.5,92.5C 94.7906,89.8248 92.1239,87.1581 89.5,84.5C 90.344,82.2407 92.0107,81.2407 94.5,81.5 Z"/></g>
<g><path style="opacity:1" fill="#ebebeb" d="M 78.5,81.5 C 78.5,82.5 78.5,83.5 78.5,84.5C 79.5,84.5 80.5,84.5 81.5,84.5C 81.5674,85.9587 81.2341,87.2921 80.5,88.5C 80.1667,88.5 79.8333,88.5 79.5,88.5C 77.7211,86.6565 75.3878,85.9898 72.5,86.5C 72.5,85.5 72.5,84.5 72.5,83.5C 73.9179,81.6921 75.9179,81.0254 78.5,81.5 Z"/></g>
<g><path style="opacity:1" fill="#d8d8d8" d="M 89.5,84.5 C 92.1239,87.1581 94.7906,89.8248 97.5,92.5C 97.3541,96.3875 96.6874,100.054 95.5,103.5C 94.5655,102.432 94.2322,101.099 94.5,99.5C 93.1667,99.5 91.8333,99.5 90.5,99.5C 90.7214,98.2652 91.3881,97.2652 92.5,96.5C 91.3881,95.7348 90.7214,94.7348 90.5,93.5C 91.0906,92.8485 91.7573,92.1818 92.5,91.5C 91.2723,89.679 89.6056,88.679 87.5,88.5C 87.1568,86.5168 87.8235,85.1834 89.5,84.5 Z"/></g>
<g><path style="opacity:1" fill="#c7c7c7" d="M 41.5,83.5 C 43.2554,84.0722 44.9221,84.9055 46.5,86C 48.4727,86.4955 50.4727,86.6621 52.5,86.5C 50.7077,88.5693 48.3744,89.9026 45.5,90.5C 44.1667,89.1667 42.8333,87.8333 41.5,86.5C 41.5,85.5 41.5,84.5 41.5,83.5 Z"/></g>
<g><path style="opacity:1" fill="#d9d9d9" d="M 32.5,86.5 C 34.7171,88.0799 37.3837,89.0799 40.5,89.5C 36.4383,93.4462 32.605,93.1128 29,88.5C 28.5,88.8333 28,89.1667 27.5,89.5C 28.6119,90.2652 29.2786,91.2652 29.5,92.5C 28.1667,92.5 26.8333,92.5 25.5,92.5C 25.762,91.0222 25.4287,89.6888 24.5,88.5C 23.9432,90.3316 22.9432,91.6649 21.5,92.5C 18.0771,92.876 15.7438,91.5426 14.5,88.5C 16.2769,88.7863 17.9436,89.4529 19.5,90.5C 21.8912,89.8086 21.8912,88.8086 19.5,87.5C 23.7828,86.5078 28.1161,86.1744 32.5,86.5 Z"/></g>
<g><path style="opacity:1" fill="#cfcfcf" d="M 72.5,88.5 C 72.5,89.1667 72.5,89.8333 72.5,90.5C 71.1667,90.5 69.8333,90.5 68.5,90.5C 66.334,93.0401 65.334,92.3734 65.5,88.5C 65.5,86.8333 65.5,85.1667 65.5,83.5C 66.5,83.5 67.5,83.5 68.5,83.5C 68.1966,86.5876 69.5299,88.2542 72.5,88.5 Z"/></g>
<g><path style="opacity:1" fill="#dbdbdb" d="M 60.5,83.5 C 61.4511,84.9187 61.7845,86.5853 61.5,88.5C 58.6122,87.9898 56.2789,88.6565 54.5,90.5C 52.7758,92.852 50.4424,94.5187 47.5,95.5C 46.4625,94.0697 45.7959,92.403 45.5,90.5C 48.3744,89.9026 50.7077,88.5693 52.5,86.5C 55.3798,86.0598 58.0465,85.0598 60.5,83.5 Z"/></g>
<g><path style="opacity:1" fill="#e1e1e1" d="M 72.5,86.5 C 75.3878,85.9898 77.7211,86.6565 79.5,88.5C 78.2209,89.968 76.5542,90.6347 74.5,90.5C 74.5,91.8333 74.5,93.1667 74.5,94.5C 72.8235,93.8166 72.1568,92.4832 72.5,90.5C 72.5,89.8333 72.5,89.1667 72.5,88.5C 72.5,87.8333 72.5,87.1667 72.5,86.5 Z"/></g>
<g><path style="opacity:1" fill="#d4d4d4" d="M 79.5,88.5 C 79.8333,88.5 80.1667,88.5 80.5,88.5C 81.5,88.5 82.5,88.5 83.5,88.5C 83.5,89.8333 83.5,91.1667 83.5,92.5C 81.4816,93.6225 79.4816,93.6225 77.5,92.5C 76.6143,93.325 76.281,94.325 76.5,95.5C 76.8432,97.4832 76.1765,98.8166 74.5,99.5C 74.5,97.8333 74.5,96.1667 74.5,94.5C 74.5,93.1667 74.5,91.8333 74.5,90.5C 76.5542,90.6347 78.2209,89.968 79.5,88.5 Z"/></g>
<g><path style="opacity:1" fill="#cacaca" d="M 29.5,92.5 C 30.4511,93.9187 30.7845,95.5853 30.5,97.5C 28.2627,96.551 25.9294,95.8844 23.5,95.5C 23.2178,94.2223 22.5511,93.2223 21.5,92.5C 22.9432,91.6649 23.9432,90.3316 24.5,88.5C 25.4287,89.6888 25.762,91.0222 25.5,92.5C 26.8333,92.5 28.1667,92.5 29.5,92.5 Z"/></g>
<g><path style="opacity:1" fill="#e2e2e2" d="M 32.5,86.5 C 35.5,86.5 38.5,86.5 41.5,86.5C 42.8333,87.8333 44.1667,89.1667 45.5,90.5C 44.1667,90.5 42.8333,90.5 41.5,90.5C 40.8333,92.8333 40.1667,95.1667 39.5,97.5C 38.5,97.5 37.5,97.5 36.5,97.5C 34.5,97.5 32.5,97.5 30.5,97.5C 30.7845,95.5853 30.4511,93.9187 29.5,92.5C 29.2786,91.2652 28.6119,90.2652 27.5,89.5C 28,89.1667 28.5,88.8333 29,88.5C 32.605,93.1128 36.4383,93.4462 40.5,89.5C 37.3837,89.0799 34.7171,88.0799 32.5,86.5 Z"/></g>
<g><path style="opacity:0.923" fill="#dcdcdc" d="M 6.5,88.5 C 7.74975,88.5774 8.58309,89.244 9,90.5C 9.27842,89.5842 9.77842,88.9175 10.5,88.5C 11.5841,90.4321 12.9174,92.2654 14.5,94C 13.6293,95.3638 12.6293,96.5305 11.5,97.5C 9.07642,94.9922 7.40975,91.9922 6.5,88.5 Z"/></g>
<g><path style="opacity:1" fill="#c2c2c2" d="M 12.5,82.5 C 14.3079,83.9179 14.9746,85.9179 14.5,88.5C 15.7438,91.5426 18.0771,92.876 21.5,92.5C 22.5511,93.2223 23.2178,94.2223 23.5,95.5C 23.5,96.1667 23.5,96.8333 23.5,97.5C 19.5874,97.1868 15.9207,97.8534 12.5,99.5C 12.1667,98.8333 11.8333,98.1667 11.5,97.5C 12.6293,96.5305 13.6293,95.3638 14.5,94C 12.9174,92.2654 11.5841,90.4321 10.5,88.5C 12.3079,87.0821 12.9746,85.0821 12.5,82.5 Z"/></g>
<g><path style="opacity:1" fill="#eaeaea" d="M 54.5,90.5 C 56.9294,90.8844 59.2627,91.551 61.5,92.5C 61.5,93.5 61.5,94.5 61.5,95.5C 57.9878,94.9455 54.9878,95.6122 52.5,97.5C 50.8333,97.5 49.1667,97.5 47.5,97.5C 47.5,96.8333 47.5,96.1667 47.5,95.5C 50.4424,94.5187 52.7758,92.852 54.5,90.5 Z"/></g>
<g><path style="opacity:1" fill="#d1d1d1" d="M 61.5,88.5 C 62.8333,88.5 64.1667,88.5 65.5,88.5C 65.334,92.3734 66.334,93.0401 68.5,90.5C 69.5025,92.0109 70.1692,93.6776 70.5,95.5C 68.2627,94.551 65.9294,93.8844 63.5,93.5C 62.8333,95.5 62.1667,97.5 61.5,99.5C 59.857,99.5198 58.5237,98.8532 57.5,97.5C 56.9432,99.3316 55.9432,100.665 54.5,101.5C 54.5,100.833 54.5,100.167 54.5,99.5C 54.5,98.1667 53.8333,97.5 52.5,97.5C 54.9878,95.6122 57.9878,94.9455 61.5,95.5C 61.5,94.5 61.5,93.5 61.5,92.5C 59.2627,91.551 56.9294,90.8844 54.5,90.5C 56.2789,88.6565 58.6122,87.9898 61.5,88.5 Z"/></g>
<g><path style="opacity:1" fill="#e7e7e7" d="M 68.5,90.5 C 69.8333,90.5 71.1667,90.5 72.5,90.5C 72.1568,92.4832 72.8235,93.8166 74.5,94.5C 74.5,96.1667 74.5,97.8333 74.5,99.5C 73.8333,99.5 73.1667,99.5 72.5,99.5C 71.4855,98.2353 69.9855,97.5687 68,97.5C 65.6591,97.8295 63.4924,98.4962 61.5,99.5C 62.1667,97.5 62.8333,95.5 63.5,93.5C 65.9294,93.8844 68.2627,94.551 70.5,95.5C 70.1692,93.6776 69.5025,92.0109 68.5,90.5 Z"/></g>
<g><path style="opacity:1" fill="#d3d3d3" d="M 45.5,90.5 C 45.7959,92.403 46.4625,94.0697 47.5,95.5C 47.5,96.1667 47.5,96.8333 47.5,97.5C 42.1667,98.1667 42.1667,98.8333 47.5,99.5C 47.5,101.167 47.5,102.833 47.5,104.5C 46.1667,104.5 45.5,103.833 45.5,102.5C 42.6904,101.181 39.6904,100.181 36.5,99.5C 36.5,98.8333 36.5,98.1667 36.5,97.5C 37.5,97.5 38.5,97.5 39.5,97.5C 40.1667,95.1667 40.8333,92.8333 41.5,90.5C 42.8333,90.5 44.1667,90.5 45.5,90.5 Z"/></g>
<g><path style="opacity:1" fill="#d0d0d0" d="M 83.5,92.5 C 84.8333,92.5 86.1667,92.5 87.5,92.5C 87.5,94.1667 87.5,95.8333 87.5,97.5C 85.5,97.5 83.5,97.5 81.5,97.5C 80.4479,95.744 78.7812,95.0773 76.5,95.5C 76.281,94.325 76.6143,93.325 77.5,92.5C 79.4816,93.6225 81.4816,93.6225 83.5,92.5 Z"/></g>
<g><path style="opacity:1" fill="#dfdfdf" d="M 47.5,97.5 C 49.1667,97.5 50.8333,97.5 52.5,97.5C 53.8333,97.5 54.5,98.1667 54.5,99.5C 53.2436,99.9038 52.0769,100.571 51,101.5C 50.0546,101.095 49.3879,100.428 49,99.5C 48.8019,101.382 48.3019,103.048 47.5,104.5C 47.5,102.833 47.5,101.167 47.5,99.5C 42.1667,98.8333 42.1667,98.1667 47.5,97.5 Z"/></g>
<g><path style="opacity:1" fill="#c6c6c6" d="M 72.5,99.5 C 70.1667,99.5 67.8333,99.5 65.5,99.5C 65.5,101.167 65.5,102.833 65.5,104.5C 64.8333,104.5 64.1667,104.5 63.5,104.5C 62.032,103.221 61.3653,101.554 61.5,99.5C 63.4924,98.4962 65.6591,97.8295 68,97.5C 69.9855,97.5687 71.4855,98.2353 72.5,99.5 Z"/></g>
<g><path style="opacity:1" fill="#d3d3d3" d="M 23.5,97.5 C 23.5,98.8333 24.1667,99.5 25.5,99.5C 24.4975,101.011 23.8308,102.678 23.5,104.5C 21.7085,104.366 20.0418,104.699 18.5,105.5C 16.1667,103.833 14.1667,101.833 12.5,99.5C 15.9207,97.8534 19.5874,97.1868 23.5,97.5 Z"/></g>
<g><path style="opacity:1" fill="#ebebeb" d="M 23.5,95.5 C 25.9294,95.8844 28.2627,96.551 30.5,97.5C 32.5,97.5 34.5,97.5 36.5,97.5C 36.5,98.1667 36.5,98.8333 36.5,99.5C 36.1667,99.5 35.8333,99.5 35.5,99.5C 33.6776,99.8308 32.0109,100.498 30.5,101.5C 28.6776,101.169 27.0109,100.502 25.5,99.5C 24.1667,99.5 23.5,98.8333 23.5,97.5C 23.5,96.8333 23.5,96.1667 23.5,95.5 Z"/></g>
<g><path style="opacity:1" fill="#ebebeb" d="M 54.5,99.5 C 54.5,100.167 54.5,100.833 54.5,101.5C 55.4475,102.978 56.7809,103.978 58.5,104.5C 56.5168,104.157 55.1834,104.824 54.5,106.5C 53.4138,106.62 52.7472,107.287 52.5,108.5C 53.2255,109.867 53.8921,111.2 54.5,112.5C 51.1244,114.082 47.4578,114.749 43.5,114.5C 43.1601,111.856 43.8267,109.523 45.5,107.5C 44.3112,106.571 42.9778,106.238 41.5,106.5C 41.4877,103.858 42.821,102.525 45.5,102.5C 45.5,103.833 46.1667,104.5 47.5,104.5C 48.3019,103.048 48.8019,101.382 49,99.5C 49.3879,100.428 50.0546,101.095 51,101.5C 52.0769,100.571 53.2436,99.9038 54.5,99.5 Z"/></g>
<g><path style="opacity:1" fill="#dfdfdf" d="M 72.5,99.5 C 73.1667,99.5 73.8333,99.5 74.5,99.5C 74.5,100.167 74.5,100.833 74.5,101.5C 74.5,103.833 74.5,106.167 74.5,108.5C 71.5,107.167 68.5,105.833 65.5,104.5C 65.5,102.833 65.5,101.167 65.5,99.5C 67.8333,99.5 70.1667,99.5 72.5,99.5 Z"/></g>
<g><path style="opacity:1" fill="#e9e9e9" d="M 87.5,92.5 C 88.2216,92.9175 88.7216,93.5842 89,94.5C 89.3826,93.944 89.8826,93.6107 90.5,93.5C 90.7214,94.7348 91.3881,95.7348 92.5,96.5C 91.3881,97.2652 90.7214,98.2652 90.5,99.5C 90.7214,100.735 91.3881,101.735 92.5,102.5C 91.3112,103.429 89.9778,103.762 88.5,103.5C 88.5,102.167 88.5,100.833 88.5,99.5C 86.2188,99.0773 84.5521,99.744 83.5,101.5C 82.0222,101.762 80.6888,101.429 79.5,100.5C 80.6119,99.7348 81.2786,98.7348 81.5,97.5C 83.5,97.5 85.5,97.5 87.5,97.5C 87.5,95.8333 87.5,94.1667 87.5,92.5 Z"/></g>
<g><path style="opacity:1" fill="#cfcfcf" d="M 35.5,99.5 C 36.5025,101.011 37.1692,102.678 37.5,104.5C 41.2998,104.819 41.4665,105.819 38,107.5C 37.6174,106.944 37.1174,106.611 36.5,106.5C 32.9617,106.976 29.9617,108.309 27.5,110.5C 25.6203,110.771 24.287,110.104 23.5,108.5C 24.5893,106.883 26.256,106.05 28.5,106C 29.5822,104.67 30.2488,103.17 30.5,101.5C 32.0109,100.498 33.6776,99.8308 35.5,99.5 Z"/></g>
<g><path style="opacity:1" fill="#dedede" d="M 35.5,99.5 C 35.8333,99.5 36.1667,99.5 36.5,99.5C 39.6904,100.181 42.6904,101.181 45.5,102.5C 42.821,102.525 41.4877,103.858 41.5,106.5C 42.9778,106.238 44.3112,106.571 45.5,107.5C 43.8267,109.523 43.1601,111.856 43.5,114.5C 42.1667,114.5 40.8333,114.5 39.5,114.5C 41.0808,112.858 41.7475,110.858 41.5,108.5C 39.2188,108.923 37.5521,108.256 36.5,106.5C 37.1174,106.611 37.6174,106.944 38,107.5C 41.4665,105.819 41.2998,104.819 37.5,104.5C 37.1692,102.678 36.5025,101.011 35.5,99.5 Z"/></g>
<g><path style="opacity:1" fill="#e4e4e4" d="M 61.5,99.5 C 61.3653,101.554 62.032,103.221 63.5,104.5C 61.8333,104.5 60.1667,104.5 58.5,104.5C 56.7809,103.978 55.4475,102.978 54.5,101.5C 55.9432,100.665 56.9432,99.3316 57.5,97.5C 58.5237,98.8532 59.857,99.5198 61.5,99.5 Z"/></g>
<g><path style="opacity:1" fill="#dedede" d="M 76.5,95.5 C 78.7812,95.0773 80.4479,95.744 81.5,97.5C 81.2786,98.7348 80.6119,99.7348 79.5,100.5C 80.6888,101.429 82.0222,101.762 83.5,101.5C 83.5,102.167 83.5,102.833 83.5,103.5C 81.5168,103.157 80.1834,103.824 79.5,105.5C 77.6938,104.265 76.0271,102.931 74.5,101.5C 74.5,100.833 74.5,100.167 74.5,99.5C 76.1765,98.8166 76.8432,97.4832 76.5,95.5 Z"/></g>
<g><path style="opacity:0.833" fill="#e4e4e4" d="M 25.5,99.5 C 27.0109,100.502 28.6776,101.169 30.5,101.5C 30.2488,103.17 29.5822,104.67 28.5,106C 26.256,106.05 24.5893,106.883 23.5,108.5C 21.5659,107.89 19.8993,106.89 18.5,105.5C 20.0418,104.699 21.7085,104.366 23.5,104.5C 23.8308,102.678 24.4975,101.011 25.5,99.5 Z"/></g>
<g><path style="opacity:1" fill="#cacaca" d="M 74.5,101.5 C 76.0271,102.931 77.6938,104.265 79.5,105.5C 79.5,105.833 79.5,106.167 79.5,106.5C 79.5,107.833 79.5,109.167 79.5,110.5C 77.6776,110.831 76.0109,111.498 74.5,112.5C 74.5,111.167 74.5,109.833 74.5,108.5C 74.5,106.167 74.5,103.833 74.5,101.5 Z"/></g>
<g><path style="opacity:1" fill="#ececec" d="M 83.5,103.5 C 83.6329,106.896 84.6329,107.229 86.5,104.5C 89.0959,105.949 91.7626,106.949 94.5,107.5C 94.5,108.5 94.5,109.5 94.5,110.5C 90.715,110.369 87.0483,109.702 83.5,108.5C 82.1667,107.833 80.8333,107.167 79.5,106.5C 79.5,106.167 79.5,105.833 79.5,105.5C 80.1834,103.824 81.5168,103.157 83.5,103.5 Z"/></g>
<g><path style="opacity:1" fill="#d5d5d5" d="M 90.5,99.5 C 91.8333,99.5 93.1667,99.5 94.5,99.5C 94.2322,101.099 94.5655,102.432 95.5,103.5C 95.7678,105.099 95.4345,106.432 94.5,107.5C 91.7626,106.949 89.0959,105.949 86.5,104.5C 84.6329,107.229 83.6329,106.896 83.5,103.5C 83.5,102.833 83.5,102.167 83.5,101.5C 84.5521,99.744 86.2188,99.0773 88.5,99.5C 88.5,100.833 88.5,102.167 88.5,103.5C 89.9778,103.762 91.3112,103.429 92.5,102.5C 91.3881,101.735 90.7214,100.735 90.5,99.5 Z"/></g>
<g><path style="opacity:0.99" fill="#f2f2f2" d="M 58.5,104.5 C 60.1667,104.5 61.8333,104.5 63.5,104.5C 64.8333,106.5 66.1667,108.5 67.5,110.5C 67.5,111.833 66.8333,112.5 65.5,112.5C 62.9202,111.385 61.2535,109.385 60.5,106.5C 59.7836,107.311 58.9503,107.978 58,108.5C 56.9231,107.571 55.7564,106.904 54.5,106.5C 55.1834,104.824 56.5168,104.157 58.5,104.5 Z"/></g>
<g><path style="opacity:1" fill="#c9c9c9" d="M 63.5,104.5 C 64.1667,104.5 64.8333,104.5 65.5,104.5C 68.5,105.833 71.5,107.167 74.5,108.5C 74.5,109.833 74.5,111.167 74.5,112.5C 72.7179,111.28 70.7179,110.614 68.5,110.5C 68.1667,110.5 67.8333,110.5 67.5,110.5C 66.1667,108.5 64.8333,106.5 63.5,104.5 Z"/></g>
<g><path style="opacity:0.972" fill="#ededed" d="M 36.5,106.5 C 37.5521,108.256 39.2188,108.923 41.5,108.5C 41.7475,110.858 41.0808,112.858 39.5,114.5C 35.1138,114.034 31.1138,112.701 27.5,110.5C 29.9617,108.309 32.9617,106.976 36.5,106.5 Z"/></g>
<g><path style="opacity:0.893" fill="#d0d0d0" d="M 54.5,106.5 C 55.7564,106.904 56.9231,107.571 58,108.5C 58.9503,107.978 59.7836,107.311 60.5,106.5C 61.2535,109.385 62.9202,111.385 65.5,112.5C 66.8654,114.591 67.5321,116.924 67.5,119.5C 65.5,118.167 63.5,116.833 61.5,115.5C 61.4431,114.391 61.1098,113.391 60.5,112.5C 60.631,111.761 60.4643,111.094 60,110.5C 58.4157,111.861 56.5824,112.528 54.5,112.5C 53.8921,111.2 53.2255,109.867 52.5,108.5C 52.7472,107.287 53.4138,106.62 54.5,106.5 Z"/></g>
<g><path style="opacity:0.646" fill="#efefef" d="M 60.5,112.5 C 61.1098,113.391 61.4431,114.391 61.5,115.5C 60.2804,117.282 59.6138,119.282 59.5,121.5C 58.2209,122.968 56.5542,123.635 54.5,123.5C 54.5,122.5 54.5,121.5 54.5,120.5C 56.5116,117.795 58.5116,115.128 60.5,112.5 Z"/></g>
<g><path style="opacity:1" fill="#e4e4e4" d="M 67.5,110.5 C 67.8333,110.5 68.1667,110.5 68.5,110.5C 69.0476,112.394 70.0476,114.06 71.5,115.5C 72.1667,114.833 72.8333,114.167 73.5,113.5C 74.9344,114.588 75.9344,115.922 76.5,117.5C 75.0222,117.238 73.6888,117.571 72.5,118.5C 71.0401,120.972 69.0401,122.639 66.5,123.5C 66.1667,123.5 65.8333,123.5 65.5,123.5C 66.1667,122.167 66.8333,120.833 67.5,119.5C 67.5321,116.924 66.8654,114.591 65.5,112.5C 66.8333,112.5 67.5,111.833 67.5,110.5 Z"/></g>
<g><path style="opacity:1" fill="#d6d6d6" d="M 79.5,106.5 C 80.8333,107.167 82.1667,107.833 83.5,108.5C 83.4486,110.57 84.1153,112.403 85.5,114C 85.1639,115.03 84.4972,115.53 83.5,115.5C 83.6309,114.624 83.2975,113.957 82.5,113.5C 81.5713,114.689 81.238,116.022 81.5,117.5C 76.8897,117.596 76.5564,118.596 80.5,120.5C 79.3112,121.429 77.9778,121.762 76.5,121.5C 75.6236,121.631 74.9569,121.298 74.5,120.5C 75.6119,119.735 76.2786,118.735 76.5,117.5C 75.9344,115.922 74.9344,114.588 73.5,113.5C 72.8333,114.167 72.1667,114.833 71.5,115.5C 70.0476,114.06 69.0476,112.394 68.5,110.5C 70.7179,110.614 72.7179,111.28 74.5,112.5C 76.0109,111.498 77.6776,110.831 79.5,110.5C 79.5,109.167 79.5,107.833 79.5,106.5 Z"/></g>
<g><path style="opacity:1" fill="#dddddd" d="M 83.5,108.5 C 87.0483,109.702 90.715,110.369 94.5,110.5C 93.4055,113.682 92.0722,116.682 90.5,119.5C 87.6256,118.903 85.2923,117.569 83.5,115.5C 84.4972,115.53 85.1639,115.03 85.5,114C 84.1153,112.403 83.4486,110.57 83.5,108.5 Z"/></g>
<g><path style="opacity:1" fill="#ebebeb" d="M 61.5,115.5 C 63.5,116.833 65.5,118.167 67.5,119.5C 66.8333,120.833 66.1667,122.167 65.5,123.5C 63.7179,122.28 61.7179,121.614 59.5,121.5C 59.6138,119.282 60.2804,117.282 61.5,115.5 Z"/></g>
<g><path style="opacity:1" fill="#e4e4e4" d="M 81.5,117.5 C 80.9013,119.674 81.5679,121.674 83.5,123.5C 81.9519,123.821 81.2852,124.821 81.5,126.5C 80.1667,126.5 78.8333,126.5 77.5,126.5C 76.6993,124.958 76.366,123.292 76.5,121.5C 77.9778,121.762 79.3112,121.429 80.5,120.5C 76.5564,118.596 76.8897,117.596 81.5,117.5 Z"/></g>
<g><path style="opacity:1" fill="#f0f0f0" d="M 83.5,115.5 C 85.2923,117.569 87.6256,118.903 90.5,119.5C 89.7729,121.954 88.7729,124.287 87.5,126.5C 85.8784,125.878 84.5451,124.878 83.5,123.5C 81.5679,121.674 80.9013,119.674 81.5,117.5C 81.238,116.022 81.5713,114.689 82.5,113.5C 83.2975,113.957 83.6309,114.624 83.5,115.5 Z"/></g>
<g><path style="opacity:1" fill="#d8d8d8" d="M 76.5,117.5 C 76.2786,118.735 75.6119,119.735 74.5,120.5C 74.9569,121.298 75.6236,121.631 76.5,121.5C 76.366,123.292 76.6993,124.958 77.5,126.5C 76.609,127.11 75.609,127.443 74.5,127.5C 74.5,126.167 74.5,124.833 74.5,123.5C 73.1667,123.5 71.8333,123.5 70.5,123.5C 70.5,124.5 70.5,125.5 70.5,126.5C 69.5,126.5 68.5,126.5 67.5,126.5C 70.1001,125.031 69.7668,124.031 66.5,123.5C 69.0401,122.639 71.0401,120.972 72.5,118.5C 73.6888,117.571 75.0222,117.238 76.5,117.5 Z"/></g>
<g><path style="opacity:0.884" fill="#c5c5c5" d="M 54.5,120.5 C 54.5,121.5 54.5,122.5 54.5,123.5C 52.744,124.552 52.0773,126.219 52.5,128.5C 49.5,128.5 46.5,128.5 43.5,128.5C 43.5,127.5 43.5,126.5 43.5,125.5C 47.3837,124.276 51.0503,122.609 54.5,120.5 Z"/></g>
<g><path style="opacity:1" fill="#cccccc" d="M 59.5,121.5 C 61.7179,121.614 63.7179,122.28 65.5,123.5C 65.8333,123.5 66.1667,123.5 66.5,123.5C 69.7668,124.031 70.1001,125.031 67.5,126.5C 66.1667,126.5 64.8333,126.5 63.5,126.5C 62.1411,125.993 61.1411,124.993 60.5,123.5C 59.2011,124.09 58.3678,125.09 58,126.5C 56.8549,125.364 55.6883,124.364 54.5,123.5C 56.5542,123.635 58.2209,122.968 59.5,121.5 Z"/></g>
<g><path style="opacity:1" fill="#cdcdcd" d="M 83.5,123.5 C 84.5451,124.878 85.8784,125.878 87.5,126.5C 87.1667,127.5 86.5,128.167 85.5,128.5C 82.0793,130.147 78.4126,130.813 74.5,130.5C 74.5,129.5 74.5,128.5 74.5,127.5C 75.609,127.443 76.609,127.11 77.5,126.5C 78.8333,126.5 80.1667,126.5 81.5,126.5C 81.2852,124.821 81.9519,123.821 83.5,123.5 Z"/></g>
<g><path style="opacity:1" fill="#bababa" d="M 54.5,123.5 C 55.6883,124.364 56.8549,125.364 58,126.5C 58.3678,125.09 59.2011,124.09 60.5,123.5C 61.1411,124.993 62.1411,125.993 63.5,126.5C 64.8333,127.833 66.1667,129.167 67.5,130.5C 63.351,129.92 59.6843,130.586 56.5,132.5C 55.8333,132.5 55.1667,132.5 54.5,132.5C 54.8432,130.517 54.1765,129.183 52.5,128.5C 52.0773,126.219 52.744,124.552 54.5,123.5 Z"/></g>
<g><path style="opacity:0.688" fill="#dcdcdc" d="M 41.5,126.5 C 41.5,128.5 41.5,130.5 41.5,132.5C 38.752,130.956 35.752,130.29 32.5,130.5C 32.5,129.5 32.5,128.5 32.5,127.5C 35.5448,127.492 38.5448,127.159 41.5,126.5 Z"/></g>
<g><path style="opacity:0.969" fill="#e0e0e0" d="M 43.5,125.5 C 43.5,126.5 43.5,127.5 43.5,128.5C 46.5,128.5 49.5,128.5 52.5,128.5C 54.1765,129.183 54.8432,130.517 54.5,132.5C 53.1067,131.74 51.6067,131.074 50,130.5C 48.6244,130.684 47.7911,131.351 47.5,132.5C 45.9519,132.821 45.2852,133.821 45.5,135.5C 44.8333,135.5 44.1667,135.5 43.5,135.5C 42.4489,134.778 41.7822,133.778 41.5,132.5C 41.5,130.5 41.5,128.5 41.5,126.5C 42.1667,126.167 42.8333,125.833 43.5,125.5 Z"/></g>
<g><path style="opacity:0.796" fill="#e3e3e3" d="M 30.5,127.5 C 31.0818,129.998 31.0818,132.331 30.5,134.5C 29.0222,134.762 27.6888,134.429 26.5,133.5C 29.033,131.974 28.6997,130.974 25.5,130.5C 24.2867,130.747 23.62,131.414 23.5,132.5C 22.8333,132.5 22.1667,132.5 21.5,132.5C 21.5,130.833 21.5,129.167 21.5,127.5C 24.5,127.5 27.5,127.5 30.5,127.5 Z"/></g>
<g><path style="opacity:1" fill="#e2e2e2" d="M 74.5,127.5 C 74.5,128.5 74.5,129.5 74.5,130.5C 74.5,131.167 74.5,131.833 74.5,132.5C 73.8333,132.5 73.1667,132.5 72.5,132.5C 71.4479,130.744 69.7812,130.077 67.5,130.5C 66.1667,129.167 64.8333,127.833 63.5,126.5C 64.8333,126.5 66.1667,126.5 67.5,126.5C 68.5,126.5 69.5,126.5 70.5,126.5C 70.5,125.5 70.5,124.5 70.5,123.5C 71.8333,123.5 73.1667,123.5 74.5,123.5C 74.5,124.833 74.5,126.167 74.5,127.5 Z"/></g>
<g><path style="opacity:1" fill="#d6d6d6" d="M 30.5,134.5 C 32.4352,133.85 34.4352,133.517 36.5,133.5C 36.5,134.833 36.5,136.167 36.5,137.5C 35.1667,137.5 33.8333,137.5 32.5,137.5C 32.5,138.833 32.5,140.167 32.5,141.5C 30.2188,141.923 28.5521,141.256 27.5,139.5C 27.4012,136.361 26.0679,134.027 23.5,132.5C 23.62,131.414 24.2867,130.747 25.5,130.5C 28.6997,130.974 29.033,131.974 26.5,133.5C 27.6888,134.429 29.0222,134.762 30.5,134.5 Z"/></g>
<g><path style="opacity:1" fill="#d7d7d7" d="M 85.5,128.5 C 82.9536,133.719 79.2869,138.052 74.5,141.5C 74.5,140.833 74.5,140.167 74.5,139.5C 74.5,137.167 74.5,134.833 74.5,132.5C 74.5,131.833 74.5,131.167 74.5,130.5C 78.4126,130.813 82.0793,130.147 85.5,128.5 Z"/></g>
<g><path style="opacity:1" fill="#d0d0d0" d="M 30.5,127.5 C 31.1667,127.5 31.8333,127.5 32.5,127.5C 32.5,128.5 32.5,129.5 32.5,130.5C 35.752,130.29 38.752,130.956 41.5,132.5C 41.7822,133.778 42.4489,134.778 43.5,135.5C 43.7214,136.735 44.3881,137.735 45.5,138.5C 43.9951,139.842 43.3285,141.508 43.5,143.5C 41.5393,142.54 39.8726,141.207 38.5,139.5C 37.8333,138.833 37.1667,138.167 36.5,137.5C 36.5,136.167 36.5,134.833 36.5,133.5C 34.4352,133.517 32.4352,133.85 30.5,134.5C 31.0818,132.331 31.0818,129.998 30.5,127.5 Z"/></g>
<g><path style="opacity:1" fill="#e2e2e2" d="M 54.5,132.5 C 55.1667,132.5 55.8333,132.5 56.5,132.5C 56.67,133.822 56.3366,134.989 55.5,136C 56.8989,136.595 58.2322,136.428 59.5,135.5C 60.1818,136.243 60.8485,136.909 61.5,137.5C 61.2089,138.649 60.3756,139.316 59,139.5C 56.7562,138.76 54.9229,137.426 53.5,135.5C 52.7025,135.957 52.3691,136.624 52.5,137.5C 50.7182,136.009 49.0516,134.342 47.5,132.5C 47.7911,131.351 48.6244,130.684 50,130.5C 51.6067,131.074 53.1067,131.74 54.5,132.5 Z"/></g>
<g><path style="opacity:1" fill="#cdcdcd" d="M 67.5,130.5 C 69.7812,130.077 71.4479,130.744 72.5,132.5C 70.5,133.833 68.8333,135.5 67.5,137.5C 66.2652,137.279 65.2652,136.612 64.5,135.5C 63.7348,136.612 62.7348,137.279 61.5,137.5C 60.8485,136.909 60.1818,136.243 59.5,135.5C 58.2322,136.428 56.8989,136.595 55.5,136C 56.3366,134.989 56.67,133.822 56.5,132.5C 59.6843,130.586 63.351,129.92 67.5,130.5 Z"/></g>
<g><path style="opacity:1" fill="#e2e2e2" d="M 72.5,132.5 C 73.1667,132.5 73.8333,132.5 74.5,132.5C 74.5,134.833 74.5,137.167 74.5,139.5C 73.2003,138.892 71.8669,138.225 70.5,137.5C 69.2613,137.942 68.2613,138.609 67.5,139.5C 67.5,138.833 67.5,138.167 67.5,137.5C 68.8333,135.5 70.5,133.833 72.5,132.5 Z"/></g>
<g><path style="opacity:1" fill="#e4e4e4" d="M 43.5,135.5 C 44.1667,135.5 44.8333,135.5 45.5,135.5C 48.1128,136.392 48.7795,138.059 47.5,140.5C 48.9935,141.141 49.9935,142.141 50.5,143.5C 48.4687,143.972 46.8021,144.972 45.5,146.5C 41.6266,146.666 40.9599,145.666 43.5,143.5C 43.3285,141.508 43.9951,139.842 45.5,138.5C 44.3881,137.735 43.7214,136.735 43.5,135.5 Z"/></g>
<g><path style="opacity:1" fill="#ececec" d="M 61.5,137.5 C 62.7348,137.279 63.7348,136.612 64.5,135.5C 65.2652,136.612 66.2652,137.279 67.5,137.5C 67.5,138.167 67.5,138.833 67.5,139.5C 66.1667,139.5 64.8333,139.5 63.5,139.5C 63.2289,141.821 63.8955,143.821 65.5,145.5C 63.4469,146.527 61.4469,147.527 59.5,148.5C 58.7784,148.918 58.2784,149.584 58,150.5C 57.7216,149.584 57.2216,148.918 56.5,148.5C 54.6127,147.344 53.2794,145.677 52.5,143.5C 52.5,141.5 52.5,139.5 52.5,137.5C 52.3691,136.624 52.7025,135.957 53.5,135.5C 54.9229,137.426 56.7562,138.76 59,139.5C 60.3756,139.316 61.2089,138.649 61.5,137.5 Z"/></g>
<g><path style="opacity:1" fill="#c9c9c9" d="M 74.5,139.5 C 74.5,140.167 74.5,140.833 74.5,141.5C 70.0671,145.584 65.0671,148.918 59.5,151.5C 59.5,150.5 59.5,149.5 59.5,148.5C 61.4469,147.527 63.4469,146.527 65.5,145.5C 63.8955,143.821 63.2289,141.821 63.5,139.5C 64.8333,139.5 66.1667,139.5 67.5,139.5C 68.2613,138.609 69.2613,137.942 70.5,137.5C 71.8669,138.225 73.2003,138.892 74.5,139.5 Z"/></g>
<g><path style="opacity:1" fill="#d1d1d1" d="M 47.5,132.5 C 49.0516,134.342 50.7182,136.009 52.5,137.5C 52.5,139.5 52.5,141.5 52.5,143.5C 51.8333,143.5 51.1667,143.5 50.5,143.5C 49.9935,142.141 48.9935,141.141 47.5,140.5C 48.7795,138.059 48.1128,136.392 45.5,135.5C 45.2852,133.821 45.9519,132.821 47.5,132.5 Z"/></g>
<g><path style="opacity:0.75" fill="#c9c9c9" d="M 21.5,132.5 C 22.1667,132.5 22.8333,132.5 23.5,132.5C 26.0679,134.027 27.4012,136.361 27.5,139.5C 26.1667,139.5 24.8333,139.5 23.5,139.5C 23.1924,141.924 23.5258,144.257 24.5,146.5C 25.2652,147.612 26.2652,148.279 27.5,148.5C 26.2804,150.282 25.6138,152.282 25.5,154.5C 24.1667,153.167 22.8333,151.833 21.5,150.5C 21.5,144.5 21.5,138.5 21.5,132.5 Z"/></g>
<g><path style="opacity:1" fill="#ececec" d="M 36.5,137.5 C 37.1667,138.167 37.8333,138.833 38.5,139.5C 38.33,140.822 38.6634,141.989 39.5,143C 38.552,143.483 37.552,143.649 36.5,143.5C 36.2852,145.179 36.9519,146.179 38.5,146.5C 38.5,147.833 37.8333,148.5 36.5,148.5C 35.1667,148.5 33.8333,148.5 32.5,148.5C 31.8689,145.746 30.2022,143.912 27.5,143C 29.3817,142.802 31.0484,142.302 32.5,141.5C 32.5,140.167 32.5,138.833 32.5,137.5C 33.8333,137.5 35.1667,137.5 36.5,137.5 Z"/></g>
<g><path style="opacity:1" fill="#e1e1e1" d="M 27.5,139.5 C 28.5521,141.256 30.2188,141.923 32.5,141.5C 31.0484,142.302 29.3817,142.802 27.5,143C 30.2022,143.912 31.8689,145.746 32.5,148.5C 32.38,149.586 31.7133,150.253 30.5,150.5C 29.2613,150.058 28.2613,149.391 27.5,148.5C 26.2652,148.279 25.2652,147.612 24.5,146.5C 23.5258,144.257 23.1924,141.924 23.5,139.5C 24.8333,139.5 26.1667,139.5 27.5,139.5 Z"/></g>
<g><path style="opacity:1" fill="#c3c3c3" d="M 50.5,143.5 C 51.1667,143.5 51.8333,143.5 52.5,143.5C 53.2794,145.677 54.6127,147.344 56.5,148.5C 55.8166,150.176 54.4832,150.843 52.5,150.5C 52.5,149.167 52.5,147.833 52.5,146.5C 50.0706,146.884 47.7373,147.551 45.5,148.5C 45.5,147.833 45.5,147.167 45.5,146.5C 46.8021,144.972 48.4687,143.972 50.5,143.5 Z"/></g>
<g><path style="opacity:1" fill="#d3d3d3" d="M 38.5,139.5 C 39.8726,141.207 41.5393,142.54 43.5,143.5C 40.9599,145.666 41.6266,146.666 45.5,146.5C 45.5,147.167 45.5,147.833 45.5,148.5C 43.5168,148.157 42.1834,148.824 41.5,150.5C 40.0221,149.552 39.0221,148.219 38.5,146.5C 36.9519,146.179 36.2852,145.179 36.5,143.5C 37.552,143.649 38.552,143.483 39.5,143C 38.6634,141.989 38.33,140.822 38.5,139.5 Z"/></g>
<g><path style="opacity:1" fill="#d6d6d6" d="M 27.5,148.5 C 28.2613,149.391 29.2613,150.058 30.5,150.5C 31.7133,150.253 32.38,149.586 32.5,148.5C 33.8333,148.5 35.1667,148.5 36.5,148.5C 36.7214,149.735 37.3881,150.735 38.5,151.5C 33.9038,151.98 29.5704,152.98 25.5,154.5C 25.6138,152.282 26.2804,150.282 27.5,148.5 Z"/></g>
<g><path style="opacity:1" fill="#e0e0e0" d="M 56.5,148.5 C 57.2216,148.918 57.7216,149.584 58,150.5C 58.2784,149.584 58.7784,148.918 59.5,148.5C 59.5,149.5 59.5,150.5 59.5,151.5C 57.7162,151.893 56.0495,152.559 54.5,153.5C 54.6309,152.624 54.2975,151.957 53.5,151.5C 49.9867,152.743 47.32,151.743 45.5,148.5C 47.7373,147.551 50.0706,146.884 52.5,146.5C 52.5,147.833 52.5,149.167 52.5,150.5C 54.4832,150.843 55.8166,150.176 56.5,148.5 Z"/></g>
<g><path style="opacity:0.77" fill="#f1f1f1" d="M 45.5,148.5 C 47.32,151.743 49.9867,152.743 53.5,151.5C 54.2975,151.957 54.6309,152.624 54.5,153.5C 50.9288,154.642 47.2621,155.309 43.5,155.5C 43.1692,153.678 42.5025,152.011 41.5,150.5C 42.1834,148.824 43.5168,148.157 45.5,148.5 Z"/></g>
<g><path style="opacity:0.839" fill="#e0e0e0" d="M 38.5,146.5 C 39.0221,148.219 40.0221,149.552 41.5,150.5C 42.5025,152.011 43.1692,153.678 43.5,155.5C 36.3888,157.023 29.0555,157.69 21.5,157.5C 21.5,155.167 21.5,152.833 21.5,150.5C 22.8333,151.833 24.1667,153.167 25.5,154.5C 29.5704,152.98 33.9038,151.98 38.5,151.5C 37.3881,150.735 36.7214,149.735 36.5,148.5C 37.8333,148.5 38.5,147.833 38.5,146.5 Z"/></g>
</svg>
