<?xml version="1.0" encoding="UTF-8"?>
<!DOCTYPE svg PUBLIC "-//W3C//DTD SVG 1.1//EN" "http://www.w3.org/Graphics/SVG/1.1/DTD/svg11.dtd">
<svg xmlns="http://www.w3.org/2000/svg" version="1.1" width="104px" height="180px" style="shape-rendering:geometricPrecision; text-rendering:geometricPrecision; image-rendering:optimizeQuality; fill-rule:evenodd; clip-rule:evenodd" xmlns:xlink="http://www.w3.org/1999/xlink">
<g><path style="opacity:0.96" fill="#d5d5d5" d="M 65.5,19.5 C 67.0481,19.8212 67.7148,20.8212 67.5,22.5C 71.0192,22.1868 72.3526,23.5201 71.5,26.5C 69.7363,24.5213 67.7363,24.188 65.5,25.5C 66.9935,26.1411 67.9935,27.1411 68.5,28.5C 69.3351,29.9432 70.6684,30.9432 72.5,31.5C 71.6667,31.8333 70.8333,32.1667 70,32.5C 67.2985,31.7475 65.1319,30.4141 63.5,28.5C 62.4479,26.744 60.7812,26.0773 58.5,26.5C 58.5,24.8333 58.5,23.1667 58.5,21.5C 60.7457,20.5448 63.079,19.8782 65.5,19.5 Z"/></g>
<g><path style="opacity:0.749" fill="#c5c5c5" d="M 65.5,19.5 C 68.2869,18.5233 71.2869,18.19 74.5,18.5C 74.5,21.8333 74.5,25.1667 74.5,28.5C 72.5,28.5 70.5,28.5 68.5,28.5C 67.9935,27.1411 66.9935,26.1411 65.5,25.5C 67.7363,24.188 69.7363,24.5213 71.5,26.5C 72.3526,23.5201 71.0192,22.1868 67.5,22.5C 67.7148,20.8212 67.0481,19.8212 65.5,19.5 Z"/></g>
<g><path style="opacity:1" fill="#cfcfcf" d="M 58.5,21.5 C 58.5,23.1667 58.5,24.8333 58.5,26.5C 60.7812,26.0773 62.4479,26.744 63.5,28.5C 62.1667,29.1667 60.8333,29.8333 59.5,30.5C 58.7784,30.0825 58.2784,29.4158 58,28.5C 57.2904,29.9733 56.1238,30.6399 54.5,30.5C 53.551,32.7373 52.8844,35.0706 52.5,37.5C 51.8333,37.5 51.1667,37.5 50.5,37.5C 50.1103,34.5342 50.777,31.8676 52.5,29.5C 52.0431,28.7025 51.3764,28.3691 50.5,28.5C 49.9002,27.1001 48.9002,26.1001 47.5,25.5C 51.1667,24.1667 54.8333,22.8333 58.5,21.5 Z"/></g>
<g><path style="opacity:0.909" fill="#c5c5c5" d="M 47.5,25.5 C 48.9002,26.1001 49.9002,27.1001 50.5,28.5C 48.8333,28.5 47.1667,28.5 45.5,28.5C 45.6138,30.7179 46.2804,32.7179 47.5,34.5C 47.719,35.675 47.3857,36.675 46.5,37.5C 45.7348,36.3881 44.7348,35.7214 43.5,35.5C 42.4479,33.744 40.7812,33.0773 38.5,33.5C 38.5,31.8333 38.5,30.1667 38.5,28.5C 41.5786,27.696 44.5786,26.696 47.5,25.5 Z"/></g>
<g><path style="opacity:1" fill="#dedede" d="M 50.5,28.5 C 51.3764,28.3691 52.0431,28.7025 52.5,29.5C 50.777,31.8676 50.1103,34.5342 50.5,37.5C 49.1001,36.9002 48.1001,35.9002 47.5,34.5C 46.2804,32.7179 45.6138,30.7179 45.5,28.5C 47.1667,28.5 48.8333,28.5 50.5,28.5 Z"/></g>
<g><path style="opacity:1" fill="#e0e0e0" d="M 59.5,30.5 C 60.8062,31.4674 61.4729,32.8007 61.5,34.5C 58.493,35.5139 55.493,36.5139 52.5,37.5C 52.8844,35.0706 53.551,32.7373 54.5,30.5C 56.1238,30.6399 57.2904,29.9733 58,28.5C 58.2784,29.4158 58.7784,30.0825 59.5,30.5 Z"/></g>
<g><path style="opacity:1" fill="#dcdcdc" d="M 63.5,28.5 C 65.1319,30.4141 67.2985,31.7475 70,32.5C 70.8333,32.1667 71.6667,31.8333 72.5,31.5C 70.6684,30.9432 69.3351,29.9432 68.5,28.5C 70.5,28.5 72.5,28.5 74.5,28.5C 74.5,30.8333 74.5,33.1667 74.5,35.5C 72.1667,35.5 69.8333,35.5 67.5,35.5C 66.2652,35.2786 65.2652,34.6119 64.5,33.5C 63.5832,34.1272 62.5832,34.4606 61.5,34.5C 61.4729,32.8007 60.8062,31.4674 59.5,30.5C 60.8333,29.8333 62.1667,29.1667 63.5,28.5 Z"/></g>
<g><path style="opacity:1" fill="#c0c0c0" d="M 43.5,37.5 C 43.5,38.1667 43.5,38.8333 43.5,39.5C 43.6309,40.3764 43.2975,41.0431 42.5,41.5C 41.1186,40.1186 39.7853,38.7853 38.5,37.5C 36.5168,37.8432 35.1834,37.1765 34.5,35.5C 31.9599,33.334 32.6266,32.334 36.5,32.5C 36.5,33.5 36.5,34.5 36.5,35.5C 39.0758,35.4679 41.4091,36.1346 43.5,37.5 Z"/></g>
<g><path style="opacity:1" fill="#d9d9d9" d="M 38.5,28.5 C 38.5,30.1667 38.5,31.8333 38.5,33.5C 40.7812,33.0773 42.4479,33.744 43.5,35.5C 43.5,36.1667 43.5,36.8333 43.5,37.5C 41.4091,36.1346 39.0758,35.4679 36.5,35.5C 36.5,34.5 36.5,33.5 36.5,32.5C 32.6266,32.334 31.9599,33.334 34.5,35.5C 33.1667,35.5 31.8333,35.5 30.5,35.5C 30.5,34.1667 30.5,32.8333 30.5,31.5C 33.1716,30.4986 35.8382,29.4986 38.5,28.5 Z"/></g>
<g><path style="opacity:1" fill="#e8e8e8" d="M 30.5,31.5 C 30.5,32.8333 30.5,34.1667 30.5,35.5C 31.8333,35.5 33.1667,35.5 34.5,35.5C 35.1834,37.1765 36.5168,37.8432 38.5,37.5C 38.5,38.1667 38.5,38.8333 38.5,39.5C 37.1667,39.5 35.8333,39.5 34.5,39.5C 34.762,40.9778 34.4287,42.3112 33.5,43.5C 32.1401,42.8201 30.8068,42.1534 29.5,41.5C 29.4606,40.4168 29.1272,39.4168 28.5,38.5C 26.8333,37.8333 25.1667,37.1667 23.5,36.5C 24.6119,35.7348 25.2786,34.7348 25.5,33.5C 27.1667,32.8333 28.8333,32.1667 30.5,31.5 Z"/></g>
<g><path style="opacity:1" fill="#b4b4b4" d="M 67.5,35.5 C 68.5,36.8333 69.5,38.1667 70.5,39.5C 68.1667,39.5 65.8333,39.5 63.5,39.5C 63.5,38.1667 63.5,36.8333 63.5,35.5C 59.8141,35.13 58.8141,36.4633 60.5,39.5C 58.5,39.5 56.5,39.5 54.5,39.5C 52.5168,39.8432 51.1834,39.1765 50.5,37.5C 51.1667,37.5 51.8333,37.5 52.5,37.5C 55.493,36.5139 58.493,35.5139 61.5,34.5C 62.5832,34.4606 63.5832,34.1272 64.5,33.5C 65.2652,34.6119 66.2652,35.2786 67.5,35.5 Z"/></g>
<g><path style="opacity:1" fill="#cacaca" d="M 25.5,33.5 C 25.2786,34.7348 24.6119,35.7348 23.5,36.5C 25.1667,37.1667 26.8333,37.8333 28.5,38.5C 29.1272,39.4168 29.4606,40.4168 29.5,41.5C 29.5,42.8333 28.8333,43.5 27.5,43.5C 26.8333,43.5 26.1667,43.5 25.5,43.5C 24.8166,41.8235 23.4832,41.1568 21.5,41.5C 21.7593,39.0107 20.7593,37.344 18.5,36.5C 20.5093,34.9348 22.8427,33.9348 25.5,33.5 Z"/></g>
<g><path style="opacity:1" fill="#cdcdcd" d="M 47.5,34.5 C 48.1001,35.9002 49.1001,36.9002 50.5,37.5C 51.1834,39.1765 52.5168,39.8432 54.5,39.5C 54.5,41.8333 54.5,44.1667 54.5,46.5C 52.0706,46.1156 49.7373,45.449 47.5,44.5C 47.9227,42.2188 47.256,40.5521 45.5,39.5C 44.8333,39.5 44.1667,39.5 43.5,39.5C 43.5,38.8333 43.5,38.1667 43.5,37.5C 43.5,36.8333 43.5,36.1667 43.5,35.5C 44.7348,35.7214 45.7348,36.3881 46.5,37.5C 47.3857,36.675 47.719,35.675 47.5,34.5 Z"/></g>
<g><path style="opacity:1" fill="#a3a3a3" d="M 70.5,39.5 C 72.1765,40.1834 72.8432,41.5168 72.5,43.5C 69.5641,42.5942 66.5641,41.9275 63.5,41.5C 62.8333,41.5 62.1667,41.5 61.5,41.5C 61.6716,40.5084 61.3382,39.8417 60.5,39.5C 58.8141,36.4633 59.8141,35.13 63.5,35.5C 63.5,36.8333 63.5,38.1667 63.5,39.5C 65.8333,39.5 68.1667,39.5 70.5,39.5 Z"/></g>
<g><path style="opacity:0.953" fill="#dedede" d="M 25.5,43.5 C 26.1667,43.5 26.8333,43.5 27.5,43.5C 27.9175,44.2216 28.5842,44.7216 29.5,45C 28.1772,45.8159 27.5106,46.9826 27.5,48.5C 27.5,49.1667 27.5,49.8333 27.5,50.5C 23.9517,49.2978 20.285,48.6311 16.5,48.5C 14.7485,46.091 12.4151,44.4243 9.5,43.5C 9.5,42.8333 9.5,42.1667 9.5,41.5C 12.0248,40.36 14.6915,39.6933 17.5,39.5C 17.5291,42.6557 19.1957,44.3223 22.5,44.5C 23.4168,43.8728 24.4168,43.5394 25.5,43.5 Z"/></g>
<g><path style="opacity:1" fill="#ededed" d="M 18.5,36.5 C 20.7593,37.344 21.7593,39.0107 21.5,41.5C 23.4832,41.1568 24.8166,41.8235 25.5,43.5C 24.4168,43.5394 23.4168,43.8728 22.5,44.5C 19.1957,44.3223 17.5291,42.6557 17.5,39.5C 14.6915,39.6933 12.0248,40.36 9.5,41.5C 9.5,40.5 9.5,39.5 9.5,38.5C 12.5,37.8333 15.5,37.1667 18.5,36.5 Z"/></g>
<g><path style="opacity:1" fill="#dedede" d="M 38.5,37.5 C 39.7853,38.7853 41.1186,40.1186 42.5,41.5C 43.2975,41.0431 43.6309,40.3764 43.5,39.5C 44.1667,39.5 44.8333,39.5 45.5,39.5C 45.6347,41.5542 44.968,43.2209 43.5,44.5C 43.3285,46.4918 43.9951,48.1585 45.5,49.5C 44.8333,49.8333 44.1667,50.1667 43.5,50.5C 42.1331,49.7745 40.7997,49.1079 39.5,48.5C 39.1788,46.9519 38.1788,46.2852 36.5,46.5C 36.8844,44.0706 37.551,41.7373 38.5,39.5C 38.5,38.8333 38.5,38.1667 38.5,37.5 Z"/></g>
<g><path style="opacity:1" fill="#dfdfdf" d="M 61.5,41.5 C 62.1667,41.5 62.8333,41.5 63.5,41.5C 63.5,41.8333 63.5,42.1667 63.5,42.5C 62.4138,42.62 61.7472,43.2867 61.5,44.5C 62.885,46.5355 64.2183,48.5355 65.5,50.5C 64.2652,50.7214 63.2652,51.3881 62.5,52.5C 60.9931,50.3096 58.9931,48.9762 56.5,48.5C 56.5,46.1667 56.5,43.8333 56.5,41.5C 58.1667,41.5 59.8333,41.5 61.5,41.5 Z"/></g>
<g><path style="opacity:1" fill="#cecece" d="M 38.5,39.5 C 37.551,41.7373 36.8844,44.0706 36.5,46.5C 38.1788,46.2852 39.1788,46.9519 39.5,48.5C 39.1788,50.0481 38.1788,50.7148 36.5,50.5C 35.8779,48.5443 34.5446,47.211 32.5,46.5C 30.9436,47.5471 29.2769,48.2137 27.5,48.5C 27.5106,46.9826 28.1772,45.8159 29.5,45C 28.5842,44.7216 27.9175,44.2216 27.5,43.5C 28.8333,43.5 29.5,42.8333 29.5,41.5C 30.8068,42.1534 32.1401,42.8201 33.5,43.5C 34.4287,42.3112 34.762,40.9778 34.5,39.5C 35.8333,39.5 37.1667,39.5 38.5,39.5 Z"/></g>
<g><path style="opacity:0.749" fill="#d1d1d1" d="M 67.5,35.5 C 69.8333,35.5 72.1667,35.5 74.5,35.5C 74.5,40.5 74.5,45.5 74.5,50.5C 72.9652,49.1561 71.6319,47.4894 70.5,45.5C 68.4883,43.6586 66.155,42.6586 63.5,42.5C 63.5,42.1667 63.5,41.8333 63.5,41.5C 66.5641,41.9275 69.5641,42.5942 72.5,43.5C 72.8432,41.5168 72.1765,40.1834 70.5,39.5C 69.5,38.1667 68.5,36.8333 67.5,35.5 Z"/></g>
<g><path style="opacity:1" fill="#d3d3d3" d="M 45.5,39.5 C 47.256,40.5521 47.9227,42.2188 47.5,44.5C 49.7373,45.449 52.0706,46.1156 54.5,46.5C 54.5,44.1667 54.5,41.8333 54.5,39.5C 56.5,39.5 58.5,39.5 60.5,39.5C 61.3382,39.8417 61.6716,40.5084 61.5,41.5C 59.8333,41.5 58.1667,41.5 56.5,41.5C 56.5,43.8333 56.5,46.1667 56.5,48.5C 56.5,49.8333 55.8333,50.5 54.5,50.5C 52.0706,50.1156 49.7373,49.449 47.5,48.5C 47.8333,45.5 46.5,44.1667 43.5,44.5C 44.968,43.2209 45.6347,41.5542 45.5,39.5 Z"/></g>
<g><path style="opacity:1" fill="#d7d7d7" d="M 9.5,43.5 C 12.4151,44.4243 14.7485,46.091 16.5,48.5C 16.7822,49.7777 17.4489,50.7777 18.5,51.5C 16.8235,52.1834 16.1568,53.5168 16.5,55.5C 14.1667,55.5 11.8333,55.5 9.5,55.5C 9.5,51.5 9.5,47.5 9.5,43.5 Z"/></g>
<g><path style="opacity:1" fill="#cfcfcf" d="M 43.5,44.5 C 46.5,44.1667 47.8333,45.5 47.5,48.5C 47.5,49.8333 47.5,51.1667 47.5,52.5C 45.5,52.5 43.5,52.5 41.5,52.5C 39.076,52.8076 36.7427,52.4742 34.5,51.5C 34.9569,50.7025 35.6236,50.3691 36.5,50.5C 38.1788,50.7148 39.1788,50.0481 39.5,48.5C 40.7997,49.1079 42.1331,49.7745 43.5,50.5C 44.1667,50.1667 44.8333,49.8333 45.5,49.5C 43.9951,48.1585 43.3285,46.4918 43.5,44.5 Z"/></g>
<g><path style="opacity:1" fill="#e9e9e9" d="M 63.5,42.5 C 66.155,42.6586 68.4883,43.6586 70.5,45.5C 71.6319,47.4894 72.9652,49.1561 74.5,50.5C 74.5,52.1667 74.5,53.8333 74.5,55.5C 72.9519,55.1788 72.2852,54.1788 72.5,52.5C 70.8333,52.5 69.1667,52.5 67.5,52.5C 67.5,51.1667 66.8333,50.5 65.5,50.5C 64.2183,48.5355 62.885,46.5355 61.5,44.5C 61.7472,43.2867 62.4138,42.62 63.5,42.5 Z"/></g>
<g><path style="opacity:1" fill="#e4e4e4" d="M 18.5,51.5 C 20.3432,52.2829 22.3432,52.9495 24.5,53.5C 25.4287,54.6888 25.762,56.0222 25.5,57.5C 26.5,57.5 27.5,57.5 28.5,57.5C 28.2089,58.6491 27.3756,59.3158 26,59.5C 24.4495,58.9465 22.9495,58.2798 21.5,57.5C 19.582,57.8614 19.2486,58.528 20.5,59.5C 19.8166,61.1765 18.4832,61.8432 16.5,61.5C 16.762,60.0222 16.4287,58.6888 15.5,57.5C 14.5344,59.396 14.2011,61.396 14.5,63.5C 13.1266,63.6567 11.7932,63.49 10.5,63C 11.9733,62.2904 12.6399,61.1238 12.5,59.5C 11.5,59.5 10.5,59.5 9.5,59.5C 9.5,58.1667 9.5,56.8333 9.5,55.5C 11.8333,55.5 14.1667,55.5 16.5,55.5C 16.1568,53.5168 16.8235,52.1834 18.5,51.5 Z"/></g>
<g><path style="opacity:1" fill="#bebebe" d="M 16.5,48.5 C 20.285,48.6311 23.9517,49.2978 27.5,50.5C 29.7267,52.2287 30.7267,54.562 30.5,57.5C 29.8333,57.5 29.1667,57.5 28.5,57.5C 27.5,57.5 26.5,57.5 25.5,57.5C 25.762,56.0222 25.4287,54.6888 24.5,53.5C 22.3432,52.9495 20.3432,52.2829 18.5,51.5C 17.4489,50.7777 16.7822,49.7777 16.5,48.5 Z"/></g>
<g><path style="opacity:1" fill="#d1d1d1" d="M 54.5,52.5 C 56.7743,52.7151 58.941,53.3818 61,54.5C 62.5328,54.2272 64.0328,53.8938 65.5,53.5C 66.5676,54.4345 67.901,54.7678 69.5,54.5C 69.5,56.1667 69.5,57.8333 69.5,59.5C 68.5326,58.1938 67.1993,57.5271 65.5,57.5C 65.8844,59.9294 66.551,62.2627 67.5,64.5C 66.1667,64.5 64.8333,64.5 63.5,64.5C 63.5,66.5 63.5,68.5 63.5,70.5C 61.5168,70.1568 60.1834,70.8235 59.5,72.5C 59.1667,72.5 58.8333,72.5 58.5,72.5C 58.5,70.5 58.5,68.5 58.5,66.5C 59.5,66.5 60.5,66.5 61.5,66.5C 61.5,65.5 61.5,64.5 61.5,63.5C 63.369,61.3647 64.0356,58.6981 63.5,55.5C 61.8762,55.3601 60.7096,56.0267 60,57.5C 59.2904,56.0267 58.1238,55.3601 56.5,55.5C 56.5,56.8333 56.5,58.1667 56.5,59.5C 53.5825,59.3651 50.9158,60.0318 48.5,61.5C 48.5,60.1667 48.5,58.8333 48.5,57.5C 50.256,56.4479 50.9227,54.7812 50.5,52.5C 51.8333,52.5 53.1667,52.5 54.5,52.5 Z"/></g>
<g><path style="opacity:1" fill="#c9c9c9" d="M 56.5,48.5 C 58.9931,48.9762 60.9931,50.3096 62.5,52.5C 63.2652,51.3881 64.2652,50.7214 65.5,50.5C 66.8333,50.5 67.5,51.1667 67.5,52.5C 66.8333,52.8333 66.1667,53.1667 65.5,53.5C 64.0328,53.8938 62.5328,54.2272 61,54.5C 58.941,53.3818 56.7743,52.7151 54.5,52.5C 54.5,51.8333 54.5,51.1667 54.5,50.5C 55.8333,50.5 56.5,49.8333 56.5,48.5 Z"/></g>
<g><path style="opacity:1" fill="#b7b7b7" d="M 67.5,52.5 C 69.1667,52.5 70.8333,52.5 72.5,52.5C 72.2852,54.1788 72.9519,55.1788 74.5,55.5C 74.5,56.8333 74.5,58.1667 74.5,59.5C 72.8333,59.5 71.1667,59.5 69.5,59.5C 69.5,57.8333 69.5,56.1667 69.5,54.5C 67.901,54.7678 66.5676,54.4345 65.5,53.5C 66.1667,53.1667 66.8333,52.8333 67.5,52.5 Z"/></g>
<g><path style="opacity:1" fill="#e2e2e2" d="M 36.5,50.5 C 35.6236,50.3691 34.9569,50.7025 34.5,51.5C 36.7427,52.4742 39.076,52.8076 41.5,52.5C 41.5,53.1667 41.5,53.8333 41.5,54.5C 36.3836,54.8388 35.7169,56.1721 39.5,58.5C 38.2921,59.2341 36.9587,59.5674 35.5,59.5C 33.2188,59.9227 31.5521,59.256 30.5,57.5C 30.7267,54.562 29.7267,52.2287 27.5,50.5C 27.5,49.8333 27.5,49.1667 27.5,48.5C 29.2769,48.2137 30.9436,47.5471 32.5,46.5C 34.5446,47.211 35.8779,48.5443 36.5,50.5 Z"/></g>
<g><path style="opacity:1" fill="#e8e8e8" d="M 47.5,48.5 C 49.7373,49.449 52.0706,50.1156 54.5,50.5C 54.5,51.1667 54.5,51.8333 54.5,52.5C 53.1667,52.5 51.8333,52.5 50.5,52.5C 50.9227,54.7812 50.256,56.4479 48.5,57.5C 46.5621,55.7545 44.2287,54.7545 41.5,54.5C 41.5,53.8333 41.5,53.1667 41.5,52.5C 43.5,52.5 45.5,52.5 47.5,52.5C 47.5,51.1667 47.5,49.8333 47.5,48.5 Z"/></g>
<g><path style="opacity:1" fill="#c3c3c3" d="M 41.5,54.5 C 44.2287,54.7545 46.5621,55.7545 48.5,57.5C 48.5,58.8333 48.5,60.1667 48.5,61.5C 45.4669,61.8685 42.8002,61.2018 40.5,59.5C 40.5,58.8333 40.1667,58.5 39.5,58.5C 35.7169,56.1721 36.3836,54.8388 41.5,54.5 Z"/></g>
<g><path style="opacity:0.946" fill="#cfcfcf" d="M 28.5,57.5 C 29.1667,57.5 29.8333,57.5 30.5,57.5C 31.5521,59.256 33.2188,59.9227 35.5,59.5C 33.3206,60.6772 30.9872,61.6772 28.5,62.5C 25.695,61.9348 23.0283,60.9348 20.5,59.5C 19.2486,58.528 19.582,57.8614 21.5,57.5C 22.9495,58.2798 24.4495,58.9465 26,59.5C 27.3756,59.3158 28.2089,58.6491 28.5,57.5 Z"/></g>
<g><path style="opacity:1" fill="#e5e5e5" d="M 69.5,59.5 C 71.1667,59.5 72.8333,59.5 74.5,59.5C 74.5,63.1667 74.5,66.8333 74.5,70.5C 71.3056,70.2695 68.3056,70.9362 65.5,72.5C 64.2867,72.2528 63.62,71.5862 63.5,70.5C 63.5,68.5 63.5,66.5 63.5,64.5C 64.8333,64.5 66.1667,64.5 67.5,64.5C 66.551,62.2627 65.8844,59.9294 65.5,57.5C 67.1993,57.5271 68.5326,58.1938 69.5,59.5 Z"/></g>
<g><path style="opacity:0.785" fill="#d6d6d6" d="M 20.5,59.5 C 23.0283,60.9348 25.695,61.9348 28.5,62.5C 24.6033,63.9099 20.6033,64.9099 16.5,65.5C 16.5,64.1667 15.8333,63.5 14.5,63.5C 14.2011,61.396 14.5344,59.396 15.5,57.5C 16.4287,58.6888 16.762,60.0222 16.5,61.5C 18.4832,61.8432 19.8166,61.1765 20.5,59.5 Z"/></g>
<g><path style="opacity:0.966" fill="#e6e6e6" d="M 61.5,63.5 C 60.4855,62.2353 58.9855,61.5687 57,61.5C 55.0145,61.5687 53.5145,62.2353 52.5,63.5C 50.8333,63.5 49.1667,63.5 47.5,63.5C 47.5,64.5 47.5,65.5 47.5,66.5C 48.675,66.281 49.675,66.6143 50.5,67.5C 48.3449,68.0014 46.6782,69.0014 45.5,70.5C 44.1667,70.5 42.8333,70.5 41.5,70.5C 42.449,72.7373 43.1156,75.0706 43.5,77.5C 42.5,77.5 41.5,77.5 40.5,77.5C 40.5,71.5 40.5,65.5 40.5,59.5C 42.8002,61.2018 45.4669,61.8685 48.5,61.5C 50.9158,60.0318 53.5825,59.3651 56.5,59.5C 56.5,58.1667 56.5,56.8333 56.5,55.5C 58.1238,55.3601 59.2904,56.0267 60,57.5C 60.7096,56.0267 61.8762,55.3601 63.5,55.5C 64.0356,58.6981 63.369,61.3647 61.5,63.5 Z"/></g>
<g><path style="opacity:0.926" fill="#dedede" d="M 9.5,59.5 C 10.5,59.5 11.5,59.5 12.5,59.5C 12.6399,61.1238 11.9733,62.2904 10.5,63C 11.7932,63.49 13.1266,63.6567 14.5,63.5C 15.8333,63.5 16.5,64.1667 16.5,65.5C 14.4855,66.9238 12.1522,67.5905 9.5,67.5C 9.5,64.8333 9.5,62.1667 9.5,59.5 Z"/></g>
<g><path style="opacity:1" fill="#cbcbcb" d="M 61.5,63.5 C 61.5,64.5 61.5,65.5 61.5,66.5C 60.5,66.5 59.5,66.5 58.5,66.5C 55.0901,66.5429 51.7568,66.0429 48.5,65C 50.0581,64.79 51.3915,64.29 52.5,63.5C 53.5145,62.2353 55.0145,61.5687 57,61.5C 58.9855,61.5687 60.4855,62.2353 61.5,63.5 Z"/></g>
<g><path style="opacity:1" fill="#dcdcdc" d="M 52.5,63.5 C 51.3915,64.29 50.0581,64.79 48.5,65C 51.7568,66.0429 55.0901,66.5429 58.5,66.5C 58.5,68.5 58.5,70.5 58.5,72.5C 55.5123,72.5612 52.6789,71.8945 50,70.5C 48.6244,70.6842 47.7911,71.3509 47.5,72.5C 46.1667,72.5 45.5,71.8333 45.5,70.5C 46.6782,69.0014 48.3449,68.0014 50.5,67.5C 49.675,66.6143 48.675,66.281 47.5,66.5C 47.5,65.5 47.5,64.5 47.5,63.5C 49.1667,63.5 50.8333,63.5 52.5,63.5 Z"/></g>
<g><path style="opacity:1" fill="#cecece" d="M 63.5,70.5 C 63.62,71.5862 64.2867,72.2528 65.5,72.5C 68.3056,70.9362 71.3056,70.2695 74.5,70.5C 74.5,71.5 74.5,72.5 74.5,73.5C 73.1667,74.1667 71.8333,74.8333 70.5,75.5C 70.2648,74.9033 69.7648,74.5699 69,74.5C 66.7691,76.1997 64.2691,77.1997 61.5,77.5C 61.9227,75.2188 61.256,73.5521 59.5,72.5C 60.1834,70.8235 61.5168,70.1568 63.5,70.5 Z"/></g>
<g><path style="opacity:1" fill="#dfdfdf" d="M 50.5,73.5 C 51.6049,74.6005 52.9382,75.2671 54.5,75.5C 53.6649,76.9432 52.3316,77.9432 50.5,78.5C 52.0049,79.8415 52.6715,81.5082 52.5,83.5C 50.9891,82.4975 49.3224,81.8308 47.5,81.5C 47.2786,80.2652 46.6119,79.2652 45.5,78.5C 47.4086,76.9201 49.0753,75.2535 50.5,73.5 Z"/></g>
<g><path style="opacity:1" fill="#d1d1d1" d="M 45.5,70.5 C 45.5,71.8333 46.1667,72.5 47.5,72.5C 48.791,72.2627 49.791,72.596 50.5,73.5C 49.0753,75.2535 47.4086,76.9201 45.5,78.5C 46.6119,79.2652 47.2786,80.2652 47.5,81.5C 46.1667,81.5 44.8333,81.5 43.5,81.5C 43.5,80.1667 43.5,78.8333 43.5,77.5C 43.1156,75.0706 42.449,72.7373 41.5,70.5C 42.8333,70.5 44.1667,70.5 45.5,70.5 Z"/></g>
<g><path style="opacity:1" fill="#ececec" d="M 58.5,72.5 C 58.8333,72.5 59.1667,72.5 59.5,72.5C 60.5981,73.397 60.5981,74.2303 59.5,75C 57.8659,75.4935 56.1992,75.6602 54.5,75.5C 52.9382,75.2671 51.6049,74.6005 50.5,73.5C 49.791,72.596 48.791,72.2627 47.5,72.5C 47.7911,71.3509 48.6244,70.6842 50,70.5C 52.6789,71.8945 55.5123,72.5612 58.5,72.5 Z"/></g>
<g><path style="opacity:1" fill="#efefef" d="M 70.5,75.5 C 70.5,77.5 70.5,79.5 70.5,81.5C 68.1667,81.5 65.8333,81.5 63.5,81.5C 62.8166,79.8235 61.4832,79.1568 59.5,79.5C 59.5,78.1667 60.1667,77.5 61.5,77.5C 64.2691,77.1997 66.7691,76.1997 69,74.5C 69.7648,74.5699 70.2648,74.9033 70.5,75.5 Z"/></g>
<g><path style="opacity:1" fill="#d5d5d5" d="M 59.5,72.5 C 61.256,73.5521 61.9227,75.2188 61.5,77.5C 60.1667,77.5 59.5,78.1667 59.5,79.5C 57.8333,79.5 56.1667,79.5 54.5,79.5C 54.5,81.1667 54.5,82.8333 54.5,84.5C 53.5084,84.6716 52.8417,84.3382 52.5,83.5C 52.6715,81.5082 52.0049,79.8415 50.5,78.5C 52.3316,77.9432 53.6649,76.9432 54.5,75.5C 56.1992,75.6602 57.8659,75.4935 59.5,75C 60.5981,74.2303 60.5981,73.397 59.5,72.5 Z"/></g>
<g><path style="opacity:1" fill="#e4e4e4" d="M 74.5,73.5 C 74.5,77.1667 74.5,80.8333 74.5,84.5C 73.8333,84.5 73.1667,84.5 72.5,84.5C 71.4489,83.7777 70.7822,82.7777 70.5,81.5C 70.5,79.5 70.5,77.5 70.5,75.5C 71.8333,74.8333 73.1667,74.1667 74.5,73.5 Z"/></g>
<g><path style="opacity:1" fill="#bcbcbc" d="M 59.5,79.5 C 61.4832,79.1568 62.8166,79.8235 63.5,81.5C 65.2646,82.4614 67.2646,82.7947 69.5,82.5C 69.6495,83.552 69.4828,84.552 69,85.5C 68.2904,84.0267 67.1238,83.3601 65.5,83.5C 65.5,85.1667 65.5,86.8333 65.5,88.5C 64.1667,88.5 62.8333,88.5 61.5,88.5C 61.5,86.1667 61.5,83.8333 61.5,81.5C 58.7438,81.7162 56.4105,82.7162 54.5,84.5C 54.5,82.8333 54.5,81.1667 54.5,79.5C 56.1667,79.5 57.8333,79.5 59.5,79.5 Z"/></g>
<g><path style="opacity:1" fill="#e7e7e7" d="M 43.5,81.5 C 44.8333,81.5 46.1667,81.5 47.5,81.5C 49.3224,81.8308 50.9891,82.4975 52.5,83.5C 52.8417,84.3382 53.5084,84.6716 54.5,84.5C 54.5,85.8333 53.8333,86.5 52.5,86.5C 49.9242,86.5321 47.5909,85.8654 45.5,84.5C 44.4489,83.7777 43.7822,82.7777 43.5,81.5 Z"/></g>
<g><path style="opacity:1" fill="#cfcfcf" d="M 61.5,88.5 C 61.5,89.8333 61.5,91.1667 61.5,92.5C 59.2627,91.551 56.9294,90.8844 54.5,90.5C 54.5,89.1667 53.8333,88.5 52.5,88.5C 52.5,87.8333 52.5,87.1667 52.5,86.5C 53.8333,86.5 54.5,85.8333 54.5,84.5C 56.4105,82.7162 58.7438,81.7162 61.5,81.5C 61.5,83.8333 61.5,86.1667 61.5,88.5 Z"/></g>
<g><path style="opacity:0.875" fill="#e0e0e0" d="M 40.5,77.5 C 41.5,77.5 42.5,77.5 43.5,77.5C 43.5,78.8333 43.5,80.1667 43.5,81.5C 43.7822,82.7777 44.4489,83.7777 45.5,84.5C 44.1667,84.5 42.8333,84.5 41.5,84.5C 41.5,85.8333 41.5,87.1667 41.5,88.5C 43.4832,88.1568 44.8166,88.8235 45.5,90.5C 44.1667,90.5 42.8333,90.5 41.5,90.5C 41.7373,91.791 41.404,92.791 40.5,93.5C 40.5,88.1667 40.5,82.8333 40.5,77.5 Z"/></g>
<g><path style="opacity:1" fill="#c9c9c9" d="M 45.5,84.5 C 47.5909,85.8654 49.9242,86.5321 52.5,86.5C 52.5,87.1667 52.5,87.8333 52.5,88.5C 50.0706,88.8844 47.7373,89.551 45.5,90.5C 44.8166,88.8235 43.4832,88.1568 41.5,88.5C 41.5,87.1667 41.5,85.8333 41.5,84.5C 42.8333,84.5 44.1667,84.5 45.5,84.5 Z"/></g>
<g><path style="opacity:1" fill="#cccccc" d="M 63.5,81.5 C 65.8333,81.5 68.1667,81.5 70.5,81.5C 70.7822,82.7777 71.4489,83.7777 72.5,84.5C 72.5,86.5 72.5,88.5 72.5,90.5C 71.1667,90.5 69.8333,90.5 68.5,90.5C 66.334,93.0401 65.334,92.3734 65.5,88.5C 65.5,86.8333 65.5,85.1667 65.5,83.5C 67.1238,83.3601 68.2904,84.0267 69,85.5C 69.4828,84.552 69.6495,83.552 69.5,82.5C 67.2646,82.7947 65.2646,82.4614 63.5,81.5 Z"/></g>
<g><path style="opacity:1" fill="#dedede" d="M 52.5,88.5 C 53.8333,88.5 54.5,89.1667 54.5,90.5C 52.7758,92.852 50.4424,94.5187 47.5,95.5C 46.4625,94.0697 45.7959,92.403 45.5,90.5C 47.7373,89.551 50.0706,88.8844 52.5,88.5 Z"/></g>
<g><path style="opacity:0.793" fill="#e5e5e5" d="M 72.5,84.5 C 73.1667,84.5 73.8333,84.5 74.5,84.5C 74.5,89.5 74.5,94.5 74.5,99.5C 73.8333,99.5 73.1667,99.5 72.5,99.5C 70.7211,97.6565 68.3878,96.9898 65.5,97.5C 65.238,96.0222 65.5713,94.6888 66.5,93.5C 67.5237,94.8532 68.857,95.5198 70.5,95.5C 70.1692,93.6776 69.5025,92.0109 68.5,90.5C 69.8333,90.5 71.1667,90.5 72.5,90.5C 72.5,88.5 72.5,86.5 72.5,84.5 Z"/></g>
<g><path style="opacity:1" fill="#eaeaea" d="M 54.5,90.5 C 56.9294,90.8844 59.2627,91.551 61.5,92.5C 61.5,93.5 61.5,94.5 61.5,95.5C 57.9878,94.9455 54.9878,95.6122 52.5,97.5C 50.8333,97.5 49.1667,97.5 47.5,97.5C 47.5,96.8333 47.5,96.1667 47.5,95.5C 50.4424,94.5187 52.7758,92.852 54.5,90.5 Z"/></g>
<g><path style="opacity:1" fill="#d5d5d5" d="M 61.5,88.5 C 62.8333,88.5 64.1667,88.5 65.5,88.5C 65.334,92.3734 66.334,93.0401 68.5,90.5C 69.5025,92.0109 70.1692,93.6776 70.5,95.5C 68.857,95.5198 67.5237,94.8532 66.5,93.5C 65.5713,94.6888 65.238,96.0222 65.5,97.5C 64.1667,98.1667 62.8333,98.8333 61.5,99.5C 59.857,99.5198 58.5237,98.8532 57.5,97.5C 56.9432,99.3316 55.9432,100.665 54.5,101.5C 54.5,100.833 54.5,100.167 54.5,99.5C 54.5,98.1667 53.8333,97.5 52.5,97.5C 54.9878,95.6122 57.9878,94.9455 61.5,95.5C 61.5,94.5 61.5,93.5 61.5,92.5C 61.5,91.1667 61.5,89.8333 61.5,88.5 Z"/></g>
<g><path style="opacity:0.925" fill="#d4d4d4" d="M 45.5,90.5 C 45.7959,92.403 46.4625,94.0697 47.5,95.5C 47.5,96.1667 47.5,96.8333 47.5,97.5C 42.1667,98.1667 42.1667,98.8333 47.5,99.5C 47.5,101.167 47.5,102.833 47.5,104.5C 46.1411,103.993 45.1411,102.993 44.5,101.5C 43.2638,102.246 41.9305,102.579 40.5,102.5C 40.5,99.5 40.5,96.5 40.5,93.5C 41.404,92.791 41.7373,91.791 41.5,90.5C 42.8333,90.5 44.1667,90.5 45.5,90.5 Z"/></g>
<g><path style="opacity:1" fill="#dfdfdf" d="M 47.5,97.5 C 49.1667,97.5 50.8333,97.5 52.5,97.5C 53.8333,97.5 54.5,98.1667 54.5,99.5C 53.1667,100.167 51.8333,100.833 50.5,101.5C 49.7784,101.082 49.2784,100.416 49,99.5C 48.8019,101.382 48.3019,103.048 47.5,104.5C 47.5,102.833 47.5,101.167 47.5,99.5C 42.1667,98.8333 42.1667,98.1667 47.5,97.5 Z"/></g>
<g><path style="opacity:1" fill="#c6c6c6" d="M 65.5,97.5 C 68.3878,96.9898 70.7211,97.6565 72.5,99.5C 70.1667,99.5 67.8333,99.5 65.5,99.5C 65.5,101.167 65.5,102.833 65.5,104.5C 64.8333,104.5 64.1667,104.5 63.5,104.5C 62.032,103.221 61.3653,101.554 61.5,99.5C 62.8333,98.8333 64.1667,98.1667 65.5,97.5 Z"/></g>
<g><path style="opacity:1" fill="#ededed" d="M 50.5,101.5 C 51.4736,103.48 52.807,105.147 54.5,106.5C 52.8235,107.183 52.1568,108.517 52.5,110.5C 52.6309,111.376 52.2975,112.043 51.5,112.5C 50.5713,111.311 50.238,109.978 50.5,108.5C 49.5,108.5 48.5,108.5 47.5,108.5C 47.3862,110.718 46.7196,112.718 45.5,114.5C 42.9178,112.417 42.9178,110.083 45.5,107.5C 44.3112,106.571 42.9778,106.238 41.5,106.5C 41.7373,105.209 41.404,104.209 40.5,103.5C 40.5,103.167 40.5,102.833 40.5,102.5C 41.9305,102.579 43.2638,102.246 44.5,101.5C 45.1411,102.993 46.1411,103.993 47.5,104.5C 48.3019,103.048 48.8019,101.382 49,99.5C 49.2784,100.416 49.7784,101.082 50.5,101.5 Z"/></g>
<g><path style="opacity:1" fill="#dfdfdf" d="M 72.5,99.5 C 73.1667,99.5 73.8333,99.5 74.5,99.5C 74.5,102.5 74.5,105.5 74.5,108.5C 71.5,107.167 68.5,105.833 65.5,104.5C 65.5,102.833 65.5,101.167 65.5,99.5C 67.8333,99.5 70.1667,99.5 72.5,99.5 Z"/></g>
<g><path style="opacity:1" fill="#e4e4e4" d="M 61.5,99.5 C 61.3653,101.554 62.032,103.221 63.5,104.5C 59.8413,104.851 56.8413,103.851 54.5,101.5C 55.9432,100.665 56.9432,99.3316 57.5,97.5C 58.5237,98.8532 59.857,99.5198 61.5,99.5 Z"/></g>
<g><path style="opacity:1" fill="#f4f4f4" d="M 54.5,99.5 C 54.5,100.167 54.5,100.833 54.5,101.5C 56.8413,103.851 59.8413,104.851 63.5,104.5C 64.8333,106.5 66.1667,108.5 67.5,110.5C 67.5,111.833 66.8333,112.5 65.5,112.5C 62.9202,111.385 61.2535,109.385 60.5,106.5C 59.7836,107.311 58.9503,107.978 58,108.5C 56.9231,107.571 55.7564,106.904 54.5,106.5C 52.807,105.147 51.4736,103.48 50.5,101.5C 51.8333,100.833 53.1667,100.167 54.5,99.5 Z"/></g>
<g><path style="opacity:1" fill="#cbcbcb" d="M 63.5,104.5 C 64.1667,104.5 64.8333,104.5 65.5,104.5C 68.5,105.833 71.5,107.167 74.5,108.5C 74.5,110.167 74.5,111.833 74.5,113.5C 73.1667,114.167 71.8333,114.833 70.5,115.5C 69.8897,113.566 68.8897,111.899 67.5,110.5C 66.1667,108.5 64.8333,106.5 63.5,104.5 Z"/></g>
<g><path style="opacity:1" fill="#e2e2e2" d="M 52.5,110.5 C 55.4772,111.776 58.4772,112.776 61.5,113.5C 58.6122,112.99 56.2789,113.656 54.5,115.5C 53.1667,114.833 51.8333,114.167 50.5,113.5C 48.7839,113.629 47.1172,113.962 45.5,114.5C 46.7196,112.718 47.3862,110.718 47.5,108.5C 48.5,108.5 49.5,108.5 50.5,108.5C 50.238,109.978 50.5713,111.311 51.5,112.5C 52.2975,112.043 52.6309,111.376 52.5,110.5 Z"/></g>
<g><path style="opacity:1" fill="#cfcfcf" d="M 54.5,106.5 C 55.7564,106.904 56.9231,107.571 58,108.5C 58.9503,107.978 59.7836,107.311 60.5,106.5C 61.2535,109.385 62.9202,111.385 65.5,112.5C 66.8654,114.591 67.5321,116.924 67.5,119.5C 65.5,118.167 63.5,116.833 61.5,115.5C 61.5,114.833 61.5,114.167 61.5,113.5C 58.4772,112.776 55.4772,111.776 52.5,110.5C 52.1568,108.517 52.8235,107.183 54.5,106.5 Z"/></g>
<g><path style="opacity:0.937" fill="#e2e2e2" d="M 40.5,103.5 C 41.404,104.209 41.7373,105.209 41.5,106.5C 42.9778,106.238 44.3112,106.571 45.5,107.5C 42.9178,110.083 42.9178,112.417 45.5,114.5C 45.5,114.833 45.5,115.167 45.5,115.5C 43.9891,116.502 42.3224,117.169 40.5,117.5C 40.5,112.833 40.5,108.167 40.5,103.5 Z"/></g>
<g><path style="opacity:1" fill="#d1d1d1" d="M 50.5,113.5 C 50.5987,116.237 50.2653,118.904 49.5,121.5C 48.8333,122.167 48.1667,122.833 47.5,123.5C 46.8592,122.518 46.1925,121.518 45.5,120.5C 46.1667,119.833 46.8333,119.167 47.5,118.5C 46.3881,117.735 45.7214,116.735 45.5,115.5C 45.5,115.167 45.5,114.833 45.5,114.5C 47.1172,113.962 48.7839,113.629 50.5,113.5 Z"/></g>
<g><path style="opacity:1" fill="#f0f0f0" d="M 61.5,113.5 C 61.5,114.167 61.5,114.833 61.5,115.5C 60.2804,117.282 59.6138,119.282 59.5,121.5C 58.2209,122.968 56.5542,123.635 54.5,123.5C 54.5,122.833 54.5,122.167 54.5,121.5C 54.7214,120.265 55.3881,119.265 56.5,118.5C 55.3881,117.735 54.7214,116.735 54.5,115.5C 56.2789,113.656 58.6122,112.99 61.5,113.5 Z"/></g>
<g><path style="opacity:1" fill="#e5e5e5" d="M 67.5,110.5 C 68.8897,111.899 69.8897,113.566 70.5,115.5C 70.6621,117.527 70.4955,119.527 70,121.5C 68.6976,122.085 67.531,122.751 66.5,123.5C 66.1667,123.5 65.8333,123.5 65.5,123.5C 66.1667,122.167 66.8333,120.833 67.5,119.5C 67.5321,116.924 66.8654,114.591 65.5,112.5C 66.8333,112.5 67.5,111.833 67.5,110.5 Z"/></g>
<g><path style="opacity:1" fill="#e1e1e1" d="M 50.5,113.5 C 51.8333,114.167 53.1667,114.833 54.5,115.5C 54.7214,116.735 55.3881,117.735 56.5,118.5C 55.3881,119.265 54.7214,120.265 54.5,121.5C 52.8333,121.5 51.1667,121.5 49.5,121.5C 50.2653,118.904 50.5987,116.237 50.5,113.5 Z"/></g>
<g><path style="opacity:1" fill="#ebebeb" d="M 61.5,115.5 C 63.5,116.833 65.5,118.167 67.5,119.5C 66.8333,120.833 66.1667,122.167 65.5,123.5C 63.7179,122.28 61.7179,121.614 59.5,121.5C 59.6138,119.282 60.2804,117.282 61.5,115.5 Z"/></g>
<g><path style="opacity:1" fill="#d6d6d6" d="M 45.5,115.5 C 45.7214,116.735 46.3881,117.735 47.5,118.5C 46.8333,119.167 46.1667,119.833 45.5,120.5C 46.1925,121.518 46.8592,122.518 47.5,123.5C 45.5168,123.157 44.1834,123.824 43.5,125.5C 42.0221,124.552 41.0221,123.219 40.5,121.5C 40.5,120.167 40.5,118.833 40.5,117.5C 42.3224,117.169 43.9891,116.502 45.5,115.5 Z"/></g>
<g><path style="opacity:0.875" fill="#dcdcdc" d="M 74.5,113.5 C 74.5,116.833 74.5,120.167 74.5,123.5C 73.1667,123.5 71.8333,123.5 70.5,123.5C 70.5,124.5 70.5,125.5 70.5,126.5C 69.5,126.5 68.5,126.5 67.5,126.5C 70.1001,125.031 69.7668,124.031 66.5,123.5C 67.531,122.751 68.6976,122.085 70,121.5C 70.4955,119.527 70.6621,117.527 70.5,115.5C 71.8333,114.833 73.1667,114.167 74.5,113.5 Z"/></g>
<g><path style="opacity:1" fill="#c4c4c4" d="M 49.5,121.5 C 51.1667,121.5 52.8333,121.5 54.5,121.5C 54.5,122.167 54.5,122.833 54.5,123.5C 52.744,124.552 52.0773,126.219 52.5,128.5C 49.5,128.5 46.5,128.5 43.5,128.5C 43.5,127.5 43.5,126.5 43.5,125.5C 44.1834,123.824 45.5168,123.157 47.5,123.5C 48.1667,122.833 48.8333,122.167 49.5,121.5 Z"/></g>
<g><path style="opacity:1" fill="#cccccc" d="M 59.5,121.5 C 61.7179,121.614 63.7179,122.28 65.5,123.5C 65.8333,123.5 66.1667,123.5 66.5,123.5C 69.7668,124.031 70.1001,125.031 67.5,126.5C 66.1667,126.5 64.8333,126.5 63.5,126.5C 62.1411,125.993 61.1411,124.993 60.5,123.5C 59.2011,124.09 58.3678,125.09 58,126.5C 56.8549,125.364 55.6883,124.364 54.5,123.5C 56.5542,123.635 58.2209,122.968 59.5,121.5 Z"/></g>
<g><path style="opacity:1" fill="#bababa" d="M 54.5,123.5 C 55.6883,124.364 56.8549,125.364 58,126.5C 58.3678,125.09 59.2011,124.09 60.5,123.5C 61.1411,124.993 62.1411,125.993 63.5,126.5C 64.8333,127.833 66.1667,129.167 67.5,130.5C 63.351,129.92 59.6843,130.586 56.5,132.5C 55.8333,132.5 55.1667,132.5 54.5,132.5C 54.8432,130.517 54.1765,129.183 52.5,128.5C 52.0773,126.219 52.744,124.552 54.5,123.5 Z"/></g>
<g><path style="opacity:1" fill="#e0e0e0" d="M 40.5,121.5 C 41.0221,123.219 42.0221,124.552 43.5,125.5C 43.5,126.5 43.5,127.5 43.5,128.5C 46.5,128.5 49.5,128.5 52.5,128.5C 54.1765,129.183 54.8432,130.517 54.5,132.5C 53.1067,131.74 51.6067,131.074 50,130.5C 48.6244,130.684 47.7911,131.351 47.5,132.5C 45.9519,132.821 45.2852,133.821 45.5,135.5C 44.8333,135.5 44.1667,135.5 43.5,135.5C 42.7095,134.599 41.7095,133.932 40.5,133.5C 40.5,129.5 40.5,125.5 40.5,121.5 Z"/></g>
<g><path style="opacity:1" fill="#e2e2e2" d="M 74.5,123.5 C 74.5,126.5 74.5,129.5 74.5,132.5C 73.8333,132.5 73.1667,132.5 72.5,132.5C 71.4479,130.744 69.7812,130.077 67.5,130.5C 66.1667,129.167 64.8333,127.833 63.5,126.5C 64.8333,126.5 66.1667,126.5 67.5,126.5C 68.5,126.5 69.5,126.5 70.5,126.5C 70.5,125.5 70.5,124.5 70.5,123.5C 71.8333,123.5 73.1667,123.5 74.5,123.5 Z"/></g>
<g><path style="opacity:0.925" fill="#d2d2d2" d="M 40.5,133.5 C 41.7095,133.932 42.7095,134.599 43.5,135.5C 43.7214,136.735 44.3881,137.735 45.5,138.5C 44.1667,140.833 42.8333,143.167 41.5,145.5C 42.6888,146.429 44.0222,146.762 45.5,146.5C 45.5,147.167 45.5,147.833 45.5,148.5C 43.9217,149.066 42.5884,150.066 41.5,151.5C 42.8532,152.524 43.5198,153.857 43.5,155.5C 42.5,155.5 41.5,155.5 40.5,155.5C 40.5,148.167 40.5,140.833 40.5,133.5 Z"/></g>
<g><path style="opacity:1" fill="#e2e2e2" d="M 54.5,132.5 C 55.1667,132.5 55.8333,132.5 56.5,132.5C 56.67,133.822 56.3366,134.989 55.5,136C 56.8989,136.595 58.2322,136.428 59.5,135.5C 60.1818,136.243 60.8485,136.909 61.5,137.5C 61.2089,138.649 60.3756,139.316 59,139.5C 56.7562,138.76 54.9229,137.426 53.5,135.5C 52.7025,135.957 52.3691,136.624 52.5,137.5C 50.7182,136.009 49.0516,134.342 47.5,132.5C 47.7911,131.351 48.6244,130.684 50,130.5C 51.6067,131.074 53.1067,131.74 54.5,132.5 Z"/></g>
<g><path style="opacity:1" fill="#cdcdcd" d="M 67.5,130.5 C 69.7812,130.077 71.4479,130.744 72.5,132.5C 70.5,133.833 68.8333,135.5 67.5,137.5C 66.2652,137.279 65.2652,136.612 64.5,135.5C 63.7348,136.612 62.7348,137.279 61.5,137.5C 60.8485,136.909 60.1818,136.243 59.5,135.5C 58.2322,136.428 56.8989,136.595 55.5,136C 56.3366,134.989 56.67,133.822 56.5,132.5C 59.6843,130.586 63.351,129.92 67.5,130.5 Z"/></g>
<g><path style="opacity:0.846" fill="#e2e2e2" d="M 72.5,132.5 C 73.1667,132.5 73.8333,132.5 74.5,132.5C 74.5,134.833 74.5,137.167 74.5,139.5C 73.2003,138.892 71.8669,138.225 70.5,137.5C 69.2613,137.942 68.2613,138.609 67.5,139.5C 67.5,138.833 67.5,138.167 67.5,137.5C 68.8333,135.5 70.5,133.833 72.5,132.5 Z"/></g>
<g><path style="opacity:1" fill="#e4e4e4" d="M 43.5,135.5 C 44.1667,135.5 44.8333,135.5 45.5,135.5C 48.1128,136.392 48.7795,138.059 47.5,140.5C 48.9935,141.141 49.9935,142.141 50.5,143.5C 48.4687,143.972 46.8021,144.972 45.5,146.5C 44.0222,146.762 42.6888,146.429 41.5,145.5C 42.8333,143.167 44.1667,140.833 45.5,138.5C 44.3881,137.735 43.7214,136.735 43.5,135.5 Z"/></g>
<g><path style="opacity:1" fill="#ededed" d="M 61.5,137.5 C 62.7348,137.279 63.7348,136.612 64.5,135.5C 65.2652,136.612 66.2652,137.279 67.5,137.5C 67.5,138.167 67.5,138.833 67.5,139.5C 66.1667,139.5 64.8333,139.5 63.5,139.5C 63.9275,142.564 64.5942,145.564 65.5,148.5C 67.1667,148.5 68.8333,148.5 70.5,148.5C 71.3764,148.369 72.0431,148.702 72.5,149.5C 69.7051,149.938 67.3717,150.938 65.5,152.5C 64.8333,152.5 64.1667,152.5 63.5,152.5C 62.9157,150.743 61.749,149.41 60,148.5C 59.0546,148.905 58.3879,149.572 58,150.5C 57.7216,149.584 57.2216,148.918 56.5,148.5C 54.6127,147.344 53.2794,145.677 52.5,143.5C 52.5,141.5 52.5,139.5 52.5,137.5C 52.3691,136.624 52.7025,135.957 53.5,135.5C 54.9229,137.426 56.7562,138.76 59,139.5C 60.3756,139.316 61.2089,138.649 61.5,137.5 Z"/></g>
<g><path style="opacity:1" fill="#c7c7c7" d="M 74.5,139.5 C 74.5,141.167 74.5,142.833 74.5,144.5C 72.5,145.167 71.1667,146.5 70.5,148.5C 68.8333,148.5 67.1667,148.5 65.5,148.5C 64.5942,145.564 63.9275,142.564 63.5,139.5C 64.8333,139.5 66.1667,139.5 67.5,139.5C 68.2613,138.609 69.2613,137.942 70.5,137.5C 71.8669,138.225 73.2003,138.892 74.5,139.5 Z"/></g>
<g><path style="opacity:1" fill="#d1d1d1" d="M 47.5,132.5 C 49.0516,134.342 50.7182,136.009 52.5,137.5C 52.5,139.5 52.5,141.5 52.5,143.5C 51.8333,143.5 51.1667,143.5 50.5,143.5C 49.9935,142.141 48.9935,141.141 47.5,140.5C 48.7795,138.059 48.1128,136.392 45.5,135.5C 45.2852,133.821 45.9519,132.821 47.5,132.5 Z"/></g>
<g><path style="opacity:1" fill="#c3c3c3" d="M 50.5,143.5 C 51.1667,143.5 51.8333,143.5 52.5,143.5C 53.2794,145.677 54.6127,147.344 56.5,148.5C 55.8166,150.176 54.4832,150.843 52.5,150.5C 52.5,149.167 52.5,147.833 52.5,146.5C 50.0706,146.884 47.7373,147.551 45.5,148.5C 45.5,147.833 45.5,147.167 45.5,146.5C 46.8021,144.972 48.4687,143.972 50.5,143.5 Z"/></g>
<g><path style="opacity:1" fill="#dbdbdb" d="M 56.5,148.5 C 57.2216,148.918 57.7216,149.584 58,150.5C 58.3879,149.572 59.0546,148.905 60,148.5C 61.749,149.41 62.9157,150.743 63.5,152.5C 63.6309,153.376 63.2975,154.043 62.5,154.5C 58.4831,151.745 54.1498,151.079 49.5,152.5C 47.8664,151.419 46.533,150.085 45.5,148.5C 47.7373,147.551 50.0706,146.884 52.5,146.5C 52.5,147.833 52.5,149.167 52.5,150.5C 54.4832,150.843 55.8166,150.176 56.5,148.5 Z"/></g>
<g><path style="opacity:1" fill="#dddddd" d="M 74.5,144.5 C 74.5,148.167 74.5,151.833 74.5,155.5C 72.8333,155.5 71.1667,155.5 69.5,155.5C 68.7377,153.738 67.4044,152.738 65.5,152.5C 67.3717,150.938 69.7051,149.938 72.5,149.5C 72.0431,148.702 71.3764,148.369 70.5,148.5C 71.1667,146.5 72.5,145.167 74.5,144.5 Z"/></g>
<g><path style="opacity:1" fill="#f2f2f2" d="M 45.5,148.5 C 46.533,150.085 47.8664,151.419 49.5,152.5C 50.8333,153.5 50.8333,154.5 49.5,155.5C 47.5,155.5 45.5,155.5 43.5,155.5C 43.5198,153.857 42.8532,152.524 41.5,151.5C 42.5884,150.066 43.9217,149.066 45.5,148.5 Z"/></g>
<g><path style="opacity:1" fill="#eaeaea" d="M 63.5,152.5 C 64.1667,152.5 64.8333,152.5 65.5,152.5C 67.4044,152.738 68.7377,153.738 69.5,155.5C 62.8333,155.5 56.1667,155.5 49.5,155.5C 50.8333,154.5 50.8333,153.5 49.5,152.5C 54.1498,151.079 58.4831,151.745 62.5,154.5C 63.2975,154.043 63.6309,153.376 63.5,152.5 Z"/></g>
</svg>
