<?xml version="1.0" encoding="UTF-8"?>
<!DOCTYPE svg PUBLIC "-//W3C//DTD SVG 1.1//EN" "http://www.w3.org/Graphics/SVG/1.1/DTD/svg11.dtd">
<svg xmlns="http://www.w3.org/2000/svg" version="1.1" width="104px" height="180px" style="shape-rendering:geometricPrecision; text-rendering:geometricPrecision; image-rendering:optimizeQuality; fill-rule:evenodd; clip-rule:evenodd" xmlns:xlink="http://www.w3.org/1999/xlink">
<g><path style="opacity:1" fill="#d6d6d6" d="M 56.5,19.5 C 60.1667,19.5 63.8333,19.5 67.5,19.5C 67.5,20.5 67.5,21.5 67.5,22.5C 71.0192,22.1868 72.3526,23.5201 71.5,26.5C 69.7363,24.5213 67.7363,24.188 65.5,25.5C 66.9935,26.1411 67.9935,27.1411 68.5,28.5C 69.3351,29.9432 70.6684,30.9432 72.5,31.5C 70.9547,32.4519 69.288,32.7852 67.5,32.5C 66.1667,31.1667 64.8333,29.8333 63.5,28.5C 62.4479,26.744 60.7812,26.0773 58.5,26.5C 58.5321,23.9242 57.8654,21.5909 56.5,19.5 Z"/></g>
<g><path style="opacity:1" fill="#d5d5d5" d="M 74.5,19.5 C 76.1667,19.5 77.8333,19.5 79.5,19.5C 82.1456,21.8727 82.1456,24.2061 79.5,26.5C 78.5,26.5 77.5,26.5 76.5,26.5C 75.551,24.2627 74.8844,21.9294 74.5,19.5 Z"/></g>
<g><path style="opacity:1" fill="#d8d8d8" d="M 79.5,19.5 C 86.5837,18.8745 93.2504,19.5411 99.5,21.5C 98.5,21.5 97.5,21.5 96.5,21.5C 96.719,22.675 96.3857,23.675 95.5,24.5C 93.0087,24.0906 91.0087,22.9239 89.5,21C 88.1667,20.3333 86.8333,20.3333 85.5,21C 87.1922,22.4007 87.8588,24.2341 87.5,26.5C 86.2652,26.2786 85.2652,25.6119 84.5,24.5C 83.5713,25.6888 83.238,27.0222 83.5,28.5C 81.5168,28.8432 80.1834,28.1765 79.5,26.5C 82.1456,24.2061 82.1456,21.8727 79.5,19.5 Z"/></g>
<g><path style="opacity:1" fill="#e1e1e1" d="M 5.5,19.5 C 9.16667,19.5 12.8333,19.5 16.5,19.5C 15.5525,20.9779 14.2191,21.9779 12.5,22.5C 10.3926,23.4682 8.0593,23.8016 5.5,23.5C 5.5,22.1667 5.5,20.8333 5.5,19.5 Z"/></g>
<g><path style="opacity:1" fill="#e3e3e3" d="M 41.5,19.5 C 44.1667,19.5 46.8333,19.5 49.5,19.5C 51.5286,21.0841 53.8619,22.4174 56.5,23.5C 53.8434,24.2592 51.1767,24.9258 48.5,25.5C 47.8333,24.5 47.1667,23.5 46.5,22.5C 45.8589,23.9935 44.8589,24.9935 43.5,25.5C 42.8333,24.1667 42.1667,22.8333 41.5,21.5C 41.5,20.8333 41.5,20.1667 41.5,19.5 Z"/></g>
<g><path style="opacity:1" fill="#d2d2d2" d="M 49.5,19.5 C 51.8333,19.5 54.1667,19.5 56.5,19.5C 57.8654,21.5909 58.5321,23.9242 58.5,26.5C 56.2821,26.6138 54.2821,27.2804 52.5,28.5C 51.8333,28.5 51.1667,28.5 50.5,28.5C 48.4922,26.9174 46.1589,25.9174 43.5,25.5C 44.8589,24.9935 45.8589,23.9935 46.5,22.5C 47.1667,23.5 47.8333,24.5 48.5,25.5C 51.1767,24.9258 53.8434,24.2592 56.5,23.5C 53.8619,22.4174 51.5286,21.0841 49.5,19.5 Z"/></g>
<g><path style="opacity:1" fill="#dadada" d="M 16.5,19.5 C 19.5,19.5 22.5,19.5 25.5,19.5C 27.2789,21.3435 29.6122,22.0102 32.5,21.5C 32.5,23.1667 32.5,24.8333 32.5,26.5C 30.8333,26.5 29.1667,26.5 27.5,26.5C 25.2821,26.3862 23.2821,25.7196 21.5,24.5C 18.7273,23.3428 15.7273,22.6761 12.5,22.5C 14.2191,21.9779 15.5525,20.9779 16.5,19.5 Z"/></g>
<g><path style="opacity:1" fill="#c9c9c9" d="M 25.5,19.5 C 30.8333,19.5 36.1667,19.5 41.5,19.5C 41.5,20.1667 41.5,20.8333 41.5,21.5C 40.5,21.5 39.5,21.5 38.5,21.5C 38.5,23.1667 38.5,24.8333 38.5,26.5C 37.1667,27.1667 35.8333,27.8333 34.5,28.5C 32.8333,28.5 31.1667,28.5 29.5,28.5C 28.1667,28.5 27.5,27.8333 27.5,26.5C 29.1667,26.5 30.8333,26.5 32.5,26.5C 32.5,24.8333 32.5,23.1667 32.5,21.5C 29.6122,22.0102 27.2789,21.3435 25.5,19.5 Z"/></g>
<g><path style="opacity:1" fill="#c3c3c3" d="M 67.5,19.5 C 69.8333,19.5 72.1667,19.5 74.5,19.5C 74.8844,21.9294 75.551,24.2627 76.5,26.5C 75.1667,26.5 74.5,27.1667 74.5,28.5C 72.5,28.5 70.5,28.5 68.5,28.5C 67.9935,27.1411 66.9935,26.1411 65.5,25.5C 67.7363,24.188 69.7363,24.5213 71.5,26.5C 72.3526,23.5201 71.0192,22.1868 67.5,22.5C 67.5,21.5 67.5,20.5 67.5,19.5 Z"/></g>
<g><path style="opacity:1" fill="#c5c5c5" d="M 5.5,19.5 C 5.5,20.8333 5.5,22.1667 5.5,23.5C 8.0593,23.8016 10.3926,23.4682 12.5,22.5C 15.7273,22.6761 18.7273,23.3428 21.5,24.5C 20.6649,25.9432 19.3316,26.9432 17.5,27.5C 19.0049,28.8415 19.6715,30.5082 19.5,32.5C 20.8333,32.5 22.1667,32.5 23.5,32.5C 23.5,33.5 23.5,34.5 23.5,35.5C 20.2727,35.3239 17.2727,34.6572 14.5,33.5C 16.256,32.4479 16.9227,30.7812 16.5,28.5C 12.2005,27.6533 7.8672,26.9867 3.5,26.5C 2.98983,23.6122 3.65649,21.2789 5.5,19.5 Z"/></g>
<g><path style="opacity:1" fill="#e0e0e0" d="M 99.5,21.5 C 99.5,25.1667 99.5,28.8333 99.5,32.5C 96.7138,30.721 93.7138,29.3876 90.5,28.5C 88.8212,28.7148 87.8212,28.0481 87.5,26.5C 87.8588,24.2341 87.1922,22.4007 85.5,21C 86.8333,20.3333 88.1667,20.3333 89.5,21C 91.0087,22.9239 93.0087,24.0906 95.5,24.5C 96.3857,23.675 96.719,22.675 96.5,21.5C 97.5,21.5 98.5,21.5 99.5,21.5 Z"/></g>
<g><path style="opacity:1" fill="#cccccc" d="M 21.5,24.5 C 23.2821,25.7196 25.2821,26.3862 27.5,26.5C 27.5,27.8333 28.1667,28.5 29.5,28.5C 27.8271,31.1685 25.8271,33.5018 23.5,35.5C 23.5,34.5 23.5,33.5 23.5,32.5C 22.1667,32.5 20.8333,32.5 19.5,32.5C 19.6715,30.5082 19.0049,28.8415 17.5,27.5C 19.3316,26.9432 20.6649,25.9432 21.5,24.5 Z"/></g>
<g><path style="opacity:1" fill="#c1c1c1" d="M 41.5,21.5 C 42.1667,22.8333 42.8333,24.1667 43.5,25.5C 46.1589,25.9174 48.4922,26.9174 50.5,28.5C 48.8333,28.5 47.1667,28.5 45.5,28.5C 44.1667,28.5 42.8333,28.5 41.5,28.5C 41.1788,26.9519 40.1788,26.2852 38.5,26.5C 38.5,24.8333 38.5,23.1667 38.5,21.5C 39.5,21.5 40.5,21.5 41.5,21.5 Z"/></g>
<g><path style="opacity:1" fill="#cdcdcd" d="M 58.5,26.5 C 60.7812,26.0773 62.4479,26.744 63.5,28.5C 62.2436,28.9038 61.0769,29.5705 60,30.5C 59.0546,30.0946 58.3879,29.428 58,28.5C 57.2904,29.9733 56.1238,30.6399 54.5,30.5C 53.551,32.7373 52.8844,35.0706 52.5,37.5C 51.8333,37.5 51.1667,37.5 50.5,37.5C 50.2895,34.248 50.9562,31.248 52.5,28.5C 54.2821,27.2804 56.2821,26.6138 58.5,26.5 Z"/></g>
<g><path style="opacity:1" fill="#e1e1e1" d="M 3.5,26.5 C 7.8672,26.9867 12.2005,27.6533 16.5,28.5C 16.9227,30.7812 16.256,32.4479 14.5,33.5C 12.5168,33.1568 11.1834,33.8235 10.5,35.5C 8.23625,34.7814 5.90291,34.448 3.5,34.5C 3.5,31.8333 3.5,29.1667 3.5,26.5 Z"/></g>
<g><path style="opacity:1" fill="#d8d8d8" d="M 38.5,26.5 C 40.1788,26.2852 41.1788,26.9519 41.5,28.5C 37.213,31.4058 37.8796,32.7391 43.5,32.5C 43.5,33.5 43.5,34.5 43.5,35.5C 43.5,36.1667 43.5,36.8333 43.5,37.5C 41.4091,36.1346 39.0758,35.4679 36.5,35.5C 36.5,34.5 36.5,33.5 36.5,32.5C 32.6266,32.334 31.9599,33.334 34.5,35.5C 33.1667,35.5 31.8333,35.5 30.5,35.5C 30.5,33.8333 30.5,32.1667 30.5,30.5C 32.4832,30.8432 33.8166,30.1765 34.5,28.5C 35.8333,27.8333 37.1667,27.1667 38.5,26.5 Z"/></g>
<g><path style="opacity:1" fill="#c2c2c2" d="M 41.5,28.5 C 42.8333,28.5 44.1667,28.5 45.5,28.5C 45.6138,30.7179 46.2804,32.7179 47.5,34.5C 47.719,35.675 47.3857,36.675 46.5,37.5C 45.7348,36.3881 44.7348,35.7214 43.5,35.5C 43.5,34.5 43.5,33.5 43.5,32.5C 37.8796,32.7391 37.213,31.4058 41.5,28.5 Z"/></g>
<g><path style="opacity:1" fill="#dedede" d="M 45.5,28.5 C 47.1667,28.5 48.8333,28.5 50.5,28.5C 51.1667,28.5 51.8333,28.5 52.5,28.5C 50.9562,31.248 50.2895,34.248 50.5,37.5C 49.1001,36.9002 48.1001,35.9002 47.5,34.5C 46.2804,32.7179 45.6138,30.7179 45.5,28.5 Z"/></g>
<g><path style="opacity:1" fill="#f0f0f0" d="M 87.5,26.5 C 87.8212,28.0481 88.8212,28.7148 90.5,28.5C 88.7211,30.3435 86.3878,31.0102 83.5,30.5C 83.4729,32.1993 82.8062,33.5326 81.5,34.5C 80.8333,34.5 80.1667,34.5 79.5,34.5C 78.4479,32.744 76.7812,32.0773 74.5,32.5C 74.5,31.1667 74.5,29.8333 74.5,28.5C 74.5,27.1667 75.1667,26.5 76.5,26.5C 77.5,26.5 78.5,26.5 79.5,26.5C 80.1834,28.1765 81.5168,28.8432 83.5,28.5C 83.238,27.0222 83.5713,25.6888 84.5,24.5C 85.2652,25.6119 86.2652,26.2786 87.5,26.5 Z"/></g>
<g><path style="opacity:1" fill="#e9e9e9" d="M 90.5,28.5 C 93.7138,29.3876 96.7138,30.721 99.5,32.5C 99.5,34.1667 99.5,35.8333 99.5,37.5C 98.0779,37.2504 97.0779,36.417 96.5,35C 93.6195,34.6498 90.9529,33.8165 88.5,32.5C 87.7494,31.4265 86.7494,31.2599 85.5,32C 87.497,33.1531 87.8304,34.6531 86.5,36.5C 85.1585,34.9951 83.4918,34.3285 81.5,34.5C 82.8062,33.5326 83.4729,32.1993 83.5,30.5C 86.3878,31.0102 88.7211,30.3435 90.5,28.5 Z"/></g>
<g><path style="opacity:1" fill="#dfdfdf" d="M 63.5,28.5 C 64.8333,29.8333 66.1667,31.1667 67.5,32.5C 64.9179,32.0254 62.9179,32.6921 61.5,34.5C 58.493,35.5139 55.493,36.5139 52.5,37.5C 52.8844,35.0706 53.551,32.7373 54.5,30.5C 56.1238,30.6399 57.2904,29.9733 58,28.5C 58.3879,29.428 59.0546,30.0946 60,30.5C 61.0769,29.5705 62.2436,28.9038 63.5,28.5 Z"/></g>
<g><path style="opacity:1" fill="#dcdcdc" d="M 68.5,28.5 C 70.5,28.5 72.5,28.5 74.5,28.5C 74.5,29.8333 74.5,31.1667 74.5,32.5C 76.7812,32.0773 78.4479,32.744 79.5,34.5C 77.563,33.2942 75.8963,33.6275 74.5,35.5C 72.1667,35.5 69.8333,35.5 67.5,35.5C 66.2652,35.2786 65.2652,34.6119 64.5,33.5C 63.5832,34.1272 62.5832,34.4606 61.5,34.5C 62.9179,32.6921 64.9179,32.0254 67.5,32.5C 69.288,32.7852 70.9547,32.4519 72.5,31.5C 70.6684,30.9432 69.3351,29.9432 68.5,28.5 Z"/></g>
<g><path style="opacity:1" fill="#d1d1d1" d="M 14.5,33.5 C 17.2727,34.6572 20.2727,35.3239 23.5,35.5C 23.5,36.1667 23.5,36.8333 23.5,37.5C 24.1667,38.8333 24.8333,40.1667 25.5,41.5C 24.1667,41.5 22.8333,41.5 21.5,41.5C 21.5,40.1667 21.5,38.8333 21.5,37.5C 19.857,37.5198 18.5237,36.8532 17.5,35.5C 16.1585,37.0049 14.4918,37.6715 12.5,37.5C 12.5,36.1667 11.8333,35.5 10.5,35.5C 11.1834,33.8235 12.5168,33.1568 14.5,33.5 Z"/></g>
<g><path style="opacity:1" fill="#c0c0c0" d="M 43.5,37.5 C 43.5,38.1667 43.5,38.8333 43.5,39.5C 43.6309,40.3764 43.2975,41.0431 42.5,41.5C 41.1186,40.1186 39.7853,38.7853 38.5,37.5C 36.5168,37.8432 35.1834,37.1765 34.5,35.5C 31.9599,33.334 32.6266,32.334 36.5,32.5C 36.5,33.5 36.5,34.5 36.5,35.5C 39.0758,35.4679 41.4091,36.1346 43.5,37.5 Z"/></g>
<g><path style="opacity:1" fill="#e7e7e7" d="M 29.5,28.5 C 31.1667,28.5 32.8333,28.5 34.5,28.5C 33.8166,30.1765 32.4832,30.8432 30.5,30.5C 30.5,32.1667 30.5,33.8333 30.5,35.5C 31.8333,35.5 33.1667,35.5 34.5,35.5C 35.1834,37.1765 36.5168,37.8432 38.5,37.5C 38.5,38.1667 38.5,38.8333 38.5,39.5C 37.1667,39.5 35.8333,39.5 34.5,39.5C 34.8224,43.439 33.489,44.2723 30.5,42C 29.4519,38.5439 27.1186,37.0439 23.5,37.5C 23.5,36.8333 23.5,36.1667 23.5,35.5C 25.8271,33.5018 27.8271,31.1685 29.5,28.5 Z"/></g>
<g><path style="opacity:1" fill="#aeaeae" d="M 67.5,35.5 C 68.5,36.8333 69.5,38.1667 70.5,39.5C 68.7211,41.3435 66.3878,42.0102 63.5,41.5C 62.8333,41.5 62.1667,41.5 61.5,41.5C 59.7211,39.6565 57.3878,38.9898 54.5,39.5C 52.5168,39.8432 51.1834,39.1765 50.5,37.5C 51.1667,37.5 51.8333,37.5 52.5,37.5C 55.493,36.5139 58.493,35.5139 61.5,34.5C 62.5832,34.4606 63.5832,34.1272 64.5,33.5C 65.2652,34.6119 66.2652,35.2786 67.5,35.5 Z"/></g>
<g><path style="opacity:1" fill="#d3d3d3" d="M 67.5,35.5 C 69.8333,35.5 72.1667,35.5 74.5,35.5C 74.1568,37.4832 74.8235,38.8166 76.5,39.5C 76.5,40.1667 76.5,40.8333 76.5,41.5C 75.8166,43.1765 74.4832,43.8432 72.5,43.5C 72.8432,41.5168 72.1765,40.1834 70.5,39.5C 69.5,38.1667 68.5,36.8333 67.5,35.5 Z"/></g>
<g><path style="opacity:1" fill="#c4c4c4" d="M 79.5,34.5 C 82.0696,35.7848 84.7363,37.1181 87.5,38.5C 85.0251,38.9642 83.0251,39.9642 81.5,41.5C 79.9891,40.4975 78.3224,39.8308 76.5,39.5C 74.8235,38.8166 74.1568,37.4832 74.5,35.5C 75.8963,33.6275 77.563,33.2942 79.5,34.5 Z"/></g>
<g><path style="opacity:1" fill="#dcdcdc" d="M 88.5,32.5 C 89.103,35.7701 91.103,37.7701 94.5,38.5C 92.6684,39.0568 91.3351,40.0568 90.5,41.5C 87.5,41.5 84.5,41.5 81.5,41.5C 83.0251,39.9642 85.0251,38.9642 87.5,38.5C 84.7363,37.1181 82.0696,35.7848 79.5,34.5C 80.1667,34.5 80.8333,34.5 81.5,34.5C 83.4918,34.3285 85.1585,34.9951 86.5,36.5C 87.8304,34.6531 87.497,33.1531 85.5,32C 86.7494,31.2599 87.7494,31.4265 88.5,32.5 Z"/></g>
<g><path style="opacity:0.888" fill="#d4d4d4" d="M 88.5,32.5 C 90.9529,33.8165 93.6195,34.6498 96.5,35C 97.0779,36.417 98.0779,37.2504 99.5,37.5C 98.7362,40.0177 97.7362,42.351 96.5,44.5C 95.1667,44.5 93.8333,44.5 92.5,44.5C 92.7148,42.8212 92.0481,41.8212 90.5,41.5C 91.3351,40.0568 92.6684,39.0568 94.5,38.5C 91.103,37.7701 89.103,35.7701 88.5,32.5 Z"/></g>
<g><path style="opacity:1" fill="#cbcbcb" d="M 3.5,34.5 C 5.90291,34.448 8.23625,34.7814 10.5,35.5C 11.8333,35.5 12.5,36.1667 12.5,37.5C 9.47746,37.1052 8.47746,38.1052 9.5,40.5C 7.60395,41.4656 5.60395,41.7989 3.5,41.5C 3.5,39.1667 3.5,36.8333 3.5,34.5 Z"/></g>
<g><path style="opacity:1" fill="#cdcdcd" d="M 47.5,34.5 C 48.1001,35.9002 49.1001,36.9002 50.5,37.5C 51.1834,39.1765 52.5168,39.8432 54.5,39.5C 54.5,41.8333 54.5,44.1667 54.5,46.5C 52.0706,46.1156 49.7373,45.449 47.5,44.5C 47.9227,42.2188 47.256,40.5521 45.5,39.5C 44.8333,39.5 44.1667,39.5 43.5,39.5C 43.5,38.8333 43.5,38.1667 43.5,37.5C 43.5,36.8333 43.5,36.1667 43.5,35.5C 44.7348,35.7214 45.7348,36.3881 46.5,37.5C 47.3857,36.675 47.719,35.675 47.5,34.5 Z"/></g>
<g><path style="opacity:1" fill="#dedede" d="M 12.5,39.5 C 14.288,39.2148 15.9547,39.5481 17.5,40.5C 19.3296,43.8863 21.9963,44.8863 25.5,43.5C 28.9116,44.0749 31.9116,45.4082 34.5,47.5C 27.8333,47.5 21.1667,47.5 14.5,47.5C 13.2183,45.5355 11.885,43.5355 10.5,41.5C 10.7472,40.2867 11.4138,39.62 12.5,39.5 Z"/></g>
<g><path style="opacity:1" fill="#d6d6d6" d="M 12.5,37.5 C 12.5,38.1667 12.5,38.8333 12.5,39.5C 11.4138,39.62 10.7472,40.2867 10.5,41.5C 11.885,43.5355 13.2183,45.5355 14.5,47.5C 10.8333,47.5 7.16667,47.5 3.5,47.5C 3.5,45.5 3.5,43.5 3.5,41.5C 5.60395,41.7989 7.60395,41.4656 9.5,40.5C 8.47746,38.1052 9.47746,37.1052 12.5,37.5 Z"/></g>
<g><path style="opacity:1" fill="#efefef" d="M 25.5,41.5 C 25.5,42.1667 25.5,42.8333 25.5,43.5C 21.9963,44.8863 19.3296,43.8863 17.5,40.5C 15.9547,39.5481 14.288,39.2148 12.5,39.5C 12.5,38.8333 12.5,38.1667 12.5,37.5C 14.4918,37.6715 16.1585,37.0049 17.5,35.5C 18.5237,36.8532 19.857,37.5198 21.5,37.5C 21.5,38.8333 21.5,40.1667 21.5,41.5C 22.8333,41.5 24.1667,41.5 25.5,41.5 Z"/></g>
<g><path style="opacity:1" fill="#dedede" d="M 38.5,37.5 C 39.7853,38.7853 41.1186,40.1186 42.5,41.5C 43.2975,41.0431 43.6309,40.3764 43.5,39.5C 44.1667,39.5 44.8333,39.5 45.5,39.5C 45.1472,42.6898 43.8138,45.3565 41.5,47.5C 40.8333,47.5 40.1667,47.5 39.5,47.5C 38.791,46.596 37.791,46.2627 36.5,46.5C 36.8844,44.0706 37.551,41.7373 38.5,39.5C 38.5,38.8333 38.5,38.1667 38.5,37.5 Z"/></g>
<g><path style="opacity:0.964" fill="#d4d4d4" d="M 45.5,39.5 C 47.256,40.5521 47.9227,42.2188 47.5,44.5C 49.7373,45.449 52.0706,46.1156 54.5,46.5C 54.5,44.1667 54.5,41.8333 54.5,39.5C 57.3878,38.9898 59.7211,39.6565 61.5,41.5C 59.8333,41.5 58.1667,41.5 56.5,41.5C 56.5,43.5 56.5,45.5 56.5,47.5C 51.5,47.5 46.5,47.5 41.5,47.5C 43.8138,45.3565 45.1472,42.6898 45.5,39.5 Z"/></g>
<g><path style="opacity:0.984" fill="#dfdfdf" d="M 61.5,41.5 C 62.1667,41.5 62.8333,41.5 63.5,41.5C 63.5,41.8333 63.5,42.1667 63.5,42.5C 62.4138,42.62 61.7472,43.2867 61.5,44.5C 62.885,46.5355 64.2183,48.5355 65.5,50.5C 64.2652,50.7214 63.2652,51.3881 62.5,52.5C 61.8182,51.7573 61.1515,51.0906 60.5,50.5C 60.4142,49.5041 60.7476,48.6708 61.5,48C 59.8659,47.5065 58.1992,47.3398 56.5,47.5C 56.5,45.5 56.5,43.5 56.5,41.5C 58.1667,41.5 59.8333,41.5 61.5,41.5 Z"/></g>
<g><path style="opacity:1" fill="#bababa" d="M 76.5,39.5 C 78.3224,39.8308 79.9891,40.4975 81.5,41.5C 84.5,41.5 87.5,41.5 90.5,41.5C 92.0481,41.8212 92.7148,42.8212 92.5,44.5C 88.9878,43.9455 85.9878,44.6122 83.5,46.5C 80.5,46.5 77.5,46.5 74.5,46.5C 73.1667,46.5 72.5,45.8333 72.5,44.5C 74.5,44.5 76.5,44.5 78.5,44.5C 78.7148,42.8212 78.0481,41.8212 76.5,41.5C 76.5,40.8333 76.5,40.1667 76.5,39.5 Z"/></g>
<g><path style="opacity:0.964" fill="#cdcdcd" d="M 23.5,37.5 C 27.1186,37.0439 29.4519,38.5439 30.5,42C 33.489,44.2723 34.8224,43.439 34.5,39.5C 35.8333,39.5 37.1667,39.5 38.5,39.5C 37.551,41.7373 36.8844,44.0706 36.5,46.5C 37.791,46.2627 38.791,46.596 39.5,47.5C 37.8333,47.5 36.1667,47.5 34.5,47.5C 31.9116,45.4082 28.9116,44.0749 25.5,43.5C 25.5,42.8333 25.5,42.1667 25.5,41.5C 24.8333,40.1667 24.1667,38.8333 23.5,37.5 Z"/></g>
<g><path style="opacity:1" fill="#c7c7c7" d="M 70.5,39.5 C 72.1765,40.1834 72.8432,41.5168 72.5,43.5C 74.4832,43.8432 75.8166,43.1765 76.5,41.5C 78.0481,41.8212 78.7148,42.8212 78.5,44.5C 76.5,44.5 74.5,44.5 72.5,44.5C 69.4359,44.0725 66.4359,43.4058 63.5,42.5C 63.5,42.1667 63.5,41.8333 63.5,41.5C 66.3878,42.0102 68.7211,41.3435 70.5,39.5 Z"/></g>
<g><path style="opacity:1" fill="#d0d0d0" d="M 74.5,46.5 C 77.5,46.5 80.5,46.5 83.5,46.5C 82.2034,48.7976 80.5368,50.7976 78.5,52.5C 77.1667,52.5 75.8333,52.5 74.5,52.5C 74.2786,51.2652 73.6119,50.2652 72.5,49.5C 73.6119,48.7348 74.2786,47.7348 74.5,46.5 Z"/></g>
<g><path style="opacity:1" fill="#d0d0d0" d="M 92.5,44.5 C 93.8333,44.5 95.1667,44.5 96.5,44.5C 95.7362,47.0177 94.7362,49.351 93.5,51.5C 90.2106,49.8553 86.8773,48.1886 83.5,46.5C 85.9878,44.6122 88.9878,43.9455 92.5,44.5 Z"/></g>
<g><path style="opacity:1" fill="#e9e9e9" d="M 63.5,42.5 C 66.4359,43.4058 69.4359,44.0725 72.5,44.5C 72.5,45.8333 73.1667,46.5 74.5,46.5C 74.2786,47.7348 73.6119,48.7348 72.5,49.5C 73.6119,50.2652 74.2786,51.2652 74.5,52.5C 74.5,53.8333 73.8333,54.5 72.5,54.5C 71.4479,52.744 69.7812,52.0773 67.5,52.5C 67.5,51.1667 66.8333,50.5 65.5,50.5C 64.2183,48.5355 62.885,46.5355 61.5,44.5C 61.7472,43.2867 62.4138,42.62 63.5,42.5 Z"/></g>
<g><path style="opacity:1" fill="#e5e5e5" d="M 83.5,46.5 C 86.8773,48.1886 90.2106,49.8553 93.5,51.5C 93.6716,52.4916 93.3382,53.1583 92.5,53.5C 92.44,52.9569 92.1067,52.6236 91.5,52.5C 89.0093,54.0577 86.3426,55.0577 83.5,55.5C 81.4687,55.0276 79.8021,54.0276 78.5,52.5C 80.5368,50.7976 82.2034,48.7976 83.5,46.5 Z"/></g>
<g><path style="opacity:1" fill="#b7b7b7" d="M 67.5,52.5 C 69.7812,52.0773 71.4479,52.744 72.5,54.5C 73.968,55.7791 74.6347,57.4458 74.5,59.5C 72.8333,59.5 71.1667,59.5 69.5,59.5C 69.5,57.8333 69.5,56.1667 69.5,54.5C 68.1266,54.6567 66.7932,54.49 65.5,54C 66.0442,53.2828 66.7109,52.7828 67.5,52.5 Z"/></g>
<g><path style="opacity:1" fill="#d8d8d8" d="M 74.5,52.5 C 75.8333,52.5 77.1667,52.5 78.5,52.5C 79.8021,54.0276 81.4687,55.0276 83.5,55.5C 81.2188,55.0773 79.5521,55.744 78.5,57.5C 77.3933,59.9689 75.3933,60.9689 72.5,60.5C 71.209,60.7373 70.209,60.404 69.5,59.5C 71.1667,59.5 72.8333,59.5 74.5,59.5C 74.6347,57.4458 73.968,55.7791 72.5,54.5C 73.8333,54.5 74.5,53.8333 74.5,52.5 Z"/></g>
<g><path style="opacity:1" fill="#cccccc" d="M 60.5,50.5 C 61.1515,51.0906 61.8182,51.7573 62.5,52.5C 63.2652,51.3881 64.2652,50.7214 65.5,50.5C 66.8333,50.5 67.5,51.1667 67.5,52.5C 66.7109,52.7828 66.0442,53.2828 65.5,54C 66.7932,54.49 68.1266,54.6567 69.5,54.5C 69.5,56.1667 69.5,57.8333 69.5,59.5C 68.5326,58.1938 67.1993,57.5271 65.5,57.5C 65.4486,59.5695 66.1153,61.4029 67.5,63C 67.1639,64.0299 66.4972,64.5299 65.5,64.5C 65.1583,63.6618 64.4916,63.3284 63.5,63.5C 63.5,60.8333 63.5,58.1667 63.5,55.5C 61.8333,55.5 60.1667,55.5 58.5,55.5C 58.8925,53.7162 59.5592,52.0495 60.5,50.5 Z"/></g>
<g><path style="opacity:1" fill="#d4d4d4" d="M 92.5,53.5 C 91.7176,57.0632 90.3843,60.3965 88.5,63.5C 87.5655,62.4324 87.2322,61.099 87.5,59.5C 86.1667,59.5 84.8333,59.5 83.5,59.5C 82.4479,57.744 80.7812,57.0773 78.5,57.5C 79.5521,55.744 81.2188,55.0773 83.5,55.5C 86.3426,55.0577 89.0093,54.0577 91.5,52.5C 92.1067,52.6236 92.44,52.9569 92.5,53.5 Z"/></g>
<g><path style="opacity:1" fill="#e4e4e4" d="M 58.5,55.5 C 60.1667,55.5 61.8333,55.5 63.5,55.5C 63.5,58.1667 63.5,60.8333 63.5,63.5C 62.8333,63.5 62.1667,63.5 61.5,63.5C 60.0121,61.1546 58.0121,60.8212 55.5,62.5C 55.7073,59.7594 56.7073,57.4261 58.5,55.5 Z"/></g>
<g><path style="opacity:1" fill="#dbdbdb" d="M 78.5,57.5 C 80.7812,57.0773 82.4479,57.744 83.5,59.5C 80.5641,60.4058 77.5641,61.0725 74.5,61.5C 74.3653,63.5542 75.032,65.2209 76.5,66.5C 75.1667,66.5 73.8333,66.5 72.5,66.5C 72.5198,64.857 71.8532,63.5237 70.5,62.5C 71.2427,61.8182 71.9094,61.1515 72.5,60.5C 75.3933,60.9689 77.3933,59.9689 78.5,57.5 Z"/></g>
<g><path style="opacity:1" fill="#c7c7c7" d="M 83.5,59.5 C 84.8333,59.5 86.1667,59.5 87.5,59.5C 87.2322,61.099 87.5655,62.4324 88.5,63.5C 88.4431,64.609 88.1098,65.609 87.5,66.5C 86.1411,65.9935 85.1411,64.9935 84.5,63.5C 83.5832,64.1272 82.5832,64.4606 81.5,64.5C 79.6776,64.8308 78.0109,65.4975 76.5,66.5C 75.032,65.2209 74.3653,63.5542 74.5,61.5C 77.5641,61.0725 80.5641,60.4058 83.5,59.5 Z"/></g>
<g><path style="opacity:1" fill="#e7e7e7" d="M 69.5,59.5 C 70.209,60.404 71.209,60.7373 72.5,60.5C 71.9094,61.1515 71.2427,61.8182 70.5,62.5C 71.8532,63.5237 72.5198,64.857 72.5,66.5C 73.8333,66.5 75.1667,66.5 76.5,66.5C 75.8333,67.8333 75.1667,69.1667 74.5,70.5C 70.715,70.6311 67.0483,71.2978 63.5,72.5C 62.9644,69.3019 63.631,66.6353 65.5,64.5C 66.4972,64.5299 67.1639,64.0299 67.5,63C 66.1153,61.4029 65.4486,59.5695 65.5,57.5C 67.1993,57.5271 68.5326,58.1938 69.5,59.5 Z"/></g>
<g><path style="opacity:1" fill="#cacaca" d="M 61.5,63.5 C 61.5,64.5 61.5,65.5 61.5,66.5C 60.5,66.5 59.5,66.5 58.5,66.5C 56.8333,66.5 55.1667,66.5 53.5,66.5C 53.6596,64.847 54.3263,63.5137 55.5,62.5C 58.0121,60.8212 60.0121,61.1546 61.5,63.5 Z"/></g>
<g><path style="opacity:1" fill="#e2e2e2" d="M 87.5,66.5 C 86.8333,67.8333 86.1667,69.1667 85.5,70.5C 83.396,70.7989 81.396,70.4656 79.5,69.5C 80.4565,67.9246 81.1231,66.258 81.5,64.5C 82.5832,64.4606 83.5832,64.1272 84.5,63.5C 85.1411,64.9935 86.1411,65.9935 87.5,66.5 Z"/></g>
<g><path style="opacity:1" fill="#e3e3e3" d="M 53.5,66.5 C 55.1667,66.5 56.8333,66.5 58.5,66.5C 58.2053,68.7354 58.5386,70.7354 59.5,72.5C 60.5981,73.397 60.5981,74.2303 59.5,75C 57.8659,75.4935 56.1992,75.6602 54.5,75.5C 52.8333,74.8333 51.1667,74.1667 49.5,73.5C 50.5957,70.9684 51.9291,68.6351 53.5,66.5 Z"/></g>
<g><path style="opacity:1" fill="#d0d0d0" d="M 61.5,63.5 C 62.1667,63.5 62.8333,63.5 63.5,63.5C 64.4916,63.3284 65.1583,63.6618 65.5,64.5C 63.631,66.6353 62.9644,69.3019 63.5,72.5C 67.0483,71.2978 70.715,70.6311 74.5,70.5C 74.2623,73.0685 72.929,74.7352 70.5,75.5C 70.2648,74.9033 69.7648,74.5699 69,74.5C 66.7691,76.1997 64.2691,77.1997 61.5,77.5C 61.9227,75.2188 61.256,73.5521 59.5,72.5C 58.5386,70.7354 58.2053,68.7354 58.5,66.5C 59.5,66.5 60.5,66.5 61.5,66.5C 61.5,65.5 61.5,64.5 61.5,63.5 Z"/></g>
<g><path style="opacity:1" fill="#d9d9d9" d="M 81.5,64.5 C 81.1231,66.258 80.4565,67.9246 79.5,69.5C 81.396,70.4656 83.396,70.7989 85.5,70.5C 85.4431,71.609 85.1098,72.609 84.5,73.5C 81.6915,73.6933 79.0248,74.36 76.5,75.5C 76.5,76.8333 76.5,78.1667 76.5,79.5C 78.1667,79.5 79.8333,79.5 81.5,79.5C 81.3404,81.153 80.6737,82.4863 79.5,83.5C 78.8478,82.2749 77.6811,81.6083 76,81.5C 74.3189,81.6083 73.1522,82.2749 72.5,83.5C 71.1667,83.5 70.5,82.8333 70.5,81.5C 70.5,79.5 70.5,77.5 70.5,75.5C 72.929,74.7352 74.2623,73.0685 74.5,70.5C 75.1667,69.1667 75.8333,67.8333 76.5,66.5C 78.0109,65.4975 79.6776,64.8308 81.5,64.5 Z"/></g>
<g><path style="opacity:1" fill="#efefef" d="M 70.5,75.5 C 70.5,77.5 70.5,79.5 70.5,81.5C 68.1667,81.5 65.8333,81.5 63.5,81.5C 62.8166,79.8235 61.4832,79.1568 59.5,79.5C 59.5,78.1667 60.1667,77.5 61.5,77.5C 64.2691,77.1997 66.7691,76.1997 69,74.5C 69.7648,74.5699 70.2648,74.9033 70.5,75.5 Z"/></g>
<g><path style="opacity:1" fill="#e9e9e9" d="M 84.5,73.5 C 83.5,75.5 82.5,77.5 81.5,79.5C 79.8333,79.5 78.1667,79.5 76.5,79.5C 76.5,78.1667 76.5,76.8333 76.5,75.5C 79.0248,74.36 81.6915,73.6933 84.5,73.5 Z"/></g>
<g><path style="opacity:1" fill="#d5d5d5" d="M 59.5,72.5 C 61.256,73.5521 61.9227,75.2188 61.5,77.5C 60.1667,77.5 59.5,78.1667 59.5,79.5C 57.8333,79.5 56.1667,79.5 54.5,79.5C 54.5,81.1667 54.5,82.8333 54.5,84.5C 52.9853,82.7926 51.652,80.7926 50.5,78.5C 52.3316,77.9432 53.6649,76.9432 54.5,75.5C 56.1992,75.6602 57.8659,75.4935 59.5,75C 60.5981,74.2303 60.5981,73.397 59.5,72.5 Z"/></g>
<g><path style="opacity:1" fill="#e0e0e0" d="M 49.5,73.5 C 51.1667,74.1667 52.8333,74.8333 54.5,75.5C 53.6649,76.9432 52.3316,77.9432 50.5,78.5C 51.652,80.7926 52.9853,82.7926 54.5,84.5C 52.6283,86.0615 50.2949,87.0615 47.5,87.5C 46.3881,88.2652 45.7214,89.2652 45.5,90.5C 44.5,90.5 43.5,90.5 42.5,90.5C 44.5571,84.7192 46.8904,79.0526 49.5,73.5 Z"/></g>
<g><path style="opacity:1" fill="#bcbcbc" d="M 59.5,79.5 C 61.4832,79.1568 62.8166,79.8235 63.5,81.5C 65.2646,82.4614 67.2646,82.7947 69.5,82.5C 69.6495,83.552 69.4828,84.552 69,85.5C 68.2904,84.0267 67.1238,83.3601 65.5,83.5C 65.5,85.1667 65.5,86.8333 65.5,88.5C 64.1667,88.5 62.8333,88.5 61.5,88.5C 61.5,86.1667 61.5,83.8333 61.5,81.5C 58.7438,81.7162 56.4105,82.7162 54.5,84.5C 54.5,82.8333 54.5,81.1667 54.5,79.5C 56.1667,79.5 57.8333,79.5 59.5,79.5 Z"/></g>
<g><path style="opacity:0.943" fill="#efefef" d="M 79.5,83.5 C 79.4431,84.609 79.1098,85.609 78.5,86.5C 76.5,86.5 74.5,86.5 72.5,86.5C 72.5,85.5 72.5,84.5 72.5,83.5C 73.1522,82.2749 74.3189,81.6083 76,81.5C 77.6811,81.6083 78.8478,82.2749 79.5,83.5 Z"/></g>
<g><path style="opacity:1" fill="#cdcdcd" d="M 61.5,88.5 C 61.5,89.8333 61.5,91.1667 61.5,92.5C 59.2627,91.551 56.9294,90.8844 54.5,90.5C 54.0296,89.3065 53.0296,88.6399 51.5,88.5C 49.4649,89.2043 47.4649,89.871 45.5,90.5C 45.7214,89.2652 46.3881,88.2652 47.5,87.5C 50.2949,87.0615 52.6283,86.0615 54.5,84.5C 56.4105,82.7162 58.7438,81.7162 61.5,81.5C 61.5,83.8333 61.5,86.1667 61.5,88.5 Z"/></g>
<g><path style="opacity:1" fill="#cccccc" d="M 63.5,81.5 C 65.8333,81.5 68.1667,81.5 70.5,81.5C 70.5,82.8333 71.1667,83.5 72.5,83.5C 72.5,84.5 72.5,85.5 72.5,86.5C 72.5,87.8333 72.5,89.1667 72.5,90.5C 71.1667,90.5 69.8333,90.5 68.5,90.5C 66.334,93.0401 65.334,92.3734 65.5,88.5C 65.5,86.8333 65.5,85.1667 65.5,83.5C 67.1238,83.3601 68.2904,84.0267 69,85.5C 69.4828,84.552 69.6495,83.552 69.5,82.5C 67.2646,82.7947 65.2646,82.4614 63.5,81.5 Z"/></g>
<g><path style="opacity:1" fill="#dedede" d="M 54.5,90.5 C 52.7758,92.852 50.4424,94.5187 47.5,95.5C 46.4625,94.0697 45.7959,92.403 45.5,90.5C 47.4649,89.871 49.4649,89.2043 51.5,88.5C 53.0296,88.6399 54.0296,89.3065 54.5,90.5 Z"/></g>
<g><path style="opacity:1" fill="#dedede" d="M 72.5,86.5 C 74.5,86.5 76.5,86.5 78.5,86.5C 77.4031,89.6865 76.0697,92.6865 74.5,95.5C 73.032,94.2209 72.3653,92.5542 72.5,90.5C 72.5,89.1667 72.5,87.8333 72.5,86.5 Z"/></g>
<g><path style="opacity:1" fill="#eaeaea" d="M 54.5,90.5 C 56.9294,90.8844 59.2627,91.551 61.5,92.5C 61.5,93.5 61.5,94.5 61.5,95.5C 57.9878,94.9455 54.9878,95.6122 52.5,97.5C 50.8333,97.5 49.1667,97.5 47.5,97.5C 47.5,96.8333 47.5,96.1667 47.5,95.5C 50.4424,94.5187 52.7758,92.852 54.5,90.5 Z"/></g>
<g><path style="opacity:1" fill="#d3d3d3" d="M 61.5,88.5 C 62.8333,88.5 64.1667,88.5 65.5,88.5C 65.334,92.3734 66.334,93.0401 68.5,90.5C 69.5025,92.0109 70.1692,93.6776 70.5,95.5C 68.2627,94.551 65.9294,93.8844 63.5,93.5C 62.8333,95.5 62.1667,97.5 61.5,99.5C 59.857,99.5198 58.5237,98.8532 57.5,97.5C 56.9432,99.3316 55.9432,100.665 54.5,101.5C 54.5,100.833 54.5,100.167 54.5,99.5C 54.5,98.1667 53.8333,97.5 52.5,97.5C 54.9878,95.6122 57.9878,94.9455 61.5,95.5C 61.5,94.5 61.5,93.5 61.5,92.5C 61.5,91.1667 61.5,89.8333 61.5,88.5 Z"/></g>
<g><path style="opacity:1" fill="#e8e8e8" d="M 68.5,90.5 C 69.8333,90.5 71.1667,90.5 72.5,90.5C 72.3653,92.5542 73.032,94.2209 74.5,95.5C 74.3404,97.153 73.6737,98.4863 72.5,99.5C 71.4855,98.2353 69.9855,97.5687 68,97.5C 65.6591,97.8295 63.4924,98.4962 61.5,99.5C 62.1667,97.5 62.8333,95.5 63.5,93.5C 65.9294,93.8844 68.2627,94.551 70.5,95.5C 70.1692,93.6776 69.5025,92.0109 68.5,90.5 Z"/></g>
<g><path style="opacity:0.923" fill="#d4d4d4" d="M 42.5,90.5 C 43.5,90.5 44.5,90.5 45.5,90.5C 45.7959,92.403 46.4625,94.0697 47.5,95.5C 47.5,96.1667 47.5,96.8333 47.5,97.5C 42.1667,98.1667 42.1667,98.8333 47.5,99.5C 47.5,101.167 47.5,102.833 47.5,104.5C 46.1667,104.5 45.5,103.833 45.5,102.5C 43.0521,101.527 40.3854,101.194 37.5,101.5C 38.6027,97.503 40.2694,93.8363 42.5,90.5 Z"/></g>
<g><path style="opacity:1" fill="#dfdfdf" d="M 47.5,97.5 C 49.1667,97.5 50.8333,97.5 52.5,97.5C 53.8333,97.5 54.5,98.1667 54.5,99.5C 53.1667,100.167 51.8333,100.833 50.5,101.5C 49.7784,101.082 49.2784,100.416 49,99.5C 48.8019,101.382 48.3019,103.048 47.5,104.5C 47.5,102.833 47.5,101.167 47.5,99.5C 42.1667,98.8333 42.1667,98.1667 47.5,97.5 Z"/></g>
<g><path style="opacity:1" fill="#cacaca" d="M 72.5,99.5 C 72.7373,100.791 72.404,101.791 71.5,102.5C 69.7354,101.539 67.7354,101.205 65.5,101.5C 65.7148,103.179 65.0481,104.179 63.5,104.5C 62.032,103.221 61.3653,101.554 61.5,99.5C 63.4924,98.4962 65.6591,97.8295 68,97.5C 69.9855,97.5687 71.4855,98.2353 72.5,99.5 Z"/></g>
<g><path style="opacity:1" fill="#ececec" d="M 50.5,101.5 C 51.4736,103.48 52.807,105.147 54.5,106.5C 52.8235,107.183 52.1568,108.517 52.5,110.5C 52.6309,111.376 52.2975,112.043 51.5,112.5C 50.5713,111.311 50.238,109.978 50.5,108.5C 49.5,108.5 48.5,108.5 47.5,108.5C 47.3862,110.718 46.7196,112.718 45.5,114.5C 45.5,114.833 45.5,115.167 45.5,115.5C 44.8333,115.5 44.1667,115.5 43.5,115.5C 41.5853,115.784 39.9187,115.451 38.5,114.5C 38.8212,112.952 39.8212,112.285 41.5,112.5C 43.0348,111.156 44.3681,109.489 45.5,107.5C 44.3112,106.571 42.9778,106.238 41.5,106.5C 41.4877,103.858 42.821,102.525 45.5,102.5C 45.5,103.833 46.1667,104.5 47.5,104.5C 48.3019,103.048 48.8019,101.382 49,99.5C 49.2784,100.416 49.7784,101.082 50.5,101.5 Z"/></g>
<g><path style="opacity:1" fill="#e4e4e4" d="M 61.5,99.5 C 61.3653,101.554 62.032,103.221 63.5,104.5C 59.8413,104.851 56.8413,103.851 54.5,101.5C 55.9432,100.665 56.9432,99.3316 57.5,97.5C 58.5237,98.8532 59.857,99.5198 61.5,99.5 Z"/></g>
<g><path style="opacity:1" fill="#dcdcdc" d="M 37.5,101.5 C 40.3854,101.194 43.0521,101.527 45.5,102.5C 42.821,102.525 41.4877,103.858 41.5,106.5C 42.9778,106.238 44.3112,106.571 45.5,107.5C 44.3681,109.489 43.0348,111.156 41.5,112.5C 41.5,111.167 41.5,109.833 41.5,108.5C 38.9242,108.532 36.5909,107.865 34.5,106.5C 35.2632,104.632 36.2632,102.965 37.5,101.5 Z"/></g>
<g><path style="opacity:1" fill="#f3f3f3" d="M 54.5,99.5 C 54.5,100.167 54.5,100.833 54.5,101.5C 56.8413,103.851 59.8413,104.851 63.5,104.5C 64.7966,106.798 66.4632,108.798 68.5,110.5C 68.0679,111.71 67.4013,112.71 66.5,113.5C 63.4596,112.122 61.4596,109.788 60.5,106.5C 59.7836,107.311 58.9503,107.978 58,108.5C 56.9231,107.571 55.7564,106.904 54.5,106.5C 52.807,105.147 51.4736,103.48 50.5,101.5C 51.8333,100.833 53.1667,100.167 54.5,99.5 Z"/></g>
<g><path style="opacity:0.958" fill="#dbdbdb" d="M 71.5,102.5 C 70.5,105.167 69.5,107.833 68.5,110.5C 66.4632,108.798 64.7966,106.798 63.5,104.5C 65.0481,104.179 65.7148,103.179 65.5,101.5C 67.7354,101.205 69.7354,101.539 71.5,102.5 Z"/></g>
<g><path style="opacity:1" fill="#f1f1f1" d="M 34.5,106.5 C 36.5909,107.865 38.9242,108.532 41.5,108.5C 41.5,109.833 41.5,111.167 41.5,112.5C 39.8212,112.285 38.8212,112.952 38.5,114.5C 37.325,114.719 36.325,114.386 35.5,113.5C 34.6518,111.591 34.3184,109.591 34.5,107.5C 34.5,107.167 34.5,106.833 34.5,106.5 Z"/></g>
<g><path style="opacity:1" fill="#e2e2e2" d="M 52.5,110.5 C 55.4772,111.776 58.4772,112.776 61.5,113.5C 58.6122,112.99 56.2789,113.656 54.5,115.5C 53.1667,114.833 51.8333,114.167 50.5,113.5C 48.7839,113.629 47.1172,113.962 45.5,114.5C 46.7196,112.718 47.3862,110.718 47.5,108.5C 48.5,108.5 49.5,108.5 50.5,108.5C 50.238,109.978 50.5713,111.311 51.5,112.5C 52.2975,112.043 52.6309,111.376 52.5,110.5 Z"/></g>
<g><path style="opacity:1" fill="#cfcfcf" d="M 54.5,106.5 C 55.7564,106.904 56.9231,107.571 58,108.5C 58.9503,107.978 59.7836,107.311 60.5,106.5C 61.4596,109.788 63.4596,112.122 66.5,113.5C 66.1667,114.833 65.8333,116.167 65.5,117.5C 63.5,116.833 62.1667,115.5 61.5,113.5C 58.4772,112.776 55.4772,111.776 52.5,110.5C 52.1568,108.517 52.8235,107.183 54.5,106.5 Z"/></g>
<g><path style="opacity:1" fill="#eeeeee" d="M 34.5,107.5 C 34.3184,109.591 34.6518,111.591 35.5,113.5C 36.325,114.386 37.325,114.719 38.5,114.5C 39.9187,115.451 41.5853,115.784 43.5,115.5C 43.5,116.833 42.8333,117.5 41.5,117.5C 37.5,117.5 33.5,117.5 29.5,117.5C 31.1993,114.101 32.866,110.768 34.5,107.5 Z"/></g>
<g><path style="opacity:1" fill="#d1d1d1" d="M 50.5,113.5 C 50.5987,116.237 50.2653,118.904 49.5,121.5C 48.8333,122.167 48.1667,122.833 47.5,123.5C 46.8592,122.518 46.1925,121.518 45.5,120.5C 46.1667,119.833 46.8333,119.167 47.5,118.5C 46.3881,117.735 45.7214,116.735 45.5,115.5C 45.5,115.167 45.5,114.833 45.5,114.5C 47.1172,113.962 48.7839,113.629 50.5,113.5 Z"/></g>
<g><path style="opacity:1" fill="#eeeeee" d="M 61.5,113.5 C 62.1667,115.5 63.5,116.833 65.5,117.5C 64.8333,118.833 64.1667,120.167 63.5,121.5C 60.4359,121.928 57.4359,122.594 54.5,123.5C 54.5,122.833 54.5,122.167 54.5,121.5C 54.7214,120.265 55.3881,119.265 56.5,118.5C 55.3881,117.735 54.7214,116.735 54.5,115.5C 56.2789,113.656 58.6122,112.99 61.5,113.5 Z"/></g>
<g><path style="opacity:1" fill="#e1e1e1" d="M 50.5,113.5 C 51.8333,114.167 53.1667,114.833 54.5,115.5C 54.7214,116.735 55.3881,117.735 56.5,118.5C 55.3881,119.265 54.7214,120.265 54.5,121.5C 52.8333,121.5 51.1667,121.5 49.5,121.5C 50.2653,118.904 50.5987,116.237 50.5,113.5 Z"/></g>
<g><path style="opacity:1" fill="#cecece" d="M 29.5,117.5 C 33.5,117.5 37.5,117.5 41.5,117.5C 41.7214,118.735 42.3881,119.735 43.5,120.5C 43.0431,121.298 42.3764,121.631 41.5,121.5C 39.302,121.12 37.6354,121.787 36.5,123.5C 35.5178,124.141 34.5178,124.807 33.5,125.5C 32.5522,122.285 31.2189,121.952 29.5,124.5C 28.8182,123.757 28.1515,123.091 27.5,122.5C 28.1667,120.833 28.8333,119.167 29.5,117.5 Z"/></g>
<g><path style="opacity:1" fill="#d9d9d9" d="M 43.5,115.5 C 44.1667,115.5 44.8333,115.5 45.5,115.5C 45.7214,116.735 46.3881,117.735 47.5,118.5C 46.8333,119.167 46.1667,119.833 45.5,120.5C 46.1925,121.518 46.8592,122.518 47.5,123.5C 45.5168,123.157 44.1834,123.824 43.5,125.5C 41.8235,124.817 41.1568,123.483 41.5,121.5C 42.3764,121.631 43.0431,121.298 43.5,120.5C 42.3881,119.735 41.7214,118.735 41.5,117.5C 42.8333,117.5 43.5,116.833 43.5,115.5 Z"/></g>
<g><path style="opacity:1" fill="#bfbfbf" d="M 49.5,121.5 C 51.1667,121.5 52.8333,121.5 54.5,121.5C 54.5,122.167 54.5,122.833 54.5,123.5C 56.2419,126.145 56.9086,129.145 56.5,132.5C 54.8235,131.817 54.1568,130.483 54.5,128.5C 52.1667,128.5 49.8333,128.5 47.5,128.5C 46.1667,128.5 44.8333,128.5 43.5,128.5C 43.5,127.5 43.5,126.5 43.5,125.5C 44.1834,123.824 45.5168,123.157 47.5,123.5C 48.1667,122.833 48.8333,122.167 49.5,121.5 Z"/></g>
<g><path style="opacity:1" fill="#d9d9d9" d="M 27.5,122.5 C 28.1515,123.091 28.8182,123.757 29.5,124.5C 31.2189,121.952 32.5522,122.285 33.5,125.5C 34.5178,124.807 35.5178,124.141 36.5,123.5C 39.9308,125.348 41.5975,128.348 41.5,132.5C 38.4359,132.072 35.4359,131.406 32.5,130.5C 32.8432,128.517 32.1765,127.183 30.5,126.5C 29.791,125.596 28.791,125.263 27.5,125.5C 27.5,126.5 27.5,127.5 27.5,128.5C 26.5,128.5 25.5,128.5 24.5,128.5C 25.5,126.5 26.5,124.5 27.5,122.5 Z"/></g>
<g><path style="opacity:1" fill="#c7c7c7" d="M 63.5,121.5 C 61.4056,126.685 59.0722,131.685 56.5,136.5C 56.0742,135.472 56.0742,134.139 56.5,132.5C 56.9086,129.145 56.2419,126.145 54.5,123.5C 57.4359,122.594 60.4359,121.928 63.5,121.5 Z"/></g>
<g><path style="opacity:1" fill="#e4e4e4" d="M 41.5,121.5 C 41.1568,123.483 41.8235,124.817 43.5,125.5C 43.5,126.5 43.5,127.5 43.5,128.5C 44.8333,128.5 46.1667,128.5 47.5,128.5C 48.6782,129.999 50.3449,130.999 52.5,131.5C 51.3112,132.429 49.9778,132.762 48.5,132.5C 47.5,132.5 46.5,132.5 45.5,132.5C 46.0144,134.698 47.0144,136.698 48.5,138.5C 48.3764,139.107 48.0431,139.44 47.5,139.5C 46.8333,139.5 46.1667,139.5 45.5,139.5C 44.1667,137.167 42.8333,134.833 41.5,132.5C 41.5975,128.348 39.9308,125.348 36.5,123.5C 37.6354,121.787 39.302,121.12 41.5,121.5 Z"/></g>
<g><path style="opacity:1" fill="#e1e1e1" d="M 30.5,126.5 C 30.9688,129.339 30.9688,132.005 30.5,134.5C 29.0222,134.762 27.6888,134.429 26.5,133.5C 27.0253,132.808 27.6919,132.308 28.5,132C 27.0953,130.731 25.4286,130.231 23.5,130.5C 23.8333,129.833 24.1667,129.167 24.5,128.5C 25.5,128.5 26.5,128.5 27.5,128.5C 27.5,127.5 27.5,126.5 27.5,125.5C 28.791,125.263 29.791,125.596 30.5,126.5 Z"/></g>
<g><path style="opacity:0.943" fill="#d0d0d0" d="M 23.5,130.5 C 25.4286,130.231 27.0953,130.731 28.5,132C 27.6919,132.308 27.0253,132.808 26.5,133.5C 27.6888,134.429 29.0222,134.762 30.5,134.5C 32.4352,133.85 34.4352,133.517 36.5,133.5C 36.5,134.833 36.5,136.167 36.5,137.5C 35.1667,137.5 33.8333,137.5 32.5,137.5C 32.5,138.833 32.5,140.167 32.5,141.5C 29.4359,141.072 26.4359,140.406 23.5,139.5C 23.8432,137.517 23.1765,136.183 21.5,135.5C 22.4408,133.95 23.1075,132.284 23.5,130.5 Z"/></g>
<g><path style="opacity:1" fill="#cfcfcf" d="M 30.5,126.5 C 32.1765,127.183 32.8432,128.517 32.5,130.5C 35.4359,131.406 38.4359,132.072 41.5,132.5C 42.8333,134.833 44.1667,137.167 45.5,139.5C 43.8235,140.183 43.1568,141.517 43.5,143.5C 41.5393,142.54 39.8726,141.207 38.5,139.5C 37.8333,138.833 37.1667,138.167 36.5,137.5C 36.5,136.167 36.5,134.833 36.5,133.5C 34.4352,133.517 32.4352,133.85 30.5,134.5C 30.9688,132.005 30.9688,129.339 30.5,126.5 Z"/></g>
<g><path style="opacity:1" fill="#e4e4e4" d="M 47.5,128.5 C 49.8333,128.5 52.1667,128.5 54.5,128.5C 54.1568,130.483 54.8235,131.817 56.5,132.5C 56.0742,134.139 56.0742,135.472 56.5,136.5C 55.9579,139.912 54.6246,142.912 52.5,145.5C 52.857,140.582 51.5237,136.249 48.5,132.5C 49.9778,132.762 51.3112,132.429 52.5,131.5C 50.3449,130.999 48.6782,129.999 47.5,128.5 Z"/></g>
<g><path style="opacity:1" fill="#e3e3e3" d="M 45.5,139.5 C 46.1667,139.5 46.8333,139.5 47.5,139.5C 47.8212,141.048 48.8212,141.715 50.5,141.5C 50.5,142.5 50.5,143.5 50.5,144.5C 48.2188,144.077 46.5521,144.744 45.5,146.5C 41.6266,146.666 40.9599,145.666 43.5,143.5C 43.1568,141.517 43.8235,140.183 45.5,139.5 Z"/></g>
<g><path style="opacity:1" fill="#e5e5e5" d="M 21.5,135.5 C 23.1765,136.183 23.8432,137.517 23.5,139.5C 26.4359,140.406 29.4359,141.072 32.5,141.5C 31.0484,142.302 29.3817,142.802 27.5,143C 28.7375,143.232 29.7375,143.732 30.5,144.5C 28.0971,144.448 25.7638,144.781 23.5,145.5C 23.646,142.446 22.3126,140.446 19.5,139.5C 20.1667,138.167 20.8333,136.833 21.5,135.5 Z"/></g>
<g><path style="opacity:1" fill="#d1d1d1" d="M 48.5,132.5 C 51.5237,136.249 52.857,140.582 52.5,145.5C 52.2927,148.241 51.2927,150.574 49.5,152.5C 47.8664,151.419 46.533,150.085 45.5,148.5C 45.5,147.833 45.5,147.167 45.5,146.5C 46.5521,144.744 48.2188,144.077 50.5,144.5C 50.5,143.5 50.5,142.5 50.5,141.5C 48.8212,141.715 47.8212,141.048 47.5,139.5C 48.0431,139.44 48.3764,139.107 48.5,138.5C 47.0144,136.698 46.0144,134.698 45.5,132.5C 46.5,132.5 47.5,132.5 48.5,132.5 Z"/></g>
<g><path style="opacity:1" fill="#ececec" d="M 36.5,137.5 C 37.1667,138.167 37.8333,138.833 38.5,139.5C 38.33,140.822 38.6634,141.989 39.5,143C 38.552,143.483 37.552,143.649 36.5,143.5C 36.2852,145.179 36.9519,146.179 38.5,146.5C 37.0821,148.308 35.0821,148.975 32.5,148.5C 32.2671,146.938 31.6005,145.605 30.5,144.5C 29.7375,143.732 28.7375,143.232 27.5,143C 29.3817,142.802 31.0484,142.302 32.5,141.5C 32.5,140.167 32.5,138.833 32.5,137.5C 33.8333,137.5 35.1667,137.5 36.5,137.5 Z"/></g>
<g><path style="opacity:1" fill="#dfdfdf" d="M 30.5,144.5 C 31.6005,145.605 32.2671,146.938 32.5,148.5C 32.38,149.586 31.7133,150.253 30.5,150.5C 29.2613,150.058 28.2613,149.391 27.5,148.5C 25.8784,147.878 24.5451,146.878 23.5,145.5C 25.7638,144.781 28.0971,144.448 30.5,144.5 Z"/></g>
<g><path style="opacity:0.813" fill="#dddddd" d="M 18.5,142.5 C 19.8174,144.287 19.484,145.954 17.5,147.5C 18.8333,148.167 20.1667,148.833 21.5,149.5C 22.6319,151.489 23.9652,153.156 25.5,154.5C 30.193,152.64 35.193,151.974 40.5,152.5C 40.5,153.5 40.5,154.5 40.5,155.5C 31.1429,155.832 21.8096,155.498 12.5,154.5C 14.5459,150.408 16.5459,146.408 18.5,142.5 Z"/></g>
<g><path style="opacity:1" fill="#d3d3d3" d="M 38.5,139.5 C 39.8726,141.207 41.5393,142.54 43.5,143.5C 40.9599,145.666 41.6266,146.666 45.5,146.5C 45.5,147.167 45.5,147.833 45.5,148.5C 43.5168,148.157 42.1834,148.824 41.5,150.5C 40.0221,149.552 39.0221,148.219 38.5,146.5C 36.9519,146.179 36.2852,145.179 36.5,143.5C 37.552,143.649 38.552,143.483 39.5,143C 38.6634,141.989 38.33,140.822 38.5,139.5 Z"/></g>
<g><path style="opacity:1" fill="#cecece" d="M 19.5,139.5 C 22.3126,140.446 23.646,142.446 23.5,145.5C 24.5451,146.878 25.8784,147.878 27.5,148.5C 26.2804,150.282 25.6138,152.282 25.5,154.5C 23.9652,153.156 22.6319,151.489 21.5,149.5C 20.1667,148.833 18.8333,148.167 17.5,147.5C 19.484,145.954 19.8174,144.287 18.5,142.5C 18.5569,141.391 18.8902,140.391 19.5,139.5 Z"/></g>
<g><path style="opacity:1" fill="#d8d8d8" d="M 38.5,146.5 C 39.0221,148.219 40.0221,149.552 41.5,150.5C 42.5025,152.011 43.1692,153.678 43.5,155.5C 42.5,155.5 41.5,155.5 40.5,155.5C 40.5,154.5 40.5,153.5 40.5,152.5C 35.193,151.974 30.193,152.64 25.5,154.5C 25.6138,152.282 26.2804,150.282 27.5,148.5C 28.2613,149.391 29.2613,150.058 30.5,150.5C 31.7133,150.253 32.38,149.586 32.5,148.5C 35.0821,148.975 37.0821,148.308 38.5,146.5 Z"/></g>
<g><path style="opacity:1" fill="#f1f1f1" d="M 45.5,148.5 C 46.533,150.085 47.8664,151.419 49.5,152.5C 49.5,153.5 49.5,154.5 49.5,155.5C 47.5,155.5 45.5,155.5 43.5,155.5C 43.1692,153.678 42.5025,152.011 41.5,150.5C 42.1834,148.824 43.5168,148.157 45.5,148.5 Z"/></g>
</svg>
