<?xml version="1.0" encoding="UTF-8"?>
<!DOCTYPE svg PUBLIC "-//W3C//DTD SVG 1.1//EN" "http://www.w3.org/Graphics/SVG/1.1/DTD/svg11.dtd">
<svg xmlns="http://www.w3.org/2000/svg" version="1.1" width="104px" height="180px" style="shape-rendering:geometricPrecision; text-rendering:geometricPrecision; image-rendering:optimizeQuality; fill-rule:evenodd; clip-rule:evenodd" xmlns:xlink="http://www.w3.org/1999/xlink">
<g><path style="opacity:0.7" fill="#e3e3e3" d="M 70.5,17.5 C 74.1667,17.5 77.8333,17.5 81.5,17.5C 81.5,18.8333 81.5,20.1667 81.5,21.5C 80.2436,21.0962 79.0769,20.4295 78,19.5C 77.5,19.8333 77,20.1667 76.5,20.5C 79.0182,22.1557 79.0182,23.4891 76.5,24.5C 75.032,23.2209 74.3653,21.5542 74.5,19.5C 72.5168,19.8432 71.1834,19.1765 70.5,17.5 Z"/></g>
<g><path style="opacity:0.917" fill="#dcdcdc" d="M 61.5,18.5 C 63.2646,19.4614 65.2646,19.7947 67.5,19.5C 67.5,20.5 67.5,21.5 67.5,22.5C 68.552,22.3505 69.552,22.5172 70.5,23C 68.8659,23.4935 67.1992,23.6602 65.5,23.5C 65.5,24.5 65.5,25.5 65.5,26.5C 68.3356,27.7755 71.3356,28.4422 74.5,28.5C 74.5,29.8333 74.5,31.1667 74.5,32.5C 77.0758,32.4679 79.4091,33.1346 81.5,34.5C 81.5,34.8333 81.5,35.1667 81.5,35.5C 79.857,35.5198 78.5237,34.8532 77.5,33.5C 76.8933,33.6236 76.56,33.9569 76.5,34.5C 74.5168,34.8432 73.1834,34.1765 72.5,32.5C 71.4479,30.744 69.7812,30.0773 67.5,30.5C 66.8166,28.8235 65.4832,28.1568 63.5,28.5C 62.8166,26.8235 61.4832,26.1568 59.5,26.5C 58.6343,24.1728 57.6343,21.8395 56.5,19.5C 58.1172,18.962 59.7839,18.6287 61.5,18.5 Z"/></g>
<g><path style="opacity:1" fill="#d0d0d0" d="M 81.5,21.5 C 81.5,23.1667 81.5,24.8333 81.5,26.5C 79.8333,26.5 78.1667,26.5 76.5,26.5C 76.5,25.8333 76.5,25.1667 76.5,24.5C 79.0182,23.4891 79.0182,22.1557 76.5,20.5C 77,20.1667 77.5,19.8333 78,19.5C 79.0769,20.4295 80.2436,21.0962 81.5,21.5 Z"/></g>
<g><path style="opacity:1" fill="#c5c5c5" d="M 70.5,17.5 C 71.1834,19.1765 72.5168,19.8432 74.5,19.5C 74.3653,21.5542 75.032,23.2209 76.5,24.5C 76.5,25.1667 76.5,25.8333 76.5,26.5C 75.1667,26.5 74.5,27.1667 74.5,28.5C 71.3356,28.4422 68.3356,27.7755 65.5,26.5C 65.5,25.5 65.5,24.5 65.5,23.5C 67.1992,23.6602 68.8659,23.4935 70.5,23C 69.552,22.5172 68.552,22.3505 67.5,22.5C 67.5,21.5 67.5,20.5 67.5,19.5C 65.2646,19.7947 63.2646,19.4614 61.5,18.5C 64.5176,18.2962 67.5176,17.9629 70.5,17.5 Z"/></g>
<g><path style="opacity:1" fill="#e3e3e3" d="M 50.5,21.5 C 52.8273,21.2471 54.8273,21.9137 56.5,23.5C 53.8434,24.2592 51.1767,24.9258 48.5,25.5C 47.6143,24.675 47.281,23.675 47.5,22.5C 48.209,21.596 49.209,21.2627 50.5,21.5 Z"/></g>
<g><path style="opacity:1" fill="#d4d4d4" d="M 56.5,19.5 C 57.6343,21.8395 58.6343,24.1728 59.5,26.5C 59.5,27.8333 60.1667,28.5 61.5,28.5C 61.5,29.8333 60.8333,30.5 59.5,30.5C 58.7784,30.0825 58.2784,29.4158 58,28.5C 57.7216,29.4158 57.2216,30.0825 56.5,30.5C 55.8166,28.8235 54.4832,28.1568 52.5,28.5C 51.8333,28.5 51.1667,28.5 50.5,28.5C 48.7211,26.6565 46.3878,25.9898 43.5,26.5C 43.5,25.5 43.5,24.5 43.5,23.5C 44.8333,23.1667 46.1667,22.8333 47.5,22.5C 47.281,23.675 47.6143,24.675 48.5,25.5C 51.1767,24.9258 53.8434,24.2592 56.5,23.5C 54.8273,21.9137 52.8273,21.2471 50.5,21.5C 52.3024,20.5418 54.3024,19.8751 56.5,19.5 Z"/></g>
<g><path style="opacity:1" fill="#b4b4b4" d="M 59.5,26.5 C 61.4832,26.1568 62.8166,26.8235 63.5,28.5C 62.8333,28.5 62.1667,28.5 61.5,28.5C 60.1667,28.5 59.5,27.8333 59.5,26.5 Z"/></g>
<g><path style="opacity:1" fill="#e5e5e5" d="M 76.5,26.5 C 78.1667,26.5 79.8333,26.5 81.5,26.5C 81.5,27.1667 81.5,27.8333 81.5,28.5C 80.2436,28.9038 79.0769,29.5705 78,30.5C 76.9231,29.5705 75.7564,28.9038 74.5,28.5C 74.5,27.1667 75.1667,26.5 76.5,26.5 Z"/></g>
<g><path style="opacity:1" fill="#c9c9c9" d="M 43.5,23.5 C 43.5,24.5 43.5,25.5 43.5,26.5C 46.3878,25.9898 48.7211,26.6565 50.5,28.5C 48.8333,28.5 47.1667,28.5 45.5,28.5C 45.5,29.8333 45.5,31.1667 45.5,32.5C 44.8333,32.5 44.1667,32.5 43.5,32.5C 41.8333,32.5 40.1667,32.5 38.5,32.5C 38.5,31.1667 38.5,29.8333 38.5,28.5C 42.0048,28.3059 42.3382,27.3059 39.5,25.5C 40.8333,24.8333 42.1667,24.1667 43.5,23.5 Z"/></g>
<g><path style="opacity:1" fill="#dfdfdf" d="M 50.5,28.5 C 51.1667,28.5 51.8333,28.5 52.5,28.5C 50.9562,31.248 50.2895,34.248 50.5,37.5C 49.1001,36.9002 48.1001,35.9002 47.5,34.5C 47.5,33.1667 46.8333,32.5 45.5,32.5C 45.5,31.1667 45.5,29.8333 45.5,28.5C 47.1667,28.5 48.8333,28.5 50.5,28.5 Z"/></g>
<g><path style="opacity:1" fill="#bcbcbc" d="M 63.5,28.5 C 65.4832,28.1568 66.8166,28.8235 67.5,30.5C 65.5168,30.8432 64.1834,30.1765 63.5,28.5 Z"/></g>
<g><path style="opacity:0.906" fill="#f2f2f2" d="M 74.5,28.5 C 75.7564,28.9038 76.9231,29.5705 78,30.5C 79.0769,29.5705 80.2436,28.9038 81.5,28.5C 81.5,30.5 81.5,32.5 81.5,34.5C 79.4091,33.1346 77.0758,32.4679 74.5,32.5C 74.5,31.1667 74.5,29.8333 74.5,28.5 Z"/></g>
<g><path style="opacity:0.969" fill="#d8d8d8" d="M 39.5,25.5 C 42.3382,27.3059 42.0048,28.3059 38.5,28.5C 38.5,29.8333 38.5,31.1667 38.5,32.5C 40.1667,32.5 41.8333,32.5 43.5,32.5C 43.8308,34.3224 44.4975,35.9891 45.5,37.5C 45.5,38.1667 45.5,38.8333 45.5,39.5C 44.8333,39.5 44.1667,39.5 43.5,39.5C 42.2562,36.4574 39.9229,35.124 36.5,35.5C 36.5,34.5 36.5,33.5 36.5,32.5C 32.6266,32.334 31.9599,33.334 34.5,35.5C 32.8333,35.5 31.1667,35.5 29.5,35.5C 29.5,34.5 29.5,33.5 29.5,32.5C 32.7959,30.1792 36.1292,27.8458 39.5,25.5 Z"/></g>
<g><path style="opacity:1" fill="#bfbfbf" d="M 67.5,30.5 C 69.7812,30.0773 71.4479,30.744 72.5,32.5C 70.2188,32.9227 68.5521,32.256 67.5,30.5 Z"/></g>
<g><path style="opacity:1" fill="#cacaca" d="M 52.5,28.5 C 54.4832,28.1568 55.8166,28.8235 56.5,30.5C 53.9321,32.0274 52.5988,34.3607 52.5,37.5C 53.8333,37.5 55.1667,37.5 56.5,37.5C 56.5,38.1667 56.5,38.8333 56.5,39.5C 53.9179,39.9746 51.9179,39.3079 50.5,37.5C 50.2895,34.248 50.9562,31.248 52.5,28.5 Z"/></g>
<g><path style="opacity:1" fill="#dfdfdf" d="M 59.5,30.5 C 60.8062,31.4674 61.4729,32.8007 61.5,34.5C 59.1523,34.5923 57.4856,35.5923 56.5,37.5C 55.1667,37.5 53.8333,37.5 52.5,37.5C 52.5988,34.3607 53.9321,32.0274 56.5,30.5C 57.2216,30.0825 57.7216,29.4158 58,28.5C 58.2784,29.4158 58.7784,30.0825 59.5,30.5 Z"/></g>
<g><path style="opacity:1" fill="#c0c0c0" d="M 43.5,39.5 C 43.6309,40.3764 43.2975,41.0431 42.5,41.5C 41.1186,40.1186 39.7853,38.7853 38.5,37.5C 36.5168,37.8432 35.1834,37.1765 34.5,35.5C 31.9599,33.334 32.6266,32.334 36.5,32.5C 36.5,33.5 36.5,34.5 36.5,35.5C 39.9229,35.124 42.2562,36.4574 43.5,39.5 Z"/></g>
<g><path style="opacity:1" fill="#adadad" d="M 43.5,32.5 C 44.1667,32.5 44.8333,32.5 45.5,32.5C 46.8333,32.5 47.5,33.1667 47.5,34.5C 47.7148,36.1788 47.0481,37.1788 45.5,37.5C 44.4975,35.9891 43.8308,34.3224 43.5,32.5 Z"/></g>
<g><path style="opacity:1" fill="#dbdbdb" d="M 61.5,28.5 C 62.1667,28.5 62.8333,28.5 63.5,28.5C 64.1834,30.1765 65.5168,30.8432 67.5,30.5C 68.5521,32.256 70.2188,32.9227 72.5,32.5C 73.1834,34.1765 74.5168,34.8432 76.5,34.5C 75.8333,35.1667 75.1667,35.8333 74.5,36.5C 72.2362,35.7814 69.9029,35.448 67.5,35.5C 66.2652,35.2786 65.2652,34.6119 64.5,33.5C 63.5832,34.1272 62.5832,34.4606 61.5,34.5C 61.4729,32.8007 60.8062,31.4674 59.5,30.5C 60.8333,30.5 61.5,29.8333 61.5,28.5 Z"/></g>
<g><path style="opacity:1" fill="#e9e9e9" d="M 29.5,32.5 C 29.5,33.5 29.5,34.5 29.5,35.5C 31.1667,35.5 32.8333,35.5 34.5,35.5C 35.1834,37.1765 36.5168,37.8432 38.5,37.5C 38.5,38.1667 38.5,38.8333 38.5,39.5C 37.1667,39.5 35.8333,39.5 34.5,39.5C 34.8224,43.439 33.489,44.2723 30.5,42C 29.7454,38.7934 27.7454,37.2934 24.5,37.5C 25.8333,35.5 27.5,33.8333 29.5,32.5 Z"/></g>
<g><path style="opacity:1" fill="#afafaf" d="M 67.5,35.5 C 68.4663,37.0568 69.7996,38.3901 71.5,39.5C 72.4287,40.6888 72.762,42.0222 72.5,43.5C 71.8333,43.5 71.1667,43.5 70.5,43.5C 68.9891,42.4975 67.3224,41.8308 65.5,41.5C 65.38,40.4138 64.7133,39.7472 63.5,39.5C 62.2867,39.7472 61.62,40.4138 61.5,41.5C 61.1667,41.5 60.8333,41.5 60.5,41.5C 59.8166,39.8235 58.4832,39.1568 56.5,39.5C 56.5,38.8333 56.5,38.1667 56.5,37.5C 57.4856,35.5923 59.1523,34.5923 61.5,34.5C 62.5832,34.4606 63.5832,34.1272 64.5,33.5C 65.2652,34.6119 66.2652,35.2786 67.5,35.5 Z"/></g>
<g><path style="opacity:1" fill="#d3d3d3" d="M 67.5,35.5 C 69.9029,35.448 72.2362,35.7814 74.5,36.5C 74.2852,38.1788 74.9519,39.1788 76.5,39.5C 76.5,40.1667 76.5,40.8333 76.5,41.5C 76.9175,42.2216 77.5842,42.7216 78.5,43C 76.5273,43.4955 74.5273,43.6621 72.5,43.5C 72.762,42.0222 72.4287,40.6888 71.5,39.5C 69.7996,38.3901 68.4663,37.0568 67.5,35.5 Z"/></g>
<g><path style="opacity:1" fill="#cdcdcd" d="M 47.5,34.5 C 48.1001,35.9002 49.1001,36.9002 50.5,37.5C 51.9179,39.3079 53.9179,39.9746 56.5,39.5C 58.4832,39.1568 59.8166,39.8235 60.5,41.5C 56.8844,39.5564 54.8844,40.5564 54.5,44.5C 54.38,45.5862 53.7133,46.2528 52.5,46.5C 50.9436,45.4529 49.2769,44.7863 47.5,44.5C 47.9227,42.2188 47.256,40.5521 45.5,39.5C 45.5,38.8333 45.5,38.1667 45.5,37.5C 47.0481,37.1788 47.7148,36.1788 47.5,34.5 Z"/></g>
<g><path style="opacity:1" fill="#929292" d="M 76.5,39.5 C 79.1667,40.1667 79.1667,40.8333 76.5,41.5C 76.5,40.8333 76.5,40.1667 76.5,39.5 Z"/></g>
<g><path style="opacity:1" fill="#898989" d="M 65.5,41.5 C 64.1667,41.5 62.8333,41.5 61.5,41.5C 61.62,40.4138 62.2867,39.7472 63.5,39.5C 64.7133,39.7472 65.38,40.4138 65.5,41.5 Z"/></g>
<g><path style="opacity:1" fill="#dedede" d="M 38.5,37.5 C 39.7853,38.7853 41.1186,40.1186 42.5,41.5C 43.2975,41.0431 43.6309,40.3764 43.5,39.5C 44.1667,39.5 44.8333,39.5 45.5,39.5C 45.6347,41.5542 44.968,43.2209 43.5,44.5C 43.3285,46.4918 43.9951,48.1585 45.5,49.5C 44.8333,49.8333 44.1667,50.1667 43.5,50.5C 42.1331,49.7745 40.7997,49.1079 39.5,48.5C 39.1788,46.9519 38.1788,46.2852 36.5,46.5C 36.8844,44.0706 37.551,41.7373 38.5,39.5C 38.5,38.8333 38.5,38.1667 38.5,37.5 Z"/></g>
<g><path style="opacity:1" fill="#dcdcdc" d="M 60.5,41.5 C 60.8333,41.5 61.1667,41.5 61.5,41.5C 62.8333,41.5 64.1667,41.5 65.5,41.5C 67.3224,41.8308 68.9891,42.4975 70.5,43.5C 71.5511,44.2223 72.2178,45.2223 72.5,46.5C 71.4324,47.4345 70.099,47.7678 68.5,47.5C 69.5624,46.4246 69.5624,45.4246 68.5,44.5C 66.9291,45.3094 65.2624,45.6427 63.5,45.5C 63.719,44.325 63.3857,43.325 62.5,42.5C 62.1667,43.1667 61.8333,43.8333 61.5,44.5C 62.2255,45.8669 62.8921,47.2003 63.5,48.5C 62.1667,48.8333 60.8333,49.1667 59.5,49.5C 58.791,48.596 57.791,48.2627 56.5,48.5C 56.8432,46.5168 56.1765,45.1834 54.5,44.5C 54.8844,40.5564 56.8844,39.5564 60.5,41.5 Z"/></g>
<g><path style="opacity:0.922" fill="#bebebe" d="M 81.5,35.5 C 81.5,39.1667 81.5,42.8333 81.5,46.5C 78.5,46.5 75.5,46.5 72.5,46.5C 72.2178,45.2223 71.5511,44.2223 70.5,43.5C 71.1667,43.5 71.8333,43.5 72.5,43.5C 74.5273,43.6621 76.5273,43.4955 78.5,43C 77.5842,42.7216 76.9175,42.2216 76.5,41.5C 79.1667,40.8333 79.1667,40.1667 76.5,39.5C 74.9519,39.1788 74.2852,38.1788 74.5,36.5C 75.1667,35.8333 75.8333,35.1667 76.5,34.5C 76.56,33.9569 76.8933,33.6236 77.5,33.5C 78.5237,34.8532 79.857,35.5198 81.5,35.5 Z"/></g>
<g><path style="opacity:1" fill="#cdcdcd" d="M 24.5,37.5 C 27.7454,37.2934 29.7454,38.7934 30.5,42C 33.489,44.2723 34.8224,43.439 34.5,39.5C 35.8333,39.5 37.1667,39.5 38.5,39.5C 37.551,41.7373 36.8844,44.0706 36.5,46.5C 38.1788,46.2852 39.1788,46.9519 39.5,48.5C 39.1788,50.0481 38.1788,50.7148 36.5,50.5C 35.8779,48.5443 34.5446,47.211 32.5,46.5C 30.9436,47.5471 29.2769,48.2137 27.5,48.5C 27.9227,46.2188 27.256,44.5521 25.5,43.5C 25.6347,41.4458 24.968,39.7791 23.5,38.5C 23.5,37.8333 23.8333,37.5 24.5,37.5 Z"/></g>
<g><path style="opacity:1" fill="#e3e3e3" d="M 23.5,38.5 C 24.968,39.7791 25.6347,41.4458 25.5,43.5C 23.9519,43.8212 23.2852,44.8212 23.5,46.5C 21.5168,46.1568 20.1834,46.8235 19.5,48.5C 18.5,48.5 17.5,48.5 16.5,48.5C 16.1667,48.5 15.8333,48.5 15.5,48.5C 17.697,44.7623 20.3637,41.429 23.5,38.5 Z"/></g>
<g><path style="opacity:1" fill="#dcdcdc" d="M 25.5,43.5 C 27.256,44.5521 27.9227,46.2188 27.5,48.5C 27.5,49.1667 27.5,49.8333 27.5,50.5C 24.8333,49.8333 22.1667,49.1667 19.5,48.5C 20.1834,46.8235 21.5168,46.1568 23.5,46.5C 23.2852,44.8212 23.9519,43.8212 25.5,43.5 Z"/></g>
<g><path style="opacity:1" fill="#d2d2d2" d="M 45.5,39.5 C 47.256,40.5521 47.9227,42.2188 47.5,44.5C 49.2769,44.7863 50.9436,45.4529 52.5,46.5C 53.7133,46.2528 54.38,45.5862 54.5,44.5C 56.1765,45.1834 56.8432,46.5168 56.5,48.5C 57.791,48.2627 58.791,48.596 59.5,49.5C 57.9505,50.4408 56.2838,51.1075 54.5,51.5C 52.3366,50.2555 50.0033,49.2555 47.5,48.5C 47.8333,45.5 46.5,44.1667 43.5,44.5C 44.968,43.2209 45.6347,41.5542 45.5,39.5 Z"/></g>
<g><path style="opacity:1" fill="#f1f1f1" d="M 68.5,47.5 C 66.7839,47.6287 65.1172,47.962 63.5,48.5C 62.8921,47.2003 62.2255,45.8669 61.5,44.5C 61.8333,43.8333 62.1667,43.1667 62.5,42.5C 63.3857,43.325 63.719,44.325 63.5,45.5C 65.2624,45.6427 66.9291,45.3094 68.5,44.5C 69.5624,45.4246 69.5624,46.4246 68.5,47.5 Z"/></g>
<g><path style="opacity:1" fill="#cdcdcd" d="M 43.5,44.5 C 46.5,44.1667 47.8333,45.5 47.5,48.5C 47.5,49.8333 47.5,51.1667 47.5,52.5C 45.396,52.2011 43.396,52.5344 41.5,53.5C 43.6415,54.9518 45.9748,55.9518 48.5,56.5C 47.1667,58.5 45.5,60.1667 43.5,61.5C 42.2223,61.2178 41.2223,60.5511 40.5,59.5C 40.2786,58.2652 39.6119,57.2652 38.5,56.5C 39.3256,55.549 39.4922,54.549 39,53.5C 37.4905,52.9103 35.9905,52.2436 34.5,51.5C 34.9569,50.7025 35.6236,50.3691 36.5,50.5C 38.1788,50.7148 39.1788,50.0481 39.5,48.5C 40.7997,49.1079 42.1331,49.7745 43.5,50.5C 44.1667,50.1667 44.8333,49.8333 45.5,49.5C 43.9951,48.1585 43.3285,46.4918 43.5,44.5 Z"/></g>
<g><path style="opacity:1" fill="#dcdcdc" d="M 15.5,48.5 C 15.8333,48.5 16.1667,48.5 16.5,48.5C 16.7214,49.7348 17.3881,50.7348 18.5,51.5C 20.2914,52.1698 21.9581,52.8365 23.5,53.5C 21.8008,53.3398 20.1341,53.5065 18.5,54C 18.8333,54.3333 19.1667,54.6667 19.5,55C 17.9837,56.897 17.317,59.0637 17.5,61.5C 16.5655,60.4324 16.2322,59.099 16.5,57.5C 15.1667,56.5 13.8333,55.5 12.5,54.5C 12.9752,52.2163 13.9752,50.2163 15.5,48.5 Z"/></g>
<g><path style="opacity:1" fill="#bebebe" d="M 16.5,48.5 C 17.5,48.5 18.5,48.5 19.5,48.5C 22.1667,49.1667 24.8333,49.8333 27.5,50.5C 29.7267,52.2287 30.7267,54.562 30.5,57.5C 28.8333,57.5 27.1667,57.5 25.5,57.5C 25.8432,55.5168 25.1765,54.1834 23.5,53.5C 21.9581,52.8365 20.2914,52.1698 18.5,51.5C 17.3881,50.7348 16.7214,49.7348 16.5,48.5 Z"/></g>
<g><path style="opacity:1" fill="#e0e0e0" d="M 36.5,50.5 C 35.6236,50.3691 34.9569,50.7025 34.5,51.5C 35.9905,52.2436 37.4905,52.9103 39,53.5C 39.4922,54.549 39.3256,55.549 38.5,56.5C 39.6119,57.2652 40.2786,58.2652 40.5,59.5C 37.342,58.1242 34.0087,57.4576 30.5,57.5C 30.7267,54.562 29.7267,52.2287 27.5,50.5C 27.5,49.8333 27.5,49.1667 27.5,48.5C 29.2769,48.2137 30.9436,47.5471 32.5,46.5C 34.5446,47.211 35.8779,48.5443 36.5,50.5 Z"/></g>
<g><path style="opacity:0.953" fill="#e7e7e7" d="M 47.5,48.5 C 50.0033,49.2555 52.3366,50.2555 54.5,51.5C 52.5248,53.137 50.5248,54.8036 48.5,56.5C 45.9748,55.9518 43.6415,54.9518 41.5,53.5C 43.396,52.5344 45.396,52.2011 47.5,52.5C 47.5,51.1667 47.5,49.8333 47.5,48.5 Z"/></g>
<g><path style="opacity:1" fill="#e2e2e2" d="M 23.5,53.5 C 25.1765,54.1834 25.8432,55.5168 25.5,57.5C 25.6309,58.3764 25.2975,59.0431 24.5,59.5C 23.065,57.5989 21.3983,57.2655 19.5,58.5C 20.6119,59.2652 21.2786,60.2652 21.5,61.5C 21.5386,62.7562 21.0386,63.7562 20,64.5C 19.3021,63.3094 18.4687,62.3094 17.5,61.5C 17.317,59.0637 17.9837,56.897 19.5,55C 19.1667,54.6667 18.8333,54.3333 18.5,54C 20.1341,53.5065 21.8008,53.3398 23.5,53.5 Z"/></g>
<g><path style="opacity:1" fill="#cfcfcf" d="M 25.5,57.5 C 27.1667,57.5 28.8333,57.5 30.5,57.5C 32.5,58.8333 34.5,60.1667 36.5,61.5C 33.9179,61.0254 31.9179,61.6921 30.5,63.5C 29.8333,63.5 29.1667,63.5 28.5,63.5C 26.7211,61.6565 24.3878,60.9898 21.5,61.5C 21.2786,60.2652 20.6119,59.2652 19.5,58.5C 21.3983,57.2655 23.065,57.5989 24.5,59.5C 25.2975,59.0431 25.6309,58.3764 25.5,57.5 Z"/></g>
<g><path style="opacity:0.796" fill="#d5d5d5" d="M 10.5,59.5 C 11.3764,59.3691 12.0431,59.7025 12.5,60.5C 11.5853,61.3279 10.9186,62.3279 10.5,63.5C 11.5471,65.0564 12.2137,66.7231 12.5,68.5C 11.8333,68.5 11.1667,68.5 10.5,68.5C 9.83333,69.1667 9.16667,69.8333 8.5,70.5C 7.83333,69.8333 7.16667,69.1667 6.5,68.5C 7.46175,65.2609 8.79508,62.2609 10.5,59.5 Z"/></g>
<g><path style="opacity:1" fill="#e5e5e5" d="M 36.5,61.5 C 36.5,64.5 36.5,67.5 36.5,70.5C 36.5106,72.0174 37.1772,73.1841 38.5,74C 37.4366,75.1882 36.1033,75.6882 34.5,75.5C 34.719,74.325 34.3857,73.325 33.5,72.5C 32.7348,73.6119 31.7348,74.2786 30.5,74.5C 30.5,73.8333 30.5,73.1667 30.5,72.5C 31.1834,70.8235 32.5168,70.1568 34.5,70.5C 34.5,69.1667 34.5,67.8333 34.5,66.5C 32.396,66.7989 30.396,66.4656 28.5,65.5C 29.2427,64.8182 29.9094,64.1515 30.5,63.5C 31.9179,61.6921 33.9179,61.0254 36.5,61.5 Z"/></g>
<g><path style="opacity:1" fill="#e2e2e2" d="M 12.5,54.5 C 13.8333,55.5 15.1667,56.5 16.5,57.5C 15.3065,57.9704 14.6399,58.9704 14.5,60.5C 15.2043,62.5351 15.871,64.5351 16.5,66.5C 15.8166,68.1765 14.4832,68.8432 12.5,68.5C 12.2137,66.7231 11.5471,65.0564 10.5,63.5C 10.9186,62.3279 11.5853,61.3279 12.5,60.5C 12.0431,59.7025 11.3764,59.3691 10.5,59.5C 10.4021,57.4471 11.0687,55.7804 12.5,54.5 Z"/></g>
<g><path style="opacity:0.833" fill="#e4e4e4" d="M 30.5,57.5 C 34.0087,57.4576 37.342,58.1242 40.5,59.5C 41.2223,60.5511 42.2223,61.2178 43.5,61.5C 43.5858,62.4959 43.2524,63.3292 42.5,64C 43.448,64.4828 44.448,64.6495 45.5,64.5C 44.8166,66.1765 43.4832,66.8432 41.5,66.5C 40.7611,66.631 40.0944,66.4643 39.5,66C 39.0853,63.9737 38.0853,62.4737 36.5,61.5C 34.5,60.1667 32.5,58.8333 30.5,57.5 Z"/></g>
<g><path style="opacity:1" fill="#bababa" d="M 63.5,61.5 C 64.9587,61.4326 66.2921,61.7659 67.5,62.5C 67.5,63.8333 66.8333,64.5 65.5,64.5C 64.4489,63.7777 63.7822,62.7777 63.5,61.5 Z"/></g>
<g><path style="opacity:1" fill="#d2d2d2" d="M 16.5,57.5 C 16.2322,59.099 16.5655,60.4324 17.5,61.5C 18.4687,62.3094 19.3021,63.3094 20,64.5C 21.0386,63.7562 21.5386,62.7562 21.5,61.5C 24.3878,60.9898 26.7211,61.6565 28.5,63.5C 25.1031,62.8878 23.4364,64.5545 23.5,68.5C 21.8333,68.5 20.1667,68.5 18.5,68.5C 18.5,67.1667 17.8333,66.5 16.5,66.5C 15.871,64.5351 15.2043,62.5351 14.5,60.5C 14.6399,58.9704 15.3065,57.9704 16.5,57.5 Z"/></g>
<g><path style="opacity:1" fill="#dfdfdf" d="M 67.5,62.5 C 69.2915,62.366 70.9582,62.6993 72.5,63.5C 72.5,63.8333 72.5,64.1667 72.5,64.5C 70.6921,65.9179 70.0254,67.9179 70.5,70.5C 69.5,70.5 68.5,70.5 67.5,70.5C 66.2804,68.7179 65.6138,66.7179 65.5,64.5C 66.8333,64.5 67.5,63.8333 67.5,62.5 Z"/></g>
<g><path style="opacity:1" fill="#f1f1f1" d="M 47.5,63.5 C 47.5,64.5 47.5,65.5 47.5,66.5C 48.675,66.281 49.675,66.6143 50.5,67.5C 48.3449,68.0014 46.6782,69.0014 45.5,70.5C 44.1667,70.5 42.8333,70.5 41.5,70.5C 41.5,69.1667 41.5,67.8333 41.5,66.5C 43.4832,66.8432 44.8166,66.1765 45.5,64.5C 45.8417,63.6618 46.5084,63.3284 47.5,63.5 Z"/></g>
<g><path style="opacity:0.777" fill="#d7d7d7" d="M 72.5,63.5 C 77.5752,64.6023 81.9086,66.9356 85.5,70.5C 84.0222,70.238 82.6888,70.5713 81.5,71.5C 83.1673,72.6664 84.834,72.6664 86.5,71.5C 87.1667,71.5 87.5,71.8333 87.5,72.5C 86.8333,72.8333 86.1667,73.1667 85.5,73.5C 83.5,73.5 81.5,73.5 79.5,73.5C 78.8501,73.8039 78.1835,74.1373 77.5,74.5C 76.9432,72.6684 75.9432,71.3351 74.5,70.5C 74.7214,69.2652 75.3881,68.2652 76.5,67.5C 74.6684,66.9432 73.3351,65.9432 72.5,64.5C 72.5,64.1667 72.5,63.8333 72.5,63.5 Z"/></g>
<g><path style="opacity:1" fill="#e9e9e9" d="M 16.5,66.5 C 17.8333,66.5 18.5,67.1667 18.5,68.5C 18.6715,70.4918 18.0049,72.1585 16.5,73.5C 17.325,74.3857 18.325,74.719 19.5,74.5C 19.5,74.8333 19.5,75.1667 19.5,75.5C 18.7611,75.369 18.0944,75.5357 17.5,76C 19.0764,77.73 20.4097,79.5633 21.5,81.5C 21.6309,82.3764 21.2975,83.0431 20.5,83.5C 19.8182,82.7573 19.1515,82.0906 18.5,81.5C 16.5,81.5 14.5,81.5 12.5,81.5C 12.5,80.8333 12.5,80.1667 12.5,79.5C 13.3764,79.6309 14.0431,79.2975 14.5,78.5C 9.30595,77.1695 9.30595,75.6695 14.5,74C 11.5744,73.313 10.2411,71.4797 10.5,68.5C 11.1667,68.5 11.8333,68.5 12.5,68.5C 14.4832,68.8432 15.8166,68.1765 16.5,66.5 Z"/></g>
<g><path style="opacity:1" fill="#cbcbcb" d="M 61.5,61.5 C 62.3725,65.1211 63.0392,68.7878 63.5,72.5C 62.8333,72.5 62.1667,72.5 61.5,72.5C 60.8333,72.5 60.1667,72.5 59.5,72.5C 59.5,70.5 59.5,68.5 59.5,66.5C 55.753,66.6076 52.0863,66.1076 48.5,65C 50.437,64.8784 51.7703,64.045 52.5,62.5C 55.3915,61.5975 58.3915,61.2641 61.5,61.5 Z"/></g>
<g><path style="opacity:1" fill="#f0f0f0" d="M 72.5,64.5 C 73.3351,65.9432 74.6684,66.9432 76.5,67.5C 75.3881,68.2652 74.7214,69.2652 74.5,70.5C 73.1667,70.5 71.8333,70.5 70.5,70.5C 70.0254,67.9179 70.6921,65.9179 72.5,64.5 Z"/></g>
<g><path style="opacity:1" fill="#dddddd" d="M 28.5,63.5 C 29.1667,63.5 29.8333,63.5 30.5,63.5C 29.9094,64.1515 29.2427,64.8182 28.5,65.5C 30.396,66.4656 32.396,66.7989 34.5,66.5C 34.5,67.8333 34.5,69.1667 34.5,70.5C 32.5168,70.1568 31.1834,70.8235 30.5,72.5C 29.1779,72.67 28.0113,72.3366 27,71.5C 26.7216,72.4158 26.2216,73.0825 25.5,73.5C 25.9227,71.2188 25.256,69.5521 23.5,68.5C 23.4364,64.5545 25.1031,62.8878 28.5,63.5 Z"/></g>
<g><path style="opacity:1" fill="#dcdcdc" d="M 52.5,62.5 C 51.7703,64.045 50.437,64.8784 48.5,65C 52.0863,66.1076 55.753,66.6076 59.5,66.5C 59.5,68.5 59.5,70.5 59.5,72.5C 56.5342,72.8897 53.8676,72.223 51.5,70.5C 50.4777,70.8555 49.811,71.5222 49.5,72.5C 47.5168,72.8432 46.1834,72.1765 45.5,70.5C 46.6782,69.0014 48.3449,68.0014 50.5,67.5C 49.675,66.6143 48.675,66.281 47.5,66.5C 47.5,65.5 47.5,64.5 47.5,63.5C 49.0418,62.6993 50.7085,62.366 52.5,62.5 Z"/></g>
<g><path style="opacity:0.906" fill="#f3f3f3" d="M 6.5,68.5 C 7.16667,69.1667 7.83333,69.8333 8.5,70.5C 8.5,71.8333 8.5,73.1667 8.5,74.5C 7.5,74.5 6.5,74.5 5.5,74.5C 5.83333,72.5 6.16667,70.5 6.5,68.5 Z"/></g>
<g><path style="opacity:1" fill="#e8e8e8" d="M 61.5,61.5 C 62.1667,61.5 62.8333,61.5 63.5,61.5C 63.7822,62.7777 64.4489,63.7777 65.5,64.5C 65.6138,66.7179 66.2804,68.7179 67.5,70.5C 66.8166,72.1765 65.4832,72.8432 63.5,72.5C 63.0392,68.7878 62.3725,65.1211 61.5,61.5 Z"/></g>
<g><path style="opacity:1" fill="#f2f2f2" d="M 36.5,70.5 C 38.6636,70.7215 40.3303,71.7215 41.5,73.5C 40.7888,75.0301 39.7888,76.3634 38.5,77.5C 37.1667,77.5 35.8333,77.5 34.5,77.5C 34.5,76.8333 34.5,76.1667 34.5,75.5C 36.1033,75.6882 37.4366,75.1882 38.5,74C 37.1772,73.1841 36.5106,72.0174 36.5,70.5 Z"/></g>
<g><path style="opacity:1" fill="#bababa" d="M 85.5,70.5 C 86.1667,70.5 86.5,70.8333 86.5,71.5C 84.834,72.6664 83.1673,72.6664 81.5,71.5C 82.6888,70.5713 84.0222,70.238 85.5,70.5 Z"/></g>
<g><path style="opacity:1" fill="#dcdcdc" d="M 10.5,68.5 C 10.2411,71.4797 11.5744,73.313 14.5,74C 9.30595,75.6695 9.30595,77.1695 14.5,78.5C 14.0431,79.2975 13.3764,79.6309 12.5,79.5C 11.5,79.5 10.5,79.5 9.5,79.5C 8.81658,77.8235 7.48324,77.1568 5.5,77.5C 5.5,76.5 5.5,75.5 5.5,74.5C 6.5,74.5 7.5,74.5 8.5,74.5C 8.5,73.1667 8.5,71.8333 8.5,70.5C 9.16667,69.8333 9.83333,69.1667 10.5,68.5 Z"/></g>
<g><path style="opacity:1" fill="#ebebeb" d="M 18.5,68.5 C 20.1667,68.5 21.8333,68.5 23.5,68.5C 25.256,69.5521 25.9227,71.2188 25.5,73.5C 25.6309,74.3764 25.2975,75.0431 24.5,75.5C 23.1667,74.8333 21.8333,74.1667 20.5,73.5C 19.8933,73.6236 19.56,73.9569 19.5,74.5C 18.325,74.719 17.325,74.3857 16.5,73.5C 18.0049,72.1585 18.6715,70.4918 18.5,68.5 Z"/></g>
<g><path style="opacity:1" fill="#d2d2d2" d="M 36.5,61.5 C 38.0853,62.4737 39.0853,63.9737 39.5,66C 40.0944,66.4643 40.7611,66.631 41.5,66.5C 41.5,67.8333 41.5,69.1667 41.5,70.5C 42.8333,70.5 44.1667,70.5 45.5,70.5C 46.1834,72.1765 47.5168,72.8432 49.5,72.5C 50.1667,72.5 50.5,72.8333 50.5,73.5C 49.0753,75.2535 47.4086,76.9201 45.5,78.5C 46.6119,79.2652 47.2786,80.2652 47.5,81.5C 46.1667,81.5 44.8333,81.5 43.5,81.5C 44.0356,78.3019 43.369,75.6353 41.5,73.5C 40.3303,71.7215 38.6636,70.7215 36.5,70.5C 36.5,67.5 36.5,64.5 36.5,61.5 Z"/></g>
<g><path style="opacity:1" fill="#cdcdcd" d="M 67.5,70.5 C 68.5,70.5 69.5,70.5 70.5,70.5C 71.8333,70.5 73.1667,70.5 74.5,70.5C 74.2623,73.0685 72.929,74.7352 70.5,75.5C 70.2648,74.9033 69.7648,74.5699 69,74.5C 66.7691,76.1997 64.2691,77.1997 61.5,77.5C 61.5,75.8333 61.5,74.1667 61.5,72.5C 62.1667,72.5 62.8333,72.5 63.5,72.5C 65.4832,72.8432 66.8166,72.1765 67.5,70.5 Z"/></g>
<g><path style="opacity:1" fill="#d6d6d6" d="M 30.5,72.5 C 30.5,73.1667 30.5,73.8333 30.5,74.5C 29.9856,76.6984 28.9856,78.6984 27.5,80.5C 27.0431,81.2975 26.3764,81.6309 25.5,81.5C 25.5,80.1667 25.5,78.8333 25.5,77.5C 23.2821,77.3862 21.2821,76.7196 19.5,75.5C 19.5,75.1667 19.5,74.8333 19.5,74.5C 19.56,73.9569 19.8933,73.6236 20.5,73.5C 21.8333,74.1667 23.1667,74.8333 24.5,75.5C 25.2975,75.0431 25.6309,74.3764 25.5,73.5C 26.2216,73.0825 26.7216,72.4158 27,71.5C 28.0113,72.3366 29.1779,72.67 30.5,72.5 Z"/></g>
<g><path style="opacity:1" fill="#dfdfdf" d="M 50.5,73.5 C 51.6049,74.6005 52.9382,75.2671 54.5,75.5C 53.6649,76.9432 52.3316,77.9432 50.5,78.5C 52.0049,79.8415 52.6715,81.5082 52.5,83.5C 50.9891,82.4975 49.3224,81.8308 47.5,81.5C 47.2786,80.2652 46.6119,79.2652 45.5,78.5C 47.4086,76.9201 49.0753,75.2535 50.5,73.5 Z"/></g>
<g><path style="opacity:1" fill="#ededed" d="M 59.5,72.5 C 60.5981,73.397 60.5981,74.2303 59.5,75C 57.8659,75.4935 56.1992,75.6602 54.5,75.5C 52.9382,75.2671 51.6049,74.6005 50.5,73.5C 50.5,72.8333 50.1667,72.5 49.5,72.5C 49.811,71.5222 50.4777,70.8555 51.5,70.5C 53.8676,72.223 56.5342,72.8897 59.5,72.5 Z"/></g>
<g><path style="opacity:1" fill="#dddddd" d="M 74.5,70.5 C 75.9432,71.3351 76.9432,72.6684 77.5,74.5C 78.1835,74.1373 78.8501,73.8039 79.5,73.5C 77.8109,75.8534 75.4776,77.52 72.5,78.5C 74.396,79.4656 76.396,79.7989 78.5,79.5C 79.5,79.5 80.5,79.5 81.5,79.5C 81.666,83.3734 80.666,84.0401 78.5,81.5C 76.5,81.5 74.5,81.5 72.5,81.5C 72.5,82.5 72.5,83.5 72.5,84.5C 70.9519,84.1788 70.2852,83.1788 70.5,81.5C 70.5,79.5 70.5,77.5 70.5,75.5C 72.929,74.7352 74.2623,73.0685 74.5,70.5 Z"/></g>
<g><path style="opacity:1" fill="#efefef" d="M 70.5,75.5 C 70.5,77.5 70.5,79.5 70.5,81.5C 66.715,81.3689 63.0483,80.7022 59.5,79.5C 59.5,78.1667 60.1667,77.5 61.5,77.5C 64.2691,77.1997 66.7691,76.1997 69,74.5C 69.7648,74.5699 70.2648,74.9033 70.5,75.5 Z"/></g>
<g><path style="opacity:0.875" fill="#b4b4b4" d="M 88.5,73.5 C 89.9744,74.4363 90.9744,75.7697 91.5,77.5C 90.1667,77.5 88.8333,77.5 87.5,77.5C 87.2322,75.901 87.5655,74.5676 88.5,73.5 Z"/></g>
<g><path style="opacity:1" fill="#c8c8c8" d="M 19.5,75.5 C 21.2821,76.7196 23.2821,77.3862 25.5,77.5C 25.5,78.8333 25.5,80.1667 25.5,81.5C 24.1667,81.5 22.8333,81.5 21.5,81.5C 20.4097,79.5633 19.0764,77.73 17.5,76C 18.0944,75.5357 18.7611,75.369 19.5,75.5 Z"/></g>
<g><path style="opacity:1" fill="#dbdbdb" d="M 34.5,75.5 C 34.5,76.1667 34.5,76.8333 34.5,77.5C 32.8235,78.1834 32.1568,79.5168 32.5,81.5C 34.5,81.5 36.5,81.5 38.5,81.5C 37.7375,82.2679 36.7375,82.7679 35.5,83C 36.8333,83.3333 38.1667,83.6667 39.5,84C 37.8807,84.2355 36.8807,85.0689 36.5,86.5C 35.1667,86.5 33.8333,86.5 32.5,86.5C 32.5,85.5 32.5,84.5 32.5,83.5C 27.8592,84.1266 23.1925,84.4599 18.5,84.5C 18.5,83.5 18.5,82.5 18.5,81.5C 19.1515,82.0906 19.8182,82.7573 20.5,83.5C 21.2975,83.0431 21.6309,82.3764 21.5,81.5C 22.8333,81.5 24.1667,81.5 25.5,81.5C 26.3764,81.6309 27.0431,81.2975 27.5,80.5C 28.9856,78.6984 29.9856,76.6984 30.5,74.5C 31.7348,74.2786 32.7348,73.6119 33.5,72.5C 34.3857,73.325 34.719,74.325 34.5,75.5 Z"/></g>
<g><path style="opacity:1" fill="#c6c6c6" d="M 34.5,77.5 C 35.8333,77.5 37.1667,77.5 38.5,77.5C 39.4345,78.5676 39.7678,79.901 39.5,81.5C 39.1667,81.5 38.8333,81.5 38.5,81.5C 36.5,81.5 34.5,81.5 32.5,81.5C 32.1568,79.5168 32.8235,78.1834 34.5,77.5 Z"/></g>
<g><path style="opacity:1" fill="#dddddd" d="M 41.5,73.5 C 43.369,75.6353 44.0356,78.3019 43.5,81.5C 43.7822,82.7777 44.4489,83.7777 45.5,84.5C 44.1667,84.5 42.8333,84.5 41.5,84.5C 41.7148,82.8212 41.0481,81.8212 39.5,81.5C 39.7678,79.901 39.4345,78.5676 38.5,77.5C 39.7888,76.3634 40.7888,75.0301 41.5,73.5 Z"/></g>
<g><path style="opacity:1" fill="#d5d5d5" d="M 59.5,72.5 C 60.1667,72.5 60.8333,72.5 61.5,72.5C 61.5,74.1667 61.5,75.8333 61.5,77.5C 60.1667,77.5 59.5,78.1667 59.5,79.5C 58.5,79.5 57.5,79.5 56.5,79.5C 54.744,80.5521 54.0773,82.2188 54.5,84.5C 53.5084,84.6716 52.8417,84.3382 52.5,83.5C 52.6715,81.5082 52.0049,79.8415 50.5,78.5C 52.3316,77.9432 53.6649,76.9432 54.5,75.5C 56.1992,75.6602 57.8659,75.4935 59.5,75C 60.5981,74.2303 60.5981,73.397 59.5,72.5 Z"/></g>
<g><path style="opacity:1" fill="#eaeaea" d="M 79.5,73.5 C 81.5,73.5 83.5,73.5 85.5,73.5C 84.1938,74.4674 83.5271,75.8007 83.5,77.5C 81.2188,77.0773 79.5521,77.744 78.5,79.5C 76.396,79.7989 74.396,79.4656 72.5,78.5C 75.4776,77.52 77.8109,75.8534 79.5,73.5 Z"/></g>
<g><path style="opacity:1" fill="#e3e3e3" d="M 83.5,77.5 C 82.9644,80.6981 83.631,83.3647 85.5,85.5C 84.4489,86.2223 83.7822,87.2223 83.5,88.5C 80.4359,88.9275 77.4359,89.5942 74.5,90.5C 74.5,91.8333 74.5,93.1667 74.5,94.5C 72.8235,93.8166 72.1568,92.4832 72.5,90.5C 72.5,89.8333 72.5,89.1667 72.5,88.5C 72.5,87.1667 72.5,85.8333 72.5,84.5C 74.8695,84.8511 77.2028,85.0178 79.5,85C 78.6634,83.9887 78.33,82.8221 78.5,81.5C 80.666,84.0401 81.666,83.3734 81.5,79.5C 80.5,79.5 79.5,79.5 78.5,79.5C 79.5521,77.744 81.2188,77.0773 83.5,77.5 Z"/></g>
<g><path style="opacity:1" fill="#dedede" d="M 87.5,72.5 C 88.1667,72.5 88.5,72.8333 88.5,73.5C 87.5655,74.5676 87.2322,75.901 87.5,77.5C 86.6236,77.3691 85.9569,77.7025 85.5,78.5C 89.3354,79.9965 89.3354,80.9965 85.5,81.5C 85.5,82.8333 85.5,84.1667 85.5,85.5C 83.631,83.3647 82.9644,80.6981 83.5,77.5C 83.5271,75.8007 84.1938,74.4674 85.5,73.5C 86.1667,73.1667 86.8333,72.8333 87.5,72.5 Z"/></g>
<g><path style="opacity:0.78" fill="#e6e6e6" d="M 5.5,77.5 C 7.48324,77.1568 8.81658,77.8235 9.5,79.5C 8.02218,79.238 6.68884,79.5713 5.5,80.5C 7.74269,81.4742 10.076,81.8076 12.5,81.5C 12.5,81.8333 12.5,82.1667 12.5,82.5C 12.5,83.8333 12.5,85.1667 12.5,86.5C 11.1411,85.9935 10.1411,84.9935 9.5,83.5C 7.80137,84.8146 6.13471,84.8146 4.5,83.5C 4.20528,81.2646 4.53862,79.2646 5.5,77.5 Z"/></g>
<g><path style="opacity:1" fill="#c0c0c0" d="M 9.5,79.5 C 10.5,79.5 11.5,79.5 12.5,79.5C 12.5,80.1667 12.5,80.8333 12.5,81.5C 10.076,81.8076 7.74269,81.4742 5.5,80.5C 6.68884,79.5713 8.02218,79.238 9.5,79.5 Z"/></g>
<g><path style="opacity:1" fill="#e7e7e7" d="M 43.5,81.5 C 44.8333,81.5 46.1667,81.5 47.5,81.5C 49.3224,81.8308 50.9891,82.4975 52.5,83.5C 52.8417,84.3382 53.5084,84.6716 54.5,84.5C 54.5,85.1667 54.5,85.8333 54.5,86.5C 53.8333,86.5 53.1667,86.5 52.5,86.5C 49.9242,86.5321 47.5909,85.8654 45.5,84.5C 44.4489,83.7777 43.7822,82.7777 43.5,81.5 Z"/></g>
<g><path style="opacity:1" fill="#a4a4a4" d="M 56.5,79.5 C 56.9227,81.7812 56.256,83.4479 54.5,84.5C 54.0773,82.2188 54.744,80.5521 56.5,79.5 Z"/></g>
<g><path style="opacity:1" fill="#c5c5c5" d="M 56.5,79.5 C 57.5,79.5 58.5,79.5 59.5,79.5C 63.0483,80.7022 66.715,81.3689 70.5,81.5C 70.2852,83.1788 70.9519,84.1788 72.5,84.5C 72.5,85.8333 72.5,87.1667 72.5,88.5C 70.1667,87.1667 67.8333,85.8333 65.5,84.5C 65.5,85.8333 65.5,87.1667 65.5,88.5C 64.1667,88.5 62.8333,88.5 61.5,88.5C 61.7692,86.5714 61.2692,84.9047 60,83.5C 58.4941,85.1742 56.6607,86.1742 54.5,86.5C 54.5,85.8333 54.5,85.1667 54.5,84.5C 56.256,83.4479 56.9227,81.7812 56.5,79.5 Z"/></g>
<g><path style="opacity:1" fill="#f1f1f1" d="M 78.5,81.5 C 78.33,82.8221 78.6634,83.9887 79.5,85C 77.2028,85.0178 74.8695,84.8511 72.5,84.5C 72.5,83.5 72.5,82.5 72.5,81.5C 74.5,81.5 76.5,81.5 78.5,81.5 Z"/></g>
<g><path style="opacity:1" fill="#d8d8d8" d="M 61.5,88.5 C 58.6122,87.9898 56.2789,88.6565 54.5,90.5C 52.5,90.5 50.5,90.5 48.5,90.5C 49.8333,89.1667 51.1667,87.8333 52.5,86.5C 53.1667,86.5 53.8333,86.5 54.5,86.5C 56.6607,86.1742 58.4941,85.1742 60,83.5C 61.2692,84.9047 61.7692,86.5714 61.5,88.5 Z"/></g>
<g><path style="opacity:1" fill="#efefef" d="M 87.5,77.5 C 88.8333,77.5 90.1667,77.5 91.5,77.5C 92.9744,78.4363 93.9744,79.7697 94.5,81.5C 93.0222,81.238 91.6888,81.5713 90.5,82.5C 88.4411,83.9512 87.4411,85.9512 87.5,88.5C 88.5,88.5 89.5,88.5 90.5,88.5C 90.7214,89.7348 91.3881,90.7348 92.5,91.5C 91.7573,92.1818 91.0906,92.8485 90.5,93.5C 89.8501,93.8039 89.1835,94.1373 88.5,94.5C 87.7348,93.3881 86.7348,92.7214 85.5,92.5C 84.8333,92.5 84.1667,92.5 83.5,92.5C 83.5,91.1667 83.5,89.8333 83.5,88.5C 83.7822,87.2223 84.4489,86.2223 85.5,85.5C 85.5,84.1667 85.5,82.8333 85.5,81.5C 89.3354,80.9965 89.3354,79.9965 85.5,78.5C 85.9569,77.7025 86.6236,77.3691 87.5,77.5 Z"/></g>
<g><path style="opacity:1" fill="#e0e0e0" d="M 94.5,81.5 C 95.4408,83.0495 96.1075,84.7162 96.5,86.5C 95.2652,86.2786 94.2652,85.6119 93.5,84.5C 92.5713,85.6888 92.238,87.0222 92.5,88.5C 91.8333,88.5 91.1667,88.5 90.5,88.5C 89.5,88.5 88.5,88.5 87.5,88.5C 87.4411,85.9512 88.4411,83.9512 90.5,82.5C 91.6888,81.5713 93.0222,81.238 94.5,81.5 Z"/></g>
<g><path style="opacity:1" fill="#e0e0e0" d="M 38.5,81.5 C 38.8333,81.5 39.1667,81.5 39.5,81.5C 41.0481,81.8212 41.7148,82.8212 41.5,84.5C 41.5,85.8333 41.5,87.1667 41.5,88.5C 46.8333,89.1667 46.8333,89.8333 41.5,90.5C 41.5,91.5 41.5,92.5 41.5,93.5C 41.1667,94.5 40.5,95.1667 39.5,95.5C 38.5,95.5 37.5,95.5 36.5,95.5C 36.5,94.5 36.5,93.5 36.5,92.5C 38.0783,91.9344 39.4116,90.9344 40.5,89.5C 39.3112,88.5713 37.9778,88.238 36.5,88.5C 36.5,87.8333 36.5,87.1667 36.5,86.5C 36.8807,85.0689 37.8807,84.2355 39.5,84C 38.1667,83.6667 36.8333,83.3333 35.5,83C 36.7375,82.7679 37.7375,82.2679 38.5,81.5 Z"/></g>
<g><path style="opacity:1" fill="#dddddd" d="M 14.5,84.5 C 15.552,84.3505 16.552,84.5172 17.5,85C 16.0691,87.5385 16.7358,89.3718 19.5,90.5C 21.8912,89.8086 21.8912,88.8086 19.5,87.5C 23.7828,86.5078 28.1161,86.1744 32.5,86.5C 32.5,87.1667 32.5,87.8333 32.5,88.5C 32.5,89.8333 32.5,91.1667 32.5,92.5C 33.8333,92.5 35.1667,92.5 36.5,92.5C 36.5,93.5 36.5,94.5 36.5,95.5C 34.5,95.5 32.5,95.5 30.5,95.5C 30.5,94.5 30.5,93.5 30.5,92.5C 28.8333,92.5 27.1667,92.5 25.5,92.5C 25.762,91.0222 25.4287,89.6888 24.5,88.5C 23.9432,90.3316 22.9432,91.6649 21.5,92.5C 16.0167,92.6799 13.6834,90.0132 14.5,84.5 Z"/></g>
<g><path style="opacity:1" fill="#d0d0d0" d="M 72.5,88.5 C 72.5,89.1667 72.5,89.8333 72.5,90.5C 71.0222,90.238 69.6888,90.5713 68.5,91.5C 69.8532,92.5237 70.5198,93.857 70.5,95.5C 68.8212,95.7148 67.8212,95.0481 67.5,93.5C 66.032,92.2209 65.3653,90.5542 65.5,88.5C 65.5,87.1667 65.5,85.8333 65.5,84.5C 67.8333,85.8333 70.1667,87.1667 72.5,88.5 Z"/></g>
<g><path style="opacity:1" fill="#f6f6f6" d="M 32.5,86.5 C 33.8333,86.5 35.1667,86.5 36.5,86.5C 36.5,87.1667 36.5,87.8333 36.5,88.5C 35.1667,88.5 33.8333,88.5 32.5,88.5C 32.5,87.8333 32.5,87.1667 32.5,86.5 Z"/></g>
<g><path style="opacity:1" fill="#f3f3f3" d="M 96.5,86.5 C 97.1667,86.5 97.5,86.8333 97.5,87.5C 96.8423,88.3984 96.1757,89.3984 95.5,90.5C 94.7348,89.3881 93.7348,88.7214 92.5,88.5C 92.238,87.0222 92.5713,85.6888 93.5,84.5C 94.2652,85.6119 95.2652,86.2786 96.5,86.5 Z"/></g>
<g><path style="opacity:1" fill="#dcdcdc" d="M 4.5,83.5 C 6.13471,84.8146 7.80137,84.8146 9.5,83.5C 10.1411,84.9935 11.1411,85.9935 12.5,86.5C 12.2786,87.7348 11.6119,88.7348 10.5,89.5C 12.6904,91.0069 14.0238,93.0069 14.5,95.5C 13.1067,96.2598 11.6067,96.9265 10,97.5C 6.84564,96.5658 7.01231,95.8991 10.5,95.5C 10.5,94.5 10.5,93.5 10.5,92.5C 8.85703,92.5198 7.5237,91.8532 6.5,90.5C 5.73485,91.6119 4.73485,92.2786 3.5,92.5C 3.50795,89.4552 3.84128,86.4552 4.5,83.5 Z"/></g>
<g><path style="opacity:1" fill="#cacaca" d="M 12.5,82.5 C 12.5,82.1667 12.5,81.8333 12.5,81.5C 14.5,81.5 16.5,81.5 18.5,81.5C 18.5,82.5 18.5,83.5 18.5,84.5C 23.1925,84.4599 27.8592,84.1266 32.5,83.5C 32.5,84.5 32.5,85.5 32.5,86.5C 28.1161,86.1744 23.7828,86.5078 19.5,87.5C 21.8912,88.8086 21.8912,89.8086 19.5,90.5C 16.7358,89.3718 16.0691,87.5385 17.5,85C 16.552,84.5172 15.552,84.3505 14.5,84.5C 14.5,83.1667 13.8333,82.5 12.5,82.5 Z"/></g>
<g><path style="opacity:1" fill="#cccccc" d="M 32.5,88.5 C 33.8333,88.5 35.1667,88.5 36.5,88.5C 37.9778,88.238 39.3112,88.5713 40.5,89.5C 39.4116,90.9344 38.0783,91.9344 36.5,92.5C 35.1667,92.5 33.8333,92.5 32.5,92.5C 32.5,91.1667 32.5,89.8333 32.5,88.5 Z"/></g>
<g><path style="opacity:0.969" fill="#c6c6c6" d="M 61.5,88.5 C 61.5,90.1667 61.5,91.8333 61.5,93.5C 59.5395,91.6878 57.2061,90.6878 54.5,90.5C 56.2789,88.6565 58.6122,87.9898 61.5,88.5 Z"/></g>
<g><path style="opacity:1" fill="#d1d1d1" d="M 83.5,88.5 C 83.5,89.8333 83.5,91.1667 83.5,92.5C 82.1001,93.0998 81.1001,94.0998 80.5,95.5C 78.5168,95.1568 77.1834,95.8235 76.5,97.5C 76.5,98.8333 75.8333,99.5 74.5,99.5C 74.5,97.8333 74.5,96.1667 74.5,94.5C 74.5,93.1667 74.5,91.8333 74.5,90.5C 77.4359,89.5942 80.4359,88.9275 83.5,88.5 Z"/></g>
<g><path style="opacity:1" fill="#d9d9d9" d="M 97.5,87.5 C 98.3705,90.1123 99.0372,92.779 99.5,95.5C 98.5,95.5 97.5,95.5 96.5,95.5C 96.6309,96.3764 96.2975,97.0431 95.5,97.5C 94.5832,96.8728 93.5832,96.5394 92.5,96.5C 91.4489,95.7777 90.7822,94.7777 90.5,93.5C 91.0906,92.8485 91.7573,92.1818 92.5,91.5C 91.3881,90.7348 90.7214,89.7348 90.5,88.5C 91.1667,88.5 91.8333,88.5 92.5,88.5C 93.7348,88.7214 94.7348,89.3881 95.5,90.5C 96.1757,89.3984 96.8423,88.3984 97.5,87.5 Z"/></g>
<g><path style="opacity:1" fill="#cacaca" d="M 30.5,95.5 C 30.5299,96.4972 30.0299,97.1639 29,97.5C 27.4029,96.1153 25.5695,95.4486 23.5,95.5C 23.5,94.1667 22.8333,93.5 21.5,93.5C 21.5,93.1667 21.5,92.8333 21.5,92.5C 22.9432,91.6649 23.9432,90.3316 24.5,88.5C 25.4287,89.6888 25.762,91.0222 25.5,92.5C 27.1667,92.5 28.8333,92.5 30.5,92.5C 30.5,93.5 30.5,94.5 30.5,95.5 Z"/></g>
<g><path style="opacity:0.812" fill="#c9c9c9" d="M 41.5,84.5 C 42.8333,84.5 44.1667,84.5 45.5,84.5C 47.5909,85.8654 49.9242,86.5321 52.5,86.5C 51.1667,87.8333 49.8333,89.1667 48.5,90.5C 46.0202,91.242 43.6869,92.242 41.5,93.5C 41.5,92.5 41.5,91.5 41.5,90.5C 46.8333,89.8333 46.8333,89.1667 41.5,88.5C 41.5,87.1667 41.5,85.8333 41.5,84.5 Z"/></g>
<g><path style="opacity:1" fill="#c4c4c4" d="M 12.5,82.5 C 13.8333,82.5 14.5,83.1667 14.5,84.5C 13.6834,90.0132 16.0167,92.6799 21.5,92.5C 21.5,92.8333 21.5,93.1667 21.5,93.5C 20.5,93.5 19.5,93.5 18.5,93.5C 18.5,94.5 18.5,95.5 18.5,96.5C 17.1667,96.1667 15.8333,95.8333 14.5,95.5C 14.0238,93.0069 12.6904,91.0069 10.5,89.5C 11.6119,88.7348 12.2786,87.7348 12.5,86.5C 12.5,85.1667 12.5,83.8333 12.5,82.5 Z"/></g>
<g><path style="opacity:1" fill="#e9e9e9" d="M 72.5,90.5 C 72.1568,92.4832 72.8235,93.8166 74.5,94.5C 74.5,96.1667 74.5,97.8333 74.5,99.5C 71.752,97.9562 68.752,97.2895 65.5,97.5C 65.1568,95.5168 65.8235,94.1834 67.5,93.5C 67.8212,95.0481 68.8212,95.7148 70.5,95.5C 70.5198,93.857 69.8532,92.5237 68.5,91.5C 69.6888,90.5713 71.0222,90.238 72.5,90.5 Z"/></g>
<g><path style="opacity:1" fill="#b6b6b6" d="M 21.5,93.5 C 22.8333,93.5 23.5,94.1667 23.5,95.5C 23.5,96.1667 23.5,96.8333 23.5,97.5C 21.8333,97.5 20.1667,97.5 18.5,97.5C 18.5,97.1667 18.5,96.8333 18.5,96.5C 18.5,95.5 18.5,94.5 18.5,93.5C 19.5,93.5 20.5,93.5 21.5,93.5 Z"/></g>
<g><path style="opacity:0.946" fill="#d7d7d7" d="M 61.5,88.5 C 62.8333,88.5 64.1667,88.5 65.5,88.5C 65.3653,90.5542 66.032,92.2209 67.5,93.5C 65.8235,94.1834 65.1568,95.5168 65.5,97.5C 68.752,97.2895 71.752,97.9562 74.5,99.5C 75.8333,99.5 76.5,98.8333 76.5,97.5C 77.4794,99.7389 79.1461,101.406 81.5,102.5C 80.7573,103.182 80.0906,103.849 79.5,104.5C 79.5,105.167 79.5,105.833 79.5,106.5C 79.1667,106.5 78.8333,106.5 78.5,106.5C 77.7206,104.323 76.3873,102.656 74.5,101.5C 71.5,101.5 68.5,101.5 65.5,101.5C 64.6916,98.5498 63.3582,95.8831 61.5,93.5C 61.5,91.8333 61.5,90.1667 61.5,88.5 Z"/></g>
<g><path style="opacity:1" fill="#dfdfdf" d="M 83.5,92.5 C 84.1667,96.5 84.8333,96.5 85.5,92.5C 86.7348,92.7214 87.7348,93.3881 88.5,94.5C 89.1835,94.1373 89.8501,93.8039 90.5,93.5C 90.7822,94.7777 91.4489,95.7777 92.5,96.5C 91.4489,97.2223 90.7822,98.2223 90.5,99.5C 91.5025,101.011 92.1692,102.678 92.5,104.5C 90.5168,104.157 89.1834,104.824 88.5,106.5C 87.7777,105.449 86.7777,104.782 85.5,104.5C 86.968,103.221 87.6347,101.554 87.5,99.5C 88.2216,99.9175 88.7216,100.584 89,101.5C 89.49,100.207 89.6567,98.8734 89.5,97.5C 86.2123,97.073 83.2123,97.7397 80.5,99.5C 79.3744,98.1916 79.3744,96.8583 80.5,95.5C 81.1001,94.0998 82.1001,93.0998 83.5,92.5 Z"/></g>
<g><path style="opacity:1" fill="#b7b7b7" d="M 83.5,92.5 C 84.1667,92.5 84.8333,92.5 85.5,92.5C 84.8333,96.5 84.1667,96.5 83.5,92.5 Z"/></g>
<g><path style="opacity:1" fill="#b1b1b1" d="M 96.5,95.5 C 94.5354,95.0517 94.2021,94.0517 95.5,92.5C 96.3857,93.325 96.719,94.325 96.5,95.5 Z"/></g>
<g><path style="opacity:1" fill="#e9e9e9" d="M 23.5,95.5 C 25.5695,95.4486 27.4029,96.1153 29,97.5C 30.0299,97.1639 30.5299,96.4972 30.5,95.5C 32.5,95.5 34.5,95.5 36.5,95.5C 37.5,95.5 38.5,95.5 39.5,95.5C 39.6716,96.4916 39.3382,97.1583 38.5,97.5C 35.8333,98.8333 33.1667,100.167 30.5,101.5C 28.6776,101.169 27.0109,100.502 25.5,99.5C 24.1667,99.5 23.5,98.8333 23.5,97.5C 23.5,96.8333 23.5,96.1667 23.5,95.5 Z"/></g>
<g><path style="opacity:1" fill="#e0e0e0" d="M 96.5,95.5 C 97.5,95.5 98.5,95.5 99.5,95.5C 99.8333,96.8333 100.167,98.1667 100.5,99.5C 99.0222,99.238 97.6888,99.5713 96.5,100.5C 99.8111,102.34 100.144,104.34 97.5,106.5C 98.5669,104.121 97.5669,103.121 94.5,103.5C 94.5,102.167 94.5,100.833 94.5,99.5C 93.1667,99.5 91.8333,99.5 90.5,99.5C 90.7822,98.2223 91.4489,97.2223 92.5,96.5C 93.5832,96.5394 94.5832,96.8728 95.5,97.5C 96.2975,97.0431 96.6309,96.3764 96.5,95.5 Z"/></g>
<g><path style="opacity:1" fill="#cccccc" d="M 14.5,95.5 C 15.8333,95.8333 17.1667,96.1667 18.5,96.5C 18.5,96.8333 18.5,97.1667 18.5,97.5C 15.7201,98.2293 12.8868,98.896 10,99.5C 7.65906,99.1705 5.49239,98.5038 3.5,97.5C 3.5,95.8333 3.5,94.1667 3.5,92.5C 4.73485,92.2786 5.73485,91.6119 6.5,90.5C 7.5237,91.8532 8.85703,92.5198 10.5,92.5C 10.5,93.5 10.5,94.5 10.5,95.5C 7.01231,95.8991 6.84564,96.5658 10,97.5C 11.6067,96.9265 13.1067,96.2598 14.5,95.5 Z"/></g>
<g><path style="opacity:1" fill="#e3e3e3" d="M 3.5,97.5 C 5.49239,98.5038 7.65906,99.1705 10,99.5C 12.8868,98.896 15.7201,98.2293 18.5,97.5C 18.5,98.1667 18.5,98.8333 18.5,99.5C 15.8333,100.167 15.8333,100.833 18.5,101.5C 17.5525,102.978 16.2191,103.978 14.5,104.5C 11.9179,104.025 9.91791,104.692 8.5,106.5C 7.16667,107.167 5.83333,107.833 4.5,108.5C 3.57734,104.936 3.24401,101.269 3.5,97.5 Z"/></g>
<g><path style="opacity:1" fill="#bdbdbd" d="M 18.5,99.5 C 19.5,99.5 20.5,99.5 21.5,99.5C 21.666,103.373 20.666,104.04 18.5,101.5C 15.8333,100.833 15.8333,100.167 18.5,99.5 Z"/></g>
<g><path style="opacity:1" fill="#e9e9e9" d="M 80.5,95.5 C 79.3744,96.8583 79.3744,98.1916 80.5,99.5C 83.2123,97.7397 86.2123,97.073 89.5,97.5C 89.6567,98.8734 89.49,100.207 89,101.5C 88.7216,100.584 88.2216,99.9175 87.5,99.5C 86.1667,99.5 84.8333,99.5 83.5,99.5C 83.5,101.167 83.5,102.833 83.5,104.5C 82.1667,104.5 80.8333,104.5 79.5,104.5C 80.0906,103.849 80.7573,103.182 81.5,102.5C 79.1461,101.406 77.4794,99.7389 76.5,97.5C 77.1834,95.8235 78.5168,95.1568 80.5,95.5 Z"/></g>
<g><path style="opacity:1" fill="#d9d9d9" d="M 38.5,97.5 C 38.5,101.167 38.5,104.833 38.5,108.5C 36.7179,107.28 34.7179,106.614 32.5,106.5C 32.6309,105.624 32.2975,104.957 31.5,104.5C 30.7348,105.612 29.7348,106.279 28.5,106.5C 29.4408,104.95 30.1075,103.284 30.5,101.5C 33.1667,100.167 35.8333,98.8333 38.5,97.5 Z"/></g>
<g><path style="opacity:1" fill="#d1d1d1" d="M 87.5,99.5 C 87.6347,101.554 86.968,103.221 85.5,104.5C 84.8333,107.167 84.1667,107.167 83.5,104.5C 83.5,102.833 83.5,101.167 83.5,99.5C 84.8333,99.5 86.1667,99.5 87.5,99.5 Z"/></g>
<g><path style="opacity:1" fill="#d1d1d1" d="M 90.5,99.5 C 91.8333,99.5 93.1667,99.5 94.5,99.5C 94.5,100.833 94.5,102.167 94.5,103.5C 97.5669,103.121 98.5669,104.121 97.5,106.5C 96.5655,107.568 96.2322,108.901 96.5,110.5C 95.8333,110.5 95.1667,110.5 94.5,110.5C 94.5,109.167 94.5,107.833 94.5,106.5C 92.5,106.5 90.5,106.5 88.5,106.5C 89.1834,104.824 90.5168,104.157 92.5,104.5C 92.1692,102.678 91.5025,101.011 90.5,99.5 Z"/></g>
<g><path style="opacity:0.875" fill="#e9e9e9" d="M 100.5,99.5 C 100.5,103.833 100.5,108.167 100.5,112.5C 98.6203,112.771 97.287,112.104 96.5,110.5C 96.2322,108.901 96.5655,107.568 97.5,106.5C 100.144,104.34 99.8111,102.34 96.5,100.5C 97.6888,99.5713 99.0222,99.238 100.5,99.5 Z"/></g>
<g><path style="opacity:1" fill="#e3e3e3" d="M 25.5,99.5 C 27.0109,100.502 28.6776,101.169 30.5,101.5C 30.1075,103.284 29.4408,104.95 28.5,106.5C 26.8333,106.5 25.1667,106.5 23.5,106.5C 23.4679,103.924 24.1346,101.591 25.5,99.5 Z"/></g>
<g><path style="opacity:1" fill="#ebebeb" d="M 65.5,101.5 C 68.5,101.5 71.5,101.5 74.5,101.5C 74.5,103.833 74.5,106.167 74.5,108.5C 73.1667,107.833 71.8333,107.167 70.5,106.5C 68.8007,106.473 67.4674,105.806 66.5,104.5C 66.4431,103.391 66.1098,102.391 65.5,101.5 Z"/></g>
<g><path style="opacity:1" fill="#d9d9d9" d="M 14.5,104.5 C 15.1667,104.5 15.8333,104.5 16.5,104.5C 16.5,105.833 16.5,107.167 16.5,108.5C 16.8432,110.483 16.1765,111.817 14.5,112.5C 13.1882,109.855 11.1882,107.855 8.5,106.5C 9.91791,104.692 11.9179,104.025 14.5,104.5 Z"/></g>
<g><path style="opacity:1" fill="#dadada" d="M 18.5,97.5 C 20.1667,97.5 21.8333,97.5 23.5,97.5C 23.5,98.8333 24.1667,99.5 25.5,99.5C 24.1346,101.591 23.4679,103.924 23.5,106.5C 23.5,107.833 23.5,109.167 23.5,110.5C 22.1667,109.833 20.8333,109.167 19.5,108.5C 19.4456,106.368 18.4456,105.035 16.5,104.5C 15.8333,104.5 15.1667,104.5 14.5,104.5C 16.2191,103.978 17.5525,102.978 18.5,101.5C 20.666,104.04 21.666,103.373 21.5,99.5C 20.5,99.5 19.5,99.5 18.5,99.5C 18.5,98.8333 18.5,98.1667 18.5,97.5 Z"/></g>
<g><path style="opacity:1" fill="#ececec" d="M 79.5,104.5 C 80.8333,104.5 82.1667,104.5 83.5,104.5C 84.1667,107.167 84.8333,107.167 85.5,104.5C 86.7777,104.782 87.7777,105.449 88.5,106.5C 90.5,106.5 92.5,106.5 94.5,106.5C 94.5,107.833 94.5,109.167 94.5,110.5C 89.1919,110.173 84.1919,108.839 79.5,106.5C 79.5,105.833 79.5,105.167 79.5,104.5 Z"/></g>
<g><path style="opacity:1" fill="#c1c1c1" d="M 32.5,106.5 C 31.3218,107.999 29.6551,108.999 27.5,109.5C 28.9935,110.141 29.9935,111.141 30.5,112.5C 27.6122,113.01 25.2789,112.344 23.5,110.5C 23.5,109.167 23.5,107.833 23.5,106.5C 25.1667,106.5 26.8333,106.5 28.5,106.5C 29.7348,106.279 30.7348,105.612 31.5,104.5C 32.2975,104.957 32.6309,105.624 32.5,106.5 Z"/></g>
<g><path style="opacity:1" fill="#b7b7b7" d="M 16.5,104.5 C 18.4456,105.035 19.4456,106.368 19.5,108.5C 18.5,108.5 17.5,108.5 16.5,108.5C 16.5,107.167 16.5,105.833 16.5,104.5 Z"/></g>
<g><path style="opacity:1" fill="#a2a2a2" d="M 78.5,106.5 C 78.8333,106.5 79.1667,106.5 79.5,106.5C 79.5,107.167 79.5,107.833 79.5,108.5C 78.325,108.719 77.325,108.386 76.5,107.5C 76.9569,106.702 77.6236,106.369 78.5,106.5 Z"/></g>
<g><path style="opacity:1" fill="#e3e3e3" d="M 16.5,108.5 C 17.5,108.5 18.5,108.5 19.5,108.5C 20.8333,109.167 22.1667,109.833 23.5,110.5C 25.2789,112.344 27.6122,113.01 30.5,112.5C 27.7626,113.051 25.0959,114.051 22.5,115.5C 22.1667,116.167 21.8333,116.833 21.5,117.5C 22.7545,119.334 23.4211,121.334 23.5,123.5C 22.0222,123.762 20.6888,123.429 19.5,122.5C 19.2155,120.241 18.2155,118.574 16.5,117.5C 16.6347,115.446 15.968,113.779 14.5,112.5C 16.1765,111.817 16.8432,110.483 16.5,108.5 Z"/></g>
<g><path style="opacity:0.719" fill="#e8e8e8" d="M 8.5,106.5 C 11.1882,107.855 13.1882,109.855 14.5,112.5C 15.968,113.779 16.6347,115.446 16.5,117.5C 15.1667,117.5 13.8333,117.5 12.5,117.5C 10.5615,115.837 8.22817,115.171 5.5,115.5C 4.53178,113.393 4.19845,111.059 4.5,108.5C 5.83333,107.833 7.16667,107.167 8.5,106.5 Z"/></g>
<g><path style="opacity:0.987" fill="#ebebeb" d="M 32.5,106.5 C 34.7179,106.614 36.7179,107.28 38.5,108.5C 38.3677,111.57 38.701,114.57 39.5,117.5C 38.5,117.5 37.5,117.5 36.5,117.5C 35.1667,117.5 33.8333,117.5 32.5,117.5C 32.9227,115.219 32.256,113.552 30.5,112.5C 29.9935,111.141 28.9935,110.141 27.5,109.5C 29.6551,108.999 31.3218,107.999 32.5,106.5 Z"/></g>
<g><path style="opacity:1" fill="#d1d1d1" d="M 74.5,101.5 C 76.3873,102.656 77.7206,104.323 78.5,106.5C 77.6236,106.369 76.9569,106.702 76.5,107.5C 77.325,108.386 78.325,108.719 79.5,108.5C 79.5,109.167 79.5,109.833 79.5,110.5C 78.5,110.5 77.5,110.5 76.5,110.5C 76.5,111.5 76.5,112.5 76.5,113.5C 74.2821,113.614 72.2821,114.28 70.5,115.5C 70.1788,113.952 69.1788,113.285 67.5,113.5C 67.7373,112.209 67.404,111.209 66.5,110.5C 66.5,108.5 66.5,106.5 66.5,104.5C 67.4674,105.806 68.8007,106.473 70.5,106.5C 70.2786,107.735 69.6119,108.735 68.5,109.5C 70.3325,110.248 71.9991,111.248 73.5,112.5C 74.4287,111.311 74.762,109.978 74.5,108.5C 74.5,106.167 74.5,103.833 74.5,101.5 Z"/></g>
<g><path style="opacity:1" fill="#bbbbbb" d="M 70.5,106.5 C 71.8333,107.167 73.1667,107.833 74.5,108.5C 74.762,109.978 74.4287,111.311 73.5,112.5C 71.9991,111.248 70.3325,110.248 68.5,109.5C 69.6119,108.735 70.2786,107.735 70.5,106.5 Z"/></g>
<g><path style="opacity:1" fill="#d4d4d4" d="M 79.5,106.5 C 84.1919,108.839 89.1919,110.173 94.5,110.5C 94.5,112.167 94.5,113.833 94.5,115.5C 93.4168,115.539 92.4168,115.873 91.5,116.5C 90.6143,115.675 90.281,114.675 90.5,113.5C 89.0695,113.579 87.7362,113.246 86.5,112.5C 85.2612,114.007 85.5946,115.174 87.5,116C 86.2068,116.49 84.8734,116.657 83.5,116.5C 83.719,115.325 83.3857,114.325 82.5,113.5C 81.8933,113.624 81.56,113.957 81.5,114.5C 80.391,114.557 79.391,114.89 78.5,115.5C 78.4802,113.857 79.1468,112.524 80.5,111.5C 80.3764,110.893 80.0431,110.56 79.5,110.5C 79.5,109.833 79.5,109.167 79.5,108.5C 79.5,107.833 79.5,107.167 79.5,106.5 Z"/></g>
<g><path style="opacity:1" fill="#eeeeee" d="M 30.5,112.5 C 32.256,113.552 32.9227,115.219 32.5,117.5C 32.1788,119.048 31.1788,119.715 29.5,119.5C 27.8235,120.183 27.1568,121.517 27.5,123.5C 26.1667,123.5 24.8333,123.5 23.5,123.5C 23.4211,121.334 22.7545,119.334 21.5,117.5C 21.8333,116.833 22.1667,116.167 22.5,115.5C 25.0959,114.051 27.7626,113.051 30.5,112.5 Z"/></g>
<g><path style="opacity:0.969" fill="#e8e8e8" d="M 66.5,110.5 C 67.404,111.209 67.7373,112.209 67.5,113.5C 69.1788,113.285 70.1788,113.952 70.5,115.5C 70.5,116.833 70.5,118.167 70.5,119.5C 68.3374,121.083 66.0041,122.416 63.5,123.5C 65.5256,119.419 66.5256,115.085 66.5,110.5 Z"/></g>
<g><path style="opacity:0.85" fill="#f0f0f0" d="M 94.5,110.5 C 95.1667,110.5 95.8333,110.5 96.5,110.5C 97.287,112.104 98.6203,112.771 100.5,112.5C 100.802,115.059 100.468,117.393 99.5,119.5C 97.8333,119.5 96.1667,119.5 94.5,119.5C 94.5,118.833 94.5,118.167 94.5,117.5C 94.5,116.833 94.5,116.167 94.5,115.5C 94.5,113.833 94.5,112.167 94.5,110.5 Z"/></g>
<g><path style="opacity:1" fill="#bcbcbc" d="M 5.5,115.5 C 8.22817,115.171 10.5615,115.837 12.5,117.5C 12.5299,118.497 12.0299,119.164 11,119.5C 9.40287,118.115 7.56954,117.449 5.5,117.5C 5.5,116.833 5.5,116.167 5.5,115.5 Z"/></g>
<g><path style="opacity:1" fill="#e1e1e1" d="M 79.5,110.5 C 80.0431,110.56 80.3764,110.893 80.5,111.5C 79.1468,112.524 78.4802,113.857 78.5,115.5C 75.8333,116.833 73.1667,118.167 70.5,119.5C 70.5,118.167 70.5,116.833 70.5,115.5C 72.2821,114.28 74.2821,113.614 76.5,113.5C 76.5,112.5 76.5,111.5 76.5,110.5C 77.5,110.5 78.5,110.5 79.5,110.5 Z"/></g>
<g><path style="opacity:1" fill="#b0b0b0" d="M 81.5,114.5 C 81.5,115.5 81.5,116.5 81.5,117.5C 80.5,117.5 79.5,117.5 78.5,117.5C 78.5,116.833 78.5,116.167 78.5,115.5C 79.391,114.89 80.391,114.557 81.5,114.5 Z"/></g>
<g><path style="opacity:1" fill="#b7b7b7" d="M 36.5,117.5 C 37.5,117.5 38.5,117.5 39.5,117.5C 39.8333,118.167 40.1667,118.833 40.5,119.5C 38.5168,119.843 37.1834,119.176 36.5,117.5 Z"/></g>
<g><path style="opacity:1" fill="#e5e5e5" d="M 94.5,115.5 C 94.5,116.167 94.5,116.833 94.5,117.5C 92.2341,117.859 90.4007,117.192 89,115.5C 86.4055,116.947 83.9055,118.614 81.5,120.5C 82.6119,121.265 83.2786,122.265 83.5,123.5C 81.4091,124.865 79.0758,125.532 76.5,125.5C 76.5,124.167 76.5,122.833 76.5,121.5C 81.1103,121.404 81.4436,120.404 77.5,118.5C 77.6236,117.893 77.9569,117.56 78.5,117.5C 79.5,117.5 80.5,117.5 81.5,117.5C 81.5,116.5 81.5,115.5 81.5,114.5C 81.56,113.957 81.8933,113.624 82.5,113.5C 83.3857,114.325 83.719,115.325 83.5,116.5C 84.8734,116.657 86.2068,116.49 87.5,116C 85.5946,115.174 85.2612,114.007 86.5,112.5C 87.7362,113.246 89.0695,113.579 90.5,113.5C 90.281,114.675 90.6143,115.675 91.5,116.5C 92.4168,115.873 93.4168,115.539 94.5,115.5 Z"/></g>
<g><path style="opacity:0.91" fill="#e2e2e2" d="M 5.5,117.5 C 7.56954,117.449 9.40287,118.115 11,119.5C 12.0299,119.164 12.5299,118.497 12.5,117.5C 13.8333,117.5 15.1667,117.5 16.5,117.5C 16.8432,119.483 16.1765,120.817 14.5,121.5C 13.1667,121.5 11.8333,121.5 10.5,121.5C 9.04125,121.433 7.70792,121.766 6.5,122.5C 5.962,120.883 5.62867,119.216 5.5,117.5 Z"/></g>
<g><path style="opacity:1" fill="#cfcfcf" d="M 32.5,117.5 C 33.8333,117.5 35.1667,117.5 36.5,117.5C 37.1834,119.176 38.5168,119.843 40.5,119.5C 40.5,120.167 40.5,120.833 40.5,121.5C 40.1667,121.5 39.8333,121.5 39.5,121.5C 37.1331,122.164 35.1331,123.497 33.5,125.5C 32.8333,124.5 32.1667,123.5 31.5,122.5C 30.3914,123.59 29.3914,123.59 28.5,122.5C 29.1272,121.583 29.4606,120.583 29.5,119.5C 31.1788,119.715 32.1788,119.048 32.5,117.5 Z"/></g>
<g><path style="opacity:1" fill="#d7d7d7" d="M 78.5,115.5 C 78.5,116.167 78.5,116.833 78.5,117.5C 77.9569,117.56 77.6236,117.893 77.5,118.5C 81.4436,120.404 81.1103,121.404 76.5,121.5C 76.5,122.833 76.5,124.167 76.5,125.5C 79.0758,125.532 81.4091,124.865 83.5,123.5C 84.5511,124.222 85.2178,125.222 85.5,126.5C 84.8333,128.5 83.5,129.833 81.5,130.5C 79.7211,128.656 77.3878,127.99 74.5,128.5C 74.5,127.167 74.5,125.833 74.5,124.5C 72.0706,124.884 69.7373,125.551 67.5,126.5C 67.38,125.414 66.7133,124.747 65.5,124.5C 64.1508,124.846 62.8175,125.179 61.5,125.5C 61.8333,124.5 62.5,123.833 63.5,123.5C 66.0041,122.416 68.3374,121.083 70.5,119.5C 73.1667,118.167 75.8333,116.833 78.5,115.5 Z"/></g>
<g><path style="opacity:1" fill="#e0e0e0" d="M 94.5,119.5 C 96.1667,119.5 97.8333,119.5 99.5,119.5C 99.5946,122.697 98.9279,125.697 97.5,128.5C 96.5,128.5 95.5,128.5 94.5,128.5C 93.4975,126.989 92.8308,125.322 92.5,123.5C 90.712,123.785 89.0453,123.452 87.5,122.5C 89.5117,120.659 91.845,119.659 94.5,119.5 Z"/></g>
<g><path style="opacity:0.866" fill="#e6e6e6" d="M 10.5,121.5 C 11.449,123.737 12.1156,126.071 12.5,128.5C 13.9179,130.308 15.9179,130.975 18.5,130.5C 18.5,131.833 18.5,133.167 18.5,134.5C 16.4305,134.551 14.5971,133.885 13,132.5C 12.2352,132.57 11.7352,132.903 11.5,133.5C 9.26826,130.159 7.6016,126.492 6.5,122.5C 7.70792,121.766 9.04125,121.433 10.5,121.5 Z"/></g>
<g><path style="opacity:1" fill="#dddddd" d="M 10.5,121.5 C 11.8333,121.5 13.1667,121.5 14.5,121.5C 14.3691,122.376 14.7025,123.043 15.5,123.5C 17.604,124.519 19.604,125.519 21.5,126.5C 18.4359,126.928 15.4359,127.594 12.5,128.5C 12.1156,126.071 11.449,123.737 10.5,121.5 Z"/></g>
<g><path style="opacity:1" fill="#d4d4d4" d="M 29.5,119.5 C 29.4606,120.583 29.1272,121.583 28.5,122.5C 29.3914,123.59 30.3914,123.59 31.5,122.5C 32.1667,123.5 32.8333,124.5 33.5,125.5C 35.1331,123.497 37.1331,122.164 39.5,121.5C 38.6993,123.042 38.366,124.708 38.5,126.5C 36.5,126.5 34.5,126.5 32.5,126.5C 32.5,127.833 32.5,129.167 32.5,130.5C 30.744,129.448 30.0773,127.781 30.5,125.5C 29.209,125.263 28.209,125.596 27.5,126.5C 26.8166,128.176 25.4832,128.843 23.5,128.5C 23.5,126.833 23.5,125.167 23.5,123.5C 24.8333,123.5 26.1667,123.5 27.5,123.5C 27.1568,121.517 27.8235,120.183 29.5,119.5 Z"/></g>
<g><path style="opacity:1" fill="#eeeeee" d="M 94.5,117.5 C 94.5,118.167 94.5,118.833 94.5,119.5C 91.845,119.659 89.5117,120.659 87.5,122.5C 89.0453,123.452 90.712,123.785 92.5,123.5C 92.8308,125.322 93.4975,126.989 94.5,128.5C 93.6236,128.369 92.9569,128.702 92.5,129.5C 93.6888,130.429 95.0222,130.762 96.5,130.5C 96.3404,132.153 95.6737,133.486 94.5,134.5C 93.8166,132.824 92.4832,132.157 90.5,132.5C 90.5,131.167 90.5,129.833 90.5,128.5C 88.6776,128.169 87.0109,127.502 85.5,126.5C 85.2178,125.222 84.5511,124.222 83.5,123.5C 83.2786,122.265 82.6119,121.265 81.5,120.5C 83.9055,118.614 86.4055,116.947 89,115.5C 90.4007,117.192 92.2341,117.859 94.5,117.5 Z"/></g>
<g><path style="opacity:0.991" fill="#dcdcdc" d="M 39.5,121.5 C 39.8333,121.5 40.1667,121.5 40.5,121.5C 42.5,124.167 44.8333,126.5 47.5,128.5C 45.5082,128.672 43.8415,128.005 42.5,126.5C 41.5344,128.396 41.2011,130.396 41.5,132.5C 40.8333,132.5 40.1667,132.5 39.5,132.5C 37.7211,130.656 35.3878,129.99 32.5,130.5C 32.5,129.167 32.5,127.833 32.5,126.5C 34.5,126.5 36.5,126.5 38.5,126.5C 38.366,124.708 38.6993,123.042 39.5,121.5 Z"/></g>
<g><path style="opacity:1" fill="#e5e5e5" d="M 47.5,128.5 C 48.6782,129.999 50.3449,130.999 52.5,131.5C 51.3112,132.429 49.9778,132.762 48.5,132.5C 46.1789,132.229 44.1789,132.896 42.5,134.5C 41.7025,134.043 41.3691,133.376 41.5,132.5C 41.2011,130.396 41.5344,128.396 42.5,126.5C 43.8415,128.005 45.5082,128.672 47.5,128.5 Z"/></g>
<g><path style="opacity:0.797" fill="#bcbcbc" d="M 67.5,126.5 C 66.0222,126.238 64.6888,126.571 63.5,127.5C 65.3316,128.057 66.6649,129.057 67.5,130.5C 63.351,129.92 59.6843,130.586 56.5,132.5C 54.8235,131.817 54.1568,130.483 54.5,128.5C 57.2061,128.312 59.5395,127.312 61.5,125.5C 62.8175,125.179 64.1508,124.846 65.5,124.5C 66.7133,124.747 67.38,125.414 67.5,126.5 Z"/></g>
<g><path style="opacity:1" fill="#eaeaea" d="M 16.5,117.5 C 18.2155,118.574 19.2155,120.241 19.5,122.5C 20.6888,123.429 22.0222,123.762 23.5,123.5C 23.5,125.167 23.5,126.833 23.5,128.5C 25.4832,128.843 26.8166,128.176 27.5,126.5C 29.1765,127.183 29.8432,128.517 29.5,130.5C 26.9179,130.025 24.9179,130.692 23.5,132.5C 22.8333,132.5 22.1667,132.5 21.5,132.5C 21.2786,131.265 20.6119,130.265 19.5,129.5C 20.6119,128.735 21.2786,127.735 21.5,126.5C 19.604,125.519 17.604,124.519 15.5,123.5C 14.7025,123.043 14.3691,122.376 14.5,121.5C 16.1765,120.817 16.8432,119.483 16.5,117.5 Z"/></g>
<g><path style="opacity:1" fill="#e3e3e3" d="M 74.5,128.5 C 74.5,129.167 74.5,129.833 74.5,130.5C 75.0545,134.012 74.3878,137.012 72.5,139.5C 72.38,138.414 71.7133,137.747 70.5,137.5C 69.2613,137.942 68.2613,138.609 67.5,139.5C 67.5,138.833 67.5,138.167 67.5,137.5C 67.8212,135.952 68.8212,135.285 70.5,135.5C 70.4802,133.857 71.1468,132.524 72.5,131.5C 70.9547,130.548 69.288,130.215 67.5,130.5C 66.6649,129.057 65.3316,128.057 63.5,127.5C 64.6888,126.571 66.0222,126.238 67.5,126.5C 69.7373,125.551 72.0706,124.884 74.5,124.5C 74.5,125.833 74.5,127.167 74.5,128.5 Z"/></g>
<g><path style="opacity:1" fill="#bababa" d="M 74.5,128.5 C 77.3878,127.99 79.7211,128.656 81.5,130.5C 79.1667,130.5 76.8333,130.5 74.5,130.5C 74.5,129.833 74.5,129.167 74.5,128.5 Z"/></g>
<g><path style="opacity:1" fill="#d9d9d9" d="M 85.5,126.5 C 87.0109,127.502 88.6776,128.169 90.5,128.5C 90.5,129.833 90.5,131.167 90.5,132.5C 88.1667,132.5 85.8333,132.5 83.5,132.5C 81.1667,132.5 78.8333,132.5 76.5,132.5C 76.1103,135.466 76.777,138.132 78.5,140.5C 78.0431,141.298 77.3764,141.631 76.5,141.5C 74.5168,141.843 73.1834,141.176 72.5,139.5C 74.3878,137.012 75.0545,134.012 74.5,130.5C 76.8333,130.5 79.1667,130.5 81.5,130.5C 83.5,129.833 84.8333,128.5 85.5,126.5 Z"/></g>
<g><path style="opacity:0.969" fill="#c5c5c5" d="M 94.5,128.5 C 95.5,128.5 96.5,128.5 97.5,128.5C 97.1667,129.167 96.8333,129.833 96.5,130.5C 95.0222,130.762 93.6888,130.429 92.5,129.5C 92.9569,128.702 93.6236,128.369 94.5,128.5 Z"/></g>
<g><path style="opacity:1" fill="#d7d7d7" d="M 27.5,126.5 C 28.209,125.596 29.209,125.263 30.5,125.5C 30.0773,127.781 30.744,129.448 32.5,130.5C 35.3878,129.99 37.7211,130.656 39.5,132.5C 38.209,132.263 37.209,132.596 36.5,133.5C 32.5822,133.127 29.9155,134.794 28.5,138.5C 29.6888,139.429 31.0222,139.762 32.5,139.5C 32.5,140.167 32.5,140.833 32.5,141.5C 30.2188,141.923 28.5521,141.256 27.5,139.5C 27.6347,137.446 26.968,135.779 25.5,134.5C 25.5,133.167 24.8333,132.5 23.5,132.5C 24.9179,130.692 26.9179,130.025 29.5,130.5C 29.8432,128.517 29.1765,127.183 27.5,126.5 Z"/></g>
<g><path style="opacity:1" fill="#dedede" d="M 47.5,128.5 C 49.8333,128.5 52.1667,128.5 54.5,128.5C 54.1568,130.483 54.8235,131.817 56.5,132.5C 56.5,133.5 56.5,134.5 56.5,135.5C 58.5542,135.365 60.2209,136.032 61.5,137.5C 61.2089,138.649 60.3756,139.316 59,139.5C 56.7562,138.76 54.9229,137.426 53.5,135.5C 52.5159,138.428 52.1826,141.428 52.5,144.5C 50.8333,144.5 49.1667,144.5 47.5,144.5C 46.8333,144.5 46.1667,144.5 45.5,144.5C 46.6085,143.71 47.9419,143.21 49.5,143C 48.5842,142.722 47.9175,142.222 47.5,141.5C 48.675,141.719 49.675,141.386 50.5,140.5C 50.0431,139.702 49.3764,139.369 48.5,139.5C 48.5,138.833 48.5,138.167 48.5,137.5C 49.4972,137.53 50.1639,137.03 50.5,136C 49.5705,134.923 48.9038,133.756 48.5,132.5C 49.9778,132.762 51.3112,132.429 52.5,131.5C 50.3449,130.999 48.6782,129.999 47.5,128.5 Z"/></g>
<g><path style="opacity:1" fill="#dedede" d="M 67.5,130.5 C 68.0547,134.584 67.0547,135.251 64.5,132.5C 63.8333,133.167 63.1667,133.833 62.5,134.5C 60.677,133.253 58.677,132.586 56.5,132.5C 59.6843,130.586 63.351,129.92 67.5,130.5 Z"/></g>
<g><path style="opacity:1" fill="#acacac" d="M 21.5,132.5 C 22.1667,132.5 22.8333,132.5 23.5,132.5C 24.8333,132.5 25.5,133.167 25.5,134.5C 23.5,134.5 21.5,134.5 19.5,134.5C 19.5,133.167 20.1667,132.5 21.5,132.5 Z"/></g>
<g><path style="opacity:1" fill="#dfdfdf" d="M 36.5,133.5 C 37.6497,136.298 38.983,138.965 40.5,141.5C 39.8166,143.176 38.4832,143.843 36.5,143.5C 36.5,144.5 36.5,145.5 36.5,146.5C 35.4138,146.38 34.7472,145.713 34.5,144.5C 35.9371,142.423 36.6038,140.09 36.5,137.5C 34.5168,137.157 33.1834,137.824 32.5,139.5C 31.0222,139.762 29.6888,139.429 28.5,138.5C 29.9155,134.794 32.5822,133.127 36.5,133.5 Z"/></g>
<g><path style="opacity:1" fill="#cdcdcd" d="M 39.5,132.5 C 40.1667,132.5 40.8333,132.5 41.5,132.5C 41.3691,133.376 41.7025,134.043 42.5,134.5C 44.1789,132.896 46.1789,132.229 48.5,132.5C 48.9038,133.756 49.5705,134.923 50.5,136C 50.1639,137.03 49.4972,137.53 48.5,137.5C 47.1336,135.649 45.467,135.316 43.5,136.5C 44.1667,137.167 44.8333,137.833 45.5,138.5C 43.9951,139.842 43.3285,141.508 43.5,143.5C 42.2223,143.218 41.2223,142.551 40.5,141.5C 38.983,138.965 37.6497,136.298 36.5,133.5C 37.209,132.596 38.209,132.263 39.5,132.5 Z"/></g>
<g><path style="opacity:1" fill="#c9c9c9" d="M 67.5,130.5 C 69.288,130.215 70.9547,130.548 72.5,131.5C 71.1468,132.524 70.4802,133.857 70.5,135.5C 68.8212,135.285 67.8212,135.952 67.5,137.5C 66.2652,137.279 65.2652,136.612 64.5,135.5C 63.7348,136.612 62.7348,137.279 61.5,137.5C 60.2209,136.032 58.5542,135.365 56.5,135.5C 56.5,134.5 56.5,133.5 56.5,132.5C 58.677,132.586 60.677,133.253 62.5,134.5C 63.1667,133.833 63.8333,133.167 64.5,132.5C 67.0547,135.251 68.0547,134.584 67.5,130.5 Z"/></g>
<g><path style="opacity:1" fill="#cbcbcb" d="M 83.5,132.5 C 83.5,133.5 83.5,134.5 83.5,135.5C 81.8235,136.183 81.1568,137.517 81.5,139.5C 82.8333,139.5 84.1667,139.5 85.5,139.5C 84.572,142.195 83.2387,144.528 81.5,146.5C 81.5,145.5 81.5,144.5 81.5,143.5C 79.8333,143.5 78.1667,143.5 76.5,143.5C 76.5,142.833 76.5,142.167 76.5,141.5C 77.3764,141.631 78.0431,141.298 78.5,140.5C 76.777,138.132 76.1103,135.466 76.5,132.5C 78.8333,132.5 81.1667,132.5 83.5,132.5 Z"/></g>
<g><path style="opacity:1" fill="#bfbfbf" d="M 83.5,132.5 C 85.8333,132.5 88.1667,132.5 90.5,132.5C 92.4832,132.157 93.8166,132.824 94.5,134.5C 94.0679,135.71 93.4013,136.71 92.5,137.5C 89.6644,136.224 86.6644,135.558 83.5,135.5C 83.5,134.5 83.5,133.5 83.5,132.5 Z"/></g>
<g><path style="opacity:1" fill="#d1d1d1" d="M 21.5,126.5 C 21.2786,127.735 20.6119,128.735 19.5,129.5C 20.6119,130.265 21.2786,131.265 21.5,132.5C 20.1667,132.5 19.5,133.167 19.5,134.5C 19.5,134.833 19.5,135.167 19.5,135.5C 20.119,138.634 21.4523,141.467 23.5,144C 23.472,145.07 23.1386,145.903 22.5,146.5C 17.7363,143.072 14.0696,138.738 11.5,133.5C 11.7352,132.903 12.2352,132.57 13,132.5C 14.5971,133.885 16.4305,134.551 18.5,134.5C 18.5,133.167 18.5,131.833 18.5,130.5C 15.9179,130.975 13.9179,130.308 12.5,128.5C 15.4359,127.594 18.4359,126.928 21.5,126.5 Z"/></g>
<g><path style="opacity:1" fill="#bebebe" d="M 19.5,135.5 C 19.5,135.167 19.5,134.833 19.5,134.5C 21.5,134.5 23.5,134.5 25.5,134.5C 26.968,135.779 27.6347,137.446 27.5,139.5C 26.1667,139.5 24.8333,139.5 23.5,139.5C 23.5,138.167 23.5,136.833 23.5,135.5C 22.1667,135.5 20.8333,135.5 19.5,135.5 Z"/></g>
<g><path style="opacity:1" fill="#dbdbdb" d="M 83.5,135.5 C 86.6644,135.558 89.6644,136.224 92.5,137.5C 91.9744,139.23 90.9744,140.564 89.5,141.5C 88.5655,140.432 88.2322,139.099 88.5,137.5C 86.8212,137.285 85.8212,137.952 85.5,139.5C 84.1667,139.5 82.8333,139.5 81.5,139.5C 81.1568,137.517 81.8235,136.183 83.5,135.5 Z"/></g>
<g><path style="opacity:1" fill="#e5e5e5" d="M 48.5,137.5 C 48.5,138.167 48.5,138.833 48.5,139.5C 47.6618,139.842 47.3284,140.508 47.5,141.5C 47.9175,142.222 48.5842,142.722 49.5,143C 47.9419,143.21 46.6085,143.71 45.5,144.5C 45.5,145.167 45.5,145.833 45.5,146.5C 41.6266,146.666 40.9599,145.666 43.5,143.5C 43.3285,141.508 43.9951,139.842 45.5,138.5C 44.8333,137.833 44.1667,137.167 43.5,136.5C 45.467,135.316 47.1336,135.649 48.5,137.5 Z"/></g>
<g><path style="opacity:1" fill="#bebebe" d="M 48.5,139.5 C 49.3764,139.369 50.0431,139.702 50.5,140.5C 49.675,141.386 48.675,141.719 47.5,141.5C 47.3284,140.508 47.6618,139.842 48.5,139.5 Z"/></g>
<g><path style="opacity:1" fill="#ebebeb" d="M 61.5,137.5 C 62.7348,137.279 63.7348,136.612 64.5,135.5C 65.2652,136.612 66.2652,137.279 67.5,137.5C 67.5,138.167 67.5,138.833 67.5,139.5C 66.1667,139.5 64.8333,139.5 63.5,139.5C 63.5,140.833 63.5,142.167 63.5,143.5C 64.968,144.779 65.6347,146.446 65.5,148.5C 64.1667,148.5 62.8333,148.5 61.5,148.5C 59.8212,148.285 58.8212,148.952 58.5,150.5C 57.8333,149.833 57.1667,149.167 56.5,148.5C 55.1667,148.5 54.5,147.833 54.5,146.5C 53.8333,145.833 53.1667,145.167 52.5,144.5C 52.1826,141.428 52.5159,138.428 53.5,135.5C 54.9229,137.426 56.7562,138.76 59,139.5C 60.3756,139.316 61.2089,138.649 61.5,137.5 Z"/></g>
<g><path style="opacity:1" fill="#c4c4c4" d="M 72.5,139.5 C 73.1834,141.176 74.5168,141.843 76.5,141.5C 76.5,142.167 76.5,142.833 76.5,143.5C 74.5168,143.157 73.1834,143.824 72.5,145.5C 70.5679,144.416 68.7346,143.083 67,141.5C 65.9231,142.429 64.7564,143.096 63.5,143.5C 63.5,142.167 63.5,140.833 63.5,139.5C 64.8333,139.5 66.1667,139.5 67.5,139.5C 68.2613,138.609 69.2613,137.942 70.5,137.5C 71.7133,137.747 72.38,138.414 72.5,139.5 Z"/></g>
<g><path style="opacity:1" fill="#cfcfcf" d="M 72.5,145.5 C 72.5,146.5 72.5,147.5 72.5,148.5C 70.1667,148.5 67.8333,148.5 65.5,148.5C 65.6347,146.446 64.968,144.779 63.5,143.5C 64.7564,143.096 65.9231,142.429 67,141.5C 68.7346,143.083 70.5679,144.416 72.5,145.5 Z"/></g>
<g><path style="opacity:0.944" fill="#ebebeb" d="M 89.5,141.5 C 87.5,144.167 85.1667,146.5 82.5,148.5C 81.6618,148.158 81.3284,147.492 81.5,146.5C 83.2387,144.528 84.572,142.195 85.5,139.5C 85.8212,137.952 86.8212,137.285 88.5,137.5C 88.2322,139.099 88.5655,140.432 89.5,141.5 Z"/></g>
<g><path style="opacity:1" fill="#ededed" d="M 36.5,146.5 C 37.1667,146.5 37.8333,146.5 38.5,146.5C 38.5,147.833 37.8333,148.5 36.5,148.5C 34.076,148.808 31.7427,148.474 29.5,147.5C 30.2458,146.264 30.5792,144.93 30.5,143.5C 29.448,143.649 28.448,143.483 27.5,143C 29.3817,142.802 31.0484,142.302 32.5,141.5C 32.5,140.833 32.5,140.167 32.5,139.5C 33.1834,137.824 34.5168,137.157 36.5,137.5C 36.6038,140.09 35.9371,142.423 34.5,144.5C 34.7472,145.713 35.4138,146.38 36.5,146.5 Z"/></g>
<g><path style="opacity:1" fill="#dddddd" d="M 19.5,135.5 C 20.8333,135.5 22.1667,135.5 23.5,135.5C 23.5,136.833 23.5,138.167 23.5,139.5C 24.8333,139.5 26.1667,139.5 27.5,139.5C 28.5521,141.256 30.2188,141.923 32.5,141.5C 31.0484,142.302 29.3817,142.802 27.5,143C 28.448,143.483 29.448,143.649 30.5,143.5C 30.5792,144.93 30.2458,146.264 29.5,147.5C 31.7427,148.474 34.076,148.808 36.5,148.5C 36.7214,149.735 37.3881,150.735 38.5,151.5C 36.3691,152.169 34.3691,152.835 32.5,153.5C 28.7792,151.646 25.4459,149.313 22.5,146.5C 23.1386,145.903 23.472,145.07 23.5,144C 21.4523,141.467 20.119,138.634 19.5,135.5 Z"/></g>
<g><path style="opacity:1" fill="#d2d2d2" d="M 40.5,141.5 C 41.2223,142.551 42.2223,143.218 43.5,143.5C 40.9599,145.666 41.6266,146.666 45.5,146.5C 45.5,147.167 45.5,147.833 45.5,148.5C 43.5168,148.157 42.1834,148.824 41.5,150.5C 40.0221,149.552 39.0221,148.219 38.5,146.5C 37.8333,146.5 37.1667,146.5 36.5,146.5C 36.5,145.5 36.5,144.5 36.5,143.5C 38.4832,143.843 39.8166,143.176 40.5,141.5 Z"/></g>
<g><path style="opacity:1" fill="#e1e1e1" d="M 76.5,143.5 C 78.1667,143.5 79.8333,143.5 81.5,143.5C 81.5,144.5 81.5,145.5 81.5,146.5C 81.3284,147.492 81.6618,148.158 82.5,148.5C 78.1916,152.152 73.1916,154.486 67.5,155.5C 67.5198,153.857 66.8532,152.524 65.5,151.5C 68.2949,151.062 70.6283,150.062 72.5,148.5C 72.5,147.5 72.5,146.5 72.5,145.5C 73.1834,143.824 74.5168,143.157 76.5,143.5 Z"/></g>
<g><path style="opacity:1" fill="#a7a7a7" d="M 45.5,144.5 C 46.1667,144.5 46.8333,144.5 47.5,144.5C 47.8432,146.483 47.1765,147.817 45.5,148.5C 45.5,147.833 45.5,147.167 45.5,146.5C 45.5,145.833 45.5,145.167 45.5,144.5 Z"/></g>
<g><path style="opacity:1" fill="#dbdbdb" d="M 47.5,144.5 C 49.1667,144.5 50.8333,144.5 52.5,144.5C 53.1667,145.167 53.8333,145.833 54.5,146.5C 52.8235,147.183 52.1568,148.517 52.5,150.5C 54.4832,150.843 55.8166,150.176 56.5,148.5C 57.1667,149.167 57.8333,149.833 58.5,150.5C 58.1667,151.167 57.8333,151.833 57.5,152.5C 56.609,151.89 55.609,151.557 54.5,151.5C 50.6075,153.049 47.6075,152.049 45.5,148.5C 47.1765,147.817 47.8432,146.483 47.5,144.5 Z"/></g>
<g><path style="opacity:1" fill="#bebebe" d="M 54.5,146.5 C 54.5,147.833 55.1667,148.5 56.5,148.5C 55.8166,150.176 54.4832,150.843 52.5,150.5C 52.1568,148.517 52.8235,147.183 54.5,146.5 Z"/></g>
<g><path style="opacity:1" fill="#e0e0e0" d="M 38.5,146.5 C 39.0221,148.219 40.0221,149.552 41.5,150.5C 42.8333,152.833 44.1667,155.167 45.5,157.5C 41.0504,156.573 36.7171,155.239 32.5,153.5C 34.3691,152.835 36.3691,152.169 38.5,151.5C 37.3881,150.735 36.7214,149.735 36.5,148.5C 37.8333,148.5 38.5,147.833 38.5,146.5 Z"/></g>
<g><path style="opacity:1" fill="#cbcbcb" d="M 61.5,148.5 C 62.1079,149.8 62.7745,151.133 63.5,152.5C 63.1667,153.167 62.8333,153.833 62.5,154.5C 61.1585,152.995 59.4918,152.328 57.5,152.5C 57.8333,151.833 58.1667,151.167 58.5,150.5C 58.8212,148.952 59.8212,148.285 61.5,148.5 Z"/></g>
<g><path style="opacity:0.928" fill="#f0f0f0" d="M 45.5,148.5 C 47.6075,152.049 50.6075,153.049 54.5,151.5C 55.2297,153.045 56.563,153.878 58.5,154C 57.9056,154.464 57.2389,154.631 56.5,154.5C 55.1667,154.5 53.8333,154.5 52.5,154.5C 52.5,155.5 52.5,156.5 52.5,157.5C 50.1667,157.5 47.8333,157.5 45.5,157.5C 44.1667,155.167 42.8333,152.833 41.5,150.5C 42.1834,148.824 43.5168,148.157 45.5,148.5 Z"/></g>
<g><path style="opacity:0.937" fill="#eeeeee" d="M 61.5,148.5 C 62.8333,148.5 64.1667,148.5 65.5,148.5C 67.8333,148.5 70.1667,148.5 72.5,148.5C 70.6283,150.062 68.2949,151.062 65.5,151.5C 66.8532,152.524 67.5198,153.857 67.5,155.5C 64.0915,156.903 60.4248,157.57 56.5,157.5C 56.5,156.5 56.5,155.5 56.5,154.5C 57.2389,154.631 57.9056,154.464 58.5,154C 56.563,153.878 55.2297,153.045 54.5,151.5C 55.609,151.557 56.609,151.89 57.5,152.5C 59.4918,152.328 61.1585,152.995 62.5,154.5C 62.8333,153.833 63.1667,153.167 63.5,152.5C 62.7745,151.133 62.1079,149.8 61.5,148.5 Z"/></g>
<g><path style="opacity:0.875" fill="#d2d2d2" d="M 56.5,154.5 C 56.5,155.5 56.5,156.5 56.5,157.5C 55.1667,157.5 53.8333,157.5 52.5,157.5C 52.5,156.5 52.5,155.5 52.5,154.5C 53.8333,154.5 55.1667,154.5 56.5,154.5 Z"/></g>
</svg>
