<?xml version="1.0" encoding="UTF-8"?>
<!DOCTYPE svg PUBLIC "-//W3C//DTD SVG 1.1//EN" "http://www.w3.org/Graphics/SVG/1.1/DTD/svg11.dtd">
<svg xmlns="http://www.w3.org/2000/svg" version="1.1" width="104px" height="180px" style="shape-rendering:geometricPrecision; text-rendering:geometricPrecision; image-rendering:optimizeQuality; fill-rule:evenodd; clip-rule:evenodd" xmlns:xlink="http://www.w3.org/1999/xlink">
<g><path style="opacity:0.924" fill="#d7d7d7" d="M 54.5,17.5 C 58.9836,17.4258 63.317,18.0925 67.5,19.5C 67.5,20.1667 67.5,20.8333 67.5,21.5C 65.7179,20.2804 63.7179,19.6138 61.5,19.5C 61.5,20.5 61.5,21.5 61.5,22.5C 63.099,22.2322 64.4324,22.5655 65.5,23.5C 65.5,24.5 65.5,25.5 65.5,26.5C 67.1788,26.2852 68.1788,26.9519 68.5,28.5C 68.5,29.1667 68.5,29.8333 68.5,30.5C 68.1667,30.5 67.8333,30.5 67.5,30.5C 65.5168,30.8432 64.1834,30.1765 63.5,28.5C 62.4479,26.744 60.7812,26.0773 58.5,26.5C 58.876,23.0771 57.5426,20.7438 54.5,19.5C 54.5,18.8333 54.5,18.1667 54.5,17.5 Z"/></g>
<g><path style="opacity:1" fill="#d5d5d5" d="M 36.5,18.5 C 37.5511,19.2223 38.2178,20.2223 38.5,21.5C 37.8166,23.1765 36.4832,23.8432 34.5,23.5C 34.5,22.1667 34.5,20.8333 34.5,19.5C 35.1667,19.1667 35.8333,18.8333 36.5,18.5 Z"/></g>
<g><path style="opacity:1" fill="#ebebeb" d="M 54.5,21.5 C 55.1667,22.1667 55.8333,22.8333 56.5,23.5C 54.2646,23.2053 52.2646,23.5386 50.5,24.5C 48.9519,24.1788 48.2852,23.1788 48.5,21.5C 46.1667,21.5 43.8333,21.5 41.5,21.5C 42.3339,20.2521 43.6672,19.5854 45.5,19.5C 48.4696,20.4257 51.4696,21.0924 54.5,21.5 Z"/></g>
<g><path style="opacity:1" fill="#d3d3d3" d="M 54.5,17.5 C 54.5,18.1667 54.5,18.8333 54.5,19.5C 54.5,20.1667 54.5,20.8333 54.5,21.5C 51.4696,21.0924 48.4696,20.4257 45.5,19.5C 43.6672,19.5854 42.3339,20.2521 41.5,21.5C 40.5,21.5 39.5,21.5 38.5,21.5C 38.2178,20.2223 37.5511,19.2223 36.5,18.5C 42.4638,17.6932 48.4638,17.3599 54.5,17.5 Z"/></g>
<g><path style="opacity:1" fill="#d0d0d0" d="M 54.5,19.5 C 57.5426,20.7438 58.876,23.0771 58.5,26.5C 56.9519,26.1788 56.2852,25.1788 56.5,23.5C 55.8333,22.8333 55.1667,22.1667 54.5,21.5C 54.5,20.8333 54.5,20.1667 54.5,19.5 Z"/></g>
<g><path style="opacity:1" fill="#e0e0e0" d="M 67.5,21.5 C 68.5,22.1667 69.5,22.8333 70.5,23.5C 68.8333,23.5 67.1667,23.5 65.5,23.5C 64.4324,22.5655 63.099,22.2322 61.5,22.5C 61.5,21.5 61.5,20.5 61.5,19.5C 63.7179,19.6138 65.7179,20.2804 67.5,21.5 Z"/></g>
<g><path style="opacity:1" fill="#dfdfdf" d="M 32.5,20.5 C 32.5,21.5 32.5,22.5 32.5,23.5C 31.1805,24.9418 29.5138,25.6085 27.5,25.5C 27.5,24.5 27.5,23.5 27.5,22.5C 28.7804,21.0687 30.4471,20.4021 32.5,20.5 Z"/></g>
<g><path style="opacity:1" fill="#c2c2c2" d="M 34.5,19.5 C 34.5,20.8333 34.5,22.1667 34.5,23.5C 36.4832,23.8432 37.8166,23.1765 38.5,21.5C 39.5,21.5 40.5,21.5 41.5,21.5C 41.5,22.1667 41.5,22.8333 41.5,23.5C 41.5,24.5 41.5,25.5 41.5,26.5C 39.2188,26.0773 37.5521,26.744 36.5,28.5C 35.8333,28.5 35.1667,28.5 34.5,28.5C 32.8333,28.5 31.1667,28.5 29.5,28.5C 28.1667,28.5 27.5,27.8333 27.5,26.5C 29.1667,26.5 30.8333,26.5 32.5,26.5C 32.5,25.5 32.5,24.5 32.5,23.5C 32.5,22.5 32.5,21.5 32.5,20.5C 32.8417,19.6618 33.5084,19.3284 34.5,19.5 Z"/></g>
<g><path style="opacity:1" fill="#dddddd" d="M 41.5,21.5 C 43.8333,21.5 46.1667,21.5 48.5,21.5C 48.2852,23.1788 48.9519,24.1788 50.5,24.5C 49.791,25.404 48.791,25.7373 47.5,25.5C 47.719,24.325 47.3857,23.325 46.5,22.5C 45.8589,23.9935 44.8589,24.9935 43.5,25.5C 43.5,24.1667 42.8333,23.5 41.5,23.5C 41.5,22.8333 41.5,22.1667 41.5,21.5 Z"/></g>
<g><path style="opacity:1" fill="#c6c6c6" d="M 67.5,19.5 C 70.9116,20.0749 73.9116,21.4082 76.5,23.5C 76.5,24.5 76.5,25.5 76.5,26.5C 75.1667,26.5 74.5,27.1667 74.5,28.5C 73.1667,28.5 71.8333,28.5 70.5,28.5C 70.5,26.8333 70.5,25.1667 70.5,23.5C 69.5,22.8333 68.5,22.1667 67.5,21.5C 67.5,20.8333 67.5,20.1667 67.5,19.5 Z"/></g>
<g><path style="opacity:0.93" fill="#cccccc" d="M 23.5,24.5 C 23.5,25.8333 24.1667,26.5 25.5,26.5C 25.5,27.1667 25.5,27.8333 25.5,28.5C 24.1667,28.5 23.5,29.1667 23.5,30.5C 22.0221,29.5525 21.0221,28.2191 20.5,26.5C 20.9731,25.0937 21.9731,24.427 23.5,24.5 Z"/></g>
<g><path style="opacity:1" fill="#cecece" d="M 50.5,24.5 C 52.1765,25.1834 52.8432,26.5168 52.5,28.5C 51.8333,28.5 51.1667,28.5 50.5,28.5C 48.4922,26.9174 46.1589,25.9174 43.5,25.5C 44.8589,24.9935 45.8589,23.9935 46.5,22.5C 47.3857,23.325 47.719,24.325 47.5,25.5C 48.791,25.7373 49.791,25.404 50.5,24.5 Z"/></g>
<g><path style="opacity:1" fill="#d2d2d2" d="M 50.5,24.5 C 52.2646,23.5386 54.2646,23.2053 56.5,23.5C 56.2852,25.1788 56.9519,26.1788 58.5,26.5C 60.7812,26.0773 62.4479,26.744 63.5,28.5C 62.1667,29.1667 60.8333,29.8333 59.5,30.5C 58.7784,30.0825 58.2784,29.4158 58,28.5C 57.7216,29.4158 57.2216,30.0825 56.5,30.5C 55.8166,28.8235 54.4832,28.1568 52.5,28.5C 52.8432,26.5168 52.1765,25.1834 50.5,24.5 Z"/></g>
<g><path style="opacity:1" fill="#d6d6d6" d="M 27.5,22.5 C 27.5,23.5 27.5,24.5 27.5,25.5C 29.5138,25.6085 31.1805,24.9418 32.5,23.5C 32.5,24.5 32.5,25.5 32.5,26.5C 30.8333,26.5 29.1667,26.5 27.5,26.5C 26.8333,26.5 26.1667,26.5 25.5,26.5C 24.1667,26.5 23.5,25.8333 23.5,24.5C 24.5137,23.3263 25.847,22.6596 27.5,22.5 Z"/></g>
<g><path style="opacity:1" fill="#c9c9c9" d="M 65.5,23.5 C 67.1667,23.5 68.8333,23.5 70.5,23.5C 70.5,25.1667 70.5,26.8333 70.5,28.5C 69.8333,28.5 69.1667,28.5 68.5,28.5C 68.1788,26.9519 67.1788,26.2852 65.5,26.5C 65.5,25.5 65.5,24.5 65.5,23.5 Z"/></g>
<g><path style="opacity:1" fill="#d0d0d0" d="M 25.5,26.5 C 26.1667,26.5 26.8333,26.5 27.5,26.5C 27.5,27.8333 28.1667,28.5 29.5,28.5C 28.8333,30.5 27.5,31.8333 25.5,32.5C 25.5,31.1667 25.5,29.8333 25.5,28.5C 25.5,27.8333 25.5,27.1667 25.5,26.5 Z"/></g>
<g><path style="opacity:1" fill="#c5c5c5" d="M 41.5,23.5 C 42.8333,23.5 43.5,24.1667 43.5,25.5C 46.1589,25.9174 48.4922,26.9174 50.5,28.5C 48.8333,28.5 47.1667,28.5 45.5,28.5C 44.1667,28.5 42.8333,28.5 41.5,28.5C 41.5,27.8333 41.5,27.1667 41.5,26.5C 41.5,25.5 41.5,24.5 41.5,23.5 Z"/></g>
<g><path style="opacity:1" fill="#e6e6e6" d="M 76.5,26.5 C 78.1788,26.2852 79.1788,26.9519 79.5,28.5C 79.5299,29.4972 79.0299,30.1639 78,30.5C 76.9231,29.5705 75.7564,28.9038 74.5,28.5C 74.5,27.1667 75.1667,26.5 76.5,26.5 Z"/></g>
<g><path style="opacity:1" fill="#d7d7d7" d="M 76.5,23.5 C 79.2948,24.063 81.6282,25.3963 83.5,27.5C 82.4324,28.4345 81.099,28.7678 79.5,28.5C 79.1788,26.9519 78.1788,26.2852 76.5,26.5C 76.5,25.5 76.5,24.5 76.5,23.5 Z"/></g>
<g><path style="opacity:1" fill="#d5d5d5" d="M 34.5,28.5 C 35.1667,28.5 35.8333,28.5 36.5,28.5C 36.5,29.8333 37.1667,30.5 38.5,30.5C 38.5,31.1667 38.5,31.8333 38.5,32.5C 37.8333,32.5 37.1667,32.5 36.5,32.5C 32.6266,32.334 31.9599,33.334 34.5,35.5C 33.1667,35.5 31.8333,35.5 30.5,35.5C 30.5,33.8333 30.5,32.1667 30.5,30.5C 32.4832,30.8432 33.8166,30.1765 34.5,28.5 Z"/></g>
<g><path style="opacity:1" fill="#dddddd" d="M 41.5,26.5 C 41.5,27.1667 41.5,27.8333 41.5,28.5C 40.2223,28.7822 39.2223,29.4489 38.5,30.5C 37.1667,30.5 36.5,29.8333 36.5,28.5C 37.5521,26.744 39.2188,26.0773 41.5,26.5 Z"/></g>
<g><path style="opacity:1" fill="#cccccc" d="M 41.5,28.5 C 42.8333,28.5 44.1667,28.5 45.5,28.5C 45.5,29.8333 45.5,31.1667 45.5,32.5C 44.5084,32.3284 43.8417,32.6618 43.5,33.5C 41.7085,33.634 40.0418,33.3007 38.5,32.5C 38.5,31.8333 38.5,31.1667 38.5,30.5C 39.2223,29.4489 40.2223,28.7822 41.5,28.5 Z"/></g>
<g><path style="opacity:1" fill="#dfdfdf" d="M 45.5,28.5 C 47.1667,28.5 48.8333,28.5 50.5,28.5C 51.1667,28.5 51.8333,28.5 52.5,28.5C 50.9562,31.248 50.2895,34.248 50.5,37.5C 49.8333,37.5 49.1667,37.5 48.5,37.5C 48.7373,36.209 48.404,35.209 47.5,34.5C 47.5,33.1667 46.8333,32.5 45.5,32.5C 45.5,31.1667 45.5,29.8333 45.5,28.5 Z"/></g>
<g><path style="opacity:1" fill="#e3e3e3" d="M 59.5,30.5 C 60.1667,31.1667 60.8333,31.8333 61.5,32.5C 61.5,33.1667 61.5,33.8333 61.5,34.5C 60.8333,34.5 60.1667,34.5 59.5,34.5C 57.4862,34.6085 55.8195,33.9418 54.5,32.5C 54.5,31.1667 55.1667,30.5 56.5,30.5C 57.2216,30.0825 57.7216,29.4158 58,28.5C 58.2784,29.4158 58.7784,30.0825 59.5,30.5 Z"/></g>
<g><path style="opacity:1" fill="#dddddd" d="M 63.5,28.5 C 64.1834,30.1765 65.5168,30.8432 67.5,30.5C 66.0821,32.3079 64.0821,32.9746 61.5,32.5C 60.8333,31.8333 60.1667,31.1667 59.5,30.5C 60.8333,29.8333 62.1667,29.1667 63.5,28.5 Z"/></g>
<g><path style="opacity:0.913" fill="#f3f3f3" d="M 83.5,27.5 C 84.8333,28.1667 85.8333,29.1667 86.5,30.5C 85.5,30.5 84.5,30.5 83.5,30.5C 83.5499,32.5901 82.5499,33.9234 80.5,34.5C 79.4763,33.1468 78.143,32.4802 76.5,32.5C 74.8235,31.8166 74.1568,30.4832 74.5,28.5C 75.7564,28.9038 76.9231,29.5705 78,30.5C 79.0299,30.1639 79.5299,29.4972 79.5,28.5C 81.099,28.7678 82.4324,28.4345 83.5,27.5 Z"/></g>
<g><path style="opacity:1" fill="#d1d1d1" d="M 20.5,26.5 C 21.0221,28.2191 22.0221,29.5525 23.5,30.5C 23.38,31.5862 22.7133,32.2528 21.5,32.5C 20.2867,32.2528 19.62,31.5862 19.5,30.5C 19.5,29.1667 18.8333,28.5 17.5,28.5C 17.9731,27.0937 18.9731,26.427 20.5,26.5 Z"/></g>
<g><path style="opacity:1" fill="#e2e2e2" d="M 29.5,28.5 C 31.1667,28.5 32.8333,28.5 34.5,28.5C 33.8166,30.1765 32.4832,30.8432 30.5,30.5C 30.5,32.1667 30.5,33.8333 30.5,35.5C 28.8333,35.5 27.1667,35.5 25.5,35.5C 25.5,34.5 25.5,33.5 25.5,32.5C 27.5,31.8333 28.8333,30.5 29.5,28.5 Z"/></g>
<g><path style="opacity:1" fill="#c7c7c7" d="M 52.5,28.5 C 54.4832,28.1568 55.8166,28.8235 56.5,30.5C 55.1667,30.5 54.5,31.1667 54.5,32.5C 53.032,33.7791 52.3653,35.4458 52.5,37.5C 53.8333,37.5 55.1667,37.5 56.5,37.5C 56.5,38.1667 56.5,38.8333 56.5,39.5C 53.9179,39.9746 51.9179,39.3079 50.5,37.5C 50.2895,34.248 50.9562,31.248 52.5,28.5 Z"/></g>
<g><path style="opacity:1" fill="#dcdcdc" d="M 86.5,30.5 C 88.5224,32.5313 90.1891,34.8646 91.5,37.5C 89.5544,38.0347 88.5544,39.368 88.5,41.5C 88.1667,41.5 87.8333,41.5 87.5,41.5C 87.5,40.1667 87.5,38.8333 87.5,37.5C 84.5641,36.5942 81.5641,35.9275 78.5,35.5C 78.5,34.1667 77.8333,33.5 76.5,33.5C 76.5,33.1667 76.5,32.8333 76.5,32.5C 78.143,32.4802 79.4763,33.1468 80.5,34.5C 82.5499,33.9234 83.5499,32.5901 83.5,30.5C 84.5,30.5 85.5,30.5 86.5,30.5 Z"/></g>
<g><path style="opacity:0.827" fill="#cfcfcf" d="M 17.5,28.5 C 18.8333,28.5 19.5,29.1667 19.5,30.5C 18.5028,30.4701 17.8361,30.9701 17.5,32C 17.9891,33.1385 18.3225,34.3052 18.5,35.5C 16.7179,36.7196 14.7179,37.3862 12.5,37.5C 11.5,37.5 10.5,37.5 9.5,37.5C 11.4528,33.8797 14.1195,30.8797 17.5,28.5 Z"/></g>
<g><path style="opacity:1" fill="#b5b5b5" d="M 25.5,28.5 C 25.5,29.8333 25.5,31.1667 25.5,32.5C 25.5,33.5 25.5,34.5 25.5,35.5C 24.8333,35.5 24.1667,35.5 23.5,35.5C 22.1667,35.5 20.8333,35.5 19.5,35.5C 19.1667,35.5 18.8333,35.5 18.5,35.5C 18.3225,34.3052 17.9891,33.1385 17.5,32C 17.8361,30.9701 18.5028,30.4701 19.5,30.5C 19.62,31.5862 20.2867,32.2528 21.5,32.5C 22.7133,32.2528 23.38,31.5862 23.5,30.5C 23.5,29.1667 24.1667,28.5 25.5,28.5 Z"/></g>
<g><path style="opacity:1" fill="#dddddd" d="M 54.5,32.5 C 55.8195,33.9418 57.4862,34.6085 59.5,34.5C 59.5,34.8333 59.5,35.1667 59.5,35.5C 57.8212,35.2852 56.8212,35.9519 56.5,37.5C 55.1667,37.5 53.8333,37.5 52.5,37.5C 52.3653,35.4458 53.032,33.7791 54.5,32.5 Z"/></g>
<g><path style="opacity:1" fill="#d1d1d1" d="M 67.5,30.5 C 67.8333,30.5 68.1667,30.5 68.5,30.5C 70.4832,30.1568 71.8166,30.8235 72.5,32.5C 70.1523,32.5923 68.4856,33.5923 67.5,35.5C 66.2652,35.2786 65.2652,34.6119 64.5,33.5C 63.5832,34.1272 62.5832,34.4606 61.5,34.5C 61.5,33.8333 61.5,33.1667 61.5,32.5C 64.0821,32.9746 66.0821,32.3079 67.5,30.5 Z"/></g>
<g><path style="opacity:1" fill="#dadada" d="M 36.5,32.5 C 37.1667,32.5 37.8333,32.5 38.5,32.5C 40.0418,33.3007 41.7085,33.634 43.5,33.5C 43.5,34.1667 43.5,34.8333 43.5,35.5C 43.5,36.1667 43.5,36.8333 43.5,37.5C 41.4091,36.1346 39.0758,35.4679 36.5,35.5C 36.5,34.5 36.5,33.5 36.5,32.5 Z"/></g>
<g><path style="opacity:1" fill="#adadad" d="M 45.5,32.5 C 46.8333,32.5 47.5,33.1667 47.5,34.5C 47.719,35.675 47.3857,36.675 46.5,37.5C 45.7348,36.3881 44.7348,35.7214 43.5,35.5C 43.5,34.8333 43.5,34.1667 43.5,33.5C 43.8417,32.6618 44.5084,32.3284 45.5,32.5 Z"/></g>
<g><path style="opacity:1" fill="#dddddd" d="M 72.5,32.5 C 73.1834,34.1765 74.5168,34.8432 76.5,34.5C 75.8333,35.1667 75.1667,35.8333 74.5,36.5C 72.2362,35.7814 69.9029,35.448 67.5,35.5C 68.4856,33.5923 70.1523,32.5923 72.5,32.5 Z"/></g>
<g><path style="opacity:1" fill="#dfdfdf" d="M 68.5,28.5 C 69.1667,28.5 69.8333,28.5 70.5,28.5C 71.8333,28.5 73.1667,28.5 74.5,28.5C 74.1568,30.4832 74.8235,31.8166 76.5,32.5C 76.5,32.8333 76.5,33.1667 76.5,33.5C 76.5,33.8333 76.5,34.1667 76.5,34.5C 74.5168,34.8432 73.1834,34.1765 72.5,32.5C 71.8166,30.8235 70.4832,30.1568 68.5,30.5C 68.5,29.8333 68.5,29.1667 68.5,28.5 Z"/></g>
<g><path style="opacity:1" fill="#ebebeb" d="M 18.5,35.5 C 18.8333,35.5 19.1667,35.5 19.5,35.5C 20.1667,36.8333 20.8333,38.1667 21.5,39.5C 19.8212,39.2852 18.8212,39.9519 18.5,41.5C 16.8863,39.9254 14.8863,39.2587 12.5,39.5C 12.5,38.8333 12.5,38.1667 12.5,37.5C 14.7179,37.3862 16.7179,36.7196 18.5,35.5 Z"/></g>
<g><path style="opacity:1" fill="#e7e7e7" d="M 23.5,35.5 C 24.1667,35.5 24.8333,35.5 25.5,35.5C 27.1667,35.5 28.8333,35.5 30.5,35.5C 31.8333,35.5 33.1667,35.5 34.5,35.5C 35.1834,37.1765 36.5168,37.8432 38.5,37.5C 38.5,38.1667 38.5,38.8333 38.5,39.5C 37.1667,39.5 35.8333,39.5 34.5,39.5C 34.87,43.1859 33.5367,44.1859 30.5,42.5C 29.791,41.596 28.791,41.2627 27.5,41.5C 27.5,40.1667 27.5,38.8333 27.5,37.5C 26.1667,37.5 24.8333,37.5 23.5,37.5C 23.5,36.8333 23.5,36.1667 23.5,35.5 Z"/></g>
<g><path style="opacity:1" fill="#bfbfbf" d="M 36.5,32.5 C 36.5,33.5 36.5,34.5 36.5,35.5C 39.0758,35.4679 41.4091,36.1346 43.5,37.5C 43.5,38.1667 43.5,38.8333 43.5,39.5C 43.6309,40.3764 43.2975,41.0431 42.5,41.5C 41.1186,40.1186 39.7853,38.7853 38.5,37.5C 36.5168,37.8432 35.1834,37.1765 34.5,35.5C 31.9599,33.334 32.6266,32.334 36.5,32.5 Z"/></g>
<g><path style="opacity:1" fill="#b0b0b0" d="M 67.5,35.5 C 68.5,36.8333 69.5,38.1667 70.5,39.5C 69.4479,41.256 67.7812,41.9227 65.5,41.5C 64.2804,39.7179 63.6138,37.7179 63.5,35.5C 62.1667,35.5 60.8333,35.5 59.5,35.5C 59.5,35.1667 59.5,34.8333 59.5,34.5C 60.1667,34.5 60.8333,34.5 61.5,34.5C 62.5832,34.4606 63.5832,34.1272 64.5,33.5C 65.2652,34.6119 66.2652,35.2786 67.5,35.5 Z"/></g>
<g><path style="opacity:1" fill="#d2d2d2" d="M 67.5,35.5 C 69.9029,35.448 72.2362,35.7814 74.5,36.5C 74.8308,38.3224 75.4975,39.9891 76.5,41.5C 77.0906,42.1515 77.7573,42.8182 78.5,43.5C 78.0431,44.2975 77.3764,44.6309 76.5,44.5C 75.1667,44.5 73.8333,44.5 72.5,44.5C 71.8333,44.5 71.1667,44.5 70.5,44.5C 70.5,44.1667 70.5,43.8333 70.5,43.5C 71.5862,43.38 72.2528,42.7133 72.5,41.5C 72.2528,40.2867 71.5862,39.62 70.5,39.5C 69.5,38.1667 68.5,36.8333 67.5,35.5 Z"/></g>
<g><path style="opacity:1" fill="#b2b2b2" d="M 76.5,33.5 C 77.8333,33.5 78.5,34.1667 78.5,35.5C 78.5,36.8333 78.5,38.1667 78.5,39.5C 78.5,40.8333 77.8333,41.5 76.5,41.5C 75.4975,39.9891 74.8308,38.3224 74.5,36.5C 75.1667,35.8333 75.8333,35.1667 76.5,34.5C 76.5,34.1667 76.5,33.8333 76.5,33.5 Z"/></g>
<g><path style="opacity:1" fill="#cbcbcb" d="M 78.5,35.5 C 81.5641,35.9275 84.5641,36.5942 87.5,37.5C 87.5,38.8333 87.5,40.1667 87.5,41.5C 86.1667,41.5 84.8333,41.5 83.5,41.5C 81.4458,41.6347 79.7791,40.968 78.5,39.5C 78.5,38.1667 78.5,36.8333 78.5,35.5 Z"/></g>
<g><path style="opacity:1" fill="#d2d2d2" d="M 19.5,35.5 C 20.8333,35.5 22.1667,35.5 23.5,35.5C 23.5,36.1667 23.5,36.8333 23.5,37.5C 24.1667,38.8333 24.8333,40.1667 25.5,41.5C 23.5168,41.8432 22.1834,41.1765 21.5,39.5C 20.8333,38.1667 20.1667,36.8333 19.5,35.5 Z"/></g>
<g><path style="opacity:1" fill="#cdcdcd" d="M 47.5,34.5 C 48.404,35.209 48.7373,36.209 48.5,37.5C 48.6716,38.4916 48.3382,39.1583 47.5,39.5C 46.8333,39.5 46.1667,39.5 45.5,39.5C 44.8333,39.5 44.1667,39.5 43.5,39.5C 43.5,38.8333 43.5,38.1667 43.5,37.5C 43.5,36.8333 43.5,36.1667 43.5,35.5C 44.7348,35.7214 45.7348,36.3881 46.5,37.5C 47.3857,36.675 47.719,35.675 47.5,34.5 Z"/></g>
<g><path style="opacity:1" fill="#cecece" d="M 48.5,37.5 C 49.1667,37.5 49.8333,37.5 50.5,37.5C 51.9179,39.3079 53.9179,39.9746 56.5,39.5C 58.4832,39.1568 59.8166,39.8235 60.5,41.5C 55.5839,39.4071 53.5839,41.0738 54.5,46.5C 52.901,46.7678 51.5676,46.4345 50.5,45.5C 49.791,44.596 48.791,44.2627 47.5,44.5C 47.5,42.8333 47.5,41.1667 47.5,39.5C 48.3382,39.1583 48.6716,38.4916 48.5,37.5 Z"/></g>
<g><path style="opacity:1" fill="#a3a3a3" d="M 59.5,35.5 C 60.8333,35.5 62.1667,35.5 63.5,35.5C 63.6138,37.7179 64.2804,39.7179 65.5,41.5C 64.8333,41.5 64.1667,41.5 63.5,41.5C 62.5,41.5 61.5,41.5 60.5,41.5C 59.8166,39.8235 58.4832,39.1568 56.5,39.5C 56.5,38.8333 56.5,38.1667 56.5,37.5C 56.8212,35.9519 57.8212,35.2852 59.5,35.5 Z"/></g>
<g><path style="opacity:1" fill="#e0e0e0" d="M 12.5,39.5 C 14.8863,39.2587 16.8863,39.9254 18.5,41.5C 19.4856,43.4077 21.1523,44.4077 23.5,44.5C 22.1667,45.8333 20.8333,47.1667 19.5,48.5C 18.5,48.5 17.5,48.5 16.5,48.5C 15.8333,48.5 15.1667,48.5 14.5,48.5C 13.7206,46.323 12.3873,44.6563 10.5,43.5C 10.1568,41.5168 10.8235,40.1834 12.5,39.5 Z"/></g>
<g><path style="opacity:1" fill="#e0e0e0" d="M 91.5,37.5 C 92.6948,39.7513 93.6948,42.0846 94.5,44.5C 93.8333,44.5 93.1667,44.5 92.5,44.5C 92.5,43.5 92.5,42.5 92.5,41.5C 91.1667,41.5 89.8333,41.5 88.5,41.5C 88.5544,39.368 89.5544,38.0347 91.5,37.5 Z"/></g>
<g><path style="opacity:1" fill="#bababa" d="M 70.5,39.5 C 71.5862,39.62 72.2528,40.2867 72.5,41.5C 72.2528,42.7133 71.5862,43.38 70.5,43.5C 68.1944,43.0074 65.861,42.6741 63.5,42.5C 63.5,42.1667 63.5,41.8333 63.5,41.5C 64.1667,41.5 64.8333,41.5 65.5,41.5C 67.7812,41.9227 69.4479,41.256 70.5,39.5 Z"/></g>
<g><path style="opacity:1" fill="#f0f0f0" d="M 21.5,39.5 C 22.1834,41.1765 23.5168,41.8432 25.5,41.5C 25.5,42.1667 25.5,42.8333 25.5,43.5C 24.5084,43.3284 23.8417,43.6618 23.5,44.5C 21.1523,44.4077 19.4856,43.4077 18.5,41.5C 18.8212,39.9519 19.8212,39.2852 21.5,39.5 Z"/></g>
<g><path style="opacity:1" fill="#e0e0e0" d="M 38.5,37.5 C 39.7853,38.7853 41.1186,40.1186 42.5,41.5C 43.2975,41.0431 43.6309,40.3764 43.5,39.5C 44.1667,39.5 44.8333,39.5 45.5,39.5C 45.6347,41.5542 44.968,43.2209 43.5,44.5C 41.1944,44.9926 38.861,45.3259 36.5,45.5C 37.1667,43.5 37.8333,41.5 38.5,39.5C 38.5,38.8333 38.5,38.1667 38.5,37.5 Z"/></g>
<g><path style="opacity:1" fill="#d7d7d7" d="M 45.5,39.5 C 46.1667,39.5 46.8333,39.5 47.5,39.5C 47.5,41.1667 47.5,42.8333 47.5,44.5C 48.791,44.2627 49.791,44.596 50.5,45.5C 48.9582,46.3007 47.2915,46.634 45.5,46.5C 45.5,45.1667 44.8333,44.5 43.5,44.5C 44.968,43.2209 45.6347,41.5542 45.5,39.5 Z"/></g>
<g><path style="opacity:1" fill="#d9d9d9" d="M 60.5,41.5 C 61.5,41.5 62.5,41.5 63.5,41.5C 63.5,41.8333 63.5,42.1667 63.5,42.5C 62.8333,42.5 62.1667,42.5 61.5,42.5C 58.2033,42.6317 56.5367,44.2984 56.5,47.5C 55.8333,47.1667 55.1667,46.8333 54.5,46.5C 53.5839,41.0738 55.5839,39.4071 60.5,41.5 Z"/></g>
<g><path style="opacity:1" fill="#c7c7c7" d="M 23.5,37.5 C 24.8333,37.5 26.1667,37.5 27.5,37.5C 27.5,38.8333 27.5,40.1667 27.5,41.5C 28.791,41.2627 29.791,41.596 30.5,42.5C 29.791,43.404 28.791,43.7373 27.5,43.5C 26.8333,43.5 26.1667,43.5 25.5,43.5C 25.5,42.8333 25.5,42.1667 25.5,41.5C 24.8333,40.1667 24.1667,38.8333 23.5,37.5 Z"/></g>
<g><path style="opacity:1" fill="#e3e3e3" d="M 61.5,42.5 C 61.1568,44.4832 61.8235,45.8166 63.5,46.5C 63.5,47.1667 63.5,47.8333 63.5,48.5C 61.8333,48.5 60.1667,48.5 58.5,48.5C 57.5084,48.6716 56.8417,48.3382 56.5,47.5C 56.5367,44.2984 58.2033,42.6317 61.5,42.5 Z"/></g>
<g><path style="opacity:1" fill="#b3b3b3" d="M 78.5,39.5 C 79.7791,40.968 81.4458,41.6347 83.5,41.5C 83.5,42.5 83.5,43.5 83.5,44.5C 81.1667,45.8333 78.8333,45.8333 76.5,44.5C 77.3764,44.6309 78.0431,44.2975 78.5,43.5C 77.7573,42.8182 77.0906,42.1515 76.5,41.5C 77.8333,41.5 78.5,40.8333 78.5,39.5 Z"/></g>
<g><path style="opacity:1" fill="#d8d8d8" d="M 9.5,37.5 C 10.5,37.5 11.5,37.5 12.5,37.5C 12.5,38.1667 12.5,38.8333 12.5,39.5C 10.8235,40.1834 10.1568,41.5168 10.5,43.5C 9.50838,43.3284 8.84171,43.6618 8.5,44.5C 7.84851,45.0906 7.18185,45.7573 6.5,46.5C 5.70245,46.0431 5.36912,45.3764 5.5,44.5C 6.0787,41.6689 7.41203,39.3356 9.5,37.5 Z"/></g>
<g><path style="opacity:1" fill="#cecece" d="M 38.5,39.5 C 37.8333,41.5 37.1667,43.5 36.5,45.5C 37.9264,46.3412 39.2597,47.3412 40.5,48.5C 39.7515,50.3325 38.7515,51.9991 37.5,53.5C 36.209,53.7373 35.209,53.404 34.5,52.5C 34.7214,51.2652 35.3881,50.2652 36.5,49.5C 35.4116,48.0656 34.0783,47.0656 32.5,46.5C 30.9891,47.5025 29.3224,48.1692 27.5,48.5C 27.5,46.8333 27.5,45.1667 27.5,43.5C 28.791,43.7373 29.791,43.404 30.5,42.5C 33.5367,44.1859 34.87,43.1859 34.5,39.5C 35.8333,39.5 37.1667,39.5 38.5,39.5 Z"/></g>
<g><path style="opacity:1" fill="#c1c1c1" d="M 83.5,41.5 C 84.8333,41.5 86.1667,41.5 87.5,41.5C 87.8333,41.5 88.1667,41.5 88.5,41.5C 89.8333,41.5 91.1667,41.5 92.5,41.5C 92.5,42.5 92.5,43.5 92.5,44.5C 89.5,44.5 86.5,44.5 83.5,44.5C 83.5,43.5 83.5,42.5 83.5,41.5 Z"/></g>
<g><path style="opacity:1" fill="#cecece" d="M 5.5,44.5 C 5.36912,45.3764 5.70245,46.0431 6.5,46.5C 7.18185,45.7573 7.84851,45.0906 8.5,44.5C 8.25939,46.8984 8.92606,48.8984 10.5,50.5C 10.7148,52.1788 10.0481,53.1788 8.5,53.5C 8.16667,53.5 7.83333,53.5 7.5,53.5C 6.45492,52.1224 5.12159,51.1224 3.5,50.5C 3.59495,48.2143 4.26162,46.2143 5.5,44.5 Z"/></g>
<g><path style="opacity:1" fill="#e1e1e1" d="M 23.5,44.5 C 23.8417,43.6618 24.5084,43.3284 25.5,43.5C 26.1667,43.5 26.8333,43.5 27.5,43.5C 27.5,45.1667 27.5,46.8333 27.5,48.5C 27.5,49.1667 27.5,49.8333 27.5,50.5C 25.5168,50.8432 24.1834,50.1765 23.5,48.5C 24.5862,48.38 25.2528,47.7133 25.5,46.5C 25.2528,45.2867 24.5862,44.62 23.5,44.5 Z"/></g>
<g><path style="opacity:0.949" fill="#d3d3d3" d="M 43.5,44.5 C 44.8333,44.5 45.5,45.1667 45.5,46.5C 43.9505,47.4408 42.2838,48.1075 40.5,48.5C 39.2597,47.3412 37.9264,46.3412 36.5,45.5C 38.861,45.3259 41.1944,44.9926 43.5,44.5 Z"/></g>
<g><path style="opacity:1" fill="#eaeaea" d="M 61.5,42.5 C 62.1667,42.5 62.8333,42.5 63.5,42.5C 65.861,42.6741 68.1944,43.0074 70.5,43.5C 70.5,43.8333 70.5,44.1667 70.5,44.5C 69.8333,45.8333 69.1667,47.1667 68.5,48.5C 67.2209,47.032 65.5542,46.3653 63.5,46.5C 61.8235,45.8166 61.1568,44.4832 61.5,42.5 Z"/></g>
<g><path style="opacity:1" fill="#cccccc" d="M 72.5,44.5 C 73.8333,44.5 75.1667,44.5 76.5,44.5C 78.8333,45.8333 81.1667,45.8333 83.5,44.5C 86.5,44.5 89.5,44.5 92.5,44.5C 93.1667,44.5 93.8333,44.5 94.5,44.5C 94.8333,45.8333 95.1667,47.1667 95.5,48.5C 93.1789,48.7711 91.1789,48.1045 89.5,46.5C 88.7025,46.9569 88.3691,47.6236 88.5,48.5C 86.6776,48.1692 85.0109,47.5025 83.5,46.5C 80.5,46.5 77.5,46.5 74.5,46.5C 73.1667,46.5 72.5,45.8333 72.5,44.5 Z"/></g>
<g><path style="opacity:1" fill="#d0d0d0" d="M 23.5,44.5 C 24.5862,44.62 25.2528,45.2867 25.5,46.5C 25.2528,47.7133 24.5862,48.38 23.5,48.5C 22.1667,48.5 20.8333,48.5 19.5,48.5C 20.8333,47.1667 22.1667,45.8333 23.5,44.5 Z"/></g>
<g><path style="opacity:1" fill="#f8f8f8" d="M 63.5,46.5 C 65.5542,46.3653 67.2209,47.032 68.5,48.5C 69.1667,48.5 69.8333,48.5 70.5,48.5C 70.1788,50.0481 69.1788,50.7148 67.5,50.5C 66.8333,50.5 66.1667,50.5 65.5,50.5C 65.5,49.1667 64.8333,48.5 63.5,48.5C 63.5,47.8333 63.5,47.1667 63.5,46.5 Z"/></g>
<g><path style="opacity:1" fill="#e0e0e0" d="M 70.5,44.5 C 71.1667,44.5 71.8333,44.5 72.5,44.5C 72.5,45.8333 73.1667,46.5 74.5,46.5C 74.5,47.8333 73.8333,48.5 72.5,48.5C 71.8333,48.5 71.1667,48.5 70.5,48.5C 69.8333,48.5 69.1667,48.5 68.5,48.5C 69.1667,47.1667 69.8333,45.8333 70.5,44.5 Z"/></g>
<g><path style="opacity:1" fill="#d0d0d0" d="M 74.5,46.5 C 77.5,46.5 80.5,46.5 83.5,46.5C 83.5,47.1667 83.5,47.8333 83.5,48.5C 81.5393,49.4602 79.8726,50.7935 78.5,52.5C 77.1667,52.5 75.8333,52.5 74.5,52.5C 73.8333,51.1667 73.1667,49.8333 72.5,48.5C 73.8333,48.5 74.5,47.8333 74.5,46.5 Z"/></g>
<g><path style="opacity:1" fill="#cdcdcd" d="M 10.5,43.5 C 12.3873,44.6563 13.7206,46.323 14.5,48.5C 13.1667,49.1667 11.8333,49.8333 10.5,50.5C 8.92606,48.8984 8.25939,46.8984 8.5,44.5C 8.84171,43.6618 9.50838,43.3284 10.5,43.5 Z"/></g>
<g><path style="opacity:1" fill="#d9d9d9" d="M 14.5,48.5 C 15.1667,48.5 15.8333,48.5 16.5,48.5C 16.7822,49.7777 17.4489,50.7777 18.5,51.5C 16.8235,52.1834 16.1568,53.5168 16.5,55.5C 15.1667,55.5 13.8333,55.5 12.5,55.5C 10.5168,55.8432 9.18342,55.1765 8.5,53.5C 10.0481,53.1788 10.7148,52.1788 10.5,50.5C 11.8333,49.8333 13.1667,49.1667 14.5,48.5 Z"/></g>
<g><path style="opacity:1" fill="#b9b9b9" d="M 16.5,48.5 C 17.5,48.5 18.5,48.5 19.5,48.5C 20.8333,48.5 22.1667,48.5 23.5,48.5C 24.1834,50.1765 25.5168,50.8432 27.5,50.5C 26.8166,52.1765 25.4832,52.8432 23.5,52.5C 21.5853,52.7845 19.9187,52.4511 18.5,51.5C 17.4489,50.7777 16.7822,49.7777 16.5,48.5 Z"/></g>
<g><path style="opacity:1" fill="#e8e8e8" d="M 32.5,46.5 C 32.5,48.5 32.5,50.5 32.5,52.5C 31.8333,52.5 31.1667,52.5 30.5,52.5C 29.2223,52.2178 28.2223,51.5511 27.5,50.5C 27.5,49.8333 27.5,49.1667 27.5,48.5C 29.3224,48.1692 30.9891,47.5025 32.5,46.5 Z"/></g>
<g><path style="opacity:1" fill="#dadada" d="M 32.5,46.5 C 34.0783,47.0656 35.4116,48.0656 36.5,49.5C 35.3881,50.2652 34.7214,51.2652 34.5,52.5C 33.8333,52.5 33.1667,52.5 32.5,52.5C 32.5,50.5 32.5,48.5 32.5,46.5 Z"/></g>
<g><path style="opacity:1" fill="#d7d7d7" d="M 58.5,48.5 C 60.1667,48.5 61.8333,48.5 63.5,48.5C 64.8333,48.5 65.5,49.1667 65.5,50.5C 64.2652,50.7214 63.2652,51.3881 62.5,52.5C 61.7348,51.3881 60.7348,50.7214 59.5,50.5C 58.6618,50.1583 58.3284,49.4916 58.5,48.5 Z"/></g>
<g><path style="opacity:1" fill="#e9e9e9" d="M 83.5,46.5 C 85.0109,47.5025 86.6776,48.1692 88.5,48.5C 89.6737,49.5137 90.3404,50.847 90.5,52.5C 88.2627,51.551 85.9294,50.8844 83.5,50.5C 83.5,49.8333 83.5,49.1667 83.5,48.5C 83.5,47.8333 83.5,47.1667 83.5,46.5 Z"/></g>
<g><path style="opacity:1" fill="#dadada" d="M 95.5,48.5 C 95.5,49.8333 95.5,51.1667 95.5,52.5C 95.1667,52.5 94.8333,52.5 94.5,52.5C 93.1667,52.5 91.8333,52.5 90.5,52.5C 90.3404,50.847 89.6737,49.5137 88.5,48.5C 88.3691,47.6236 88.7025,46.9569 89.5,46.5C 91.1789,48.1045 93.1789,48.7711 95.5,48.5 Z"/></g>
<g><path style="opacity:1" fill="#e5e5e5" d="M 83.5,48.5 C 83.5,49.1667 83.5,49.8333 83.5,50.5C 84.5025,52.0109 85.1692,53.6776 85.5,55.5C 84.8333,55.5 84.1667,55.5 83.5,55.5C 81.4687,55.0276 79.8021,54.0276 78.5,52.5C 79.8726,50.7935 81.5393,49.4602 83.5,48.5 Z"/></g>
<g><path style="opacity:1" fill="#dcdcdc" d="M 83.5,50.5 C 85.9294,50.8844 88.2627,51.551 90.5,52.5C 89.365,53.4745 88.365,54.6412 87.5,56C 88.5768,56.4696 89.5768,56.3029 90.5,55.5C 89.4479,57.256 87.7812,57.9227 85.5,57.5C 85.5,56.8333 85.5,56.1667 85.5,55.5C 85.1692,53.6776 84.5025,52.0109 83.5,50.5 Z"/></g>
<g><path style="opacity:1" fill="#e2e2e2" d="M 18.5,51.5 C 19.9187,52.4511 21.5853,52.7845 23.5,52.5C 23.5,52.8333 23.5,53.1667 23.5,53.5C 23.719,54.675 23.3857,55.675 22.5,56.5C 21.2638,55.7542 19.9305,55.4208 18.5,55.5C 18.2322,57.099 18.5655,58.4324 19.5,59.5C 20.8333,59.5 21.5,60.1667 21.5,61.5C 21.573,63.0269 20.9063,64.0269 19.5,64.5C 19.6716,63.5084 19.3382,62.8417 18.5,62.5C 17.0652,61.2102 16.0652,59.5435 15.5,57.5C 14.5344,59.396 14.2011,61.396 14.5,63.5C 13.1667,63.8333 11.8333,64.1667 10.5,64.5C 10.8308,62.6776 11.4975,61.0109 12.5,59.5C 12.5,58.1667 12.5,56.8333 12.5,55.5C 13.8333,55.5 15.1667,55.5 16.5,55.5C 16.1568,53.5168 16.8235,52.1834 18.5,51.5 Z"/></g>
<g><path style="opacity:1" fill="#c1c1c1" d="M 27.5,50.5 C 28.2223,51.5511 29.2223,52.2178 30.5,52.5C 30.5,54.1667 30.5,55.8333 30.5,57.5C 28.8333,57.5 27.1667,57.5 25.5,57.5C 25.8432,55.5168 25.1765,54.1834 23.5,53.5C 23.5,53.1667 23.5,52.8333 23.5,52.5C 25.4832,52.8432 26.8166,52.1765 27.5,50.5 Z"/></g>
<g><path style="opacity:1" fill="#cacaca" d="M 59.5,50.5 C 60.7348,50.7214 61.7348,51.3881 62.5,52.5C 63.2652,51.3881 64.2652,50.7214 65.5,50.5C 66.1667,50.5 66.8333,50.5 67.5,50.5C 67.5,51.1667 67.5,51.8333 67.5,52.5C 66.7109,52.7828 66.0442,53.2828 65.5,54C 67.5064,54.0826 68.5064,54.5826 68.5,55.5C 67.5,55.5 66.5,55.5 65.5,55.5C 65.3651,58.4175 66.0318,61.0842 67.5,63.5C 67.1583,64.3382 66.4916,64.6716 65.5,64.5C 65.1583,63.6618 64.4916,63.3284 63.5,63.5C 64.0356,60.3019 63.369,57.6353 61.5,55.5C 61.1075,53.7162 60.4408,52.0495 59.5,50.5 Z"/></g>
<g><path style="opacity:1" fill="#e5e5e5" d="M 70.5,48.5 C 71.1667,48.5 71.8333,48.5 72.5,48.5C 73.1667,49.8333 73.8333,51.1667 74.5,52.5C 74.5,53.8333 73.8333,54.5 72.5,54.5C 71.4479,52.744 69.7812,52.0773 67.5,52.5C 67.5,51.8333 67.5,51.1667 67.5,50.5C 69.1788,50.7148 70.1788,50.0481 70.5,48.5 Z"/></g>
<g><path style="opacity:0.885" fill="#e3e3e3" d="M 30.5,52.5 C 31.1667,52.5 31.8333,52.5 32.5,52.5C 33.1667,52.5 33.8333,52.5 34.5,52.5C 35.209,53.404 36.209,53.7373 37.5,53.5C 36.8333,55.5 36.1667,57.5 35.5,59.5C 33.2188,59.9227 31.5521,59.256 30.5,57.5C 30.5,55.8333 30.5,54.1667 30.5,52.5 Z"/></g>
<g><path style="opacity:1" fill="#d9d9d9" d="M 74.5,52.5 C 75.8333,52.5 77.1667,52.5 78.5,52.5C 79.8021,54.0276 81.4687,55.0276 83.5,55.5C 82.1667,55.5 80.8333,55.5 79.5,55.5C 78.2209,56.968 76.5542,57.6347 74.5,57.5C 74.2178,56.2223 73.5511,55.2223 72.5,54.5C 73.8333,54.5 74.5,53.8333 74.5,52.5 Z"/></g>
<g><path style="opacity:1" fill="#e0e0e0" d="M 3.5,50.5 C 5.12159,51.1224 6.45492,52.1224 7.5,53.5C 6.41383,53.62 5.74716,54.2867 5.5,55.5C 6.22547,56.8669 6.89213,58.2003 7.5,59.5C 6.16667,59.5 4.83333,59.5 3.5,59.5C 3.5,56.5 3.5,53.5 3.5,50.5 Z"/></g>
<g><path style="opacity:1" fill="#f2f2f2" d="M 7.5,53.5 C 7.83333,53.5 8.16667,53.5 8.5,53.5C 9.18342,55.1765 10.5168,55.8432 12.5,55.5C 12.5,56.8333 12.5,58.1667 12.5,59.5C 10.8333,59.5 9.16667,59.5 7.5,59.5C 6.89213,58.2003 6.22547,56.8669 5.5,55.5C 5.74716,54.2867 6.41383,53.62 7.5,53.5 Z"/></g>
<g><path style="opacity:1" fill="#e0e0e0" d="M 23.5,53.5 C 25.1765,54.1834 25.8432,55.5168 25.5,57.5C 25.5,58.1667 25.5,58.8333 25.5,59.5C 24.2003,58.8921 22.8669,58.2255 21.5,57.5C 20.2867,57.7472 19.62,58.4138 19.5,59.5C 18.5655,58.4324 18.2322,57.099 18.5,55.5C 19.9305,55.4208 21.2638,55.7542 22.5,56.5C 23.3857,55.675 23.719,54.675 23.5,53.5 Z"/></g>
<g><path style="opacity:1" fill="#c3c3c3" d="M 67.5,52.5 C 69.7812,52.0773 71.4479,52.744 72.5,54.5C 73.5511,55.2223 74.2178,56.2223 74.5,57.5C 74.5,58.8333 73.8333,59.5 72.5,59.5C 71.8333,56.8333 71.1667,56.8333 70.5,59.5C 68.8235,58.8166 68.1568,57.4832 68.5,55.5C 68.5064,54.5826 67.5064,54.0826 65.5,54C 66.0442,53.2828 66.7109,52.7828 67.5,52.5 Z"/></g>
<g><path style="opacity:1" fill="#d0d0d0" d="M 90.5,52.5 C 91.8333,52.5 93.1667,52.5 94.5,52.5C 94.7852,54.288 94.4519,55.9547 93.5,57.5C 92.7348,56.3881 91.7348,55.7214 90.5,55.5C 89.5768,56.3029 88.5768,56.4696 87.5,56C 88.365,54.6412 89.365,53.4745 90.5,52.5 Z"/></g>
<g><path style="opacity:1" fill="#cbcbcb" d="M 25.5,59.5 C 25.5,60.1667 25.5,60.8333 25.5,61.5C 24.1667,61.5 22.8333,61.5 21.5,61.5C 21.5,60.1667 20.8333,59.5 19.5,59.5C 19.62,58.4138 20.2867,57.7472 21.5,57.5C 22.8669,58.2255 24.2003,58.8921 25.5,59.5 Z"/></g>
<g><path style="opacity:1" fill="#d1d1d1" d="M 25.5,57.5 C 27.1667,57.5 28.8333,57.5 30.5,57.5C 31.5521,59.256 33.2188,59.9227 35.5,59.5C 35.5,60.1667 35.5,60.8333 35.5,61.5C 33.2188,61.0773 31.5521,61.744 30.5,63.5C 29.8333,63.5 29.1667,63.5 28.5,63.5C 28.1788,61.9519 27.1788,61.2852 25.5,61.5C 25.5,60.8333 25.5,60.1667 25.5,59.5C 25.5,58.8333 25.5,58.1667 25.5,57.5 Z"/></g>
<g><path style="opacity:1" fill="#494949" d="M 72.5,59.5 C 71.8333,59.5 71.1667,59.5 70.5,59.5C 71.1667,56.8333 71.8333,56.8333 72.5,59.5 Z"/></g>
<g><path style="opacity:1" fill="#d8d8d8" d="M 79.5,55.5 C 80.8333,56.8333 82.1667,58.1667 83.5,59.5C 81.4458,59.3653 79.7791,60.032 78.5,61.5C 77.1667,61.5 75.8333,61.5 74.5,61.5C 74.8308,63.3224 75.4975,64.9891 76.5,66.5C 75.1667,66.5 73.8333,66.5 72.5,66.5C 72.5198,64.857 71.8532,63.5237 70.5,62.5C 71.2427,61.8182 71.9094,61.1515 72.5,60.5C 72.5,60.1667 72.5,59.8333 72.5,59.5C 73.8333,59.5 74.5,58.8333 74.5,57.5C 76.5542,57.6347 78.2209,56.968 79.5,55.5 Z"/></g>
<g><path style="opacity:1" fill="#c9c9c9" d="M 79.5,55.5 C 80.8333,55.5 82.1667,55.5 83.5,55.5C 84.1667,55.5 84.8333,55.5 85.5,55.5C 85.5,56.1667 85.5,56.8333 85.5,57.5C 85.5,58.1667 85.5,58.8333 85.5,59.5C 84.8333,59.5 84.1667,59.5 83.5,59.5C 82.1667,58.1667 80.8333,56.8333 79.5,55.5 Z"/></g>
<g><path style="opacity:1" fill="#e5e5e5" d="M 94.5,52.5 C 94.8333,52.5 95.1667,52.5 95.5,52.5C 96.3686,54.717 96.702,57.0504 96.5,59.5C 93.3463,60.0946 90.3463,60.0946 87.5,59.5C 86.8333,59.5 86.1667,59.5 85.5,59.5C 85.5,58.8333 85.5,58.1667 85.5,57.5C 87.7812,57.9227 89.4479,57.256 90.5,55.5C 91.7348,55.7214 92.7348,56.3881 93.5,57.5C 94.4519,55.9547 94.7852,54.288 94.5,52.5 Z"/></g>
<g><path style="opacity:0.482" fill="#e4e4e4" d="M 61.5,55.5 C 63.369,57.6353 64.0356,60.3019 63.5,63.5C 62.8333,63.8333 62.1667,64.1667 61.5,64.5C 61.5,61.5 61.5,58.5 61.5,55.5 Z"/></g>
<g><path style="opacity:1" fill="#dfdfdf" d="M 68.5,55.5 C 68.1568,57.4832 68.8235,58.8166 70.5,59.5C 71.1667,59.5 71.8333,59.5 72.5,59.5C 72.5,59.8333 72.5,60.1667 72.5,60.5C 70.0274,60.0882 68.6941,61.0882 68.5,63.5C 68.1667,63.5 67.8333,63.5 67.5,63.5C 66.0318,61.0842 65.3651,58.4175 65.5,55.5C 66.5,55.5 67.5,55.5 68.5,55.5 Z"/></g>
<g><path style="opacity:1" fill="#c3c3c3" d="M 83.5,59.5 C 84.1667,59.5 84.8333,59.5 85.5,59.5C 86.1667,59.5 86.8333,59.5 87.5,59.5C 87.5,60.8333 87.5,62.1667 87.5,63.5C 88.5,63.5 89.5,63.5 90.5,63.5C 90.5,64.5 90.5,65.5 90.5,66.5C 92.1667,66.5 93.8333,66.5 95.5,66.5C 95.1667,67.1667 94.8333,67.8333 94.5,68.5C 93.8333,68.5 93.1667,68.5 92.5,68.5C 90.8333,68.5 89.1667,68.5 87.5,68.5C 86.7206,66.323 85.3873,64.6563 83.5,63.5C 81.2188,63.9227 79.5521,63.256 78.5,61.5C 79.7791,60.032 81.4458,59.3653 83.5,59.5 Z"/></g>
<g><path style="opacity:1" fill="#d5d5d5" d="M 87.5,59.5 C 90.3463,60.0946 93.3463,60.0946 96.5,59.5C 96.1667,60.8333 95.8333,62.1667 95.5,63.5C 93.9008,62.438 92.2341,62.438 90.5,63.5C 89.5,63.5 88.5,63.5 87.5,63.5C 87.5,62.1667 87.5,60.8333 87.5,59.5 Z"/></g>
<g><path style="opacity:1" fill="#e7e7e7" d="M 72.5,60.5 C 71.9094,61.1515 71.2427,61.8182 70.5,62.5C 71.8532,63.5237 72.5198,64.857 72.5,66.5C 70.8235,67.1834 70.1568,68.5168 70.5,70.5C 70.1667,70.5 69.8333,70.5 69.5,70.5C 69.3259,68.139 68.9926,65.8056 68.5,63.5C 68.6941,61.0882 70.0274,60.0882 72.5,60.5 Z"/></g>
<g><path style="opacity:1" fill="#d1d1d1" d="M 18.5,62.5 C 18.8693,64.9935 18.2027,65.6602 16.5,64.5C 16.1583,63.6618 15.4916,63.3284 14.5,63.5C 14.2011,61.396 14.5344,59.396 15.5,57.5C 16.0652,59.5435 17.0652,61.2102 18.5,62.5 Z"/></g>
<g><path style="opacity:1" fill="#d6d6d6" d="M 21.5,61.5 C 22.8333,61.5 24.1667,61.5 25.5,61.5C 27.1788,61.2852 28.1788,61.9519 28.5,63.5C 27.8501,63.1961 27.1835,62.8627 26.5,62.5C 25.7348,63.6119 24.7348,64.2786 23.5,64.5C 21.965,65.3543 20.6316,65.3543 19.5,64.5C 20.9063,64.0269 21.573,63.0269 21.5,61.5 Z"/></g>
<g><path style="opacity:1" fill="#dddddd" d="M 28.5,63.5 C 29.1667,63.5 29.8333,63.5 30.5,63.5C 28.6216,64.5324 26.9549,65.8657 25.5,67.5C 24.8333,67.5 24.1667,67.5 23.5,67.5C 23.5,66.5 23.5,65.5 23.5,64.5C 24.7348,64.2786 25.7348,63.6119 26.5,62.5C 27.1835,62.8627 27.8501,63.1961 28.5,63.5 Z"/></g>
<g><path style="opacity:1" fill="#e5e5e5" d="M 35.5,61.5 C 35.5,63.5 35.5,65.5 35.5,67.5C 32.1667,67.5 28.8333,67.5 25.5,67.5C 26.9549,65.8657 28.6216,64.5324 30.5,63.5C 31.5521,61.744 33.2188,61.0773 35.5,61.5 Z"/></g>
<g><path style="opacity:1" fill="#cacaca" d="M 78.5,61.5 C 79.5521,63.256 81.2188,63.9227 83.5,63.5C 83.5,63.8333 83.5,64.1667 83.5,64.5C 80.9242,64.4679 78.5909,65.1346 76.5,66.5C 75.4975,64.9891 74.8308,63.3224 74.5,61.5C 75.8333,61.5 77.1667,61.5 78.5,61.5 Z"/></g>
<g><path style="opacity:1" fill="#9e9e9e" d="M 95.5,63.5 C 95.5,64.5 95.5,65.5 95.5,66.5C 93.8333,66.5 92.1667,66.5 90.5,66.5C 90.5,65.5 90.5,64.5 90.5,63.5C 92.2341,62.438 93.9008,62.438 95.5,63.5 Z"/></g>
<g><path style="opacity:1" fill="#ececec" d="M 3.5,59.5 C 4.83333,59.5 6.16667,59.5 7.5,59.5C 7.5,61.1667 7.5,62.8333 7.5,64.5C 6.16667,64.5 4.83333,64.5 3.5,64.5C 3.5,62.8333 3.5,61.1667 3.5,59.5 Z"/></g>
<g><path style="opacity:1" fill="#d4d4d4" d="M 7.5,59.5 C 9.16667,59.5 10.8333,59.5 12.5,59.5C 11.4975,61.0109 10.8308,62.6776 10.5,64.5C 11.5511,65.2223 12.2178,66.2223 12.5,67.5C 9.5,67.5 6.5,67.5 3.5,67.5C 3.5,66.5 3.5,65.5 3.5,64.5C 4.83333,64.5 6.16667,64.5 7.5,64.5C 7.5,62.8333 7.5,61.1667 7.5,59.5 Z"/></g>
<g><path style="opacity:1" fill="#dfdfdf" d="M 14.5,63.5 C 15.4916,63.3284 16.1583,63.6618 16.5,64.5C 16.7822,65.7777 17.4489,66.7777 18.5,67.5C 16.5,67.5 14.5,67.5 12.5,67.5C 12.2178,66.2223 11.5511,65.2223 10.5,64.5C 11.8333,64.1667 13.1667,63.8333 14.5,63.5 Z"/></g>
<g><path style="opacity:1" fill="#d2d2d2" d="M 18.5,62.5 C 19.3382,62.8417 19.6716,63.5084 19.5,64.5C 20.6316,65.3543 21.965,65.3543 23.5,64.5C 23.5,65.5 23.5,66.5 23.5,67.5C 21.8333,67.5 20.1667,67.5 18.5,67.5C 17.4489,66.7777 16.7822,65.7777 16.5,64.5C 18.2027,65.6602 18.8693,64.9935 18.5,62.5 Z"/></g>
<g><path style="opacity:1" fill="#dedede" d="M 67.5,63.5 C 67.8333,63.5 68.1667,63.5 68.5,63.5C 68.9926,65.8056 69.3259,68.139 69.5,70.5C 68.8333,70.5 68.1667,70.5 67.5,70.5C 66.2804,68.7179 65.6138,66.7179 65.5,64.5C 66.4916,64.6716 67.1583,64.3382 67.5,63.5 Z"/></g>
<g><path style="opacity:0.869" fill="#d3d3d3" d="M 63.5,63.5 C 64.4916,63.3284 65.1583,63.6618 65.5,64.5C 63.6921,65.9179 63.0254,67.9179 63.5,70.5C 62.1667,70.5 60.8333,70.5 59.5,70.5C 59.9707,68.4214 60.6373,66.4214 61.5,64.5C 62.1667,64.1667 62.8333,63.8333 63.5,63.5 Z"/></g>
<g><path style="opacity:1" fill="#d1d1d1" d="M 83.5,64.5 C 82.1003,66.0163 80.767,67.6829 79.5,69.5C 81.396,70.4656 83.396,70.7989 85.5,70.5C 84.4855,71.7647 82.9855,72.4313 81,72.5C 78.6591,72.1705 76.4924,71.5038 74.5,70.5C 75.1667,69.1667 75.8333,67.8333 76.5,66.5C 78.5909,65.1346 80.9242,64.4679 83.5,64.5 Z"/></g>
<g><path style="opacity:1" fill="#e5e5e5" d="M 83.5,63.5 C 85.3873,64.6563 86.7206,66.323 87.5,68.5C 86.6618,68.8417 86.3284,69.5084 86.5,70.5C 86.1667,70.5 85.8333,70.5 85.5,70.5C 83.396,70.7989 81.396,70.4656 79.5,69.5C 80.767,67.6829 82.1003,66.0163 83.5,64.5C 83.5,64.1667 83.5,63.8333 83.5,63.5 Z"/></g>
<g><path style="opacity:1" fill="#efefef" d="M 72.5,66.5 C 73.8333,66.5 75.1667,66.5 76.5,66.5C 75.8333,67.8333 75.1667,69.1667 74.5,70.5C 73.1667,70.5 71.8333,70.5 70.5,70.5C 70.1568,68.5168 70.8235,67.1834 72.5,66.5 Z"/></g>
<g><path style="opacity:1" fill="#f0f0f0" d="M 87.5,68.5 C 89.1667,68.5 90.8333,68.5 92.5,68.5C 92.7852,70.288 92.4519,71.9547 91.5,73.5C 90.6143,72.675 90.281,71.675 90.5,70.5C 89.1667,70.5 87.8333,70.5 86.5,70.5C 86.3284,69.5084 86.6618,68.8417 87.5,68.5 Z"/></g>
<g><path style="opacity:1" fill="#ececec" d="M 65.5,64.5 C 65.6138,66.7179 66.2804,68.7179 67.5,70.5C 67.38,71.5862 66.7133,72.2528 65.5,72.5C 64.2867,72.2528 63.62,71.5862 63.5,70.5C 63.0254,67.9179 63.6921,65.9179 65.5,64.5 Z"/></g>
<g><path style="opacity:1" fill="#cecece" d="M 59.5,70.5 C 60.8333,70.5 62.1667,70.5 63.5,70.5C 63.62,71.5862 64.2867,72.2528 65.5,72.5C 66.7133,72.2528 67.38,71.5862 67.5,70.5C 68.1667,70.5 68.8333,70.5 69.5,70.5C 69.8333,70.5 70.1667,70.5 70.5,70.5C 71.8333,70.5 73.1667,70.5 74.5,70.5C 74.2623,73.0685 72.929,74.7352 70.5,75.5C 69.791,74.596 68.791,74.2627 67.5,74.5C 67.0831,73.8761 66.4164,73.5427 65.5,73.5C 64.1331,74.2255 62.7997,74.8921 61.5,75.5C 61.5,74.5 61.5,73.5 61.5,72.5C 60.5,72.5 59.5,72.5 58.5,72.5C 58.3284,71.5084 58.6618,70.8417 59.5,70.5 Z"/></g>
<g><path style="opacity:1" fill="#dfdfdf" d="M 58.5,72.5 C 59.5,72.5 60.5,72.5 61.5,72.5C 61.5,73.5 61.5,74.5 61.5,75.5C 61.5,76.1667 61.5,76.8333 61.5,77.5C 60.1667,77.5 59.5,78.1667 59.5,79.5C 59.1667,79.5 58.8333,79.5 58.5,79.5C 57.8333,78.1667 57.1667,76.8333 56.5,75.5C 56.427,73.9731 57.0937,72.9731 58.5,72.5 Z"/></g>
<g><path style="opacity:1" fill="#efefef" d="M 85.5,73.5 C 84.1938,74.4674 83.5271,75.8007 83.5,77.5C 82.1667,77.5 80.8333,77.5 79.5,77.5C 79.5,76.8333 79.5,76.1667 79.5,75.5C 80.9179,73.6921 82.9179,73.0254 85.5,73.5 Z"/></g>
<g><path style="opacity:1" fill="#dedede" d="M 74.5,70.5 C 76.4924,71.5038 78.6591,72.1705 81,72.5C 82.9855,72.4313 84.4855,71.7647 85.5,70.5C 85.8333,70.5 86.1667,70.5 86.5,70.5C 86.7373,71.791 86.404,72.791 85.5,73.5C 82.9179,73.0254 80.9179,73.6921 79.5,75.5C 76.6256,76.0974 74.2923,77.4307 72.5,79.5C 72.5,80.1667 72.5,80.8333 72.5,81.5C 72.5,82.5 72.5,83.5 72.5,84.5C 71.8333,84.5 71.1667,84.5 70.5,84.5C 70.5,83.5 70.5,82.5 70.5,81.5C 70.5,79.5 70.5,77.5 70.5,75.5C 72.929,74.7352 74.2623,73.0685 74.5,70.5 Z"/></g>
<g><path style="opacity:1" fill="#cbcbcb" d="M 67.5,74.5 C 66.0772,76.5449 64.0772,77.5449 61.5,77.5C 61.5,76.8333 61.5,76.1667 61.5,75.5C 62.7997,74.8921 64.1331,74.2255 65.5,73.5C 66.4164,73.5427 67.0831,73.8761 67.5,74.5 Z"/></g>
<g><path style="opacity:1" fill="#efefef" d="M 67.5,74.5 C 68.791,74.2627 69.791,74.596 70.5,75.5C 70.5,77.5 70.5,79.5 70.5,81.5C 68.1667,81.5 65.8333,81.5 63.5,81.5C 62.8166,79.8235 61.4832,79.1568 59.5,79.5C 59.5,78.1667 60.1667,77.5 61.5,77.5C 64.0772,77.5449 66.0772,76.5449 67.5,74.5 Z"/></g>
<g><path style="opacity:1" fill="#d7d7d7" d="M 92.5,68.5 C 93.1667,68.5 93.8333,68.5 94.5,68.5C 94.0951,71.7146 93.0951,74.7146 91.5,77.5C 88.9179,77.0254 86.9179,77.6921 85.5,79.5C 84.8333,79.5 84.1667,79.5 83.5,79.5C 83.5,78.8333 83.5,78.1667 83.5,77.5C 83.5271,75.8007 84.1938,74.4674 85.5,73.5C 86.404,72.791 86.7373,71.791 86.5,70.5C 87.8333,70.5 89.1667,70.5 90.5,70.5C 90.281,71.675 90.6143,72.675 91.5,73.5C 92.4519,71.9547 92.7852,70.288 92.5,68.5 Z"/></g>
<g><path style="opacity:1" fill="#e7e7e7" d="M 79.5,75.5 C 79.5,76.1667 79.5,76.8333 79.5,77.5C 78.6618,77.8417 78.3284,78.5084 78.5,79.5C 76.5,79.5 74.5,79.5 72.5,79.5C 74.2923,77.4307 76.6256,76.0974 79.5,75.5 Z"/></g>
<g><path style="opacity:1" fill="#e2e2e2" d="M 79.5,77.5 C 80.8333,77.5 82.1667,77.5 83.5,77.5C 83.5,78.1667 83.5,78.8333 83.5,79.5C 83.0254,82.0821 83.6921,84.0821 85.5,85.5C 84.4489,86.2223 83.7822,87.2223 83.5,88.5C 82.5,88.5 81.5,88.5 80.5,88.5C 82.1751,86.544 81.8418,85.2107 79.5,84.5C 78.596,83.791 78.2627,82.791 78.5,81.5C 80.666,84.0401 81.666,83.3734 81.5,79.5C 80.5,79.5 79.5,79.5 78.5,79.5C 78.3284,78.5084 78.6618,77.8417 79.5,77.5 Z"/></g>
<g><path style="opacity:0.93" fill="#d4d4d4" d="M 56.5,75.5 C 57.1667,76.8333 57.8333,78.1667 58.5,79.5C 57.1667,79.5 55.8333,79.5 54.5,79.5C 54.5,81.1667 54.5,82.8333 54.5,84.5C 52.8828,83.962 51.2161,83.6287 49.5,83.5C 51.8432,80.7928 54.1765,78.1261 56.5,75.5 Z"/></g>
<g><path style="opacity:1" fill="#b9b9b9" d="M 58.5,79.5 C 58.8333,79.5 59.1667,79.5 59.5,79.5C 61.4832,79.1568 62.8166,79.8235 63.5,81.5C 63.5,82.8333 62.8333,83.5 61.5,83.5C 61.38,82.4138 60.7133,81.7472 59.5,81.5C 58.0104,82.8397 56.3437,83.8397 54.5,84.5C 54.5,82.8333 54.5,81.1667 54.5,79.5C 55.8333,79.5 57.1667,79.5 58.5,79.5 Z"/></g>
<g><path style="opacity:1" fill="#d5d5d5" d="M 72.5,79.5 C 74.5,79.5 76.5,79.5 78.5,79.5C 79.5,79.5 80.5,79.5 81.5,79.5C 81.666,83.3734 80.666,84.0401 78.5,81.5C 76.5,81.5 74.5,81.5 72.5,81.5C 72.5,80.8333 72.5,80.1667 72.5,79.5 Z"/></g>
<g><path style="opacity:1" fill="#cccccc" d="M 61.5,83.5 C 61.5,83.8333 61.5,84.1667 61.5,84.5C 60.8826,84.3893 60.3826,84.056 60,83.5C 58.4941,85.1742 56.6607,86.1742 54.5,86.5C 54.5,85.8333 54.5,85.1667 54.5,84.5C 56.3437,83.8397 58.0104,82.8397 59.5,81.5C 60.7133,81.7472 61.38,82.4138 61.5,83.5 Z"/></g>
<g><path style="opacity:1" fill="#d8d8d8" d="M 83.5,79.5 C 84.1667,79.5 84.8333,79.5 85.5,79.5C 89.5,80.1667 89.5,80.8333 85.5,81.5C 85.5,82.8333 85.5,84.1667 85.5,85.5C 83.6921,84.0821 83.0254,82.0821 83.5,79.5 Z"/></g>
<g><path style="opacity:0.708" fill="#f1f1f1" d="M 91.5,77.5 C 89.9017,81.7114 87.5684,85.378 84.5,88.5C 84.1667,88.5 83.8333,88.5 83.5,88.5C 83.7822,87.2223 84.4489,86.2223 85.5,85.5C 85.5,84.1667 85.5,82.8333 85.5,81.5C 89.5,80.8333 89.5,80.1667 85.5,79.5C 86.9179,77.6921 88.9179,77.0254 91.5,77.5 Z"/></g>
<g><path style="opacity:1" fill="#c5c5c5" d="M 63.5,81.5 C 65.8333,81.5 68.1667,81.5 70.5,81.5C 70.5,82.5 70.5,83.5 70.5,84.5C 69.2099,82.86 67.5433,82.36 65.5,83C 66.4158,83.2784 67.0825,83.7784 67.5,84.5C 65.8235,85.1834 65.1568,86.5168 65.5,88.5C 64.1667,88.5 62.8333,88.5 61.5,88.5C 61.5,87.1667 61.5,85.8333 61.5,84.5C 61.5,84.1667 61.5,83.8333 61.5,83.5C 62.8333,83.5 63.5,82.8333 63.5,81.5 Z"/></g>
<g><path style="opacity:1" fill="#f1f1f1" d="M 72.5,81.5 C 74.5,81.5 76.5,81.5 78.5,81.5C 78.2627,82.791 78.596,83.791 79.5,84.5C 77.3743,85.1032 75.0409,85.1032 72.5,84.5C 72.5,83.5 72.5,82.5 72.5,81.5 Z"/></g>
<g><path style="opacity:0.767" fill="#e7e7e7" d="M 49.5,83.5 C 51.2161,83.6287 52.8828,83.962 54.5,84.5C 54.5,85.1667 54.5,85.8333 54.5,86.5C 53.8333,86.5 53.1667,86.5 52.5,86.5C 50.8333,86.5 49.1667,86.5 47.5,86.5C 48.1667,85.5 48.8333,84.5 49.5,83.5 Z"/></g>
<g><path style="opacity:1" fill="#d4d4d4" d="M 61.5,84.5 C 61.5,85.8333 61.5,87.1667 61.5,88.5C 59.1667,88.5 56.8333,88.5 54.5,88.5C 53.8333,88.5 53.1667,88.5 52.5,88.5C 52.5,87.8333 52.5,87.1667 52.5,86.5C 53.1667,86.5 53.8333,86.5 54.5,86.5C 56.6607,86.1742 58.4941,85.1742 60,83.5C 60.3826,84.056 60.8826,84.3893 61.5,84.5 Z"/></g>
<g><path style="opacity:1" fill="#e9e9e9" d="M 72.5,84.5 C 75.0409,85.1032 77.3743,85.1032 79.5,84.5C 81.8418,85.2107 82.1751,86.544 80.5,88.5C 80.1667,88.5 79.8333,88.5 79.5,88.5C 77.7211,86.6565 75.3878,85.9898 72.5,86.5C 72.5,85.8333 72.5,85.1667 72.5,84.5 Z"/></g>
<g><path style="opacity:1" fill="#c7c7c7" d="M 47.5,86.5 C 49.1667,86.5 50.8333,86.5 52.5,86.5C 52.5,87.1667 52.5,87.8333 52.5,88.5C 50.0706,88.8844 47.7373,89.551 45.5,90.5C 45.5,89.8333 45.5,89.1667 45.5,88.5C 45.8333,87.5 46.5,86.8333 47.5,86.5 Z"/></g>
<g><path style="opacity:1" fill="#cfcfcf" d="M 67.5,84.5 C 68.3909,85.2613 69.0576,86.2613 69.5,87.5C 70.325,88.3857 71.325,88.719 72.5,88.5C 72.5,89.1667 72.5,89.8333 72.5,90.5C 71.1667,90.5 69.8333,90.5 68.5,90.5C 67.7777,91.5511 66.7777,92.2178 65.5,92.5C 65.5,91.1667 65.5,89.8333 65.5,88.5C 65.1568,86.5168 65.8235,85.1834 67.5,84.5 Z"/></g>
<g><path style="opacity:1" fill="#c3c3c3" d="M 70.5,84.5 C 71.1667,84.5 71.8333,84.5 72.5,84.5C 72.5,85.1667 72.5,85.8333 72.5,86.5C 72.5,87.1667 72.5,87.8333 72.5,88.5C 71.325,88.719 70.325,88.3857 69.5,87.5C 69.0576,86.2613 68.3909,85.2613 67.5,84.5C 67.0825,83.7784 66.4158,83.2784 65.5,83C 67.5433,82.36 69.2099,82.86 70.5,84.5 Z"/></g>
<g><path style="opacity:1" fill="#dedede" d="M 52.5,88.5 C 53.1667,88.5 53.8333,88.5 54.5,88.5C 54.5,89.1667 54.5,89.8333 54.5,90.5C 53.1667,90.5 52.5,91.1667 52.5,92.5C 51.1514,93.9525 49.4847,94.9525 47.5,95.5C 46.8333,94.5 46.1667,93.5 45.5,92.5C 45.5,91.8333 45.5,91.1667 45.5,90.5C 47.7373,89.551 50.0706,88.8844 52.5,88.5 Z"/></g>
<g><path style="opacity:1" fill="#e0e0e0" d="M 72.5,86.5 C 75.3878,85.9898 77.7211,86.6565 79.5,88.5C 78.063,89.7255 76.3964,90.7255 74.5,91.5C 75.8532,92.5237 76.5198,93.857 76.5,95.5C 77.5,95.5 78.5,95.5 79.5,95.5C 79.1667,96.5 78.5,97.1667 77.5,97.5C 76.5,97.5 75.5,97.5 74.5,97.5C 73.551,95.2627 72.8844,92.9294 72.5,90.5C 72.5,89.8333 72.5,89.1667 72.5,88.5C 72.5,87.8333 72.5,87.1667 72.5,86.5 Z"/></g>
<g><path style="opacity:1" fill="#cfcfcf" d="M 79.5,88.5 C 79.8333,88.5 80.1667,88.5 80.5,88.5C 81.5,88.5 82.5,88.5 83.5,88.5C 83.8333,88.5 84.1667,88.5 84.5,88.5C 83.2141,91.117 81.5475,93.4504 79.5,95.5C 78.5,95.5 77.5,95.5 76.5,95.5C 76.5198,93.857 75.8532,92.5237 74.5,91.5C 76.3964,90.7255 78.063,89.7255 79.5,88.5 Z"/></g>
<g><path style="opacity:1" fill="#f4f4f4" d="M 54.5,90.5 C 55.968,91.7791 56.6347,93.4458 56.5,95.5C 55.8333,95.5 55.1667,95.5 54.5,95.5C 53.4489,94.7777 52.7822,93.7777 52.5,92.5C 52.5,91.1667 53.1667,90.5 54.5,90.5 Z"/></g>
<g><path style="opacity:1" fill="#e3e3e3" d="M 54.5,90.5 C 56.9294,90.8844 59.2627,91.551 61.5,92.5C 61.5,93.5 61.5,94.5 61.5,95.5C 59.8333,95.5 58.1667,95.5 56.5,95.5C 56.6347,93.4458 55.968,91.7791 54.5,90.5 Z"/></g>
<g><path style="opacity:1" fill="#c5c5c5" d="M 54.5,88.5 C 56.8333,88.5 59.1667,88.5 61.5,88.5C 61.5,89.8333 61.5,91.1667 61.5,92.5C 59.2627,91.551 56.9294,90.8844 54.5,90.5C 54.5,89.8333 54.5,89.1667 54.5,88.5 Z"/></g>
<g><path style="opacity:1" fill="#d6d6d6" d="M 61.5,88.5 C 62.8333,88.5 64.1667,88.5 65.5,88.5C 65.5,89.8333 65.5,91.1667 65.5,92.5C 64.1667,92.5 62.8333,92.5 61.5,92.5C 61.5,91.1667 61.5,89.8333 61.5,88.5 Z"/></g>
<g><path style="opacity:0.969" fill="#cccccc" d="M 45.5,88.5 C 45.5,89.1667 45.5,89.8333 45.5,90.5C 45.5,91.1667 45.5,91.8333 45.5,92.5C 45.719,93.675 45.3857,94.675 44.5,95.5C 43.1401,94.8201 41.8068,94.1534 40.5,93.5C 41.8333,91.5 43.5,89.8333 45.5,88.5 Z"/></g>
<g><path style="opacity:1" fill="#e8e8e8" d="M 52.5,92.5 C 52.7822,93.7777 53.4489,94.7777 54.5,95.5C 53.1667,95.5 52.5,96.1667 52.5,97.5C 50.8333,97.5 49.1667,97.5 47.5,97.5C 47.5,96.8333 47.5,96.1667 47.5,95.5C 49.4847,94.9525 51.1514,93.9525 52.5,92.5 Z"/></g>
<g><path style="opacity:1" fill="#d9d9d9" d="M 68.5,90.5 C 69.5025,92.0109 70.1692,93.6776 70.5,95.5C 68.857,95.5198 67.5237,94.8532 66.5,93.5C 65.5713,94.6888 65.238,96.0222 65.5,97.5C 64.1667,98.1667 62.8333,98.8333 61.5,99.5C 61.5,98.1667 61.5,96.8333 61.5,95.5C 61.5,94.5 61.5,93.5 61.5,92.5C 62.8333,92.5 64.1667,92.5 65.5,92.5C 66.7777,92.2178 67.7777,91.5511 68.5,90.5 Z"/></g>
<g><path style="opacity:1" fill="#e9e9e9" d="M 68.5,90.5 C 69.8333,90.5 71.1667,90.5 72.5,90.5C 72.8844,92.9294 73.551,95.2627 74.5,97.5C 74.5,98.8333 73.8333,99.5 72.5,99.5C 70.7211,97.6565 68.3878,96.9898 65.5,97.5C 65.238,96.0222 65.5713,94.6888 66.5,93.5C 67.5237,94.8532 68.857,95.5198 70.5,95.5C 70.1692,93.6776 69.5025,92.0109 68.5,90.5 Z"/></g>
<g><path style="opacity:0.961" fill="#d7d7d7" d="M 45.5,92.5 C 46.1667,93.5 46.8333,94.5 47.5,95.5C 47.5,96.1667 47.5,96.8333 47.5,97.5C 45.5168,97.1568 44.1834,97.8235 43.5,99.5C 42.1667,99.5 41.5,100.167 41.5,101.5C 41.1667,101.5 40.8333,101.5 40.5,101.5C 39.5525,100.022 38.2191,99.0221 36.5,98.5C 37.8637,96.8089 39.197,95.1423 40.5,93.5C 41.8068,94.1534 43.1401,94.8201 44.5,95.5C 45.3857,94.675 45.719,93.675 45.5,92.5 Z"/></g>
<g><path style="opacity:1" fill="#cbcbcb" d="M 54.5,95.5 C 55.1667,95.5 55.8333,95.5 56.5,95.5C 56.5,96.1667 56.5,96.8333 56.5,97.5C 56.8432,99.4832 56.1765,100.817 54.5,101.5C 54.5,100.833 54.5,100.167 54.5,99.5C 54.5,98.1667 53.8333,97.5 52.5,97.5C 52.5,96.1667 53.1667,95.5 54.5,95.5 Z"/></g>
<g><path style="opacity:1" fill="#cbcbcb" d="M 56.5,95.5 C 58.1667,95.5 59.8333,95.5 61.5,95.5C 61.5,96.8333 61.5,98.1667 61.5,99.5C 59.6776,99.1692 58.0109,98.5025 56.5,97.5C 56.5,96.8333 56.5,96.1667 56.5,95.5 Z"/></g>
<g><path style="opacity:1" fill="#dfdfdf" d="M 47.5,97.5 C 49.1667,97.5 50.8333,97.5 52.5,97.5C 53.8333,97.5 54.5,98.1667 54.5,99.5C 53.1667,99.5 52.5,100.167 52.5,101.5C 50.8762,101.64 49.7096,100.973 49,99.5C 48.8019,101.382 48.3019,103.048 47.5,104.5C 47.5,102.833 47.5,101.167 47.5,99.5C 46.1667,99.5 44.8333,99.5 43.5,99.5C 44.1834,97.8235 45.5168,97.1568 47.5,97.5 Z"/></g>
<g><path style="opacity:1" fill="#cecece" d="M 43.5,99.5 C 44.8333,99.5 46.1667,99.5 47.5,99.5C 47.5,101.167 47.5,102.833 47.5,104.5C 46.1667,104.5 45.5,103.833 45.5,102.5C 44.4324,101.566 43.099,101.232 41.5,101.5C 41.5,100.167 42.1667,99.5 43.5,99.5 Z"/></g>
<g><path style="opacity:1" fill="#eeeeee" d="M 52.5,101.5 C 52.8308,103.322 53.4975,104.989 54.5,106.5C 52.8235,107.183 52.1568,108.517 52.5,110.5C 52.6309,111.376 52.2975,112.043 51.5,112.5C 50.5713,111.311 50.238,109.978 50.5,108.5C 49.5,108.5 48.5,108.5 47.5,108.5C 47.5,107.167 47.5,105.833 47.5,104.5C 48.3019,103.048 48.8019,101.382 49,99.5C 49.7096,100.973 50.8762,101.64 52.5,101.5 Z"/></g>
<g><path style="opacity:1" fill="#cacaca" d="M 65.5,97.5 C 68.3878,96.9898 70.7211,97.6565 72.5,99.5C 69.6122,98.9898 67.2789,99.6565 65.5,101.5C 65.7377,104.069 67.071,105.735 69.5,106.5C 69.1667,107.5 68.5,108.167 67.5,108.5C 66.1667,107.833 64.8333,107.167 63.5,106.5C 63.5,105.833 63.5,105.167 63.5,104.5C 62.032,103.221 61.3653,101.554 61.5,99.5C 62.8333,98.8333 64.1667,98.1667 65.5,97.5 Z"/></g>
<g><path style="opacity:0.906" fill="#d1d1d1" d="M 74.5,97.5 C 75.5,97.5 76.5,97.5 77.5,97.5C 75.823,99.5398 74.1563,101.54 72.5,103.5C 70.7211,101.656 68.3878,100.99 65.5,101.5C 67.2789,99.6565 69.6122,98.9898 72.5,99.5C 73.8333,99.5 74.5,98.8333 74.5,97.5 Z"/></g>
<g><path style="opacity:0.938" fill="#dddddd" d="M 36.5,98.5 C 38.2191,99.0221 39.5525,100.022 40.5,101.5C 39.5,101.5 38.5,101.5 37.5,101.5C 36.5,101.5 35.5,101.5 34.5,101.5C 34.8308,103.322 35.4975,104.989 36.5,106.5C 35.8333,106.5 35.1667,106.5 34.5,106.5C 33.8333,106.5 33.1667,106.5 32.5,106.5C 32.7373,105.209 32.404,104.209 31.5,103.5C 32.8333,101.5 34.5,99.8333 36.5,98.5 Z"/></g>
<g><path style="opacity:1" fill="#d3d3d3" d="M 37.5,101.5 C 37.5,102.5 37.5,103.5 37.5,104.5C 41.2998,104.819 41.4665,105.819 38,107.5C 37.6174,106.944 37.1174,106.611 36.5,106.5C 35.4975,104.989 34.8308,103.322 34.5,101.5C 35.5,101.5 36.5,101.5 37.5,101.5 Z"/></g>
<g><path style="opacity:1" fill="#e1e1e1" d="M 37.5,101.5 C 38.5,101.5 39.5,101.5 40.5,101.5C 40.8333,101.5 41.1667,101.5 41.5,101.5C 43.099,101.232 44.4324,101.566 45.5,102.5C 42.821,102.525 41.4877,103.858 41.5,106.5C 41.5,107.167 41.5,107.833 41.5,108.5C 39.8333,108.5 38.1667,108.5 36.5,108.5C 36.5,107.833 36.5,107.167 36.5,106.5C 37.1174,106.611 37.6174,106.944 38,107.5C 41.4665,105.819 41.2998,104.819 37.5,104.5C 37.5,103.5 37.5,102.5 37.5,101.5 Z"/></g>
<g><path style="opacity:1" fill="#e4e4e4" d="M 56.5,97.5 C 58.0109,98.5025 59.6776,99.1692 61.5,99.5C 61.3653,101.554 62.032,103.221 63.5,104.5C 59.8413,104.851 56.8413,103.851 54.5,101.5C 56.1765,100.817 56.8432,99.4832 56.5,97.5 Z"/></g>
<g><path style="opacity:1" fill="#f7f7f7" d="M 54.5,99.5 C 54.5,100.167 54.5,100.833 54.5,101.5C 56.8413,103.851 59.8413,104.851 63.5,104.5C 63.5,105.167 63.5,105.833 63.5,106.5C 61.0706,106.884 58.7373,107.551 56.5,108.5C 56.5,107.167 55.8333,106.5 54.5,106.5C 53.4975,104.989 52.8308,103.322 52.5,101.5C 52.5,100.167 53.1667,99.5 54.5,99.5 Z"/></g>
<g><path style="opacity:1" fill="#ececec" d="M 65.5,101.5 C 68.3878,100.99 70.7211,101.656 72.5,103.5C 71.8333,104.833 70.8333,105.833 69.5,106.5C 67.071,105.735 65.7377,104.069 65.5,101.5 Z"/></g>
<g><path style="opacity:1" fill="#e9e9e9" d="M 45.5,102.5 C 45.5,103.833 46.1667,104.5 47.5,104.5C 47.5,105.833 47.5,107.167 47.5,108.5C 46.8333,108.5 46.1667,108.5 45.5,108.5C 44.8166,106.824 43.4832,106.157 41.5,106.5C 41.4877,103.858 42.821,102.525 45.5,102.5 Z"/></g>
<g><path style="opacity:0.802" fill="#bebebe" d="M 31.5,103.5 C 32.404,104.209 32.7373,105.209 32.5,106.5C 31.4479,108.256 29.7812,108.923 27.5,108.5C 27.5,108.167 27.5,107.833 27.5,107.5C 28.5,105.833 29.8333,104.5 31.5,103.5 Z"/></g>
<g><path style="opacity:1" fill="#e4e4e4" d="M 32.5,106.5 C 33.1667,106.5 33.8333,106.5 34.5,106.5C 34.5,108.5 34.5,110.5 34.5,112.5C 34.719,113.675 34.3857,114.675 33.5,115.5C 32.8589,114.007 31.8589,113.007 30.5,112.5C 29.5,111.167 28.5,109.833 27.5,108.5C 29.7812,108.923 31.4479,108.256 32.5,106.5 Z"/></g>
<g><path style="opacity:0.995" fill="#eaeaea" d="M 63.5,106.5 C 64.8333,107.167 66.1667,107.833 67.5,108.5C 66.5,110.167 65.1667,111.5 63.5,112.5C 63.5,111.167 62.8333,110.5 61.5,110.5C 59.2188,110.923 57.5521,110.256 56.5,108.5C 58.7373,107.551 61.0706,106.884 63.5,106.5 Z"/></g>
<g><path style="opacity:1" fill="#f4f4f4" d="M 34.5,106.5 C 35.1667,106.5 35.8333,106.5 36.5,106.5C 36.5,107.167 36.5,107.833 36.5,108.5C 36.1568,110.483 36.8235,111.817 38.5,112.5C 38.5,113.167 38.5,113.833 38.5,114.5C 36.8007,114.473 35.4674,113.806 34.5,112.5C 34.5,110.5 34.5,108.5 34.5,106.5 Z"/></g>
<g><path style="opacity:1" fill="#f0f0f0" d="M 36.5,108.5 C 38.1667,108.5 39.8333,108.5 41.5,108.5C 41.5,109.833 41.5,111.167 41.5,112.5C 40.5,112.5 39.5,112.5 38.5,112.5C 36.8235,111.817 36.1568,110.483 36.5,108.5 Z"/></g>
<g><path style="opacity:1" fill="#d8d8d8" d="M 41.5,106.5 C 43.4832,106.157 44.8166,106.824 45.5,108.5C 43.8235,109.183 43.1568,110.517 43.5,112.5C 42.8333,112.5 42.1667,112.5 41.5,112.5C 41.5,111.167 41.5,109.833 41.5,108.5C 41.5,107.833 41.5,107.167 41.5,106.5 Z"/></g>
<g><path style="opacity:0.947" fill="#c7c7c7" d="M 27.5,107.5 C 27.5,107.833 27.5,108.167 27.5,108.5C 28.5,109.833 29.5,111.167 30.5,112.5C 28.1667,112.5 25.8333,112.5 23.5,112.5C 24.604,110.611 25.9373,108.945 27.5,107.5 Z"/></g>
<g><path style="opacity:1" fill="#efefef" d="M 45.5,108.5 C 46.1667,108.5 46.8333,108.5 47.5,108.5C 47.3862,110.718 46.7196,112.718 45.5,114.5C 44.1667,114.5 43.5,113.833 43.5,112.5C 43.1568,110.517 43.8235,109.183 45.5,108.5 Z"/></g>
<g><path style="opacity:1" fill="#e0e0e0" d="M 47.5,108.5 C 48.5,108.5 49.5,108.5 50.5,108.5C 50.238,109.978 50.5713,111.311 51.5,112.5C 52.2975,112.043 52.6309,111.376 52.5,110.5C 54.1773,111.412 56.0107,112.079 58,112.5C 59.6811,112.392 60.8478,111.725 61.5,110.5C 62.8333,110.5 63.5,111.167 63.5,112.5C 63.1667,113.5 62.5,114.167 61.5,114.5C 59.3926,113.532 57.0593,113.198 54.5,113.5C 54.5,114.833 54.5,116.167 54.5,117.5C 52.8007,117.527 51.4674,118.194 50.5,119.5C 50.5,117.5 50.5,115.5 50.5,113.5C 48.7839,113.629 47.1172,113.962 45.5,114.5C 46.7196,112.718 47.3862,110.718 47.5,108.5 Z"/></g>
<g><path style="opacity:1" fill="#c2c2c2" d="M 54.5,106.5 C 55.8333,106.5 56.5,107.167 56.5,108.5C 57.5521,110.256 59.2188,110.923 61.5,110.5C 60.8478,111.725 59.6811,112.392 58,112.5C 56.0107,112.079 54.1773,111.412 52.5,110.5C 52.1568,108.517 52.8235,107.183 54.5,106.5 Z"/></g>
<g><path style="opacity:1" fill="#f0f0f0" d="M 30.5,112.5 C 31.8589,113.007 32.8589,114.007 33.5,115.5C 34.3857,114.675 34.719,113.675 34.5,112.5C 35.4674,113.806 36.8007,114.473 38.5,114.5C 39.9187,115.451 41.5853,115.784 43.5,115.5C 43.5,116.833 42.8333,117.5 41.5,117.5C 39.8333,117.5 38.1667,117.5 36.5,117.5C 35.1667,117.5 33.8333,117.5 32.5,117.5C 31.8333,117.5 31.1667,117.5 30.5,117.5C 29.1667,116.167 29.1667,114.833 30.5,113.5C 30.5,113.167 30.5,112.833 30.5,112.5 Z"/></g>
<g><path style="opacity:1" fill="#e7e7e7" d="M 38.5,112.5 C 39.5,112.5 40.5,112.5 41.5,112.5C 42.1667,112.5 42.8333,112.5 43.5,112.5C 43.5,113.833 44.1667,114.5 45.5,114.5C 45.5,114.833 45.5,115.167 45.5,115.5C 44.8333,115.5 44.1667,115.5 43.5,115.5C 41.5853,115.784 39.9187,115.451 38.5,114.5C 38.5,113.833 38.5,113.167 38.5,112.5 Z"/></g>
<g><path style="opacity:1" fill="#efefef" d="M 30.5,113.5 C 29.1667,114.833 29.1667,116.167 30.5,117.5C 28.9891,116.498 27.3224,115.831 25.5,115.5C 25.0254,118.082 25.6921,120.082 27.5,121.5C 26.8166,123.176 25.4832,123.843 23.5,123.5C 23.8432,121.517 23.1765,120.183 21.5,119.5C 21.3285,117.508 21.9951,115.842 23.5,114.5C 25.7427,113.526 28.076,113.192 30.5,113.5 Z"/></g>
<g><path style="opacity:1" fill="#d1d1d1" d="M 50.5,119.5 C 49.6618,119.842 49.3284,120.508 49.5,121.5C 48.8333,122.167 48.1667,122.833 47.5,123.5C 46.8592,122.518 46.1925,121.518 45.5,120.5C 46.1667,119.833 46.8333,119.167 47.5,118.5C 46.3881,117.735 45.7214,116.735 45.5,115.5C 45.5,115.167 45.5,114.833 45.5,114.5C 47.1172,113.962 48.7839,113.629 50.5,113.5C 50.5,115.5 50.5,117.5 50.5,119.5 Z"/></g>
<g><path style="opacity:0.761" fill="#f0f0f0" d="M 61.5,114.5 C 59.9059,117.764 57.5725,120.431 54.5,122.5C 54.5,122.167 54.5,121.833 54.5,121.5C 54.7214,120.265 55.3881,119.265 56.5,118.5C 56.0431,117.702 55.3764,117.369 54.5,117.5C 54.5,116.167 54.5,114.833 54.5,113.5C 57.0593,113.198 59.3926,113.532 61.5,114.5 Z"/></g>
<g><path style="opacity:0.792" fill="#e0e0e0" d="M 23.5,112.5 C 25.8333,112.5 28.1667,112.5 30.5,112.5C 30.5,112.833 30.5,113.167 30.5,113.5C 28.076,113.192 25.7427,113.526 23.5,114.5C 21.9951,115.842 21.3285,117.508 21.5,119.5C 20.1667,119.5 19.5,120.167 19.5,121.5C 18.5655,120.432 18.2322,119.099 18.5,117.5C 19.8333,115.5 21.5,113.833 23.5,112.5 Z"/></g>
<g><path style="opacity:1" fill="#e7e7e7" d="M 30.5,117.5 C 31.1667,117.5 31.8333,117.5 32.5,117.5C 32.1788,119.048 31.1788,119.715 29.5,119.5C 28.1667,119.5 27.5,120.167 27.5,121.5C 25.6921,120.082 25.0254,118.082 25.5,115.5C 27.3224,115.831 28.9891,116.498 30.5,117.5 Z"/></g>
<g><path style="opacity:1" fill="#c0c0c0" d="M 36.5,117.5 C 38.1667,117.5 39.8333,117.5 41.5,117.5C 41.7214,118.735 42.3881,119.735 43.5,120.5C 43.0431,121.298 42.3764,121.631 41.5,121.5C 41.1667,121.5 40.8333,121.5 40.5,121.5C 39.1667,120.167 37.8333,118.833 36.5,117.5 Z"/></g>
<g><path style="opacity:1" fill="#d9d9d9" d="M 43.5,115.5 C 44.1667,115.5 44.8333,115.5 45.5,115.5C 45.7214,116.735 46.3881,117.735 47.5,118.5C 46.8333,119.167 46.1667,119.833 45.5,120.5C 46.1925,121.518 46.8592,122.518 47.5,123.5C 45.5168,123.157 44.1834,123.824 43.5,125.5C 41.8235,124.817 41.1568,123.483 41.5,121.5C 42.3764,121.631 43.0431,121.298 43.5,120.5C 42.3881,119.735 41.7214,118.735 41.5,117.5C 42.8333,117.5 43.5,116.833 43.5,115.5 Z"/></g>
<g><path style="opacity:1" fill="#e2e2e2" d="M 54.5,117.5 C 55.3764,117.369 56.0431,117.702 56.5,118.5C 55.3881,119.265 54.7214,120.265 54.5,121.5C 52.8333,121.5 51.1667,121.5 49.5,121.5C 49.3284,120.508 49.6618,119.842 50.5,119.5C 51.4674,118.194 52.8007,117.527 54.5,117.5 Z"/></g>
<g><path style="opacity:1" fill="#d5d5d5" d="M 21.5,119.5 C 23.1765,120.183 23.8432,121.517 23.5,123.5C 21.5168,123.843 20.1834,123.176 19.5,121.5C 19.5,120.167 20.1667,119.5 21.5,119.5 Z"/></g>
<g><path style="opacity:1" fill="#cfcfcf" d="M 32.5,117.5 C 33.8333,117.5 35.1667,117.5 36.5,117.5C 37.8333,118.833 39.1667,120.167 40.5,121.5C 38.5168,121.157 37.1834,121.824 36.5,123.5C 35.5178,124.141 34.5178,124.807 33.5,125.5C 32.8333,124.5 32.1667,123.5 31.5,122.5C 30.8933,122.624 30.56,122.957 30.5,123.5C 29.6236,123.631 28.9569,123.298 28.5,122.5C 29.1272,121.583 29.4606,120.583 29.5,119.5C 31.1788,119.715 32.1788,119.048 32.5,117.5 Z"/></g>
<g><path style="opacity:0.871" fill="#e0e0e0" d="M 16.5,119.5 C 16.7239,121.046 17.0573,122.713 17.5,124.5C 19.0255,124.994 20.3588,125.661 21.5,126.5C 18.4359,126.928 15.4359,127.594 12.5,128.5C 12.5,127.167 12.5,125.833 12.5,124.5C 13.0798,122.251 14.4131,120.585 16.5,119.5 Z"/></g>
<g><path style="opacity:1" fill="#f3f3f3" d="M 18.5,117.5 C 18.2322,119.099 18.5655,120.432 19.5,121.5C 20.1834,123.176 21.5168,123.843 23.5,123.5C 23.5,124.5 23.5,125.5 23.5,126.5C 22.8333,126.5 22.1667,126.5 21.5,126.5C 20.3588,125.661 19.0255,124.994 17.5,124.5C 17.0573,122.713 16.7239,121.046 16.5,119.5C 16.8333,118.5 17.5,117.833 18.5,117.5 Z"/></g>
<g><path style="opacity:1" fill="#d4d4d4" d="M 36.5,123.5 C 37.4916,123.328 38.1583,123.662 38.5,124.5C 38.5,125.833 37.8333,126.5 36.5,126.5C 35.1667,126.5 33.8333,126.5 32.5,126.5C 32.5,127.833 32.5,129.167 32.5,130.5C 34.5,130.5 36.5,130.5 38.5,130.5C 39.3382,130.842 39.6716,131.508 39.5,132.5C 38.209,132.263 37.209,132.596 36.5,133.5C 34.4352,133.517 32.4352,133.85 30.5,134.5C 30.4142,133.504 30.7476,132.671 31.5,132C 31.1408,129.37 30.1408,127.203 28.5,125.5C 29.1667,124.833 29.8333,124.167 30.5,123.5C 30.56,122.957 30.8933,122.624 31.5,122.5C 32.1667,123.5 32.8333,124.5 33.5,125.5C 34.5178,124.807 35.5178,124.141 36.5,123.5 Z"/></g>
<g><path style="opacity:1" fill="#e0e0e0" d="M 40.5,121.5 C 40.8333,121.5 41.1667,121.5 41.5,121.5C 41.1568,123.483 41.8235,124.817 43.5,125.5C 43.5,125.833 43.5,126.167 43.5,126.5C 42.1667,126.5 41.5,127.167 41.5,128.5C 40.5,127.167 39.5,125.833 38.5,124.5C 38.1583,123.662 37.4916,123.328 36.5,123.5C 37.1834,121.824 38.5168,121.157 40.5,121.5 Z"/></g>
<g><path style="opacity:1" fill="#c1c1c1" d="M 49.5,121.5 C 51.1667,121.5 52.8333,121.5 54.5,121.5C 54.5,121.833 54.5,122.167 54.5,122.5C 53.9744,124.23 52.9744,125.564 51.5,126.5C 49.0807,126.195 46.414,126.195 43.5,126.5C 43.5,126.167 43.5,125.833 43.5,125.5C 44.1834,123.824 45.5168,123.157 47.5,123.5C 48.1667,122.833 48.8333,122.167 49.5,121.5 Z"/></g>
<g><path style="opacity:1" fill="#d3d3d3" d="M 29.5,119.5 C 29.4606,120.583 29.1272,121.583 28.5,122.5C 28.9569,123.298 29.6236,123.631 30.5,123.5C 29.8333,124.167 29.1667,124.833 28.5,125.5C 27.8333,125.5 27.5,125.833 27.5,126.5C 26.8166,128.176 25.4832,128.843 23.5,128.5C 23.5,127.833 23.5,127.167 23.5,126.5C 23.5,125.5 23.5,124.5 23.5,123.5C 25.4832,123.843 26.8166,123.176 27.5,121.5C 27.5,120.167 28.1667,119.5 29.5,119.5 Z"/></g>
<g><path style="opacity:1" fill="#d8d8d8" d="M 38.5,124.5 C 39.5,125.833 40.5,127.167 41.5,128.5C 41.5,129.833 41.5,131.167 41.5,132.5C 40.8333,132.5 40.1667,132.5 39.5,132.5C 39.6716,131.508 39.3382,130.842 38.5,130.5C 37.8333,129.167 37.1667,127.833 36.5,126.5C 37.8333,126.5 38.5,125.833 38.5,124.5 Z"/></g>
<g><path style="opacity:0.99" fill="#c9c9c9" d="M 51.5,126.5 C 51.5,126.833 51.5,127.167 51.5,127.5C 50.2921,128.234 48.9587,128.567 47.5,128.5C 45.5168,128.843 44.1834,128.176 43.5,126.5C 46.414,126.195 49.0807,126.195 51.5,126.5 Z"/></g>
<g><path style="opacity:0.929" fill="#e8e8e8" d="M 12.5,124.5 C 12.5,125.833 12.5,127.167 12.5,128.5C 14.5,129.833 16.5,131.167 18.5,132.5C 18.38,133.586 17.7133,134.253 16.5,134.5C 15.5836,134.457 14.9169,134.124 14.5,133.5C 13.4324,132.566 12.099,132.232 10.5,132.5C 10.8432,130.517 10.1765,129.183 8.5,128.5C 9.5,126.833 10.8333,125.5 12.5,124.5 Z"/></g>
<g><path style="opacity:1" fill="#e2e2e2" d="M 21.5,126.5 C 22.1667,126.5 22.8333,126.5 23.5,126.5C 23.5,127.167 23.5,127.833 23.5,128.5C 23.5,129.167 23.5,129.833 23.5,130.5C 23.5,131.167 23.5,131.833 23.5,132.5C 22.8333,132.5 22.1667,132.5 21.5,132.5C 21.2786,131.265 20.6119,130.265 19.5,129.5C 20.6119,128.735 21.2786,127.735 21.5,126.5 Z"/></g>
<g><path style="opacity:1" fill="#e2e2e2" d="M 36.5,126.5 C 37.1667,127.833 37.8333,129.167 38.5,130.5C 36.5,130.5 34.5,130.5 32.5,130.5C 32.5,129.167 32.5,127.833 32.5,126.5C 33.8333,126.5 35.1667,126.5 36.5,126.5 Z"/></g>
<g><path style="opacity:1" fill="#e6e6e6" d="M 43.5,126.5 C 44.1834,128.176 45.5168,128.843 47.5,128.5C 49.1667,129.833 50.8333,131.167 52.5,132.5C 51.1667,132.5 49.8333,132.5 48.5,132.5C 47.5,132.5 46.5,132.5 45.5,132.5C 44.1667,132.5 42.8333,132.5 41.5,132.5C 41.5,131.167 41.5,129.833 41.5,128.5C 41.5,127.167 42.1667,126.5 43.5,126.5 Z"/></g>
<g><path style="opacity:0.821" fill="#bababa" d="M 52.5,127.5 C 56.1667,127.5 59.8333,127.5 63.5,127.5C 63.5,127.833 63.5,128.167 63.5,128.5C 62.1667,128.5 61.5,129.167 61.5,130.5C 59.2188,130.077 57.5521,130.744 56.5,132.5C 55.8333,132.5 55.1667,132.5 54.5,132.5C 54.6347,130.446 53.968,128.779 52.5,127.5 Z"/></g>
<g><path style="opacity:0.892" fill="#cfcfcf" d="M 74.5,127.5 C 78.8333,127.5 83.1667,127.5 87.5,127.5C 88.0906,128.151 88.7573,128.818 89.5,129.5C 87.6684,130.057 86.3351,131.057 85.5,132.5C 84.8333,132.5 84.1667,132.5 83.5,132.5C 80.5,131.167 77.5,129.833 74.5,128.5C 74.5,128.167 74.5,127.833 74.5,127.5 Z"/></g>
<g><path style="opacity:0.765" fill="#dcdcdc" d="M 87.5,127.5 C 91.8333,127.5 96.1667,127.5 100.5,127.5C 100.5,129.833 100.5,132.167 100.5,134.5C 99.1667,134.5 97.8333,134.5 96.5,134.5C 96.5,133.167 96.5,131.833 96.5,130.5C 94.5082,130.672 92.8415,130.005 91.5,128.5C 90.5713,129.689 90.238,131.022 90.5,132.5C 88.8333,132.5 87.1667,132.5 85.5,132.5C 86.3351,131.057 87.6684,130.057 89.5,129.5C 88.7573,128.818 88.0906,128.151 87.5,127.5 Z"/></g>
<g><path style="opacity:1" fill="#cfcfcf" d="M 21.5,126.5 C 21.2786,127.735 20.6119,128.735 19.5,129.5C 20.6119,130.265 21.2786,131.265 21.5,132.5C 20.8333,132.5 20.1667,132.5 19.5,132.5C 19.1667,132.5 18.8333,132.5 18.5,132.5C 16.5,131.167 14.5,129.833 12.5,128.5C 15.4359,127.594 18.4359,126.928 21.5,126.5 Z"/></g>
<g><path style="opacity:1" fill="#e9e9e9" d="M 27.5,126.5 C 28.5862,126.62 29.2528,127.287 29.5,128.5C 29.2528,129.713 28.5862,130.38 27.5,130.5C 26.1667,130.5 24.8333,130.5 23.5,130.5C 23.5,129.833 23.5,129.167 23.5,128.5C 25.4832,128.843 26.8166,128.176 27.5,126.5 Z"/></g>
<g><path style="opacity:1" fill="#dedede" d="M 27.5,126.5 C 27.5,125.833 27.8333,125.5 28.5,125.5C 30.1408,127.203 31.1408,129.37 31.5,132C 30.7476,132.671 30.4142,133.504 30.5,134.5C 29.0222,134.762 27.6888,134.429 26.5,133.5C 28.435,132.787 28.7683,131.787 27.5,130.5C 28.5862,130.38 29.2528,129.713 29.5,128.5C 29.2528,127.287 28.5862,126.62 27.5,126.5 Z"/></g>
<g><path style="opacity:1" fill="#dcdcdc" d="M 51.5,127.5 C 51.8333,127.5 52.1667,127.5 52.5,127.5C 53.968,128.779 54.6347,130.446 54.5,132.5C 53.8333,132.5 53.1667,132.5 52.5,132.5C 50.8333,131.167 49.1667,129.833 47.5,128.5C 48.9587,128.567 50.2921,128.234 51.5,127.5 Z"/></g>
<g><path style="opacity:1" fill="#e5e5e5" d="M 63.5,128.5 C 63.5,128.167 63.5,127.833 63.5,127.5C 67.1667,127.5 70.8333,127.5 74.5,127.5C 74.5,127.833 74.5,128.167 74.5,128.5C 73.1667,128.5 72.5,129.167 72.5,130.5C 70.8333,130.5 69.1667,130.5 67.5,130.5C 66.8166,128.824 65.4832,128.157 63.5,128.5 Z"/></g>
<g><path style="opacity:1" fill="#d3d3d3" d="M 23.5,130.5 C 24.8333,130.5 26.1667,130.5 27.5,130.5C 28.7683,131.787 28.435,132.787 26.5,133.5C 27.6888,134.429 29.0222,134.762 30.5,134.5C 30.5198,136.143 29.8532,137.476 28.5,138.5C 29.6888,139.429 31.0222,139.762 32.5,139.5C 32.5,140.167 32.5,140.833 32.5,141.5C 30.2188,141.923 28.5521,141.256 27.5,139.5C 27.4012,136.361 26.0679,134.027 23.5,132.5C 23.5,131.833 23.5,131.167 23.5,130.5 Z"/></g>
<g><path style="opacity:1" fill="#d2d2d2" d="M 63.5,128.5 C 65.4832,128.157 66.8166,128.824 67.5,130.5C 67.5,131.833 67.5,133.167 67.5,134.5C 66.3951,133.4 65.0618,132.733 63.5,132.5C 62.1667,132.5 61.5,131.833 61.5,130.5C 61.5,129.167 62.1667,128.5 63.5,128.5 Z"/></g>
<g><path style="opacity:1" fill="#d9d9d9" d="M 74.5,128.5 C 77.5,129.833 80.5,131.167 83.5,132.5C 81.1667,132.5 78.8333,132.5 76.5,132.5C 75.8333,132.5 75.1667,132.5 74.5,132.5C 73.8333,132.5 73.1667,132.5 72.5,132.5C 72.5,131.833 72.5,131.167 72.5,130.5C 72.5,129.167 73.1667,128.5 74.5,128.5 Z"/></g>
<g><path style="opacity:1" fill="#ededed" d="M 96.5,134.5 C 95.8333,134.5 95.1667,134.5 94.5,134.5C 93.8166,132.824 92.4832,132.157 90.5,132.5C 90.238,131.022 90.5713,129.689 91.5,128.5C 92.8415,130.005 94.5082,130.672 96.5,130.5C 96.5,131.833 96.5,133.167 96.5,134.5 Z"/></g>
<g><path style="opacity:1" fill="#e0e0e0" d="M 61.5,130.5 C 61.5,131.833 62.1667,132.5 63.5,132.5C 63.5,133.167 63.5,133.833 63.5,134.5C 61.2543,133.545 58.921,132.878 56.5,132.5C 57.5521,130.744 59.2188,130.077 61.5,130.5 Z"/></g>
<g><path style="opacity:1" fill="#c1c1c1" d="M 67.5,130.5 C 69.1667,130.5 70.8333,130.5 72.5,130.5C 72.5,131.167 72.5,131.833 72.5,132.5C 71.1667,132.5 70.5,133.167 70.5,134.5C 69.5,134.5 68.5,134.5 67.5,134.5C 67.5,133.167 67.5,131.833 67.5,130.5 Z"/></g>
<g><path style="opacity:1" fill="#e2e2e2" d="M 8.5,128.5 C 10.1765,129.183 10.8432,130.517 10.5,132.5C 12.099,132.232 13.4324,132.566 14.5,133.5C 13.0222,133.238 11.6888,133.571 10.5,134.5C 11.0253,135.192 11.6919,135.692 12.5,136C 11.5842,136.278 10.9175,136.778 10.5,137.5C 9.77842,137.918 9.27842,138.584 9,139.5C 8.53566,138.906 8.36899,138.239 8.5,137.5C 7.44787,135.744 5.78121,135.077 3.5,135.5C 3.96896,132.357 5.63563,130.023 8.5,128.5 Z"/></g>
<g><path style="opacity:1" fill="#e3e3e3" d="M 48.5,132.5 C 49.8333,132.5 51.1667,132.5 52.5,132.5C 53.1667,132.5 53.8333,132.5 54.5,132.5C 55.1667,132.5 55.8333,132.5 56.5,132.5C 56.5,133.167 56.5,133.833 56.5,134.5C 55.5084,134.328 54.8417,134.662 54.5,135.5C 53.1667,135.5 52.5,136.167 52.5,137.5C 50.6127,136.344 49.2794,134.677 48.5,132.5 Z"/></g>
<g><path style="opacity:1" fill="#dddddd" d="M 36.5,133.5 C 37.6298,135.315 38.2964,137.315 38.5,139.5C 37.8333,138.833 37.1667,138.167 36.5,137.5C 34.5168,137.157 33.1834,137.824 32.5,139.5C 31.0222,139.762 29.6888,139.429 28.5,138.5C 29.8532,137.476 30.5198,136.143 30.5,134.5C 32.4352,133.85 34.4352,133.517 36.5,133.5 Z"/></g>
<g><path style="opacity:1" fill="#cdcdcd" d="M 39.5,132.5 C 40.1667,132.5 40.8333,132.5 41.5,132.5C 42.8333,134.833 44.1667,137.167 45.5,139.5C 43.8235,140.183 43.1568,141.517 43.5,143.5C 42.2223,143.218 41.2223,142.551 40.5,141.5C 39.8333,140.833 39.1667,140.167 38.5,139.5C 38.2964,137.315 37.6298,135.315 36.5,133.5C 37.209,132.596 38.209,132.263 39.5,132.5 Z"/></g>
<g><path style="opacity:1" fill="#c5c5c5" d="M 56.5,132.5 C 58.921,132.878 61.2543,133.545 63.5,134.5C 63.5,134.833 63.5,135.167 63.5,135.5C 63.5,136.833 62.8333,137.5 61.5,137.5C 59.9611,136.233 58.2944,135.233 56.5,134.5C 56.5,133.833 56.5,133.167 56.5,132.5 Z"/></g>
<g><path style="opacity:1" fill="#cecece" d="M 63.5,132.5 C 65.0618,132.733 66.3951,133.4 67.5,134.5C 68.5,134.5 69.5,134.5 70.5,134.5C 69.0998,135.1 68.0998,136.1 67.5,137.5C 66.1667,136.833 64.8333,136.167 63.5,135.5C 63.5,135.167 63.5,134.833 63.5,134.5C 63.5,133.833 63.5,133.167 63.5,132.5 Z"/></g>
<g><path style="opacity:1" fill="#cdcdcd" d="M 76.5,132.5 C 78.8333,132.5 81.1667,132.5 83.5,132.5C 83.5,133.5 83.5,134.5 83.5,135.5C 81.8235,136.183 81.1568,137.517 81.5,139.5C 82.8333,139.5 84.1667,139.5 85.5,139.5C 84.4975,141.011 83.8308,142.678 83.5,144.5C 83.5,145.833 82.8333,146.5 81.5,146.5C 80.8478,145.275 79.6811,144.608 78,144.5C 76.1216,144.696 74.2883,145.029 72.5,145.5C 73.8333,144.167 75.1667,142.833 76.5,141.5C 77.3764,141.631 78.0431,141.298 78.5,140.5C 76.777,138.132 76.1103,135.466 76.5,132.5 Z"/></g>
<g><path style="opacity:1" fill="#c0c0c0" d="M 83.5,132.5 C 84.1667,132.5 84.8333,132.5 85.5,132.5C 87.1667,132.5 88.8333,132.5 90.5,132.5C 92.4832,132.157 93.8166,132.824 94.5,134.5C 95.5511,135.222 96.2178,136.222 96.5,137.5C 95.8333,137.5 95.1667,137.5 94.5,137.5C 92.8333,137.5 91.1667,137.5 89.5,137.5C 88.0821,135.692 86.0821,135.025 83.5,135.5C 83.5,134.5 83.5,133.5 83.5,132.5 Z"/></g>
<g><path style="opacity:1" fill="#c8c8c8" d="M 45.5,132.5 C 46.5,132.5 47.5,132.5 48.5,132.5C 49.2794,134.677 50.6127,136.344 52.5,137.5C 52.5,138.167 52.5,138.833 52.5,139.5C 51.2436,139.904 50.0769,140.571 49,141.5C 47.9701,141.164 47.4701,140.497 47.5,139.5C 48.0431,139.44 48.3764,139.107 48.5,138.5C 47.0144,136.698 46.0144,134.698 45.5,132.5 Z"/></g>
<g><path style="opacity:1" fill="#e2e2e2" d="M 72.5,132.5 C 73.1667,132.5 73.8333,132.5 74.5,132.5C 75.0102,135.388 74.3435,137.721 72.5,139.5C 72.38,138.414 71.7133,137.747 70.5,137.5C 69.2613,137.942 68.2613,138.609 67.5,139.5C 67.5,138.833 67.5,138.167 67.5,137.5C 68.0998,136.1 69.0998,135.1 70.5,134.5C 70.5,133.167 71.1667,132.5 72.5,132.5 Z"/></g>
<g><path style="opacity:0.786" fill="#cdcdcd" d="M 3.5,135.5 C 5.78121,135.077 7.44787,135.744 8.5,137.5C 7.56552,138.568 7.23219,139.901 7.5,141.5C 6.16667,142.167 4.83333,142.833 3.5,143.5C 3.5,140.833 3.5,138.167 3.5,135.5 Z"/></g>
<g><path style="opacity:1" fill="#d5d5d5" d="M 18.5,132.5 C 18.8333,132.5 19.1667,132.5 19.5,132.5C 19.5,133.5 19.5,134.5 19.5,135.5C 19.5,136.833 19.5,138.167 19.5,139.5C 16.4359,139.072 13.4359,138.406 10.5,137.5C 10.9175,136.778 11.5842,136.278 12.5,136C 11.6919,135.692 11.0253,135.192 10.5,134.5C 11.6888,133.571 13.0222,133.238 14.5,133.5C 14.9169,134.124 15.5836,134.457 16.5,134.5C 17.7133,134.253 18.38,133.586 18.5,132.5 Z"/></g>
<g><path style="opacity:1" fill="#bababa" d="M 19.5,132.5 C 20.1667,132.5 20.8333,132.5 21.5,132.5C 22.1667,132.5 22.8333,132.5 23.5,132.5C 26.0679,134.027 27.4012,136.361 27.5,139.5C 26.1667,139.5 24.8333,139.5 23.5,139.5C 23.5,138.167 23.5,136.833 23.5,135.5C 22.1667,135.5 20.8333,135.5 19.5,135.5C 19.5,134.5 19.5,133.5 19.5,132.5 Z"/></g>
<g><path style="opacity:1" fill="#e3e3e3" d="M 41.5,132.5 C 42.8333,132.5 44.1667,132.5 45.5,132.5C 46.0144,134.698 47.0144,136.698 48.5,138.5C 48.3764,139.107 48.0431,139.44 47.5,139.5C 46.8333,139.5 46.1667,139.5 45.5,139.5C 44.1667,137.167 42.8333,134.833 41.5,132.5 Z"/></g>
<g><path style="opacity:1" fill="#d9d9d9" d="M 56.5,134.5 C 58.2944,135.233 59.9611,136.233 61.5,137.5C 61.5,138.167 61.5,138.833 61.5,139.5C 59.8333,139.5 58.1667,139.5 56.5,139.5C 55.8333,138.167 55.1667,136.833 54.5,135.5C 54.8417,134.662 55.5084,134.328 56.5,134.5 Z"/></g>
<g><path style="opacity:1" fill="#dadada" d="M 83.5,135.5 C 86.0821,135.025 88.0821,135.692 89.5,137.5C 89.1667,137.5 88.8333,137.5 88.5,137.5C 86.8212,137.285 85.8212,137.952 85.5,139.5C 84.1667,139.5 82.8333,139.5 81.5,139.5C 81.1568,137.517 81.8235,136.183 83.5,135.5 Z"/></g>
<g><path style="opacity:1" fill="#d8d8d8" d="M 94.5,134.5 C 95.1667,134.5 95.8333,134.5 96.5,134.5C 97.8333,134.5 99.1667,134.5 100.5,134.5C 100.5,136.167 100.5,137.833 100.5,139.5C 98.5168,139.843 97.1834,139.176 96.5,137.5C 96.2178,136.222 95.5511,135.222 94.5,134.5 Z"/></g>
<g><path style="opacity:1" fill="#f5f5f5" d="M 54.5,135.5 C 55.1667,136.833 55.8333,138.167 56.5,139.5C 54.0233,140.12 54.0233,141.12 56.5,142.5C 55.3112,143.429 53.9778,143.762 52.5,143.5C 52.5,142.167 52.5,140.833 52.5,139.5C 52.5,138.833 52.5,138.167 52.5,137.5C 52.5,136.167 53.1667,135.5 54.5,135.5 Z"/></g>
<g><path style="opacity:1" fill="#ededed" d="M 63.5,135.5 C 64.8333,136.167 66.1667,136.833 67.5,137.5C 67.5,138.167 67.5,138.833 67.5,139.5C 65.5168,139.157 64.1834,139.824 63.5,141.5C 62.1667,141.5 61.5,140.833 61.5,139.5C 61.5,138.833 61.5,138.167 61.5,137.5C 62.8333,137.5 63.5,136.833 63.5,135.5 Z"/></g>
<g><path style="opacity:1" fill="#dcdcdc" d="M 88.5,137.5 C 88.8333,137.5 89.1667,137.5 89.5,137.5C 91.1667,137.5 92.8333,137.5 94.5,137.5C 94.5,138.833 93.8333,139.5 92.5,139.5C 91.1667,139.5 90.5,140.167 90.5,141.5C 88.8235,140.817 88.1568,139.483 88.5,137.5 Z"/></g>
<g><path style="opacity:1" fill="#dadada" d="M 8.5,137.5 C 8.36899,138.239 8.53566,138.906 9,139.5C 9.27842,138.584 9.77842,137.918 10.5,137.5C 10.6138,139.718 11.2804,141.718 12.5,143.5C 11.5,143.5 10.5,143.5 9.5,143.5C 8.5,143.167 7.83333,142.5 7.5,141.5C 7.23219,139.901 7.56552,138.568 8.5,137.5 Z"/></g>
<g><path style="opacity:1" fill="#b8b8b8" d="M 10.5,137.5 C 13.4359,138.406 16.4359,139.072 19.5,139.5C 19.8333,139.5 20.1667,139.5 20.5,139.5C 19.1667,140.833 17.8333,142.167 16.5,143.5C 15.1667,143.5 13.8333,143.5 12.5,143.5C 11.2804,141.718 10.6138,139.718 10.5,137.5 Z"/></g>
<g><path style="opacity:1" fill="#dddddd" d="M 19.5,135.5 C 20.8333,135.5 22.1667,135.5 23.5,135.5C 23.5,136.833 23.5,138.167 23.5,139.5C 23.5,140.167 23.5,140.833 23.5,141.5C 22.2223,141.218 21.2223,140.551 20.5,139.5C 20.1667,139.5 19.8333,139.5 19.5,139.5C 19.5,138.167 19.5,136.833 19.5,135.5 Z"/></g>
<g><path style="opacity:1" fill="#e6e6e6" d="M 23.5,139.5 C 24.8333,139.5 26.1667,139.5 27.5,139.5C 28.5521,141.256 30.2188,141.923 32.5,141.5C 32.5,141.833 32.5,142.167 32.5,142.5C 30.8008,142.34 29.1341,142.506 27.5,143C 28.7375,143.232 29.7375,143.732 30.5,144.5C 28.0971,144.448 25.7638,144.781 23.5,145.5C 23.5,144.167 23.5,142.833 23.5,141.5C 23.5,140.833 23.5,140.167 23.5,139.5 Z"/></g>
<g><path style="opacity:1" fill="#e4e4e4" d="M 45.5,139.5 C 46.1667,139.5 46.8333,139.5 47.5,139.5C 47.4701,140.497 47.9701,141.164 49,141.5C 50.0769,140.571 51.2436,139.904 52.5,139.5C 52.5,140.833 52.5,142.167 52.5,143.5C 49.9407,143.198 47.6074,143.532 45.5,144.5C 45.38,145.586 44.7133,146.253 43.5,146.5C 42.8333,146.167 42.1667,145.833 41.5,145.5C 42.2427,144.818 42.9094,144.151 43.5,143.5C 43.1568,141.517 43.8235,140.183 45.5,139.5 Z"/></g>
<g><path style="opacity:1" fill="#e6e6e6" d="M 56.5,139.5 C 58.1667,139.5 59.8333,139.5 61.5,139.5C 61.5,140.833 62.1667,141.5 63.5,141.5C 63.5,142.167 63.5,142.833 63.5,143.5C 64.968,144.779 65.6347,146.446 65.5,148.5C 64.1667,148.5 62.8333,148.5 61.5,148.5C 60.5542,147.069 59.3875,145.736 58,144.5C 57.2904,145.973 56.1238,146.64 54.5,146.5C 53.4489,145.778 52.7822,144.778 52.5,143.5C 53.9778,143.762 55.3112,143.429 56.5,142.5C 54.0233,141.12 54.0233,140.12 56.5,139.5 Z"/></g>
<g><path style="opacity:1" fill="#c6c6c6" d="M 72.5,139.5 C 72.5,140.167 72.5,140.833 72.5,141.5C 71.1667,141.5 70.5,142.167 70.5,143.5C 69.2436,143.096 68.0769,142.429 67,141.5C 65.9231,142.429 64.7564,143.096 63.5,143.5C 63.5,142.833 63.5,142.167 63.5,141.5C 64.1834,139.824 65.5168,139.157 67.5,139.5C 68.2613,138.609 69.2613,137.942 70.5,137.5C 71.7133,137.747 72.38,138.414 72.5,139.5 Z"/></g>
<g><path style="opacity:1" fill="#dadada" d="M 74.5,132.5 C 75.1667,132.5 75.8333,132.5 76.5,132.5C 76.1103,135.466 76.777,138.132 78.5,140.5C 78.0431,141.298 77.3764,141.631 76.5,141.5C 75.1667,141.5 73.8333,141.5 72.5,141.5C 72.5,140.833 72.5,140.167 72.5,139.5C 74.3435,137.721 75.0102,135.388 74.5,132.5 Z"/></g>
<g><path style="opacity:1" fill="#eaeaea" d="M 94.5,137.5 C 95.1667,137.5 95.8333,137.5 96.5,137.5C 97.1834,139.176 98.5168,139.843 100.5,139.5C 100.5,140.167 100.5,140.833 100.5,141.5C 98.5,141.5 96.5,141.5 94.5,141.5C 94.5,142.5 94.5,143.5 94.5,144.5C 92.744,143.448 92.0773,141.781 92.5,139.5C 93.8333,139.5 94.5,138.833 94.5,137.5 Z"/></g>
<g><path style="opacity:0.95" fill="#dadada" d="M 7.5,141.5 C 7.83333,142.5 8.5,143.167 9.5,143.5C 8.89022,144.391 8.55688,145.391 8.5,146.5C 7.79105,147.404 6.79105,147.737 5.5,147.5C 5.5,148.5 5.5,149.5 5.5,150.5C 4.83333,150.5 4.16667,150.5 3.5,150.5C 3.5,148.167 3.5,145.833 3.5,143.5C 4.83333,142.833 6.16667,142.167 7.5,141.5 Z"/></g>
<g><path style="opacity:1" fill="#cfcfcf" d="M 20.5,139.5 C 21.2223,140.551 22.2223,141.218 23.5,141.5C 23.5,142.833 23.5,144.167 23.5,145.5C 21.321,145.16 19.4877,144.16 18,142.5C 17.6174,143.056 17.1174,143.389 16.5,143.5C 17.8333,142.167 19.1667,140.833 20.5,139.5 Z"/></g>
<g><path style="opacity:1" fill="#efefef" d="M 36.5,137.5 C 36.7475,139.858 36.0808,141.858 34.5,143.5C 33.5084,143.672 32.8417,143.338 32.5,142.5C 32.5,142.167 32.5,141.833 32.5,141.5C 32.5,140.833 32.5,140.167 32.5,139.5C 33.1834,137.824 34.5168,137.157 36.5,137.5 Z"/></g>
<g><path style="opacity:1" fill="#e3e3e3" d="M 36.5,137.5 C 37.1667,138.167 37.8333,138.833 38.5,139.5C 39.1667,140.167 39.8333,140.833 40.5,141.5C 39.8166,143.176 38.4832,143.843 36.5,143.5C 36.5,144.5 36.5,145.5 36.5,146.5C 34.9519,146.179 34.2852,145.179 34.5,143.5C 36.0808,141.858 36.7475,139.858 36.5,137.5 Z"/></g>
<g><path style="opacity:1" fill="#cfcfcf" d="M 70.5,143.5 C 70.5,144.833 71.1667,145.5 72.5,145.5C 72.5,146.5 72.5,147.5 72.5,148.5C 70.1667,148.5 67.8333,148.5 65.5,148.5C 65.6347,146.446 64.968,144.779 63.5,143.5C 64.7564,143.096 65.9231,142.429 67,141.5C 68.0769,142.429 69.2436,143.096 70.5,143.5 Z"/></g>
<g><path style="opacity:1" fill="#bdbdbd" d="M 72.5,141.5 C 73.8333,141.5 75.1667,141.5 76.5,141.5C 75.1667,142.833 73.8333,144.167 72.5,145.5C 71.1667,145.5 70.5,144.833 70.5,143.5C 70.5,142.167 71.1667,141.5 72.5,141.5 Z"/></g>
<g><path style="opacity:1" fill="#e5e5e5" d="M 88.5,137.5 C 88.1568,139.483 88.8235,140.817 90.5,141.5C 90.8844,143.929 91.551,146.263 92.5,148.5C 91.2436,148.904 90.0769,149.571 89,150.5C 88.5,150.167 88,149.833 87.5,149.5C 89.9238,147.286 89.2571,146.286 85.5,146.5C 85.5,145.167 84.8333,144.5 83.5,144.5C 83.8308,142.678 84.4975,141.011 85.5,139.5C 85.8212,137.952 86.8212,137.285 88.5,137.5 Z"/></g>
<g><path style="opacity:1" fill="#eeeeee" d="M 32.5,142.5 C 32.8417,143.338 33.5084,143.672 34.5,143.5C 34.2852,145.179 34.9519,146.179 36.5,146.5C 37.1667,146.5 37.8333,146.5 38.5,146.5C 38.5,147.833 37.8333,148.5 36.5,148.5C 35.1667,148.5 33.8333,148.5 32.5,148.5C 32.2671,146.938 31.6005,145.605 30.5,144.5C 29.7375,143.732 28.7375,143.232 27.5,143C 29.1341,142.506 30.8008,142.34 32.5,142.5 Z"/></g>
<g><path style="opacity:1" fill="#f3f3f3" d="M 92.5,139.5 C 92.0773,141.781 92.744,143.448 94.5,144.5C 95.1667,145.833 95.8333,147.167 96.5,148.5C 95.1667,148.5 93.8333,148.5 92.5,148.5C 91.551,146.263 90.8844,143.929 90.5,141.5C 90.5,140.167 91.1667,139.5 92.5,139.5 Z"/></g>
<g><path style="opacity:0.903" fill="#dbdbdb" d="M 100.5,141.5 C 100.5,145.167 100.5,148.833 100.5,152.5C 99.607,150.703 98.2737,149.37 96.5,148.5C 95.8333,147.167 95.1667,145.833 94.5,144.5C 94.5,143.5 94.5,142.5 94.5,141.5C 96.5,141.5 98.5,141.5 100.5,141.5 Z"/></g>
<g><path style="opacity:1" fill="#e6e6e6" d="M 9.5,143.5 C 10.5,143.5 11.5,143.5 12.5,143.5C 14.3691,144.165 16.3691,144.831 18.5,145.5C 18.3764,146.107 18.0431,146.44 17.5,146.5C 16.7777,147.551 15.7777,148.218 14.5,148.5C 13.0821,146.692 11.0821,146.025 8.5,146.5C 8.55688,145.391 8.89022,144.391 9.5,143.5 Z"/></g>
<g><path style="opacity:1" fill="#dfdfdf" d="M 30.5,144.5 C 31.6005,145.605 32.2671,146.938 32.5,148.5C 32.6716,149.492 32.3382,150.158 31.5,150.5C 29.8007,150.473 28.4674,149.806 27.5,148.5C 26.8333,148.5 26.1667,148.5 25.5,148.5C 25.2178,147.222 24.5511,146.222 23.5,145.5C 25.7638,144.781 28.0971,144.448 30.5,144.5 Z"/></g>
<g><path style="opacity:1" fill="#cdcdcd" d="M 45.5,144.5 C 47.6074,143.532 49.9407,143.198 52.5,143.5C 52.7822,144.778 53.4489,145.778 54.5,146.5C 54.5,147.833 55.1667,148.5 56.5,148.5C 55.8166,150.176 54.4832,150.843 52.5,150.5C 52.5,149.167 52.5,147.833 52.5,146.5C 50.5168,146.157 49.1834,146.824 48.5,148.5C 48.1667,148.5 47.8333,148.5 47.5,148.5C 47.8432,146.517 47.1765,145.183 45.5,144.5 Z"/></g>
<g><path style="opacity:1" fill="#f2f2f2" d="M 61.5,148.5 C 59.8212,148.285 58.8212,148.952 58.5,150.5C 57.8333,149.833 57.1667,149.167 56.5,148.5C 55.1667,148.5 54.5,147.833 54.5,146.5C 56.1238,146.64 57.2904,145.973 58,144.5C 59.3875,145.736 60.5542,147.069 61.5,148.5 Z"/></g>
<g><path style="opacity:1" fill="#eaeaea" d="M 81.5,146.5 C 81.5,147.167 81.5,147.833 81.5,148.5C 80.4477,147.47 79.1143,146.803 77.5,146.5C 75.6958,146.986 74.0291,147.653 72.5,148.5C 72.5,147.5 72.5,146.5 72.5,145.5C 74.2883,145.029 76.1216,144.696 78,144.5C 79.6811,144.608 80.8478,145.275 81.5,146.5 Z"/></g>
<g><path style="opacity:1" fill="#f4f4f4" d="M 83.5,144.5 C 84.8333,144.5 85.5,145.167 85.5,146.5C 85.8432,148.483 85.1765,149.817 83.5,150.5C 83.5,149.167 82.8333,148.5 81.5,148.5C 81.5,147.833 81.5,147.167 81.5,146.5C 82.8333,146.5 83.5,145.833 83.5,144.5 Z"/></g>
<g><path style="opacity:1" fill="#cbcbcb" d="M 40.5,141.5 C 41.2223,142.551 42.2223,143.218 43.5,143.5C 42.9094,144.151 42.2427,144.818 41.5,145.5C 42.1667,145.833 42.8333,146.167 43.5,146.5C 44.7133,146.253 45.38,145.586 45.5,144.5C 47.1765,145.183 47.8432,146.517 47.5,148.5C 46.8333,148.5 46.1667,148.5 45.5,148.5C 43.5168,148.157 42.1834,148.824 41.5,150.5C 40.0221,149.552 39.0221,148.219 38.5,146.5C 37.8333,146.5 37.1667,146.5 36.5,146.5C 36.5,145.5 36.5,144.5 36.5,143.5C 38.4832,143.843 39.8166,143.176 40.5,141.5 Z"/></g>
<g><path style="opacity:1" fill="#dddddd" d="M 8.5,146.5 C 11.0821,146.025 13.0821,146.692 14.5,148.5C 12.6565,150.279 11.9898,152.612 12.5,155.5C 11.8333,155.5 11.1667,155.5 10.5,155.5C 8.83333,153.833 7.16667,152.167 5.5,150.5C 5.5,149.5 5.5,148.5 5.5,147.5C 6.79105,147.737 7.79105,147.404 8.5,146.5 Z"/></g>
<g><path style="opacity:1" fill="#d7d7d7" d="M 17.5,146.5 C 18.8333,147.833 20.1667,149.167 21.5,150.5C 21.1788,152.048 20.1788,152.715 18.5,152.5C 16.9586,151.333 15.6252,150 14.5,148.5C 15.7777,148.218 16.7777,147.551 17.5,146.5 Z"/></g>
<g><path style="opacity:1" fill="#d4d4d4" d="M 23.5,145.5 C 24.5511,146.222 25.2178,147.222 25.5,148.5C 24.1667,148.5 23.5,149.167 23.5,150.5C 22.8333,150.5 22.1667,150.5 21.5,150.5C 20.1667,149.167 18.8333,147.833 17.5,146.5C 18.0431,146.44 18.3764,146.107 18.5,145.5C 16.3691,144.831 14.3691,144.165 12.5,143.5C 13.8333,143.5 15.1667,143.5 16.5,143.5C 17.1174,143.389 17.6174,143.056 18,142.5C 19.4877,144.16 21.321,145.16 23.5,145.5 Z"/></g>
<g><path style="opacity:1" fill="#dcdcdc" d="M 45.5,148.5 C 46.1667,148.5 46.8333,148.5 47.5,148.5C 47.8333,148.5 48.1667,148.5 48.5,148.5C 50.0301,149.211 51.3634,150.211 52.5,151.5C 50.6431,152.765 48.9764,152.432 47.5,150.5C 46.1667,150.5 45.5,149.833 45.5,148.5 Z"/></g>
<g><path style="opacity:1" fill="#f8f8f8" d="M 61.5,148.5 C 62.8333,148.5 64.1667,148.5 65.5,148.5C 67.8333,148.5 70.1667,148.5 72.5,148.5C 72.5,149.167 72.5,149.833 72.5,150.5C 69.6122,149.99 67.2789,150.656 65.5,152.5C 64.8333,152.5 64.1667,152.5 63.5,152.5C 62.8333,151.167 62.1667,149.833 61.5,148.5 Z"/></g>
<g><path style="opacity:1" fill="#eeeeee" d="M 85.5,146.5 C 89.2571,146.286 89.9238,147.286 87.5,149.5C 88,149.833 88.5,150.167 89,150.5C 90.0769,149.571 91.2436,148.904 92.5,148.5C 93.8333,148.5 95.1667,148.5 96.5,148.5C 95.1667,149.833 93.8333,151.167 92.5,152.5C 90.8212,152.285 89.8212,152.952 89.5,154.5C 88.325,154.719 87.325,154.386 86.5,153.5C 87.5042,151.323 86.8375,150.989 84.5,152.5C 83.7025,152.043 83.3691,151.376 83.5,150.5C 85.1765,149.817 85.8432,148.483 85.5,146.5 Z"/></g>
<g><path style="opacity:1" fill="#d6d6d6" d="M 96.5,148.5 C 98.2737,149.37 99.607,150.703 100.5,152.5C 100.715,154.179 100.048,155.179 98.5,155.5C 96.5439,154.522 94.5439,153.522 92.5,152.5C 93.8333,151.167 95.1667,149.833 96.5,148.5 Z"/></g>
<g><path style="opacity:1" fill="#cdcdcd" d="M 14.5,148.5 C 15.6252,150 16.9586,151.333 18.5,152.5C 17.1667,152.5 15.8333,152.5 14.5,152.5C 14.5,153.5 14.5,154.5 14.5,155.5C 13.8333,155.5 13.1667,155.5 12.5,155.5C 11.9898,152.612 12.6565,150.279 14.5,148.5 Z"/></g>
<g><path style="opacity:1" fill="#d3d3d3" d="M 27.5,148.5 C 28.4674,149.806 29.8007,150.473 31.5,150.5C 31.8333,151.167 32.1667,151.833 32.5,152.5C 31.8333,152.5 31.1667,152.5 30.5,152.5C 28.4458,152.365 26.7791,153.032 25.5,154.5C 25.6138,152.282 26.2804,150.282 27.5,148.5 Z"/></g>
<g><path style="opacity:1" fill="#d7d7d7" d="M 32.5,148.5 C 33.8333,148.5 35.1667,148.5 36.5,148.5C 37.1667,149.833 37.8333,151.167 38.5,152.5C 36.5,152.5 34.5,152.5 32.5,152.5C 32.1667,151.833 31.8333,151.167 31.5,150.5C 32.3382,150.158 32.6716,149.492 32.5,148.5 Z"/></g>
<g><path style="opacity:1" fill="#dedede" d="M 38.5,146.5 C 39.0221,148.219 40.0221,149.552 41.5,150.5C 42.5025,152.011 43.1692,153.678 43.5,155.5C 36.1667,155.5 28.8333,155.5 21.5,155.5C 21.5,154.167 22.1667,153.5 23.5,153.5C 23.8417,154.338 24.5084,154.672 25.5,154.5C 26.7791,153.032 28.4458,152.365 30.5,152.5C 31.6936,153.777 33.3603,154.444 35.5,154.5C 37.1667,154.167 38.8333,153.833 40.5,153.5C 40.0431,152.702 39.3764,152.369 38.5,152.5C 37.8333,151.167 37.1667,149.833 36.5,148.5C 37.8333,148.5 38.5,147.833 38.5,146.5 Z"/></g>
<g><path style="opacity:1" fill="#e2e2e2" d="M 56.5,148.5 C 57.1667,149.167 57.8333,149.833 58.5,150.5C 58.1667,151.167 57.8333,151.833 57.5,152.5C 55.9582,151.699 54.2915,151.366 52.5,151.5C 51.3634,150.211 50.0301,149.211 48.5,148.5C 49.1834,146.824 50.5168,146.157 52.5,146.5C 52.5,147.833 52.5,149.167 52.5,150.5C 54.4832,150.843 55.8166,150.176 56.5,148.5 Z"/></g>
<g><path style="opacity:1" fill="#cbcbcb" d="M 61.5,148.5 C 62.1667,149.833 62.8333,151.167 63.5,152.5C 63.6309,153.376 63.2975,154.043 62.5,154.5C 61.4763,153.147 60.143,152.48 58.5,152.5C 58.1667,152.5 57.8333,152.5 57.5,152.5C 57.8333,151.833 58.1667,151.167 58.5,150.5C 58.8212,148.952 59.8212,148.285 61.5,148.5 Z"/></g>
<g><path style="opacity:1" fill="#dbdbdb" d="M 81.5,148.5 C 81.5,149.167 81.5,149.833 81.5,150.5C 80.2436,150.096 79.0769,149.429 78,148.5C 76.251,149.41 75.0843,150.743 74.5,152.5C 73.1667,152.5 72.5,151.833 72.5,150.5C 72.5,149.833 72.5,149.167 72.5,148.5C 74.0291,147.653 75.6958,146.986 77.5,146.5C 79.1143,146.803 80.4477,147.47 81.5,148.5 Z"/></g>
<g><path style="opacity:1" fill="#eeeeee" d="M 81.5,150.5 C 81.5,151.5 81.5,152.5 81.5,153.5C 80.8826,153.611 80.3826,153.944 80,154.5C 79.2904,153.027 78.1238,152.36 76.5,152.5C 76.5,153.5 76.5,154.5 76.5,155.5C 75.8333,155.5 75.1667,155.5 74.5,155.5C 74.5,154.5 74.5,153.5 74.5,152.5C 75.0843,150.743 76.251,149.41 78,148.5C 79.0769,149.429 80.2436,150.096 81.5,150.5 Z"/></g>
<g><path style="opacity:1" fill="#c4c4c4" d="M 25.5,148.5 C 26.1667,148.5 26.8333,148.5 27.5,148.5C 26.2804,150.282 25.6138,152.282 25.5,154.5C 24.5084,154.672 23.8417,154.338 23.5,153.5C 23.5,152.5 23.5,151.5 23.5,150.5C 23.5,149.167 24.1667,148.5 25.5,148.5 Z"/></g>
<g><path style="opacity:1" fill="#ededed" d="M 47.5,150.5 C 48.9764,152.432 50.6431,152.765 52.5,151.5C 54.2915,151.366 55.9582,151.699 57.5,152.5C 57.8333,152.5 58.1667,152.5 58.5,152.5C 57.5525,153.978 56.2191,154.978 54.5,155.5C 52.8333,155.5 51.1667,155.5 49.5,155.5C 50.6602,153.797 49.9935,153.131 47.5,153.5C 47.5,152.5 47.5,151.5 47.5,150.5 Z"/></g>
<g><path style="opacity:1" fill="#e1e1e1" d="M 21.5,150.5 C 22.1667,150.5 22.8333,150.5 23.5,150.5C 23.5,151.5 23.5,152.5 23.5,153.5C 22.1667,153.5 21.5,154.167 21.5,155.5C 19.1667,155.5 16.8333,155.5 14.5,155.5C 14.5,154.5 14.5,153.5 14.5,152.5C 15.8333,152.5 17.1667,152.5 18.5,152.5C 20.1788,152.715 21.1788,152.048 21.5,150.5 Z"/></g>
<g><path style="opacity:1" fill="#e9e9e9" d="M 30.5,152.5 C 31.1667,152.5 31.8333,152.5 32.5,152.5C 34.5,152.5 36.5,152.5 38.5,152.5C 39.3764,152.369 40.0431,152.702 40.5,153.5C 38.8333,153.833 37.1667,154.167 35.5,154.5C 33.3603,154.444 31.6936,153.777 30.5,152.5 Z"/></g>
<g><path style="opacity:1" fill="#f2f2f2" d="M 45.5,148.5 C 45.5,149.833 46.1667,150.5 47.5,150.5C 47.5,151.5 47.5,152.5 47.5,153.5C 49.9935,153.131 50.6602,153.797 49.5,155.5C 47.5,155.5 45.5,155.5 43.5,155.5C 43.1692,153.678 42.5025,152.011 41.5,150.5C 42.1834,148.824 43.5168,148.157 45.5,148.5 Z"/></g>
<g><path style="opacity:1" fill="#d7d7d7" d="M 72.5,150.5 C 72.5,151.833 73.1667,152.5 74.5,152.5C 74.5,153.5 74.5,154.5 74.5,155.5C 73.1667,155.5 71.8333,155.5 70.5,155.5C 69.1007,154.11 67.4341,153.11 65.5,152.5C 67.2789,150.656 69.6122,149.99 72.5,150.5 Z"/></g>
<g><path style="opacity:1" fill="#e8e8e8" d="M 58.5,152.5 C 60.143,152.48 61.4763,153.147 62.5,154.5C 63.2975,154.043 63.6309,153.376 63.5,152.5C 64.1667,152.5 64.8333,152.5 65.5,152.5C 67.4341,153.11 69.1007,154.11 70.5,155.5C 65.1667,155.5 59.8333,155.5 54.5,155.5C 56.2191,154.978 57.5525,153.978 58.5,152.5 Z"/></g>
<g><path style="opacity:1" fill="#c4c4c4" d="M 3.5,150.5 C 4.16667,150.5 4.83333,150.5 5.5,150.5C 7.16667,152.167 8.83333,153.833 10.5,155.5C 8.16667,155.5 5.83333,155.5 3.5,155.5C 3.5,153.833 3.5,152.167 3.5,150.5 Z"/></g>
<g><path style="opacity:1" fill="#e0e0e0" d="M 81.5,153.5 C 83.4832,153.157 84.8166,153.824 85.5,155.5C 82.5,155.5 79.5,155.5 76.5,155.5C 76.5,154.5 76.5,153.5 76.5,152.5C 78.1238,152.36 79.2904,153.027 80,154.5C 80.3826,153.944 80.8826,153.611 81.5,153.5 Z"/></g>
<g><path style="opacity:1" fill="#eaeaea" d="M 81.5,148.5 C 82.8333,148.5 83.5,149.167 83.5,150.5C 83.3691,151.376 83.7025,152.043 84.5,152.5C 86.8375,150.989 87.5042,151.323 86.5,153.5C 87.325,154.386 88.325,154.719 89.5,154.5C 89.5,154.833 89.5,155.167 89.5,155.5C 88.1667,155.5 86.8333,155.5 85.5,155.5C 84.8166,153.824 83.4832,153.157 81.5,153.5C 81.5,152.5 81.5,151.5 81.5,150.5C 81.5,149.833 81.5,149.167 81.5,148.5 Z"/></g>
<g><path style="opacity:1" fill="#e2e2e2" d="M 92.5,152.5 C 94.5439,153.522 96.5439,154.522 98.5,155.5C 95.5,155.5 92.5,155.5 89.5,155.5C 89.5,155.167 89.5,154.833 89.5,154.5C 89.8212,152.952 90.8212,152.285 92.5,152.5 Z"/></g>
</svg>
