<?xml version="1.0" encoding="UTF-8"?>
<!DOCTYPE svg PUBLIC "-//W3C//DTD SVG 1.1//EN" "http://www.w3.org/Graphics/SVG/1.1/DTD/svg11.dtd">
<svg xmlns="http://www.w3.org/2000/svg" version="1.1" width="208px" height="180px" style="shape-rendering:geometricPrecision; text-rendering:geometricPrecision; image-rendering:optimizeQuality; fill-rule:evenodd; clip-rule:evenodd" xmlns:xlink="http://www.w3.org/1999/xlink">
<g><path style="opacity:0.901" fill="#cbcbcb" d="M 161.5,17.5 C 162.833,18.8333 164.167,20.1667 165.5,21.5C 161.889,21.9559 158.556,21.2892 155.5,19.5C 154.735,20.6119 153.735,21.2786 152.5,21.5C 148.952,20.2978 145.285,19.6311 141.5,19.5C 141.819,21.7505 141.319,23.7505 140,25.5C 139.768,24.2625 139.268,23.2625 138.5,22.5C 137.432,21.5655 136.099,21.2322 134.5,21.5C 137.842,19.6652 141.509,18.4985 145.5,18C 150.823,17.5006 156.156,17.334 161.5,17.5 Z"/></g>
<g><path style="opacity:1" fill="#d9d9d9" d="M 165.5,21.5 C 165.631,22.3764 165.298,23.0431 164.5,23.5C 161.212,22.4616 160.879,23.1282 163.5,25.5C 159.639,26.317 155.972,27.6503 152.5,29.5C 154.396,30.4656 156.396,30.7989 158.5,30.5C 157.817,32.1765 156.483,32.8432 154.5,32.5C 153.167,32.5 151.833,32.5 150.5,32.5C 150.768,30.901 150.434,29.5676 149.5,28.5C 150.678,27.0014 152.345,26.0014 154.5,25.5C 153.147,24.4763 152.48,23.143 152.5,21.5C 153.735,21.2786 154.735,20.6119 155.5,19.5C 158.556,21.2892 161.889,21.9559 165.5,21.5 Z"/></g>
<g><path style="opacity:0.96" fill="#dbdbdb" d="M 65.5,19.5 C 67.0481,19.8212 67.7148,20.8212 67.5,22.5C 68.552,22.3505 69.552,22.5172 70.5,23C 68.8659,23.4935 67.1992,23.6602 65.5,23.5C 65.5,24.5 65.5,25.5 65.5,26.5C 68.3356,27.7755 71.3356,28.4422 74.5,28.5C 74.5,30.8333 74.5,33.1667 74.5,35.5C 72.1667,35.5 69.8333,35.5 67.5,35.5C 66.2652,35.2786 65.2652,34.6119 64.5,33.5C 62.3622,34.2431 60.1956,34.9097 58,35.5C 56.9701,35.8361 56.4701,36.5028 56.5,37.5C 55.1667,37.5 53.8333,37.5 52.5,37.5C 52.5988,34.3607 53.9321,32.0274 56.5,30.5C 57.2216,30.0825 57.7216,29.4158 58,28.5C 58.3879,29.428 59.0546,30.0946 60,30.5C 64.8028,27.6456 64.3028,26.3123 58.5,26.5C 58.5,24.8333 58.5,23.1667 58.5,21.5C 60.7457,20.5448 63.079,19.8782 65.5,19.5 Z"/></g>
<g><path style="opacity:1" fill="#e1e1e1" d="M 161.5,17.5 C 165.288,18.123 168.955,19.123 172.5,20.5C 171.33,22.2785 169.664,23.2785 167.5,23.5C 167.5,24.5 167.5,25.5 167.5,26.5C 164.203,27.5165 161.203,28.8499 158.5,30.5C 156.396,30.7989 154.396,30.4656 152.5,29.5C 155.972,27.6503 159.639,26.317 163.5,25.5C 160.879,23.1282 161.212,22.4616 164.5,23.5C 165.298,23.0431 165.631,22.3764 165.5,21.5C 164.167,20.1667 162.833,18.8333 161.5,17.5 Z"/></g>
<g><path style="opacity:1" fill="#e9e9e9" d="M 152.5,21.5 C 152.48,23.143 153.147,24.4763 154.5,25.5C 152.345,26.0014 150.678,27.0014 149.5,28.5C 146.687,29.4461 145.354,31.4461 145.5,34.5C 150.622,36.4146 155.955,37.4146 161.5,37.5C 161.5,38.1667 161.5,38.8333 161.5,39.5C 160.167,39.5 159.5,40.1667 159.5,41.5C 158.221,40.032 156.554,39.3653 154.5,39.5C 154.762,40.9778 154.429,42.3112 153.5,43.5C 151.993,41.3096 149.993,39.9762 147.5,39.5C 147.5,40.8333 147.5,42.1667 147.5,43.5C 148.791,43.2627 149.791,43.596 150.5,44.5C 148.678,44.8308 147.011,45.4975 145.5,46.5C 145.532,43.9242 144.865,41.5909 143.5,39.5C 145.977,38.88 145.977,37.88 143.5,36.5C 141.955,35.5481 140.288,35.2148 138.5,35.5C 138.5,33.1667 138.5,30.8333 138.5,28.5C 136.5,28.5 134.5,28.5 132.5,28.5C 131.624,28.6309 130.957,28.2975 130.5,27.5C 131.689,26.5713 133.022,26.238 134.5,26.5C 134.5,25.1667 134.5,23.8333 134.5,22.5C 135.833,22.5 137.167,22.5 138.5,22.5C 139.268,23.2625 139.768,24.2625 140,25.5C 141.319,23.7505 141.819,21.7505 141.5,19.5C 145.285,19.6311 148.952,20.2978 152.5,21.5 Z"/></g>
<g><path style="opacity:0.933" fill="#e1e1e1" d="M 134.5,21.5 C 136.099,21.2322 137.432,21.5655 138.5,22.5C 137.167,22.5 135.833,22.5 134.5,22.5C 134.5,23.8333 134.5,25.1667 134.5,26.5C 133.022,26.238 131.689,26.5713 130.5,27.5C 130.957,28.2975 131.624,28.6309 132.5,28.5C 131.486,29.7647 129.986,30.4313 128,30.5C 126.014,30.4313 124.514,29.7647 123.5,28.5C 126.358,24.9905 130.024,22.6571 134.5,21.5 Z"/></g>
<g><path style="opacity:0.948" fill="#c5c5c5" d="M 172.5,20.5 C 176.117,21.6417 179.45,23.3084 182.5,25.5C 180.614,28.0994 177.948,29.0994 174.5,28.5C 174.762,27.0222 174.429,25.6888 173.5,24.5C 172.154,26.0134 170.654,27.3467 169,28.5C 167.97,28.1639 167.47,27.4972 167.5,26.5C 167.5,25.5 167.5,24.5 167.5,23.5C 169.664,23.2785 171.33,22.2785 172.5,20.5 Z"/></g>
<g><path style="opacity:1" fill="#c7c7c7" d="M 65.5,19.5 C 68.2869,18.5233 71.2869,18.19 74.5,18.5C 74.5,21.8333 74.5,25.1667 74.5,28.5C 71.3356,28.4422 68.3356,27.7755 65.5,26.5C 65.5,25.5 65.5,24.5 65.5,23.5C 67.1992,23.6602 68.8659,23.4935 70.5,23C 69.552,22.5172 68.552,22.3505 67.5,22.5C 67.7148,20.8212 67.0481,19.8212 65.5,19.5 Z"/></g>
<g><path style="opacity:1" fill="#d3d3d3" d="M 58.5,21.5 C 58.5,23.1667 58.5,24.8333 58.5,26.5C 64.3028,26.3123 64.8028,27.6456 60,30.5C 59.0546,30.0946 58.3879,29.428 58,28.5C 57.7216,29.4158 57.2216,30.0825 56.5,30.5C 56.38,29.4138 55.7133,28.7472 54.5,28.5C 53.8333,28.8333 53.1667,29.1667 52.5,29.5C 51.0781,31.9647 50.0781,34.6313 49.5,37.5C 48.8243,36.3984 48.1577,35.3984 47.5,34.5C 46.2804,32.7179 45.6138,30.7179 45.5,28.5C 50.6139,28.6505 51.2806,27.6505 47.5,25.5C 51.1667,24.1667 54.8333,22.8333 58.5,21.5 Z"/></g>
<g><path style="opacity:0.909" fill="#c4c4c4" d="M 47.5,25.5 C 51.2806,27.6505 50.6139,28.6505 45.5,28.5C 45.6138,30.7179 46.2804,32.7179 47.5,34.5C 47.7148,36.1788 47.0481,37.1788 45.5,37.5C 44.4975,35.9891 43.8308,34.3224 43.5,32.5C 41.8333,32.5 40.1667,32.5 38.5,32.5C 38.5,31.1667 38.5,29.8333 38.5,28.5C 41.5786,27.696 44.5786,26.696 47.5,25.5 Z"/></g>
<g><path style="opacity:1" fill="#e7e7e7" d="M 174.5,28.5 C 171.221,29.0306 169.887,31.0306 170.5,34.5C 172.5,34.5 174.5,34.5 176.5,34.5C 176.5,35.5 176.5,36.5 176.5,37.5C 174.533,37.7394 172.699,37.4061 171,36.5C 170.517,37.448 170.351,38.448 170.5,39.5C 168.263,38.551 165.929,37.8844 163.5,37.5C 161.012,35.6122 158.012,34.9455 154.5,35.5C 154.5,34.5 154.5,33.5 154.5,32.5C 156.483,32.8432 157.817,32.1765 158.5,30.5C 161.203,28.8499 164.203,27.5165 167.5,26.5C 167.47,27.4972 167.97,28.1639 169,28.5C 170.654,27.3467 172.154,26.0134 173.5,24.5C 174.429,25.6888 174.762,27.0222 174.5,28.5 Z"/></g>
<g><path style="opacity:1" fill="#e6e6e6" d="M 182.5,25.5 C 185.5,27.8333 188.167,30.5 190.5,33.5C 190.389,34.1174 190.056,34.6174 189.5,35C 187.527,35.4955 185.527,35.6621 183.5,35.5C 183.5,34.5 183.5,33.5 183.5,32.5C 180.5,32.5 177.5,32.5 174.5,32.5C 174.5,31.1667 174.5,29.8333 174.5,28.5C 177.948,29.0994 180.614,28.0994 182.5,25.5 Z"/></g>
<g><path style="opacity:1" fill="#cbcbcb" d="M 123.5,28.5 C 124.514,29.7647 126.014,30.4313 128,30.5C 129.986,30.4313 131.486,29.7647 132.5,28.5C 134.5,28.5 136.5,28.5 138.5,28.5C 138.5,30.8333 138.5,33.1667 138.5,35.5C 140.288,35.2148 141.955,35.5481 143.5,36.5C 145.977,37.88 145.977,38.88 143.5,39.5C 142.222,39.2178 141.222,38.5511 140.5,37.5C 139.5,37.5 138.5,37.5 137.5,37.5C 135.721,36.3303 134.721,34.6636 134.5,32.5C 132.533,32.7394 130.699,32.4061 129,31.5C 126.54,32.755 125.373,34.755 125.5,37.5C 121.485,37.7241 120.819,36.5575 123.5,34C 123.022,32.6974 122.355,31.5307 121.5,30.5C 121.833,29.5 122.5,28.8333 123.5,28.5 Z"/></g>
<g><path style="opacity:1" fill="#d5d5d5" d="M 149.5,28.5 C 150.434,29.5676 150.768,30.901 150.5,32.5C 151.833,32.5 153.167,32.5 154.5,32.5C 154.5,33.5 154.5,34.5 154.5,35.5C 158.012,34.9455 161.012,35.6122 163.5,37.5C 162.833,37.5 162.167,37.5 161.5,37.5C 155.955,37.4146 150.622,36.4146 145.5,34.5C 145.354,31.4461 146.687,29.4461 149.5,28.5 Z"/></g>
<g><path style="opacity:1" fill="#d0d0d0" d="M 38.5,28.5 C 38.5,29.8333 38.5,31.1667 38.5,32.5C 40.1667,32.5 41.8333,32.5 43.5,32.5C 43.8308,34.3224 44.4975,35.9891 45.5,37.5C 45.5,38.1667 45.5,38.8333 45.5,39.5C 44.2652,39.7214 43.2652,40.3881 42.5,41.5C 39.1688,38.1673 35.1688,36.1673 30.5,35.5C 30.5,34.1667 30.5,32.8333 30.5,31.5C 33.1716,30.4986 35.8382,29.4986 38.5,28.5 Z"/></g>
<g><path style="opacity:1" fill="#e0e0e0" d="M 137.5,37.5 C 135.833,37.5 134.167,37.5 132.5,37.5C 130.167,37.5 127.833,37.5 125.5,37.5C 125.373,34.755 126.54,32.755 129,31.5C 130.699,32.4061 132.533,32.7394 134.5,32.5C 134.721,34.6636 135.721,36.3303 137.5,37.5 Z"/></g>
<g><path style="opacity:1" fill="#c9c9c9" d="M 174.5,28.5 C 174.5,29.8333 174.5,31.1667 174.5,32.5C 177.5,32.5 180.5,32.5 183.5,32.5C 183.5,33.5 183.5,34.5 183.5,35.5C 183.5,36.1667 183.5,36.8333 183.5,37.5C 181.167,37.5 178.833,37.5 176.5,37.5C 176.5,36.5 176.5,35.5 176.5,34.5C 174.5,34.5 172.5,34.5 170.5,34.5C 169.887,31.0306 171.221,29.0306 174.5,28.5 Z"/></g>
<g><path style="opacity:0.875" fill="#cacaca" d="M 25.5,33.5 C 25.2786,34.7348 24.6119,35.7348 23.5,36.5C 24.6888,37.4287 26.0222,37.762 27.5,37.5C 27.5,38.8333 27.5,40.1667 27.5,41.5C 28.791,41.2627 29.791,41.596 30.5,42.5C 29.791,43.404 28.791,43.7373 27.5,43.5C 25.7179,42.2804 23.7179,41.6138 21.5,41.5C 21.7593,39.0107 20.7593,37.344 18.5,36.5C 20.5093,34.9348 22.8427,33.9348 25.5,33.5 Z"/></g>
<g><path style="opacity:0.991" fill="#d3d3d3" d="M 190.5,33.5 C 191.401,34.2905 192.068,35.2905 192.5,36.5C 191.081,37.4511 189.415,37.7845 187.5,37.5C 187.5,38.8333 187.5,40.1667 187.5,41.5C 189.167,41.5 190.833,41.5 192.5,41.5C 192.5,42.5 192.5,43.5 192.5,44.5C 190.883,43.962 189.216,43.6287 187.5,43.5C 187.5,44.5 187.5,45.5 187.5,46.5C 186.833,46.5 186.167,46.5 185.5,46.5C 185.5,44.1667 185.5,41.8333 185.5,39.5C 185.5,38.1667 184.833,37.5 183.5,37.5C 183.5,36.8333 183.5,36.1667 183.5,35.5C 185.527,35.6621 187.527,35.4955 189.5,35C 190.056,34.6174 190.389,34.1174 190.5,33.5 Z"/></g>
<g><path style="opacity:1" fill="#e5e5e5" d="M 30.5,31.5 C 30.5,32.8333 30.5,34.1667 30.5,35.5C 35.1688,36.1673 39.1688,38.1673 42.5,41.5C 43.2652,40.3881 44.2652,39.7214 45.5,39.5C 45.6347,41.5542 44.968,43.2209 43.5,44.5C 41.1944,44.9926 38.861,45.3259 36.5,45.5C 37.1667,43.5 37.8333,41.5 38.5,39.5C 37.1667,39.5 35.8333,39.5 34.5,39.5C 34.87,43.1859 33.5367,44.1859 30.5,42.5C 29.791,41.596 28.791,41.2627 27.5,41.5C 27.5,40.1667 27.5,38.8333 27.5,37.5C 26.0222,37.762 24.6888,37.4287 23.5,36.5C 24.6119,35.7348 25.2786,34.7348 25.5,33.5C 27.1667,32.8333 28.8333,32.1667 30.5,31.5 Z"/></g>
<g><path style="opacity:1" fill="#aeaeae" d="M 67.5,35.5 C 68.4663,37.0568 69.7996,38.3901 71.5,39.5C 72.4287,40.6888 72.762,42.0222 72.5,43.5C 69.4824,43.2962 66.4824,42.9629 63.5,42.5C 62.791,41.596 61.791,41.2627 60.5,41.5C 59.1667,40.1667 57.8333,38.8333 56.5,37.5C 56.4701,36.5028 56.9701,35.8361 58,35.5C 60.1956,34.9097 62.3622,34.2431 64.5,33.5C 65.2652,34.6119 66.2652,35.2786 67.5,35.5 Z"/></g>
<g><path style="opacity:1" fill="#f1f1f1" d="M 176.5,37.5 C 178.833,37.5 181.167,37.5 183.5,37.5C 184.833,37.5 185.5,38.1667 185.5,39.5C 184.265,39.7214 183.265,40.3881 182.5,41.5C 180.063,39.4244 177.397,39.0911 174.5,40.5C 175.833,41.1667 177.167,41.8333 178.5,42.5C 176.78,43.934 174.78,44.7674 172.5,45C 173.793,45.49 175.127,45.6567 176.5,45.5C 176.5,46.5 176.5,47.5 176.5,48.5C 173.336,48.4422 170.336,47.7755 167.5,46.5C 165.852,44.5441 165.185,42.2108 165.5,39.5C 164.167,39.5 162.833,39.5 161.5,39.5C 161.5,38.8333 161.5,38.1667 161.5,37.5C 162.167,37.5 162.833,37.5 163.5,37.5C 165.929,37.8844 168.263,38.551 170.5,39.5C 170.351,38.448 170.517,37.448 171,36.5C 172.699,37.4061 174.533,37.7394 176.5,37.5 Z"/></g>
<g><path style="opacity:1" fill="#cccccc" d="M 56.5,30.5 C 53.9321,32.0274 52.5988,34.3607 52.5,37.5C 53.8333,37.5 55.1667,37.5 56.5,37.5C 57.8333,38.8333 59.1667,40.1667 60.5,41.5C 60.1667,41.5 59.8333,41.5 59.5,41.5C 55.1668,39.8243 53.5002,41.4909 54.5,46.5C 52.0706,46.1156 49.7373,45.449 47.5,44.5C 47.9227,42.2188 47.256,40.5521 45.5,39.5C 45.5,38.8333 45.5,38.1667 45.5,37.5C 47.0481,37.1788 47.7148,36.1788 47.5,34.5C 48.1577,35.3984 48.8243,36.3984 49.5,37.5C 50.0781,34.6313 51.0781,31.9647 52.5,29.5C 53.1667,29.1667 53.8333,28.8333 54.5,28.5C 55.7133,28.7472 56.38,29.4138 56.5,30.5 Z"/></g>
<g><path style="opacity:1" fill="#d9d9d9" d="M 121.5,30.5 C 122.355,31.5307 123.022,32.6974 123.5,34C 120.819,36.5575 121.485,37.7241 125.5,37.5C 127.833,37.5 130.167,37.5 132.5,37.5C 130.492,39.3636 128.159,41.0303 125.5,42.5C 126.689,43.4287 128.022,43.762 129.5,43.5C 129.5,44.5 129.5,45.5 129.5,46.5C 128.817,48.1765 127.483,48.8432 125.5,48.5C 123.746,46.4113 122.413,44.078 121.5,41.5C 118.924,41.5321 116.591,40.8654 114.5,39.5C 116.12,35.9181 118.453,32.9181 121.5,30.5 Z"/></g>
<g><path style="opacity:0.953" fill="#dfdfdf" d="M 16.5,36.5 C 16.7426,42.2208 19.7426,44.8875 25.5,44.5C 25.8432,46.4832 25.1765,47.8166 23.5,48.5C 21.1667,48.5 18.8333,48.5 16.5,48.5C 14.071,47.7352 12.7377,46.0685 12.5,43.5C 11.5,43.5 10.5,43.5 9.5,43.5C 9.5,41.8333 9.5,40.1667 9.5,38.5C 11.9653,38.233 14.2986,37.5664 16.5,36.5 Z"/></g>
<g><path style="opacity:1" fill="#e2e2e2" d="M 185.5,39.5 C 185.5,41.8333 185.5,44.1667 185.5,46.5C 182.527,47.4464 181.36,49.4464 182,52.5C 184.008,49.8611 185.841,49.8611 187.5,52.5C 186.167,52.5 184.833,52.5 183.5,52.5C 183.769,54.4286 183.269,56.0953 182,57.5C 181.692,56.6919 181.192,56.0253 180.5,55.5C 179.571,56.6888 179.238,58.0222 179.5,59.5C 178.566,58.4324 178.232,57.099 178.5,55.5C 176.901,55.7678 175.568,55.4345 174.5,54.5C 175.833,54.5 177.167,54.5 178.5,54.5C 178.386,52.2821 177.72,50.2821 176.5,48.5C 176.5,47.5 176.5,46.5 176.5,45.5C 175.127,45.6567 173.793,45.49 172.5,45C 174.78,44.7674 176.78,43.934 178.5,42.5C 177.167,41.8333 175.833,41.1667 174.5,40.5C 177.397,39.0911 180.063,39.4244 182.5,41.5C 183.265,40.3881 184.265,39.7214 185.5,39.5 Z"/></g>
<g><path style="opacity:1" fill="#e4e4e4" d="M 132.5,37.5 C 134.167,37.5 135.833,37.5 137.5,37.5C 138.5,37.5 139.5,37.5 140.5,37.5C 140.657,38.8734 140.49,40.2068 140,41.5C 139.174,39.5946 138.007,39.2612 136.5,40.5C 137.853,41.5237 138.52,42.857 138.5,44.5C 135.918,44.0254 133.918,44.6921 132.5,46.5C 131.5,46.5 130.5,46.5 129.5,46.5C 129.5,45.5 129.5,44.5 129.5,43.5C 128.022,43.762 126.689,43.4287 125.5,42.5C 128.159,41.0303 130.492,39.3636 132.5,37.5 Z"/></g>
<g><path style="opacity:1" fill="#d3d3d3" d="M 140.5,37.5 C 141.222,38.5511 142.222,39.2178 143.5,39.5C 144.865,41.5909 145.532,43.9242 145.5,46.5C 144.486,47.7647 142.986,48.4313 141,48.5C 138.113,47.896 135.28,47.2293 132.5,46.5C 133.918,44.6921 135.918,44.0254 138.5,44.5C 138.52,42.857 137.853,41.5237 136.5,40.5C 138.007,39.2612 139.174,39.5946 140,41.5C 140.49,40.2068 140.657,38.8734 140.5,37.5 Z"/></g>
<g><path style="opacity:1" fill="#dfdfdf" d="M 59.5,41.5 C 59.8333,41.5 60.1667,41.5 60.5,41.5C 61.791,41.2627 62.791,41.596 63.5,42.5C 62.4138,42.62 61.7472,43.2867 61.5,44.5C 62.885,46.5355 64.2183,48.5355 65.5,50.5C 64.2652,50.7214 63.2652,51.3881 62.5,52.5C 60.9931,50.3096 58.9931,48.9762 56.5,48.5C 56.5,46.1667 56.5,43.8333 56.5,41.5C 57.5,41.5 58.5,41.5 59.5,41.5 Z"/></g>
<g><path style="opacity:1" fill="#cecece" d="M 36.5,45.5 C 38.3179,46.4989 39.9846,47.8322 41.5,49.5C 39.9547,50.4519 38.288,50.7852 36.5,50.5C 35.8333,48.5 34.5,47.1667 32.5,46.5C 30.9891,47.5025 29.3224,48.1692 27.5,48.5C 27.5,46.8333 27.5,45.1667 27.5,43.5C 28.791,43.7373 29.791,43.404 30.5,42.5C 33.5367,44.1859 34.87,43.1859 34.5,39.5C 35.8333,39.5 37.1667,39.5 38.5,39.5C 37.8333,41.5 37.1667,43.5 36.5,45.5 Z"/></g>
<g><path style="opacity:0.749" fill="#d4d4d4" d="M 67.5,35.5 C 69.8333,35.5 72.1667,35.5 74.5,35.5C 74.5,40.5 74.5,45.5 74.5,50.5C 72.9257,48.4239 71.0924,46.4239 69,44.5C 67.2341,45.2335 65.4008,45.5668 63.5,45.5C 63.5,44.5 63.5,43.5 63.5,42.5C 66.4824,42.9629 69.4824,43.2962 72.5,43.5C 72.762,42.0222 72.4287,40.6888 71.5,39.5C 69.7996,38.3901 68.4663,37.0568 67.5,35.5 Z"/></g>
<g><path style="opacity:1" fill="#e9e9e9" d="M 114.5,39.5 C 116.591,40.8654 118.924,41.5321 121.5,41.5C 122.413,44.078 123.746,46.4113 125.5,48.5C 125.721,49.7348 126.388,50.7348 127.5,51.5C 126.311,52.4287 124.978,52.762 123.5,52.5C 121.922,51.9344 120.588,50.9344 119.5,49.5C 120.167,48.8333 120.833,48.1667 121.5,47.5C 118.891,45.2971 115.891,44.2971 112.5,44.5C 112.893,42.7162 113.559,41.0495 114.5,39.5 Z"/></g>
<g><path style="opacity:1" fill="#f0f0f0" d="M 159.5,41.5 C 160.091,42.1515 160.757,42.8182 161.5,43.5C 159.345,44.0014 157.678,45.0014 156.5,46.5C 155.167,46.5 153.833,46.5 152.5,46.5C 152.5,45.1667 151.833,44.5 150.5,44.5C 149.791,43.596 148.791,43.2627 147.5,43.5C 147.5,42.1667 147.5,40.8333 147.5,39.5C 149.993,39.9762 151.993,41.3096 153.5,43.5C 154.429,42.3112 154.762,40.9778 154.5,39.5C 156.554,39.3653 158.221,40.032 159.5,41.5 Z"/></g>
<g><path style="opacity:0.856" fill="#e3e3e3" d="M 161.5,39.5 C 162.833,39.5 164.167,39.5 165.5,39.5C 165.185,42.2108 165.852,44.5441 167.5,46.5C 166.167,47.8333 164.833,49.1667 163.5,50.5C 161.948,47.8881 159.614,46.5548 156.5,46.5C 157.678,45.0014 159.345,44.0014 161.5,43.5C 160.757,42.8182 160.091,42.1515 159.5,41.5C 159.5,40.1667 160.167,39.5 161.5,39.5 Z"/></g>
<g><path style="opacity:1" fill="#d3d3d3" d="M 45.5,39.5 C 47.256,40.5521 47.9227,42.2188 47.5,44.5C 49.7373,45.449 52.0706,46.1156 54.5,46.5C 53.5002,41.4909 55.1668,39.8243 59.5,41.5C 58.5,41.5 57.5,41.5 56.5,41.5C 56.5,43.8333 56.5,46.1667 56.5,48.5C 56.5,49.8333 55.8333,50.5 54.5,50.5C 52.0706,50.1156 49.7373,49.449 47.5,48.5C 47.8333,45.5 46.5,44.1667 43.5,44.5C 44.968,43.2209 45.6347,41.5542 45.5,39.5 Z"/></g>
<g><path style="opacity:0.828" fill="#eaeaea" d="M 192.5,36.5 C 196.322,42.284 198.988,48.6173 200.5,55.5C 197.609,53.1996 194.943,50.5329 192.5,47.5C 194.977,46.12 194.977,45.12 192.5,44.5C 192.5,43.5 192.5,42.5 192.5,41.5C 190.833,41.5 189.167,41.5 187.5,41.5C 187.5,40.1667 187.5,38.8333 187.5,37.5C 189.415,37.7845 191.081,37.4511 192.5,36.5 Z"/></g>
<g><path style="opacity:1" fill="#d4d4d4" d="M 9.5,43.5 C 10.5,43.5 11.5,43.5 12.5,43.5C 12.7377,46.0685 14.071,47.7352 16.5,48.5C 16.7822,49.7777 17.4489,50.7777 18.5,51.5C 16.8235,52.1834 16.1568,53.5168 16.5,55.5C 15.1667,55.5 13.8333,55.5 12.5,55.5C 12.5,53.8333 12.5,52.1667 12.5,50.5C 11.5,50.5 10.5,50.5 9.5,50.5C 9.5,48.1667 9.5,45.8333 9.5,43.5 Z"/></g>
<g><path style="opacity:1" fill="#e9e9e9" d="M 16.5,36.5 C 17.1667,36.5 17.8333,36.5 18.5,36.5C 20.7593,37.344 21.7593,39.0107 21.5,41.5C 23.7179,41.6138 25.7179,42.2804 27.5,43.5C 27.5,45.1667 27.5,46.8333 27.5,48.5C 29.3224,48.1692 30.9891,47.5025 32.5,46.5C 32.9746,49.0821 32.3079,51.0821 30.5,52.5C 27.8049,51.572 25.4715,50.2387 23.5,48.5C 25.1765,47.8166 25.8432,46.4832 25.5,44.5C 19.7426,44.8875 16.7426,42.2208 16.5,36.5 Z"/></g>
<g><path style="opacity:1" fill="#d6d6d6" d="M 112.5,44.5 C 115.891,44.2971 118.891,45.2971 121.5,47.5C 120.833,48.1667 120.167,48.8333 119.5,49.5C 120.588,50.9344 121.922,51.9344 123.5,52.5C 122.551,54.7373 121.884,57.0706 121.5,59.5C 121.672,60.4916 121.338,61.1583 120.5,61.5C 120.657,60.1266 120.49,58.7932 120,57.5C 119.722,58.4158 119.222,59.0825 118.5,59.5C 118.5,57.1667 118.5,54.8333 118.5,52.5C 115.833,51.8333 113.167,51.1667 110.5,50.5C 110.595,48.2143 111.262,46.2143 112.5,44.5 Z"/></g>
<g><path style="opacity:1" fill="#dfdfdf" d="M 192.5,44.5 C 194.977,45.12 194.977,46.12 192.5,47.5C 194.943,50.5329 197.609,53.1996 200.5,55.5C 200.5,56.1667 200.5,56.8333 200.5,57.5C 199.167,57.5 197.833,57.5 196.5,57.5C 195.817,55.8235 194.483,55.1568 192.5,55.5C 192.657,54.1266 192.49,52.7932 192,51.5C 189.928,50.2657 188.428,48.5991 187.5,46.5C 187.5,45.5 187.5,44.5 187.5,43.5C 189.216,43.6287 190.883,43.962 192.5,44.5 Z"/></g>
<g><path style="opacity:1" fill="#cfcfcf" d="M 43.5,44.5 C 46.5,44.1667 47.8333,45.5 47.5,48.5C 47.5,49.8333 47.5,51.1667 47.5,52.5C 45.396,52.2011 43.396,52.5344 41.5,53.5C 44.003,54.7588 46.503,56.0922 49,57.5C 50.0299,57.1639 50.5299,56.4972 50.5,55.5C 51.7348,55.7214 52.7348,56.3881 53.5,57.5C 54.2975,57.0431 54.6309,56.3764 54.5,55.5C 56.1765,56.1834 56.8432,57.5168 56.5,59.5C 52.9606,59.8434 49.4606,60.5101 46,61.5C 43.8794,61.3025 42.0461,60.6358 40.5,59.5C 40.5,59.1667 40.5,58.8333 40.5,58.5C 39.2825,57.8386 37.9492,57.1719 36.5,56.5C 37.5,55.8333 38.5,55.1667 39.5,54.5C 38.1763,53.0653 36.5096,52.0653 34.5,51.5C 34.9569,50.7025 35.6236,50.3691 36.5,50.5C 38.288,50.7852 39.9547,50.4519 41.5,49.5C 39.9846,47.8322 38.3179,46.4989 36.5,45.5C 38.861,45.3259 41.1944,44.9926 43.5,44.5 Z"/></g>
<g><path style="opacity:1" fill="#eaeaea" d="M 63.5,42.5 C 63.5,43.5 63.5,44.5 63.5,45.5C 65.4008,45.5668 67.2341,45.2335 69,44.5C 71.0924,46.4239 72.9257,48.4239 74.5,50.5C 74.5,52.1667 74.5,53.8333 74.5,55.5C 72.9519,55.1788 72.2852,54.1788 72.5,52.5C 69.9242,52.5321 67.5909,51.8654 65.5,50.5C 64.2183,48.5355 62.885,46.5355 61.5,44.5C 61.7472,43.2867 62.4138,42.62 63.5,42.5 Z"/></g>
<g><path style="opacity:0.994" fill="#cfcfcf" d="M 167.5,46.5 C 170.336,47.7755 173.336,48.4422 176.5,48.5C 177.72,50.2821 178.386,52.2821 178.5,54.5C 177.167,54.5 175.833,54.5 174.5,54.5C 173.432,53.5655 172.099,53.2322 170.5,53.5C 170.328,55.4918 170.995,57.1585 172.5,58.5C 171.833,58.8333 171.167,59.1667 170.5,59.5C 169.133,58.7745 167.8,58.1079 166.5,57.5C 165.773,55.0462 164.773,52.7128 163.5,50.5C 164.833,49.1667 166.167,47.8333 167.5,46.5 Z"/></g>
<g><path style="opacity:1" fill="#f2f2f2" d="M 185.5,46.5 C 186.167,46.5 186.833,46.5 187.5,46.5C 188.428,48.5991 189.928,50.2657 192,51.5C 192.49,52.7932 192.657,54.1266 192.5,55.5C 192.167,56.8333 191.833,58.1667 191.5,59.5C 190.167,59.5 188.833,59.5 187.5,59.5C 187.5,57.1667 187.5,54.8333 187.5,52.5C 185.841,49.8611 184.008,49.8611 182,52.5C 181.36,49.4464 182.527,47.4464 185.5,46.5 Z"/></g>
<g><path style="opacity:1" fill="#e6e6e6" d="M 47.5,48.5 C 49.7373,49.449 52.0706,50.1156 54.5,50.5C 53.8166,52.1765 52.4832,52.8432 50.5,52.5C 50.5,53.5 50.5,54.5 50.5,55.5C 50.5299,56.4972 50.0299,57.1639 49,57.5C 46.503,56.0922 44.003,54.7588 41.5,53.5C 43.396,52.5344 45.396,52.2011 47.5,52.5C 47.5,51.1667 47.5,49.8333 47.5,48.5 Z"/></g>
<g><path style="opacity:1" fill="#e3e3e3" d="M 9.5,50.5 C 10.5,50.5 11.5,50.5 12.5,50.5C 12.5,52.1667 12.5,53.8333 12.5,55.5C 13.8333,55.5 15.1667,55.5 16.5,55.5C 16.1568,53.5168 16.8235,52.1834 18.5,51.5C 20.3432,52.2829 22.3432,52.9495 24.5,53.5C 25.4287,54.6888 25.762,56.0222 25.5,57.5C 26.5,57.5 27.5,57.5 28.5,57.5C 28.2089,58.6491 27.3756,59.3158 26,59.5C 24.4495,58.9465 22.9495,58.2798 21.5,57.5C 19.1667,57.8333 18.8333,58.8333 20.5,60.5C 19.3112,61.4287 17.9778,61.762 16.5,61.5C 16.762,60.0222 16.4287,58.6888 15.5,57.5C 15.1667,58.5 14.8333,59.5 14.5,60.5C 14.9865,62.3042 15.6532,63.9709 16.5,65.5C 14.4855,66.9238 12.1522,67.5905 9.5,67.5C 9.5,61.8333 9.5,56.1667 9.5,50.5 Z"/></g>
<g><path style="opacity:1" fill="#bebebe" d="M 16.5,48.5 C 18.8333,48.5 21.1667,48.5 23.5,48.5C 25.4715,50.2387 27.8049,51.572 30.5,52.5C 30.5,54.1667 30.5,55.8333 30.5,57.5C 29.8333,57.5 29.1667,57.5 28.5,57.5C 27.5,57.5 26.5,57.5 25.5,57.5C 25.762,56.0222 25.4287,54.6888 24.5,53.5C 22.3432,52.9495 20.3432,52.2829 18.5,51.5C 17.4489,50.7777 16.7822,49.7777 16.5,48.5 Z"/></g>
<g><path style="opacity:1" fill="#c8c8c8" d="M 56.5,48.5 C 58.9931,48.9762 60.9931,50.3096 62.5,52.5C 63.2652,51.3881 64.2652,50.7214 65.5,50.5C 67.5909,51.8654 69.9242,52.5321 72.5,52.5C 72.2852,54.1788 72.9519,55.1788 74.5,55.5C 74.5,56.8333 74.5,58.1667 74.5,59.5C 73.8333,59.5 73.1667,59.5 72.5,59.5C 71.8333,56.8333 71.1667,56.8333 70.5,59.5C 68.8235,58.8166 68.1568,57.4832 68.5,55.5C 67.5,55.5 66.5,55.5 65.5,55.5C 65.6309,54.6236 65.2975,53.9569 64.5,53.5C 61.6818,54.7826 58.8484,54.7826 56,53.5C 54.9701,53.8361 54.4701,54.5028 54.5,55.5C 54.6309,56.3764 54.2975,57.0431 53.5,57.5C 52.7348,56.3881 51.7348,55.7214 50.5,55.5C 50.5,54.5 50.5,53.5 50.5,52.5C 52.4832,52.8432 53.8166,52.1765 54.5,50.5C 55.8333,50.5 56.5,49.8333 56.5,48.5 Z"/></g>
<g><path style="opacity:1" fill="#efefef" d="M 129.5,46.5 C 130.5,46.5 131.5,46.5 132.5,46.5C 132.721,47.7348 133.388,48.7348 134.5,49.5C 133.311,50.4287 131.978,50.762 130.5,50.5C 130.264,52.9732 128.931,54.6399 126.5,55.5C 125.571,56.6888 125.238,58.0222 125.5,59.5C 127.167,59.5 128.833,59.5 130.5,59.5C 129.848,60.7251 128.681,61.3917 127,61.5C 125.011,61.0791 123.177,60.4124 121.5,59.5C 121.884,57.0706 122.551,54.7373 123.5,52.5C 124.978,52.762 126.311,52.4287 127.5,51.5C 126.388,50.7348 125.721,49.7348 125.5,48.5C 127.483,48.8432 128.817,48.1765 129.5,46.5 Z"/></g>
<g><path style="opacity:1" fill="#e1e1e1" d="M 32.5,46.5 C 34.5,47.1667 35.8333,48.5 36.5,50.5C 35.6236,50.3691 34.9569,50.7025 34.5,51.5C 36.5096,52.0653 38.1763,53.0653 39.5,54.5C 38.5,55.1667 37.5,55.8333 36.5,56.5C 37.9492,57.1719 39.2825,57.8386 40.5,58.5C 38.8828,59.038 37.2161,59.3713 35.5,59.5C 33.2188,59.9227 31.5521,59.256 30.5,57.5C 30.5,55.8333 30.5,54.1667 30.5,52.5C 32.3079,51.0821 32.9746,49.0821 32.5,46.5 Z"/></g>
<g><path style="opacity:1" fill="#ebebeb" d="M 110.5,50.5 C 113.167,51.1667 115.833,51.8333 118.5,52.5C 118.5,54.8333 118.5,57.1667 118.5,59.5C 116.5,59.5 114.5,59.5 112.5,59.5C 113.092,56.3695 112.092,54.0361 109.5,52.5C 109.328,51.5084 109.662,50.8417 110.5,50.5 Z"/></g>
<g><path style="opacity:1" fill="#d3d3d3" d="M 187.5,52.5 C 187.5,54.8333 187.5,57.1667 187.5,59.5C 188.833,59.5 190.167,59.5 191.5,59.5C 192.675,59.281 193.675,59.6143 194.5,60.5C 192.955,61.4519 191.288,61.7852 189.5,61.5C 187.282,61.3862 185.282,60.7196 183.5,59.5C 182.167,59.5 180.833,59.5 179.5,59.5C 179.238,58.0222 179.571,56.6888 180.5,55.5C 181.192,56.0253 181.692,56.6919 182,57.5C 183.269,56.0953 183.769,54.4286 183.5,52.5C 184.833,52.5 186.167,52.5 187.5,52.5 Z"/></g>
<g><path style="opacity:1" fill="#dedede" d="M 65.5,55.5 C 64.1667,58.1667 62.8333,60.8333 61.5,63.5C 60.4479,61.744 58.7812,61.0773 56.5,61.5C 56.5,60.8333 56.5,60.1667 56.5,59.5C 56.8432,57.5168 56.1765,56.1834 54.5,55.5C 54.4701,54.5028 54.9701,53.8361 56,53.5C 58.8484,54.7826 61.6818,54.7826 64.5,53.5C 65.2975,53.9569 65.6309,54.6236 65.5,55.5 Z"/></g>
<g><path style="opacity:1" fill="#dcdcdc" d="M 150.5,44.5 C 151.833,44.5 152.5,45.1667 152.5,46.5C 148.438,46.7241 145.605,48.7241 144,52.5C 141.984,57.9883 141.151,63.655 141.5,69.5C 140.85,69.1961 140.183,68.8627 139.5,68.5C 139.036,66.0251 138.036,64.0251 136.5,62.5C 135.455,61.1224 134.122,60.1224 132.5,59.5C 131.833,59.5 131.167,59.5 130.5,59.5C 128.833,59.5 127.167,59.5 125.5,59.5C 125.238,58.0222 125.571,56.6888 126.5,55.5C 128.931,54.6399 130.264,52.9732 130.5,50.5C 131.978,50.762 133.311,50.4287 134.5,49.5C 133.388,48.7348 132.721,47.7348 132.5,46.5C 135.28,47.2293 138.113,47.896 141,48.5C 142.986,48.4313 144.486,47.7647 145.5,46.5C 147.011,45.4975 148.678,44.8308 150.5,44.5 Z"/></g>
<g><path style="opacity:1" fill="#494949" d="M 72.5,59.5 C 71.8333,59.5 71.1667,59.5 70.5,59.5C 71.1667,56.8333 71.8333,56.8333 72.5,59.5 Z"/></g>
<g><path style="opacity:1" fill="#e3e3e3" d="M 65.5,55.5 C 66.5,55.5 67.5,55.5 68.5,55.5C 68.1568,57.4832 68.8235,58.8166 70.5,59.5C 71.1667,59.5 71.8333,59.5 72.5,59.5C 73.1667,59.5 73.8333,59.5 74.5,59.5C 74.5,63.1667 74.5,66.8333 74.5,70.5C 71.3056,70.2695 68.3056,70.9362 65.5,72.5C 64.2867,72.2528 63.62,71.5862 63.5,70.5C 63.5,68.5 63.5,66.5 63.5,64.5C 64.8333,64.5 66.1667,64.5 67.5,64.5C 66.2245,61.6644 65.5578,58.6644 65.5,55.5 Z"/></g>
<g><path style="opacity:1" fill="#cecece" d="M 109.5,52.5 C 112.092,54.0361 113.092,56.3695 112.5,59.5C 114.5,59.5 116.5,59.5 118.5,59.5C 119.222,59.0825 119.722,58.4158 120,57.5C 120.49,58.7932 120.657,60.1266 120.5,61.5C 119.662,61.8417 119.328,62.5084 119.5,63.5C 119.167,63.5 118.833,63.5 118.5,63.5C 116.417,60.9178 114.083,60.9178 111.5,63.5C 110.476,62.1468 109.143,61.4802 107.5,61.5C 108.167,58.5 108.833,55.5 109.5,52.5 Z"/></g>
<g><path style="opacity:1" fill="#ededed" d="M 174.5,54.5 C 175.568,55.4345 176.901,55.7678 178.5,55.5C 178.232,57.099 178.566,58.4324 179.5,59.5C 180.833,59.5 182.167,59.5 183.5,59.5C 181.721,61.3435 179.388,62.0102 176.5,61.5C 174.167,61.5 171.833,61.5 169.5,61.5C 169.923,63.7812 169.256,65.4479 167.5,66.5C 167.492,63.4552 167.159,60.4552 166.5,57.5C 167.8,58.1079 169.133,58.7745 170.5,59.5C 171.167,59.1667 171.833,58.8333 172.5,58.5C 170.995,57.1585 170.328,55.4918 170.5,53.5C 172.099,53.2322 173.432,53.5655 174.5,54.5 Z"/></g>
<g><path style="opacity:1" fill="#dedede" d="M 121.5,59.5 C 123.177,60.4124 125.011,61.0791 127,61.5C 128.681,61.3917 129.848,60.7251 130.5,59.5C 131.167,59.5 131.833,59.5 132.5,59.5C 132.773,61.451 132.107,62.951 130.5,64C 127.493,64.3013 124.493,64.1346 121.5,63.5C 121.077,65.7812 121.744,67.4479 123.5,68.5C 123.5,69.1667 123.5,69.8333 123.5,70.5C 122.508,70.3284 121.842,70.6618 121.5,71.5C 121.265,72.0967 120.765,72.4301 120,72.5C 118.251,71.5902 117.084,70.2569 116.5,68.5C 117.5,68.5 118.5,68.5 119.5,68.5C 119.5,66.8333 119.5,65.1667 119.5,63.5C 119.328,62.5084 119.662,61.8417 120.5,61.5C 121.338,61.1583 121.672,60.4916 121.5,59.5 Z"/></g>
<g><path style="opacity:0.785" fill="#d3d3d3" d="M 28.5,57.5 C 29.1667,57.5 29.8333,57.5 30.5,57.5C 31.5521,59.256 33.2188,59.9227 35.5,59.5C 29.5007,62.2762 23.1673,64.2762 16.5,65.5C 15.6532,63.9709 14.9865,62.3042 14.5,60.5C 14.8333,59.5 15.1667,58.5 15.5,57.5C 16.4287,58.6888 16.762,60.0222 16.5,61.5C 17.9778,61.762 19.3112,61.4287 20.5,60.5C 18.8333,58.8333 19.1667,57.8333 21.5,57.5C 22.9495,58.2798 24.4495,58.9465 26,59.5C 27.3756,59.3158 28.2089,58.6491 28.5,57.5 Z"/></g>
<g><path style="opacity:0.966" fill="#e4e4e4" d="M 40.5,59.5 C 42.0461,60.6358 43.8794,61.3025 46,61.5C 49.4606,60.5101 52.9606,59.8434 56.5,59.5C 56.5,60.1667 56.5,60.8333 56.5,61.5C 55.1667,61.5 53.8333,61.5 52.5,61.5C 52.5,62.5 52.5,63.5 52.5,64.5C 51.1266,64.3433 49.7932,64.51 48.5,65C 50.0581,65.21 51.3915,65.71 52.5,66.5C 50.1667,67.8333 47.8333,69.1667 45.5,70.5C 44.1667,70.5 42.8333,70.5 41.5,70.5C 42.9525,73.9863 43.6192,77.653 43.5,81.5C 43.7822,82.7777 44.4489,83.7777 45.5,84.5C 44.1667,84.5 42.8333,84.5 41.5,84.5C 41.5,85.8333 41.5,87.1667 41.5,88.5C 43.4832,88.1568 44.8166,88.8235 45.5,90.5C 44.1667,90.5 42.8333,90.5 41.5,90.5C 41.7373,91.791 41.404,92.791 40.5,93.5C 40.5,82.1667 40.5,70.8333 40.5,59.5 Z"/></g>
<g><path style="opacity:1" fill="#eaeaea" d="M 136.5,62.5 C 138.036,64.0251 139.036,66.0251 139.5,68.5C 140.183,68.8627 140.85,69.1961 141.5,69.5C 141.5,69.8333 141.5,70.1667 141.5,70.5C 136.288,70.3448 131.622,69.0115 127.5,66.5C 131.223,66.4662 134.223,65.1328 136.5,62.5 Z"/></g>
<g><path style="opacity:1" fill="#d0d0d0" d="M 176.5,61.5 C 176.48,63.143 177.147,64.4763 178.5,65.5C 176.668,66.0568 175.335,67.0568 174.5,68.5C 172.167,68.5 169.833,68.5 167.5,68.5C 167.5,67.8333 167.5,67.1667 167.5,66.5C 169.256,65.4479 169.923,63.7812 169.5,61.5C 171.833,61.5 174.167,61.5 176.5,61.5 Z"/></g>
<g><path style="opacity:1" fill="#ececec" d="M 192.5,55.5 C 194.483,55.1568 195.817,55.8235 196.5,57.5C 196.383,61.2493 195.716,64.916 194.5,68.5C 195.021,70.9241 195.688,73.2574 196.5,75.5C 195.167,75.5 193.833,75.5 192.5,75.5C 192.952,71.8638 191.452,69.5305 188,68.5C 186.624,68.6842 185.791,69.3509 185.5,70.5C 184.167,70.5 182.833,70.5 181.5,70.5C 181.5,69.1667 180.833,68.5 179.5,68.5C 180.038,66.8828 180.371,65.2161 180.5,63.5C 184.012,64.0545 187.012,63.3878 189.5,61.5C 191.288,61.7852 192.955,61.4519 194.5,60.5C 193.675,59.6143 192.675,59.281 191.5,59.5C 191.833,58.1667 192.167,56.8333 192.5,55.5 Z"/></g>
<g><path style="opacity:1" fill="#a9a9a9" d="M 107.5,61.5 C 109.143,61.4802 110.476,62.1468 111.5,63.5C 114.083,60.9178 116.417,60.9178 118.5,63.5C 116.901,63.2322 115.568,63.5655 114.5,64.5C 114.5,65.1667 114.5,65.8333 114.5,66.5C 111.924,66.5321 109.591,65.8654 107.5,64.5C 107.5,63.5 107.5,62.5 107.5,61.5 Z"/></g>
<g><path style="opacity:1" fill="#dcdcdc" d="M 183.5,59.5 C 185.282,60.7196 187.282,61.3862 189.5,61.5C 187.012,63.3878 184.012,64.0545 180.5,63.5C 180.371,65.2161 180.038,66.8828 179.5,68.5C 177.833,68.5 176.167,68.5 174.5,68.5C 175.335,67.0568 176.668,66.0568 178.5,65.5C 177.147,64.4763 176.48,63.143 176.5,61.5C 179.388,62.0102 181.721,61.3435 183.5,59.5 Z"/></g>
<g><path style="opacity:1" fill="#c9c9c9" d="M 56.5,61.5 C 58.7812,61.0773 60.4479,61.744 61.5,63.5C 61.5,64.5 61.5,65.5 61.5,66.5C 60.5,66.5 59.5,66.5 58.5,66.5C 56.5,66.5 54.5,66.5 52.5,66.5C 51.3915,65.71 50.0581,65.21 48.5,65C 49.7932,64.51 51.1266,64.3433 52.5,64.5C 52.5,63.5 52.5,62.5 52.5,61.5C 53.8333,61.5 55.1667,61.5 56.5,61.5 Z"/></g>
<g><path style="opacity:1" fill="#efefef" d="M 132.5,59.5 C 134.122,60.1224 135.455,61.1224 136.5,62.5C 134.223,65.1328 131.223,66.4662 127.5,66.5C 125.517,66.1568 124.183,66.8235 123.5,68.5C 121.744,67.4479 121.077,65.7812 121.5,63.5C 124.493,64.1346 127.493,64.3013 130.5,64C 132.107,62.951 132.773,61.451 132.5,59.5 Z"/></g>
<g><path style="opacity:1" fill="#484848" d="M 114.5,64.5 C 115.978,64.238 117.311,64.5713 118.5,65.5C 118.043,66.2975 117.376,66.6309 116.5,66.5C 115.833,66.5 115.167,66.5 114.5,66.5C 114.5,65.8333 114.5,65.1667 114.5,64.5 Z"/></g>
<g><path style="opacity:1" fill="#d0d0d0" d="M 65.5,55.5 C 65.5578,58.6644 66.2245,61.6644 67.5,64.5C 66.1667,64.5 64.8333,64.5 63.5,64.5C 63.5,66.5 63.5,68.5 63.5,70.5C 61.5168,70.1568 60.1834,70.8235 59.5,72.5C 59.1667,72.5 58.8333,72.5 58.5,72.5C 58.5,70.5 58.5,68.5 58.5,66.5C 59.5,66.5 60.5,66.5 61.5,66.5C 61.5,65.5 61.5,64.5 61.5,63.5C 62.8333,60.8333 64.1667,58.1667 65.5,55.5 Z"/></g>
<g><path style="opacity:1" fill="#828282" d="M 114.5,64.5 C 115.568,63.5655 116.901,63.2322 118.5,63.5C 118.833,63.5 119.167,63.5 119.5,63.5C 119.5,65.1667 119.5,66.8333 119.5,68.5C 118.5,68.5 117.5,68.5 116.5,68.5C 116.5,67.8333 116.5,67.1667 116.5,66.5C 117.376,66.6309 118.043,66.2975 118.5,65.5C 117.311,64.5713 115.978,64.238 114.5,64.5 Z"/></g>
<g><path style="opacity:1" fill="#dbdbdb" d="M 52.5,66.5 C 54.5,66.5 56.5,66.5 58.5,66.5C 58.5,68.5 58.5,70.5 58.5,72.5C 55.8559,72.8399 53.5225,72.1733 51.5,70.5C 50.4777,70.8555 49.811,71.5222 49.5,72.5C 47.5168,72.8432 46.1834,72.1765 45.5,70.5C 47.8333,69.1667 50.1667,67.8333 52.5,66.5 Z"/></g>
<g><path style="opacity:1" fill="#c7c7c7" d="M 167.5,68.5 C 169.833,68.5 172.167,68.5 174.5,68.5C 176.167,68.5 177.833,68.5 179.5,68.5C 180.833,68.5 181.5,69.1667 181.5,70.5C 179.833,70.5 178.167,70.5 176.5,70.5C 176.5,71.8333 176.5,73.1667 176.5,74.5C 179.5,74.5 182.5,74.5 185.5,74.5C 185.5,75.5 185.5,76.5 185.5,77.5C 183.517,77.1568 182.183,77.8235 181.5,79.5C 177.208,76.987 172.541,75.6536 167.5,75.5C 167.5,73.1667 167.5,70.8333 167.5,68.5 Z"/></g>
<g><path style="opacity:1" fill="#dedede" d="M 196.5,57.5 C 197.833,57.5 199.167,57.5 200.5,57.5C 201.824,64.7534 202.491,72.0867 202.5,79.5C 201.844,78.7222 201.011,78.0556 200,77.5C 198.302,79.033 196.469,80.3663 194.5,81.5C 192.109,80.8086 192.109,79.8086 194.5,78.5C 194.043,77.7025 193.376,77.3691 192.5,77.5C 192.5,76.8333 192.5,76.1667 192.5,75.5C 193.833,75.5 195.167,75.5 196.5,75.5C 195.688,73.2574 195.021,70.9241 194.5,68.5C 195.716,64.916 196.383,61.2493 196.5,57.5 Z"/></g>
<g><path style="opacity:1" fill="#cdcdcd" d="M 63.5,70.5 C 63.62,71.5862 64.2867,72.2528 65.5,72.5C 68.3056,70.9362 71.3056,70.2695 74.5,70.5C 74.5,71.5 74.5,72.5 74.5,73.5C 73.1667,74.1667 71.8333,74.8333 70.5,75.5C 70.2648,74.9033 69.7648,74.5699 69,74.5C 66.7691,76.1997 64.2691,77.1997 61.5,77.5C 61.9227,75.2188 61.256,73.5521 59.5,72.5C 60.1834,70.8235 61.5168,70.1568 63.5,70.5 Z"/></g>
<g><path style="opacity:1" fill="#f3f3f3" d="M 116.5,68.5 C 117.084,70.2569 118.251,71.5902 120,72.5C 120.765,72.4301 121.265,72.0967 121.5,71.5C 123.104,72.287 123.771,73.6203 123.5,75.5C 122.167,75.5 120.833,75.5 119.5,75.5C 117.018,73.5444 114.352,73.2111 111.5,74.5C 110.281,73.3539 108.948,72.3539 107.5,71.5C 107.833,70.8333 108.167,70.1667 108.5,69.5C 111.086,68.52 113.753,68.1866 116.5,68.5 Z"/></g>
<g><path style="opacity:1" fill="#dcdcdc" d="M 107.5,64.5 C 109.591,65.8654 111.924,66.5321 114.5,66.5C 115.167,66.5 115.833,66.5 116.5,66.5C 116.5,67.1667 116.5,67.8333 116.5,68.5C 113.753,68.1866 111.086,68.52 108.5,69.5C 108.167,70.1667 107.833,70.8333 107.5,71.5C 108.948,72.3539 110.281,73.3539 111.5,74.5C 114.352,73.2111 117.018,73.5444 119.5,75.5C 118.448,77.256 116.781,77.9227 114.5,77.5C 113.265,77.2786 112.265,76.6119 111.5,75.5C 110.833,76.1667 110.167,76.8333 109.5,77.5C 108.269,76.3493 108.269,75.1827 109.5,74C 108.423,73.5304 107.423,73.6971 106.5,74.5C 106.616,71.1401 106.949,67.8067 107.5,64.5 Z"/></g>
<g><path style="opacity:1" fill="#a5a5a5" d="M 181.5,70.5 C 182.833,70.5 184.167,70.5 185.5,70.5C 185.5,71.8333 185.5,73.1667 185.5,74.5C 182.5,74.5 179.5,74.5 176.5,74.5C 176.5,73.1667 176.5,71.8333 176.5,70.5C 178.167,70.5 179.833,70.5 181.5,70.5 Z"/></g>
<g><path style="opacity:1" fill="#d1d1d1" d="M 45.5,70.5 C 46.1834,72.1765 47.5168,72.8432 49.5,72.5C 50.404,73.209 50.7373,74.209 50.5,75.5C 48.3944,75.679 46.7277,76.679 45.5,78.5C 47.9238,80.7136 47.2571,81.7136 43.5,81.5C 43.6192,77.653 42.9525,73.9863 41.5,70.5C 42.8333,70.5 44.1667,70.5 45.5,70.5 Z"/></g>
<g><path style="opacity:1" fill="#ececec" d="M 121.5,71.5 C 121.842,70.6618 122.508,70.3284 123.5,70.5C 126.5,70.5 129.5,70.5 132.5,70.5C 132.5,72.1667 132.5,73.8333 132.5,75.5C 130.076,75.1924 127.743,75.5258 125.5,76.5C 130.792,77.4948 136.125,77.8282 141.5,77.5C 141.5,78.8333 141.5,80.1667 141.5,81.5C 139.833,81.5 138.167,81.5 136.5,81.5C 135.833,85.5 135.167,85.5 134.5,81.5C 132.226,81.2849 130.059,80.6182 128,79.5C 127.167,79.8333 126.333,80.1667 125.5,80.5C 126.853,81.5237 127.52,82.857 127.5,84.5C 125.411,84.1433 123.411,83.4767 121.5,82.5C 123.005,81.1585 123.672,79.4918 123.5,77.5C 120.664,78.7755 117.664,79.4422 114.5,79.5C 114.5,78.8333 114.5,78.1667 114.5,77.5C 116.781,77.9227 118.448,77.256 119.5,75.5C 120.833,75.5 122.167,75.5 123.5,75.5C 123.771,73.6203 123.104,72.287 121.5,71.5 Z"/></g>
<g><path style="opacity:1" fill="#d1d1d1" d="M 127.5,66.5 C 131.622,69.0115 136.288,70.3448 141.5,70.5C 141.5,72.8333 141.5,75.1667 141.5,77.5C 136.125,77.8282 130.792,77.4948 125.5,76.5C 127.743,75.5258 130.076,75.1924 132.5,75.5C 132.5,73.8333 132.5,72.1667 132.5,70.5C 129.5,70.5 126.5,70.5 123.5,70.5C 123.5,69.8333 123.5,69.1667 123.5,68.5C 124.183,66.8235 125.517,66.1568 127.5,66.5 Z"/></g>
<g><path style="opacity:1" fill="#efefef" d="M 70.5,75.5 C 70.5,77.5 70.5,79.5 70.5,81.5C 66.715,81.3689 63.0483,80.7022 59.5,79.5C 59.5,78.1667 60.1667,77.5 61.5,77.5C 64.2691,77.1997 66.7691,76.1997 69,74.5C 69.7648,74.5699 70.2648,74.9033 70.5,75.5 Z"/></g>
<g><path style="opacity:1" fill="#d8d8d8" d="M 192.5,75.5 C 192.5,76.1667 192.5,76.8333 192.5,77.5C 189.014,78.9525 185.347,79.6192 181.5,79.5C 182.183,77.8235 183.517,77.1568 185.5,77.5C 185.5,76.5 185.5,75.5 185.5,74.5C 185.5,73.1667 185.5,71.8333 185.5,70.5C 185.791,69.3509 186.624,68.6842 188,68.5C 191.452,69.5305 192.952,71.8638 192.5,75.5 Z"/></g>
<g><path style="opacity:1" fill="#d5d5d5" d="M 59.5,72.5 C 61.256,73.5521 61.9227,75.2188 61.5,77.5C 60.1667,77.5 59.5,78.1667 59.5,79.5C 57.8333,79.5 56.1667,79.5 54.5,79.5C 54.5,81.1667 54.5,82.8333 54.5,84.5C 52.9853,82.7926 51.652,80.7926 50.5,78.5C 53.304,76.8117 56.304,75.645 59.5,75C 60.5981,74.2303 60.5981,73.397 59.5,72.5 Z"/></g>
<g><path style="opacity:1" fill="#e2e2e2" d="M 167.5,75.5 C 172.541,75.6536 177.208,76.987 181.5,79.5C 178.971,82.4344 178.971,85.4344 181.5,88.5C 180.5,88.5 179.5,88.5 178.5,88.5C 178.5,87.8333 178.5,87.1667 178.5,86.5C 178.785,84.712 178.452,83.0453 177.5,81.5C 175.286,83.9238 174.286,83.2571 174.5,79.5C 171.924,79.5321 169.591,78.8654 167.5,77.5C 167.5,76.8333 167.5,76.1667 167.5,75.5 Z"/></g>
<g><path style="opacity:1" fill="#dfdfdf" d="M 127.5,84.5 C 128.376,84.3691 129.043,84.7025 129.5,85.5C 128.388,86.2652 127.721,87.2652 127.5,88.5C 126.833,88.5 126.167,88.5 125.5,88.5C 122.564,87.5942 119.564,86.9275 116.5,86.5C 116.821,84.9519 117.821,84.2852 119.5,84.5C 119.5,83.5 119.5,82.5 119.5,81.5C 117.219,81.9227 115.552,81.256 114.5,79.5C 117.664,79.4422 120.664,78.7755 123.5,77.5C 123.672,79.4918 123.005,81.1585 121.5,82.5C 123.411,83.4767 125.411,84.1433 127.5,84.5 Z"/></g>
<g><path style="opacity:1" fill="#f2f2f2" d="M 192.5,77.5 C 193.376,77.3691 194.043,77.7025 194.5,78.5C 192.109,79.8086 192.109,80.8086 194.5,81.5C 196.469,80.3663 198.302,79.033 200,77.5C 201.011,78.0556 201.844,78.7222 202.5,79.5C 202.5,80.8333 202.5,82.1667 202.5,83.5C 198.094,83.6475 193.761,84.3141 189.5,85.5C 188.446,85.3201 187.446,84.9867 186.5,84.5C 185.702,84.9569 185.369,85.6236 185.5,86.5C 184.167,87.1667 182.833,87.8333 181.5,88.5C 178.971,85.4344 178.971,82.4344 181.5,79.5C 185.347,79.6192 189.014,78.9525 192.5,77.5 Z"/></g>
<g><path style="opacity:1" fill="#e6e6e6" d="M 58.5,72.5 C 58.8333,72.5 59.1667,72.5 59.5,72.5C 60.5981,73.397 60.5981,74.2303 59.5,75C 56.304,75.645 53.304,76.8117 50.5,78.5C 51.652,80.7926 52.9853,82.7926 54.5,84.5C 54.5,85.1667 54.5,85.8333 54.5,86.5C 51.248,86.7105 48.248,86.0438 45.5,84.5C 44.4489,83.7777 43.7822,82.7777 43.5,81.5C 47.2571,81.7136 47.9238,80.7136 45.5,78.5C 46.7277,76.679 48.3944,75.679 50.5,75.5C 50.7373,74.209 50.404,73.209 49.5,72.5C 49.811,71.5222 50.4777,70.8555 51.5,70.5C 53.5225,72.1733 55.8559,72.8399 58.5,72.5 Z"/></g>
<g><path style="opacity:1" fill="#c3c3c3" d="M 59.5,79.5 C 63.0483,80.7022 66.715,81.3689 70.5,81.5C 71.449,83.7373 72.1156,86.0706 72.5,88.5C 70.1667,87.1667 67.8333,85.8333 65.5,84.5C 65.5,85.8333 65.5,87.1667 65.5,88.5C 64.1667,88.5 62.8333,88.5 61.5,88.5C 61.7692,86.5714 61.2692,84.9047 60,83.5C 58.4941,85.1742 56.6607,86.1742 54.5,86.5C 54.5,85.8333 54.5,85.1667 54.5,84.5C 54.5,82.8333 54.5,81.1667 54.5,79.5C 56.1667,79.5 57.8333,79.5 59.5,79.5 Z"/></g>
<g><path style="opacity:1" fill="#d6d6d6" d="M 167.5,77.5 C 169.591,78.8654 171.924,79.5321 174.5,79.5C 174.286,83.2571 175.286,83.9238 177.5,81.5C 178.452,83.0453 178.785,84.712 178.5,86.5C 176.396,86.2011 174.396,86.5344 172.5,87.5C 170.879,88.695 169.213,89.695 167.5,90.5C 167.5,86.1667 167.5,81.8333 167.5,77.5 Z"/></g>
<g><path style="opacity:1" fill="#cdcdcd" d="M 61.5,88.5 C 61.5,89.8333 61.5,91.1667 61.5,92.5C 59.2627,91.551 56.9294,90.8844 54.5,90.5C 54.0296,89.3065 53.0296,88.6399 51.5,88.5C 49.4649,89.2043 47.4649,89.871 45.5,90.5C 44.8166,88.8235 43.4832,88.1568 41.5,88.5C 41.5,87.1667 41.5,85.8333 41.5,84.5C 42.8333,84.5 44.1667,84.5 45.5,84.5C 48.248,86.0438 51.248,86.7105 54.5,86.5C 56.6607,86.1742 58.4941,85.1742 60,83.5C 61.2692,84.9047 61.7692,86.5714 61.5,88.5 Z"/></g>
<g><path style="opacity:0.967" fill="#e2e2e2" d="M 202.5,83.5 C 202.5,87.1667 202.5,90.8333 202.5,94.5C 201.735,94.0766 200.902,93.7432 200,93.5C 198.054,95.9622 195.554,97.2955 192.5,97.5C 193.584,95.5679 194.917,93.7346 196.5,92C 196.164,90.9701 195.497,90.4701 194.5,90.5C 194.279,89.2652 193.612,88.2652 192.5,87.5C 190.257,86.5258 187.924,86.1924 185.5,86.5C 185.369,85.6236 185.702,84.9569 186.5,84.5C 187.446,84.9867 188.446,85.3201 189.5,85.5C 193.761,84.3141 198.094,83.6475 202.5,83.5 Z"/></g>
<g><path style="opacity:1" fill="#d0d0d0" d="M 141.5,81.5 C 141.5,82.8333 141.5,84.1667 141.5,85.5C 138.228,86.1391 135.561,87.8058 133.5,90.5C 131.821,88.8955 129.821,88.2289 127.5,88.5C 127.721,87.2652 128.388,86.2652 129.5,85.5C 129.043,84.7025 128.376,84.3691 127.5,84.5C 127.52,82.857 126.853,81.5237 125.5,80.5C 126.333,80.1667 127.167,79.8333 128,79.5C 130.059,80.6182 132.226,81.2849 134.5,81.5C 135.167,85.5 135.833,85.5 136.5,81.5C 138.167,81.5 139.833,81.5 141.5,81.5 Z"/></g>
<g><path style="opacity:1" fill="#d6d6d6" d="M 114.5,77.5 C 114.5,78.1667 114.5,78.8333 114.5,79.5C 115.552,81.256 117.219,81.9227 119.5,81.5C 119.5,82.5 119.5,83.5 119.5,84.5C 117.821,84.2852 116.821,84.9519 116.5,86.5C 116.03,87.6935 115.03,88.3601 113.5,88.5C 111.865,88.1223 110.365,87.4556 109,86.5C 107.989,87.0556 107.156,87.7222 106.5,88.5C 106.5,83.8333 106.5,79.1667 106.5,74.5C 107.423,73.6971 108.423,73.5304 109.5,74C 108.269,75.1827 108.269,76.3493 109.5,77.5C 110.167,76.8333 110.833,76.1667 111.5,75.5C 112.265,76.6119 113.265,77.2786 114.5,77.5 Z"/></g>
<g><path style="opacity:1" fill="#ebebeb" d="M 141.5,85.5 C 141.5,87.8333 141.5,90.1667 141.5,92.5C 140.5,92.5 139.5,92.5 138.5,92.5C 138.5,93.5 138.5,94.5 138.5,95.5C 136.517,95.8432 135.183,95.1765 134.5,93.5C 132.706,92.7671 131.039,91.7671 129.5,90.5C 127.517,90.8432 126.183,90.1765 125.5,88.5C 126.167,88.5 126.833,88.5 127.5,88.5C 129.821,88.2289 131.821,88.8955 133.5,90.5C 135.561,87.8058 138.228,86.1391 141.5,85.5 Z"/></g>
<g><path style="opacity:1" fill="#eeeeee" d="M 178.5,86.5 C 178.5,87.1667 178.5,87.8333 178.5,88.5C 177.624,88.3691 176.957,88.7025 176.5,89.5C 177.612,90.2652 178.279,91.2652 178.5,92.5C 178.5,93.5 178.5,94.5 178.5,95.5C 174.743,95.2864 174.076,96.2864 176.5,98.5C 176.043,99.2975 175.376,99.6309 174.5,99.5C 172.167,98.1667 169.833,96.8333 167.5,95.5C 167.5,93.8333 167.5,92.1667 167.5,90.5C 169.213,89.695 170.879,88.695 172.5,87.5C 174.396,86.5344 176.396,86.2011 178.5,86.5 Z"/></g>
<g><path style="opacity:0.793" fill="#e5e5e5" d="M 74.5,73.5 C 74.5,82.1667 74.5,90.8333 74.5,99.5C 73.8333,99.5 73.1667,99.5 72.5,99.5C 70.7211,97.6565 68.3878,96.9898 65.5,97.5C 65.2864,93.7429 66.2864,93.0762 68.5,95.5C 71.1326,94.2178 71.1326,92.8844 68.5,91.5C 70.3316,90.9432 71.6649,89.9432 72.5,88.5C 72.1156,86.0706 71.449,83.7373 70.5,81.5C 70.5,79.5 70.5,77.5 70.5,75.5C 71.8333,74.8333 73.1667,74.1667 74.5,73.5 Z"/></g>
<g><path style="opacity:1" fill="#cdcdcd" d="M 116.5,86.5 C 119.564,86.9275 122.564,87.5942 125.5,88.5C 126.183,90.1765 127.517,90.8432 129.5,90.5C 129.03,91.6935 128.03,92.3601 126.5,92.5C 123.746,91.6648 121.246,90.3315 119,88.5C 117.287,89.1374 117.121,90.1374 118.5,91.5C 116.604,92.4656 114.604,92.7989 112.5,92.5C 112.5,94.1667 112.5,95.8333 112.5,97.5C 111.167,97.5 109.833,97.5 108.5,97.5C 107.209,96.4583 107.209,95.2917 108.5,94C 107.956,93.2828 107.289,92.7828 106.5,92.5C 106.5,91.1667 106.5,89.8333 106.5,88.5C 107.156,87.7222 107.989,87.0556 109,86.5C 110.365,87.4556 111.865,88.1223 113.5,88.5C 115.03,88.3601 116.03,87.6935 116.5,86.5 Z"/></g>
<g><path style="opacity:1" fill="#d4d4d4" d="M 72.5,88.5 C 71.6649,89.9432 70.3316,90.9432 68.5,91.5C 71.1326,92.8844 71.1326,94.2178 68.5,95.5C 66.2864,93.0762 65.2864,93.7429 65.5,97.5C 64.1667,98.1667 62.8333,98.8333 61.5,99.5C 59.857,99.5198 58.5237,98.8532 57.5,97.5C 56.9432,99.3316 55.9432,100.665 54.5,101.5C 54.5,100.833 54.5,100.167 54.5,99.5C 54.5,98.1667 53.8333,97.5 52.5,97.5C 54.9878,95.6122 57.9878,94.9455 61.5,95.5C 61.5,94.5 61.5,93.5 61.5,92.5C 61.5,91.1667 61.5,89.8333 61.5,88.5C 62.8333,88.5 64.1667,88.5 65.5,88.5C 65.5,87.1667 65.5,85.8333 65.5,84.5C 67.8333,85.8333 70.1667,87.1667 72.5,88.5 Z"/></g>
<g><path style="opacity:1" fill="#eaeaea" d="M 54.5,90.5 C 56.9294,90.8844 59.2627,91.551 61.5,92.5C 61.5,93.5 61.5,94.5 61.5,95.5C 57.9878,94.9455 54.9878,95.6122 52.5,97.5C 50.712,97.7852 49.0453,97.4519 47.5,96.5C 50.1385,94.7509 52.4719,92.7509 54.5,90.5 Z"/></g>
<g><path style="opacity:1" fill="#dfdfdf" d="M 129.5,90.5 C 131.039,91.7671 132.706,92.7671 134.5,93.5C 133.167,94.8333 131.833,96.1667 130.5,97.5C 128.982,94.7695 126.649,93.6029 123.5,94C 124.973,94.7096 125.64,95.8762 125.5,97.5C 122.918,97.0254 120.918,97.6921 119.5,99.5C 115.351,100.08 111.684,99.4136 108.5,97.5C 109.833,97.5 111.167,97.5 112.5,97.5C 112.5,95.8333 112.5,94.1667 112.5,92.5C 114.604,92.7989 116.604,92.4656 118.5,91.5C 117.121,90.1374 117.287,89.1374 119,88.5C 121.246,90.3315 123.746,91.6648 126.5,92.5C 128.03,92.3601 129.03,91.6935 129.5,90.5 Z"/></g>
<g><path style="opacity:1" fill="#e7e7e7" d="M 194.5,90.5 C 195.497,90.4701 196.164,90.9701 196.5,92C 194.917,93.7346 193.584,95.5679 192.5,97.5C 192.179,99.0481 191.179,99.7148 189.5,99.5C 187.214,95.5198 184.214,94.8531 180.5,97.5C 179.478,97.1445 178.811,96.4778 178.5,95.5C 178.5,94.5 178.5,93.5 178.5,92.5C 179.151,93.0906 179.818,93.7573 180.5,94.5C 182.523,92.8267 184.856,92.1601 187.5,92.5C 187.281,93.675 187.614,94.675 188.5,95.5C 190.417,93.568 192.417,91.9013 194.5,90.5 Z"/></g>
<g><path style="opacity:1" fill="#d7d7d7" d="M 185.5,86.5 C 187.924,86.1924 190.257,86.5258 192.5,87.5C 193.612,88.2652 194.279,89.2652 194.5,90.5C 192.417,91.9013 190.417,93.568 188.5,95.5C 187.614,94.675 187.281,93.675 187.5,92.5C 184.856,92.1601 182.523,92.8267 180.5,94.5C 179.818,93.7573 179.151,93.0906 178.5,92.5C 178.279,91.2652 177.612,90.2652 176.5,89.5C 176.957,88.7025 177.624,88.3691 178.5,88.5C 179.5,88.5 180.5,88.5 181.5,88.5C 182.833,87.8333 184.167,87.1667 185.5,86.5 Z"/></g>
<g><path style="opacity:0.925" fill="#d8d8d8" d="M 54.5,90.5 C 52.4719,92.7509 50.1385,94.7509 47.5,96.5C 49.0453,97.4519 50.712,97.7852 52.5,97.5C 53.8333,97.5 54.5,98.1667 54.5,99.5C 53.2436,99.9038 52.0769,100.571 51,101.5C 50.0546,101.095 49.3879,100.428 49,99.5C 48.5065,101.134 48.3398,102.801 48.5,104.5C 47.5,104.5 46.5,104.5 45.5,104.5C 45.719,103.325 45.3857,102.325 44.5,101.5C 43.2638,102.246 41.9305,102.579 40.5,102.5C 40.5,99.5 40.5,96.5 40.5,93.5C 41.404,92.791 41.7373,91.791 41.5,90.5C 42.8333,90.5 44.1667,90.5 45.5,90.5C 47.4649,89.871 49.4649,89.2043 51.5,88.5C 53.0296,88.6399 54.0296,89.3065 54.5,90.5 Z"/></g>
<g><path style="opacity:0.897" fill="#c8c8c8" d="M 141.5,92.5 C 141.5,94.1667 141.5,95.8333 141.5,97.5C 139.833,97.5 138.167,97.5 136.5,97.5C 136.5,98.8333 136.5,100.167 136.5,101.5C 134.446,101.635 132.779,100.968 131.5,99.5C 130.662,99.1583 130.328,98.4916 130.5,97.5C 131.833,96.1667 133.167,94.8333 134.5,93.5C 135.183,95.1765 136.517,95.8432 138.5,95.5C 138.5,94.5 138.5,93.5 138.5,92.5C 139.5,92.5 140.5,92.5 141.5,92.5 Z"/></g>
<g><path style="opacity:1" fill="#e8e8e8" d="M 106.5,92.5 C 107.289,92.7828 107.956,93.2828 108.5,94C 107.209,95.2917 107.209,96.4583 108.5,97.5C 111.684,99.4136 115.351,100.08 119.5,99.5C 120.931,100.78 121.598,102.447 121.5,104.5C 120.778,104.082 120.278,103.416 120,102.5C 119.51,103.793 119.343,105.127 119.5,106.5C 118.5,106.5 117.5,106.5 116.5,106.5C 116.719,105.325 116.386,104.325 115.5,103.5C 114.943,105.332 113.943,106.665 112.5,107.5C 110.643,106.235 108.976,106.568 107.5,108.5C 106.6,103.228 106.267,97.8947 106.5,92.5 Z"/></g>
<g><path style="opacity:1" fill="#d6d6d6" d="M 178.5,95.5 C 178.811,96.4778 179.478,97.1445 180.5,97.5C 184.214,94.8531 187.214,95.5198 189.5,99.5C 187.517,99.1568 186.183,99.8235 185.5,101.5C 182.606,101.958 180.106,101.291 178,99.5C 177.79,101.058 177.29,102.391 176.5,103.5C 174.824,102.817 174.157,101.483 174.5,99.5C 175.376,99.6309 176.043,99.2975 176.5,98.5C 174.076,96.2864 174.743,95.2864 178.5,95.5 Z"/></g>
<g><path style="opacity:1" fill="#c5c5c5" d="M 65.5,97.5 C 68.3878,96.9898 70.7211,97.6565 72.5,99.5C 70.1667,99.5 67.8333,99.5 65.5,99.5C 65.2148,101.288 65.5481,102.955 66.5,104.5C 69.0886,106.066 71.7553,107.399 74.5,108.5C 74.5,109.833 74.5,111.167 74.5,112.5C 72.7179,111.28 70.7179,110.614 68.5,110.5C 64.7651,107.731 62.4318,104.064 61.5,99.5C 62.8333,98.8333 64.1667,98.1667 65.5,97.5 Z"/></g>
<g><path style="opacity:1" fill="#ececec" d="M 130.5,97.5 C 130.328,98.4916 130.662,99.1583 131.5,99.5C 131.179,101.048 130.179,101.715 128.5,101.5C 126.712,101.215 125.045,101.548 123.5,102.5C 126.337,103.509 127.67,105.509 127.5,108.5C 129.179,108.285 130.179,108.952 130.5,110.5C 127.924,110.532 125.591,109.865 123.5,108.5C 121.824,107.817 121.157,106.483 121.5,104.5C 121.598,102.447 120.931,100.78 119.5,99.5C 120.918,97.6921 122.918,97.0254 125.5,97.5C 125.64,95.8762 124.973,94.7096 123.5,94C 126.649,93.6029 128.982,94.7695 130.5,97.5 Z"/></g>
<g><path style="opacity:0.951" fill="#e9e9e9" d="M 141.5,97.5 C 141.5,101.833 141.5,106.167 141.5,110.5C 140.833,110.5 140.167,110.5 139.5,110.5C 138.5,110.5 137.5,110.5 136.5,110.5C 136.5,109.167 136.5,107.833 136.5,106.5C 134.167,106.5 131.833,106.5 129.5,106.5C 129.371,104.784 129.038,103.117 128.5,101.5C 130.179,101.715 131.179,101.048 131.5,99.5C 132.779,100.968 134.446,101.635 136.5,101.5C 136.5,100.167 136.5,98.8333 136.5,97.5C 138.167,97.5 139.833,97.5 141.5,97.5 Z"/></g>
<g><path style="opacity:1" fill="#eaeaea" d="M 202.5,94.5 C 202.42,102.887 201.753,111.22 200.5,119.5C 198.508,119.672 196.842,119.005 195.5,117.5C 194.526,115.257 194.192,112.924 194.5,110.5C 192.718,111.72 190.718,112.386 188.5,112.5C 188.366,114.292 188.699,115.958 189.5,117.5C 188.167,115.833 186.833,114.167 185.5,112.5C 183.974,110.677 182.308,108.844 180.5,107C 182.134,106.506 183.801,106.34 185.5,106.5C 185.5,104.833 185.5,103.167 185.5,101.5C 186.183,99.8235 187.517,99.1568 189.5,99.5C 191.179,99.7148 192.179,99.0481 192.5,97.5C 195.554,97.2955 198.054,95.9622 200,93.5C 200.902,93.7432 201.735,94.0766 202.5,94.5 Z"/></g>
<g><path style="opacity:1" fill="#eeeeee" d="M 54.5,99.5 C 54.5,100.167 54.5,100.833 54.5,101.5C 56.3987,103.269 58.732,104.602 61.5,105.5C 60.2723,107.321 58.6056,108.321 56.5,108.5C 55.8166,106.824 54.4832,106.157 52.5,106.5C 52.5,107.833 52.5,109.167 52.5,110.5C 52.6309,111.376 52.2975,112.043 51.5,112.5C 50.5713,111.311 50.238,109.978 50.5,108.5C 49.5,108.5 48.5,108.5 47.5,108.5C 47.3862,110.718 46.7196,112.718 45.5,114.5C 42.9178,112.417 42.9178,110.083 45.5,107.5C 44.3112,106.571 42.9778,106.238 41.5,106.5C 41.7373,105.209 41.404,104.209 40.5,103.5C 40.5,103.167 40.5,102.833 40.5,102.5C 41.9305,102.579 43.2638,102.246 44.5,101.5C 45.3857,102.325 45.719,103.325 45.5,104.5C 46.5,104.5 47.5,104.5 48.5,104.5C 48.3398,102.801 48.5065,101.134 49,99.5C 49.3879,100.428 50.0546,101.095 51,101.5C 52.0769,100.571 53.2436,99.9038 54.5,99.5 Z"/></g>
<g><path style="opacity:0.833" fill="#e0e0e0" d="M 72.5,99.5 C 73.1667,99.5 73.8333,99.5 74.5,99.5C 74.5,102.5 74.5,105.5 74.5,108.5C 71.7553,107.399 69.0886,106.066 66.5,104.5C 65.5481,102.955 65.2148,101.288 65.5,99.5C 67.8333,99.5 70.1667,99.5 72.5,99.5 Z"/></g>
<g><path style="opacity:1" fill="#e1e1e1" d="M 185.5,101.5 C 185.5,103.167 185.5,104.833 185.5,106.5C 183.801,106.34 182.134,106.506 180.5,107C 182.308,108.844 183.974,110.677 185.5,112.5C 184.739,113.391 183.739,114.058 182.5,114.5C 180.902,113.515 179.235,113.349 177.5,114C 178.731,115.183 178.731,116.349 177.5,117.5C 176.12,115.023 175.12,115.023 174.5,117.5C 172.952,117.179 172.285,116.179 172.5,114.5C 175.582,113.87 178.582,112.87 181.5,111.5C 179.257,110.526 176.924,110.192 174.5,110.5C 174.5,111.5 174.5,112.5 174.5,113.5C 172.833,113.5 171.167,113.5 169.5,113.5C 169.5,114.5 169.5,115.5 169.5,116.5C 168.5,116.5 167.5,116.5 166.5,116.5C 167.265,113.904 167.599,111.237 167.5,108.5C 171.881,109.146 174.881,107.48 176.5,103.5C 177.29,102.391 177.79,101.058 178,99.5C 180.106,101.291 182.606,101.958 185.5,101.5 Z"/></g>
<g><path style="opacity:1" fill="#d0d0d0" d="M 194.5,110.5 C 192.628,108.938 190.295,107.938 187.5,107.5C 189.966,105.032 192.966,104.032 196.5,104.5C 196.975,107.082 196.308,109.082 194.5,110.5 Z"/></g>
<g><path style="opacity:1" fill="#dcdcdc" d="M 167.5,95.5 C 169.833,96.8333 172.167,98.1667 174.5,99.5C 174.157,101.483 174.824,102.817 176.5,103.5C 174.881,107.48 171.881,109.146 167.5,108.5C 167.5,104.167 167.5,99.8333 167.5,95.5 Z"/></g>
<g><path style="opacity:1" fill="#e9e9e9" d="M 61.5,99.5 C 62.4318,104.064 64.7651,107.731 68.5,110.5C 70.3844,113.901 70.8844,117.567 70,121.5C 68.6976,122.085 67.531,122.751 66.5,123.5C 64.2627,122.551 61.9294,121.884 59.5,121.5C 59.6138,119.282 60.2804,117.282 61.5,115.5C 63.4167,116.406 65.0834,117.739 66.5,119.5C 67.7512,116.121 66.7512,113.454 63.5,111.5C 60.7051,111.062 58.3717,110.062 56.5,108.5C 58.6056,108.321 60.2723,107.321 61.5,105.5C 58.732,104.602 56.3987,103.269 54.5,101.5C 55.9432,100.665 56.9432,99.3316 57.5,97.5C 58.5237,98.8532 59.857,99.5198 61.5,99.5 Z"/></g>
<g><path style="opacity:1" fill="#dfdfdf" d="M 128.5,101.5 C 129.038,103.117 129.371,104.784 129.5,106.5C 131.833,106.5 134.167,106.5 136.5,106.5C 136.5,107.833 136.5,109.167 136.5,110.5C 136.631,111.376 136.298,112.043 135.5,112.5C 134.158,110.995 132.492,110.328 130.5,110.5C 130.179,108.952 129.179,108.285 127.5,108.5C 127.67,105.509 126.337,103.509 123.5,102.5C 125.045,101.548 126.712,101.215 128.5,101.5 Z"/></g>
<g><path style="opacity:1" fill="#d1d1d1" d="M 123.5,108.5 C 125.591,109.865 127.924,110.532 130.5,110.5C 132.492,110.328 134.158,110.995 135.5,112.5C 136.298,112.043 136.631,111.376 136.5,110.5C 137.5,110.5 138.5,110.5 139.5,110.5C 139.5,111.833 139.5,113.167 139.5,114.5C 137.167,114.5 134.833,114.5 132.5,114.5C 131.542,111.875 130.376,111.875 129,114.5C 127.989,113.663 126.822,113.33 125.5,113.5C 125.843,115.483 125.176,116.817 123.5,117.5C 123.5,116.833 123.5,116.167 123.5,115.5C 123.5,113.167 123.5,110.833 123.5,108.5 Z"/></g>
<g><path style="opacity:0.937" fill="#dfdfdf" d="M 40.5,103.5 C 41.404,104.209 41.7373,105.209 41.5,106.5C 42.9778,106.238 44.3112,106.571 45.5,107.5C 42.9178,110.083 42.9178,112.417 45.5,114.5C 45.4802,116.143 46.1468,117.476 47.5,118.5C 44.9557,119.937 44.9557,121.437 47.5,123C 46.2068,123.49 44.8734,123.657 43.5,123.5C 43.5,124.5 43.5,125.5 43.5,126.5C 41.6921,127.918 41.0254,129.918 41.5,132.5C 41.1667,132.5 40.8333,132.5 40.5,132.5C 40.5,122.833 40.5,113.167 40.5,103.5 Z"/></g>
<g><path style="opacity:1" fill="#c2c2c2" d="M 112.5,107.5 C 112.5,107.833 112.5,108.167 112.5,108.5C 110.692,109.918 110.025,111.918 110.5,114.5C 109.5,114.5 108.5,114.5 107.5,114.5C 107.5,112.5 107.5,110.5 107.5,108.5C 108.976,106.568 110.643,106.235 112.5,107.5 Z"/></g>
<g><path style="opacity:1" fill="#e2e2e2" d="M 121.5,104.5 C 121.157,106.483 121.824,107.817 123.5,108.5C 123.5,110.833 123.5,113.167 123.5,115.5C 121.876,115.64 120.71,114.973 120,113.5C 119.421,114.928 119.588,116.262 120.5,117.5C 119.504,117.586 118.671,117.252 118,116.5C 117.79,114.942 117.29,113.609 116.5,112.5C 115.167,111.167 113.833,109.833 112.5,108.5C 112.5,108.167 112.5,107.833 112.5,107.5C 113.943,106.665 114.943,105.332 115.5,103.5C 116.386,104.325 116.719,105.325 116.5,106.5C 117.5,106.5 118.5,106.5 119.5,106.5C 119.343,105.127 119.51,103.793 120,102.5C 120.278,103.416 120.778,104.082 121.5,104.5 Z"/></g>
<g><path style="opacity:0.78" fill="#d6d6d6" d="M 139.5,110.5 C 140.167,110.5 140.833,110.5 141.5,110.5C 141.963,113.482 142.296,116.482 142.5,119.5C 141.167,119.5 139.833,119.5 138.5,119.5C 138.33,118.178 138.663,117.011 139.5,116C 138.552,115.517 137.552,115.351 136.5,115.5C 136.112,120.324 133.445,122.324 128.5,121.5C 127.662,121.158 127.328,120.492 127.5,119.5C 129.5,118.167 131.167,116.5 132.5,114.5C 134.833,114.5 137.167,114.5 139.5,114.5C 139.5,113.167 139.5,111.833 139.5,110.5 Z"/></g>
<g><path style="opacity:1" fill="#e1e1e1" d="M 52.5,110.5 C 54.1216,111.122 55.4549,112.122 56.5,113.5C 53.9528,114.879 53.9528,116.546 56.5,118.5C 55.3881,119.265 54.7214,120.265 54.5,121.5C 52.712,121.785 51.0453,121.452 49.5,120.5C 50.3742,118.253 50.7076,115.92 50.5,113.5C 48.7839,113.629 47.1172,113.962 45.5,114.5C 46.7196,112.718 47.3862,110.718 47.5,108.5C 48.5,108.5 49.5,108.5 50.5,108.5C 50.238,109.978 50.5713,111.311 51.5,112.5C 52.2975,112.043 52.6309,111.376 52.5,110.5 Z"/></g>
<g><path style="opacity:1" fill="#f0f0f0" d="M 56.5,113.5 C 58.7812,113.077 60.4479,113.744 61.5,115.5C 60.2804,117.282 59.6138,119.282 59.5,121.5C 58.2209,122.968 56.5542,123.635 54.5,123.5C 54.5,122.833 54.5,122.167 54.5,121.5C 54.7214,120.265 55.3881,119.265 56.5,118.5C 53.9528,116.546 53.9528,114.879 56.5,113.5 Z"/></g>
<g><path style="opacity:1" fill="#969696" d="M 112.5,108.5 C 113.833,109.833 115.167,111.167 116.5,112.5C 116.715,114.179 116.048,115.179 114.5,115.5C 112.901,115.768 111.568,115.434 110.5,114.5C 110.025,111.918 110.692,109.918 112.5,108.5 Z"/></g>
<g><path style="opacity:1" fill="#cdcdcd" d="M 56.5,108.5 C 58.3717,110.062 60.7051,111.062 63.5,111.5C 66.7512,113.454 67.7512,116.121 66.5,119.5C 65.0834,117.739 63.4167,116.406 61.5,115.5C 60.4479,113.744 58.7812,113.077 56.5,113.5C 55.4549,112.122 54.1216,111.122 52.5,110.5C 52.5,109.167 52.5,107.833 52.5,106.5C 54.4832,106.157 55.8166,106.824 56.5,108.5 Z"/></g>
<g><path style="opacity:0.749" fill="#dadada" d="M 68.5,110.5 C 70.7179,110.614 72.7179,111.28 74.5,112.5C 74.5,116.167 74.5,119.833 74.5,123.5C 73.1667,123.5 71.8333,123.5 70.5,123.5C 70.5,124.5 70.5,125.5 70.5,126.5C 69.5,126.5 68.5,126.5 67.5,126.5C 70.3382,124.694 70.0048,123.694 66.5,123.5C 67.531,122.751 68.6976,122.085 70,121.5C 70.8844,117.567 70.3844,113.901 68.5,110.5 Z"/></g>
<g><path style="opacity:1" fill="#f5f5f5" d="M 194.5,110.5 C 194.192,112.924 194.526,115.257 195.5,117.5C 196.842,119.005 198.508,119.672 200.5,119.5C 199.976,121.306 199.309,122.972 198.5,124.5C 197.167,124.5 195.833,124.5 194.5,124.5C 194.785,122.712 194.452,121.045 193.5,119.5C 192.833,120.167 192.167,120.833 191.5,121.5C 190.828,120.051 190.161,118.718 189.5,117.5C 188.699,115.958 188.366,114.292 188.5,112.5C 190.718,112.386 192.718,111.72 194.5,110.5 Z"/></g>
<g><path style="opacity:1" fill="#e9e9e9" d="M 107.5,114.5 C 108.5,114.5 109.5,114.5 110.5,114.5C 111.568,115.434 112.901,115.768 114.5,115.5C 114.721,116.735 115.388,117.735 116.5,118.5C 114.511,119.615 112.678,119.282 111,117.5C 109.989,118.056 109.156,118.722 108.5,119.5C 108.634,117.708 108.301,116.042 107.5,114.5 Z"/></g>
<g><path style="opacity:1" fill="#e7e7e7" d="M 132.5,114.5 C 131.167,116.5 129.5,118.167 127.5,119.5C 125.824,120.183 125.157,121.517 125.5,123.5C 123.692,122.082 123.025,120.082 123.5,117.5C 125.176,116.817 125.843,115.483 125.5,113.5C 126.822,113.33 127.989,113.663 129,114.5C 130.376,111.875 131.542,111.875 132.5,114.5 Z"/></g>
<g><path style="opacity:1" fill="#eaeaea" d="M 174.5,117.5 C 175.152,118.725 176.319,119.392 178,119.5C 179.716,119.252 181.216,118.585 182.5,117.5C 184.489,118.632 186.156,119.965 187.5,121.5C 186.167,121.5 184.833,121.5 183.5,121.5C 183.762,122.978 183.429,124.311 182.5,125.5C 178.521,124.236 174.521,124.236 170.5,125.5C 168.666,124.246 166.666,123.579 164.5,123.5C 165.455,121.254 166.122,118.921 166.5,116.5C 167.5,116.5 168.5,116.5 169.5,116.5C 169.5,115.5 169.5,114.5 169.5,113.5C 171.167,113.5 172.833,113.5 174.5,113.5C 174.5,112.5 174.5,111.5 174.5,110.5C 176.924,110.192 179.257,110.526 181.5,111.5C 178.582,112.87 175.582,113.87 172.5,114.5C 172.285,116.179 172.952,117.179 174.5,117.5 Z"/></g>
<g><path style="opacity:1" fill="#d2d2d2" d="M 185.5,112.5 C 186.833,114.167 188.167,115.833 189.5,117.5C 190.161,118.718 190.828,120.051 191.5,121.5C 192.167,120.833 192.833,120.167 193.5,119.5C 194.452,121.045 194.785,122.712 194.5,124.5C 195.278,125.156 195.944,125.989 196.5,127C 196.164,128.03 195.497,128.53 194.5,128.5C 193.032,127.221 192.365,125.554 192.5,123.5C 190.219,123.923 188.552,123.256 187.5,121.5C 186.156,119.965 184.489,118.632 182.5,117.5C 181.216,118.585 179.716,119.252 178,119.5C 176.319,119.392 175.152,118.725 174.5,117.5C 175.12,115.023 176.12,115.023 177.5,117.5C 178.731,116.349 178.731,115.183 177.5,114C 179.235,113.349 180.902,113.515 182.5,114.5C 183.739,114.058 184.739,113.391 185.5,112.5 Z"/></g>
<g><path style="opacity:1" fill="#ececec" d="M 142.5,119.5 C 144.153,122.131 145.819,124.797 147.5,127.5C 145.104,129.023 142.438,130.023 139.5,130.5C 139.5,129.5 139.5,128.5 139.5,127.5C 142.462,127.883 143.462,126.883 142.5,124.5C 140.547,123.976 138.88,122.976 137.5,121.5C 136.571,122.689 136.238,124.022 136.5,125.5C 135.167,125.5 133.833,125.5 132.5,125.5C 131.167,125.5 129.833,125.5 128.5,125.5C 128.5,124.167 128.5,122.833 128.5,121.5C 133.445,122.324 136.112,120.324 136.5,115.5C 137.552,115.351 138.552,115.517 139.5,116C 138.663,117.011 138.33,118.178 138.5,119.5C 139.833,119.5 141.167,119.5 142.5,119.5 Z"/></g>
<g><path style="opacity:1" fill="#c8c8c8" d="M 54.5,121.5 C 54.5,122.167 54.5,122.833 54.5,123.5C 52.744,124.552 52.0773,126.219 52.5,128.5C 50.8333,128.5 49.1667,128.5 47.5,128.5C 45.5168,128.843 44.1834,128.176 43.5,126.5C 43.5,125.5 43.5,124.5 43.5,123.5C 44.8734,123.657 46.2068,123.49 47.5,123C 44.9557,121.437 44.9557,119.937 47.5,118.5C 46.1468,117.476 45.4802,116.143 45.5,114.5C 47.1172,113.962 48.7839,113.629 50.5,113.5C 50.7076,115.92 50.3742,118.253 49.5,120.5C 51.0453,121.452 52.712,121.785 54.5,121.5 Z"/></g>
<g><path style="opacity:1" fill="#c9c9c9" d="M 116.5,112.5 C 117.29,113.609 117.79,114.942 118,116.5C 118.671,117.252 119.504,117.586 120.5,117.5C 121.434,118.568 121.768,119.901 121.5,121.5C 117.426,121.379 113.759,122.379 110.5,124.5C 109.691,122.972 109.024,121.306 108.5,119.5C 109.156,118.722 109.989,118.056 111,117.5C 112.678,119.282 114.511,119.615 116.5,118.5C 115.388,117.735 114.721,116.735 114.5,115.5C 116.048,115.179 116.715,114.179 116.5,112.5 Z"/></g>
<g><path style="opacity:1" fill="#e3e3e3" d="M 127.5,119.5 C 127.328,120.492 127.662,121.158 128.5,121.5C 128.5,122.833 128.5,124.167 128.5,125.5C 129.833,125.5 131.167,125.5 132.5,125.5C 131.909,126.151 131.243,126.818 130.5,127.5C 133.167,128.833 135.833,130.167 138.5,131.5C 134.345,133.185 130.012,133.851 125.5,133.5C 124.508,133.672 123.842,133.338 123.5,132.5C 125.176,131.817 125.843,130.483 125.5,128.5C 126.376,128.631 127.043,128.298 127.5,127.5C 126.147,126.476 125.48,125.143 125.5,123.5C 125.157,121.517 125.824,120.183 127.5,119.5 Z"/></g>
<g><path style="opacity:1" fill="#ebebeb" d="M 123.5,115.5 C 123.5,116.167 123.5,116.833 123.5,117.5C 123.025,120.082 123.692,122.082 125.5,123.5C 125.48,125.143 126.147,126.476 127.5,127.5C 127.043,128.298 126.376,128.631 125.5,128.5C 123.718,129.72 121.718,130.386 119.5,130.5C 119.5,128.5 119.5,126.5 119.5,124.5C 118.325,124.281 117.325,124.614 116.5,125.5C 115.368,127.489 114.035,129.156 112.5,130.5C 111.262,128.786 110.595,126.786 110.5,124.5C 113.759,122.379 117.426,121.379 121.5,121.5C 121.768,119.901 121.434,118.568 120.5,117.5C 119.588,116.262 119.421,114.928 120,113.5C 120.71,114.973 121.876,115.64 123.5,115.5 Z"/></g>
<g><path style="opacity:1" fill="#dddddd" d="M 187.5,121.5 C 188.552,123.256 190.219,123.923 192.5,123.5C 192.365,125.554 193.032,127.221 194.5,128.5C 193.107,129.26 191.607,129.926 190,130.5C 187.321,129.105 184.488,128.439 181.5,128.5C 180.5,128.5 179.5,128.5 178.5,128.5C 178.38,127.414 177.713,126.747 176.5,126.5C 175.133,127.225 173.8,127.892 172.5,128.5C 170.793,126.985 168.793,125.652 166.5,124.5C 165.476,125.853 164.143,126.52 162.5,126.5C 162.932,125.29 163.599,124.29 164.5,123.5C 166.666,123.579 168.666,124.246 170.5,125.5C 174.521,124.236 178.521,124.236 182.5,125.5C 183.429,124.311 183.762,122.978 183.5,121.5C 184.833,121.5 186.167,121.5 187.5,121.5 Z"/></g>
<g><path style="opacity:1" fill="#bfbfbf" d="M 59.5,121.5 C 61.9294,121.884 64.2627,122.551 66.5,123.5C 70.0048,123.694 70.3382,124.694 67.5,126.5C 66.0222,126.238 64.6888,126.571 63.5,127.5C 65.3316,128.057 66.6649,129.057 67.5,130.5C 63.351,129.92 59.6843,130.586 56.5,132.5C 55.1667,131.167 53.8333,129.833 52.5,128.5C 52.0773,126.219 52.744,124.552 54.5,123.5C 56.5542,123.635 58.2209,122.968 59.5,121.5 Z"/></g>
<g><path style="opacity:0.924" fill="#d1d1d1" d="M 172.5,128.5 C 169.797,130.15 166.797,131.483 163.5,132.5C 160.523,131.224 157.523,130.224 154.5,129.5C 157.28,128.805 159.947,127.805 162.5,126.5C 164.143,126.52 165.476,125.853 166.5,124.5C 168.793,125.652 170.793,126.985 172.5,128.5 Z"/></g>
<g><path style="opacity:1" fill="#e3e3e3" d="M 74.5,123.5 C 74.5,128.833 74.5,134.167 74.5,139.5C 72.9519,139.179 72.2852,138.179 72.5,136.5C 71.1266,136.657 69.7932,136.49 68.5,136C 69.9606,134.649 71.294,133.149 72.5,131.5C 70.9547,130.548 69.288,130.215 67.5,130.5C 66.6649,129.057 65.3316,128.057 63.5,127.5C 64.6888,126.571 66.0222,126.238 67.5,126.5C 68.5,126.5 69.5,126.5 70.5,126.5C 70.5,125.5 70.5,124.5 70.5,123.5C 71.8333,123.5 73.1667,123.5 74.5,123.5 Z"/></g>
<g><path style="opacity:1" fill="#dadada" d="M 147.5,127.5 C 149.117,128.038 150.784,128.371 152.5,128.5C 153.401,132.154 154.401,135.821 155.5,139.5C 157.018,137.486 157.685,135.486 157.5,133.5C 159.026,133.994 160.359,134.661 161.5,135.5C 160.5,135.5 159.5,135.5 158.5,135.5C 158.5,136.833 158.5,138.167 158.5,139.5C 159.675,139.281 160.675,139.614 161.5,140.5C 159.257,141.474 156.924,141.808 154.5,141.5C 153.167,141.5 151.833,141.5 150.5,141.5C 150.166,144.188 150.832,146.521 152.5,148.5C 150.167,148.5 147.833,148.5 145.5,148.5C 145.5,149.833 145.5,151.167 145.5,152.5C 143.5,151.833 142.167,150.5 141.5,148.5C 142.833,148.5 143.5,147.833 143.5,146.5C 145.5,146.5 147.5,146.5 149.5,146.5C 149.5,144.167 149.5,141.833 149.5,139.5C 148.167,139.5 146.833,139.5 145.5,139.5C 144.186,135.601 142.019,134.934 139,137.5C 137.832,136.491 136.665,135.491 135.5,134.5C 134.859,135.993 133.859,136.993 132.5,137.5C 130.723,137.214 129.056,136.547 127.5,135.5C 125.829,135.668 124.496,136.335 123.5,137.5C 122.624,137.631 121.957,137.298 121.5,136.5C 122.901,135.479 124.235,134.479 125.5,133.5C 130.012,133.851 134.345,133.185 138.5,131.5C 135.833,130.167 133.167,128.833 130.5,127.5C 131.243,126.818 131.909,126.151 132.5,125.5C 133.833,125.5 135.167,125.5 136.5,125.5C 136.238,124.022 136.571,122.689 137.5,121.5C 138.88,122.976 140.547,123.976 142.5,124.5C 143.462,126.883 142.462,127.883 139.5,127.5C 139.5,128.5 139.5,129.5 139.5,130.5C 142.438,130.023 145.104,129.023 147.5,127.5 Z"/></g>
<g><path style="opacity:1" fill="#e5e5e5" d="M 178.5,128.5 C 175.418,129.914 173.418,132.248 172.5,135.5C 169.752,137.044 166.752,137.71 163.5,137.5C 162.167,137.5 161.5,136.833 161.5,135.5C 163.048,135.179 163.715,134.179 163.5,132.5C 166.797,131.483 169.797,130.15 172.5,128.5C 173.8,127.892 175.133,127.225 176.5,126.5C 177.713,126.747 178.38,127.414 178.5,128.5 Z"/></g>
<g><path style="opacity:0.962" fill="#e8e8e8" d="M 194.5,124.5 C 195.833,124.5 197.167,124.5 198.5,124.5C 197.568,129.689 195.568,134.356 192.5,138.5C 190.062,135.772 187.062,133.772 183.5,132.5C 182.833,131.167 182.167,129.833 181.5,128.5C 184.488,128.439 187.321,129.105 190,130.5C 191.607,129.926 193.107,129.26 194.5,128.5C 195.497,128.53 196.164,128.03 196.5,127C 195.944,125.989 195.278,125.156 194.5,124.5 Z"/></g>
<g><path style="opacity:1" fill="#dadada" d="M 47.5,128.5 C 49.1667,128.5 50.8333,128.5 52.5,128.5C 53.8333,129.833 55.1667,131.167 56.5,132.5C 56.5,133.5 56.5,134.5 56.5,135.5C 58.5542,135.365 60.2209,136.032 61.5,137.5C 60.4479,139.256 58.7812,139.923 56.5,139.5C 55.9344,137.922 54.9344,136.588 53.5,135.5C 52.5713,136.689 52.238,138.022 52.5,139.5C 51.2436,139.904 50.0769,140.571 49,141.5C 47.2874,140.863 47.1207,139.863 48.5,138.5C 47.0144,136.698 46.0144,134.698 45.5,132.5C 47.924,132.808 50.2573,132.474 52.5,131.5C 50.3449,130.999 48.6782,129.999 47.5,128.5 Z"/></g>
<g><path style="opacity:0.95" fill="#d2d2d2" d="M 125.5,128.5 C 125.843,130.483 125.176,131.817 123.5,132.5C 121.167,132.5 118.833,132.5 116.5,132.5C 116.784,134.415 116.451,136.081 115.5,137.5C 114.227,135.287 113.227,132.954 112.5,130.5C 114.035,129.156 115.368,127.489 116.5,125.5C 117.325,124.614 118.325,124.281 119.5,124.5C 119.5,126.5 119.5,128.5 119.5,130.5C 121.718,130.386 123.718,129.72 125.5,128.5 Z"/></g>
<g><path style="opacity:1" fill="#eaeaea" d="M 152.5,128.5 C 153.167,128.833 153.833,129.167 154.5,129.5C 157.523,130.224 160.523,131.224 163.5,132.5C 163.715,134.179 163.048,135.179 161.5,135.5C 160.359,134.661 159.026,133.994 157.5,133.5C 157.685,135.486 157.018,137.486 155.5,139.5C 154.401,135.821 153.401,132.154 152.5,128.5 Z"/></g>
<g><path style="opacity:1" fill="#d5d5d5" d="M 178.5,128.5 C 179.5,128.5 180.5,128.5 181.5,128.5C 182.167,129.833 182.833,131.167 183.5,132.5C 181.833,132.5 180.167,132.5 178.5,132.5C 179.01,135.388 178.344,137.721 176.5,139.5C 175.833,137.5 174.5,136.167 172.5,135.5C 173.418,132.248 175.418,129.914 178.5,128.5 Z"/></g>
<g><path style="opacity:1" fill="#cdcdcd" d="M 67.5,130.5 C 69.288,130.215 70.9547,130.548 72.5,131.5C 71.294,133.149 69.9606,134.649 68.5,136C 69.7932,136.49 71.1266,136.657 72.5,136.5C 72.2852,138.179 72.9519,139.179 74.5,139.5C 74.5,141.167 74.5,142.833 74.5,144.5C 73.4168,144.539 72.4168,144.873 71.5,145.5C 70.1537,143.987 68.6537,142.653 67,141.5C 65.9231,142.429 64.7564,143.096 63.5,143.5C 63.5,142.167 63.5,140.833 63.5,139.5C 68.5018,139.478 68.8352,138.145 64.5,135.5C 63.7348,136.612 62.7348,137.279 61.5,137.5C 60.2209,136.032 58.5542,135.365 56.5,135.5C 56.5,134.5 56.5,133.5 56.5,132.5C 59.6843,130.586 63.351,129.92 67.5,130.5 Z"/></g>
<g><path style="opacity:1" fill="#d8d8d8" d="M 183.5,132.5 C 187.062,133.772 190.062,135.772 192.5,138.5C 192.068,139.71 191.401,140.71 190.5,141.5C 184.677,141.418 182.344,138.418 183.5,132.5 Z"/></g>
<g><path style="opacity:0.854" fill="#ebebeb" d="M 123.5,132.5 C 123.842,133.338 124.508,133.672 125.5,133.5C 124.235,134.479 122.901,135.479 121.5,136.5C 121.957,137.298 122.624,137.631 123.5,137.5C 124.376,137.369 125.043,137.702 125.5,138.5C 123.668,139.057 122.335,140.057 121.5,141.5C 120.508,141.328 119.842,141.662 119.5,142.5C 117.937,141.055 116.604,139.389 115.5,137.5C 116.451,136.081 116.784,134.415 116.5,132.5C 118.833,132.5 121.167,132.5 123.5,132.5 Z"/></g>
<g><path style="opacity:1" fill="#e0e0e0" d="M 132.5,137.5 C 132.5,138.167 132.5,138.833 132.5,139.5C 131.5,139.5 130.5,139.5 129.5,139.5C 129.5,140.833 129.5,142.167 129.5,143.5C 130.5,143.5 131.5,143.5 132.5,143.5C 132.5,144.5 132.5,145.5 132.5,146.5C 130.517,146.157 129.183,146.824 128.5,148.5C 127.778,147.449 126.778,146.782 125.5,146.5C 126.968,145.221 127.635,143.554 127.5,141.5C 125.5,141.5 123.5,141.5 121.5,141.5C 122.335,140.057 123.668,139.057 125.5,138.5C 125.043,137.702 124.376,137.369 123.5,137.5C 124.496,136.335 125.829,135.668 127.5,135.5C 129.056,136.547 130.723,137.214 132.5,137.5 Z"/></g>
<g><path style="opacity:1" fill="#ececec" d="M 145.5,139.5 C 143.517,139.157 142.183,139.824 141.5,141.5C 138.436,141.072 135.436,140.406 132.5,139.5C 132.5,138.833 132.5,138.167 132.5,137.5C 133.859,136.993 134.859,135.993 135.5,134.5C 136.665,135.491 137.832,136.491 139,137.5C 142.019,134.934 144.186,135.601 145.5,139.5 Z"/></g>
<g><path style="opacity:1" fill="#bbbbbb" d="M 172.5,135.5 C 174.5,136.167 175.833,137.5 176.5,139.5C 174.517,139.157 173.183,139.824 172.5,141.5C 171.778,141.082 171.278,140.416 171,139.5C 170.603,142.649 171.77,144.982 174.5,146.5C 174.5,147.833 173.833,148.5 172.5,148.5C 170.954,145.639 169.62,142.639 168.5,139.5C 167.833,140.167 167.167,140.833 166.5,141.5C 165.066,140.412 164.066,139.078 163.5,137.5C 166.752,137.71 169.752,137.044 172.5,135.5 Z"/></g>
<g><path style="opacity:1" fill="#cccccc" d="M 183.5,132.5 C 182.344,138.418 184.677,141.418 190.5,141.5C 189.833,142.833 188.833,143.833 187.5,144.5C 183.653,144.381 179.986,145.047 176.5,146.5C 177.502,144.989 178.169,143.322 178.5,141.5C 176.5,141.5 174.5,141.5 172.5,141.5C 173.183,139.824 174.517,139.157 176.5,139.5C 178.344,137.721 179.01,135.388 178.5,132.5C 180.167,132.5 181.833,132.5 183.5,132.5 Z"/></g>
<g><path style="opacity:1" fill="#e4e4e4" d="M 43.5,126.5 C 44.1834,128.176 45.5168,128.843 47.5,128.5C 48.6782,129.999 50.3449,130.999 52.5,131.5C 50.2573,132.474 47.924,132.808 45.5,132.5C 46.0144,134.698 47.0144,136.698 48.5,138.5C 47.1207,139.863 47.2874,140.863 49,141.5C 50.0769,140.571 51.2436,139.904 52.5,139.5C 52.5,140.833 52.5,142.167 52.5,143.5C 50.1667,143.5 47.8333,143.5 45.5,143.5C 45.5,144.5 45.5,145.5 45.5,146.5C 44.0222,146.762 42.6888,146.429 41.5,145.5C 42.8333,143.167 44.1667,140.833 45.5,138.5C 43.8277,136.658 42.4944,134.658 41.5,132.5C 41.0254,129.918 41.6921,127.918 43.5,126.5 Z"/></g>
<g><path style="opacity:1" fill="#e9e9e9" d="M 63.5,143.5 C 64.968,144.779 65.6347,146.446 65.5,148.5C 67.924,148.192 70.2573,148.526 72.5,149.5C 70.8955,151.179 70.2289,153.179 70.5,155.5C 65.1667,155.5 59.8333,155.5 54.5,155.5C 56.2191,154.978 57.5525,153.978 58.5,152.5C 60.143,152.48 61.4763,153.147 62.5,154.5C 62.8333,153.833 63.1667,153.167 63.5,152.5C 62.7745,151.133 62.1079,149.8 61.5,148.5C 59.1978,145.962 56.8644,143.295 54.5,140.5C 54.9569,139.702 55.6236,139.369 56.5,139.5C 58.7812,139.923 60.4479,139.256 61.5,137.5C 62.7348,137.279 63.7348,136.612 64.5,135.5C 68.8352,138.145 68.5018,139.478 63.5,139.5C 63.5,140.833 63.5,142.167 63.5,143.5 Z"/></g>
<g><path style="opacity:1" fill="#f4f4f4" d="M 145.5,139.5 C 146.833,139.5 148.167,139.5 149.5,139.5C 149.5,141.833 149.5,144.167 149.5,146.5C 147.5,146.5 145.5,146.5 143.5,146.5C 143.169,144.678 142.502,143.011 141.5,141.5C 142.183,139.824 143.517,139.157 145.5,139.5 Z"/></g>
<g><path style="opacity:1" fill="#d3d3d3" d="M 74.5,144.5 C 74.5,148.167 74.5,151.833 74.5,155.5C 73.1667,155.5 71.8333,155.5 70.5,155.5C 70.2289,153.179 70.8955,151.179 72.5,149.5C 70.2573,148.526 67.924,148.192 65.5,148.5C 65.6347,146.446 64.968,144.779 63.5,143.5C 64.7564,143.096 65.9231,142.429 67,141.5C 68.6537,142.653 70.1537,143.987 71.5,145.5C 72.4168,144.873 73.4168,144.539 74.5,144.5 Z"/></g>
<g><path style="opacity:1" fill="#d6d6d6" d="M 161.5,135.5 C 161.5,136.833 162.167,137.5 163.5,137.5C 164.066,139.078 165.066,140.412 166.5,141.5C 167.167,140.833 167.833,140.167 168.5,139.5C 169.62,142.639 170.954,145.639 172.5,148.5C 167.89,148.596 167.556,149.596 171.5,151.5C 168.942,152.218 168.275,153.551 169.5,155.5C 168.292,156.234 166.959,156.567 165.5,156.5C 165.5,155.5 165.5,154.5 165.5,153.5C 163.901,153.768 162.568,153.434 161.5,152.5C 164.082,152.975 166.082,152.308 167.5,150.5C 167.762,149.022 167.429,147.689 166.5,146.5C 164.132,148.223 161.466,148.89 158.5,148.5C 158.5,147.5 158.5,146.5 158.5,145.5C 157.167,145.5 155.833,145.5 154.5,145.5C 154.5,144.167 154.5,142.833 154.5,141.5C 156.924,141.808 159.257,141.474 161.5,140.5C 160.675,139.614 159.675,139.281 158.5,139.5C 158.5,138.167 158.5,136.833 158.5,135.5C 159.5,135.5 160.5,135.5 161.5,135.5 Z"/></g>
<g><path style="opacity:0.844" fill="#c2c2c2" d="M 121.5,141.5 C 123.5,141.5 125.5,141.5 127.5,141.5C 127.635,143.554 126.968,145.221 125.5,146.5C 124.833,146.5 124.167,146.5 123.5,146.5C 121.833,145.5 120.5,144.167 119.5,142.5C 119.842,141.662 120.508,141.328 121.5,141.5 Z"/></g>
<g><path style="opacity:1" fill="#efefef" d="M 56.5,139.5 C 55.6236,139.369 54.9569,139.702 54.5,140.5C 56.8644,143.295 59.1978,145.962 61.5,148.5C 59.8762,148.36 58.7096,149.027 58,150.5C 57.7216,149.584 57.2216,148.918 56.5,148.5C 54.6127,147.344 53.2794,145.677 52.5,143.5C 52.5,142.167 52.5,140.833 52.5,139.5C 52.238,138.022 52.5713,136.689 53.5,135.5C 54.9344,136.588 55.9344,137.922 56.5,139.5 Z"/></g>
<g><path style="opacity:1" fill="#d4d4d4" d="M 132.5,139.5 C 135.436,140.406 138.436,141.072 141.5,141.5C 142.502,143.011 143.169,144.678 143.5,146.5C 143.5,147.833 142.833,148.5 141.5,148.5C 139.976,147.826 138.642,146.826 137.5,145.5C 136.614,146.325 136.281,147.325 136.5,148.5C 133.833,148.5 131.167,148.5 128.5,148.5C 129.183,146.824 130.517,146.157 132.5,146.5C 132.5,145.5 132.5,144.5 132.5,143.5C 131.5,143.5 130.5,143.5 129.5,143.5C 129.5,142.167 129.5,140.833 129.5,139.5C 130.5,139.5 131.5,139.5 132.5,139.5 Z"/></g>
<g><path style="opacity:1" fill="#969696" d="M 172.5,141.5 C 174.5,141.5 176.5,141.5 178.5,141.5C 178.169,143.322 177.502,144.989 176.5,146.5C 175.833,146.5 175.167,146.5 174.5,146.5C 171.77,144.982 170.603,142.649 171,139.5C 171.278,140.416 171.778,141.082 172.5,141.5 Z"/></g>
<g><path style="opacity:0.925" fill="#d0d0d0" d="M 40.5,132.5 C 40.8333,132.5 41.1667,132.5 41.5,132.5C 42.4944,134.658 43.8277,136.658 45.5,138.5C 44.1667,140.833 42.8333,143.167 41.5,145.5C 42.6888,146.429 44.0222,146.762 45.5,146.5C 45.5,145.5 45.5,144.5 45.5,143.5C 47.8333,143.5 50.1667,143.5 52.5,143.5C 53.2794,145.677 54.6127,147.344 56.5,148.5C 55.8166,150.176 54.4832,150.843 52.5,150.5C 52.5,149.167 52.5,147.833 52.5,146.5C 50.0706,146.884 47.7373,147.551 45.5,148.5C 44.1667,148.5 42.8333,148.5 41.5,148.5C 41.8844,150.929 42.551,153.263 43.5,155.5C 42.5,155.5 41.5,155.5 40.5,155.5C 40.5,147.833 40.5,140.167 40.5,132.5 Z"/></g>
<g><path style="opacity:0.884" fill="#e4e4e4" d="M 123.5,146.5 C 124.167,146.5 124.833,146.5 125.5,146.5C 126.778,146.782 127.778,147.449 128.5,148.5C 131.167,148.5 133.833,148.5 136.5,148.5C 137.836,150.532 139.503,152.366 141.5,154C 140.207,154.49 138.873,154.657 137.5,154.5C 131.891,153.365 127.224,150.699 123.5,146.5 Z"/></g>
<g><path style="opacity:1" fill="#ededed" d="M 141.5,148.5 C 142.167,150.5 143.5,151.833 145.5,152.5C 145.5,153.833 145.5,155.167 145.5,156.5C 142.505,156.706 139.838,156.04 137.5,154.5C 138.873,154.657 140.207,154.49 141.5,154C 139.503,152.366 137.836,150.532 136.5,148.5C 136.281,147.325 136.614,146.325 137.5,145.5C 138.642,146.826 139.976,147.826 141.5,148.5 Z"/></g>
<g><path style="opacity:1" fill="#bababa" d="M 154.5,141.5 C 154.5,142.833 154.5,144.167 154.5,145.5C 155.833,145.5 157.167,145.5 158.5,145.5C 158.5,146.5 158.5,147.5 158.5,148.5C 161.466,148.89 164.132,148.223 166.5,146.5C 167.429,147.689 167.762,149.022 167.5,150.5C 162.359,150.655 157.359,149.988 152.5,148.5C 150.832,146.521 150.166,144.188 150.5,141.5C 151.833,141.5 153.167,141.5 154.5,141.5 Z"/></g>
<g><path style="opacity:1" fill="#dbdbdb" d="M 56.5,148.5 C 57.2216,148.918 57.7216,149.584 58,150.5C 58.7096,149.027 59.8762,148.36 61.5,148.5C 62.1079,149.8 62.7745,151.133 63.5,152.5C 63.1667,153.167 62.8333,153.833 62.5,154.5C 61.4763,153.147 60.143,152.48 58.5,152.5C 55.8527,151.176 53.186,151.176 50.5,152.5C 48.2687,151.691 46.602,150.357 45.5,148.5C 47.7373,147.551 50.0706,146.884 52.5,146.5C 52.5,147.833 52.5,149.167 52.5,150.5C 54.4832,150.843 55.8166,150.176 56.5,148.5 Z"/></g>
<g><path style="opacity:1" fill="#e5e5e5" d="M 152.5,148.5 C 157.359,149.988 162.359,150.655 167.5,150.5C 166.082,152.308 164.082,152.975 161.5,152.5C 158.428,152.183 155.428,152.516 152.5,153.5C 153.853,154.524 154.52,155.857 154.5,157.5C 151.287,157.81 148.287,157.477 145.5,156.5C 145.5,155.167 145.5,153.833 145.5,152.5C 145.5,151.167 145.5,149.833 145.5,148.5C 147.833,148.5 150.167,148.5 152.5,148.5 Z"/></g>
<g><path style="opacity:1" fill="#f0f0f0" d="M 45.5,148.5 C 46.602,150.357 48.2687,151.691 50.5,152.5C 53.186,151.176 55.8527,151.176 58.5,152.5C 57.5525,153.978 56.2191,154.978 54.5,155.5C 50.8333,155.5 47.1667,155.5 43.5,155.5C 42.551,153.263 41.8844,150.929 41.5,148.5C 42.8333,148.5 44.1667,148.5 45.5,148.5 Z"/></g>
<g><path style="opacity:0.812" fill="#bfbfbf" d="M 161.5,152.5 C 162.568,153.434 163.901,153.768 165.5,153.5C 165.5,154.5 165.5,155.5 165.5,156.5C 161.901,157.344 158.234,157.677 154.5,157.5C 154.52,155.857 153.853,154.524 152.5,153.5C 155.428,152.516 158.428,152.183 161.5,152.5 Z"/></g>
<g><path style="opacity:0.404" fill="#e7e7e7" d="M 187.5,144.5 C 182.812,150.184 176.812,153.85 169.5,155.5C 168.275,153.551 168.942,152.218 171.5,151.5C 167.556,149.596 167.89,148.596 172.5,148.5C 173.833,148.5 174.5,147.833 174.5,146.5C 175.167,146.5 175.833,146.5 176.5,146.5C 179.986,145.047 183.653,144.381 187.5,144.5 Z"/></g>
</svg>
