<?xml version="1.0" encoding="UTF-8"?>
<!DOCTYPE svg PUBLIC "-//W3C//DTD SVG 1.1//EN" "http://www.w3.org/Graphics/SVG/1.1/DTD/svg11.dtd">
<svg xmlns="http://www.w3.org/2000/svg" version="1.1" width="104px" height="180px" style="shape-rendering:geometricPrecision; text-rendering:geometricPrecision; image-rendering:optimizeQuality; fill-rule:evenodd; clip-rule:evenodd" xmlns:xlink="http://www.w3.org/1999/xlink">
<g><path style="opacity:0.947" fill="#d8d8d8" d="M 54.5,17.5 C 59.4439,17.7538 64.1106,18.7538 68.5,20.5C 67.3079,21.5659 67.6412,22.3992 69.5,23C 68.2068,23.49 66.8734,23.6567 65.5,23.5C 65.5,24.5 65.5,25.5 65.5,26.5C 67.1788,26.2852 68.1788,26.9519 68.5,28.5C 69.3351,29.9432 70.6684,30.9432 72.5,31.5C 70.4138,32.4887 68.7471,33.822 67.5,35.5C 66.2652,35.2786 65.2652,34.6119 64.5,33.5C 63.5832,34.1272 62.5832,34.4606 61.5,34.5C 61.4729,32.8007 60.8062,31.4674 59.5,30.5C 65.1396,27.8423 64.8063,26.509 58.5,26.5C 58.7852,24.712 58.4519,23.0453 57.5,21.5C 56.0656,20.4116 55.0656,19.0783 54.5,17.5 Z"/></g>
<g><path style="opacity:1" fill="#d6d6d6" d="M 47.5,17.5 C 47.5,18.1667 47.5,18.8333 47.5,19.5C 44.9179,19.0254 42.9179,19.6921 41.5,21.5C 39.8212,21.2852 38.8212,21.9519 38.5,23.5C 37.1667,23.5 35.8333,23.5 34.5,23.5C 34.5,22.1667 34.5,20.8333 34.5,19.5C 38.5448,17.8227 42.8781,17.1561 47.5,17.5 Z"/></g>
<g><path style="opacity:1" fill="#cfcfcf" d="M 47.5,17.5 C 49.8333,17.5 52.1667,17.5 54.5,17.5C 55.0656,19.0783 56.0656,20.4116 57.5,21.5C 58.4519,23.0453 58.7852,24.712 58.5,26.5C 57.8333,26.5 57.1667,26.5 56.5,26.5C 56.5,25.5 56.5,24.5 56.5,23.5C 53.5637,22.1664 50.5637,20.8331 47.5,19.5C 47.5,18.8333 47.5,18.1667 47.5,17.5 Z"/></g>
<g><path style="opacity:0.92" fill="#d9d9d9" d="M 27.5,21.5 C 29.1667,21.5 30.8333,21.5 32.5,21.5C 32.6499,24.9427 30.9832,26.9427 27.5,27.5C 27.9569,28.2975 28.6236,28.6309 29.5,28.5C 28.6359,30.919 27.3026,32.919 25.5,34.5C 25.821,33.1825 26.1543,31.8492 26.5,30.5C 25.4569,28.1436 24.4569,25.8103 23.5,23.5C 24.5137,22.3263 25.847,21.6596 27.5,21.5 Z"/></g>
<g><path style="opacity:1" fill="#c6c6c6" d="M 34.5,19.5 C 34.5,20.8333 34.5,22.1667 34.5,23.5C 35.8333,23.5 37.1667,23.5 38.5,23.5C 38.5,24.5 38.5,25.5 38.5,26.5C 37.1667,27.1667 35.8333,27.8333 34.5,28.5C 32.8333,28.5 31.1667,28.5 29.5,28.5C 28.6236,28.6309 27.9569,28.2975 27.5,27.5C 30.9832,26.9427 32.6499,24.9427 32.5,21.5C 30.8333,21.5 29.1667,21.5 27.5,21.5C 29.5145,20.0762 31.8478,19.4095 34.5,19.5 Z"/></g>
<g><path style="opacity:1" fill="#e8e8e8" d="M 47.5,19.5 C 50.5637,20.8331 53.5637,22.1664 56.5,23.5C 53.3356,23.5578 50.3356,24.2245 47.5,25.5C 47.719,24.325 47.3857,23.325 46.5,22.5C 45.8589,23.9935 44.8589,24.9935 43.5,25.5C 42.8333,24.1667 42.1667,22.8333 41.5,21.5C 42.9179,19.6921 44.9179,19.0254 47.5,19.5 Z"/></g>
<g><path style="opacity:0.967" fill="#c5c5c5" d="M 23.5,23.5 C 24.4569,25.8103 25.4569,28.1436 26.5,30.5C 26.1543,31.8492 25.821,33.1825 25.5,34.5C 25.1583,35.3382 24.4916,35.6716 23.5,35.5C 22.1667,35.5 20.8333,35.5 19.5,35.5C 19.1667,35.5 18.8333,35.5 18.5,35.5C 17.3915,34.71 16.0581,34.21 14.5,34C 16.632,32.3796 16.9653,30.5463 15.5,28.5C 17.822,26.336 20.4887,24.6693 23.5,23.5 Z"/></g>
<g><path style="opacity:1" fill="#cacaca" d="M 68.5,20.5 C 74.2597,21.878 79.2597,24.5446 83.5,28.5C 81.2257,28.2849 79.059,27.6182 77,26.5C 75.6244,26.6842 74.7911,27.3509 74.5,28.5C 72.5,28.5 70.5,28.5 68.5,28.5C 68.1788,26.9519 67.1788,26.2852 65.5,26.5C 65.5,25.5 65.5,24.5 65.5,23.5C 66.8734,23.6567 68.2068,23.49 69.5,23C 67.6412,22.3992 67.3079,21.5659 68.5,20.5 Z"/></g>
<g><path style="opacity:1" fill="#d9d9d9" d="M 56.5,23.5 C 56.5,24.5 56.5,25.5 56.5,26.5C 55.1561,28.0348 53.4894,29.3681 51.5,30.5C 50.5258,32.7427 50.1924,35.076 50.5,37.5C 49.1001,36.9002 48.1001,35.9002 47.5,34.5C 46.2804,32.7179 45.6138,30.7179 45.5,28.5C 47.288,28.7852 48.9547,28.4519 50.5,27.5C 48.0312,26.8319 45.6979,26.1653 43.5,25.5C 44.8589,24.9935 45.8589,23.9935 46.5,22.5C 47.3857,23.325 47.719,24.325 47.5,25.5C 50.3356,24.2245 53.3356,23.5578 56.5,23.5 Z"/></g>
<g><path style="opacity:1" fill="#c0c0c0" d="M 41.5,21.5 C 42.1667,22.8333 42.8333,24.1667 43.5,25.5C 45.6979,26.1653 48.0312,26.8319 50.5,27.5C 48.9547,28.4519 47.288,28.7852 45.5,28.5C 44.1667,28.5 42.8333,28.5 41.5,28.5C 41.1788,26.9519 40.1788,26.2852 38.5,26.5C 38.5,25.5 38.5,24.5 38.5,23.5C 38.8212,21.9519 39.8212,21.2852 41.5,21.5 Z"/></g>
<g><path style="opacity:1" fill="#cccccc" d="M 56.5,26.5 C 57.1667,26.5 57.8333,26.5 58.5,26.5C 64.8063,26.509 65.1396,27.8423 59.5,30.5C 58.7784,30.0825 58.2784,29.4158 58,28.5C 57.2904,29.9733 56.1238,30.6399 54.5,30.5C 53.551,32.7373 52.8844,35.0706 52.5,37.5C 51.8333,37.5 51.1667,37.5 50.5,37.5C 50.1924,35.076 50.5258,32.7427 51.5,30.5C 53.4894,29.3681 55.1561,28.0348 56.5,26.5 Z"/></g>
<g><path style="opacity:1" fill="#d8d8d8" d="M 38.5,26.5 C 40.1788,26.2852 41.1788,26.9519 41.5,28.5C 39.8793,28.7869 38.8793,29.7869 38.5,31.5C 40.3634,32.6888 42.0301,34.0221 43.5,35.5C 43.6309,36.3764 43.2975,37.0431 42.5,37.5C 40.8211,35.8955 38.8211,35.2289 36.5,35.5C 36.5,34.5 36.5,33.5 36.5,32.5C 32.6266,32.334 31.9599,33.334 34.5,35.5C 33.1667,35.5 31.8333,35.5 30.5,35.5C 30.5,33.8333 30.5,32.1667 30.5,30.5C 32.4832,30.8432 33.8166,30.1765 34.5,28.5C 35.8333,27.8333 37.1667,27.1667 38.5,26.5 Z"/></g>
<g><path style="opacity:1" fill="#c4c4c4" d="M 41.5,28.5 C 42.8333,28.5 44.1667,28.5 45.5,28.5C 45.6138,30.7179 46.2804,32.7179 47.5,34.5C 47.719,35.675 47.3857,36.675 46.5,37.5C 45.7348,36.3881 44.7348,35.7214 43.5,35.5C 42.0301,34.0221 40.3634,32.6888 38.5,31.5C 38.8793,29.7869 39.8793,28.7869 41.5,28.5 Z"/></g>
<g><path style="opacity:0.958" fill="#f0f0f0" d="M 83.5,28.5 C 84.5,28.8333 85.1667,29.5 85.5,30.5C 83.9837,31.8997 82.3171,33.233 80.5,34.5C 78.8211,32.8955 76.8211,32.2289 74.5,32.5C 74.5,31.1667 74.5,29.8333 74.5,28.5C 74.7911,27.3509 75.6244,26.6842 77,26.5C 79.059,27.6182 81.2257,28.2849 83.5,28.5 Z"/></g>
<g><path style="opacity:0.824" fill="#d4d4d4" d="M 15.5,28.5 C 16.9653,30.5463 16.632,32.3796 14.5,34C 16.0581,34.21 17.3915,34.71 18.5,35.5C 16.081,36.3641 14.081,37.6974 12.5,39.5C 11.8333,39.5 11.1667,39.5 10.5,39.5C 9.22086,40.968 7.5542,41.6347 5.5,41.5C 7.63401,36.2261 10.9673,31.8928 15.5,28.5 Z"/></g>
<g><path style="opacity:1" fill="#dfdfdf" d="M 59.5,30.5 C 60.8062,31.4674 61.4729,32.8007 61.5,34.5C 60.5084,34.3284 59.8417,34.6618 59.5,35.5C 57.2627,36.449 54.9294,37.1156 52.5,37.5C 52.8844,35.0706 53.551,32.7373 54.5,30.5C 56.1238,30.6399 57.2904,29.9733 58,28.5C 58.2784,29.4158 58.7784,30.0825 59.5,30.5 Z"/></g>
<g><path style="opacity:1" fill="#dfdfdf" d="M 68.5,28.5 C 70.5,28.5 72.5,28.5 74.5,28.5C 74.5,29.8333 74.5,31.1667 74.5,32.5C 76.8211,32.2289 78.8211,32.8955 80.5,34.5C 82.3171,33.233 83.9837,31.8997 85.5,30.5C 86.5,30.8333 87.1667,31.5 87.5,32.5C 88.0965,34.398 88.0965,36.0646 87.5,37.5C 83.9022,36.8609 80.5689,35.5275 77.5,33.5C 76.452,34.548 75.452,35.548 74.5,36.5C 72.2362,35.7814 69.9029,35.448 67.5,35.5C 68.7471,33.822 70.4138,32.4887 72.5,31.5C 70.6684,30.9432 69.3351,29.9432 68.5,28.5 Z"/></g>
<g><path style="opacity:1" fill="#e6e6e6" d="M 29.5,28.5 C 31.1667,28.5 32.8333,28.5 34.5,28.5C 33.8166,30.1765 32.4832,30.8432 30.5,30.5C 30.5,32.1667 30.5,33.8333 30.5,35.5C 31.8333,35.5 33.1667,35.5 34.5,35.5C 35.1834,37.1765 36.5168,37.8432 38.5,37.5C 38.5,38.1667 38.5,38.8333 38.5,39.5C 37.1667,39.5 35.8333,39.5 34.5,39.5C 34.762,40.9778 34.4287,42.3112 33.5,43.5C 31.677,42.2528 29.677,41.5861 27.5,41.5C 27.5,40.1667 27.5,38.8333 27.5,37.5C 25.5168,37.8432 24.1834,37.1765 23.5,35.5C 24.4916,35.6716 25.1583,35.3382 25.5,34.5C 27.3026,32.919 28.6359,30.919 29.5,28.5 Z"/></g>
<g><path style="opacity:1" fill="#adadad" d="M 67.5,35.5 C 68.4663,37.0568 69.7996,38.3901 71.5,39.5C 72.4287,40.6888 72.762,42.0222 72.5,43.5C 71.8333,43.5 71.1667,43.5 70.5,43.5C 68.1944,43.0074 65.861,42.6741 63.5,42.5C 62.791,41.596 61.791,41.2627 60.5,41.5C 60.4828,39.4352 60.1495,37.4352 59.5,35.5C 59.8417,34.6618 60.5084,34.3284 61.5,34.5C 62.5832,34.4606 63.5832,34.1272 64.5,33.5C 65.2652,34.6119 66.2652,35.2786 67.5,35.5 Z"/></g>
<g><path style="opacity:1" fill="#d3d3d3" d="M 67.5,35.5 C 69.9029,35.448 72.2362,35.7814 74.5,36.5C 75.2013,39.2163 76.5346,41.5496 78.5,43.5C 76.5,43.5 74.5,43.5 72.5,43.5C 72.762,42.0222 72.4287,40.6888 71.5,39.5C 69.7996,38.3901 68.4663,37.0568 67.5,35.5 Z"/></g>
<g><path style="opacity:1" fill="#dadada" d="M 87.5,32.5 C 90.8389,35.8349 93.1722,39.8349 94.5,44.5C 92.9519,44.1788 92.2852,43.1788 92.5,41.5C 90.8333,41.5 89.1667,41.5 87.5,41.5C 85.396,41.7989 83.396,41.4656 81.5,40.5C 83.9749,40.0358 85.9749,39.0358 87.5,37.5C 88.0965,36.0646 88.0965,34.398 87.5,32.5 Z"/></g>
<g><path style="opacity:1" fill="#c7c7c7" d="M 43.5,35.5 C 44.7348,35.7214 45.7348,36.3881 46.5,37.5C 47.3857,36.675 47.719,35.675 47.5,34.5C 48.1001,35.9002 49.1001,36.9002 50.5,37.5C 51.1667,37.5 51.8333,37.5 52.5,37.5C 54.9294,37.1156 57.2627,36.449 59.5,35.5C 60.1495,37.4352 60.4828,39.4352 60.5,41.5C 55.5839,39.4071 53.5839,41.0738 54.5,46.5C 52.901,46.7678 51.5676,46.4345 50.5,45.5C 49.791,44.596 48.791,44.2627 47.5,44.5C 47.9227,42.2188 47.256,40.5521 45.5,39.5C 44.2652,39.7214 43.2652,40.3881 42.5,41.5C 41.1186,40.1186 39.7853,38.7853 38.5,37.5C 36.5168,37.8432 35.1834,37.1765 34.5,35.5C 31.9599,33.334 32.6266,32.334 36.5,32.5C 36.5,33.5 36.5,34.5 36.5,35.5C 38.8211,35.2289 40.8211,35.8955 42.5,37.5C 43.2975,37.0431 43.6309,36.3764 43.5,35.5 Z"/></g>
<g><path style="opacity:1" fill="#e0e0e0" d="M 10.5,39.5 C 11.1667,39.5 11.8333,39.5 12.5,39.5C 15.2882,39.0769 17.2882,40.0769 18.5,42.5C 20.0217,43.562 21.6883,44.2287 23.5,44.5C 22.1667,45.8333 20.8333,47.1667 19.5,48.5C 18.5,48.5 17.5,48.5 16.5,48.5C 15.8333,48.5 15.1667,48.5 14.5,48.5C 12.4887,45.8131 11.1553,42.8131 10.5,39.5 Z"/></g>
<g><path style="opacity:1" fill="#eeeeee" d="M 18.5,35.5 C 18.8333,35.5 19.1667,35.5 19.5,35.5C 20.7196,37.2821 21.3862,39.2821 21.5,41.5C 23.4832,41.1568 24.8166,41.8235 25.5,43.5C 24.5084,43.3284 23.8417,43.6618 23.5,44.5C 21.6883,44.2287 20.0217,43.562 18.5,42.5C 17.2882,40.0769 15.2882,39.0769 12.5,39.5C 14.081,37.6974 16.081,36.3641 18.5,35.5 Z"/></g>
<g><path style="opacity:1" fill="#e0e0e0" d="M 38.5,37.5 C 39.7853,38.7853 41.1186,40.1186 42.5,41.5C 43.2652,40.3881 44.2652,39.7214 45.5,39.5C 45.762,40.9778 45.4287,42.3112 44.5,43.5C 41.9795,44.7853 39.3128,45.4519 36.5,45.5C 37.1667,43.5 37.8333,41.5 38.5,39.5C 38.5,38.8333 38.5,38.1667 38.5,37.5 Z"/></g>
<g><path style="opacity:1" fill="#d5d5d5" d="M 45.5,39.5 C 47.256,40.5521 47.9227,42.2188 47.5,44.5C 48.791,44.2627 49.791,44.596 50.5,45.5C 47.0344,46.0769 43.7011,47.0769 40.5,48.5C 39.2597,47.3412 37.9264,46.3412 36.5,45.5C 39.3128,45.4519 41.9795,44.7853 44.5,43.5C 45.4287,42.3112 45.762,40.9778 45.5,39.5 Z"/></g>
<g><path style="opacity:0.993" fill="#e0e0e0" d="M 60.5,41.5 C 61.791,41.2627 62.791,41.596 63.5,42.5C 62.4138,42.62 61.7472,43.2867 61.5,44.5C 62.2255,45.8669 62.8921,47.2003 63.5,48.5C 61.8333,48.5 60.1667,48.5 58.5,48.5C 57.1667,47.8333 55.8333,47.1667 54.5,46.5C 53.5839,41.0738 55.5839,39.4071 60.5,41.5 Z"/></g>
<g><path style="opacity:1" fill="#b8b8b8" d="M 87.5,37.5 C 85.9749,39.0358 83.9749,40.0358 81.5,40.5C 83.396,41.4656 85.396,41.7989 87.5,41.5C 88.6085,42.29 89.9419,42.79 91.5,43C 88.7111,43.2414 86.0444,43.908 83.5,45C 81.1667,45.6667 78.8333,45.6667 76.5,45C 77.4158,44.7216 78.0825,44.2216 78.5,43.5C 76.5346,41.5496 75.2013,39.2163 74.5,36.5C 75.452,35.548 76.452,34.548 77.5,33.5C 80.5689,35.5275 83.9022,36.8609 87.5,37.5 Z"/></g>
<g><path style="opacity:1" fill="#cccccc" d="M 19.5,35.5 C 20.8333,35.5 22.1667,35.5 23.5,35.5C 24.1834,37.1765 25.5168,37.8432 27.5,37.5C 27.5,38.8333 27.5,40.1667 27.5,41.5C 29.677,41.5861 31.677,42.2528 33.5,43.5C 34.4287,42.3112 34.762,40.9778 34.5,39.5C 35.8333,39.5 37.1667,39.5 38.5,39.5C 37.8333,41.5 37.1667,43.5 36.5,45.5C 37.9264,46.3412 39.2597,47.3412 40.5,48.5C 39.1363,50.1911 37.803,51.8577 36.5,53.5C 33.9292,52.2379 33.9292,50.9045 36.5,49.5C 35.4116,48.0656 34.0783,47.0656 32.5,46.5C 30.4907,44.9348 28.1573,43.9348 25.5,43.5C 24.8166,41.8235 23.4832,41.1568 21.5,41.5C 21.3862,39.2821 20.7196,37.2821 19.5,35.5 Z"/></g>
<g><path style="opacity:1" fill="#d4d4d4" d="M 10.5,39.5 C 11.1553,42.8131 12.4887,45.8131 14.5,48.5C 12.2393,49.9088 10.2393,51.5754 8.5,53.5C 7.5,53.5 6.5,53.5 5.5,53.5C 5.32846,55.4918 5.99512,57.1585 7.5,58.5C 6.31116,59.4287 4.97782,59.762 3.5,59.5C 2.97745,53.2819 3.64412,47.2819 5.5,41.5C 7.5542,41.6347 9.22086,40.968 10.5,39.5 Z"/></g>
<g><path style="opacity:1" fill="#dadada" d="M 25.5,43.5 C 28.1573,43.9348 30.4907,44.9348 32.5,46.5C 30.323,47.2794 28.6563,48.6127 27.5,50.5C 24.8333,49.8333 22.1667,49.1667 19.5,48.5C 20.8333,47.1667 22.1667,45.8333 23.5,44.5C 23.8417,43.6618 24.5084,43.3284 25.5,43.5 Z"/></g>
<g><path style="opacity:1" fill="#ededed" d="M 63.5,42.5 C 65.861,42.6741 68.1944,43.0074 70.5,43.5C 70.5,43.8333 70.5,44.1667 70.5,44.5C 70.2786,45.7348 69.6119,46.7348 68.5,47.5C 71.2291,49.3671 70.8957,50.3671 67.5,50.5C 66.1667,49.8333 64.8333,49.1667 63.5,48.5C 62.8921,47.2003 62.2255,45.8669 61.5,44.5C 61.7472,43.2867 62.4138,42.62 63.5,42.5 Z"/></g>
<g><path style="opacity:1" fill="#cbcbcb" d="M 87.5,41.5 C 89.1667,41.5 90.8333,41.5 92.5,41.5C 92.2852,43.1788 92.9519,44.1788 94.5,44.5C 95.2341,45.7079 95.5674,47.0413 95.5,48.5C 93.1789,48.7711 91.1789,48.1045 89.5,46.5C 88.7025,46.9569 88.3691,47.6236 88.5,48.5C 86.6776,48.1692 85.0109,47.5025 83.5,46.5C 80.5,46.5 77.5,46.5 74.5,46.5C 73.1667,45.8333 71.8333,45.1667 70.5,44.5C 70.5,44.1667 70.5,43.8333 70.5,43.5C 71.1667,43.5 71.8333,43.5 72.5,43.5C 74.5,43.5 76.5,43.5 78.5,43.5C 78.0825,44.2216 77.4158,44.7216 76.5,45C 78.8333,45.6667 81.1667,45.6667 83.5,45C 86.0444,43.908 88.7111,43.2414 91.5,43C 89.9419,42.79 88.6085,42.29 87.5,41.5 Z"/></g>
<g><path style="opacity:1" fill="#d0d0d0" d="M 74.5,46.5 C 77.5,46.5 80.5,46.5 83.5,46.5C 82.2034,48.7976 80.5368,50.7976 78.5,52.5C 77.1667,52.5 75.8333,52.5 74.5,52.5C 74.2786,51.2652 73.6119,50.2652 72.5,49.5C 73.6119,48.7348 74.2786,47.7348 74.5,46.5 Z"/></g>
<g><path style="opacity:1" fill="#d9d9d9" d="M 14.5,48.5 C 15.1667,48.5 15.8333,48.5 16.5,48.5C 17.1667,49.8333 17.8333,51.1667 18.5,52.5C 17.596,53.209 17.2627,54.209 17.5,55.5C 15.8333,55.5 14.1667,55.5 12.5,55.5C 10.5168,55.8432 9.18342,55.1765 8.5,53.5C 10.2393,51.5754 12.2393,49.9088 14.5,48.5 Z"/></g>
<g><path style="opacity:1" fill="#e3e3e3" d="M 70.5,44.5 C 71.8333,45.1667 73.1667,45.8333 74.5,46.5C 74.2786,47.7348 73.6119,48.7348 72.5,49.5C 73.6119,50.2652 74.2786,51.2652 74.5,52.5C 74.5,53.8333 73.8333,54.5 72.5,54.5C 70.8333,53.1667 69.1667,51.8333 67.5,50.5C 70.8957,50.3671 71.2291,49.3671 68.5,47.5C 69.6119,46.7348 70.2786,45.7348 70.5,44.5 Z"/></g>
<g><path style="opacity:1" fill="#e7e7e7" d="M 83.5,46.5 C 85.0109,47.5025 86.6776,48.1692 88.5,48.5C 90.3773,49.829 90.5439,51.1623 89,52.5C 87.322,50.718 85.4886,50.3847 83.5,51.5C 84.8532,52.5237 85.5198,53.857 85.5,55.5C 84.8333,55.5 84.1667,55.5 83.5,55.5C 81.4687,55.0276 79.8021,54.0276 78.5,52.5C 80.5368,50.7976 82.2034,48.7976 83.5,46.5 Z"/></g>
<g><path style="opacity:0.78" fill="#e1e1e1" d="M 18.5,52.5 C 22.9315,51.5298 25.2648,53.1965 25.5,57.5C 25.6309,58.3764 25.2975,59.0431 24.5,59.5C 23.065,57.5989 21.3983,57.2655 19.5,58.5C 20.6119,59.2652 21.2786,60.2652 21.5,61.5C 17.1667,61.5 12.8333,61.5 8.5,61.5C 9.18342,59.8235 10.5168,59.1568 12.5,59.5C 12.5,58.1667 12.5,56.8333 12.5,55.5C 14.1667,55.5 15.8333,55.5 17.5,55.5C 17.2627,54.209 17.596,53.209 18.5,52.5 Z"/></g>
<g><path style="opacity:1" fill="#bebebe" d="M 16.5,48.5 C 17.5,48.5 18.5,48.5 19.5,48.5C 22.1667,49.1667 24.8333,49.8333 27.5,50.5C 29.7267,52.2287 30.7267,54.562 30.5,57.5C 28.8333,57.5 27.1667,57.5 25.5,57.5C 25.2648,53.1965 22.9315,51.5298 18.5,52.5C 17.8333,51.1667 17.1667,49.8333 16.5,48.5 Z"/></g>
<g><path style="opacity:1" fill="#f0f0f0" d="M 8.5,53.5 C 9.18342,55.1765 10.5168,55.8432 12.5,55.5C 12.5,56.8333 12.5,58.1667 12.5,59.5C 10.5168,59.1568 9.18342,59.8235 8.5,61.5C 6.21879,61.9227 4.55213,61.256 3.5,59.5C 4.97782,59.762 6.31116,59.4287 7.5,58.5C 5.99512,57.1585 5.32846,55.4918 5.5,53.5C 6.5,53.5 7.5,53.5 8.5,53.5 Z"/></g>
<g><path style="opacity:0.932" fill="#e3e3e3" d="M 32.5,46.5 C 34.0783,47.0656 35.4116,48.0656 36.5,49.5C 33.9292,50.9045 33.9292,52.2379 36.5,53.5C 36.5,55.5 36.5,57.5 36.5,59.5C 33.9179,59.9746 31.9179,59.3079 30.5,57.5C 30.7267,54.562 29.7267,52.2287 27.5,50.5C 28.6563,48.6127 30.323,47.2794 32.5,46.5 Z"/></g>
<g><path style="opacity:1" fill="#c8c8c8" d="M 58.5,48.5 C 60.1667,48.5 61.8333,48.5 63.5,48.5C 64.8333,49.1667 66.1667,49.8333 67.5,50.5C 69.1667,51.8333 70.8333,53.1667 72.5,54.5C 73.3909,55.2613 74.0576,56.2613 74.5,57.5C 74.2528,58.7133 73.5862,59.38 72.5,59.5C 71.8333,56.8333 71.1667,56.8333 70.5,59.5C 68.8235,58.8166 68.1568,57.4832 68.5,55.5C 67.5,55.5 66.5,55.5 65.5,55.5C 65.2479,58.2438 65.9145,60.7438 67.5,63C 67.1639,64.0299 66.4972,64.5299 65.5,64.5C 64.0351,61.6343 63.0351,58.6343 62.5,55.5C 61.4196,53.0038 60.0862,50.6705 58.5,48.5 Z"/></g>
<g><path style="opacity:1" fill="#dbdbdb" d="M 95.5,48.5 C 96.7567,53.9638 96.7567,59.2971 95.5,64.5C 95.189,63.5222 94.5223,62.8555 93.5,62.5C 91.5914,63.3482 89.5914,63.6816 87.5,63.5C 86.8333,60.8333 86.1667,58.1667 85.5,55.5C 85.5198,53.857 84.8532,52.5237 83.5,51.5C 85.4886,50.3847 87.322,50.718 89,52.5C 90.5439,51.1623 90.3773,49.829 88.5,48.5C 88.3691,47.6236 88.7025,46.9569 89.5,46.5C 91.1789,48.1045 93.1789,48.7711 95.5,48.5 Z"/></g>
<g><path style="opacity:1" fill="#d0d0d0" d="M 25.5,57.5 C 27.1667,57.5 28.8333,57.5 30.5,57.5C 31.9179,59.3079 33.9179,59.9746 36.5,59.5C 31.9443,61.4417 26.9443,62.1083 21.5,61.5C 21.2786,60.2652 20.6119,59.2652 19.5,58.5C 21.3983,57.2655 23.065,57.5989 24.5,59.5C 25.2975,59.0431 25.6309,58.3764 25.5,57.5 Z"/></g>
<g><path style="opacity:1" fill="#494949" d="M 72.5,59.5 C 71.8333,59.5 71.1667,59.5 70.5,59.5C 71.1667,56.8333 71.8333,56.8333 72.5,59.5 Z"/></g>
<g><path style="opacity:1" fill="#d8d8d8" d="M 74.5,52.5 C 75.8333,52.5 77.1667,52.5 78.5,52.5C 79.8021,54.0276 81.4687,55.0276 83.5,55.5C 78.3055,55.9417 78.3055,56.9417 83.5,58.5C 80.7476,60.3361 77.7476,61.3361 74.5,61.5C 74.8308,63.3224 75.4975,64.9891 76.5,66.5C 75.1667,66.5 73.8333,66.5 72.5,66.5C 72.5198,64.857 71.8532,63.5237 70.5,62.5C 71.6119,61.7348 72.2786,60.7348 72.5,59.5C 73.5862,59.38 74.2528,58.7133 74.5,57.5C 74.0576,56.2613 73.3909,55.2613 72.5,54.5C 73.8333,54.5 74.5,53.8333 74.5,52.5 Z"/></g>
<g><path style="opacity:1" fill="#e5e5e5" d="M 70.5,59.5 C 71.1667,59.5 71.8333,59.5 72.5,59.5C 72.2786,60.7348 71.6119,61.7348 70.5,62.5C 71.8532,63.5237 72.5198,64.857 72.5,66.5C 73.8333,66.5 75.1667,66.5 76.5,66.5C 75.8333,67.8333 75.1667,69.1667 74.5,70.5C 71.3056,70.2695 68.3056,70.9362 65.5,72.5C 64.2867,72.2528 63.62,71.5862 63.5,70.5C 63.0254,67.9179 63.6921,65.9179 65.5,64.5C 66.4972,64.5299 67.1639,64.0299 67.5,63C 65.9145,60.7438 65.2479,58.2438 65.5,55.5C 66.5,55.5 67.5,55.5 68.5,55.5C 68.1568,57.4832 68.8235,58.8166 70.5,59.5 Z"/></g>
<g><path style="opacity:1" fill="#c1c1c1" d="M 83.5,55.5 C 84.1667,55.5 84.8333,55.5 85.5,55.5C 86.1667,58.1667 86.8333,60.8333 87.5,63.5C 89.5914,63.6816 91.5914,63.3482 93.5,62.5C 94.5223,62.8555 95.189,63.5222 95.5,64.5C 95.5674,65.9587 95.2341,67.2921 94.5,68.5C 89.8991,69.2418 86.5658,67.5751 84.5,63.5C 83.8933,63.6236 83.56,63.9569 83.5,64.5C 80.9242,64.4679 78.5909,65.1346 76.5,66.5C 75.4975,64.9891 74.8308,63.3224 74.5,61.5C 77.7476,61.3361 80.7476,60.3361 83.5,58.5C 78.3055,56.9417 78.3055,55.9417 83.5,55.5 Z"/></g>
<g><path style="opacity:0.907" fill="#d7d7d7" d="M 62.5,55.5 C 63.0351,58.6343 64.0351,61.6343 65.5,64.5C 63.6921,65.9179 63.0254,67.9179 63.5,70.5C 61.5168,70.1568 60.1834,70.8235 59.5,72.5C 56.9407,72.8016 54.6074,72.4682 52.5,71.5C 60.3407,69.1785 63.6741,63.8452 62.5,55.5 Z"/></g>
<g><path style="opacity:1" fill="#d1d1d1" d="M 83.5,64.5 C 82.1003,66.0163 80.767,67.6829 79.5,69.5C 81.396,70.4656 83.396,70.7989 85.5,70.5C 83.0122,72.3878 80.0122,73.0545 76.5,72.5C 76.5,71.1667 75.8333,70.5 74.5,70.5C 75.1667,69.1667 75.8333,67.8333 76.5,66.5C 78.5909,65.1346 80.9242,64.4679 83.5,64.5 Z"/></g>
<g><path style="opacity:0.922" fill="#e7e7e7" d="M 94.5,68.5 C 93.9213,71.3311 92.588,73.6644 90.5,75.5C 90.5,73.8333 90.5,72.1667 90.5,70.5C 88.8333,70.5 87.1667,70.5 85.5,70.5C 83.396,70.7989 81.396,70.4656 79.5,69.5C 80.767,67.6829 82.1003,66.0163 83.5,64.5C 83.56,63.9569 83.8933,63.6236 84.5,63.5C 86.5658,67.5751 89.8991,69.2418 94.5,68.5 Z"/></g>
<g><path style="opacity:1" fill="#cdcdcd" d="M 63.5,70.5 C 63.62,71.5862 64.2867,72.2528 65.5,72.5C 68.3056,70.9362 71.3056,70.2695 74.5,70.5C 74.2623,73.0685 72.929,74.7352 70.5,75.5C 70.2648,74.9033 69.7648,74.5699 69,74.5C 66.7691,76.1997 64.2691,77.1997 61.5,77.5C 61.9227,75.2188 61.256,73.5521 59.5,72.5C 60.1834,70.8235 61.5168,70.1568 63.5,70.5 Z"/></g>
<g><path style="opacity:1" fill="#d4d4d4" d="M 85.5,70.5 C 87.1667,70.5 88.8333,70.5 90.5,70.5C 90.5,72.1667 90.5,73.8333 90.5,75.5C 90.6716,76.4916 90.3382,77.1583 89.5,77.5C 87.8829,76.4107 87.0496,74.744 87,72.5C 84.6194,73.435 82.1194,73.7683 79.5,73.5C 77.8041,75.129 76.8041,74.7957 76.5,72.5C 80.0122,73.0545 83.0122,72.3878 85.5,70.5 Z"/></g>
<g><path style="opacity:1" fill="#e4e4e4" d="M 49.5,72.5 C 50.209,71.596 51.209,71.2627 52.5,71.5C 54.6074,72.4682 56.9407,72.8016 59.5,72.5C 60.5981,73.397 60.5981,74.2303 59.5,75C 56.304,75.645 53.304,76.8117 50.5,78.5C 51.652,80.7926 52.9853,82.7926 54.5,84.5C 54.5,85.1667 54.5,85.8333 54.5,86.5C 53.8333,86.5 53.1667,86.5 52.5,86.5C 49.9242,86.5321 47.5909,85.8654 45.5,84.5C 45.1583,83.6618 44.4916,83.3284 43.5,83.5C 43.5,82.8333 43.5,82.1667 43.5,81.5C 47.2571,81.7136 47.9238,80.7136 45.5,78.5C 46.7277,76.679 48.3944,75.679 50.5,75.5C 50.7373,74.209 50.404,73.209 49.5,72.5 Z"/></g>
<g><path style="opacity:0.827" fill="#e5e5e5" d="M 41.5,72.5 C 41.5,72.8333 41.5,73.1667 41.5,73.5C 39.6568,77.0092 36.6568,78.3426 32.5,77.5C 31.5,77.5 30.5,77.5 29.5,77.5C 29.5,75.8333 29.5,74.1667 29.5,72.5C 33.5,72.5 37.5,72.5 41.5,72.5 Z"/></g>
<g><path style="opacity:1" fill="#d1d1d1" d="M 41.5,73.5 C 41.5,73.1667 41.5,72.8333 41.5,72.5C 44.1667,72.5 46.8333,72.5 49.5,72.5C 50.404,73.209 50.7373,74.209 50.5,75.5C 48.3944,75.679 46.7277,76.679 45.5,78.5C 47.9238,80.7136 47.2571,81.7136 43.5,81.5C 44.0356,78.3019 43.369,75.6353 41.5,73.5 Z"/></g>
<g><path style="opacity:1" fill="#dddddd" d="M 74.5,70.5 C 75.8333,70.5 76.5,71.1667 76.5,72.5C 76.8041,74.7957 77.8041,75.129 79.5,73.5C 77.8109,75.8534 75.4776,77.52 72.5,78.5C 75.4281,79.4841 78.4281,79.8174 81.5,79.5C 81.666,83.3734 80.666,84.0401 78.5,81.5C 76.5,81.5 74.5,81.5 72.5,81.5C 72.5,82.5 72.5,83.5 72.5,84.5C 70.9519,84.1788 70.2852,83.1788 70.5,81.5C 70.5,79.5 70.5,77.5 70.5,75.5C 72.929,74.7352 74.2623,73.0685 74.5,70.5 Z"/></g>
<g><path style="opacity:1" fill="#efefef" d="M 70.5,75.5 C 70.5,77.5 70.5,79.5 70.5,81.5C 66.715,81.3689 63.0483,80.7022 59.5,79.5C 59.5,78.1667 60.1667,77.5 61.5,77.5C 64.2691,77.1997 66.7691,76.1997 69,74.5C 69.7648,74.5699 70.2648,74.9033 70.5,75.5 Z"/></g>
<g><path style="opacity:1" fill="#d6d6d6" d="M 41.5,73.5 C 43.369,75.6353 44.0356,78.3019 43.5,81.5C 43.5,82.1667 43.5,82.8333 43.5,83.5C 40.0793,81.8534 36.4126,81.1868 32.5,81.5C 32.5,80.1667 32.5,78.8333 32.5,77.5C 36.6568,78.3426 39.6568,77.0092 41.5,73.5 Z"/></g>
<g><path style="opacity:1" fill="#d5d5d5" d="M 59.5,72.5 C 61.256,73.5521 61.9227,75.2188 61.5,77.5C 60.1667,77.5 59.5,78.1667 59.5,79.5C 57.8333,79.5 56.1667,79.5 54.5,79.5C 54.5,81.1667 54.5,82.8333 54.5,84.5C 52.9853,82.7926 51.652,80.7926 50.5,78.5C 53.304,76.8117 56.304,75.645 59.5,75C 60.5981,74.2303 60.5981,73.397 59.5,72.5 Z"/></g>
<g><path style="opacity:1" fill="#e5e5e5" d="M 89.5,77.5 C 87.1667,80.1667 84.8333,82.8333 82.5,85.5C 81.2921,84.7659 79.9587,84.4326 78.5,84.5C 78.5,83.5 78.5,82.5 78.5,81.5C 80.666,84.0401 81.666,83.3734 81.5,79.5C 78.4281,79.8174 75.4281,79.4841 72.5,78.5C 75.4776,77.52 77.8109,75.8534 79.5,73.5C 82.1194,73.7683 84.6194,73.435 87,72.5C 87.0496,74.744 87.8829,76.4107 89.5,77.5 Z"/></g>
<g><path style="opacity:0.85" fill="#dadada" d="M 29.5,77.5 C 30.5,77.5 31.5,77.5 32.5,77.5C 32.5,78.8333 32.5,80.1667 32.5,81.5C 36.4126,81.1868 40.0793,81.8534 43.5,83.5C 44.4916,83.3284 45.1583,83.6618 45.5,84.5C 44.1667,84.5 42.8333,84.5 41.5,84.5C 39.8333,84.5 38.1667,84.5 36.5,84.5C 36.5,85.8333 36.5,87.1667 36.5,88.5C 40.2571,88.2864 40.9238,89.2864 38.5,91.5C 36.604,92.4656 34.604,92.7989 32.5,92.5C 32.1788,90.9519 31.1788,90.2852 29.5,90.5C 29.5,86.1667 29.5,81.8333 29.5,77.5 Z"/></g>
<g><path style="opacity:1" fill="#c3c3c3" d="M 59.5,79.5 C 63.0483,80.7022 66.715,81.3689 70.5,81.5C 70.2852,83.1788 70.9519,84.1788 72.5,84.5C 72.5,85.1667 72.5,85.8333 72.5,86.5C 72.5,87.1667 72.5,87.8333 72.5,88.5C 70.1667,87.1667 67.8333,85.8333 65.5,84.5C 65.5,85.8333 65.5,87.1667 65.5,88.5C 64.1667,88.5 62.8333,88.5 61.5,88.5C 61.7692,86.5714 61.2692,84.9047 60,83.5C 58.4941,85.1742 56.6607,86.1742 54.5,86.5C 54.5,85.8333 54.5,85.1667 54.5,84.5C 54.5,82.8333 54.5,81.1667 54.5,79.5C 56.1667,79.5 57.8333,79.5 59.5,79.5 Z"/></g>
<g><path style="opacity:1" fill="#dedede" d="M 41.5,84.5 C 41.5,85.8333 41.5,87.1667 41.5,88.5C 43.4832,88.1568 44.8166,88.8235 45.5,90.5C 44.1667,90.5 42.8333,90.5 41.5,90.5C 40.9117,93.0631 39.9117,95.3964 38.5,97.5C 38.762,96.0222 38.4287,94.6888 37.5,93.5C 36.1585,95.0049 34.4918,95.6715 32.5,95.5C 32.5,94.5 32.5,93.5 32.5,92.5C 34.604,92.7989 36.604,92.4656 38.5,91.5C 40.9238,89.2864 40.2571,88.2864 36.5,88.5C 36.5,87.1667 36.5,85.8333 36.5,84.5C 38.1667,84.5 39.8333,84.5 41.5,84.5 Z"/></g>
<g><path style="opacity:0.991" fill="#ececec" d="M 78.5,81.5 C 78.5,82.5 78.5,83.5 78.5,84.5C 79.9587,84.4326 81.2921,84.7659 82.5,85.5C 86.1038,87.288 88.7705,89.9547 90.5,93.5C 89.609,94.1098 88.609,94.4431 87.5,94.5C 86.8166,92.8235 85.4832,92.1568 83.5,92.5C 83.5,91.1667 83.5,89.8333 83.5,88.5C 82.1667,88.5 80.8333,88.5 79.5,88.5C 77.7211,86.6565 75.3878,85.9898 72.5,86.5C 72.5,85.8333 72.5,85.1667 72.5,84.5C 72.5,83.5 72.5,82.5 72.5,81.5C 74.5,81.5 76.5,81.5 78.5,81.5 Z"/></g>
<g><path style="opacity:1" fill="#c9c9c9" d="M 41.5,84.5 C 42.8333,84.5 44.1667,84.5 45.5,84.5C 47.5909,85.8654 49.9242,86.5321 52.5,86.5C 50.7077,88.5693 48.3744,89.9026 45.5,90.5C 44.8166,88.8235 43.4832,88.1568 41.5,88.5C 41.5,87.1667 41.5,85.8333 41.5,84.5 Z"/></g>
<g><path style="opacity:1" fill="#dbdbdb" d="M 61.5,88.5 C 58.6122,87.9898 56.2789,88.6565 54.5,90.5C 52.7758,92.852 50.4424,94.5187 47.5,95.5C 46.4625,94.0697 45.7959,92.403 45.5,90.5C 48.3744,89.9026 50.7077,88.5693 52.5,86.5C 53.1667,86.5 53.8333,86.5 54.5,86.5C 56.6607,86.1742 58.4941,85.1742 60,83.5C 61.2692,84.9047 61.7692,86.5714 61.5,88.5 Z"/></g>
<g><path style="opacity:1" fill="#d4d4d4" d="M 79.5,88.5 C 80.8333,88.5 82.1667,88.5 83.5,88.5C 83.5,89.8333 83.5,91.1667 83.5,92.5C 81.1667,92.5 78.8333,92.5 76.5,92.5C 76.5,93.5 76.5,94.5 76.5,95.5C 76.8432,97.4832 76.1765,98.8166 74.5,99.5C 74.5,96.5 74.5,93.5 74.5,90.5C 76.5542,90.6347 78.2209,89.968 79.5,88.5 Z"/></g>
<g><path style="opacity:1" fill="#e7e7e7" d="M 54.5,90.5 C 56.9294,90.8844 59.2627,91.551 61.5,92.5C 61.5,93.5 61.5,94.5 61.5,95.5C 58.4281,95.1826 55.4281,95.5159 52.5,96.5C 53.8532,97.5237 54.5198,98.857 54.5,100.5C 51.8333,100.5 49.1667,100.5 46.5,100.5C 45.6016,99.8423 44.6016,99.1757 43.5,98.5C 45.3316,97.9432 46.6649,96.9432 47.5,95.5C 50.4424,94.5187 52.7758,92.852 54.5,90.5 Z"/></g>
<g><path style="opacity:1" fill="#d2d2d2" d="M 72.5,88.5 C 71.6649,89.9432 70.3316,90.9432 68.5,91.5C 69.8532,92.5237 70.5198,93.857 70.5,95.5C 68.2627,94.551 65.9294,93.8844 63.5,93.5C 62.8333,95.5 62.1667,97.5 61.5,99.5C 61.3653,101.554 62.032,103.221 63.5,104.5C 62.8333,104.5 62.1667,104.5 61.5,104.5C 59.262,102.884 56.9287,101.551 54.5,100.5C 54.5198,98.857 53.8532,97.5237 52.5,96.5C 55.4281,95.5159 58.4281,95.1826 61.5,95.5C 61.5,94.5 61.5,93.5 61.5,92.5C 59.2627,91.551 56.9294,90.8844 54.5,90.5C 56.2789,88.6565 58.6122,87.9898 61.5,88.5C 62.8333,88.5 64.1667,88.5 65.5,88.5C 65.5,87.1667 65.5,85.8333 65.5,84.5C 67.8333,85.8333 70.1667,87.1667 72.5,88.5 Z"/></g>
<g><path style="opacity:1" fill="#e6e6e6" d="M 72.5,86.5 C 75.3878,85.9898 77.7211,86.6565 79.5,88.5C 78.2209,89.968 76.5542,90.6347 74.5,90.5C 74.5,93.5 74.5,96.5 74.5,99.5C 70.1667,96.8333 65.8333,96.8333 61.5,99.5C 62.1667,97.5 62.8333,95.5 63.5,93.5C 65.9294,93.8844 68.2627,94.551 70.5,95.5C 70.5198,93.857 69.8532,92.5237 68.5,91.5C 70.3316,90.9432 71.6649,89.9432 72.5,88.5C 72.5,87.8333 72.5,87.1667 72.5,86.5 Z"/></g>
<g><path style="opacity:1" fill="#d5d5d5" d="M 45.5,90.5 C 45.7959,92.403 46.4625,94.0697 47.5,95.5C 46.6649,96.9432 45.3316,97.9432 43.5,98.5C 44.6016,99.1757 45.6016,99.8423 46.5,100.5C 41.8333,100.5 37.1667,100.5 32.5,100.5C 34.4561,99.522 36.4561,98.522 38.5,97.5C 39.9117,95.3964 40.9117,93.0631 41.5,90.5C 42.8333,90.5 44.1667,90.5 45.5,90.5 Z"/></g>
<g><path style="opacity:1" fill="#d0d0d0" d="M 83.5,92.5 C 85.4832,92.1568 86.8166,92.8235 87.5,94.5C 87.5,95.5 87.5,96.5 87.5,97.5C 85.5,97.5 83.5,97.5 81.5,97.5C 80.4479,95.744 78.7812,95.0773 76.5,95.5C 76.5,94.5 76.5,93.5 76.5,92.5C 78.8333,92.5 81.1667,92.5 83.5,92.5 Z"/></g>
<g><path style="opacity:0.994" fill="#dddddd" d="M 90.5,93.5 C 91.5,93.8333 92.1667,94.5 92.5,95.5C 91.8921,96.7997 91.2255,98.1331 90.5,99.5C 91.5471,101.056 92.2137,102.723 92.5,104.5C 90.5168,104.157 89.1834,104.824 88.5,106.5C 87.2379,103.929 85.9045,103.929 84.5,106.5C 83.5258,104.257 83.1924,101.924 83.5,99.5C 85.7659,99.1412 87.5993,99.8078 89,101.5C 89.8442,99.5372 89.3442,98.2039 87.5,97.5C 87.5,96.5 87.5,95.5 87.5,94.5C 88.609,94.4431 89.609,94.1098 90.5,93.5 Z"/></g>
<g><path style="opacity:1" fill="#e6e6e6" d="M 29.5,90.5 C 31.1788,90.2852 32.1788,90.9519 32.5,92.5C 32.5,93.5 32.5,94.5 32.5,95.5C 34.4918,95.6715 36.1585,95.0049 37.5,93.5C 38.4287,94.6888 38.762,96.0222 38.5,97.5C 36.4561,98.522 34.4561,99.522 32.5,100.5C 31.5,100.5 30.5,100.5 29.5,100.5C 29.5,97.1667 29.5,93.8333 29.5,90.5 Z"/></g>
<g><path style="opacity:1" fill="#e0e0e0" d="M 76.5,95.5 C 78.7812,95.0773 80.4479,95.744 81.5,97.5C 81.2786,98.7348 80.6119,99.7348 79.5,100.5C 80.1667,101.167 80.8333,101.833 81.5,102.5C 80.1468,103.524 79.4802,104.857 79.5,106.5C 77.9484,104.658 76.2818,102.991 74.5,101.5C 74.5,100.833 74.5,100.167 74.5,99.5C 76.1765,98.8166 76.8432,97.4832 76.5,95.5 Z"/></g>
<g><path style="opacity:1" fill="#cacaca" d="M 74.5,99.5 C 74.5,100.167 74.5,100.833 74.5,101.5C 71.5,101.5 68.5,101.5 65.5,101.5C 65.5,102.5 65.5,103.5 65.5,104.5C 64.8333,104.5 64.1667,104.5 63.5,104.5C 62.032,103.221 61.3653,101.554 61.5,99.5C 65.8333,96.8333 70.1667,96.8333 74.5,99.5 Z"/></g>
<g><path style="opacity:1" fill="#e8e8e8" d="M 74.5,101.5 C 74.5,103.833 74.5,106.167 74.5,108.5C 71.5,107.167 68.5,105.833 65.5,104.5C 65.5,103.5 65.5,102.5 65.5,101.5C 68.5,101.5 71.5,101.5 74.5,101.5 Z"/></g>
<g><path style="opacity:1" fill="#cbcbcb" d="M 74.5,101.5 C 76.2818,102.991 77.9484,104.658 79.5,106.5C 79.5,107.833 79.5,109.167 79.5,110.5C 78.5,110.5 77.5,110.5 76.5,110.5C 76.5,111.5 76.5,112.5 76.5,113.5C 74.2821,113.614 72.2821,114.28 70.5,115.5C 69.8333,113.833 69.1667,112.167 68.5,110.5C 70.4918,110.328 72.1585,110.995 73.5,112.5C 74.4287,111.311 74.762,109.978 74.5,108.5C 74.5,106.167 74.5,103.833 74.5,101.5 Z"/></g>
<g><path style="opacity:1" fill="#ececec" d="M 81.5,97.5 C 83.5,97.5 85.5,97.5 87.5,97.5C 89.3442,98.2039 89.8442,99.5372 89,101.5C 87.5993,99.8078 85.7659,99.1412 83.5,99.5C 83.1924,101.924 83.5258,104.257 84.5,106.5C 85.9045,103.929 87.2379,103.929 88.5,106.5C 90.5,106.5 92.5,106.5 94.5,106.5C 94.5,107.833 94.5,109.167 94.5,110.5C 90.715,110.369 87.0483,109.702 83.5,108.5C 82.1667,107.833 80.8333,107.167 79.5,106.5C 79.4802,104.857 80.1468,103.524 81.5,102.5C 80.8333,101.833 80.1667,101.167 79.5,100.5C 80.6119,99.7348 81.2786,98.7348 81.5,97.5 Z"/></g>
<g><path style="opacity:1" fill="#d3d3d3" d="M 92.5,95.5 C 94.951,98.7403 96.6176,102.407 97.5,106.5C 96.9779,108.219 95.9779,109.552 94.5,110.5C 94.5,109.167 94.5,107.833 94.5,106.5C 92.5,106.5 90.5,106.5 88.5,106.5C 89.1834,104.824 90.5168,104.157 92.5,104.5C 92.2137,102.723 91.5471,101.056 90.5,99.5C 91.2255,98.1331 91.8921,96.7997 92.5,95.5 Z"/></g>
<g><path style="opacity:1" fill="#c9c9c9" d="M 63.5,104.5 C 64.1667,104.5 64.8333,104.5 65.5,104.5C 68.5,105.833 71.5,107.167 74.5,108.5C 74.762,109.978 74.4287,111.311 73.5,112.5C 72.1585,110.995 70.4918,110.328 68.5,110.5C 66.4632,108.798 64.7966,106.798 63.5,104.5 Z"/></g>
<g><path style="opacity:0.92" fill="#e0e0e0" d="M 12.5,111.5 C 12.5,113.167 12.5,114.833 12.5,116.5C 10.4091,115.135 8.07577,114.468 5.5,114.5C 5.5,115.5 5.5,116.5 5.5,117.5C 7.48324,117.157 8.81658,117.824 9.5,119.5C 7.5,120.167 5.5,120.833 3.5,121.5C 3.5,118.167 3.5,114.833 3.5,111.5C 6.5,111.5 9.5,111.5 12.5,111.5 Z"/></g>
<g><path style="opacity:1" fill="#e4e4e4" d="M 14.5,111.5 C 17.5,111.5 20.5,111.5 23.5,111.5C 23.5,112.167 23.5,112.833 23.5,113.5C 22.8921,114.8 22.2255,116.133 21.5,117.5C 22.7545,119.334 23.4211,121.334 23.5,123.5C 21.0706,123.116 18.7373,122.449 16.5,121.5C 16.7681,117.917 16.1014,114.584 14.5,111.5 Z"/></g>
<g><path style="opacity:1" fill="#cfcfcf" d="M 79.5,106.5 C 80.8333,107.167 82.1667,107.833 83.5,108.5C 83.6825,111.608 85.0158,114.108 87.5,116C 86.2068,116.49 84.8734,116.657 83.5,116.5C 83.719,115.325 83.3857,114.325 82.5,113.5C 81.5713,114.689 81.238,116.022 81.5,117.5C 79.8212,117.715 78.8212,117.048 78.5,115.5C 78.4802,113.857 79.1468,112.524 80.5,111.5C 80.3764,110.893 80.0431,110.56 79.5,110.5C 79.5,109.167 79.5,107.833 79.5,106.5 Z"/></g>
<g><path style="opacity:1" fill="#f1f1f1" d="M 23.5,113.5 C 26.5,113.5 29.5,113.5 32.5,113.5C 32.5,114.833 32.5,116.167 32.5,117.5C 30.0706,117.116 27.7373,116.449 25.5,115.5C 25.0254,118.082 25.6921,120.082 27.5,121.5C 26.8166,123.176 25.4832,123.843 23.5,123.5C 23.4211,121.334 22.7545,119.334 21.5,117.5C 22.2255,116.133 22.8921,114.8 23.5,113.5 Z"/></g>
<g><path style="opacity:1" fill="#e7e7e7" d="M 61.5,104.5 C 62.1667,104.5 62.8333,104.5 63.5,104.5C 64.7966,106.798 66.4632,108.798 68.5,110.5C 69.1667,112.167 69.8333,113.833 70.5,115.5C 70.5,116.833 70.5,118.167 70.5,119.5C 68.7926,121.015 66.7926,122.348 64.5,123.5C 63.7025,123.043 63.3691,122.376 63.5,121.5C 65.1714,115.542 64.5047,109.875 61.5,104.5 Z"/></g>
<g><path style="opacity:1" fill="#dedede" d="M 83.5,108.5 C 87.0483,109.702 90.715,110.369 94.5,110.5C 94.5,112.833 94.5,115.167 94.5,117.5C 92.2341,117.859 90.4007,117.192 89,115.5C 88.7216,116.416 88.2216,117.082 87.5,117.5C 82.4862,117.764 81.1528,119.764 83.5,123.5C 82.1667,123.5 81.5,124.167 81.5,125.5C 79.8333,125.5 78.1667,125.5 76.5,125.5C 76.5,124.5 76.5,123.5 76.5,122.5C 75.1667,122.5 73.8333,122.5 72.5,122.5C 72.5,121.5 72.5,120.5 72.5,119.5C 74.081,117.697 76.081,116.364 78.5,115.5C 78.8212,117.048 79.8212,117.715 81.5,117.5C 81.238,116.022 81.5713,114.689 82.5,113.5C 83.3857,114.325 83.719,115.325 83.5,116.5C 84.8734,116.657 86.2068,116.49 87.5,116C 85.0158,114.108 83.6825,111.608 83.5,108.5 Z"/></g>
<g><path style="opacity:0.969" fill="#eeeeee" d="M 97.5,106.5 C 98.436,110.735 98.7693,115.069 98.5,119.5C 95.1445,119.091 92.1445,119.758 89.5,121.5C 88.8333,120.167 88.1667,118.833 87.5,117.5C 88.2216,117.082 88.7216,116.416 89,115.5C 90.4007,117.192 92.2341,117.859 94.5,117.5C 94.5,115.167 94.5,112.833 94.5,110.5C 95.9779,109.552 96.9779,108.219 97.5,106.5 Z"/></g>
<g><path style="opacity:1" fill="#c0c0c0" d="M 12.5,116.5 C 12.5,117.5 12.5,118.5 12.5,119.5C 11.5,119.5 10.5,119.5 9.5,119.5C 8.81658,117.824 7.48324,117.157 5.5,117.5C 5.5,116.5 5.5,115.5 5.5,114.5C 8.07577,114.468 10.4091,115.135 12.5,116.5 Z"/></g>
<g><path style="opacity:1" fill="#e1e1e1" d="M 79.5,110.5 C 80.0431,110.56 80.3764,110.893 80.5,111.5C 79.1468,112.524 78.4802,113.857 78.5,115.5C 76.081,116.364 74.081,117.697 72.5,119.5C 71.8333,119.5 71.1667,119.5 70.5,119.5C 70.5,118.167 70.5,116.833 70.5,115.5C 72.2821,114.28 74.2821,113.614 76.5,113.5C 76.5,112.5 76.5,111.5 76.5,110.5C 77.5,110.5 78.5,110.5 79.5,110.5 Z"/></g>
<g><path style="opacity:1" fill="#e3e3e3" d="M 23.5,111.5 C 27.1667,111.5 30.8333,111.5 34.5,111.5C 34.2786,114.279 34.612,116.946 35.5,119.5C 32.3019,118.964 29.6353,119.631 27.5,121.5C 25.6921,120.082 25.0254,118.082 25.5,115.5C 27.7373,116.449 30.0706,117.116 32.5,117.5C 32.5,116.167 32.5,114.833 32.5,113.5C 29.5,113.5 26.5,113.5 23.5,113.5C 23.5,112.833 23.5,112.167 23.5,111.5 Z"/></g>
<g><path style="opacity:1" fill="#e9e9e9" d="M 12.5,111.5 C 13.1667,111.5 13.8333,111.5 14.5,111.5C 16.1014,114.584 16.7681,117.917 16.5,121.5C 18.7373,122.449 21.0706,123.116 23.5,123.5C 23.5,125.167 23.5,126.833 23.5,128.5C 25.4832,128.843 26.8166,128.176 27.5,126.5C 29.1765,127.183 29.8432,128.517 29.5,130.5C 26.9179,130.025 24.9179,130.692 23.5,132.5C 22.8333,132.5 22.1667,132.5 21.5,132.5C 21.2786,131.265 20.6119,130.265 19.5,129.5C 20.6119,128.735 21.2786,127.735 21.5,126.5C 17.9688,124.568 14.3022,122.902 10.5,121.5C 8.26271,122.449 5.92937,123.116 3.5,123.5C 3.5,122.833 3.5,122.167 3.5,121.5C 5.5,120.833 7.5,120.167 9.5,119.5C 10.5,119.5 11.5,119.5 12.5,119.5C 12.5,118.5 12.5,117.5 12.5,116.5C 12.5,114.833 12.5,113.167 12.5,111.5 Z"/></g>
<g><path style="opacity:1" fill="#d7d7d7" d="M 70.5,119.5 C 71.1667,119.5 71.8333,119.5 72.5,119.5C 72.5,120.5 72.5,121.5 72.5,122.5C 73.8333,122.5 75.1667,122.5 76.5,122.5C 76.5,123.5 76.5,124.5 76.5,125.5C 78.1667,125.5 79.8333,125.5 81.5,125.5C 79.3432,126.407 77.0098,127.073 74.5,127.5C 74.5,126.5 74.5,125.5 74.5,124.5C 72.0706,124.884 69.7373,125.551 67.5,126.5C 67.38,125.414 66.7133,124.747 65.5,124.5C 63.8653,125.046 62.1986,125.38 60.5,125.5C 61.5116,124.128 62.5116,122.795 63.5,121.5C 63.3691,122.376 63.7025,123.043 64.5,123.5C 66.7926,122.348 68.7926,121.015 70.5,119.5 Z"/></g>
<g><path style="opacity:1" fill="#dedede" d="M 98.5,119.5 C 98.3699,123.525 97.3699,127.191 95.5,130.5C 92.1043,130.367 91.7709,129.367 94.5,127.5C 93.1468,126.476 92.4802,125.143 92.5,123.5C 90.712,123.785 89.0453,123.452 87.5,122.5C 87.9569,121.702 88.6236,121.369 89.5,121.5C 92.1445,119.758 95.1445,119.091 98.5,119.5 Z"/></g>
<g><path style="opacity:1" fill="#dfdfdf" d="M 10.5,121.5 C 11.449,123.737 12.1156,126.071 12.5,128.5C 12.5,129.167 12.5,129.833 12.5,130.5C 11.2502,130.577 10.4169,131.244 10,132.5C 9.50999,131.207 9.34332,129.873 9.5,128.5C 7.5,128.5 5.5,128.5 3.5,128.5C 3.5,126.833 3.5,125.167 3.5,123.5C 5.92937,123.116 8.26271,122.449 10.5,121.5 Z"/></g>
<g><path style="opacity:1" fill="#dddddd" d="M 10.5,121.5 C 14.3022,122.902 17.9688,124.568 21.5,126.5C 18.4359,126.928 15.4359,127.594 12.5,128.5C 12.1156,126.071 11.449,123.737 10.5,121.5 Z"/></g>
<g><path style="opacity:1" fill="#efefef" d="M 87.5,117.5 C 88.1667,118.833 88.8333,120.167 89.5,121.5C 88.6236,121.369 87.9569,121.702 87.5,122.5C 89.0453,123.452 90.712,123.785 92.5,123.5C 92.4802,125.143 93.1468,126.476 94.5,127.5C 91.7709,129.367 92.1043,130.367 95.5,130.5C 95.7373,131.791 95.404,132.791 94.5,133.5C 93.4324,132.566 92.099,132.232 90.5,132.5C 90.5,131.167 90.5,129.833 90.5,128.5C 88.6776,128.169 87.0109,127.502 85.5,126.5C 85.2178,125.222 84.5511,124.222 83.5,123.5C 81.1528,119.764 82.4862,117.764 87.5,117.5 Z"/></g>
<g><path style="opacity:1" fill="#d1d1d1" d="M 35.5,119.5 C 35.8333,120.833 36.1667,122.167 36.5,123.5C 35.5178,124.141 34.5178,124.807 33.5,125.5C 32.8333,124.5 32.1667,123.5 31.5,122.5C 30.452,123.548 29.452,124.548 28.5,125.5C 27.8333,125.5 27.5,125.833 27.5,126.5C 26.8166,128.176 25.4832,128.843 23.5,128.5C 23.5,126.833 23.5,125.167 23.5,123.5C 25.4832,123.843 26.8166,123.176 27.5,121.5C 29.6353,119.631 32.3019,118.964 35.5,119.5 Z"/></g>
<g><path style="opacity:1" fill="#cdcdcd" d="M 83.5,123.5 C 84.5511,124.222 85.2178,125.222 85.5,126.5C 85.2786,127.735 84.6119,128.735 83.5,129.5C 80.5719,130.484 77.5719,130.817 74.5,130.5C 74.5,129.5 74.5,128.5 74.5,127.5C 77.0098,127.073 79.3432,126.407 81.5,125.5C 81.5,124.167 82.1667,123.5 83.5,123.5 Z"/></g>
<g><path style="opacity:0.875" fill="#d8d8d8" d="M 36.5,123.5 C 38.1911,124.864 39.8577,126.197 41.5,127.5C 41.5,129.167 41.5,130.833 41.5,132.5C 39.5853,132.216 37.9187,132.549 36.5,133.5C 34.7376,133.357 33.0709,133.691 31.5,134.5C 31.4496,131.277 30.4496,128.277 28.5,125.5C 29.452,124.548 30.452,123.548 31.5,122.5C 32.1667,123.5 32.8333,124.5 33.5,125.5C 34.5178,124.807 35.5178,124.141 36.5,123.5 Z"/></g>
<g><path style="opacity:0.875" fill="#bbbbbb" d="M 67.5,126.5 C 65.5168,126.157 64.1834,126.824 63.5,128.5C 60.8049,129.428 58.4715,130.761 56.5,132.5C 54.8235,131.817 54.1568,130.483 54.5,128.5C 56.7105,127.877 58.7105,126.877 60.5,125.5C 62.1986,125.38 63.8653,125.046 65.5,124.5C 66.7133,124.747 67.38,125.414 67.5,126.5 Z"/></g>
<g><path style="opacity:1" fill="#e3e3e3" d="M 74.5,127.5 C 74.5,128.5 74.5,129.5 74.5,130.5C 75.0545,134.012 74.3878,137.012 72.5,139.5C 72.5,138.833 72.5,138.167 72.5,137.5C 71.3915,136.71 70.0581,136.21 68.5,136C 69.9606,134.649 71.294,133.149 72.5,131.5C 69.5817,130.13 66.5817,129.13 63.5,128.5C 64.1834,126.824 65.5168,126.157 67.5,126.5C 69.7373,125.551 72.0706,124.884 74.5,124.5C 74.5,125.5 74.5,126.5 74.5,127.5 Z"/></g>
<g><path style="opacity:1" fill="#d9d9d9" d="M 85.5,126.5 C 87.0109,127.502 88.6776,128.169 90.5,128.5C 90.5,129.833 90.5,131.167 90.5,132.5C 88.1667,132.5 85.8333,132.5 83.5,132.5C 81.1667,132.5 78.8333,132.5 76.5,132.5C 76.1103,135.466 76.777,138.132 78.5,140.5C 78.0431,141.298 77.3764,141.631 76.5,141.5C 74.5168,141.843 73.1834,141.176 72.5,139.5C 74.3878,137.012 75.0545,134.012 74.5,130.5C 77.5719,130.817 80.5719,130.484 83.5,129.5C 84.6119,128.735 85.2786,127.735 85.5,126.5 Z"/></g>
<g><path style="opacity:0.91" fill="#e1e1e1" d="M 3.5,128.5 C 5.5,128.5 7.5,128.5 9.5,128.5C 9.34332,129.873 9.50999,131.207 10,132.5C 10.4169,131.244 11.2502,130.577 12.5,130.5C 14.5,130.5 16.5,130.5 18.5,130.5C 18.5,131.833 18.5,133.167 18.5,134.5C 16.4534,134.489 14.4534,134.156 12.5,133.5C 11.8333,133.833 11.1667,134.167 10.5,134.5C 11.7287,135.281 13.062,135.781 14.5,136C 12.9419,136.21 11.6085,136.71 10.5,137.5C 10.3285,139.492 10.9951,141.158 12.5,142.5C 14.7871,143.215 16.9538,143.549 19,143.5C 19.6667,144.167 19.6667,144.833 19,145.5C 18.0053,146.066 17.172,146.733 16.5,147.5C 8.94084,143.384 4.6075,137.051 3.5,128.5 Z"/></g>
<g><path style="opacity:1" fill="#dadada" d="M 47.5,128.5 C 49.698,129.067 52.0314,129.067 54.5,128.5C 54.1568,130.483 54.8235,131.817 56.5,132.5C 56.5,133.5 56.5,134.5 56.5,135.5C 58.5542,135.365 60.2209,136.032 61.5,137.5C 61.2089,138.649 60.3756,139.316 59,139.5C 56.7562,138.76 54.9229,137.426 53.5,135.5C 52.5713,136.689 52.238,138.022 52.5,139.5C 51.2436,139.904 50.0769,140.571 49,141.5C 47.9701,141.164 47.4701,140.497 47.5,139.5C 48.0431,139.44 48.3764,139.107 48.5,138.5C 47.0144,136.698 46.0144,134.698 45.5,132.5C 47.924,132.808 50.2573,132.474 52.5,131.5C 50.3449,130.999 48.6782,129.999 47.5,128.5 Z"/></g>
<g><path style="opacity:1" fill="#dbdbdb" d="M 27.5,126.5 C 27.5,125.833 27.8333,125.5 28.5,125.5C 30.4496,128.277 31.4496,131.277 31.5,134.5C 33.0709,133.691 34.7376,133.357 36.5,133.5C 37.6497,136.298 38.983,138.965 40.5,141.5C 39.8166,143.176 38.4832,143.843 36.5,143.5C 36.5,144.5 36.5,145.5 36.5,146.5C 35.4138,146.38 34.7472,145.713 34.5,144.5C 35.9371,142.423 36.6038,140.09 36.5,137.5C 35.1667,137.5 33.8333,137.5 32.5,137.5C 32.5,138.833 32.5,140.167 32.5,141.5C 30.2188,141.923 28.5521,141.256 27.5,139.5C 27.4012,136.361 26.0679,134.027 23.5,132.5C 24.9179,130.692 26.9179,130.025 29.5,130.5C 29.8432,128.517 29.1765,127.183 27.5,126.5 Z"/></g>
<g><path style="opacity:1" fill="#cdcdcd" d="M 41.5,132.5 C 42.8333,134.833 44.1667,137.167 45.5,139.5C 43.8235,140.183 43.1568,141.517 43.5,143.5C 42.2223,143.218 41.2223,142.551 40.5,141.5C 38.983,138.965 37.6497,136.298 36.5,133.5C 37.9187,132.549 39.5853,132.216 41.5,132.5 Z"/></g>
<g><path style="opacity:1" fill="#d0d0d0" d="M 63.5,128.5 C 66.5817,129.13 69.5817,130.13 72.5,131.5C 71.294,133.149 69.9606,134.649 68.5,136C 70.0581,136.21 71.3915,136.71 72.5,137.5C 70.4458,137.365 68.7791,138.032 67.5,139.5C 66.9344,137.922 65.9344,136.588 64.5,135.5C 63.7348,136.612 62.7348,137.279 61.5,137.5C 60.2209,136.032 58.5542,135.365 56.5,135.5C 56.5,134.5 56.5,133.5 56.5,132.5C 58.4715,130.761 60.8049,129.428 63.5,128.5 Z"/></g>
<g><path style="opacity:1" fill="#cbcbcb" d="M 83.5,132.5 C 83.5,133.5 83.5,134.5 83.5,135.5C 81.8235,136.183 81.1568,137.517 81.5,139.5C 82.9778,139.238 84.3112,139.571 85.5,140.5C 83.8955,142.179 83.2289,144.179 83.5,146.5C 81.9519,146.179 81.2852,145.179 81.5,143.5C 79.8333,143.5 78.1667,143.5 76.5,143.5C 76.5,142.833 76.5,142.167 76.5,141.5C 77.3764,141.631 78.0431,141.298 78.5,140.5C 76.777,138.132 76.1103,135.466 76.5,132.5C 78.8333,132.5 81.1667,132.5 83.5,132.5 Z"/></g>
<g><path style="opacity:1" fill="#bfbfbf" d="M 83.5,132.5 C 85.8333,132.5 88.1667,132.5 90.5,132.5C 92.099,132.232 93.4324,132.566 94.5,133.5C 94.2671,135.062 93.6005,136.395 92.5,137.5C 89.6644,136.224 86.6644,135.558 83.5,135.5C 83.5,134.5 83.5,133.5 83.5,132.5 Z"/></g>
<g><path style="opacity:1" fill="#d6d6d6" d="M 21.5,126.5 C 21.2786,127.735 20.6119,128.735 19.5,129.5C 20.6119,130.265 21.2786,131.265 21.5,132.5C 19.9519,132.821 19.2852,133.821 19.5,135.5C 20.9778,135.238 22.3112,135.571 23.5,136.5C 22.1336,138.322 20.3002,139.322 18,139.5C 15.5103,138.664 13.0103,137.998 10.5,137.5C 11.6085,136.71 12.9419,136.21 14.5,136C 13.062,135.781 11.7287,135.281 10.5,134.5C 11.1667,134.167 11.8333,133.833 12.5,133.5C 14.4534,134.156 16.4534,134.489 18.5,134.5C 18.5,133.167 18.5,131.833 18.5,130.5C 16.5,130.5 14.5,130.5 12.5,130.5C 12.5,129.833 12.5,129.167 12.5,128.5C 15.4359,127.594 18.4359,126.928 21.5,126.5 Z"/></g>
<g><path style="opacity:1" fill="#e4e4e4" d="M 41.5,127.5 C 43.4352,128.15 45.4352,128.483 47.5,128.5C 48.6782,129.999 50.3449,130.999 52.5,131.5C 50.2573,132.474 47.924,132.808 45.5,132.5C 46.0144,134.698 47.0144,136.698 48.5,138.5C 48.3764,139.107 48.0431,139.44 47.5,139.5C 46.8333,139.5 46.1667,139.5 45.5,139.5C 44.1667,137.167 42.8333,134.833 41.5,132.5C 41.5,130.833 41.5,129.167 41.5,127.5 Z"/></g>
<g><path style="opacity:1" fill="#e0e0e0" d="M 83.5,135.5 C 86.6644,135.558 89.6644,136.224 92.5,137.5C 90.4784,141.522 87.4784,144.522 83.5,146.5C 83.2289,144.179 83.8955,142.179 85.5,140.5C 84.3112,139.571 82.9778,139.238 81.5,139.5C 81.1568,137.517 81.8235,136.183 83.5,135.5 Z"/></g>
<g><path style="opacity:1" fill="#e3e3e3" d="M 45.5,139.5 C 46.1667,139.5 46.8333,139.5 47.5,139.5C 47.4701,140.497 47.9701,141.164 49,141.5C 50.0769,140.571 51.2436,139.904 52.5,139.5C 52.5,141.167 52.5,142.833 52.5,144.5C 49.3056,144.27 46.3056,144.936 43.5,146.5C 42.8333,146.167 42.1667,145.833 41.5,145.5C 42.2427,144.818 42.9094,144.151 43.5,143.5C 43.1568,141.517 43.8235,140.183 45.5,139.5 Z"/></g>
<g><path style="opacity:1" fill="#ededed" d="M 61.5,137.5 C 62.7348,137.279 63.7348,136.612 64.5,135.5C 65.9344,136.588 66.9344,137.922 67.5,139.5C 66.1667,139.5 64.8333,139.5 63.5,139.5C 63.5,140.5 63.5,141.5 63.5,142.5C 62.1779,142.33 61.0113,142.663 60,143.5C 59.8184,145.33 60.3184,146.997 61.5,148.5C 59.8762,148.36 58.7096,149.027 58,150.5C 57.7216,149.584 57.2216,148.918 56.5,148.5C 54.9145,147.467 53.5812,146.134 52.5,144.5C 52.5,142.833 52.5,141.167 52.5,139.5C 52.238,138.022 52.5713,136.689 53.5,135.5C 54.9229,137.426 56.7562,138.76 59,139.5C 60.3756,139.316 61.2089,138.649 61.5,137.5 Z"/></g>
<g><path style="opacity:1" fill="#c4c4c4" d="M 72.5,137.5 C 72.5,138.167 72.5,138.833 72.5,139.5C 73.1834,141.176 74.5168,141.843 76.5,141.5C 76.5,142.167 76.5,142.833 76.5,143.5C 74.5168,143.157 73.1834,143.824 72.5,145.5C 70.5679,144.416 68.7346,143.083 67,141.5C 65.9231,142.429 64.7564,143.096 63.5,143.5C 63.5,143.167 63.5,142.833 63.5,142.5C 63.5,141.5 63.5,140.5 63.5,139.5C 64.8333,139.5 66.1667,139.5 67.5,139.5C 68.7791,138.032 70.4458,137.365 72.5,137.5 Z"/></g>
<g><path style="opacity:1" fill="#c6c6c6" d="M 21.5,132.5 C 22.1667,132.5 22.8333,132.5 23.5,132.5C 26.0679,134.027 27.4012,136.361 27.5,139.5C 26.1667,139.5 24.8333,139.5 23.5,139.5C 23.5,141.833 23.5,144.167 23.5,146.5C 21.7121,147.36 20.0455,148.36 18.5,149.5C 17.5,149.167 16.8333,148.5 16.5,147.5C 17.172,146.733 18.0053,146.066 19,145.5C 19.6667,144.833 19.6667,144.167 19,143.5C 16.9538,143.549 14.7871,143.215 12.5,142.5C 10.9951,141.158 10.3285,139.492 10.5,137.5C 13.0103,137.998 15.5103,138.664 18,139.5C 20.3002,139.322 22.1336,138.322 23.5,136.5C 22.3112,135.571 20.9778,135.238 19.5,135.5C 19.2852,133.821 19.9519,132.821 21.5,132.5 Z"/></g>
<g><path style="opacity:1" fill="#cfcfcf" d="M 72.5,145.5 C 72.5,146.5 72.5,147.5 72.5,148.5C 70.1667,148.5 67.8333,148.5 65.5,148.5C 65.6347,146.446 64.968,144.779 63.5,143.5C 64.7564,143.096 65.9231,142.429 67,141.5C 68.7346,143.083 70.5679,144.416 72.5,145.5 Z"/></g>
<g><path style="opacity:1" fill="#ededed" d="M 36.5,146.5 C 37.1667,146.5 37.8333,146.5 38.5,146.5C 37.0821,148.308 35.0821,148.975 32.5,148.5C 31.325,148.719 30.325,148.386 29.5,147.5C 30.2458,146.264 30.5792,144.93 30.5,143.5C 29.448,143.649 28.448,143.483 27.5,143C 29.3817,142.802 31.0484,142.302 32.5,141.5C 32.5,140.167 32.5,138.833 32.5,137.5C 33.8333,137.5 35.1667,137.5 36.5,137.5C 36.6038,140.09 35.9371,142.423 34.5,144.5C 34.7472,145.713 35.4138,146.38 36.5,146.5 Z"/></g>
<g><path style="opacity:1" fill="#e1e1e1" d="M 27.5,139.5 C 28.5521,141.256 30.2188,141.923 32.5,141.5C 31.0484,142.302 29.3817,142.802 27.5,143C 28.448,143.483 29.448,143.649 30.5,143.5C 30.5792,144.93 30.2458,146.264 29.5,147.5C 30.325,148.386 31.325,148.719 32.5,148.5C 32.6716,149.492 32.3382,150.158 31.5,150.5C 28.6633,149.497 25.9967,148.164 23.5,146.5C 23.5,144.167 23.5,141.833 23.5,139.5C 24.8333,139.5 26.1667,139.5 27.5,139.5 Z"/></g>
<g><path style="opacity:1" fill="#cecece" d="M 40.5,141.5 C 41.2223,142.551 42.2223,143.218 43.5,143.5C 42.9094,144.151 42.2427,144.818 41.5,145.5C 42.1667,145.833 42.8333,146.167 43.5,146.5C 46.3056,144.936 49.3056,144.27 52.5,144.5C 53.5812,146.134 54.9145,147.467 56.5,148.5C 55.8166,150.176 54.4832,150.843 52.5,150.5C 52.5,149.167 52.5,147.833 52.5,146.5C 50.0706,146.884 47.7373,147.551 45.5,148.5C 43.5168,148.157 42.1834,148.824 41.5,150.5C 40.0221,149.552 39.0221,148.219 38.5,146.5C 37.8333,146.5 37.1667,146.5 36.5,146.5C 36.5,145.5 36.5,144.5 36.5,143.5C 38.4832,143.843 39.8166,143.176 40.5,141.5 Z"/></g>
<g><path style="opacity:1" fill="#dadada" d="M 56.5,148.5 C 57.2216,148.918 57.7216,149.584 58,150.5C 58.7096,149.027 59.8762,148.36 61.5,148.5C 62.1079,149.8 62.7745,151.133 63.5,152.5C 63.1667,153.167 62.8333,153.833 62.5,154.5C 61.4763,153.147 60.143,152.48 58.5,152.5C 55.8527,151.176 53.186,151.176 50.5,152.5C 48.2687,151.691 46.602,150.357 45.5,148.5C 47.7373,147.551 50.0706,146.884 52.5,146.5C 52.5,147.833 52.5,149.167 52.5,150.5C 54.4832,150.843 55.8166,150.176 56.5,148.5 Z"/></g>
<g><path style="opacity:1" fill="#cfcfcf" d="M 23.5,146.5 C 25.9967,148.164 28.6633,149.497 31.5,150.5C 31.6107,151.117 31.944,151.617 32.5,152C 30.2922,152.191 28.2922,152.691 26.5,153.5C 23.6079,152.606 20.9413,151.272 18.5,149.5C 20.0455,148.36 21.7121,147.36 23.5,146.5 Z"/></g>
<g><path style="opacity:1" fill="#dedede" d="M 38.5,146.5 C 39.0221,148.219 40.0221,149.552 41.5,150.5C 42.8333,152.833 44.1667,155.167 45.5,157.5C 38.9242,157.185 32.5909,155.852 26.5,153.5C 28.2922,152.691 30.2922,152.191 32.5,152C 31.944,151.617 31.6107,151.117 31.5,150.5C 32.3382,150.158 32.6716,149.492 32.5,148.5C 35.0821,148.975 37.0821,148.308 38.5,146.5 Z"/></g>
<g><path style="opacity:0.799" fill="#e0e0e0" d="M 76.5,143.5 C 78.1667,143.5 79.8333,143.5 81.5,143.5C 81.2852,145.179 81.9519,146.179 83.5,146.5C 79.2597,150.455 74.2597,153.122 68.5,154.5C 67.548,153.548 66.548,152.548 65.5,151.5C 68.2949,151.062 70.6283,150.062 72.5,148.5C 72.5,147.5 72.5,146.5 72.5,145.5C 73.1834,143.824 74.5168,143.157 76.5,143.5 Z"/></g>
<g><path style="opacity:0.956" fill="#f0f0f0" d="M 45.5,148.5 C 46.602,150.357 48.2687,151.691 50.5,152.5C 53.186,151.176 55.8527,151.176 58.5,152.5C 57.0821,154.308 55.0821,154.975 52.5,154.5C 52.5,155.5 52.5,156.5 52.5,157.5C 50.1667,157.5 47.8333,157.5 45.5,157.5C 44.1667,155.167 42.8333,152.833 41.5,150.5C 42.1834,148.824 43.5168,148.157 45.5,148.5 Z"/></g>
<g><path style="opacity:0.962" fill="#e8e8e8" d="M 63.5,142.5 C 63.5,142.833 63.5,143.167 63.5,143.5C 64.968,144.779 65.6347,146.446 65.5,148.5C 67.8333,148.5 70.1667,148.5 72.5,148.5C 70.6283,150.062 68.2949,151.062 65.5,151.5C 66.548,152.548 67.548,153.548 68.5,154.5C 63.4753,156.504 58.142,157.504 52.5,157.5C 52.5,156.5 52.5,155.5 52.5,154.5C 55.0821,154.975 57.0821,154.308 58.5,152.5C 60.143,152.48 61.4763,153.147 62.5,154.5C 62.8333,153.833 63.1667,153.167 63.5,152.5C 62.7745,151.133 62.1079,149.8 61.5,148.5C 60.3184,146.997 59.8184,145.33 60,143.5C 61.0113,142.663 62.1779,142.33 63.5,142.5 Z"/></g>
</svg>
